<svg width="69" height="69" viewBox="0 0 69 69" fill="none" xmlns="http://www.w3.org/2000/svg">
<path d="M34.5405 39.6486C36.1605 39.6486 37.7141 39.005 38.8596 37.8595C40.005 36.714 40.6486 35.1604 40.6486 33.5405C40.6486 31.9205 40.005 30.3669 38.8596 29.2214C37.7141 28.0759 36.1605 27.4324 34.5405 27.4324C32.9205 27.4324 31.3669 28.0759 30.2214 29.2214C29.0759 30.3669 28.4324 31.9205 28.4324 33.5405C28.4324 35.1604 29.0759 36.714 30.2214 37.8595C31.3669 39.005 32.9205 39.6486 34.5405 39.6486Z" fill="#21CEA0"/>
<path fill-rule="evenodd" clip-rule="evenodd" d="M5.39873 33.5405C9.28958 21.1502 20.8644 12.1622 34.5404 12.1622C48.2165 12.1622 59.7913 21.1502 63.6821 33.5405C59.7913 45.9308 48.2165 54.9188 34.5404 54.9188C20.8644 54.9188 9.28958 45.9308 5.39873 33.5405ZM46.7566 33.5405C46.7566 36.7804 45.4696 39.8877 43.1786 42.1786C40.8876 44.4696 37.7804 45.7567 34.5404 45.7567C31.3005 45.7567 28.1933 44.4696 25.9023 42.1786C23.6113 39.8877 22.3243 36.7804 22.3243 33.5405C22.3243 30.3006 23.6113 27.1933 25.9023 24.9023C28.1933 22.6114 31.3005 21.3243 34.5404 21.3243C37.7804 21.3243 40.8876 22.6114 43.1786 24.9023C45.4696 27.1933 46.7566 30.3006 46.7566 33.5405Z" fill="#21CEA0"/>
</svg>
