<svg width="109" height="67" viewBox="0 0 109 67" fill="none" xmlns="http://www.w3.org/2000/svg">
<g opacity="0.7">
<g filter="url(#filter0_d)">
<rect x="12" y="9" width="86" height="48" rx="5" fill="#2B4FEB"/>
</g>
<path d="M25.436 32.09C25.16 32.09 24.932 32.006 24.752 31.838C24.584 31.658 24.5 31.43 24.5 31.154V20.858H20.9C20.324 20.858 20.036 20.6 20.036 20.084C20.036 19.832 20.108 19.64 20.252 19.508C20.408 19.376 20.624 19.31 20.9 19.31H29.972C30.248 19.31 30.458 19.376 30.602 19.508C30.758 19.64 30.836 19.832 30.836 20.084C30.836 20.6 30.548 20.858 29.972 20.858H26.372V31.154C26.372 31.43 26.288 31.658 26.12 31.838C25.952 32.006 25.724 32.09 25.436 32.09ZM34.6398 23C35.8038 23 36.6678 23.294 37.2318 23.882C37.8078 24.47 38.0958 25.364 38.0958 26.564V31.226C38.0958 31.502 38.0178 31.718 37.8618 31.874C37.7058 32.018 37.4898 32.09 37.2138 32.09C36.9498 32.09 36.7398 32.012 36.5838 31.856C36.4278 31.7 36.3498 31.49 36.3498 31.226V30.56C36.1218 31.064 35.7798 31.454 35.3238 31.73C34.8798 31.994 34.3578 32.126 33.7578 32.126C33.1818 32.126 32.6538 32.012 32.1738 31.784C31.6938 31.544 31.3158 31.214 31.0398 30.794C30.7758 30.374 30.6438 29.906 30.6438 29.39C30.6438 28.754 30.8058 28.256 31.1298 27.896C31.4658 27.524 32.0118 27.26 32.7678 27.104C33.5358 26.948 34.5858 26.87 35.9178 26.87H36.3318V26.348C36.3318 25.676 36.1938 25.19 35.9178 24.89C35.6418 24.59 35.1978 24.44 34.5858 24.44C34.1658 24.44 33.7698 24.494 33.3978 24.602C33.0258 24.71 32.6178 24.866 32.1738 25.07C31.8498 25.25 31.6218 25.34 31.4898 25.34C31.3098 25.34 31.1598 25.274 31.0398 25.142C30.9318 25.01 30.8778 24.842 30.8778 24.638C30.8778 24.458 30.9258 24.302 31.0218 24.17C31.1298 24.026 31.2978 23.888 31.5258 23.756C31.9458 23.528 32.4378 23.348 33.0018 23.216C33.5658 23.072 34.1118 23 34.6398 23ZM34.0818 30.776C34.7418 30.776 35.2818 30.554 35.7018 30.11C36.1218 29.654 36.3318 29.072 36.3318 28.364V27.896H36.0078C35.0718 27.896 34.3518 27.938 33.8478 28.022C33.3438 28.106 32.9838 28.25 32.7678 28.454C32.5518 28.646 32.4438 28.928 32.4438 29.3C32.4438 29.732 32.5998 30.086 32.9118 30.362C33.2238 30.638 33.6138 30.776 34.0818 30.776ZM45.4786 23C46.2466 23 46.9246 23.186 47.5126 23.558C48.1006 23.93 48.5566 24.458 48.8806 25.142C49.2166 25.826 49.3846 26.624 49.3846 27.536C49.3846 28.436 49.2166 29.234 48.8806 29.93C48.5566 30.626 48.0946 31.166 47.4946 31.55C46.9066 31.934 46.2346 32.126 45.4786 32.126C44.8186 32.126 44.2366 31.988 43.7326 31.712C43.2286 31.424 42.8446 31.016 42.5806 30.488V31.208C42.5806 31.472 42.4966 31.688 42.3286 31.856C42.1726 32.012 41.9566 32.09 41.6806 32.09C41.4046 32.09 41.1826 32.012 41.0146 31.856C40.8466 31.688 40.7626 31.472 40.7626 31.208V20.084C40.7626 19.82 40.8466 19.61 41.0146 19.454C41.1946 19.298 41.4226 19.22 41.6986 19.22C41.9626 19.22 42.1726 19.298 42.3286 19.454C42.4966 19.598 42.5806 19.796 42.5806 20.048V24.656C42.8446 24.128 43.2286 23.72 43.7326 23.432C44.2366 23.144 44.8186 23 45.4786 23ZM45.0466 30.686C45.8266 30.686 46.4326 30.41 46.8646 29.858C47.3086 29.306 47.5306 28.532 47.5306 27.536C47.5306 26.552 47.3146 25.796 46.8826 25.268C46.4506 24.728 45.8386 24.458 45.0466 24.458C44.2546 24.458 43.6426 24.728 43.2106 25.268C42.7906 25.808 42.5806 26.576 42.5806 27.572C42.5806 28.568 42.7906 29.336 43.2106 29.876C43.6426 30.416 44.2546 30.686 45.0466 30.686Z" fill="white"/>
<path d="M21.5 43H60.5M60.5 43L55 37.5M60.5 43L55 48.5M60.5 43V37.5V48.5" stroke="white" stroke-width="2" stroke-linecap="round" stroke-linejoin="round"/>
</g>
<defs>
<filter id="filter0_d" x="12" y="9" width="86" height="50" filterUnits="userSpaceOnUse" color-interpolation-filters="sRGB">
<feFlood flood-opacity="0" result="BackgroundImageFix"/>
<feColorMatrix in="SourceAlpha" type="matrix" values="0 0 0 0 0 0 0 0 0 0 0 0 0 0 0 0 0 0 127 0"/>
<feOffset dy="2"/>
<feColorMatrix type="matrix" values="0 0 0 0 0.168627 0 0 0 0 0.309804 0 0 0 0 0.921569 0 0 0 0.1 0"/>
<feBlend mode="normal" in2="BackgroundImageFix" result="effect1_dropShadow"/>
<feBlend mode="normal" in="SourceGraphic" in2="effect1_dropShadow" result="shape"/>
</filter>
</defs>
</svg>
