<svg width="69" height="69" viewBox="0 0 69 69" fill="none" xmlns="http://www.w3.org/2000/svg">
<g clip-path="url(#clip0)">
<g clip-path="url(#clip1)">
<path fill-rule="evenodd" clip-rule="evenodd" d="M33.3184 14.5559C33.8451 14.7743 34.2953 15.144 34.6119 15.6182C34.9285 16.0923 35.0975 16.6498 35.0973 17.2199V51.8174C35.0972 52.3876 34.928 52.9449 34.6112 53.4189C34.2944 53.8929 33.8442 54.2623 33.3174 54.4805C32.7907 54.6987 32.2111 54.7558 31.6519 54.6446C31.0927 54.5334 30.579 54.2589 30.1758 53.8558L19.4881 43.1681H12.0323C11.2677 43.1681 10.5343 42.8643 9.99365 42.3236C9.45296 41.7829 9.1492 41.0496 9.1492 40.2849V28.7524C9.1492 27.9878 9.45296 27.2545 9.99365 26.7138C10.5343 26.1731 11.2677 25.8693 12.0323 25.8693H19.4881L30.1758 15.1816C30.579 14.7781 31.0928 14.5033 31.6522 14.392C32.2116 14.2806 32.7915 14.3377 33.3184 14.5559Z" fill="#21CEA0"/>
<path fill-rule="evenodd" clip-rule="evenodd" d="M41.7084 26.714C42.2491 26.1735 42.9823 25.8698 43.7468 25.8698C44.5113 25.8698 45.2445 26.1735 45.7851 26.714L49.513 30.4419L53.2409 26.714C53.5068 26.4386 53.825 26.219 54.1767 26.0679C54.5285 25.9168 54.9068 25.8372 55.2896 25.8339C55.6725 25.8306 56.0521 25.9035 56.4064 26.0485C56.7607 26.1935 57.0827 26.4075 57.3534 26.6782C57.6241 26.949 57.8381 27.2709 57.9831 27.6252C58.1281 27.9795 58.201 28.3592 58.1977 28.742C58.1944 29.1248 58.1148 29.5031 57.9637 29.8549C57.8126 30.2066 57.593 30.5248 57.3176 30.7907L53.5897 34.5186L57.3176 38.2465C57.8428 38.7902 58.1334 39.5185 58.1268 40.2745C58.1203 41.0304 57.8171 41.7535 57.2825 42.2881C56.7479 42.8227 56.0248 43.1259 55.2689 43.1324C54.5129 43.139 53.7846 42.8484 53.2409 42.3232L49.513 38.5953L45.7851 42.3232C45.2414 42.8484 44.5131 43.139 43.7571 43.1324C43.0012 43.1259 42.2781 42.8227 41.7435 42.2881C41.209 41.7535 40.9057 41.0304 40.8992 40.2745C40.8926 39.5185 41.1832 38.7902 41.7084 38.2465L45.4363 34.5186L41.7084 30.7907C41.1679 30.2501 40.8643 29.5169 40.8643 28.7524C40.8643 27.9879 41.1679 27.2547 41.7084 26.714Z" fill="#21CEA0"/>
</g>
</g>
<defs>
<clipPath id="clip0">
<rect width="69" height="69" fill="white"/>
</clipPath>
<clipPath id="clip1">
<rect width="57.6625" height="57.6625" fill="white" transform="translate(17.8996 -2) rotate(20.1882)"/>
</clipPath>
</defs>
</svg>
