<svg width="263" height="231" viewBox="0 0 263 231" fill="none" xmlns="http://www.w3.org/2000/svg">
<rect x="8.18479" y="10.5324" width="245.63" height="211.086" rx="13.3243" stroke="#21CEA0" stroke-width="1.15863"/>
<path fill-rule="evenodd" clip-rule="evenodd" d="M132.383 145.561C140.003 145.561 147.312 142.534 152.701 137.145C158.089 131.756 161.117 124.448 161.117 116.827C161.117 109.206 158.089 101.898 152.701 96.5089C147.312 91.1202 140.003 88.0928 132.383 88.0928C124.762 88.0928 117.453 91.1202 112.064 96.5089C106.676 101.898 103.648 109.206 103.648 116.827C103.648 124.448 106.676 131.756 112.064 137.145C117.453 142.534 124.762 145.561 132.383 145.561V145.561ZM130.784 106.655C130.243 106.294 129.615 106.087 128.965 106.055C128.316 106.024 127.67 106.169 127.096 106.476C126.523 106.783 126.044 107.239 125.71 107.797C125.375 108.355 125.199 108.993 125.199 109.643V124.01C125.199 124.661 125.375 125.299 125.71 125.857C126.044 126.415 126.523 126.871 127.096 127.178C127.67 127.485 128.316 127.63 128.965 127.599C129.615 127.567 130.243 127.36 130.784 126.999L141.56 119.815C142.051 119.487 142.455 119.043 142.734 118.522C143.013 118 143.159 117.418 143.159 116.827C143.159 116.236 143.013 115.654 142.734 115.132C142.455 114.611 142.051 114.167 141.56 113.839L130.784 106.655V106.655Z" fill="#21CEA0"/>
</svg>
