<?xml version="1.0" encoding="UTF-8"?>
<svg width="31px" height="38px" viewBox="0 0 31 38" version="1.1" xmlns="http://www.w3.org/2000/svg" xmlns:xlink="http://www.w3.org/1999/xlink">
    <!-- Generator: Sketch 64 (93537) - https://sketch.com -->
    <title>Group 244</title>
    <desc>Created with Sketch.</desc>
    <g id="Page-1" stroke="none" stroke-width="1" fill="none" fill-rule="evenodd">
        <g id="Group-244" fill="#FFFFFF">
            <path d="M15.6565,27.2116 C15.3615,27.2116 15.0665,27.0986 14.8415,26.8736 L10.2285,22.2616 C9.7775,21.8106 9.7775,21.0816 10.2285,20.6306 C10.6795,20.1796 11.4085,20.1796 11.8595,20.6306 L15.6565,24.4276 L19.4535,20.6306 C19.9045,20.1796 20.6335,20.1796 21.0845,20.6306 C21.5355,21.0816 21.5355,21.8106 21.0845,22.2616 L16.4715,26.8736 C16.2465,27.0986 15.9515,27.2116 15.6565,27.2116" id="Fill-234"></path>
            <path d="M15.6565,27.2116 C15.0195,27.2116 14.5035,26.6966 14.5035,26.0586 L14.5035,14.5276 C14.5035,13.8906 15.0195,13.3746 15.6565,13.3746 C16.2935,13.3746 16.8095,13.8906 16.8095,14.5276 L16.8095,26.0586 C16.8095,26.6966 16.2935,27.2116 15.6565,27.2116" id="Fill-236"></path>
            <path d="M22.5753,31.8241 L8.7383,31.8241 C8.1013,31.8241 7.5843,31.3091 7.5843,30.6711 C7.5843,30.0331 8.1013,29.5181 8.7383,29.5181 L22.5753,29.5181 C23.2133,29.5181 23.7283,30.0331 23.7283,30.6711 C23.7283,31.3091 23.2133,31.8241 22.5753,31.8241" id="Fill-238"></path>
            <path d="M27.6894,37.5897 L3.6274,37.5897 C1.9944,37.5897 0.6664,36.2947 0.6664,34.7037 L0.6664,11.0147 C0.6664,10.0127 1.0734,9.0317 1.7814,8.3227 L8.2974,1.8057 C9.0164,1.0847 9.9744,0.6897 10.9914,0.6897 L27.6884,0.6897 C29.3204,0.6897 30.6474,1.9837 30.6474,3.5737 L30.6474,34.7057 C30.6474,36.2957 29.3214,37.5897 27.6894,37.5897 L27.6894,37.5897 Z M10.9914,2.9957 C10.5894,2.9957 10.2124,3.1517 9.9294,3.4357 L3.4114,9.9527 C3.1324,10.2317 2.9724,10.6197 2.9724,11.0147 L2.9724,34.7037 C2.9724,35.0227 3.2664,35.2837 3.6274,35.2837 L27.6884,35.2837 C28.0484,35.2837 28.3414,35.0237 28.3414,34.7057 L28.3414,3.5737 C28.3414,3.2557 28.0484,2.9957 27.6884,2.9957 L10.9914,2.9957 Z" id="Fill-240"></path>
            <path d="M9.3143,12.2209 L5.2783,12.2209 C4.6423,12.2209 4.1253,11.7039 4.1253,11.0679 C4.1253,10.4309 4.6423,9.9149 5.2783,9.9149 L9.3143,9.9149 C9.6323,9.9149 9.8913,9.6559 9.8913,9.3379 L9.8913,5.3019 C9.8913,4.6659 10.4073,4.1489 11.0443,4.1489 C11.6803,4.1489 12.1973,4.6659 12.1973,5.3019 L12.1973,9.3379 C12.1973,10.9269 10.9033,12.2209 9.3143,12.2209" id="Fill-242"></path>
        </g>
    </g>
</svg>