<?xml version="1.0" encoding="UTF-8"?>
<svg width="41px" height="34px" viewBox="0 0 41 34" version="1.1" xmlns="http://www.w3.org/2000/svg" xmlns:xlink="http://www.w3.org/1999/xlink">
    <!-- Generator: Sketch 64 (93537) - https://sketch.com -->
    <title>Group 270</title>
    <desc>Created with Sketch.</desc>
    <g id="Page-1" stroke="none" stroke-width="1" fill="none" fill-rule="evenodd">
        <g id="Group-270" transform="translate(-0.184211, 0.000000)" fill="#FFFFFF">
            <path d="M17.094902,34 C16.9494979,34 16.8031497,33.9592551 16.6785177,33.8981377 C16.5538856,33.8166478 16.4500256,33.7138595 16.3669375,33.5916247 C16.2838495,33.4490174 16.2621333,33.3267826 16.2621333,33.1628768 C16.2621333,33.0202696 16.2838495,32.8980348 16.3669375,32.7554275 C16.4500256,32.6322667 16.5538856,32.5304044 16.6785177,32.4489145 C16.8031497,32.3877971 16.9494979,32.3470522 17.094902,32.3470522 L19.8207559,32.3470522 L19.8207559,26.9390884 C19.3835996,26.9187159 18.9256712,26.8575985 18.4894591,26.7548102 C18.0107587,26.6325754 17.5320583,26.4695956 17.07413,26.265871 C16.1790453,25.8371232 15.3264488,25.2453956 14.5975402,24.5305073 C13.8903477,23.8165449 13.2870153,22.9794218 12.870631,22.1024797 C12.6421389,21.6533594 12.4759628,21.1838667 12.3711586,20.6940014 C12.2465265,20.2041362 12.1842105,19.714271 12.1842105,19.2244058 L12.1842105,19.0206811 L12.1842105,18.9595637 L12.1842105,16.8371232 C12.1842105,16.6741434 12.2257545,16.5509826 12.2880706,16.4083753 C12.3711586,16.2861405 12.4759628,16.1842782 12.6005949,16.1018623 C12.7459989,16.0407449 12.870631,16 13.0169792,16 C13.1831553,16 13.3077873,16.0407449 13.4531914,16.1018623 C13.5787676,16.1842782 13.6826276,16.2861405 13.7657157,16.4083753 C13.8280317,16.5509826 13.8695757,16.6741434 13.8695757,16.8371232 L13.8695757,17.3066159 L13.8695757,19.2244058 C13.8695757,19.5920362 13.9111197,19.9596666 13.9942077,20.3059986 C14.099012,20.673629 14.223644,21.0412594 14.3898201,21.3875913 C14.7231164,22.1228521 15.2225888,22.7960696 15.8051492,23.3674246 C16.3877096,23.9387797 17.053358,24.4286449 17.7813224,24.7555304 C18.1353908,24.9185101 18.5102311,25.0611174 18.8841272,25.1426073 C19.2381955,25.2250232 19.6130359,25.2657681 19.986932,25.2657681 L21.3607171,25.2657681 C21.7355574,25.2657681 22.0886815,25.2250232 22.4635218,25.1426073 C22.8383622,25.0611174 23.2122583,24.9185101 23.5663266,24.7555304 C24.2942911,24.4286449 24.9807115,23.9387797 25.5642161,23.3674246 C26.1467765,22.7960696 26.6254768,22.1228521 26.978601,21.3875913 C27.144777,21.0412594 27.2703533,20.673629 27.3742133,20.3059986 C27.4573013,19.9596666 27.4988453,19.5920362 27.4988453,19.2244058 L27.4988453,19.1225435 C27.4988453,19.0614261 27.4780733,19.0206811 27.4780733,18.9595637 L27.4780733,16.8371232 C27.4780733,16.6741434 27.5196174,16.5509826 27.6027054,16.4083753 C27.6857934,16.2861405 27.7698256,16.1842782 27.9152297,16.1018623 C28.0398617,16.0407449 28.1644938,16 28.331614,16 C28.4770181,16 28.6224221,16.0407449 28.7470542,16.1018623 C28.8934024,16.1842782 28.9764904,16.2861405 29.0595785,16.4083753 C29.1426665,16.5509826 29.1634385,16.6741434 29.1634385,16.8371232 L29.1634385,17.3066159 L29.1842105,17.3066159 L29.1842105,19.2244058 C29.1842105,19.714271 29.1218945,20.2041362 28.9972625,20.6940014 C28.8934024,21.1838667 28.7262822,21.6533594 28.4977901,22.1024797 C28.0814057,22.9997942 27.4780733,23.8165449 26.7501089,24.5305073 C26.0212003,25.2453956 25.1893758,25.8371232 24.2735191,26.265871 C23.8155907,26.4695956 23.3378345,26.6325754 22.8591342,26.7548102 C22.4219778,26.8575985 21.9640495,26.9187159 21.5061211,26.9390884 L21.5061211,32.3470522 L24.252747,32.3470522 C24.3981511,32.3470522 24.5237273,32.3877971 24.6691314,32.4489145 C24.7937634,32.5304044 24.8976235,32.6322667 24.9807115,32.7554275 C25.0439717,32.8980348 25.0855157,33.0202696 25.0855157,33.1628768 C25.0855157,33.3267826 25.0439717,33.4490174 24.9807115,33.5916247 C24.8976235,33.7138595 24.7937634,33.8166478 24.6691314,33.8981377 C24.5237273,33.9592551 24.3981511,34 24.252747,34 L17.094902,34 Z" id="Fill-258"></path>
            <path d="M19.6154275,1.69412829 C19.4020236,1.75382528 19.2071382,1.83342127 18.9937343,1.91301726 C18.5854451,2.11291174 18.1965562,2.4113967 17.8667502,2.75058416 C17.516662,3.10967061 17.2441753,3.50765056 17.0501717,3.92643401 C16.95317,4.14622748 16.8755686,4.34521746 16.8367678,4.56410643 C16.777685,4.7838999 16.7582846,4.98288988 16.7582846,5.20268335 L16.7582846,7.57428205 L18.0607537,7.57428205 C18.2159566,7.57428205 18.3323587,7.61408005 18.469043,7.69367604 C18.5854451,7.75427753 18.6824469,7.85377252 18.7406479,7.9731665 C18.8182493,8.11245949 18.8579319,8.23275797 18.8579319,8.39194995 C18.8579319,8.53124293 18.8182493,8.67053592 18.7406479,8.7908344 C18.6824469,8.93012738 18.5854451,9.00972337 18.469043,9.08931936 C18.3323587,9.16891535 18.2159566,9.18881435 18.0607537,9.18881435 L16.7582846,9.18881435 L16.7582846,10.0462802 L18.0801541,10.0462802 C18.2159566,10.0462802 18.3526409,10.0860782 18.469043,10.1457752 C18.6048454,10.2253712 18.6824469,10.3257707 18.7600483,10.4451647 C18.8376497,10.5844577 18.8579319,10.7038517 18.8579319,10.8639481 C18.8579319,11.0032411 18.8376497,11.1226351 18.7600483,11.2619281 C18.6824469,11.3822266 18.6048454,11.4817216 18.469043,11.5613176 C18.3526409,11.6210145 18.2159566,11.6608125 18.0801541,11.6608125 L16.7582846,11.6608125 L16.7582846,12.5182784 L18.0801541,12.5182784 C18.2353569,12.5182784 18.3526409,12.5381774 18.469043,12.6177734 C18.6048454,12.6973694 18.7018472,12.7769654 18.7600483,12.9171629 C18.8376497,13.0365569 18.8773322,13.1758499 18.8773322,13.3151428 C18.8773322,13.4752393 18.8376497,13.5946333 18.7600483,13.7339263 C18.7018472,13.8533203 18.6048454,13.9528153 18.469043,14.0134167 C18.3526409,14.0930127 18.2353569,14.1328107 18.0801541,14.1328107 L16.7582846,14.1328107 L16.7582846,18.7774177 C16.7582846,18.9963066 16.777685,19.2161001 16.8367678,19.4150901 C16.8755686,19.633979 16.95317,19.8537725 17.0501717,20.0527625 C17.2441753,20.4914449 17.516662,20.8903294 17.8667502,21.2485113 C18.1965562,21.5876988 18.5854451,21.8870883 19.0131347,22.0860782 C19.2071382,22.1855732 19.4214239,22.2651692 19.6154275,22.3058717 C19.8288313,22.3655687 20.0237167,22.3854677 20.2371206,22.3854677 L21.1119001,22.3854677 C21.3059036,22.3854677 21.5201894,22.3655687 21.7141929,22.3058717 C21.9284786,22.2651692 22.1418825,22.1855732 22.335886,22.0860782 C22.7635756,21.8870883 23.1524645,21.5876988 23.4831523,21.2485113 C23.8323587,20.8903294 24.1048454,20.4914449 24.298849,20.0527625 C24.3958507,19.8537725 24.474334,19.633979 24.532535,19.4150901 C24.5713357,19.1962011 24.6101365,18.9963066 24.6101365,18.7774177 L24.6101365,14.1328107 L23.2106656,14.1328107 C23.0748631,14.1328107 22.9390606,14.0930127 22.8217767,14.0134167 C22.6859742,13.9528153 22.6083728,13.8533203 22.5307714,13.7339263 C22.45317,13.5946333 22.4337696,13.4752393 22.4337696,13.3151428 C22.4337696,13.1758499 22.45317,13.0365569 22.5307714,12.9171629 C22.6083728,12.7769654 22.6859742,12.6973694 22.8217767,12.6177734 C22.9390606,12.5381774 23.0748631,12.5182784 23.2106656,12.5182784 L24.6101365,12.5182784 L24.6101365,11.6608125 L23.2106656,11.6608125 C23.0554627,11.6608125 22.9390606,11.6210145 22.8023763,11.5613176 C22.6859742,11.4817216 22.5889724,11.3822266 22.5307714,11.2619281 C22.45317,11.1226351 22.4143693,11.0032411 22.4143693,10.8639481 C22.4143693,10.7038517 22.45317,10.5844577 22.5307714,10.4451647 C22.5889724,10.3257707 22.6859742,10.2253712 22.8023763,10.1457752 C22.9390606,10.0860782 23.0554627,10.0462802 23.2106656,10.0462802 L24.6101365,10.0462802 L24.6101365,9.18881435 L23.1912652,9.18881435 C23.0554627,9.18881435 22.9390606,9.16891535 22.8023763,9.08931936 C22.6859742,9.00972337 22.5889724,8.93012738 22.511371,8.7908344 C22.45317,8.67053592 22.4143693,8.53124293 22.4143693,8.39194995 C22.4143693,8.23275797 22.45317,8.11245949 22.511371,7.9731665 C22.5889724,7.85377252 22.6859742,7.75427753 22.8023763,7.69367604 C22.9390606,7.61408005 23.0554627,7.57428205 23.1912652,7.57428205 L24.6101365,7.57428205 L24.6101365,5.20268335 C24.6101365,4.98288988 24.5713357,4.7838999 24.532535,4.56410643 C24.474334,4.34521746 24.3958507,4.14622748 24.298849,3.92643401 C24.1048454,3.50765056 23.8323587,3.10967061 23.4831523,2.75058416 C23.1524645,2.4113967 22.7635756,2.13281073 22.335886,1.91301726 C22.1418825,1.83342127 21.9284786,1.75382528 21.7141929,1.69412829 C21.5201894,1.65433029 21.3059036,1.6145323 21.1119001,1.6145323 L20.2371206,1.6145323 C20.0237167,1.6145323 19.8288313,1.65433029 19.6154275,1.69412829 M24.5907361,1.6145323 C25.0766268,2.09301274 25.4646338,2.65108917 25.7371206,3.24896359 C25.872923,3.54835306 25.990207,3.86673702 26.0484081,4.18602548 C26.1260095,4.52430843 26.1842105,4.86349589 26.1842105,5.20268335 L26.1842105,18.7774177 C26.1842105,19.1157006 26.1260095,19.4548881 26.0484081,19.7940755 C25.990207,20.1124595 25.872923,20.4317479 25.7371206,20.7510364 C25.4646338,21.3489108 25.0766268,21.9069873 24.6101365,22.3854677 C24.1436462,22.8639481 23.5801541,23.2619281 22.9972617,23.5414186 C22.7053745,23.7006105 22.3940871,23.8001055 22.0836814,23.880606 C21.7529936,23.960202 21.4231876,24 21.1119001,24 L20.2371206,24 C19.9073146,24 19.5766268,23.960202 19.2459389,23.880606 C18.9355333,23.8001055 18.6242458,23.7006105 18.3323587,23.5414186 C17.7494663,23.2619281 17.2053745,22.8639481 16.7388842,22.3854677 C16.2723939,21.9069873 15.9037872,21.3489108 15.6313005,20.7302329 C15.4760977,20.4317479 15.3790959,20.1124595 15.3014945,19.7940755 C15.2230112,19.4548881 15.1842105,19.1157006 15.1842105,18.7774177 L15.1842105,5.20268335 C15.1842105,4.86349589 15.2230112,4.52430843 15.3014945,4.18602548 C15.3790959,3.86673702 15.4760977,3.54835306 15.6313005,3.24896359 C15.9037872,2.65108917 16.2723939,2.09301274 16.7388842,1.6145323 C17.2053745,1.13605186 17.7494663,0.737167408 18.3323587,0.458581443 C18.6436462,0.31838396 18.9355333,0.198989975 19.2653393,0.119393985 C19.5766268,0.039797995 19.9073146,0 20.2371206,0 L21.1119001,0 C21.4231876,0 21.7529936,0.039797995 22.0836814,0.119393985 C22.3940871,0.198989975 22.7053745,0.31838396 22.9972617,0.458581443 C23.5801541,0.737167408 24.1242458,1.13605186 24.5907361,1.6145323" id="Fill-260"></path>
            <path d="M33.4220237,5.50068518 C33.3313251,5.39533924 33.2587661,5.26892412 33.2224866,5.12048211 C33.1862072,4.9729978 33.1672429,4.82551349 33.2043469,4.67802918 C33.2406264,4.50851799 33.2950456,4.40317206 33.3857443,4.27675693 C33.4764429,4.171411 33.5671416,4.08617656 33.713084,4.04403818 C33.8400621,4.00189981 33.9489005,3.98083062 34.0758787,4.02296899 C34.2218211,4.06510737 34.3306595,4.12927262 34.4213582,4.23461856 C34.7124185,4.55065637 34.9663747,4.90979024 35.2030158,5.31106249 C35.4206926,5.71137705 35.6029145,6.13371849 35.7480324,6.57712911 C36.0390927,7.46395036 36.1842105,8.43409066 36.1842105,9.42625784 C36.1842105,10.3762867 36.0572324,11.3473846 35.7661721,12.2543174 C35.4751118,13.1622078 35.0389337,14.0270022 34.4576376,14.7452699 C34.3487992,14.8506159 34.2581006,14.9138234 34.1302979,14.9559618 C34.0033198,14.9981002 33.8763416,15.0191694 33.7493635,14.977031 C33.6215608,14.9348926 33.5127224,14.8716851 33.403884,14.7663391 C33.3131853,14.639924 33.2587661,14.5336204 33.2224866,14.3650669 C33.1862072,14.2175826 33.1672429,14.0911674 33.2043469,13.9216563 C33.2406264,13.7741719 33.2950456,13.6477568 33.3857443,13.5424109 C33.8400621,12.9936543 34.1674019,12.3596633 34.3850787,11.6634225 C34.6027555,10.9461124 34.7124185,10.1857063 34.7124185,9.42625784 C34.7124185,8.64574022 34.6027555,7.8853341 34.366939,7.18909323 C34.2581006,6.85102854 34.1302979,6.53499073 33.9670403,6.23906442 C33.8037827,5.96516499 33.6215608,5.71137705 33.4220237,5.50068518" id="Fill-262"></path>
            <path d="M37.4382469,3.41814061 C37.3219837,3.3171716 37.2638522,3.2162026 37.2250978,3.0537343 C37.1863434,2.9123777 37.1660854,2.79121489 37.2057206,2.62966449 C37.244475,2.48738999 37.3026065,2.36622718 37.3994925,2.26525818 C37.4963785,2.14409538 37.6126416,2.08259608 37.7491628,2.04220847 C37.8848031,2.00182087 38.0010663,1.98162707 38.1560838,2.02201467 C38.2926049,2.06240228 38.4088681,2.12390158 38.505754,2.22487058 C38.9523103,2.64985829 39.3407349,3.1556212 39.6701472,3.70177171 C40.0004402,4.24792223 40.2919789,4.83446034 40.505128,5.44119226 C40.9516842,6.67484988 41.1842105,8.03058822 41.1842105,9.40560245 C41.1842105,10.7209532 40.9710614,12.0555798 40.5438824,13.3103491 C40.0973262,14.5642006 39.4376209,15.7574706 38.5445084,16.7286088 C38.4476225,16.8497716 38.3313593,16.910353 38.1948382,16.9516585 C38.0591978,17.0122399 37.9235575,17.0122399 37.7879171,16.9718523 C37.651396,16.9314647 37.5351329,16.8699654 37.4382469,16.7689964 C37.3219837,16.6680274 37.2638522,16.5468646 37.2250978,16.405508 C37.1863434,16.2632335 37.1660854,16.1218769 37.2057206,15.9805203 C37.244475,15.8382458 37.3026065,15.717083 37.3994925,15.5959202 C38.1560838,14.7863324 38.699526,13.7959183 39.0491962,12.7440048 C39.4182437,11.6718976 39.6120156,10.5382911 39.6120156,9.40560245 C39.6120156,8.23252622 39.4182437,7.07964379 39.029819,6.02773037 C38.8554243,5.52196746 38.6220172,5.03639835 38.3507365,4.59121684 C38.0979522,4.16622913 37.7879171,3.76235312 37.4382469,3.41814061" id="Fill-264"></path>
            <path d="M7.28676057,4.02296899 C7.41344003,3.98083062 7.54094209,4.00189981 7.66762155,4.04403818 C7.79430101,4.08617656 7.88478634,4.17045331 7.99336874,4.27579924 C8.08467666,4.40317206 8.13896786,4.50851799 8.15706493,4.67707149 C8.19325906,4.8245558 8.19325906,4.9729978 8.13896786,5.12048211 C8.10277373,5.26796643 8.04848253,5.39438155 7.93907754,5.50068518 C7.74000981,5.71137705 7.55903915,5.96516499 7.39534296,6.23906442 C7.23246937,6.53499073 7.10578991,6.85102854 6.99638492,7.18909323 C6.76112306,7.8853341 6.65254066,8.64478253 6.65254066,9.42625784 C6.65254066,10.1857063 6.76112306,10.9461124 6.97828785,11.6634225 C7.19627524,12.3596633 7.52202243,12.9926966 7.97527167,13.5414532 C8.0665796,13.6467991 8.1208708,13.7741719 8.15706493,13.9216563 C8.19325906,14.0902098 8.19325906,14.2166249 8.15706493,14.3650669 C8.1208708,14.5336204 8.04848253,14.6389663 7.95717461,14.7653814 C7.86668928,14.8716851 7.75810688,14.9348926 7.63142742,14.977031 C7.48582829,15.0191694 7.3772459,14.9981002 7.25056644,14.9559618 C7.10578991,14.9138234 7.01448198,14.8506159 6.92399665,14.7443123 C6.32597088,14.0270022 5.8908187,13.1622078 5.60044305,12.2543174 C5.32898705,11.346427 5.18421053,10.375329 5.18421053,9.42625784 C5.18421053,8.43409066 5.32898705,7.46299267 5.61854011,6.57712911 C5.76413923,6.13371849 5.96320696,5.71137705 6.18119435,5.3101048 C6.39835914,4.90979024 6.65254066,4.55065637 6.94209372,4.23366087 C7.05149871,4.12831493 7.1600811,4.06510737 7.28676057,4.02296899" id="Fill-266"></path>
            <path d="M2.85058279,2.22396638 C2.96716482,2.1229912 3.08374685,2.06240609 3.22064241,2.02201602 C3.35665477,1.98162595 3.49266714,2.00182099 3.6295627,2.04221106 C3.76557507,2.08260113 3.86272676,2.14318624 3.97930878,2.26435646 C4.07646047,2.36533164 4.13563468,2.48650186 4.15506502,2.62878507 C4.1939257,2.79034536 4.1939257,2.91151557 4.15506502,3.05379878 C4.11532115,3.21535907 4.0375998,3.31633426 3.94044811,3.41730944 C3.58981883,3.76154301 3.27893342,4.16636169 3.0060255,4.59045745 C2.73400077,5.03566621 2.51938385,5.52126503 2.32508048,6.0270589 C1.95502086,7.0790367 1.76071748,8.23198968 1.76071748,9.40605565 C1.76071748,10.5388136 1.93559052,11.6715715 2.30565014,12.7437444 C2.67570975,13.7957222 3.22064241,14.7871149 3.95987844,15.5958343 C4.05703013,15.7170045 4.13563468,15.8390927 4.15506502,15.9804579 C4.1939257,16.1218232 4.1939257,16.2641064 4.15506502,16.4054716 C4.11532115,16.5468369 4.0375998,16.6680071 3.94044811,16.7689823 C3.84329642,16.8708754 3.72671439,16.9314605 3.58981883,16.9718506 C3.43437613,17.0122407 3.3177941,17.0122407 3.18178173,16.9516556 C3.02545583,16.9112655 2.92830415,16.8506804 2.83115246,16.7285922 C1.91616018,15.7583125 1.2546455,14.5640515 0.826294872,13.3101233 C0.397944242,12.0561952 0.184210526,10.7205689 0.184210526,9.40605565 C0.184210526,8.03003931 0.41737458,6.67421802 0.845725209,5.44048489 C1.07977246,4.83371585 1.35179719,4.24714184 1.68299613,3.7009579 C2.03274221,3.15477397 2.42223216,2.6489801 2.85058279,2.22396638" id="Fill-268"></path>
        </g>
    </g>
</svg>