<?xml version="1.0" encoding="UTF-8"?>
<svg width="42px" height="33px" viewBox="0 0 42 33" version="1.1" xmlns="http://www.w3.org/2000/svg" xmlns:xlink="http://www.w3.org/1999/xlink">
    <!-- Generator: Sketch 64 (93537) - https://sketch.com -->
    <title>Fill 216</title>
    <desc>Created with Sketch.</desc>
    <g id="Page-1" stroke="none" stroke-width="1" fill="none" fill-rule="evenodd">
        <path d="M6,0 C2.69368168,0 0,2.86739766 0,6.3869152 L0,26.6130848 C0,30.1326023 2.69368168,33 6,33 L36,33 C39.3071181,33 42,30.1326023 42,26.6130848 L42,6.3869152 C42,2.86739766 39.3071181,0 36,0 L6,0 Z M6,2.12923977 L36,2.12923977 C38.2330045,2.12923977 40.0005332,4.01001462 40.0005332,6.3869152 L40.0005332,26.6130848 C40.0005332,28.9899854 38.2330045,30.8707602 36,30.8707602 L6,30.8707602 C3.76699547,30.8707602 2.0002666,28.9899854 2.0002666,26.6130848 L2.0002666,6.3869152 C2.0002666,4.01001462 3.76699547,2.12923977 6,2.12923977 L6,2.12923977 Z M15.9378832,7.98384503 C15.410024,8.01922515 14.9989336,8.48559942 14.9997287,9.04846491 L14.9997287,23.9515351 C14.9981338,24.5079678 15.4004266,24.9727339 15.9218875,25.016155 C16.122634,25.0346491 16.3241802,24.9880117 16.5001333,24.8826754 L28.5001333,17.4311404 C28.9792055,17.1384503 29.1439616,16.4879386 28.868835,15.9781433 C28.7808584,15.8141082 28.6536923,15.6790205 28.5001333,15.5849415 L16.5001333,8.13340643 C16.3305785,8.02565789 16.1346308,7.97339181 15.9378832,7.98384503 L15.9378832,7.98384503 Z M17,10.9115497 L26.0159957,16.5 L17,22.1053363 L17,10.9115497 Z" id="Fill-216" fill="#FFFFFF"></path>
    </g>
</svg>