<?xml version="1.0" encoding="UTF-8"?>
<svg width="40px" height="87px" viewBox="0 0 40 87" version="1.1" xmlns="http://www.w3.org/2000/svg" xmlns:xlink="http://www.w3.org/1999/xlink">
    <!-- Generator: Sketch 52.2 (67145) - http://www.bohemiancoding.com/sketch -->
    <title>hearts-3</title>
    <desc>Created with Sketch.</desc>
    <g id="hearts-3" stroke="none" stroke-width="1" fill="none" fill-rule="evenodd">
        <path d="M0,76.8644248 C0,63.570649 15.8343845,58.9832972 19.939205,47.0503662 L20.060795,47 C24.1656155,58.932931 40,63.5202828 40,76.8140586 C40,90.1078343 24.1424066,89.4470549 19.939205,80.1065909 C15.7360034,89.4470549 0,90.1582005 0,76.8644248 Z" id="Path-2-Copy-4" fill="#DD555B" transform="translate(20.000000, 67.000000) scale(1, -1) translate(-20.000000, -67.000000) "></path>
        <path d="M20.4785553,34 C19.1632741,34 17.9337905,33.7486295 16.7900677,33.2458809 C15.6463449,32.7431323 14.6456025,32.0608408 13.7878104,31.1989861 C12.9300183,30.3371313 12.2509431,29.3316492 11.7505643,28.1825095 C11.2501856,27.0333698 11,25.7980632 11,24.4765526 C11,23.9307113 11.1858522,23.4710623 11.5575621,23.0975919 C11.929272,22.7241215 12.3867542,22.5373891 12.9300226,22.5373891 C13.4446978,22.5373891 13.8878838,22.7241215 14.2595937,23.0975919 C14.6313036,23.4710623 14.8171558,23.9307113 14.8171558,24.4765526 C14.8171558,25.2522219 14.9672671,25.9847874 15.2674944,26.6742712 C15.5677216,27.363755 15.9751667,27.9670443 16.489842,28.4841572 C17.0045172,29.00127 17.6049627,29.4106449 18.2911964,29.712294 C18.9774301,30.0139432 19.7065424,30.1647655 20.4785553,30.1647655 C21.2505682,30.1647655 21.9868287,30.0139432 22.6873589,29.712294 C23.3878891,29.4106449 23.9954828,29.00127 24.510158,28.4841572 C25.0248333,27.9670443 25.4322784,27.363755 25.7325056,26.6742712 C26.0327329,25.9847874 26.1828442,25.2522219 26.1828442,24.4765526 C26.1828442,23.7008833 26.0327329,22.9826818 25.7325056,22.3219265 C25.4322784,21.6611712 25.0248333,21.08661 24.510158,20.5982256 C23.9954828,20.1098412 23.3950373,19.7291944 22.7088036,19.4562738 C22.0225699,19.1833531 21.2791613,19.0468948 20.4785553,19.0468948 C19.96388,19.0468948 19.5206941,18.8601624 19.1489842,18.486692 C18.7772743,18.1132216 18.5914221,17.6679367 18.5914221,17.1508238 C18.5914221,16.6049825 18.7772743,16.1453335 19.1489842,15.7718631 C19.5206941,15.3983927 19.96388,15.2116603 20.4785553,15.2116603 C21.2505682,15.2116603 21.9868287,15.060838 22.6873589,14.7591888 C23.3878891,14.4575397 23.9954828,14.0481648 24.510158,13.531052 C25.0248333,13.0139391 25.4322784,12.4106498 25.7325056,11.721166 C26.0327329,11.0316822 26.1828442,10.2991167 26.1828442,9.5234474 C26.1828442,8.74777812 26.0327329,8.00803056 25.7325056,7.30418251 C25.4322784,6.60033446 25.0248333,5.98986317 24.510158,5.47275032 C23.9954828,4.95563747 23.3878891,4.5462626 22.6873589,4.24461343 C21.9868287,3.94296427 21.2505682,3.79214195 20.4785553,3.79214195 C19.7065424,3.79214195 18.9774301,3.94296427 18.2911964,4.24461343 C17.6049627,4.5462626 17.0045172,4.95563747 16.489842,5.47275032 C15.9751667,5.98986317 15.5677216,6.60033446 15.2674944,7.30418251 C14.9672671,8.00803056 14.8171558,8.74777812 14.8171558,9.5234474 C14.8171558,10.0405603 14.6313036,10.4858452 14.2595937,10.8593156 C13.8878838,11.232786 13.4446978,11.4195184 12.9300226,11.4195184 C12.3867542,11.4195184 11.929272,11.232786 11.5575621,10.8593156 C11.1858522,10.4858452 11,10.0405603 11,9.5234474 C11,8.20193678 11.2501856,6.96663016 11.7505643,5.81749049 C12.2509431,4.66835082 12.9300183,3.66286869 13.7878104,2.80101394 C14.6456025,1.93915919 15.6463449,1.25686774 16.7900677,0.754119138 C17.9337905,0.251370532 19.1632741,0 20.4785553,0 C21.7938365,0 23.0304683,0.251370532 24.1884876,0.754119138 C25.3465069,1.25686774 26.3543975,1.93915919 27.2121896,2.80101394 C28.0699817,3.66286869 28.7490569,4.66835082 29.2494357,5.81749049 C29.7498144,6.96663016 30,8.20193678 30,9.5234474 C30,11.074786 29.6568883,12.511189 28.9706546,13.8326996 C28.2844209,15.1542102 27.3551601,16.2602406 26.1828442,17.1508238 C27.326567,17.9839501 28.2486797,19.0181603 28.9492099,20.2534854 C29.6497401,21.4888106 30,22.8964856 30,24.4765526 C30,25.7980632 29.7498144,27.0333698 29.2494357,28.1825095 C28.7490569,29.3316492 28.0699817,30.3371313 27.2121896,31.1989861 C26.3543975,32.0608408 25.3465069,32.7431323 24.1884876,33.2458809 C23.0304683,33.7486295 21.7938365,34 20.4785553,34 Z" id="3-copy" fill="#DD555B"></path>
    </g>
</svg>