<svg width="979" height="652" viewBox="0 0 979 652" fill="none" xmlns="http://www.w3.org/2000/svg">
<rect x="48" y="49" width="882" height="525" rx="20" fill="white" stroke="#2B4FEB" stroke-width="16"/>
<rect x="312" y="212" width="353" height="17" rx="8.5" fill="#EAEDFD"/>
<rect x="312" y="242" width="353" height="17" rx="8.5" fill="#EAEDFD"/>
<rect x="312" y="272" width="338" height="17" rx="8.5" fill="#EAEDFD"/>
<rect x="312" y="302" width="338" height="17" rx="8.5" fill="#EAEDFD"/>
<rect x="312" y="332" width="353" height="17" rx="8.5" fill="#EAEDFD"/>
<rect x="312" y="362" width="314" height="17" rx="8.5" fill="#EAEDFD"/>
<rect x="312" y="392" width="338" height="17" rx="8.5" fill="#EAEDFD"/>
<rect x="312" y="422" width="190" height="17" rx="8.5" fill="#EAEDFD"/>
<path d="M489.793 576V613H443H535" stroke="#2B4FEB" stroke-width="16" stroke-linecap="round" stroke-linejoin="round"/>
<rect x="73.5" y="280.5" width="212" height="212" rx="11.5" stroke="#21CEA0"/>
<path d="M692 459C692 452.373 697.373 447 704 447H893C899.627 447 905 452.373 905 459V566H692V459Z" fill="#21CEA1"/>
<path d="M73 524C73 517.373 78.3726 512 85 512H274C280.627 512 286 517.373 286 524V566H73V524Z" fill="#FF7D00"/>
<rect x="73" y="76" width="147" height="45" rx="12" fill="#2B4FEB"/>
<rect x="73" y="133" width="833" height="45" rx="12" fill="#21CEA0"/>
<path fill-rule="evenodd" clip-rule="evenodd" d="M180 412.8C186.577 412.8 192.885 410.187 197.536 405.536C202.187 400.885 204.8 394.577 204.8 388C204.8 381.423 202.187 375.115 197.536 370.464C192.885 365.813 186.577 363.2 180 363.2C173.423 363.2 167.115 365.813 162.464 370.464C157.813 375.115 155.2 381.423 155.2 388C155.2 394.577 157.813 400.885 162.464 405.536C167.115 410.187 173.423 412.8 180 412.8ZM178.62 379.221C178.154 378.909 177.611 378.73 177.05 378.703C176.49 378.676 175.932 378.801 175.437 379.066C174.943 379.331 174.529 379.725 174.241 380.207C173.952 380.688 173.8 381.239 173.8 381.8V394.2C173.8 394.761 173.952 395.312 174.241 395.793C174.529 396.275 174.943 396.669 175.437 396.934C175.932 397.199 176.49 397.324 177.05 397.297C177.611 397.27 178.154 397.091 178.62 396.779L187.92 390.579C188.345 390.296 188.693 389.913 188.934 389.463C189.175 389.013 189.301 388.51 189.301 388C189.301 387.49 189.175 386.987 188.934 386.537C188.693 386.087 188.345 385.704 187.92 385.421L178.62 379.221Z" fill="#21CEA0"/>
<path d="M741.265 205.155L790.877 238.09C792.211 238.976 793.888 239.169 795.388 238.61L879.046 207.436C883.996 205.591 888.052 211.685 884.44 215.54L851.404 250.799C849.172 253.182 849.785 257.029 852.646 258.601L899.179 284.156C902.801 286.145 902.584 291.419 898.811 293.104L863.552 308.851C860.241 310.329 859.556 314.73 862.26 317.145L892.202 343.89C896.137 347.404 892.651 353.828 887.56 352.443L861.175 345.271C858.57 344.563 855.872 346.051 855.082 348.633L840.611 395.928C839.184 400.594 832.603 400.662 831.08 396.026L826.719 382.754C825.639 379.465 821.624 378.243 818.894 380.372L778.075 412.203C774.791 414.764 770 412.424 770 408.26V384.846C770 380.956 765.754 378.556 762.421 380.562L687.437 425.698C682.798 428.491 677.649 422.947 680.776 418.527L727.92 351.888C730.263 348.576 727.895 344 723.838 344H700.512C694.967 344 693.544 336.316 698.723 334.331L727.418 323.331C730.487 322.155 731.606 318.388 729.676 315.727L691.755 263.435C689.357 260.13 691.719 255.5 695.802 255.5H728.5C731.261 255.5 733.5 253.261 733.5 250.5V209.321C733.5 205.332 737.942 202.949 741.265 205.155Z" fill="#FF7D00"/>
</svg>
