<svg width="979" height="652" viewBox="0 0 979 652" fill="none" xmlns="http://www.w3.org/2000/svg">
<rect x="48" y="49" width="882" height="525" rx="20" fill="white" stroke="#2B4FEB" stroke-width="16"/>
<mask id="mask0" mask-type="alpha" maskUnits="userSpaceOnUse" x="40" y="41" width="898" height="541">
<rect x="48" y="49" width="882" height="525" rx="20" fill="white" stroke="#2B4FEB" stroke-width="16"/>
</mask>
<g mask="url(#mask0)">
<path fill-rule="evenodd" clip-rule="evenodd" d="M710.356 272.489C706.822 274.418 707.315 280.565 711.172 281.721C788.29 304.819 844.923 381.503 844.923 472.542C844.923 483.075 845.168 494.367 845.424 506.175V506.179C847.83 616.922 851.22 773 662.537 773C478.449 773 479.438 601.914 480.079 490.894L480.079 490.878C480.116 484.557 480.151 478.431 480.151 472.542C480.151 379.707 539.041 301.799 618.49 280.417C622.377 279.37 623.045 273.239 619.566 271.212C592.092 255.199 573.63 225.439 573.63 191.37C573.63 140.356 615.027 99 666.093 99C717.159 99 758.556 140.356 758.556 191.37C758.556 226.366 739.075 256.817 710.356 272.489ZM291.291 314.705C287.785 316.685 288.287 322.897 292.135 324.083C361.91 345.583 413.017 415.237 413.017 497.843C413.017 507.455 413.241 517.76 413.475 528.536C415.67 629.585 418.764 772 246.577 772C78.5843 772 79.4867 615.89 80.0723 514.589C80.1057 508.816 80.138 503.221 80.138 497.843C80.138 413.597 133.294 342.823 205.197 322.86C209.076 321.782 209.754 315.588 206.306 313.51C181.819 298.758 165.444 271.931 165.444 241.285C165.444 194.736 203.222 157 249.823 157C296.424 157 334.202 194.736 334.202 241.285C334.202 272.778 316.909 300.237 291.291 314.705Z" fill="#2B4FEB" fill-opacity="0.8"/>
</g>
<path d="M489.793 576V613H443H535" stroke="#2B4FEB" stroke-width="16" stroke-linecap="round" stroke-linejoin="round"/>
<rect x="64" y="508" width="850" height="51" rx="8" fill="white" fill-opacity="0.99"/>
<rect x="62.5" y="506.5" width="853" height="54" rx="9.5" stroke="#2B4FEB" stroke-opacity="0.1" stroke-width="3"/>
<path fill-rule="evenodd" clip-rule="evenodd" d="M134.889 520.537C135.218 520.673 135.499 520.904 135.697 521.2C135.895 521.496 136 521.844 136 522.2V543.8C136 544.156 135.894 544.504 135.697 544.8C135.499 545.096 135.218 545.327 134.889 545.463C134.56 545.599 134.198 545.635 133.849 545.565C133.5 545.496 133.179 545.324 132.927 545.073L126.255 538.4H121.6C121.123 538.4 120.665 538.21 120.327 537.873C119.99 537.535 119.8 537.078 119.8 536.6V529.4C119.8 528.923 119.99 528.465 120.327 528.127C120.665 527.79 121.123 527.6 121.6 527.6H126.255L132.927 520.928C133.179 520.676 133.5 520.504 133.849 520.435C134.198 520.365 134.56 520.401 134.889 520.537Z" fill="#2B4FEB"/>
<rect x="139" y="527" width="4" height="12" rx="2" fill="#2B4FEB"/>
<rect x="145" y="523" width="4" height="20" rx="2" fill="#2B4FEB"/>
<rect x="81" y="521" width="9" height="25" rx="2" fill="#2B4FEB"/>
<rect x="95" y="521" width="9" height="25" rx="2" fill="#2B4FEB"/>
<circle cx="237" cy="533" r="11" fill="#2B4FEB" stroke="white" stroke-width="2"/>
<path d="M165.5 533H238" stroke="#2B4FEB" stroke-width="3" stroke-linecap="round" stroke-linejoin="round"/>
<path d="M165 533H840" stroke="#2B4FEB" stroke-opacity="0.1" stroke-width="3" stroke-linecap="round" stroke-linejoin="round"/>
<rect x="859" y="517.744" width="41" height="30.5116" rx="4" fill="#2B4FEB"/>
<path d="M872.647 540.628C871.242 540.628 870.012 540.318 868.958 539.699C867.904 539.081 867.093 538.194 866.526 537.041C865.958 535.887 865.674 534.537 865.674 532.989C865.674 531.442 865.958 530.099 866.526 528.959C867.093 527.806 867.904 526.919 868.958 526.301C870.012 525.682 871.242 525.372 872.647 525.372C874.417 525.372 875.944 525.878 877.228 526.891C877.431 527.06 877.573 527.229 877.654 527.398C877.735 527.567 877.775 527.778 877.775 528.031C877.775 528.397 877.674 528.713 877.471 528.98C877.282 529.234 877.046 529.36 876.762 529.36C876.573 529.36 876.404 529.339 876.255 529.297C876.12 529.241 875.965 529.149 875.789 529.022C875.248 528.657 874.748 528.397 874.289 528.242C873.83 528.073 873.336 527.989 872.809 527.989C871.512 527.989 870.532 528.411 869.87 529.255C869.222 530.085 868.897 531.33 868.897 532.989C868.897 536.337 870.201 538.011 872.809 538.011C873.309 538.011 873.782 537.934 874.228 537.779C874.674 537.61 875.194 537.343 875.789 536.977C875.992 536.851 876.161 536.766 876.296 536.724C876.431 536.668 876.586 536.64 876.762 536.64C877.046 536.64 877.282 536.773 877.471 537.041C877.674 537.294 877.775 537.603 877.775 537.969C877.775 538.222 877.728 538.44 877.633 538.623C877.552 538.792 877.417 538.954 877.228 539.109C875.944 540.121 874.417 540.628 872.647 540.628Z" fill="white"/>
<path d="M886.29 540.628C884.885 540.628 883.655 540.318 882.601 539.699C881.547 539.081 880.736 538.194 880.169 537.041C879.601 535.887 879.318 534.537 879.318 532.989C879.318 531.442 879.601 530.099 880.169 528.959C880.736 527.806 881.547 526.919 882.601 526.301C883.655 525.682 884.885 525.372 886.29 525.372C888.061 525.372 889.588 525.878 890.871 526.891C891.074 527.06 891.216 527.229 891.297 527.398C891.378 527.567 891.419 527.778 891.419 528.031C891.419 528.397 891.317 528.713 891.115 528.98C890.925 529.234 890.689 529.36 890.405 529.36C890.216 529.36 890.047 529.339 889.898 529.297C889.763 529.241 889.608 529.149 889.432 529.022C888.892 528.657 888.392 528.397 887.932 528.242C887.473 528.073 886.98 527.989 886.453 527.989C885.155 527.989 884.176 528.411 883.513 529.255C882.865 530.085 882.54 531.33 882.54 532.989C882.54 536.337 883.844 538.011 886.453 538.011C886.952 538.011 887.425 537.934 887.871 537.779C888.317 537.61 888.838 537.343 889.432 536.977C889.635 536.851 889.804 536.766 889.939 536.724C890.074 536.668 890.229 536.64 890.405 536.64C890.689 536.64 890.925 536.773 891.115 537.041C891.317 537.294 891.419 537.603 891.419 537.969C891.419 538.222 891.371 538.44 891.277 538.623C891.196 538.792 891.06 538.954 890.871 539.109C889.588 540.121 888.061 540.628 886.29 540.628Z" fill="white"/>
<rect x="281" y="439" width="404" height="47" rx="8" fill="#101228"/>
<path d="M441.065 460.607L440.195 465.071H441.569C441.874 465.071 442.134 465.178 442.347 465.391C442.561 465.605 442.668 465.864 442.668 466.17C442.668 466.46 442.561 466.711 442.347 466.925C442.134 467.123 441.874 467.223 441.569 467.223H439.76L439.165 470.29C439.119 470.535 438.997 470.733 438.799 470.886C438.616 471.038 438.387 471.114 438.112 471.114C437.776 471.114 437.502 471.015 437.288 470.817C437.074 470.603 436.967 470.336 436.967 470.016C436.967 469.878 436.975 469.779 436.99 469.718L437.471 467.223H434.999L434.38 470.29C434.335 470.535 434.213 470.733 434.014 470.886C433.831 471.038 433.617 471.114 433.373 471.114C433.037 471.114 432.763 471.008 432.549 470.794C432.335 470.58 432.229 470.306 432.229 469.97C432.229 469.863 432.236 469.779 432.251 469.718L432.732 467.223H432.091C431.786 467.223 431.526 467.116 431.313 466.902C431.099 466.688 430.992 466.429 430.992 466.124C430.992 465.834 431.099 465.59 431.313 465.391C431.526 465.178 431.786 465.071 432.091 465.071H433.167L434.037 460.607H432.549C432.244 460.607 431.984 460.5 431.771 460.286C431.557 460.072 431.45 459.813 431.45 459.508C431.45 459.218 431.557 458.974 431.771 458.775C431.984 458.561 432.244 458.455 432.549 458.455H434.472L435.044 455.501C435.09 455.257 435.205 455.059 435.388 454.906C435.571 454.754 435.8 454.677 436.075 454.677C436.41 454.677 436.685 454.784 436.899 454.998C437.112 455.211 437.219 455.479 437.219 455.799C437.219 455.921 437.212 456.013 437.196 456.074L436.716 458.455H439.188L439.76 455.501C439.806 455.257 439.921 455.059 440.104 454.906C440.302 454.754 440.539 454.677 440.813 454.677C441.149 454.677 441.424 454.784 441.638 454.998C441.866 455.211 441.981 455.486 441.981 455.822C441.981 455.929 441.973 456.013 441.958 456.074L441.5 458.455H442.027C442.332 458.455 442.591 458.561 442.805 458.775C443.019 458.989 443.126 459.248 443.126 459.554C443.126 459.843 443.019 460.095 442.805 460.309C442.591 460.507 442.332 460.607 442.027 460.607H441.065ZM437.906 465.071L438.776 460.607H436.303L435.411 465.071H437.906ZM459.462 468.802C459.783 469.108 459.943 469.443 459.943 469.81C459.943 470.176 459.798 470.496 459.508 470.771C459.218 471.046 458.882 471.183 458.501 471.183C458.119 471.183 457.783 471.046 457.493 470.771L455.708 469.123C454.975 469.779 454.166 470.29 453.281 470.657C452.396 471.008 451.488 471.183 450.557 471.183C449.458 471.183 448.474 470.992 447.604 470.611C446.734 470.229 446.055 469.703 445.566 469.031C445.093 468.344 444.856 467.558 444.856 466.673C444.856 465.696 445.116 464.842 445.635 464.109C446.154 463.361 446.97 462.675 448.084 462.049C447.535 461.469 447.131 460.904 446.871 460.355C446.612 459.805 446.482 459.241 446.482 458.661C446.482 457.882 446.68 457.196 447.077 456.6C447.474 455.99 448.023 455.524 448.725 455.204C449.443 454.868 450.259 454.7 451.175 454.7C452.472 454.7 453.502 455.036 454.265 455.708C455.029 456.364 455.41 457.249 455.41 458.363C455.41 459.187 455.181 459.927 454.723 460.584C454.265 461.24 453.556 461.85 452.594 462.415L455.387 465.025C455.799 464.17 456.059 463.247 456.166 462.255C456.211 461.812 456.372 461.477 456.646 461.248C456.936 461.003 457.264 460.881 457.631 460.881C458.043 460.881 458.386 461.019 458.661 461.293C458.936 461.568 459.042 461.942 458.981 462.415C458.829 464.048 458.325 465.567 457.47 466.971L459.462 468.802ZM451.221 456.99C450.732 456.99 450.336 457.142 450.03 457.447C449.725 457.737 449.572 458.134 449.572 458.638C449.572 458.958 449.656 459.271 449.824 459.576C450.007 459.882 450.32 460.256 450.763 460.698C451.45 460.332 451.938 459.973 452.228 459.622C452.518 459.271 452.663 458.89 452.663 458.478C452.663 458.035 452.526 457.676 452.251 457.402C451.991 457.127 451.648 456.99 451.221 456.99ZM450.717 468.55C451.801 468.55 452.816 468.138 453.762 467.314L449.939 463.766C448.794 464.468 448.222 465.361 448.222 466.444C448.222 467.101 448.443 467.619 448.886 468.001C449.343 468.367 449.954 468.55 450.717 468.55ZM468.194 470.565C467.843 471.145 467.408 471.435 466.889 471.435C466.568 471.435 466.286 471.313 466.042 471.069C465.813 470.84 465.698 470.55 465.698 470.199C465.698 469.909 465.79 469.604 465.973 469.283L474.077 455.295C474.398 454.715 474.825 454.426 475.359 454.426C475.695 454.426 475.977 454.548 476.206 454.792C476.45 455.021 476.573 455.311 476.573 455.662C476.573 455.952 476.481 456.257 476.298 456.577L468.194 470.565ZM465.218 464.476C463.905 464.476 462.875 464.056 462.127 463.216C461.394 462.362 461.028 461.126 461.028 459.508C461.028 457.936 461.402 456.73 462.15 455.891C462.898 455.036 463.92 454.609 465.218 454.609C466.53 454.609 467.553 455.036 468.285 455.891C469.033 456.73 469.407 457.943 469.407 459.531C469.407 461.148 469.033 462.377 468.285 463.216C467.553 464.056 466.53 464.476 465.218 464.476ZM465.218 462.324C465.691 462.324 466.034 462.11 466.248 461.683C466.461 461.255 466.568 460.538 466.568 459.531C466.568 458.569 466.454 457.875 466.225 457.447C466.011 457.005 465.675 456.783 465.218 456.783C464.76 456.783 464.424 456.997 464.21 457.424C463.997 457.852 463.89 458.554 463.89 459.531C463.89 460.523 463.997 461.24 464.21 461.683C464.424 462.11 464.76 462.324 465.218 462.324ZM477.03 471.16C475.718 471.16 474.688 470.741 473.94 469.901C473.207 469.046 472.841 467.81 472.841 466.192C472.841 464.605 473.207 463.392 473.94 462.552C474.688 461.713 475.718 461.293 477.03 461.293C478.328 461.293 479.35 461.721 480.098 462.575C480.846 463.415 481.22 464.628 481.22 466.215C481.22 467.818 480.846 469.046 480.098 469.901C479.365 470.741 478.343 471.16 477.03 471.16ZM477.03 469.008C477.503 469.008 477.847 468.795 478.061 468.367C478.274 467.94 478.381 467.223 478.381 466.215C478.381 465.239 478.267 464.537 478.038 464.109C477.824 463.667 477.488 463.445 477.03 463.445C476.573 463.445 476.229 463.667 476 464.109C475.787 464.537 475.68 465.239 475.68 466.215C475.68 467.223 475.787 467.94 476 468.367C476.214 468.795 476.557 469.008 477.03 469.008ZM495.439 466.307C495.439 467.543 495.011 468.589 494.157 469.443C493.317 470.283 492.18 470.824 490.746 471.069V472.374C490.746 472.786 490.616 473.114 490.356 473.358C490.112 473.617 489.784 473.747 489.372 473.747C488.975 473.747 488.647 473.617 488.388 473.358C488.128 473.114 487.998 472.786 487.998 472.374V471.137C487.159 471.061 486.343 470.886 485.549 470.611C484.771 470.336 484.084 469.985 483.489 469.558C483.244 469.405 483.069 469.237 482.962 469.054C482.87 468.856 482.825 468.612 482.825 468.322C482.825 467.94 482.939 467.604 483.168 467.314C483.412 467.024 483.687 466.879 483.992 466.879C484.282 466.879 484.641 467.001 485.068 467.246C485.77 467.658 486.434 467.963 487.06 468.161C487.701 468.344 488.365 468.436 489.052 468.436C489.967 468.436 490.669 468.268 491.158 467.932C491.646 467.581 491.89 467.093 491.89 466.467C491.89 466.086 491.745 465.773 491.455 465.529C491.181 465.284 490.837 465.094 490.425 464.956C490.013 464.819 489.418 464.643 488.639 464.43C487.51 464.14 486.579 463.85 485.846 463.56C485.114 463.27 484.481 462.812 483.946 462.186C483.427 461.56 483.168 460.721 483.168 459.668C483.168 458.432 483.603 457.371 484.473 456.486C485.358 455.601 486.51 455.036 487.93 454.792V453.487C487.93 453.075 488.059 452.747 488.319 452.502C488.578 452.243 488.907 452.113 489.303 452.113C489.715 452.113 490.044 452.243 490.288 452.502C490.547 452.747 490.677 453.075 490.677 453.487V454.746C492.05 454.929 493.34 455.448 494.546 456.303C494.775 456.455 494.935 456.631 495.027 456.829C495.133 457.028 495.187 457.264 495.187 457.539C495.187 457.92 495.065 458.256 494.821 458.546C494.592 458.836 494.325 458.981 494.019 458.981C493.851 458.981 493.691 458.958 493.539 458.913C493.401 458.867 493.203 458.768 492.943 458.615C492.318 458.218 491.753 457.92 491.249 457.722C490.761 457.524 490.158 457.424 489.441 457.424C488.617 457.424 487.953 457.608 487.449 457.974C486.961 458.34 486.716 458.829 486.716 459.439C486.716 459.866 486.861 460.217 487.151 460.492C487.441 460.752 487.808 460.958 488.25 461.11C488.693 461.263 489.311 461.438 490.105 461.637C491.219 461.911 492.127 462.194 492.829 462.484C493.546 462.759 494.157 463.209 494.66 463.835C495.179 464.445 495.439 465.269 495.439 466.307ZM504.221 470.565C503.87 471.145 503.435 471.435 502.916 471.435C502.595 471.435 502.313 471.313 502.069 471.069C501.84 470.84 501.725 470.55 501.725 470.199C501.725 469.909 501.817 469.604 502 469.283L510.104 455.295C510.425 454.715 510.852 454.426 511.386 454.426C511.722 454.426 512.004 454.548 512.233 454.792C512.477 455.021 512.599 455.311 512.599 455.662C512.599 455.952 512.508 456.257 512.325 456.577L504.221 470.565ZM501.245 464.476C499.932 464.476 498.902 464.056 498.154 463.216C497.421 462.362 497.055 461.126 497.055 459.508C497.055 457.936 497.429 456.73 498.177 455.891C498.925 455.036 499.947 454.609 501.245 454.609C502.557 454.609 503.58 455.036 504.312 455.891C505.06 456.73 505.434 457.943 505.434 459.531C505.434 461.148 505.06 462.377 504.312 463.216C503.58 464.056 502.557 464.476 501.245 464.476ZM501.245 462.324C501.718 462.324 502.061 462.11 502.275 461.683C502.488 461.255 502.595 460.538 502.595 459.531C502.595 458.569 502.481 457.875 502.252 457.447C502.038 457.005 501.702 456.783 501.245 456.783C500.787 456.783 500.451 456.997 500.237 457.424C500.024 457.852 499.917 458.554 499.917 459.531C499.917 460.523 500.024 461.24 500.237 461.683C500.451 462.11 500.787 462.324 501.245 462.324ZM513.057 471.16C511.745 471.16 510.715 470.741 509.967 469.901C509.234 469.046 508.868 467.81 508.868 466.192C508.868 464.605 509.234 463.392 509.967 462.552C510.715 461.713 511.745 461.293 513.057 461.293C514.355 461.293 515.377 461.721 516.125 462.575C516.873 463.415 517.247 464.628 517.247 466.215C517.247 467.818 516.873 469.046 516.125 469.901C515.392 470.741 514.37 471.16 513.057 471.16ZM513.057 469.008C513.53 469.008 513.874 468.795 514.087 468.367C514.301 467.94 514.408 467.223 514.408 466.215C514.408 465.239 514.293 464.537 514.065 464.109C513.851 463.667 513.515 463.445 513.057 463.445C512.599 463.445 512.256 463.667 512.027 464.109C511.813 464.537 511.707 465.239 511.707 466.215C511.707 467.223 511.813 467.94 512.027 468.367C512.241 468.795 512.584 469.008 513.057 469.008ZM529.291 474.64C527.246 474.64 525.468 474.228 523.957 473.404C522.446 472.595 521.278 471.458 520.454 469.993C519.645 468.528 519.241 466.841 519.241 464.933C519.241 462.812 519.668 460.981 520.523 459.439C521.393 457.898 522.591 456.722 524.117 455.914C525.643 455.105 527.375 454.7 529.314 454.7C531.313 454.7 533.03 455.074 534.465 455.822C535.899 456.57 536.99 457.592 537.738 458.89C538.486 460.172 538.86 461.614 538.86 463.216C538.86 464.544 538.654 465.689 538.242 466.65C537.845 467.597 537.288 468.322 536.571 468.825C535.853 469.314 535.037 469.558 534.121 469.558C533.312 469.558 532.656 469.382 532.152 469.031C531.649 468.68 531.336 468.215 531.214 467.635H531.168C530.756 468.23 530.29 468.703 529.771 469.054C529.268 469.39 528.627 469.558 527.848 469.558C526.719 469.558 525.834 469.184 525.193 468.436C524.567 467.673 524.254 466.666 524.254 465.414C524.254 464.331 524.46 463.346 524.872 462.461C525.284 461.56 525.849 460.851 526.566 460.332C527.299 459.813 528.131 459.554 529.062 459.554C529.688 459.554 530.237 459.683 530.71 459.943C531.183 460.202 531.519 460.568 531.717 461.042H531.786L531.832 460.744C531.878 460.439 532.007 460.21 532.221 460.057C532.45 459.889 532.74 459.805 533.091 459.805C533.442 459.805 533.717 459.905 533.915 460.103C534.113 460.301 534.213 460.576 534.213 460.927C534.213 461.08 534.205 461.194 534.19 461.27L533.503 465.162C533.427 465.62 533.389 465.979 533.389 466.238C533.389 466.681 533.48 467.017 533.663 467.246C533.846 467.474 534.144 467.589 534.556 467.589C534.861 467.589 535.167 467.444 535.472 467.154C535.777 466.864 536.029 466.391 536.227 465.735C536.441 465.078 536.548 464.239 536.548 463.216C536.548 461.934 536.273 460.813 535.724 459.851C535.174 458.89 534.358 458.142 533.274 457.608C532.19 457.073 530.87 456.806 529.314 456.806C527.848 456.806 526.544 457.127 525.399 457.768C524.254 458.394 523.354 459.325 522.698 460.561C522.041 461.782 521.713 463.239 521.713 464.933C521.713 466.46 522.011 467.795 522.606 468.94C523.216 470.084 524.086 470.969 525.216 471.595C526.36 472.221 527.719 472.534 529.291 472.534C530.283 472.534 531.137 472.427 531.855 472.213C532.587 472.015 533.297 471.694 533.984 471.252C534.228 471.099 534.457 471.023 534.671 471.023C534.976 471.023 535.228 471.13 535.426 471.343C535.64 471.557 535.747 471.809 535.747 472.099C535.747 472.48 535.563 472.801 535.197 473.06C534.587 473.503 533.762 473.877 532.725 474.182C531.687 474.487 530.542 474.64 529.291 474.64ZM528.398 467.589C529.008 467.589 529.527 467.406 529.955 467.04C530.397 466.658 530.725 466.17 530.939 465.574C531.168 464.964 531.282 464.323 531.282 463.651C531.282 462.949 531.122 462.423 530.802 462.072C530.496 461.721 530.061 461.545 529.497 461.545C528.932 461.545 528.444 461.736 528.032 462.118C527.62 462.499 527.307 462.987 527.093 463.583C526.879 464.178 526.772 464.788 526.772 465.414C526.772 466.07 526.917 466.597 527.207 466.994C527.497 467.391 527.894 467.589 528.398 467.589Z" fill="white"/>
</svg>
