<svg width="648" height="843" viewBox="0 0 648 843" fill="none" xmlns="http://www.w3.org/2000/svg">
<path d="M567.967 454.408H79.4526C73.044 454.408 67.8489 459.599 67.8489 466.003V747.184C67.8489 753.588 73.044 758.779 79.4526 758.779H567.967C574.376 758.779 579.571 753.588 579.571 747.184V466.003C579.571 459.599 574.376 454.408 567.967 454.408Z" fill="white" stroke="#2B4FEB" stroke-width="16"/>
<path d="M567.967 70.4832H79.4526C73.044 70.4832 67.8489 75.6882 67.8489 82.1089V364.034C67.8489 370.454 73.044 375.66 79.4526 375.66H567.967C574.376 375.66 579.571 370.454 579.571 364.034V82.1089C579.571 75.6882 574.376 70.4832 567.967 70.4832Z" fill="white" stroke="#2B4FEB" stroke-width="16"/>
<path d="M324 398V430M324 430L311 416.743M324 430L337 416.743" stroke="#21CEA0" stroke-width="6" stroke-linecap="round" stroke-linejoin="round"/>
<rect x="238" y="159" width="171" height="127.256" rx="18" fill="#2B4FEB"/>
<path d="M294.919 254.442C289.057 254.442 283.928 253.151 279.532 250.57C275.136 247.988 271.755 244.292 269.388 239.481C267.021 234.67 265.837 229.038 265.837 222.584C265.837 216.13 267.021 210.527 269.388 205.775C271.755 200.964 275.136 197.268 279.532 194.686C283.928 192.105 289.057 190.814 294.919 190.814C302.302 190.814 308.67 192.926 314.024 197.15C314.87 197.855 315.462 198.559 315.8 199.263C316.138 199.967 316.307 200.847 316.307 201.903C316.307 203.428 315.884 204.748 315.039 205.863C314.25 206.919 313.264 207.447 312.08 207.447C311.291 207.447 310.586 207.359 309.967 207.183C309.403 206.948 308.755 206.567 308.022 206.039C305.768 204.514 303.682 203.428 301.766 202.783C299.85 202.079 297.793 201.727 295.595 201.727C290.184 201.727 286.098 203.487 283.337 207.007C280.631 210.469 279.279 215.661 279.279 222.584C279.279 236.548 284.717 243.529 295.595 243.529C297.68 243.529 299.653 243.207 301.513 242.561C303.372 241.857 305.542 240.742 308.022 239.217C308.868 238.689 309.572 238.337 310.136 238.161C310.699 237.926 311.347 237.809 312.08 237.809C313.264 237.809 314.25 238.366 315.039 239.481C315.884 240.537 316.307 241.828 316.307 243.353C316.307 244.409 316.11 245.319 315.715 246.081C315.377 246.786 314.813 247.46 314.024 248.106C308.67 252.33 302.302 254.442 294.919 254.442Z" fill="white"/>
<path d="M351.821 254.442C345.959 254.442 340.831 253.151 336.435 250.57C332.039 247.988 328.657 244.292 326.29 239.481C323.923 234.67 322.739 229.038 322.739 222.584C322.739 216.13 323.923 210.527 326.29 205.775C328.657 200.964 332.039 197.268 336.435 194.686C340.831 192.105 345.959 190.814 351.821 190.814C359.204 190.814 365.572 192.926 370.927 197.15C371.772 197.855 372.364 198.559 372.702 199.263C373.04 199.967 373.209 200.847 373.209 201.903C373.209 203.428 372.786 204.748 371.941 205.863C371.152 206.919 370.166 207.447 368.982 207.447C368.193 207.447 367.489 207.359 366.869 207.183C366.305 206.948 365.657 206.567 364.924 206.039C362.67 204.514 360.585 203.428 358.668 202.783C356.752 202.079 354.695 201.727 352.497 201.727C347.087 201.727 343 203.487 340.239 207.007C337.534 210.469 336.181 215.661 336.181 222.584C336.181 236.548 341.62 243.529 352.497 243.529C354.582 243.529 356.555 243.207 358.415 242.561C360.275 241.857 362.444 240.742 364.924 239.217C365.77 238.689 366.474 238.337 367.038 238.161C367.601 237.926 368.249 237.809 368.982 237.809C370.166 237.809 371.152 238.366 371.941 239.481C372.786 240.537 373.209 241.828 373.209 243.353C373.209 244.409 373.012 245.319 372.617 246.081C372.279 246.786 371.716 247.46 370.927 248.106C365.572 252.33 359.204 254.442 351.821 254.442Z" fill="white"/>
<line x1="414.616" y1="130.451" x2="228.023" y2="299.118" stroke="white" stroke-width="12"/>
<line x1="416.683" y1="141.808" x2="238.993" y2="302.428" stroke="#2B4FEB" stroke-width="12" stroke-linecap="round" stroke-linejoin="round"/>
<path d="M92 555C92 548.373 97.3726 543 104 543H299C305.627 543 311 548.373 311 555V751H92V555Z" fill="#101228"/>
<path d="M314 498C314 491.373 319.373 486 326 486H521C527.627 486 533 491.373 533 498V751H314V498Z" fill="#101228"/>
<path d="M92 555C92 548.373 97.3726 543 104 543H299C305.627 543 311 548.373 311 555V605H92V555Z" fill="white" fill-opacity="0.26"/>
<path d="M121.814 583.183C120.288 583.183 118.96 582.847 117.83 582.176C116.716 581.504 115.854 580.55 115.244 579.314C114.633 578.078 114.328 576.62 114.328 574.942C114.328 573.248 114.625 571.782 115.221 570.546C115.831 569.295 116.701 568.341 117.83 567.685C118.96 567.013 120.288 566.677 121.814 566.677C123.355 566.677 124.691 567.013 125.82 567.685C126.949 568.341 127.812 569.295 128.407 570.546C129.017 571.782 129.323 573.24 129.323 574.919C129.323 576.598 129.017 578.063 128.407 579.314C127.812 580.55 126.949 581.504 125.82 582.176C124.691 582.847 123.355 583.183 121.814 583.183ZM121.814 581.26C123.432 581.26 124.691 580.711 125.591 579.612C126.492 578.513 126.942 576.949 126.942 574.919C126.942 572.889 126.492 571.332 125.591 570.249C124.706 569.15 123.447 568.6 121.814 568.6C120.211 568.6 118.96 569.15 118.059 570.249C117.174 571.332 116.732 572.889 116.732 574.919C116.732 576.949 117.174 578.513 118.059 579.612C118.96 580.711 120.211 581.26 121.814 581.26ZM138.514 571.554C141.185 571.554 142.52 573.057 142.52 576.063V582.016C142.52 582.367 142.413 582.641 142.2 582.84C142.001 583.023 141.719 583.114 141.353 583.114C141.002 583.114 140.719 583.015 140.506 582.817C140.307 582.618 140.208 582.351 140.208 582.016V576.178C140.208 575.232 140.017 574.537 139.636 574.095C139.269 573.652 138.689 573.431 137.896 573.431C136.965 573.431 136.217 573.721 135.652 574.301C135.088 574.881 134.805 575.659 134.805 576.636V582.016C134.805 582.351 134.698 582.618 134.485 582.817C134.286 583.015 134.012 583.114 133.661 583.114C133.31 583.114 133.027 583.015 132.813 582.817C132.6 582.618 132.493 582.351 132.493 582.016V572.698C132.493 572.378 132.6 572.118 132.813 571.92C133.042 571.706 133.325 571.599 133.661 571.599C133.996 571.599 134.263 571.699 134.462 571.897C134.66 572.095 134.759 572.355 134.759 572.675V573.614C135.126 572.942 135.637 572.431 136.293 572.08C136.949 571.729 137.69 571.554 138.514 571.554ZM155.046 566.746C155.398 566.746 155.68 566.845 155.894 567.044C156.107 567.242 156.214 567.509 156.214 567.845V581.993C156.214 582.344 156.107 582.618 155.894 582.817C155.695 583.015 155.42 583.114 155.069 583.114C154.718 583.114 154.436 583.015 154.222 582.817C154.024 582.618 153.925 582.344 153.925 581.993V581.077C153.589 581.749 153.101 582.267 152.46 582.634C151.819 582.985 151.078 583.16 150.239 583.16C149.277 583.16 148.415 582.916 147.652 582.428C146.904 581.939 146.317 581.253 145.889 580.367C145.477 579.482 145.271 578.467 145.271 577.323C145.271 576.163 145.477 575.148 145.889 574.278C146.317 573.408 146.904 572.736 147.652 572.263C148.4 571.79 149.262 571.554 150.239 571.554C151.078 571.554 151.811 571.737 152.437 572.103C153.078 572.454 153.566 572.958 153.902 573.614V567.799C153.902 567.479 154.001 567.227 154.199 567.044C154.413 566.845 154.695 566.746 155.046 566.746ZM150.788 581.329C151.78 581.329 152.551 580.985 153.101 580.299C153.65 579.612 153.925 578.635 153.925 577.368C153.925 576.102 153.65 575.125 153.101 574.438C152.566 573.751 151.796 573.408 150.788 573.408C149.781 573.408 148.995 573.751 148.43 574.438C147.881 575.11 147.606 576.071 147.606 577.323C147.606 578.574 147.889 579.558 148.453 580.276C149.018 580.978 149.796 581.329 150.788 581.329ZM168.412 580.184C168.626 580.184 168.801 580.268 168.938 580.436C169.076 580.604 169.144 580.818 169.144 581.077C169.144 581.52 168.87 581.894 168.32 582.199C167.786 582.504 167.199 582.741 166.558 582.908C165.932 583.076 165.329 583.16 164.749 583.16C162.979 583.16 161.582 582.649 160.56 581.626C159.537 580.589 159.026 579.177 159.026 577.391C159.026 576.247 159.247 575.232 159.69 574.346C160.148 573.461 160.781 572.774 161.59 572.286C162.414 571.798 163.345 571.554 164.383 571.554C165.878 571.554 167.061 572.034 167.931 572.996C168.801 573.957 169.236 575.255 169.236 576.888C169.236 577.498 168.961 577.803 168.412 577.803H161.338C161.491 580.169 162.628 581.352 164.749 581.352C165.314 581.352 165.802 581.275 166.214 581.123C166.626 580.97 167.061 580.772 167.519 580.528C167.565 580.497 167.687 580.436 167.885 580.344C168.099 580.238 168.275 580.184 168.412 580.184ZM164.428 573.248C163.543 573.248 162.834 573.53 162.299 574.095C161.765 574.659 161.445 575.453 161.338 576.476H167.244C167.199 575.438 166.931 574.644 166.443 574.095C165.97 573.53 165.298 573.248 164.428 573.248ZM177.873 571.599C178.606 571.554 178.972 571.866 178.972 572.538C178.972 572.874 178.888 573.126 178.72 573.293C178.553 573.461 178.263 573.56 177.851 573.591L177.164 573.66C176.202 573.751 175.485 574.087 175.012 574.667C174.554 575.247 174.325 575.949 174.325 576.773V582.016C174.325 582.382 174.218 582.657 174.005 582.84C173.791 583.023 173.516 583.114 173.18 583.114C172.845 583.114 172.562 583.023 172.333 582.84C172.12 582.657 172.013 582.382 172.013 582.016V572.698C172.013 572.347 172.12 572.08 172.333 571.897C172.562 571.699 172.845 571.599 173.18 571.599C173.486 571.599 173.737 571.699 173.936 571.897C174.15 572.08 174.256 572.34 174.256 572.675V573.774C174.562 573.103 175.004 572.591 175.584 572.24C176.164 571.889 176.82 571.683 177.553 571.622L177.873 571.599ZM187.058 581.352C187.394 581.382 187.63 581.474 187.768 581.626C187.92 581.764 187.997 581.962 187.997 582.222C187.997 582.527 187.875 582.763 187.63 582.931C187.402 583.084 187.058 583.145 186.6 583.114L185.982 583.069C184.746 582.977 183.823 582.603 183.212 581.947C182.602 581.275 182.296 580.291 182.296 578.994V573.614H180.923C180.251 573.614 179.916 573.316 179.916 572.721C179.916 572.446 180 572.233 180.167 572.08C180.351 571.912 180.602 571.828 180.923 571.828H182.296V569.47C182.296 569.119 182.396 568.845 182.594 568.646C182.808 568.448 183.09 568.349 183.441 568.349C183.792 568.349 184.074 568.448 184.288 568.646C184.502 568.845 184.609 569.119 184.609 569.47V571.828H186.875C187.196 571.828 187.44 571.912 187.608 572.08C187.791 572.233 187.882 572.446 187.882 572.721C187.882 573.011 187.791 573.232 187.608 573.385C187.44 573.538 187.196 573.614 186.875 573.614H184.609V579.154C184.609 579.871 184.754 580.398 185.044 580.734C185.349 581.069 185.807 581.26 186.417 581.306L187.058 581.352ZM191.054 583.114C190.718 583.114 190.436 583.023 190.207 582.84C189.993 582.657 189.886 582.382 189.886 582.016V572.721C189.886 572.355 189.993 572.08 190.207 571.897C190.436 571.699 190.718 571.599 191.054 571.599C191.39 571.599 191.664 571.699 191.878 571.897C192.092 572.08 192.199 572.355 192.199 572.721V582.016C192.199 582.382 192.092 582.657 191.878 582.84C191.664 583.023 191.39 583.114 191.054 583.114ZM191.054 569.356C190.611 569.356 190.26 569.234 190.001 568.99C189.741 568.745 189.612 568.425 189.612 568.028C189.612 567.631 189.741 567.318 190.001 567.089C190.26 566.845 190.611 566.723 191.054 566.723C191.481 566.723 191.825 566.845 192.084 567.089C192.359 567.318 192.496 567.631 192.496 568.028C192.496 568.425 192.366 568.745 192.107 568.99C191.848 569.234 191.496 569.356 191.054 569.356ZM201.131 581.352C201.467 581.382 201.703 581.474 201.841 581.626C201.993 581.764 202.07 581.962 202.07 582.222C202.07 582.527 201.948 582.763 201.703 582.931C201.474 583.084 201.131 583.145 200.673 583.114L200.055 583.069C198.819 582.977 197.896 582.603 197.285 581.947C196.675 581.275 196.369 580.291 196.369 578.994V573.614H194.996C194.324 573.614 193.988 573.316 193.988 572.721C193.988 572.446 194.072 572.233 194.24 572.08C194.423 571.912 194.675 571.828 194.996 571.828H196.369V569.47C196.369 569.119 196.469 568.845 196.667 568.646C196.881 568.448 197.163 568.349 197.514 568.349C197.865 568.349 198.147 568.448 198.361 568.646C198.575 568.845 198.682 569.119 198.682 569.47V571.828H200.948C201.268 571.828 201.513 571.912 201.681 572.08C201.864 572.233 201.955 572.446 201.955 572.721C201.955 573.011 201.864 573.232 201.681 573.385C201.513 573.538 201.268 573.614 200.948 573.614H198.682V579.154C198.682 579.871 198.827 580.398 199.116 580.734C199.422 581.069 199.88 581.26 200.49 581.306L201.131 581.352ZM212.704 580.184C212.918 580.184 213.094 580.268 213.231 580.436C213.368 580.604 213.437 580.818 213.437 581.077C213.437 581.52 213.162 581.894 212.613 582.199C212.079 582.504 211.491 582.741 210.85 582.908C210.224 583.076 209.621 583.16 209.041 583.16C207.271 583.16 205.875 582.649 204.852 581.626C203.83 580.589 203.318 579.177 203.318 577.391C203.318 576.247 203.54 575.232 203.982 574.346C204.44 573.461 205.073 572.774 205.882 572.286C206.706 571.798 207.637 571.554 208.675 571.554C210.171 571.554 211.354 572.034 212.224 572.996C213.094 573.957 213.529 575.255 213.529 576.888C213.529 577.498 213.254 577.803 212.704 577.803H205.63C205.783 580.169 206.92 581.352 209.041 581.352C209.606 581.352 210.095 581.275 210.507 581.123C210.919 580.97 211.354 580.772 211.812 580.528C211.857 580.497 211.979 580.436 212.178 580.344C212.391 580.238 212.567 580.184 212.704 580.184ZM208.721 573.248C207.836 573.248 207.126 573.53 206.592 574.095C206.058 574.659 205.737 575.453 205.63 576.476H211.537C211.491 575.438 211.224 574.644 210.736 574.095C210.262 573.53 209.591 573.248 208.721 573.248ZM217.473 583.114C217.137 583.114 216.855 583.023 216.626 582.84C216.412 582.657 216.305 582.382 216.305 582.016V567.868C216.305 567.501 216.412 567.227 216.626 567.044C216.855 566.845 217.137 566.746 217.473 566.746C217.809 566.746 218.083 566.845 218.297 567.044C218.511 567.227 218.618 567.501 218.618 567.868V582.016C218.618 582.382 218.511 582.657 218.297 582.84C218.083 583.023 217.809 583.114 217.473 583.114ZM223.246 583.114C222.91 583.114 222.628 583.023 222.399 582.84C222.185 582.657 222.079 582.382 222.079 582.016V572.721C222.079 572.355 222.185 572.08 222.399 571.897C222.628 571.699 222.91 571.599 223.246 571.599C223.582 571.599 223.857 571.699 224.07 571.897C224.284 572.08 224.391 572.355 224.391 572.721V582.016C224.391 582.382 224.284 582.657 224.07 582.84C223.857 583.023 223.582 583.114 223.246 583.114ZM223.246 569.356C222.804 569.356 222.453 569.234 222.193 568.99C221.934 568.745 221.804 568.425 221.804 568.028C221.804 567.631 221.934 567.318 222.193 567.089C222.453 566.845 222.804 566.723 223.246 566.723C223.674 566.723 224.017 566.845 224.276 567.089C224.551 567.318 224.688 567.631 224.688 568.028C224.688 568.425 224.559 568.745 224.299 568.99C224.04 569.234 223.689 569.356 223.246 569.356ZM233.873 571.554C236.544 571.554 237.879 573.057 237.879 576.063V582.016C237.879 582.367 237.772 582.641 237.559 582.84C237.36 583.023 237.078 583.114 236.712 583.114C236.361 583.114 236.078 583.015 235.865 582.817C235.666 582.618 235.567 582.351 235.567 582.016V576.178C235.567 575.232 235.376 574.537 234.995 574.095C234.628 573.652 234.048 573.431 233.255 573.431C232.324 573.431 231.576 573.721 231.011 574.301C230.447 574.881 230.164 575.659 230.164 576.636V582.016C230.164 582.351 230.057 582.618 229.844 582.817C229.645 583.015 229.371 583.114 229.02 583.114C228.668 583.114 228.386 583.015 228.172 582.817C227.959 582.618 227.852 582.351 227.852 582.016V572.698C227.852 572.378 227.959 572.118 228.172 571.92C228.401 571.706 228.684 571.599 229.02 571.599C229.355 571.599 229.622 571.699 229.821 571.897C230.019 572.095 230.118 572.355 230.118 572.675V573.614C230.485 572.942 230.996 572.431 231.652 572.08C232.308 571.729 233.049 571.554 233.873 571.554ZM250.52 571.599C250.871 571.599 251.146 571.706 251.344 571.92C251.558 572.118 251.665 572.385 251.665 572.721V582.107C251.665 583.817 251.207 585.106 250.291 585.976C249.391 586.846 248.055 587.281 246.285 587.281C244.636 587.281 243.263 586.968 242.164 586.342C241.599 586.022 241.317 585.64 241.317 585.198C241.317 584.938 241.386 584.725 241.523 584.557C241.676 584.389 241.859 584.305 242.072 584.305C242.271 584.305 242.584 584.419 243.011 584.648C243.56 584.908 244.072 585.106 244.545 585.244C245.018 585.396 245.583 585.472 246.239 585.472C248.345 585.472 249.398 584.412 249.398 582.29V580.528C249.078 581.199 248.589 581.726 247.933 582.107C247.277 582.473 246.514 582.657 245.644 582.657C244.667 582.657 243.797 582.428 243.034 581.97C242.271 581.512 241.676 580.863 241.248 580.024C240.836 579.185 240.63 578.215 240.63 577.117C240.63 576.018 240.844 575.049 241.271 574.209C241.699 573.37 242.286 572.721 243.034 572.263C243.797 571.79 244.667 571.554 245.644 571.554C246.498 571.554 247.246 571.737 247.887 572.103C248.544 572.469 249.04 572.988 249.375 573.66V572.698C249.375 572.362 249.475 572.095 249.673 571.897C249.887 571.699 250.169 571.599 250.52 571.599ZM246.193 580.825C247.185 580.825 247.964 580.497 248.528 579.841C249.093 579.185 249.375 578.276 249.375 577.117C249.375 575.972 249.093 575.071 248.528 574.415C247.979 573.744 247.2 573.408 246.193 573.408C245.186 573.408 244.392 573.736 243.812 574.392C243.248 575.049 242.965 575.957 242.965 577.117C242.965 578.276 243.255 579.185 243.835 579.841C244.415 580.497 245.201 580.825 246.193 580.825Z" fill="white"/>
<path d="M346.01 509.746C346.346 509.746 346.613 509.86 346.812 510.089C347.025 510.303 347.132 510.585 347.132 510.936V524.924C347.132 525.275 347.025 525.565 346.812 525.794C346.598 526.008 346.323 526.114 345.988 526.114C345.591 526.114 345.286 525.962 345.072 525.657L336.098 513.821V524.924C336.098 525.275 335.991 525.565 335.777 525.794C335.579 526.008 335.312 526.114 334.976 526.114C334.64 526.114 334.373 526.008 334.175 525.794C333.976 525.58 333.877 525.29 333.877 524.924V510.936C333.877 510.585 333.984 510.303 334.198 510.089C334.411 509.86 334.686 509.746 335.022 509.746C335.419 509.746 335.724 509.899 335.938 510.204L344.912 522.062V510.936C344.912 510.585 345.011 510.303 345.209 510.089C345.408 509.86 345.675 509.746 346.01 509.746ZM359.59 523.184C359.803 523.184 359.979 523.268 360.116 523.436C360.254 523.604 360.322 523.818 360.322 524.077C360.322 524.52 360.048 524.894 359.498 525.199C358.964 525.504 358.376 525.741 357.735 525.908C357.11 526.076 356.507 526.16 355.927 526.16C354.157 526.16 352.76 525.649 351.737 524.626C350.715 523.589 350.204 522.177 350.204 520.391C350.204 519.247 350.425 518.232 350.868 517.346C351.325 516.461 351.959 515.774 352.768 515.286C353.592 514.798 354.523 514.554 355.561 514.554C357.056 514.554 358.239 515.034 359.109 515.996C359.979 516.957 360.414 518.255 360.414 519.888C360.414 520.498 360.139 520.803 359.59 520.803H352.516C352.668 523.169 353.805 524.352 355.927 524.352C356.492 524.352 356.98 524.275 357.392 524.123C357.804 523.97 358.239 523.772 358.697 523.528C358.743 523.497 358.865 523.436 359.063 523.344C359.277 523.238 359.452 523.184 359.59 523.184ZM355.606 516.248C354.721 516.248 354.012 516.53 353.477 517.095C352.943 517.659 352.623 518.453 352.516 519.476H358.422C358.376 518.438 358.109 517.644 357.621 517.095C357.148 516.53 356.476 516.248 355.606 516.248ZM372.325 509.746C372.676 509.746 372.958 509.845 373.172 510.044C373.386 510.242 373.493 510.509 373.493 510.845V524.993C373.493 525.344 373.386 525.618 373.172 525.817C372.974 526.015 372.699 526.114 372.348 526.114C371.997 526.114 371.715 526.015 371.501 525.817C371.302 525.618 371.203 525.344 371.203 524.993V524.077C370.868 524.749 370.379 525.267 369.738 525.634C369.097 525.985 368.357 526.16 367.518 526.16C366.556 526.16 365.694 525.916 364.931 525.428C364.183 524.939 363.595 524.253 363.168 523.367C362.756 522.482 362.55 521.467 362.55 520.323C362.55 519.163 362.756 518.148 363.168 517.278C363.595 516.408 364.183 515.736 364.931 515.263C365.678 514.79 366.541 514.554 367.518 514.554C368.357 514.554 369.09 514.737 369.715 515.103C370.356 515.454 370.845 515.958 371.18 516.614V510.799C371.18 510.479 371.28 510.227 371.478 510.044C371.692 509.845 371.974 509.746 372.325 509.746ZM368.067 524.329C369.059 524.329 369.83 523.985 370.379 523.299C370.929 522.612 371.203 521.635 371.203 520.368C371.203 519.102 370.929 518.125 370.379 517.438C369.845 516.751 369.074 516.408 368.067 516.408C367.06 516.408 366.274 516.751 365.709 517.438C365.16 518.11 364.885 519.071 364.885 520.323C364.885 521.574 365.167 522.558 365.732 523.276C366.297 523.978 367.075 524.329 368.067 524.329ZM385.69 523.184C385.904 523.184 386.08 523.268 386.217 523.436C386.354 523.604 386.423 523.818 386.423 524.077C386.423 524.52 386.148 524.894 385.599 525.199C385.065 525.504 384.477 525.741 383.836 525.908C383.21 526.076 382.607 526.16 382.028 526.16C380.257 526.16 378.861 525.649 377.838 524.626C376.816 523.589 376.304 522.177 376.304 520.391C376.304 519.247 376.526 518.232 376.968 517.346C377.426 516.461 378.059 515.774 378.868 515.286C379.692 514.798 380.623 514.554 381.661 514.554C383.157 514.554 384.34 515.034 385.21 515.996C386.08 516.957 386.515 518.255 386.515 519.888C386.515 520.498 386.24 520.803 385.69 520.803H378.616C378.769 523.169 379.906 524.352 382.028 524.352C382.592 524.352 383.081 524.275 383.493 524.123C383.905 523.97 384.34 523.772 384.798 523.528C384.843 523.497 384.965 523.436 385.164 523.344C385.378 523.238 385.553 523.184 385.69 523.184ZM381.707 516.248C380.822 516.248 380.112 516.53 379.578 517.095C379.044 517.659 378.723 518.453 378.616 519.476H384.523C384.477 518.438 384.21 517.644 383.722 517.095C383.249 516.53 382.577 516.248 381.707 516.248ZM395.152 514.599C395.885 514.554 396.251 514.866 396.251 515.538C396.251 515.874 396.167 516.126 395.999 516.293C395.831 516.461 395.541 516.56 395.129 516.591L394.442 516.66C393.481 516.751 392.764 517.087 392.29 517.667C391.833 518.247 391.604 518.949 391.604 519.773V525.016C391.604 525.382 391.497 525.657 391.283 525.84C391.069 526.023 390.795 526.114 390.459 526.114C390.123 526.114 389.841 526.023 389.612 525.84C389.398 525.657 389.291 525.382 389.291 525.016V515.698C389.291 515.347 389.398 515.08 389.612 514.897C389.841 514.699 390.123 514.599 390.459 514.599C390.764 514.599 391.016 514.699 391.214 514.897C391.428 515.08 391.535 515.34 391.535 515.675V516.774C391.84 516.103 392.283 515.591 392.863 515.24C393.443 514.889 394.099 514.683 394.832 514.622L395.152 514.599ZM399.072 526.114C398.736 526.114 398.453 526.023 398.224 525.84C398.011 525.657 397.904 525.382 397.904 525.016V510.868C397.904 510.501 398.011 510.227 398.224 510.044C398.453 509.845 398.736 509.746 399.072 509.746C399.407 509.746 399.682 509.845 399.896 510.044C400.109 510.227 400.216 510.501 400.216 510.868V525.016C400.216 525.382 400.109 525.657 399.896 525.84C399.682 526.023 399.407 526.114 399.072 526.114ZM408.37 514.554C409.851 514.554 410.95 514.927 411.667 515.675C412.4 516.423 412.766 517.56 412.766 519.086V525.016C412.766 525.367 412.667 525.641 412.468 525.84C412.27 526.023 411.995 526.114 411.644 526.114C411.308 526.114 411.041 526.015 410.843 525.817C410.644 525.618 410.545 525.351 410.545 525.016V524.169C410.255 524.81 409.82 525.306 409.24 525.657C408.676 525.992 408.012 526.16 407.249 526.16C406.516 526.16 405.845 526.015 405.234 525.725C404.624 525.42 404.143 525 403.792 524.466C403.456 523.932 403.288 523.337 403.288 522.681C403.288 521.872 403.494 521.238 403.906 520.78C404.334 520.307 405.028 519.972 405.989 519.773C406.966 519.575 408.302 519.476 409.996 519.476H410.522V518.812C410.522 517.957 410.347 517.339 409.996 516.957C409.645 516.576 409.08 516.385 408.302 516.385C407.768 516.385 407.264 516.454 406.791 516.591C406.318 516.728 405.799 516.927 405.234 517.186C404.822 517.415 404.532 517.53 404.364 517.53C404.135 517.53 403.944 517.446 403.792 517.278C403.654 517.11 403.586 516.896 403.586 516.637C403.586 516.408 403.647 516.209 403.769 516.042C403.906 515.858 404.12 515.683 404.41 515.515C404.944 515.225 405.57 514.996 406.287 514.828C407.004 514.645 407.699 514.554 408.37 514.554ZM407.661 524.443C408.5 524.443 409.187 524.161 409.721 523.596C410.255 523.016 410.522 522.276 410.522 521.376V520.78H410.11C408.92 520.78 408.004 520.834 407.363 520.941C406.722 521.047 406.264 521.231 405.989 521.49C405.715 521.734 405.577 522.093 405.577 522.566C405.577 523.115 405.776 523.566 406.173 523.917C406.569 524.268 407.065 524.443 407.661 524.443ZM422.178 514.554C424.849 514.554 426.185 516.057 426.185 519.063V525.016C426.185 525.367 426.078 525.641 425.864 525.84C425.666 526.023 425.383 526.114 425.017 526.114C424.666 526.114 424.384 526.015 424.17 525.817C423.972 525.618 423.872 525.351 423.872 525.016V519.178C423.872 518.232 423.682 517.537 423.3 517.095C422.934 516.652 422.354 516.431 421.56 516.431C420.629 516.431 419.881 516.721 419.317 517.301C418.752 517.881 418.47 518.659 418.47 519.636V525.016C418.47 525.351 418.363 525.618 418.149 525.817C417.951 526.015 417.676 526.114 417.325 526.114C416.974 526.114 416.692 526.015 416.478 525.817C416.264 525.618 416.158 525.351 416.158 525.016V515.698C416.158 515.378 416.264 515.118 416.478 514.92C416.707 514.706 416.989 514.599 417.325 514.599C417.661 514.599 417.928 514.699 418.126 514.897C418.325 515.095 418.424 515.355 418.424 515.675V516.614C418.79 515.942 419.302 515.431 419.958 515.08C420.614 514.729 421.354 514.554 422.178 514.554ZM438.711 509.746C439.062 509.746 439.344 509.845 439.558 510.044C439.772 510.242 439.879 510.509 439.879 510.845V524.993C439.879 525.344 439.772 525.618 439.558 525.817C439.36 526.015 439.085 526.114 438.734 526.114C438.383 526.114 438.101 526.015 437.887 525.817C437.688 525.618 437.589 525.344 437.589 524.993V524.077C437.254 524.749 436.765 525.267 436.124 525.634C435.483 525.985 434.743 526.16 433.904 526.16C432.942 526.16 432.08 525.916 431.317 525.428C430.569 524.939 429.981 524.253 429.554 523.367C429.142 522.482 428.936 521.467 428.936 520.323C428.936 519.163 429.142 518.148 429.554 517.278C429.981 516.408 430.569 515.736 431.317 515.263C432.064 514.79 432.927 514.554 433.904 514.554C434.743 514.554 435.475 514.737 436.101 515.103C436.742 515.454 437.231 515.958 437.566 516.614V510.799C437.566 510.479 437.666 510.227 437.864 510.044C438.078 509.845 438.36 509.746 438.711 509.746ZM434.453 524.329C435.445 524.329 436.216 523.985 436.765 523.299C437.315 522.612 437.589 521.635 437.589 520.368C437.589 519.102 437.315 518.125 436.765 517.438C436.231 516.751 435.46 516.408 434.453 516.408C433.446 516.408 432.66 516.751 432.095 517.438C431.546 518.11 431.271 519.071 431.271 520.323C431.271 521.574 431.553 522.558 432.118 523.276C432.683 523.978 433.461 524.329 434.453 524.329ZM447.223 526.16C445.666 526.16 444.392 525.84 443.4 525.199C443.125 525.031 442.927 524.855 442.805 524.672C442.698 524.489 442.645 524.283 442.645 524.054C442.645 523.81 442.713 523.604 442.851 523.436C442.988 523.268 443.163 523.184 443.377 523.184C443.575 523.184 443.888 523.306 444.316 523.55C444.774 523.795 445.216 523.993 445.643 524.146C446.086 524.298 446.636 524.375 447.292 524.375C448.024 524.375 448.597 524.245 449.009 523.985C449.421 523.726 449.627 523.36 449.627 522.887C449.627 522.581 449.543 522.337 449.375 522.154C449.222 521.971 448.948 521.811 448.551 521.673C448.154 521.521 447.566 521.36 446.788 521.192C445.445 520.903 444.476 520.513 443.881 520.025C443.301 519.521 443.011 518.842 443.011 517.987C443.011 517.331 443.202 516.744 443.583 516.225C443.965 515.691 444.491 515.278 445.163 514.988C445.834 514.699 446.597 514.554 447.452 514.554C448.063 514.554 448.658 514.637 449.238 514.805C449.818 514.958 450.329 515.187 450.772 515.492C451.275 515.828 451.527 516.217 451.527 516.66C451.527 516.904 451.451 517.11 451.298 517.278C451.161 517.446 450.993 517.53 450.794 517.53C450.657 517.53 450.52 517.499 450.382 517.438C450.245 517.377 450.062 517.278 449.833 517.14C449.421 516.896 449.032 516.705 448.665 516.568C448.314 516.431 447.872 516.362 447.338 516.362C446.697 516.362 446.178 516.499 445.781 516.774C445.399 517.049 445.209 517.423 445.209 517.896C445.209 518.323 445.384 518.659 445.735 518.903C446.101 519.132 446.781 519.353 447.773 519.567C448.795 519.781 449.596 520.025 450.176 520.3C450.756 520.574 451.168 520.918 451.413 521.33C451.672 521.727 451.802 522.238 451.802 522.864C451.802 523.856 451.382 524.657 450.543 525.267C449.718 525.863 448.612 526.16 447.223 526.16Z" fill="white"/>
<path opacity="0.8" d="M335.045 595C334.678 595 334.388 594.901 334.175 594.702C333.976 594.489 333.877 594.206 333.877 593.855V580.005C333.877 579.654 333.976 579.379 334.175 579.181C334.388 578.967 334.678 578.86 335.045 578.86H343.469C343.82 578.86 344.087 578.944 344.271 579.112C344.469 579.28 344.568 579.517 344.568 579.822C344.568 580.127 344.469 580.364 344.271 580.532C344.087 580.684 343.82 580.761 343.469 580.761H336.189V585.843H343.012C343.363 585.843 343.63 585.927 343.813 586.095C344.011 586.263 344.11 586.499 344.11 586.804C344.11 587.11 344.011 587.346 343.813 587.514C343.63 587.682 343.363 587.766 343.012 587.766H336.189V593.1H343.469C344.202 593.1 344.568 593.413 344.568 594.038C344.568 594.344 344.469 594.58 344.271 594.748C344.087 594.916 343.82 595 343.469 595H335.045ZM353.244 583.554C355.915 583.554 357.25 585.057 357.25 588.063V594.016C357.25 594.367 357.143 594.641 356.93 594.84C356.731 595.023 356.449 595.114 356.082 595.114C355.731 595.114 355.449 595.015 355.235 594.817C355.037 594.618 354.938 594.351 354.938 594.016V588.178C354.938 587.232 354.747 586.537 354.366 586.095C353.999 585.652 353.419 585.431 352.626 585.431C351.695 585.431 350.947 585.721 350.382 586.301C349.817 586.881 349.535 587.659 349.535 588.636V594.016C349.535 594.351 349.428 594.618 349.215 594.817C349.016 595.015 348.741 595.114 348.39 595.114C348.039 595.114 347.757 595.015 347.543 594.817C347.33 594.618 347.223 594.351 347.223 594.016V584.698C347.223 584.378 347.33 584.118 347.543 583.92C347.772 583.706 348.055 583.599 348.39 583.599C348.726 583.599 348.993 583.699 349.192 583.897C349.39 584.095 349.489 584.355 349.489 584.675V585.614C349.856 584.942 350.367 584.431 351.023 584.08C351.679 583.729 352.42 583.554 353.244 583.554ZM369.891 583.599C370.242 583.599 370.517 583.706 370.715 583.92C370.929 584.118 371.036 584.385 371.036 584.721V594.107C371.036 595.817 370.578 597.106 369.662 597.976C368.761 598.846 367.426 599.281 365.656 599.281C364.007 599.281 362.634 598.968 361.535 598.342C360.97 598.022 360.688 597.64 360.688 597.198C360.688 596.938 360.757 596.725 360.894 596.557C361.047 596.389 361.23 596.305 361.443 596.305C361.642 596.305 361.955 596.419 362.382 596.648C362.931 596.908 363.443 597.106 363.916 597.244C364.389 597.396 364.954 597.472 365.61 597.472C367.716 597.472 368.769 596.412 368.769 594.29V592.528C368.449 593.199 367.96 593.726 367.304 594.107C366.648 594.473 365.885 594.657 365.015 594.657C364.038 594.657 363.168 594.428 362.405 593.97C361.642 593.512 361.047 592.863 360.619 592.024C360.207 591.185 360.001 590.215 360.001 589.117C360.001 588.018 360.215 587.049 360.642 586.209C361.069 585.37 361.657 584.721 362.405 584.263C363.168 583.79 364.038 583.554 365.015 583.554C365.869 583.554 366.617 583.737 367.258 584.103C367.914 584.469 368.41 584.988 368.746 585.66V584.698C368.746 584.362 368.845 584.095 369.044 583.897C369.258 583.699 369.54 583.599 369.891 583.599ZM365.564 592.825C366.556 592.825 367.335 592.497 367.899 591.841C368.464 591.185 368.746 590.276 368.746 589.117C368.746 587.972 368.464 587.071 367.899 586.415C367.35 585.744 366.571 585.408 365.564 585.408C364.557 585.408 363.763 585.736 363.183 586.392C362.619 587.049 362.336 587.957 362.336 589.117C362.336 590.276 362.626 591.185 363.206 591.841C363.786 592.497 364.572 592.825 365.564 592.825ZM375.654 595.114C375.318 595.114 375.036 595.023 374.807 594.84C374.593 594.657 374.486 594.382 374.486 594.016V579.868C374.486 579.501 374.593 579.227 374.807 579.044C375.036 578.845 375.318 578.746 375.654 578.746C375.989 578.746 376.264 578.845 376.478 579.044C376.691 579.227 376.798 579.501 376.798 579.868V594.016C376.798 594.382 376.691 594.657 376.478 594.84C376.264 595.023 375.989 595.114 375.654 595.114ZM381.427 595.114C381.091 595.114 380.809 595.023 380.58 594.84C380.366 594.657 380.259 594.382 380.259 594.016V584.721C380.259 584.355 380.366 584.08 380.58 583.897C380.809 583.699 381.091 583.599 381.427 583.599C381.763 583.599 382.037 583.699 382.251 583.897C382.465 584.08 382.572 584.355 382.572 584.721V594.016C382.572 594.382 382.465 594.657 382.251 594.84C382.037 595.023 381.763 595.114 381.427 595.114ZM381.427 581.356C380.984 581.356 380.633 581.234 380.374 580.99C380.114 580.745 379.985 580.425 379.985 580.028C379.985 579.631 380.114 579.318 380.374 579.089C380.633 578.845 380.984 578.723 381.427 578.723C381.854 578.723 382.198 578.845 382.457 579.089C382.732 579.318 382.869 579.631 382.869 580.028C382.869 580.425 382.739 580.745 382.48 580.99C382.221 581.234 381.87 581.356 381.427 581.356ZM389.925 595.16C388.368 595.16 387.093 594.84 386.101 594.199C385.827 594.031 385.628 593.855 385.506 593.672C385.399 593.489 385.346 593.283 385.346 593.054C385.346 592.81 385.415 592.604 385.552 592.436C385.689 592.268 385.865 592.184 386.079 592.184C386.277 592.184 386.59 592.306 387.017 592.55C387.475 592.795 387.918 592.993 388.345 593.146C388.788 593.298 389.337 593.375 389.993 593.375C390.726 593.375 391.298 593.245 391.71 592.985C392.122 592.726 392.328 592.36 392.328 591.887C392.328 591.581 392.244 591.337 392.076 591.154C391.924 590.971 391.649 590.811 391.252 590.673C390.856 590.521 390.268 590.36 389.49 590.192C388.147 589.903 387.177 589.513 386.582 589.025C386.002 588.521 385.712 587.842 385.712 586.987C385.712 586.331 385.903 585.744 386.285 585.225C386.666 584.691 387.193 584.278 387.864 583.988C388.536 583.699 389.299 583.554 390.153 583.554C390.764 583.554 391.359 583.637 391.939 583.805C392.519 583.958 393.03 584.187 393.473 584.492C393.977 584.828 394.228 585.217 394.228 585.66C394.228 585.904 394.152 586.11 393.999 586.278C393.862 586.446 393.694 586.53 393.496 586.53C393.358 586.53 393.221 586.499 393.084 586.438C392.946 586.377 392.763 586.278 392.534 586.14C392.122 585.896 391.733 585.705 391.367 585.568C391.016 585.431 390.573 585.362 390.039 585.362C389.398 585.362 388.879 585.499 388.482 585.774C388.101 586.049 387.91 586.423 387.91 586.896C387.91 587.323 388.085 587.659 388.436 587.903C388.803 588.132 389.482 588.353 390.474 588.567C391.497 588.781 392.298 589.025 392.878 589.3C393.458 589.574 393.87 589.918 394.114 590.33C394.373 590.727 394.503 591.238 394.503 591.864C394.503 592.856 394.083 593.657 393.244 594.267C392.42 594.863 391.313 595.16 389.925 595.16ZM403.349 583.554C406.005 583.554 407.333 585.057 407.333 588.063V594.016C407.333 594.351 407.226 594.618 407.012 594.817C406.799 595.015 406.516 595.114 406.165 595.114C405.814 595.114 405.532 595.015 405.318 594.817C405.12 594.618 405.021 594.351 405.021 594.016V588.086C405.021 587.171 404.83 586.499 404.448 586.072C404.082 585.644 403.502 585.431 402.708 585.431C401.777 585.431 401.03 585.721 400.465 586.301C399.9 586.881 399.618 587.659 399.618 588.636V594.016C399.618 594.351 399.511 594.618 399.297 594.817C399.099 595.015 398.824 595.114 398.473 595.114C398.122 595.114 397.84 595.015 397.626 594.817C397.413 594.618 397.306 594.351 397.306 594.016V579.845C397.306 579.509 397.413 579.242 397.626 579.044C397.855 578.845 398.145 578.746 398.496 578.746C398.832 578.746 399.099 578.845 399.297 579.044C399.511 579.227 399.618 579.479 399.618 579.799V585.522C399.999 584.881 400.511 584.393 401.152 584.057C401.793 583.721 402.525 583.554 403.349 583.554Z" fill="white"/>
<path opacity="0.6" d="M335.045 664C334.678 664 334.388 663.901 334.175 663.702C333.976 663.489 333.877 663.206 333.877 662.855V649.005C333.877 648.654 333.976 648.379 334.175 648.181C334.388 647.967 334.678 647.86 335.045 647.86H339.532C342.142 647.86 344.164 648.563 345.598 649.967C347.033 651.371 347.75 653.355 347.75 655.919C347.75 658.483 347.033 660.474 345.598 661.894C344.164 663.298 342.142 664 339.532 664H335.045ZM339.394 662.031C343.363 662.031 345.347 659.994 345.347 655.919C345.347 651.859 343.363 649.829 339.394 649.829H336.235V662.031H339.394ZM359.657 661.184C359.871 661.184 360.046 661.268 360.183 661.436C360.321 661.604 360.389 661.818 360.389 662.077C360.389 662.52 360.115 662.894 359.565 663.199C359.031 663.504 358.444 663.741 357.803 663.908C357.177 664.076 356.574 664.16 355.994 664.16C354.224 664.16 352.827 663.649 351.805 662.626C350.782 661.589 350.271 660.177 350.271 658.391C350.271 657.247 350.492 656.232 350.935 655.346C351.392 654.461 352.026 653.774 352.835 653.286C353.659 652.798 354.59 652.554 355.628 652.554C357.123 652.554 358.306 653.034 359.176 653.996C360.046 654.957 360.481 656.255 360.481 657.888C360.481 658.498 360.206 658.803 359.657 658.803H352.583C352.736 661.169 353.873 662.352 355.994 662.352C356.559 662.352 357.047 662.275 357.459 662.123C357.871 661.97 358.306 661.772 358.764 661.528C358.81 661.497 358.932 661.436 359.13 661.344C359.344 661.238 359.519 661.184 359.657 661.184ZM355.673 654.248C354.788 654.248 354.079 654.53 353.544 655.095C353.01 655.659 352.69 656.453 352.583 657.476H358.489C358.444 656.438 358.176 655.644 357.688 655.095C357.215 654.53 356.543 654.248 355.673 654.248ZM371.911 652.599C372.262 652.599 372.537 652.699 372.736 652.897C372.949 653.095 373.056 653.37 373.056 653.721V663.038C373.056 663.359 372.949 663.618 372.736 663.817C372.522 664.015 372.239 664.114 371.888 664.114C371.568 664.114 371.309 664.023 371.11 663.84C370.912 663.641 370.813 663.382 370.813 663.061V662.191C370.461 662.832 369.973 663.321 369.347 663.657C368.737 663.992 368.05 664.16 367.287 664.16C364.57 664.16 363.212 662.665 363.212 659.673V653.721C363.212 653.37 363.311 653.095 363.51 652.897C363.723 652.699 364.013 652.599 364.38 652.599C364.731 652.599 365.005 652.699 365.204 652.897C365.417 653.095 365.524 653.37 365.524 653.721V659.65C365.524 660.551 365.707 661.215 366.074 661.642C366.44 662.069 367.005 662.283 367.768 662.283C368.668 662.283 369.386 661.993 369.92 661.413C370.469 660.833 370.744 660.062 370.744 659.101V653.721C370.744 653.385 370.851 653.118 371.064 652.92C371.278 652.706 371.56 652.599 371.911 652.599ZM381.992 662.352C382.328 662.382 382.564 662.474 382.702 662.626C382.854 662.764 382.931 662.962 382.931 663.222C382.931 663.527 382.808 663.763 382.564 663.931C382.335 664.084 381.992 664.145 381.534 664.114L380.916 664.069C379.68 663.977 378.756 663.603 378.146 662.947C377.535 662.275 377.23 661.291 377.23 659.994V654.614H375.857C375.185 654.614 374.849 654.316 374.849 653.721C374.849 653.446 374.933 653.233 375.101 653.08C375.284 652.912 375.536 652.828 375.857 652.828H377.23V650.47C377.23 650.119 377.329 649.845 377.528 649.646C377.741 649.448 378.024 649.349 378.375 649.349C378.726 649.349 379.008 649.448 379.222 649.646C379.436 649.845 379.542 650.119 379.542 650.47V652.828H381.809C382.129 652.828 382.374 652.912 382.541 653.08C382.725 653.233 382.816 653.446 382.816 653.721C382.816 654.011 382.725 654.232 382.541 654.385C382.374 654.538 382.129 654.614 381.809 654.614H379.542V660.154C379.542 660.871 379.687 661.398 379.977 661.734C380.283 662.069 380.74 662.26 381.351 662.306L381.992 662.352ZM388.712 664.16C387.155 664.16 385.881 663.84 384.889 663.199C384.614 663.031 384.416 662.855 384.294 662.672C384.187 662.489 384.133 662.283 384.133 662.054C384.133 661.81 384.202 661.604 384.339 661.436C384.477 661.268 384.652 661.184 384.866 661.184C385.064 661.184 385.377 661.306 385.805 661.55C386.262 661.795 386.705 661.993 387.132 662.146C387.575 662.298 388.124 662.375 388.781 662.375C389.513 662.375 390.086 662.245 390.498 661.985C390.91 661.726 391.116 661.36 391.116 660.887C391.116 660.581 391.032 660.337 390.864 660.154C390.711 659.971 390.437 659.811 390.04 659.673C389.643 659.521 389.055 659.36 388.277 659.192C386.934 658.903 385.965 658.513 385.37 658.025C384.79 657.521 384.5 656.842 384.5 655.987C384.5 655.331 384.69 654.744 385.072 654.225C385.453 653.691 385.98 653.278 386.652 652.988C387.323 652.699 388.086 652.554 388.941 652.554C389.551 652.554 390.147 652.637 390.727 652.805C391.306 652.958 391.818 653.187 392.26 653.492C392.764 653.828 393.016 654.217 393.016 654.66C393.016 654.904 392.939 655.11 392.787 655.278C392.65 655.446 392.482 655.53 392.283 655.53C392.146 655.53 392.009 655.499 391.871 655.438C391.734 655.377 391.551 655.278 391.322 655.14C390.91 654.896 390.52 654.705 390.154 654.568C389.803 654.431 389.361 654.362 388.826 654.362C388.185 654.362 387.666 654.499 387.27 654.774C386.888 655.049 386.697 655.423 386.697 655.896C386.697 656.323 386.873 656.659 387.224 656.903C387.59 657.132 388.269 657.353 389.261 657.567C390.284 657.781 391.085 658.025 391.665 658.3C392.245 658.574 392.657 658.918 392.901 659.33C393.161 659.727 393.291 660.238 393.291 660.864C393.291 661.856 392.871 662.657 392.031 663.267C391.207 663.863 390.101 664.16 388.712 664.16ZM400.878 664.16C399.794 664.16 398.84 663.924 398.016 663.451C397.207 662.977 396.574 662.306 396.116 661.436C395.673 660.566 395.452 659.559 395.452 658.414C395.452 657.254 395.681 656.232 396.139 655.346C396.612 654.461 397.268 653.774 398.108 653.286C398.947 652.798 399.909 652.554 400.992 652.554C401.572 652.554 402.152 652.637 402.732 652.805C403.327 652.973 403.854 653.202 404.312 653.492C404.8 653.828 405.044 654.217 405.044 654.66C405.044 654.919 404.976 655.14 404.838 655.324C404.701 655.491 404.525 655.575 404.312 655.575C404.174 655.575 404.037 655.545 403.9 655.484C403.762 655.408 403.587 655.301 403.373 655.163C402.992 654.919 402.633 654.736 402.297 654.614C401.977 654.477 401.587 654.408 401.13 654.408C400.092 654.408 399.283 654.759 398.703 655.461C398.138 656.163 397.856 657.14 397.856 658.391C397.856 659.643 398.138 660.612 398.703 661.299C399.268 661.97 400.069 662.306 401.107 662.306C401.565 662.306 401.969 662.237 402.32 662.1C402.671 661.963 403.03 661.779 403.396 661.55C403.564 661.444 403.732 661.352 403.9 661.276C404.067 661.199 404.22 661.161 404.357 661.161C404.571 661.161 404.747 661.253 404.884 661.436C405.021 661.604 405.09 661.818 405.09 662.077C405.09 662.291 405.029 662.489 404.907 662.672C404.8 662.84 404.609 663.016 404.335 663.199C403.877 663.504 403.343 663.741 402.732 663.908C402.122 664.076 401.503 664.16 400.878 664.16ZM413.432 652.554C416.088 652.554 417.416 654.057 417.416 657.063V663.016C417.416 663.351 417.309 663.618 417.095 663.817C416.881 664.015 416.599 664.114 416.248 664.114C415.897 664.114 415.615 664.015 415.401 663.817C415.203 663.618 415.103 663.351 415.103 663.016V657.086C415.103 656.171 414.913 655.499 414.531 655.072C414.165 654.644 413.585 654.431 412.791 654.431C411.86 654.431 411.112 654.721 410.548 655.301C409.983 655.881 409.701 656.659 409.701 657.636V663.016C409.701 663.351 409.594 663.618 409.38 663.817C409.182 664.015 408.907 664.114 408.556 664.114C408.205 664.114 407.923 664.015 407.709 663.817C407.495 663.618 407.388 663.351 407.388 663.016V648.845C407.388 648.509 407.495 648.242 407.709 648.044C407.938 647.845 408.228 647.746 408.579 647.746C408.915 647.746 409.182 647.845 409.38 648.044C409.594 648.227 409.701 648.479 409.701 648.799V654.522C410.082 653.881 410.593 653.393 411.234 653.057C411.875 652.721 412.608 652.554 413.432 652.554Z" fill="white"/>
<path opacity="0.4" d="M335.045 733C334.678 733 334.388 732.901 334.175 732.702C333.976 732.489 333.877 732.206 333.877 731.855V718.005C333.877 717.654 333.976 717.379 334.175 717.181C334.388 716.967 334.678 716.86 335.045 716.86H343.469C343.82 716.86 344.087 716.944 344.271 717.112C344.469 717.28 344.568 717.517 344.568 717.822C344.568 718.127 344.469 718.364 344.271 718.532C344.087 718.684 343.82 718.761 343.469 718.761H336.189V723.843H343.012C343.363 723.843 343.63 723.927 343.813 724.095C344.011 724.263 344.11 724.499 344.11 724.804C344.11 725.11 344.011 725.346 343.813 725.514C343.63 725.682 343.363 725.766 343.012 725.766H336.189V731.1H343.469C344.202 731.1 344.568 731.413 344.568 732.038C344.568 732.344 344.469 732.58 344.271 732.748C344.087 732.916 343.82 733 343.469 733H335.045ZM351.115 733.16C349.558 733.16 348.284 732.84 347.292 732.199C347.017 732.031 346.818 731.855 346.696 731.672C346.59 731.489 346.536 731.283 346.536 731.054C346.536 730.81 346.605 730.604 346.742 730.436C346.88 730.268 347.055 730.184 347.269 730.184C347.467 730.184 347.78 730.306 348.207 730.55C348.665 730.795 349.108 730.993 349.535 731.146C349.978 731.298 350.527 731.375 351.183 731.375C351.916 731.375 352.488 731.245 352.9 730.985C353.312 730.726 353.518 730.36 353.518 729.887C353.518 729.581 353.435 729.337 353.267 729.154C353.114 728.971 352.839 728.811 352.443 728.673C352.046 728.521 351.458 728.36 350.68 728.192C349.337 727.903 348.368 727.513 347.772 727.025C347.192 726.521 346.902 725.842 346.902 724.987C346.902 724.331 347.093 723.744 347.475 723.225C347.856 722.691 348.383 722.278 349.054 721.988C349.726 721.699 350.489 721.554 351.344 721.554C351.954 721.554 352.549 721.637 353.129 721.805C353.709 721.958 354.221 722.187 354.663 722.492C355.167 722.828 355.419 723.217 355.419 723.66C355.419 723.904 355.342 724.11 355.19 724.278C355.052 724.446 354.884 724.53 354.686 724.53C354.549 724.53 354.411 724.499 354.274 724.438C354.137 724.377 353.953 724.278 353.725 724.14C353.312 723.896 352.923 723.705 352.557 723.568C352.206 723.431 351.763 723.362 351.229 723.362C350.588 723.362 350.069 723.499 349.672 723.774C349.291 724.049 349.1 724.423 349.1 724.896C349.1 725.323 349.276 725.659 349.627 725.903C349.993 726.132 350.672 726.353 351.664 726.567C352.687 726.781 353.488 727.025 354.068 727.3C354.648 727.574 355.06 727.918 355.304 728.33C355.564 728.727 355.693 729.238 355.693 729.864C355.693 730.856 355.274 731.657 354.434 732.267C353.61 732.863 352.504 733.16 351.115 733.16ZM364.494 721.554C365.455 721.554 366.31 721.798 367.058 722.286C367.821 722.774 368.409 723.461 368.821 724.346C369.248 725.232 369.462 726.254 369.462 727.414C369.462 728.559 369.256 729.566 368.844 730.436C368.431 731.306 367.844 731.977 367.081 732.451C366.333 732.924 365.471 733.16 364.494 733.16C363.654 733.16 362.914 732.985 362.273 732.634C361.632 732.267 361.144 731.749 360.808 731.077V736.182C360.808 736.503 360.701 736.754 360.488 736.938C360.289 737.136 360.022 737.235 359.686 737.235C359.335 737.235 359.045 737.136 358.816 736.938C358.603 736.739 358.496 736.472 358.496 736.136V722.721C358.496 722.385 358.603 722.118 358.816 721.92C359.03 721.706 359.312 721.599 359.663 721.599C359.999 721.599 360.274 721.706 360.488 721.92C360.701 722.118 360.808 722.385 360.808 722.721V723.66C361.144 722.988 361.632 722.469 362.273 722.103C362.914 721.737 363.654 721.554 364.494 721.554ZM363.944 731.329C364.952 731.329 365.73 730.993 366.28 730.322C366.829 729.635 367.104 728.666 367.104 727.414C367.104 726.147 366.821 725.163 366.257 724.461C365.707 723.759 364.936 723.408 363.944 723.408C362.937 723.408 362.159 723.751 361.609 724.438C361.075 725.125 360.808 726.102 360.808 727.368C360.808 728.635 361.075 729.612 361.609 730.299C362.159 730.985 362.937 731.329 363.944 731.329ZM376.944 721.554C378.424 721.554 379.523 721.927 380.24 722.675C380.973 723.423 381.339 724.56 381.339 726.086V732.016C381.339 732.367 381.24 732.641 381.041 732.84C380.843 733.023 380.568 733.114 380.217 733.114C379.881 733.114 379.614 733.015 379.416 732.817C379.218 732.618 379.118 732.351 379.118 732.016V731.169C378.828 731.81 378.393 732.306 377.813 732.657C377.249 732.992 376.585 733.16 375.822 733.16C375.089 733.16 374.418 733.015 373.807 732.725C373.197 732.42 372.716 732 372.365 731.466C372.029 730.932 371.861 730.337 371.861 729.681C371.861 728.872 372.067 728.238 372.479 727.78C372.907 727.307 373.601 726.972 374.563 726.773C375.539 726.575 376.875 726.476 378.569 726.476H379.095V725.812C379.095 724.957 378.92 724.339 378.569 723.957C378.218 723.576 377.653 723.385 376.875 723.385C376.341 723.385 375.837 723.454 375.364 723.591C374.891 723.728 374.372 723.927 373.807 724.186C373.395 724.415 373.105 724.53 372.937 724.53C372.708 724.53 372.518 724.446 372.365 724.278C372.228 724.11 372.159 723.896 372.159 723.637C372.159 723.408 372.22 723.209 372.342 723.042C372.479 722.858 372.693 722.683 372.983 722.515C373.517 722.225 374.143 721.996 374.86 721.828C375.578 721.645 376.272 721.554 376.944 721.554ZM376.234 731.443C377.073 731.443 377.76 731.161 378.294 730.596C378.828 730.016 379.095 729.276 379.095 728.376V727.78H378.683C377.493 727.78 376.577 727.834 375.936 727.941C375.295 728.047 374.837 728.231 374.563 728.49C374.288 728.734 374.151 729.093 374.151 729.566C374.151 730.115 374.349 730.566 374.746 730.917C375.143 731.268 375.639 731.443 376.234 731.443ZM390.752 721.554C393.422 721.554 394.758 723.057 394.758 726.063V732.016C394.758 732.367 394.651 732.641 394.437 732.84C394.239 733.023 393.957 733.114 393.59 733.114C393.239 733.114 392.957 733.015 392.743 732.817C392.545 732.618 392.446 732.351 392.446 732.016V726.178C392.446 725.232 392.255 724.537 391.873 724.095C391.507 723.652 390.927 723.431 390.133 723.431C389.202 723.431 388.455 723.721 387.89 724.301C387.325 724.881 387.043 725.659 387.043 726.636V732.016C387.043 732.351 386.936 732.618 386.722 732.817C386.524 733.015 386.249 733.114 385.898 733.114C385.547 733.114 385.265 733.015 385.051 732.817C384.838 732.618 384.731 732.351 384.731 732.016V722.698C384.731 722.378 384.838 722.118 385.051 721.92C385.28 721.706 385.562 721.599 385.898 721.599C386.234 721.599 386.501 721.699 386.699 721.897C386.898 722.095 386.997 722.355 386.997 722.675V723.614C387.363 722.942 387.875 722.431 388.531 722.08C389.187 721.729 389.927 721.554 390.752 721.554ZM391.393 719.539C391.103 719.539 390.82 719.478 390.546 719.356C390.271 719.218 389.943 719.028 389.561 718.783C389.256 718.585 388.996 718.44 388.783 718.349C388.584 718.242 388.394 718.188 388.21 718.188C387.951 718.188 387.745 718.257 387.592 718.394C387.455 718.516 387.318 718.692 387.18 718.921C387.073 719.089 386.974 719.218 386.883 719.31C386.806 719.402 386.707 719.447 386.585 719.447C386.417 719.447 386.28 719.386 386.173 719.264C386.081 719.142 386.036 718.982 386.036 718.783C386.036 718.493 386.12 718.173 386.287 717.822C386.471 717.456 386.715 717.15 387.02 716.906C387.34 716.647 387.699 716.517 388.096 716.517C388.386 716.517 388.668 716.586 388.943 716.723C389.233 716.86 389.561 717.051 389.927 717.295C390.309 717.524 390.584 717.685 390.752 717.776C390.935 717.852 391.11 717.891 391.278 717.891C391.538 717.891 391.736 717.83 391.873 717.708C392.026 717.57 392.171 717.387 392.308 717.158C392.415 716.99 392.507 716.86 392.583 716.769C392.675 716.677 392.781 716.632 392.903 716.632C393.071 716.632 393.201 716.693 393.293 716.815C393.399 716.937 393.453 717.097 393.453 717.295C393.453 717.57 393.361 717.891 393.178 718.257C393.01 718.608 392.766 718.913 392.446 719.173C392.14 719.417 391.789 719.539 391.393 719.539ZM403.003 733.16C401.904 733.16 400.935 732.924 400.096 732.451C399.272 731.977 398.631 731.306 398.173 730.436C397.73 729.551 397.509 728.528 397.509 727.368C397.509 726.193 397.73 725.171 398.173 724.301C398.631 723.415 399.272 722.736 400.096 722.263C400.935 721.79 401.904 721.554 403.003 721.554C404.102 721.554 405.064 721.79 405.888 722.263C406.727 722.736 407.368 723.415 407.811 724.301C408.269 725.171 408.498 726.193 408.498 727.368C408.498 728.528 408.269 729.551 407.811 730.436C407.368 731.306 406.727 731.977 405.888 732.451C405.064 732.924 404.102 733.16 403.003 733.16ZM403.003 731.329C404.026 731.329 404.804 730.993 405.338 730.322C405.888 729.65 406.162 728.666 406.162 727.368C406.162 726.086 405.888 725.11 405.338 724.438C404.789 723.751 404.011 723.408 403.003 723.408C401.996 723.408 401.218 723.751 400.668 724.438C400.119 725.11 399.844 726.086 399.844 727.368C399.844 728.666 400.111 729.65 400.645 730.322C401.195 730.993 401.981 731.329 403.003 731.329ZM412.468 733.114C412.133 733.114 411.85 733.023 411.621 732.84C411.408 732.657 411.301 732.382 411.301 732.016V717.868C411.301 717.501 411.408 717.227 411.621 717.044C411.85 716.845 412.133 716.746 412.468 716.746C412.804 716.746 413.079 716.845 413.293 717.044C413.506 717.227 413.613 717.501 413.613 717.868V732.016C413.613 732.382 413.506 732.657 413.293 732.84C413.079 733.023 412.804 733.114 412.468 733.114Z" fill="white"/>
<path opacity="0.8" d="M126.896 650.214C127.155 650.459 127.285 650.726 127.285 651.016C127.285 651.306 127.171 651.557 126.942 651.771C126.728 651.985 126.476 652.092 126.186 652.092C125.896 652.092 125.629 651.969 125.385 651.725L117.235 644.377V650.924C117.235 651.29 117.128 651.58 116.915 651.794C116.716 652.008 116.426 652.114 116.045 652.114C115.694 652.114 115.411 652.008 115.198 651.794C114.984 651.58 114.877 651.29 114.877 650.924V636.936C114.877 636.585 114.984 636.303 115.198 636.089C115.411 635.86 115.694 635.746 116.045 635.746C116.411 635.746 116.701 635.853 116.915 636.067C117.128 636.28 117.235 636.57 117.235 636.936V643.209L125.042 636.089C125.255 635.876 125.507 635.769 125.797 635.769C126.087 635.769 126.339 635.876 126.553 636.089C126.766 636.303 126.873 636.547 126.873 636.822C126.873 637.112 126.743 637.379 126.484 637.623L119.662 643.713L126.896 650.214ZM144.095 641.309C144.262 640.851 144.575 640.622 145.033 640.622C145.323 640.622 145.583 640.721 145.812 640.92C146.04 641.118 146.155 641.362 146.155 641.652C146.155 641.805 146.124 641.942 146.063 642.064L142.263 651.336C142.172 651.58 142.019 651.771 141.805 651.908C141.592 652.031 141.355 652.092 141.096 652.092C140.851 652.092 140.622 652.031 140.409 651.908C140.195 651.771 140.042 651.58 139.951 651.336L136.975 643.987L134.067 651.336C133.976 651.58 133.823 651.771 133.61 651.908C133.411 652.031 133.182 652.092 132.923 652.092C132.679 652.092 132.442 652.031 132.213 651.908C131.999 651.771 131.839 651.58 131.732 651.336L127.955 642.064C127.894 641.942 127.863 641.813 127.863 641.675C127.863 641.37 127.986 641.118 128.23 640.92C128.489 640.721 128.772 640.622 129.077 640.622C129.535 640.622 129.847 640.844 130.015 641.286L132.969 649.093L135.99 641.355C136.082 641.111 136.227 640.927 136.425 640.805C136.624 640.683 136.837 640.622 137.066 640.622C137.28 640.622 137.486 640.683 137.685 640.805C137.883 640.927 138.028 641.111 138.119 641.355L141.141 649.047L144.095 641.309ZM153.042 640.554C154.523 640.554 155.621 640.927 156.339 641.675C157.071 642.423 157.438 643.56 157.438 645.086V651.016C157.438 651.367 157.338 651.641 157.14 651.84C156.942 652.023 156.667 652.114 156.316 652.114C155.98 652.114 155.713 652.015 155.515 651.817C155.316 651.618 155.217 651.351 155.217 651.016V650.169C154.927 650.81 154.492 651.306 153.912 651.657C153.347 651.992 152.683 652.16 151.92 652.16C151.188 652.16 150.516 652.015 149.906 651.725C149.295 651.42 148.815 651 148.464 650.466C148.128 649.932 147.96 649.337 147.96 648.681C147.96 647.872 148.166 647.238 148.578 646.78C149.005 646.307 149.7 645.972 150.661 645.773C151.638 645.575 152.973 645.476 154.668 645.476H155.194V644.812C155.194 643.957 155.019 643.339 154.668 642.957C154.316 642.576 153.752 642.385 152.973 642.385C152.439 642.385 151.936 642.454 151.462 642.591C150.989 642.728 150.47 642.927 149.906 643.186C149.494 643.415 149.204 643.53 149.036 643.53C148.807 643.53 148.616 643.446 148.464 643.278C148.326 643.11 148.257 642.896 148.257 642.637C148.257 642.408 148.319 642.209 148.441 642.042C148.578 641.858 148.792 641.683 149.082 641.515C149.616 641.225 150.242 640.996 150.959 640.828C151.676 640.645 152.371 640.554 153.042 640.554ZM152.332 650.443C153.172 650.443 153.859 650.161 154.393 649.596C154.927 649.016 155.194 648.276 155.194 647.376V646.78H154.782C153.592 646.78 152.676 646.834 152.035 646.941C151.394 647.047 150.936 647.231 150.661 647.49C150.387 647.734 150.249 648.093 150.249 648.566C150.249 649.115 150.448 649.566 150.844 649.917C151.241 650.268 151.737 650.443 152.332 650.443ZM161.997 652.114C161.661 652.114 161.379 652.023 161.15 651.84C160.936 651.657 160.829 651.382 160.829 651.016V636.868C160.829 636.501 160.936 636.227 161.15 636.044C161.379 635.845 161.661 635.746 161.997 635.746C162.333 635.746 162.607 635.845 162.821 636.044C163.035 636.227 163.141 636.501 163.141 636.868V651.016C163.141 651.382 163.035 651.657 162.821 651.84C162.607 652.023 162.333 652.114 161.997 652.114ZM167.77 652.114C167.434 652.114 167.152 652.023 166.923 651.84C166.709 651.657 166.603 651.382 166.603 651.016V641.721C166.603 641.355 166.709 641.08 166.923 640.897C167.152 640.699 167.434 640.599 167.77 640.599C168.106 640.599 168.381 640.699 168.594 640.897C168.808 641.08 168.915 641.355 168.915 641.721V651.016C168.915 651.382 168.808 651.657 168.594 651.84C168.381 652.023 168.106 652.114 167.77 652.114ZM167.77 638.356C167.328 638.356 166.977 638.234 166.717 637.99C166.458 637.745 166.328 637.425 166.328 637.028C166.328 636.631 166.458 636.318 166.717 636.089C166.977 635.845 167.328 635.723 167.77 635.723C168.197 635.723 168.541 635.845 168.8 636.089C169.075 636.318 169.212 636.631 169.212 637.028C169.212 637.425 169.083 637.745 168.823 637.99C168.564 638.234 168.213 638.356 167.77 638.356ZM177.847 650.352C178.183 650.382 178.42 650.474 178.557 650.626C178.71 650.764 178.786 650.962 178.786 651.222C178.786 651.527 178.664 651.763 178.42 651.931C178.191 652.084 177.847 652.145 177.389 652.114L176.771 652.069C175.535 651.977 174.612 651.603 174.001 650.947C173.391 650.275 173.086 649.291 173.086 647.994V642.614H171.712C171.04 642.614 170.705 642.316 170.705 641.721C170.705 641.446 170.789 641.233 170.957 641.08C171.14 640.912 171.392 640.828 171.712 640.828H173.086V638.47C173.086 638.119 173.185 637.845 173.383 637.646C173.597 637.448 173.879 637.349 174.23 637.349C174.581 637.349 174.864 637.448 175.077 637.646C175.291 637.845 175.398 638.119 175.398 638.47V640.828H177.664C177.985 640.828 178.229 640.912 178.397 641.08C178.58 641.233 178.671 641.446 178.671 641.721C178.671 642.011 178.58 642.232 178.397 642.385C178.229 642.538 177.985 642.614 177.664 642.614H175.398V648.154C175.398 648.871 175.543 649.398 175.833 649.734C176.138 650.069 176.596 650.26 177.206 650.306L177.847 650.352ZM189.421 649.184C189.634 649.184 189.81 649.268 189.947 649.436C190.085 649.604 190.153 649.818 190.153 650.077C190.153 650.52 189.878 650.894 189.329 651.199C188.795 651.504 188.207 651.741 187.566 651.908C186.941 652.076 186.338 652.16 185.758 652.16C183.987 652.16 182.591 651.649 181.568 650.626C180.546 649.589 180.035 648.177 180.035 646.391C180.035 645.247 180.256 644.232 180.698 643.346C181.156 642.461 181.79 641.774 182.599 641.286C183.423 640.798 184.354 640.554 185.391 640.554C186.887 640.554 188.07 641.034 188.94 641.996C189.81 642.957 190.245 644.255 190.245 645.888C190.245 646.498 189.97 646.803 189.421 646.803H182.347C182.499 649.169 183.636 650.352 185.758 650.352C186.322 650.352 186.811 650.275 187.223 650.123C187.635 649.97 188.07 649.772 188.528 649.528C188.574 649.497 188.696 649.436 188.894 649.344C189.108 649.238 189.283 649.184 189.421 649.184ZM185.437 642.248C184.552 642.248 183.842 642.53 183.308 643.095C182.774 643.659 182.454 644.453 182.347 645.476H188.253C188.207 644.438 187.94 643.644 187.452 643.095C186.979 642.53 186.307 642.248 185.437 642.248ZM194.189 652.114C193.853 652.114 193.571 652.023 193.342 651.84C193.128 651.657 193.022 651.382 193.022 651.016V641.721C193.022 641.355 193.128 641.08 193.342 640.897C193.571 640.699 193.853 640.599 194.189 640.599C194.525 640.599 194.8 640.699 195.013 640.897C195.227 641.08 195.334 641.355 195.334 641.721V651.016C195.334 651.382 195.227 651.657 195.013 651.84C194.8 652.023 194.525 652.114 194.189 652.114ZM194.189 638.356C193.747 638.356 193.396 638.234 193.136 637.99C192.877 637.745 192.747 637.425 192.747 637.028C192.747 636.631 192.877 636.318 193.136 636.089C193.396 635.845 193.747 635.723 194.189 635.723C194.616 635.723 194.96 635.845 195.219 636.089C195.494 636.318 195.631 636.631 195.631 637.028C195.631 637.425 195.502 637.745 195.242 637.99C194.983 638.234 194.632 638.356 194.189 638.356ZM204.266 650.352C204.602 650.382 204.839 650.474 204.976 650.626C205.129 650.764 205.205 650.962 205.205 651.222C205.205 651.527 205.083 651.763 204.839 651.931C204.61 652.084 204.266 652.145 203.808 652.114L203.19 652.069C201.954 651.977 201.031 651.603 200.42 650.947C199.81 650.275 199.505 649.291 199.505 647.994V642.614H198.131C197.459 642.614 197.124 642.316 197.124 641.721C197.124 641.446 197.208 641.233 197.376 641.08C197.559 640.912 197.811 640.828 198.131 640.828H199.505V638.47C199.505 638.119 199.604 637.845 199.802 637.646C200.016 637.448 200.298 637.349 200.649 637.349C201 637.349 201.283 637.448 201.496 637.646C201.71 637.845 201.817 638.119 201.817 638.47V640.828H204.083C204.404 640.828 204.648 640.912 204.816 641.08C204.999 641.233 205.09 641.446 205.09 641.721C205.09 642.011 204.999 642.232 204.816 642.385C204.648 642.538 204.404 642.614 204.083 642.614H201.817V648.154C201.817 648.871 201.962 649.398 202.252 649.734C202.557 650.069 203.015 650.26 203.625 650.306L204.266 650.352Z" fill="white"/>
<path opacity="0.6" d="M120.211 721.183C119.051 721.183 117.945 721.023 116.892 720.702C115.854 720.382 115.022 719.939 114.396 719.375C114.106 719.13 113.962 718.818 113.962 718.436C113.962 718.161 114.038 717.932 114.19 717.749C114.343 717.551 114.526 717.452 114.74 717.452C114.954 717.452 115.213 717.551 115.518 717.749C116.877 718.756 118.426 719.26 120.165 719.26C121.386 719.26 122.325 719.031 122.981 718.573C123.638 718.115 123.966 717.459 123.966 716.605C123.966 715.933 123.66 715.429 123.05 715.094C122.44 714.758 121.463 714.437 120.12 714.132C118.838 713.857 117.785 713.545 116.96 713.194C116.136 712.842 115.488 712.369 115.015 711.774C114.557 711.164 114.328 710.393 114.328 709.462C114.328 708.531 114.58 707.707 115.083 706.99C115.602 706.257 116.319 705.692 117.235 705.295C118.151 704.883 119.196 704.677 120.372 704.677C121.455 704.677 122.455 704.83 123.371 705.135C124.286 705.44 125.065 705.891 125.706 706.486C126.011 706.745 126.163 707.058 126.163 707.424C126.163 707.684 126.08 707.913 125.912 708.111C125.759 708.31 125.576 708.409 125.362 708.409C125.164 708.409 124.912 708.31 124.607 708.111C123.905 707.577 123.241 707.196 122.615 706.967C122.005 706.722 121.264 706.6 120.394 706.6C119.219 706.6 118.304 706.845 117.647 707.333C116.991 707.806 116.663 708.47 116.663 709.325C116.663 710.057 116.953 710.614 117.533 710.996C118.113 711.362 119.044 711.698 120.326 712.003C121.669 712.308 122.752 712.629 123.577 712.965C124.416 713.285 125.08 713.735 125.568 714.315C126.072 714.88 126.324 715.613 126.324 716.513C126.324 717.429 126.064 718.245 125.545 718.963C125.042 719.665 124.324 720.214 123.393 720.611C122.478 720.992 121.417 721.183 120.211 721.183ZM135.205 709.554C137.876 709.554 139.211 711.057 139.211 714.063V720.016C139.211 720.367 139.105 720.641 138.891 720.84C138.692 721.023 138.41 721.114 138.044 721.114C137.693 721.114 137.41 721.015 137.197 720.817C136.998 720.618 136.899 720.351 136.899 720.016V714.178C136.899 713.232 136.708 712.537 136.327 712.095C135.961 711.652 135.381 711.431 134.587 711.431C133.656 711.431 132.908 711.721 132.343 712.301C131.779 712.881 131.496 713.659 131.496 714.636V720.016C131.496 720.351 131.39 720.618 131.176 720.817C130.978 721.015 130.703 721.114 130.352 721.114C130.001 721.114 129.718 721.015 129.505 720.817C129.291 720.618 129.184 720.351 129.184 720.016V710.698C129.184 710.378 129.291 710.118 129.505 709.92C129.734 709.706 130.016 709.599 130.352 709.599C130.688 709.599 130.955 709.699 131.153 709.897C131.351 710.095 131.451 710.355 131.451 710.675V711.614C131.817 710.942 132.328 710.431 132.984 710.08C133.641 709.729 134.381 709.554 135.205 709.554ZM151.349 718.184C151.562 718.184 151.738 718.268 151.875 718.436C152.012 718.604 152.081 718.818 152.081 719.077C152.081 719.52 151.806 719.894 151.257 720.199C150.723 720.504 150.135 720.741 149.494 720.908C148.868 721.076 148.266 721.16 147.686 721.16C145.915 721.16 144.519 720.649 143.496 719.626C142.474 718.589 141.962 717.177 141.962 715.391C141.962 714.247 142.184 713.232 142.626 712.346C143.084 711.461 143.718 710.774 144.526 710.286C145.351 709.798 146.282 709.554 147.319 709.554C148.815 709.554 149.998 710.034 150.868 710.996C151.738 711.957 152.173 713.255 152.173 714.888C152.173 715.498 151.898 715.803 151.349 715.803H144.275C144.427 718.169 145.564 719.352 147.686 719.352C148.25 719.352 148.739 719.275 149.151 719.123C149.563 718.97 149.998 718.772 150.456 718.528C150.502 718.497 150.624 718.436 150.822 718.344C151.036 718.238 151.211 718.184 151.349 718.184ZM147.365 711.248C146.48 711.248 145.77 711.53 145.236 712.095C144.702 712.659 144.381 713.453 144.275 714.476H150.181C150.135 713.438 149.868 712.644 149.38 712.095C148.907 711.53 148.235 711.248 147.365 711.248ZM156.117 721.114C155.781 721.114 155.499 721.023 155.27 720.84C155.056 720.657 154.95 720.382 154.95 720.016V705.868C154.95 705.501 155.056 705.227 155.27 705.044C155.499 704.845 155.781 704.746 156.117 704.746C156.453 704.746 156.728 704.845 156.941 705.044C157.155 705.227 157.262 705.501 157.262 705.868V720.016C157.262 720.382 157.155 720.657 156.941 720.84C156.728 721.023 156.453 721.114 156.117 721.114ZM166.767 709.554C169.422 709.554 170.75 711.057 170.75 714.063V720.016C170.75 720.351 170.643 720.618 170.429 720.817C170.216 721.015 169.933 721.114 169.582 721.114C169.231 721.114 168.949 721.015 168.735 720.817C168.537 720.618 168.438 720.351 168.438 720.016V714.086C168.438 713.171 168.247 712.499 167.865 712.072C167.499 711.644 166.919 711.431 166.126 711.431C165.195 711.431 164.447 711.721 163.882 712.301C163.317 712.881 163.035 713.659 163.035 714.636V720.016C163.035 720.351 162.928 720.618 162.715 720.817C162.516 721.015 162.241 721.114 161.89 721.114C161.539 721.114 161.257 721.015 161.043 720.817C160.83 720.618 160.723 720.351 160.723 720.016V705.845C160.723 705.509 160.83 705.242 161.043 705.044C161.272 704.845 161.562 704.746 161.913 704.746C162.249 704.746 162.516 704.845 162.715 705.044C162.928 705.227 163.035 705.479 163.035 705.799V711.522C163.417 710.881 163.928 710.393 164.569 710.057C165.21 709.721 165.942 709.554 166.767 709.554ZM182.887 718.184C183.101 718.184 183.276 718.268 183.414 718.436C183.551 718.604 183.62 718.818 183.62 719.077C183.62 719.52 183.345 719.894 182.796 720.199C182.261 720.504 181.674 720.741 181.033 720.908C180.407 721.076 179.804 721.16 179.224 721.16C177.454 721.16 176.057 720.649 175.035 719.626C174.012 718.589 173.501 717.177 173.501 715.391C173.501 714.247 173.722 713.232 174.165 712.346C174.623 711.461 175.256 710.774 176.065 710.286C176.889 709.798 177.82 709.554 178.858 709.554C180.354 709.554 181.536 710.034 182.406 710.996C183.276 711.957 183.711 713.255 183.711 714.888C183.711 715.498 183.437 715.803 182.887 715.803H175.813C175.966 718.169 177.103 719.352 179.224 719.352C179.789 719.352 180.277 719.275 180.689 719.123C181.102 718.97 181.536 718.772 181.994 718.528C182.04 718.497 182.162 718.436 182.361 718.344C182.574 718.238 182.75 718.184 182.887 718.184ZM178.904 711.248C178.019 711.248 177.309 711.53 176.775 712.095C176.241 712.659 175.92 713.453 175.813 714.476H181.72C181.674 713.438 181.407 712.644 180.918 712.095C180.445 711.53 179.774 711.248 178.904 711.248ZM187.656 721.114C187.32 721.114 187.038 721.023 186.809 720.84C186.595 720.657 186.488 720.382 186.488 720.016V710.721C186.488 710.355 186.595 710.08 186.809 709.897C187.038 709.699 187.32 709.599 187.656 709.599C187.991 709.599 188.266 709.699 188.48 709.897C188.694 710.08 188.8 710.355 188.8 710.721V720.016C188.8 720.382 188.694 720.657 188.48 720.84C188.266 721.023 187.991 721.114 187.656 721.114ZM187.656 707.356C187.213 707.356 186.862 707.234 186.603 706.99C186.343 706.745 186.213 706.425 186.213 706.028C186.213 705.631 186.343 705.318 186.603 705.089C186.862 704.845 187.213 704.723 187.656 704.723C188.083 704.723 188.426 704.845 188.686 705.089C188.961 705.318 189.098 705.631 189.098 706.028C189.098 706.425 188.968 706.745 188.709 706.99C188.449 707.234 188.098 707.356 187.656 707.356ZM201.396 704.746C201.747 704.746 202.029 704.845 202.243 705.044C202.456 705.242 202.563 705.509 202.563 705.845V719.993C202.563 720.344 202.456 720.618 202.243 720.817C202.044 721.015 201.77 721.114 201.419 721.114C201.068 721.114 200.785 721.015 200.572 720.817C200.373 720.618 200.274 720.344 200.274 719.993V719.077C199.938 719.749 199.45 720.267 198.809 720.634C198.168 720.985 197.428 721.16 196.588 721.16C195.627 721.16 194.764 720.916 194.001 720.428C193.254 719.939 192.666 719.253 192.239 718.367C191.827 717.482 191.62 716.467 191.62 715.323C191.62 714.163 191.827 713.148 192.239 712.278C192.666 711.408 193.254 710.736 194.001 710.263C194.749 709.79 195.611 709.554 196.588 709.554C197.428 709.554 198.16 709.737 198.786 710.103C199.427 710.454 199.915 710.958 200.251 711.614V705.799C200.251 705.479 200.35 705.227 200.549 705.044C200.762 704.845 201.045 704.746 201.396 704.746ZM197.138 719.329C198.13 719.329 198.9 718.985 199.45 718.299C199.999 717.612 200.274 716.635 200.274 715.368C200.274 714.102 199.999 713.125 199.45 712.438C198.916 711.751 198.145 711.408 197.138 711.408C196.13 711.408 195.344 711.751 194.78 712.438C194.23 713.11 193.956 714.071 193.956 715.323C193.956 716.574 194.238 717.558 194.803 718.276C195.367 718.978 196.146 719.329 197.138 719.329Z" fill="white"/>
<path d="M282.736 610.42L285.707 607.106L289.019 612.915L289.019 612.916C289.397 613.577 290.022 614.062 290.757 614.263C291.492 614.463 292.276 614.364 292.938 613.986C293.599 613.608 294.084 612.983 294.285 612.248C294.485 611.514 294.386 610.729 294.008 610.068C294.008 610.068 294.008 610.068 294.008 610.068C294.008 610.068 294.008 610.068 294.008 610.068L290.695 604.258L295.063 603.389L295.064 603.389C295.607 603.28 296.106 603.017 296.503 602.631C296.899 602.245 297.176 601.753 297.299 601.214C297.423 600.675 297.388 600.112 297.199 599.592C297.01 599.072 296.675 598.618 296.234 598.284L296.234 598.283L280.028 586.027C280.028 586.027 280.028 586.027 280.028 586.027C279.579 585.688 279.041 585.488 278.48 585.451C277.919 585.415 277.36 585.544 276.872 585.823C276.383 586.101 275.988 586.517 275.733 587.018C275.479 587.52 275.378 588.085 275.441 588.643C275.441 588.643 275.441 588.643 275.441 588.643L277.743 608.831L277.743 608.831C277.806 609.382 278.026 609.902 278.378 610.329C278.73 610.757 279.198 611.074 279.725 611.242C280.253 611.41 280.818 611.421 281.352 611.276L281.093 610.325L281.352 611.276C281.886 611.13 282.367 610.833 282.736 610.421C282.736 610.421 282.736 610.421 282.736 610.42Z" fill="#101228" stroke="white" stroke-width="1.97092"/>
</svg>
