<svg width="979" height="652" viewBox="0 0 979 652" fill="none" xmlns="http://www.w3.org/2000/svg">
<rect x="48" y="49" width="882" height="525" rx="20" fill="white" stroke="#2B4FEB" stroke-width="16"/>
<path d="M489.793 576V613H443H535" stroke="#2B4FEB" stroke-width="16" stroke-linecap="round" stroke-linejoin="round"/>
<path d="M275.594 292.482C275.775 293.808 275.76 294.869 275.55 295.665C275.049 297.555 273.831 298.937 271.896 299.808C270.061 300.706 268.199 300.905 266.308 300.404C265.015 300.061 263.863 299.384 262.854 298.371C261.97 297.285 261.415 295.966 261.187 294.415L257.268 269.419L202.645 254.947L186.864 274.724C185.898 275.959 184.712 276.816 183.307 277.296C181.929 277.676 180.593 277.695 179.299 277.352C177.31 276.825 175.69 275.704 174.441 273.988C173.291 272.3 172.967 270.51 173.467 268.62C173.678 267.824 174.191 266.895 175.004 265.832L241.487 184.9C242.605 183.492 244.029 182.539 245.759 182.039C247.588 181.565 249.348 181.552 251.04 182C252.731 182.448 254.205 183.318 255.46 184.609C256.814 185.926 257.629 187.473 257.904 189.249L275.594 292.482ZM211.409 244.173L255.137 255.758L246.286 200.546L211.409 244.173Z" fill="black"/>
<path d="M372.076 406.374C376.831 408.456 380.524 411.446 383.156 415.344C385.788 419.242 387.179 423.747 387.331 428.861C387.556 434.007 386.432 439.403 383.959 445.05C381.519 450.622 378.315 455.108 374.347 458.506C370.454 461.936 366.129 464.027 361.373 464.778C356.691 465.561 352.01 464.927 347.329 462.877C343.243 461.087 340.013 458.655 337.641 455.579C335.302 452.429 334.031 448.862 333.828 444.877L331.875 449.335C331.159 450.969 330.054 452.079 328.558 452.664C327.169 453.206 325.62 453.104 323.911 452.355C322.202 451.607 321.039 450.522 320.422 449.1C319.838 447.605 319.903 446.04 320.619 444.405L350.784 375.531C351.5 373.897 352.589 372.824 354.053 372.314C355.59 371.836 357.213 371.971 358.922 372.72C360.557 373.436 361.645 374.488 362.188 375.877C362.838 377.224 362.821 378.678 362.138 380.238L349.642 408.768C352.709 406.215 356.192 404.73 360.094 404.314C363.995 403.897 367.989 404.584 372.076 406.374ZM348.559 452.79C353.388 454.905 357.889 454.839 362.06 452.593C366.306 450.38 369.78 446.189 372.48 440.023C375.149 433.93 375.861 428.664 374.618 424.223C373.408 419.708 370.351 416.377 365.447 414.229C360.544 412.082 356.022 412.094 351.883 414.266C347.819 416.47 344.436 420.656 341.735 426.823C339.034 432.989 338.252 438.314 339.388 442.796C340.598 447.311 343.655 450.642 348.559 452.79Z" fill="#2B4FEB"/>
<path d="M665.64 189.406C667.482 189.706 668.878 190.468 669.829 191.691C670.78 192.915 671.112 194.407 670.826 196.168L658.734 270.38C658.434 272.221 657.638 273.571 656.348 274.429C655.138 275.3 653.612 275.585 651.771 275.285C649.93 274.985 648.533 274.224 647.582 273C646.711 271.79 646.425 270.264 646.725 268.423L647.508 263.62C645.173 266.855 642.168 269.16 638.492 270.533C634.83 271.826 630.797 272.114 626.394 271.397C621.351 270.575 617.036 268.557 613.451 265.343C609.946 262.142 607.45 258.038 605.965 253.029C604.56 248.034 604.347 242.534 605.325 236.53C606.317 230.446 608.265 225.298 611.17 221.087C614.155 216.889 617.811 213.869 622.138 212.027C626.465 210.184 631.191 209.68 636.314 210.515C640.717 211.232 644.403 212.819 647.373 215.275C650.435 217.664 652.566 220.724 653.766 224.453L658.736 193.952C659.01 192.271 659.746 191.035 660.943 190.243C662.233 189.385 663.799 189.106 665.64 189.406ZM630.841 262.26C636.045 263.108 640.381 261.965 643.85 258.832C647.319 255.7 649.595 250.811 650.678 244.166C651.76 237.522 651.154 232.163 648.859 228.091C646.644 224.032 642.895 221.572 637.611 220.711C632.328 219.85 627.911 220.98 624.362 224.1C620.906 227.153 618.644 231.961 617.574 238.526C616.504 245.09 617.144 250.495 619.493 254.74C621.855 258.906 625.638 261.412 630.841 262.26Z" fill="black"/>
<path d="M795.973 162.935C797.205 163.792 797.947 164.845 798.199 166.093C798.451 167.341 798.19 168.548 797.415 169.715C796.678 170.826 795.685 171.508 794.437 171.76C793.189 172.012 791.921 171.691 790.634 170.797L779.66 162.912L772.678 174.425C771.839 175.749 770.795 176.537 769.547 176.789C768.253 177.051 767.028 176.817 765.87 176.089C764.75 175.305 764.059 174.266 763.797 172.972C763.554 171.77 763.834 170.535 764.636 169.267L772.02 157.6L761.45 150.283C760.218 149.425 759.481 148.396 759.238 147.194C758.976 145.9 759.214 144.697 759.952 143.586C760.736 142.465 761.752 141.779 763 141.527C764.294 141.265 765.585 141.582 766.872 142.476L776.984 149.67L783.58 139.1C784.419 137.776 785.486 136.984 786.78 136.722C788.028 136.47 789.207 136.713 790.319 137.45C791.476 138.178 792.185 139.19 792.447 140.484C792.69 141.686 792.41 142.921 791.608 144.189L784.638 155.051L795.973 162.935Z" fill="#21CEA1"/>
<path d="M192.423 399.494C194.294 398.99 195.802 399.087 196.946 399.787C198.089 400.486 198.972 401.726 199.594 403.506L199.991 404.641L195.317 406.275C192.29 407.333 191.22 409.13 192.107 411.668C192.978 414.16 194.927 414.878 197.954 413.82L202.628 412.186L209.909 433.019C210.453 434.577 211.355 435.585 212.615 436.044C213.829 436.519 215.149 436.507 216.573 436.009C218.042 435.496 219.126 434.668 219.826 433.524C220.48 432.396 220.536 431.053 219.991 429.495L212.71 408.663L215.381 407.729C218.363 406.687 219.419 404.919 218.548 402.427C217.661 399.889 215.727 399.142 212.744 400.184L210.073 401.118C208.58 396.844 206.226 393.896 203.011 392.272C199.796 390.648 196.064 390.404 191.815 391.539L190.033 392.013L188.807 392.366C185.736 393.439 184.613 395.156 185.437 397.515C186.246 399.83 187.98 400.647 190.64 399.967L192.423 399.494Z" fill="#21CEA1"/>
<path d="M538.585 321.526C551.453 322.923 562.442 326.924 571.552 333.529C580.537 340.12 587.054 348.869 591.103 359.774C595.152 370.68 596.423 383.071 594.917 396.947C593.41 410.823 589.516 422.59 583.235 432.246C576.94 442.029 568.698 449.175 558.508 453.685C548.192 458.181 536.6 459.73 523.733 458.333C515.407 457.429 507.723 455.319 500.681 452.002C493.624 448.81 487.511 444.573 482.341 439.289C480.838 437.85 479.847 436.402 479.366 434.946C478.886 433.49 478.756 431.752 478.975 429.734C479.276 426.959 480.287 424.707 482.006 422.979C483.725 421.252 485.657 420.504 487.801 420.737C490.324 421.011 492.814 422.174 495.272 424.228C500.258 428.854 505.003 432.177 509.506 434.197C513.995 436.344 519.078 437.725 524.755 438.342C537.874 439.766 548.285 436.748 555.987 429.288C563.563 421.814 568.214 410.13 569.94 394.235C571.679 378.215 569.651 365.741 563.855 356.816C557.933 347.877 548.413 342.695 535.293 341.271C529.869 340.682 524.797 340.961 520.078 342.108C515.232 343.241 509.696 345.448 503.468 348.729C502.125 349.349 500.795 349.842 499.478 350.21C498.162 350.578 496.81 350.686 495.423 350.535C493.278 350.303 491.552 349.158 490.243 347.101C488.935 345.045 488.431 342.629 488.733 339.854C488.938 337.961 489.438 336.293 490.233 334.847C491.015 333.528 492.294 332.327 494.071 331.244C500.254 327.192 507.141 324.302 514.732 322.574C522.308 320.971 530.26 320.622 538.585 321.526Z" fill="black"/>
<path d="M710.868 411.476C718.598 408.528 725.533 407.707 731.673 409.011C733.356 409.325 734.673 409.82 735.626 410.499C736.504 411.206 737.159 412.128 737.592 413.265C738.055 414.477 738.104 415.63 737.74 416.724C737.376 417.818 736.663 418.567 735.602 418.972C734.617 419.348 732.832 419.334 730.247 418.93C727.511 418.585 724.938 418.438 722.527 418.489C720.04 418.569 717.167 419.231 713.908 420.473C710.27 421.86 707.674 423.588 706.119 425.657C704.564 427.726 704.234 429.935 705.13 432.284C705.708 433.8 706.588 434.854 707.768 435.445C708.873 436.066 710.54 436.341 712.771 436.272C715.03 436.278 718.252 435.962 722.435 435.321C729.653 434.218 735.203 434.315 739.083 435.614C742.917 437.016 745.643 439.84 747.261 444.084C748.504 447.343 748.669 450.622 747.757 453.921C746.874 457.296 745.04 460.34 742.254 463.051C739.469 465.763 735.954 467.928 731.71 469.546C728.678 470.702 725.563 471.412 722.366 471.677C719.197 472.017 716.224 471.849 713.448 471.171C710.312 470.457 708.324 469.002 707.486 466.804C707.024 465.591 707.012 464.424 707.452 463.301C707.817 462.207 708.491 461.472 709.477 461.097C710.159 460.837 710.899 460.728 711.696 460.771C712.494 460.814 713.591 460.96 714.988 461.209C717.497 461.641 719.791 461.851 721.87 461.84C723.873 461.857 726.201 461.36 728.853 460.349C732.036 459.135 734.353 457.47 735.803 455.354C737.178 453.268 737.417 451.05 736.521 448.7C735.712 446.578 734.205 445.243 731.999 444.695C729.747 444.252 725.955 444.439 720.624 445.257C715.142 446.132 710.701 446.437 707.301 446.171C703.9 445.905 701.204 444.98 699.211 443.396C697.171 441.917 695.559 439.624 694.374 436.516C692.495 431.59 693.062 426.816 696.075 422.195C699.04 417.679 703.971 414.106 710.868 411.476Z" fill="#2B4FEB"/>
<path d="M422.77 194.065C414.937 194.801 409.309 197.325 405.885 201.639C402.38 205.96 401.007 212.159 401.766 220.234L404.713 251.608C404.887 253.465 405.549 254.869 406.697 255.82C407.838 256.691 409.337 257.039 411.195 256.864C412.971 256.698 414.335 256.04 415.286 254.891C416.238 253.743 416.63 252.28 416.463 250.504L416.042 246.022C417.895 249.27 420.443 251.678 423.686 253.247C426.841 254.743 430.437 255.301 434.475 254.922C438.351 254.558 441.832 253.457 444.919 251.619C447.997 249.701 450.332 247.241 451.924 244.24C453.435 241.247 454.028 238.014 453.701 234.541C453.299 230.261 451.894 227.012 449.486 224.794C446.99 222.503 443.149 221.072 437.963 220.5C432.696 219.936 425.58 220.074 416.616 220.916L413.83 221.178L413.5 217.665C413.075 213.143 413.697 209.785 415.365 207.592C417.032 205.398 419.926 204.108 424.044 203.721C426.871 203.456 429.57 203.569 432.141 204.061C434.713 204.552 437.557 205.344 440.674 206.436C442.968 207.443 444.56 207.904 445.448 207.821C446.659 207.707 447.627 207.168 448.351 206.204C448.994 205.247 449.252 204.083 449.123 202.71C449.009 201.499 448.587 200.479 447.858 199.651C447.04 198.751 445.822 197.928 444.204 197.184C441.234 195.915 437.809 195.015 433.93 194.483C430.044 193.871 426.324 193.731 422.77 194.065ZM431.441 246.042C427 246.459 423.225 245.306 420.118 242.584C417.003 239.781 415.222 235.997 414.775 231.232L414.479 228.083L416.659 227.878C422.958 227.286 427.83 227.114 431.275 227.36C434.72 227.607 437.233 228.349 438.816 229.585C440.391 230.74 441.296 232.57 441.531 235.073C441.804 237.981 440.978 240.461 439.053 242.516C437.128 244.571 434.591 245.746 431.441 246.042Z" fill="black"/>
<path d="M550.863 140.256C549.385 139.86 548.045 139.933 546.844 140.476C545.688 141.03 544.9 142.09 544.48 143.658L537.91 168.176C537.49 169.744 537.665 171.063 538.434 172.133C539.203 173.203 540.304 173.93 541.737 174.314C543.17 174.698 544.465 174.613 545.621 174.059C546.823 173.516 547.633 172.462 548.053 170.894L554.623 146.376C555.043 144.808 554.868 143.49 554.099 142.419C553.375 141.361 552.296 140.64 550.863 140.256ZM540.297 179.688C538.506 179.208 536.975 179.278 535.705 179.897C534.423 180.562 533.572 181.678 533.152 183.245C532.732 184.812 532.917 186.182 533.707 187.354C534.497 188.525 535.788 189.351 537.579 189.831C539.326 190.299 540.84 190.201 542.122 189.536C543.437 188.929 544.298 187.864 544.706 186.341C545.126 184.773 544.947 183.382 544.169 182.165C543.379 180.993 542.089 180.168 540.297 179.688Z" fill="#2B4FEB"/>
<path d="M810.903 277.167C818.771 277.167 824.611 279.154 828.423 283.128C832.316 287.103 834.263 293.146 834.263 301.257V332.768C834.263 334.634 833.736 336.094 832.681 337.148C831.627 338.122 830.167 338.608 828.301 338.608C826.517 338.608 825.098 338.081 824.043 337.027C822.989 335.972 822.461 334.553 822.461 332.768V328.267C820.92 331.673 818.609 334.309 815.526 336.175C812.525 337.959 808.997 338.852 804.941 338.852C801.048 338.852 797.479 338.081 794.235 336.54C790.99 334.918 788.435 332.687 786.57 329.848C784.785 327.009 783.893 323.846 783.893 320.358C783.893 316.059 784.988 312.693 787.178 310.26C789.449 307.746 793.14 305.961 798.25 304.907C803.441 303.852 810.538 303.325 819.541 303.325H822.34V299.797C822.34 295.254 821.407 291.969 819.541 289.942C817.676 287.914 814.675 286.9 810.538 286.9C807.699 286.9 805.023 287.265 802.508 287.995C799.994 288.725 797.236 289.779 794.235 291.158C792.045 292.375 790.504 292.983 789.611 292.983C788.395 292.983 787.381 292.537 786.57 291.645C785.84 290.753 785.475 289.617 785.475 288.238C785.475 287.022 785.799 285.967 786.448 285.075C787.178 284.102 788.314 283.169 789.855 282.277C792.694 280.736 796.019 279.519 799.831 278.627C803.644 277.653 807.334 277.167 810.903 277.167ZM807.131 329.727C811.593 329.727 815.243 328.226 818.081 325.225C820.92 322.143 822.34 318.209 822.34 313.423V310.26H820.15C813.823 310.26 808.956 310.544 805.55 311.112C802.143 311.679 799.71 312.653 798.25 314.032C796.79 315.329 796.06 317.236 796.06 319.75C796.06 322.67 797.114 325.063 799.223 326.928C801.332 328.794 803.968 329.727 807.131 329.727Z" fill="black"/>
</svg>
