<svg width="69" height="69" viewBox="0 0 69 69" fill="none" xmlns="http://www.w3.org/2000/svg">
<path fill-rule="evenodd" clip-rule="evenodd" d="M32 13.9C32 13.1309 32.3161 12.3932 32.8787 11.8494C33.4413 11.3055 34.2044 11 35 11C35.7956 11 36.5587 11.3055 37.1213 11.8494C37.6839 12.3932 38 13.1309 38 13.9V29.85C38 30.2346 38.158 30.6034 38.4393 30.8753C38.7206 31.1472 39.1022 31.3 39.5 31.3C39.8978 31.3 40.2794 31.1472 40.5607 30.8753C40.842 30.6034 41 30.2346 41 29.85V16.8C41 16.0309 41.3161 15.2932 41.8787 14.7494C42.4413 14.2055 43.2044 13.9 44 13.9C44.7956 13.9 45.5587 14.2055 46.1213 14.7494C46.6839 15.2932 47 16.0309 47 16.8V29.85C47 30.2346 47.158 30.6034 47.4393 30.8753C47.7206 31.1472 48.1022 31.3 48.5 31.3C48.8978 31.3 49.2794 31.1472 49.5607 30.8753C49.842 30.6034 50 30.2346 50 29.85V22.6C50 21.8309 50.3161 21.0932 50.8787 20.5494C51.4413 20.0055 52.2044 19.7 53 19.7C53.7956 19.7 54.5587 20.0055 55.1213 20.5494C55.6839 21.0932 56 21.8309 56 22.6V37.1C56 39.7658 55.4568 42.4056 54.4015 44.8685C53.3461 47.3314 51.7993 49.5692 49.8492 51.4543C47.8992 53.3393 45.5842 54.8346 43.0364 55.8548C40.4885 56.8749 37.7578 57.4 35 57.4C32.2422 57.4 29.5115 56.8749 26.9636 55.8548C24.4158 54.8346 22.1008 53.3393 20.1508 51.4543C18.2007 49.5692 16.6539 47.3314 15.5985 44.8685C14.5432 42.4056 14 39.7658 14 37.1V31.3C14 30.5309 14.3161 29.7932 14.8787 29.2494C15.4413 28.7055 16.2044 28.4 17 28.4C17.7956 28.4 18.5587 28.7055 19.1213 29.2494C19.6839 29.7932 20 30.5309 20 31.3V38.55C20 38.9346 20.158 39.3034 20.4393 39.5753C20.7206 39.8472 21.1022 40 21.5 40C21.8978 40 22.2794 39.8472 22.5607 39.5753C22.842 39.3034 23 38.9346 23 38.55V16.8C23 16.0309 23.3161 15.2932 23.8787 14.7494C24.4413 14.2055 25.2044 13.9 26 13.9C26.7956 13.9 27.5587 14.2055 28.1213 14.7494C28.6839 15.2932 29 16.0309 29 16.8V29.85C29 30.2346 29.158 30.6034 29.4393 30.8753C29.7206 31.1472 30.1022 31.3 30.5 31.3C30.8978 31.3 31.2794 31.1472 31.5607 30.8753C31.842 30.6034 32 30.2346 32 29.85V13.9Z" fill="white"/>
</svg>
