<svg width="69" height="69" viewBox="0 0 69 69" fill="none" xmlns="http://www.w3.org/2000/svg">
<path fill-rule="evenodd" clip-rule="evenodd" d="M60 34.5C60 48.5833 48.5833 60 34.5 60C20.4167 60 9 48.5833 9 34.5C9 20.4167 20.4167 9 34.5 9C48.5833 9 60 20.4167 60 34.5ZM34.3283 19.71C35.3283 19.7042 36.2393 20.2835 36.6584 21.1914L47.0153 43.6314C47.6055 44.9101 47.0473 46.4251 45.7686 47.0153C44.4899 47.6055 42.9749 47.0473 42.3847 45.7686L40.6579 42.0272C40.3356 42.1743 39.9774 42.2563 39.6 42.2563H28.7625C28.5742 42.2563 28.3906 42.2359 28.2139 42.1972L26.6275 45.7417C26.0522 47.0271 24.5438 47.6028 23.2583 47.0275C21.9729 46.4522 21.3972 44.9438 21.9725 43.6583L32.0156 21.2183C32.4241 20.3056 33.3283 19.7158 34.3283 19.71ZM30.4699 37.1563H38.4098L34.3788 28.4225L30.4699 37.1563Z" fill="white"/>
</svg>
