<svg width="69" height="69" viewBox="0 0 69 69" fill="none" xmlns="http://www.w3.org/2000/svg">
<path fill-rule="evenodd" clip-rule="evenodd" d="M34.5 57C40.4674 57 46.1903 54.6295 50.4099 50.4099C54.6295 46.1903 57 40.4674 57 34.5C57 28.5326 54.6295 22.8097 50.4099 18.5901C46.1903 14.3705 40.4674 12 34.5 12C28.5326 12 22.8097 14.3705 18.5901 18.5901C14.3705 22.8097 12 28.5326 12 34.5C12 40.4674 14.3705 46.1903 18.5901 50.4099C22.8097 54.6295 28.5326 57 34.5 57V57ZM33.2484 26.535C32.8249 26.2524 32.3325 26.0901 31.824 26.0654C31.3154 26.0407 30.8096 26.1545 30.3607 26.3947C29.9117 26.6349 29.5364 26.9925 29.2747 27.4294C29.0131 27.8662 28.8749 28.3658 28.875 28.875V40.125C28.8749 40.6342 29.0131 41.1338 29.2747 41.5707C29.5364 42.0075 29.9117 42.3651 30.3607 42.6053C30.8096 42.8455 31.3154 42.9593 31.824 42.9346C32.3325 42.9099 32.8249 42.7476 33.2484 42.465L41.6859 36.84C42.0711 36.5832 42.387 36.2352 42.6054 35.827C42.8238 35.4188 42.9381 34.963 42.9381 34.5C42.9381 34.037 42.8238 33.5812 42.6054 33.173C42.387 32.7648 42.0711 32.4168 41.6859 32.16L33.2484 26.535V26.535Z" fill="#2B4FEB"/>
</svg>
