<svg width="69" height="69" viewBox="0 0 69 69" fill="none" xmlns="http://www.w3.org/2000/svg">
<path fill-rule="evenodd" clip-rule="evenodd" d="M20.25 11.7C21.0059 11.7 21.7308 12.0003 22.2653 12.5348C22.7997 13.0692 23.1 13.7941 23.1 14.55V17.4H25.95C26.7059 17.4 27.4308 17.7003 27.9653 18.2348C28.4997 18.7692 28.8 19.4941 28.8 20.25C28.8 21.0059 28.4997 21.7308 27.9653 22.2653C27.4308 22.7997 26.7059 23.1 25.95 23.1H23.1V25.95C23.1 26.7059 22.7997 27.4308 22.2653 27.9653C21.7308 28.4997 21.0059 28.8 20.25 28.8C19.4941 28.8 18.7692 28.4997 18.2348 27.9653C17.7003 27.4308 17.4 26.7059 17.4 25.95V23.1H14.55C13.7941 23.1 13.0692 22.7997 12.5348 22.2653C12.0003 21.7308 11.7 21.0059 11.7 20.25C11.7 19.4941 12.0003 18.7692 12.5348 18.2348C13.0692 17.7003 13.7941 17.4 14.55 17.4H17.4V14.55C17.4 13.7941 17.7003 13.0692 18.2348 12.5348C18.7692 12.0003 19.4941 11.7 20.25 11.7ZM20.25 40.2C21.0059 40.2 21.7308 40.5003 22.2653 41.0348C22.7997 41.5692 23.1 42.2941 23.1 43.05V45.9H25.95C26.7059 45.9 27.4308 46.2003 27.9653 46.7347C28.4997 47.2692 28.8 47.9941 28.8 48.75C28.8 49.5059 28.4997 50.2308 27.9653 50.7653C27.4308 51.2997 26.7059 51.6 25.95 51.6H23.1V54.45C23.1 55.2059 22.7997 55.9308 22.2653 56.4653C21.7308 56.9997 21.0059 57.3 20.25 57.3C19.4941 57.3 18.7692 56.9997 18.2348 56.4653C17.7003 55.9308 17.4 55.2059 17.4 54.45V51.6H14.55C13.7941 51.6 13.0692 51.2997 12.5348 50.7653C12.0003 50.2308 11.7 49.5059 11.7 48.75C11.7 47.9941 12.0003 47.2692 12.5348 46.7347C13.0692 46.2003 13.7941 45.9 14.55 45.9H17.4V43.05C17.4 42.2941 17.7003 41.5692 18.2348 41.0348C18.7692 40.5003 19.4941 40.2 20.25 40.2Z" fill="#2B4FEB"/>
<path fill-rule="evenodd" clip-rule="evenodd" d="M40.1999 11.7C40.8289 11.6998 41.4403 11.9077 41.9388 12.2912C42.4372 12.6747 42.7949 13.2124 42.9559 13.8204L46.316 26.52L55.8749 32.0319C56.3081 32.2821 56.6679 32.6418 56.918 33.0751C57.1681 33.5083 57.2998 33.9998 57.2998 34.5C57.2998 35.0003 57.1681 35.4917 56.918 35.925C56.6679 36.3582 56.3081 36.718 55.8749 36.9681L46.316 42.4829L42.953 55.1796C42.7917 55.787 42.4342 56.3241 41.936 56.7072C41.4378 57.0904 40.827 57.2981 40.1985 57.2981C39.57 57.2981 38.9592 57.0904 38.461 56.7072C37.9628 56.3241 37.6053 55.787 37.444 55.1796L34.0838 42.48L24.5249 36.9681C24.0917 36.718 23.732 36.3582 23.4818 35.925C23.2317 35.4917 23.1001 35.0003 23.1001 34.5C23.1001 33.9998 23.2317 33.5083 23.4818 33.0751C23.732 32.6418 24.0917 32.2821 24.5249 32.0319L34.0838 26.5172L37.4468 13.8204C37.6077 13.2129 37.9649 12.6756 38.4628 12.2921C38.9607 11.9086 39.5715 11.7004 40.1999 11.7V11.7Z" fill="#2B4FEB"/>
</svg>
