<svg width="69" height="69" viewBox="0 0 69 69" fill="none" xmlns="http://www.w3.org/2000/svg">
<path d="M34.5 40.2C36.0118 40.2 37.4616 39.5995 38.5305 38.5305C39.5995 37.4616 40.2 36.0118 40.2 34.5C40.2 32.9883 39.5995 31.5385 38.5305 30.4695C37.4616 29.4006 36.0118 28.8 34.5 28.8C32.9883 28.8 31.5385 29.4006 30.4695 30.4695C29.4006 31.5385 28.8 32.9883 28.8 34.5C28.8 36.0118 29.4006 37.4616 30.4695 38.5305C31.5385 39.5995 32.9883 40.2 34.5 40.2Z" fill="white"/>
<path fill-rule="evenodd" clip-rule="evenodd" d="M7.30527 34.5C10.9362 22.9376 21.7377 14.55 34.5 14.55C47.2623 14.55 58.0638 22.9376 61.6947 34.5C58.0638 46.0625 47.2623 54.45 34.5 54.45C21.7377 54.45 10.9362 46.0625 7.30527 34.5ZM45.9 34.5C45.9 37.5235 44.6989 40.4231 42.561 42.561C40.4231 44.699 37.5234 45.9 34.5 45.9C31.4765 45.9 28.5769 44.699 26.439 42.561C24.301 40.4231 23.1 37.5235 23.1 34.5C23.1 31.4766 24.301 28.5769 26.439 26.439C28.5769 24.3011 31.4765 23.1 34.5 23.1C37.5234 23.1 40.4231 24.3011 42.561 26.439C44.6989 28.5769 45.9 31.4766 45.9 34.5V34.5Z" fill="white"/>
</svg>
