<svg width="69" height="69" viewBox="0 0 69 69" fill="none" xmlns="http://www.w3.org/2000/svg">
<path fill-rule="evenodd" clip-rule="evenodd" d="M33.2309 15.0473C33.7576 15.2657 34.2077 15.6353 34.5243 16.1095C34.841 16.5837 35.0099 17.1411 35.0098 17.7113V52.3088C35.0096 52.8789 34.8405 53.4362 34.5237 53.9102C34.2069 54.3843 33.7566 54.7537 33.2299 54.9719C32.7031 55.19 32.1235 55.2471 31.5643 55.1359C31.0052 55.0247 30.4915 54.7502 30.0883 54.3472L19.4005 43.6594H11.9448C11.1801 43.6594 10.4468 43.3557 9.90609 42.815C9.3654 42.2743 9.06165 41.5409 9.06165 40.7763V29.2438C9.06165 28.4791 9.3654 27.7458 9.90609 27.2051C10.4468 26.6644 11.1801 26.3607 11.9448 26.3607H19.4005L30.0883 15.6729C30.4915 15.2695 31.0053 14.9947 31.5647 14.8833C32.1241 14.772 32.7039 14.829 33.2309 15.0473V15.0473Z" fill="#2B4FEB"/>
<path fill-rule="evenodd" clip-rule="evenodd" d="M41.6208 27.2053C42.1615 26.6648 42.8947 26.3612 43.6592 26.3612C44.4237 26.3612 45.1569 26.6648 45.6976 27.2053L49.4255 30.9332L53.1533 27.2053C53.4193 26.93 53.7374 26.7103 54.0892 26.5592C54.4409 26.4081 54.8193 26.3286 55.2021 26.3253C55.5849 26.3219 55.9645 26.3949 56.3189 26.5398C56.6732 26.6848 56.9951 26.8989 57.2658 27.1696C57.5365 27.4403 57.7506 27.7622 57.8956 28.1165C58.0405 28.4709 58.1135 28.8505 58.1101 29.2333C58.1068 29.6161 58.0273 29.9945 57.8762 30.3462C57.7251 30.698 57.5054 31.0161 57.2301 31.2821L53.5022 35.01L57.2301 38.7378C57.7553 39.2816 58.0459 40.0099 58.0393 40.7658C58.0327 41.5218 57.7295 42.2449 57.1949 42.7794C56.6604 43.314 55.9373 43.6172 55.1813 43.6238C54.4254 43.6304 53.6971 43.3398 53.1533 42.8146L49.4255 39.0867L45.6976 42.8146C45.1538 43.3398 44.4255 43.6304 43.6696 43.6238C42.9136 43.6172 42.1905 43.314 41.656 42.7794C41.1214 42.2449 40.8182 41.5218 40.8116 40.7658C40.8051 40.0099 41.0957 39.2816 41.6208 38.7378L45.3487 35.01L41.6208 31.2821C41.0803 30.7414 40.7767 30.0082 40.7767 29.2437C40.7767 28.4792 41.0803 27.746 41.6208 27.2053V27.2053Z" fill="#2B4FEB"/>
</svg>
