<svg width="69" height="69" viewBox="0 0 69 69" fill="none" xmlns="http://www.w3.org/2000/svg">
<path d="M31.3638 13.2798C32.3525 10.2401 36.6467 10.2401 37.632 13.2798L41.1583 24.1449C41.3737 24.8066 41.7925 25.3831 42.3548 25.7921C42.9171 26.2011 43.5941 26.4217 44.2891 26.4222H55.6984C58.8918 26.4222 60.2167 30.5147 57.6362 32.396L48.4086 39.1091C47.8451 39.5185 47.4256 40.096 47.2101 40.7589C46.9946 41.4217 46.9942 42.1359 47.209 42.799L50.7353 53.6641C51.7239 56.7038 48.2471 59.2353 45.6601 57.354L36.4324 50.6409C35.8696 50.2316 35.1918 50.0112 34.4963 50.0112C33.8007 50.0112 33.123 50.2316 32.5601 50.6409L23.3325 57.354C20.7488 59.2353 17.2752 56.7038 18.2606 53.6641L21.7869 42.799C22.0017 42.1359 22.0013 41.4217 21.7858 40.7589C21.5703 40.096 21.1507 39.5185 20.5873 39.1091L11.3629 32.3993C8.78251 30.518 10.1106 26.4255 13.3007 26.4255H24.7068C25.4023 26.4257 26.08 26.2055 26.643 25.7964C27.2059 25.3874 27.6252 24.8104 27.8409 24.1482L31.3671 13.2831L31.3638 13.2798Z" fill="#2B4FEB"/>
</svg>
