<svg width="648" height="843" viewBox="0 0 648 843" fill="none" xmlns="http://www.w3.org/2000/svg">
<path d="M567.967 454.408H79.4526C73.044 454.408 67.8489 459.599 67.8489 466.003V747.184C67.8489 753.588 73.044 758.779 79.4526 758.779H567.967C574.376 758.779 579.571 753.588 579.571 747.184V466.003C579.571 459.599 574.376 454.408 567.967 454.408Z" fill="white" stroke="#2B4FEB" stroke-width="16"/>
<path d="M420.891 541.908H225.949C223.226 541.908 221.018 544.114 221.018 546.836C221.018 549.557 223.226 551.764 225.949 551.764H420.891C423.615 551.764 425.823 549.557 425.823 546.836C425.823 544.114 423.615 541.908 420.891 541.908Z" fill="#2B4FEB"/>
<path d="M420.891 559.301H225.949C223.226 559.301 221.018 561.507 221.018 564.228C221.018 566.95 223.226 569.156 225.949 569.156H420.891C423.615 569.156 425.823 566.95 425.823 564.228C425.823 561.507 423.615 559.301 420.891 559.301Z" fill="#2B4FEB"/>
<path d="M412.188 576.693H225.949C223.226 576.693 221.018 578.9 221.018 581.621C221.018 584.343 223.226 586.549 225.949 586.549H412.188C414.912 586.549 417.12 584.343 417.12 581.621C417.12 578.9 414.912 576.693 412.188 576.693Z" fill="#2B4FEB"/>
<path d="M412.188 594.086H225.949C223.226 594.086 221.018 596.292 221.018 599.014C221.018 601.735 223.226 603.942 225.949 603.942H412.188C414.912 603.942 417.12 601.735 417.12 599.014C417.12 596.292 414.912 594.086 412.188 594.086Z" fill="#2B4FEB"/>
<path d="M398.264 628.871H225.949C223.226 628.871 221.018 631.078 221.018 633.799C221.018 636.521 223.226 638.727 225.949 638.727H398.264C400.987 638.727 403.195 636.521 403.195 633.799C403.195 631.078 400.987 628.871 398.264 628.871Z" fill="#2B4FEB"/>
<path d="M412.188 646.264H225.949C223.226 646.264 221.018 648.47 221.018 651.192C221.018 653.913 223.226 656.12 225.949 656.12H412.188C414.912 656.12 417.12 653.913 417.12 651.192C417.12 648.47 414.912 646.264 412.188 646.264Z" fill="#2B4FEB"/>
<path d="M326.321 663.656H225.949C223.226 663.656 221.018 665.863 221.018 668.584C221.018 671.306 223.226 673.512 225.949 673.512H326.321C329.045 673.512 331.253 671.306 331.253 668.584C331.253 665.863 329.045 663.656 326.321 663.656Z" fill="#2B4FEB"/>
<path d="M160.678 470.061H89.3156C85.4705 470.061 82.3534 473.176 82.3534 477.018V489.193C82.3534 493.036 85.4705 496.15 89.3156 496.15H160.678C164.523 496.15 167.64 493.036 167.64 489.193V477.018C167.64 473.176 164.523 470.061 160.678 470.061Z" fill="#2B4FEB"/>
<path d="M567.967 70.4831H79.4526C73.044 70.4831 67.8489 75.6882 67.8489 82.1089V364.034C67.8489 370.454 73.044 375.66 79.4526 375.66H567.967C574.376 375.66 579.571 370.454 579.571 364.034V82.1089C579.571 75.6882 574.376 70.4831 567.967 70.4831Z" fill="white" stroke="#2B4FEB" stroke-width="16"/>
<path d="M420.891 165.233H225.949C223.225 165.233 221.017 167.445 221.017 170.174C221.017 172.903 223.225 175.115 225.949 175.115H420.891C423.614 175.115 425.822 172.903 425.822 170.174C425.822 167.445 423.614 165.233 420.891 165.233Z" fill="#EAEDFD"/>
<path d="M420.891 182.672H225.949C223.225 182.672 221.017 184.884 221.017 187.613C221.017 190.342 223.225 192.554 225.949 192.554H420.891C423.614 192.554 425.822 190.342 425.822 187.613C425.822 184.884 423.614 182.672 420.891 182.672Z" fill="#EAEDFD"/>
<path d="M412.188 200.11H225.949C223.225 200.11 221.017 202.323 221.017 205.051C221.017 207.78 223.225 209.992 225.949 209.992H412.188C414.912 209.992 417.119 207.78 417.119 205.051C417.119 202.323 414.912 200.11 412.188 200.11Z" fill="#EAEDFD"/>
<path d="M412.188 217.549H225.949C223.225 217.549 221.017 219.761 221.017 222.49C221.017 225.219 223.225 227.431 225.949 227.431H412.188C414.912 227.431 417.119 225.219 417.119 222.49C417.119 219.761 414.912 217.549 412.188 217.549Z" fill="#EAEDFD"/>
<path d="M420.891 234.988H225.949C223.225 234.988 221.017 237.2 221.017 239.929C221.017 242.657 223.225 244.87 225.949 244.87H420.891C423.614 244.87 425.822 242.657 425.822 239.929C425.822 237.2 423.614 234.988 420.891 234.988Z" fill="#EAEDFD"/>
<path d="M398.264 252.426H225.949C223.225 252.426 221.017 254.639 221.017 257.367C221.017 260.096 223.225 262.308 225.949 262.308H398.264C400.987 262.308 403.195 260.096 403.195 257.367C403.195 254.639 400.987 252.426 398.264 252.426Z" fill="#EAEDFD"/>
<path d="M412.188 269.865H225.949C223.225 269.865 221.017 272.077 221.017 274.806C221.017 277.535 223.225 279.747 225.949 279.747H412.188C414.912 279.747 417.119 277.535 417.119 274.806C417.119 272.077 414.912 269.865 412.188 269.865Z" fill="#EAEDFD"/>
<path d="M326.321 287.304H225.949C223.225 287.304 221.017 289.516 221.017 292.245C221.017 294.973 223.225 297.186 225.949 297.186H326.321C329.044 297.186 331.252 294.973 331.252 292.245C331.252 289.516 329.044 287.304 326.321 287.304Z" fill="#EAEDFD"/>
<path d="M558.684 161.745H449.03C445.184 161.745 442.067 164.868 442.067 168.721V278.584C442.067 282.437 445.184 285.56 449.03 285.56H558.684C562.529 285.56 565.647 282.437 565.647 278.584V168.721C565.647 164.868 562.529 161.745 558.684 161.745Z" fill="#21CEA0"/>
<path d="M198.97 205.051H89.3157C85.6308 205.051 82.6436 208.044 82.6436 211.736V321.6C82.6436 325.292 85.6308 328.285 89.3157 328.285H198.97C202.655 328.285 205.643 325.292 205.643 321.6V211.736C205.643 208.044 202.655 205.051 198.97 205.051Z" stroke="#21CEA0"/>
<path d="M441 308.655C441 304.98 444.128 302 447.986 302H558.014C561.872 302 565 304.98 565 308.655V368H441V308.655Z" fill="#E7BE2F"/>
<path d="M82 346.222C82 342.786 85.1277 340 88.9859 340H199.014C202.872 340 206 342.786 206 346.222V368H82V346.222Z" fill="#E7BE2F"/>
<path d="M160.678 86.1779H89.3156C85.4705 86.1779 82.3534 89.3009 82.3534 93.1534V105.36C82.3534 109.213 85.4705 112.336 89.3156 112.336H160.678C164.523 112.336 167.64 109.213 167.64 105.36V93.1534C167.64 89.3009 164.523 86.1779 160.678 86.1779Z" fill="#2B4FEB"/>
<path d="M558.684 119.311H89.3156C85.4705 119.311 82.3534 122.434 82.3534 126.287V138.494C82.3534 142.346 85.4705 145.469 89.3156 145.469H558.684C562.529 145.469 565.647 142.346 565.647 138.494V126.287C565.647 122.434 562.529 119.311 558.684 119.311Z" fill="#21CEA0"/>
<path fill-rule="evenodd" clip-rule="evenodd" d="M144.433 281.956C148.249 281.956 151.909 280.437 154.607 277.733C157.306 275.03 158.822 271.363 158.822 267.54C158.822 263.717 157.306 260.05 154.607 257.346C151.909 254.643 148.249 253.124 144.433 253.124C140.617 253.124 136.957 254.643 134.259 257.346C131.56 260.05 130.044 263.717 130.044 267.54C130.044 271.363 131.56 275.03 134.259 277.733C136.957 280.437 140.617 281.956 144.433 281.956ZM143.633 262.437C143.362 262.255 143.047 262.151 142.721 262.136C142.397 262.12 142.073 262.193 141.786 262.347C141.499 262.501 141.259 262.73 141.092 263.01C140.924 263.29 140.836 263.61 140.836 263.936V271.144C140.836 271.47 140.924 271.79 141.092 272.07C141.259 272.35 141.499 272.579 141.786 272.733C142.073 272.887 142.397 272.96 142.721 272.944C143.047 272.928 143.362 272.824 143.633 272.643L149.029 269.039C149.275 268.875 149.477 268.652 149.616 268.39C149.756 268.129 149.829 267.836 149.829 267.54C149.829 267.243 149.756 266.951 149.616 266.689C149.477 266.428 149.275 266.205 149.029 266.041L143.633 262.437Z" fill="#21CEA0"/>
<path d="M324 398V430M324 430L311 416.743M324 430L337 416.743" stroke="#21CEA0" stroke-width="6" stroke-linecap="round" stroke-linejoin="round"/>
</svg>
