<svg width="648" height="843" viewBox="0 0 648 843" fill="none" xmlns="http://www.w3.org/2000/svg">
<path d="M567.967 454.408H79.4526C73.044 454.408 67.8489 459.599 67.8489 466.003V747.184C67.8489 753.588 73.044 758.779 79.4526 758.779H567.967C574.376 758.779 579.571 753.588 579.571 747.184V466.003C579.571 459.599 574.376 454.408 567.967 454.408Z" fill="white" stroke="#2B4FEB" stroke-width="16"/>
<path d="M567.967 70.4832H79.4526C73.044 70.4832 67.8489 75.6882 67.8489 82.1089V364.034C67.8489 370.454 73.044 375.66 79.4526 375.66H567.967C574.376 375.66 579.571 370.454 579.571 364.034V82.1089C579.571 75.6882 574.376 70.4832 567.967 70.4832Z" fill="white" stroke="#2B4FEB" stroke-width="16"/>
<path d="M324 398V430M324 430L311 416.743M324 430L337 416.743" stroke="#21CEA0" stroke-width="6" stroke-linecap="round" stroke-linejoin="round"/>
<rect x="145" y="234" width="69" height="65" rx="8" fill="#E2E5F4"/>
<rect x="145" y="618" width="69" height="65" rx="8" fill="#E2E5F4"/>
<rect x="239" y="234" width="69" height="65" rx="8" fill="#C8CDE8"/>
<rect x="239" y="618" width="69" height="65" rx="8" fill="#C8CDE8" stroke="black" stroke-width="3"/>
<rect x="333" y="234" width="170" height="65" rx="8" fill="#E2E5F4"/>
<rect x="333" y="618" width="170" height="65" rx="8" fill="#E2E5F4"/>
<rect x="145" y="147" width="69" height="65" rx="8" fill="#C8CDE8"/>
<rect x="145" y="531" width="69" height="65" rx="8" fill="#C8CDE8" stroke="black" stroke-width="3"/>
<rect x="239" y="147" width="69" height="65" rx="8" fill="#E2E5F4"/>
<rect x="239" y="531" width="69" height="65" rx="8" fill="#E2E5F4"/>
<rect x="333" y="147" width="170" height="65" rx="8" fill="#E2E5F4" fill-opacity="0.66"/>
<rect x="333" y="531" width="170" height="65" rx="8" fill="#E2E5F4" fill-opacity="0.66"/>
<path fill-rule="evenodd" clip-rule="evenodd" d="M261.617 551.643C262.012 551.248 262.548 551.026 263.107 551.026C263.665 551.026 264.201 551.248 264.596 551.643L273.642 560.689L282.688 551.643C282.883 551.442 283.115 551.282 283.372 551.171C283.629 551.061 283.906 551.003 284.186 551C284.465 550.998 284.743 551.051 285.002 551.157C285.261 551.263 285.496 551.419 285.694 551.617C285.892 551.815 286.048 552.05 286.154 552.309C286.26 552.568 286.313 552.846 286.311 553.125C286.308 553.405 286.25 553.682 286.14 553.939C286.029 554.196 285.869 554.428 285.668 554.623L276.622 563.669L285.668 572.715C286.052 573.112 286.264 573.644 286.259 574.197C286.254 574.749 286.033 575.278 285.642 575.668C285.251 576.059 284.723 576.281 284.17 576.285C283.618 576.29 283.086 576.078 282.688 575.694L273.642 566.648L264.596 575.694C264.199 576.078 263.667 576.29 263.114 576.285C262.562 576.281 262.033 576.059 261.643 575.668C261.252 575.278 261.03 574.749 261.026 574.197C261.021 573.644 261.233 573.112 261.617 572.715L270.663 563.669L261.617 554.623C261.222 554.228 261 553.692 261 553.133C261 552.574 261.222 552.038 261.617 551.643V551.643Z" fill="black"/>
<path fill-rule="evenodd" clip-rule="evenodd" d="M261.617 638.643C262.012 638.248 262.548 638.026 263.107 638.026C263.665 638.026 264.201 638.248 264.596 638.643L273.642 647.689L282.688 638.643C282.883 638.442 283.115 638.282 283.372 638.171C283.629 638.061 283.906 638.003 284.186 638C284.465 637.998 284.743 638.051 285.002 638.157C285.261 638.263 285.496 638.419 285.694 638.617C285.892 638.815 286.048 639.05 286.154 639.309C286.26 639.568 286.313 639.846 286.311 640.125C286.308 640.405 286.25 640.682 286.14 640.939C286.029 641.196 285.869 641.428 285.668 641.623L276.622 650.669L285.668 659.715C286.052 660.112 286.264 660.644 286.259 661.197C286.254 661.749 286.033 662.278 285.642 662.668C285.251 663.059 284.723 663.281 284.17 663.285C283.618 663.29 283.086 663.078 282.688 662.694L273.642 653.648L264.596 662.694C264.199 663.078 263.667 663.29 263.114 663.285C262.562 663.281 262.033 663.059 261.643 662.668C261.252 662.278 261.03 661.749 261.026 661.197C261.021 660.644 261.233 660.112 261.617 659.715L270.663 650.669L261.617 641.623C261.222 641.228 261 640.692 261 640.133C261 639.574 261.222 639.038 261.617 638.643V638.643Z" fill="black"/>
<path fill-rule="evenodd" clip-rule="evenodd" d="M193.911 554.618C194.307 555.014 194.529 555.551 194.529 556.111C194.529 556.67 194.307 557.207 193.911 557.603L177.022 574.492C176.626 574.888 176.09 575.11 175.53 575.11C174.97 575.11 174.433 574.888 174.037 574.492L165.593 566.048C165.208 565.65 164.995 565.116 165 564.563C165.005 564.009 165.227 563.48 165.618 563.088C166.01 562.697 166.539 562.475 167.093 562.47C167.646 562.465 168.18 562.678 168.578 563.063L175.53 570.015L190.926 554.618C191.322 554.222 191.859 554 192.419 554C192.979 554 193.515 554.222 193.911 554.618Z" fill="black"/>
<path fill-rule="evenodd" clip-rule="evenodd" d="M193.911 641.618C194.307 642.014 194.529 642.551 194.529 643.111C194.529 643.67 194.307 644.207 193.911 644.603L177.022 661.492C176.626 661.888 176.09 662.11 175.53 662.11C174.97 662.11 174.433 661.888 174.037 661.492L165.593 653.048C165.208 652.65 164.995 652.116 165 651.563C165.005 651.009 165.227 650.48 165.618 650.088C166.01 649.697 166.539 649.475 167.093 649.47C167.646 649.465 168.18 649.678 168.578 650.063L175.53 657.015L190.926 641.618C191.322 641.222 191.859 641 192.419 641C192.979 641 193.515 641.222 193.911 641.618Z" fill="black"/>
<path d="M381.431 575.607C381.564 575.926 381.631 576.192 381.631 576.405C381.631 576.91 381.418 577.335 380.993 577.681C380.594 578.027 380.142 578.199 379.637 578.199C379.291 578.199 378.959 578.106 378.64 577.92C378.348 577.708 378.122 577.415 377.962 577.043L375.33 571.061H360.735L358.103 577.043C357.943 577.415 357.704 577.708 357.385 577.92C357.066 578.106 356.734 578.199 356.388 578.199C355.856 578.199 355.378 578.027 354.952 577.681C354.554 577.335 354.354 576.91 354.354 576.405C354.354 576.192 354.421 575.926 354.554 575.607L365.799 551.003C365.985 550.577 366.278 550.245 366.677 550.006C367.102 549.766 367.541 549.647 367.993 549.647C368.444 549.647 368.87 549.766 369.269 550.006C369.694 550.245 370 550.577 370.186 551.003L381.431 575.607ZM362.21 567.791H373.894L368.032 554.592L362.21 567.791Z" fill="black"/>
<path opacity="0.47" d="M381.431 191.607C381.564 191.926 381.631 192.192 381.631 192.405C381.631 192.91 381.418 193.335 380.993 193.681C380.594 194.027 380.142 194.199 379.637 194.199C379.291 194.199 378.959 194.106 378.64 193.92C378.348 193.708 378.122 193.415 377.962 193.043L375.33 187.061H360.735L358.103 193.043C357.943 193.415 357.704 193.708 357.385 193.92C357.066 194.106 356.734 194.199 356.388 194.199C355.856 194.199 355.378 194.027 354.952 193.681C354.554 193.335 354.354 192.91 354.354 192.405C354.354 192.192 354.421 191.926 354.554 191.607L365.799 167.003C365.985 166.577 366.278 166.245 366.677 166.006C367.102 165.766 367.541 165.647 367.993 165.647C368.444 165.647 368.87 165.766 369.269 166.006C369.694 166.245 370 166.577 370.186 167.003L381.431 191.607ZM362.21 183.791H373.894L368.032 170.592L362.21 183.791Z" fill="#2B4FEB"/>
<path d="M374.306 649.524C375.928 649.976 377.177 650.787 378.055 651.957C378.958 653.127 379.41 654.589 379.41 656.343C379.41 658.763 378.573 660.65 376.898 662.006C375.25 663.335 372.937 664 369.959 664H359.79C359.152 664 358.647 663.827 358.275 663.482C357.929 663.109 357.757 662.618 357.757 662.006V637.88C357.757 637.268 357.929 636.79 358.275 636.444C358.647 636.072 359.152 635.886 359.79 635.886H369.521C372.418 635.886 374.678 636.537 376.3 637.84C377.948 639.116 378.772 640.911 378.772 643.224C378.772 644.712 378.374 646.002 377.576 647.092C376.805 648.182 375.715 648.993 374.306 649.524ZM361.784 648.049H368.883C372.817 648.049 374.785 646.56 374.785 643.582C374.785 642.094 374.293 640.99 373.309 640.273C372.352 639.555 370.877 639.196 368.883 639.196H361.784V648.049ZM369.521 660.69C371.568 660.69 373.07 660.318 374.027 659.574C374.984 658.829 375.462 657.673 375.462 656.104C375.462 654.509 374.971 653.326 373.987 652.555C373.03 651.757 371.541 651.359 369.521 651.359H361.784V660.69H369.521Z" fill="black"/>
<path opacity="0.47" d="M374.306 265.524C375.928 265.976 377.177 266.787 378.055 267.957C378.958 269.127 379.41 270.589 379.41 272.343C379.41 274.763 378.573 276.65 376.898 278.006C375.25 279.335 372.937 280 369.959 280H359.79C359.152 280 358.647 279.827 358.275 279.482C357.929 279.109 357.757 278.618 357.757 278.006V253.88C357.757 253.268 357.929 252.79 358.275 252.444C358.647 252.072 359.152 251.886 359.79 251.886H369.521C372.418 251.886 374.678 252.537 376.3 253.84C377.948 255.116 378.772 256.911 378.772 259.224C378.772 260.712 378.374 262.002 377.576 263.092C376.805 264.182 375.715 264.993 374.306 265.524ZM361.784 264.049H368.883C372.817 264.049 374.785 262.56 374.785 259.582C374.785 258.094 374.293 256.99 373.309 256.273C372.352 255.555 370.877 255.196 368.883 255.196H361.784V264.049ZM369.521 276.69C371.568 276.69 373.07 276.318 374.027 275.574C374.984 274.829 375.462 273.673 375.462 272.104C375.462 270.509 374.971 269.326 373.987 268.555C373.03 267.757 371.541 267.359 369.521 267.359H361.784V276.69H369.521Z" fill="#2B4FEB"/>
</svg>
