<?xml version="1.0" encoding="UTF-8"?>
<svg width="582px" height="563px" viewBox="0 0 582 563" version="1.1" xmlns="http://www.w3.org/2000/svg" xmlns:xlink="http://www.w3.org/1999/xlink">
    <title>acc_game_design_process</title>
    <g id="acc_game_design_process" stroke="none" stroke-width="1" fill="none" fill-rule="evenodd">
        <rect fill="#FFFFFF" x="0" y="0" width="582" height="563"></rect>
        <path d="M187.412837,103.364 C192.222837,103.364 194.588837,100.79 194.588837,96.76 L194.588837,96.136 L191.156837,96.136 L191.156837,96.812 C191.156837,98.866 190.142837,100.296 187.412837,100.296 C184.734837,100.296 183.304837,98.632 183.304837,96.136 L183.304837,91.664 C183.304837,89.376 184.838837,87.504 187.412837,87.504 C189.908837,87.504 191.156837,88.908 191.156837,90.988 L191.156837,91.664 L194.588837,91.664 L194.588837,91.04 C194.588837,86.984 192.014837,84.436 187.412837,84.436 C182.810837,84.436 179.872837,87.296 179.872837,91.82 L179.872837,95.98 C179.872837,100.816 182.940837,103.364 187.412837,103.364 Z M202.988738,103.364 C206.784738,103.364 209.748738,100.608 209.748738,96.552 C209.748738,92.496 206.784738,89.74 202.988738,89.74 C199.192738,89.74 196.228738,92.496 196.228738,96.552 C196.228738,100.608 199.192738,103.364 202.988738,103.364 Z M202.988738,100.452 C200.908738,100.452 199.504738,98.892 199.504738,96.552 C199.504738,94.212 200.908738,92.652 202.988738,92.652 C205.068738,92.652 206.472738,94.212 206.472738,96.552 C206.472738,98.892 205.068738,100.452 202.988738,100.452 Z M215.44464,103 L215.44464,96.344 C215.44464,94.056 216.56264,92.756 218.66864,92.756 C220.54064,92.756 221.58064,93.822 221.58064,95.616 L221.58064,103 L224.85664,103 L224.85664,95.304 C224.85664,91.95 222.69864,89.896 219.83864,89.896 C217.47264,89.896 216.27664,90.988 215.75664,92.184 L215.39264,92.184 L215.39264,90.104 L212.16864,90.104 L212.16864,103 L215.44464,103 Z M233.828541,103.364 C237.442541,103.364 239.704541,101.362 240.328541,98.424 L237.104541,97.618 C236.766541,99.308 235.856541,100.452 233.880541,100.452 C231.774541,100.452 230.396541,98.892 230.396541,96.552 C230.396541,94.212 231.904541,92.652 233.880541,92.652 C235.856541,92.652 236.870541,93.952 237.104541,95.512 L240.328541,94.68 C239.652541,91.742 237.416541,89.74 233.828541,89.74 C230.084541,89.74 227.120541,92.548 227.120541,96.552 C227.120541,100.556 230.084541,103.364 233.828541,103.364 Z M248.494443,103.364 C251.952443,103.364 253.460443,101.544 254.344443,100.192 L251.666443,98.632 C251.224443,99.542 250.262443,100.556 248.442443,100.556 C246.570443,100.556 245.348443,99.23 245.218443,97.462 L254.604443,97.462 L254.604443,96.24 C254.604443,92.366 252.082443,89.74 248.338443,89.74 C244.542443,89.74 241.864443,92.548 241.864443,96.448 C241.864443,100.452 244.646443,103.364 248.494443,103.364 Z M251.276443,95.278 L245.244443,95.278 C245.452443,93.64 246.466443,92.548 248.312443,92.548 C250.002443,92.548 251.094443,93.588 251.276443,95.278 Z M260.196344,108.2 L260.196344,101.18 L260.508344,101.18 C261.184344,102.272 262.328344,103.364 264.616344,103.364 C267.840344,103.364 270.544344,100.504 270.544344,96.552 C270.544344,92.6 267.840344,89.74 264.616344,89.74 C262.328344,89.74 261.184344,90.832 260.508344,91.924 L260.144344,91.924 L260.144344,90.104 L256.920344,90.104 L256.920344,108.2 L260.196344,108.2 Z M263.732344,100.452 C261.704344,100.452 260.196344,98.996 260.196344,96.552 C260.196344,94.108 261.704344,92.652 263.732344,92.652 C265.708344,92.652 267.268344,94.056 267.268344,96.552 C267.268344,99.048 265.708344,100.452 263.732344,100.452 Z M280.842246,103 L280.842246,100.244 L278.762246,100.244 C278.294246,100.244 278.034246,99.984 278.034246,99.464 L278.034246,92.86 L281.570246,92.86 L281.570246,90.104 L278.034246,90.104 L278.034246,86.1 L274.758246,86.1 L274.758246,90.104 L271.482246,90.104 L271.482246,92.86 L274.758246,92.86 L274.758246,100.504 C274.758246,101.96 275.850246,103 277.306246,103 L280.842246,103 Z M288.904148,103.208 C291.270148,103.208 292.466148,102.116 292.986148,100.92 L293.350148,100.92 L293.350148,103 L296.574148,103 L296.574148,90.104 L293.298148,90.104 L293.298148,96.76 C293.298148,99.048 292.180148,100.348 290.074148,100.348 C288.202148,100.348 287.162148,99.282 287.162148,97.488 L287.162148,90.104 L283.886148,90.104 L283.886148,97.8 C283.886148,101.154 286.044148,103.208 288.904148,103.208 Z M303.830049,103.364 C306.560049,103.364 307.470049,102.038 307.886049,101.18 L308.250049,101.18 L308.250049,103 L311.474049,103 L311.474049,94.862 C311.474049,91.742 309.056049,89.74 305.624049,89.74 C302.192049,89.74 300.320049,91.794 299.306049,93.276 L301.958049,94.888 C302.634049,93.432 303.674049,92.392 305.494049,92.392 C307.314049,92.392 308.198049,93.432 308.198049,94.628 L308.198049,95.044 L303.258049,95.59 C300.788049,95.85 298.994049,97.28 298.994049,99.334 C298.994049,101.804 300.918049,103.364 303.830049,103.364 Z M304.636049,100.66 C303.180049,100.66 302.426049,100.036 302.426049,99.152 C302.426049,98.398 303.024049,97.852 304.246049,97.696 L308.198049,97.228 L308.198049,97.54 C308.198049,99.308 306.924049,100.66 304.636049,100.66 Z M317.793951,103 L317.793951,84.8 L314.517951,84.8 L314.517951,103 L317.793951,103 Z M322.631852,88.596 C323.931852,88.596 324.945852,87.686 324.945852,86.36 C324.945852,85.034 323.931852,84.124 322.631852,84.124 C321.331852,84.124 320.317852,85.034 320.317852,86.36 C320.317852,87.686 321.331852,88.596 322.631852,88.596 Z M324.269852,103 L324.269852,90.104 L320.993852,90.104 L320.993852,103 L324.269852,103 Z M333.293754,103.364 C336.465754,103.364 338.753754,101.674 338.753754,99.126 C338.753754,96.578 336.543754,95.616 333.735754,95.148 L332.175754,94.888 C330.953754,94.68 330.303754,94.316 330.303754,93.614 C330.303754,92.912 330.901754,92.392 332.201754,92.392 C333.501754,92.392 334.983754,92.912 336.465754,94.628 L338.675754,92.678 C337.193754,91.118 335.061754,89.74 332.045754,89.74 C329.081754,89.74 327.131754,91.326 327.131754,93.718 C327.131754,96.11 329.029754,97.228 332.045754,97.722 L333.605754,97.982 C334.905754,98.19 335.581754,98.554 335.581754,99.334 C335.581754,100.114 334.749754,100.712 333.241754,100.712 C331.681754,100.712 329.965754,100.114 328.795754,98.034 L326.221754,99.62 C327.521754,101.674 329.965754,103.364 333.293754,103.364 Z M345.359656,103.364 C348.089656,103.364 348.999656,102.038 349.415656,101.18 L349.779656,101.18 L349.779656,103 L353.003656,103 L353.003656,94.862 C353.003656,91.742 350.585656,89.74 347.153656,89.74 C343.721656,89.74 341.849656,91.794 340.835656,93.276 L343.487656,94.888 C344.163656,93.432 345.203656,92.392 347.023656,92.392 C348.843656,92.392 349.727656,93.432 349.727656,94.628 L349.727656,95.044 L344.787656,95.59 C342.317656,95.85 340.523656,97.28 340.523656,99.334 C340.523656,101.804 342.447656,103.364 345.359656,103.364 Z M346.165656,100.66 C344.709656,100.66 343.955656,100.036 343.955656,99.152 C343.955656,98.398 344.553656,97.852 345.775656,97.696 L349.727656,97.228 L349.727656,97.54 C349.727656,99.308 348.453656,100.66 346.165656,100.66 Z M363.795557,103 L363.795557,100.244 L361.715557,100.244 C361.247557,100.244 360.987557,99.984 360.987557,99.464 L360.987557,92.86 L364.523557,92.86 L364.523557,90.104 L360.987557,90.104 L360.987557,86.1 L357.711557,86.1 L357.711557,90.104 L354.435557,90.104 L354.435557,92.86 L357.711557,92.86 L357.711557,100.504 C357.711557,101.96 358.803557,103 360.259557,103 L363.795557,103 Z M368.633459,88.596 C369.933459,88.596 370.947459,87.686 370.947459,86.36 C370.947459,85.034 369.933459,84.124 368.633459,84.124 C367.333459,84.124 366.319459,85.034 366.319459,86.36 C366.319459,87.686 367.333459,88.596 368.633459,88.596 Z M370.271459,103 L370.271459,90.104 L366.995459,90.104 L366.995459,103 L370.271459,103 Z M379.45136,103.364 C383.24736,103.364 386.21136,100.608 386.21136,96.552 C386.21136,92.496 383.24736,89.74 379.45136,89.74 C375.65536,89.74 372.69136,92.496 372.69136,96.552 C372.69136,100.608 375.65536,103.364 379.45136,103.364 Z M379.45136,100.452 C377.37136,100.452 375.96736,98.892 375.96736,96.552 C375.96736,94.212 377.37136,92.652 379.45136,92.652 C381.53136,92.652 382.93536,94.212 382.93536,96.552 C382.93536,98.892 381.53136,100.452 379.45136,100.452 Z M391.907262,103 L391.907262,96.344 C391.907262,94.056 393.025262,92.756 395.131262,92.756 C397.003262,92.756 398.043262,93.822 398.043262,95.616 L398.043262,103 L401.319262,103 L401.319262,95.304 C401.319262,91.95 399.161262,89.896 396.301262,89.896 C393.935262,89.896 392.739262,90.988 392.219262,92.184 L391.855262,92.184 L391.855262,90.104 L388.631262,90.104 L388.631262,103 L391.907262,103 Z" id="Conceptualisation" fill="#18191A" fill-rule="nonzero"></path>
        <path d="M245.806295,232 L245.806295,217.44 L246.118295,217.44 L249.888295,232 L254.932295,232 L258.702295,217.44 L259.014295,217.44 L259.014295,232 L262.342295,232 L262.342295,213.8 L256.414295,213.8 L252.566295,228.412 L252.254295,228.412 L248.406295,213.8 L242.478295,213.8 L242.478295,232 L245.806295,232 Z M271.574197,232.364 C275.370197,232.364 278.334197,229.608 278.334197,225.552 C278.334197,221.496 275.370197,218.74 271.574197,218.74 C267.778197,218.74 264.814197,221.496 264.814197,225.552 C264.814197,229.608 267.778197,232.364 271.574197,232.364 Z M271.574197,229.452 C269.494197,229.452 268.090197,227.892 268.090197,225.552 C268.090197,223.212 269.494197,221.652 271.574197,221.652 C273.654197,221.652 275.058197,223.212 275.058197,225.552 C275.058197,227.892 273.654197,229.452 271.574197,229.452 Z M286.682098,232.364 C290.296098,232.364 292.558098,230.362 293.182098,227.424 L289.958098,226.618 C289.620098,228.308 288.710098,229.452 286.734098,229.452 C284.628098,229.452 283.250098,227.892 283.250098,225.552 C283.250098,223.212 284.758098,221.652 286.734098,221.652 C288.710098,221.652 289.724098,222.952 289.958098,224.512 L293.182098,223.68 C292.506098,220.742 290.270098,218.74 286.682098,218.74 C282.938098,218.74 279.974098,221.548 279.974098,225.552 C279.974098,229.556 282.938098,232.364 286.682098,232.364 Z M298.774,232 L298.774,227.554 L300.75,225.916 L304.91,232 L308.706,232 L303.064,223.966 L308.914,219.104 L304.338,219.104 L299.086,223.524 L298.774,223.524 L298.774,213.8 L295.498,213.8 L295.498,232 L298.774,232 Z M315.571902,232.208 C317.937902,232.208 319.133902,231.116 319.653902,229.92 L320.017902,229.92 L320.017902,232 L323.241902,232 L323.241902,219.104 L319.965902,219.104 L319.965902,225.76 C319.965902,228.048 318.847902,229.348 316.741902,229.348 C314.869902,229.348 313.829902,228.282 313.829902,226.488 L313.829902,219.104 L310.553902,219.104 L310.553902,226.8 C310.553902,230.154 312.711902,232.208 315.571902,232.208 Z M329.717803,237.2 L329.717803,230.18 L330.029803,230.18 C330.705803,231.272 331.849803,232.364 334.137803,232.364 C337.361803,232.364 340.065803,229.504 340.065803,225.552 C340.065803,221.6 337.361803,218.74 334.137803,218.74 C331.849803,218.74 330.705803,219.832 330.029803,220.924 L329.665803,220.924 L329.665803,219.104 L326.441803,219.104 L326.441803,237.2 L329.717803,237.2 Z M333.253803,229.452 C331.225803,229.452 329.717803,227.996 329.717803,225.552 C329.717803,223.108 331.225803,221.652 333.253803,221.652 C335.229803,221.652 336.789803,223.056 336.789803,225.552 C336.789803,228.048 335.229803,229.452 333.253803,229.452 Z" id="Mockup" fill="#18191A" fill-rule="nonzero"></path>
        <path d="M209.644738,361 L209.644738,357.88 L200.960738,357.88 L200.960738,353.382 L208.760738,353.382 L208.760738,350.262 L200.960738,350.262 L200.960738,345.92 L209.488738,345.92 L209.488738,342.8 L197.528738,342.8 L197.528738,361 L209.644738,361 Z M216.17264,361.364 C218.90264,361.364 219.81264,360.038 220.22864,359.18 L220.59264,359.18 L220.59264,361 L223.81664,361 L223.81664,352.862 C223.81664,349.742 221.39864,347.74 217.96664,347.74 C214.53464,347.74 212.66264,349.794 211.64864,351.276 L214.30064,352.888 C214.97664,351.432 216.01664,350.392 217.83664,350.392 C219.65664,350.392 220.54064,351.432 220.54064,352.628 L220.54064,353.044 L215.60064,353.59 C213.13064,353.85 211.33664,355.28 211.33664,357.334 C211.33664,359.804 213.26064,361.364 216.17264,361.364 Z M216.97864,358.66 C215.52264,358.66 214.76864,358.036 214.76864,357.152 C214.76864,356.398 215.36664,355.852 216.58864,355.696 L220.54064,355.228 L220.54064,355.54 C220.54064,357.308 219.26664,358.66 216.97864,358.66 Z M230.136541,361 L230.136541,353.616 C230.136541,351.796 231.332541,350.912 232.996541,350.912 L234.920541,350.912 L234.920541,348.052 L233.672541,348.052 C232.034541,348.052 230.942541,348.546 230.448541,349.976 L230.084541,349.976 L230.084541,348.104 L226.860541,348.104 L226.860541,361 L230.136541,361 Z M240.148443,361 L240.148443,342.8 L236.872443,342.8 L236.872443,361 L240.148443,361 Z M249.016344,366.2 L256.088344,348.104 L252.552344,348.104 L249.172344,357.36 L248.860344,357.36 L245.480344,348.104 L241.944344,348.104 L247.300344,361.832 L245.480344,366.2 L249.016344,366.2 Z M268.676148,361 L268.676148,354.344 L272.732148,354.344 C276.086148,354.344 278.556148,352.056 278.556148,348.572 C278.556148,345.088 276.164148,342.8 272.732148,342.8 L265.244148,342.8 L265.244148,361 L268.676148,361 Z M272.394148,351.224 L268.676148,351.224 L268.676148,345.92 L272.394148,345.92 C274.032148,345.92 275.124148,346.96 275.124148,348.572 C275.124148,350.184 274.032148,351.224 272.394148,351.224 Z M283.888049,361 L283.888049,353.616 C283.888049,351.796 285.084049,350.912 286.748049,350.912 L288.672049,350.912 L288.672049,348.052 L287.424049,348.052 C285.786049,348.052 284.694049,348.546 284.200049,349.976 L283.836049,349.976 L283.836049,348.104 L280.612049,348.104 L280.612049,361 L283.888049,361 Z M296.213951,361.364 C300.009951,361.364 302.973951,358.608 302.973951,354.552 C302.973951,350.496 300.009951,347.74 296.213951,347.74 C292.417951,347.74 289.453951,350.496 289.453951,354.552 C289.453951,358.608 292.417951,361.364 296.213951,361.364 Z M296.213951,358.452 C294.133951,358.452 292.729951,356.892 292.729951,354.552 C292.729951,352.212 294.133951,350.652 296.213951,350.652 C298.293951,350.652 299.697951,352.212 299.697951,354.552 C299.697951,356.892 298.293951,358.452 296.213951,358.452 Z M313.271852,361 L313.271852,358.244 L311.191852,358.244 C310.723852,358.244 310.463852,357.984 310.463852,357.464 L310.463852,350.86 L313.999852,350.86 L313.999852,348.104 L310.463852,348.104 L310.463852,344.1 L307.187852,344.1 L307.187852,348.104 L303.911852,348.104 L303.911852,350.86 L307.187852,350.86 L307.187852,358.504 C307.187852,359.96 308.279852,361 309.735852,361 L313.271852,361 Z M322.321754,361.364 C326.117754,361.364 329.081754,358.608 329.081754,354.552 C329.081754,350.496 326.117754,347.74 322.321754,347.74 C318.525754,347.74 315.561754,350.496 315.561754,354.552 C315.561754,358.608 318.525754,361.364 322.321754,361.364 Z M322.321754,358.452 C320.241754,358.452 318.837754,356.892 318.837754,354.552 C318.837754,352.212 320.241754,350.652 322.321754,350.652 C324.401754,350.652 325.805754,352.212 325.805754,354.552 C325.805754,356.892 324.401754,358.452 322.321754,358.452 Z M339.379656,361 L339.379656,358.244 L337.299656,358.244 C336.831656,358.244 336.571656,357.984 336.571656,357.464 L336.571656,350.86 L340.107656,350.86 L340.107656,348.104 L336.571656,348.104 L336.571656,344.1 L333.295656,344.1 L333.295656,348.104 L330.019656,348.104 L330.019656,350.86 L333.295656,350.86 L333.295656,358.504 C333.295656,359.96 334.387656,361 335.843656,361 L339.379656,361 Z M348.247557,366.2 L355.319557,348.104 L351.783557,348.104 L348.403557,357.36 L348.091557,357.36 L344.711557,348.104 L341.175557,348.104 L346.531557,361.832 L344.711557,366.2 L348.247557,366.2 Z M360.391459,366.2 L360.391459,359.18 L360.703459,359.18 C361.379459,360.272 362.523459,361.364 364.811459,361.364 C368.035459,361.364 370.739459,358.504 370.739459,354.552 C370.739459,350.6 368.035459,347.74 364.811459,347.74 C362.523459,347.74 361.379459,348.832 360.703459,349.924 L360.339459,349.924 L360.339459,348.104 L357.115459,348.104 L357.115459,366.2 L360.391459,366.2 Z M363.927459,358.452 C361.899459,358.452 360.391459,356.996 360.391459,354.552 C360.391459,352.108 361.899459,350.652 363.927459,350.652 C365.903459,350.652 367.463459,352.056 367.463459,354.552 C367.463459,357.048 365.903459,358.452 363.927459,358.452 Z M379.00936,361.364 C382.46736,361.364 383.97536,359.544 384.85936,358.192 L382.18136,356.632 C381.73936,357.542 380.77736,358.556 378.95736,358.556 C377.08536,358.556 375.86336,357.23 375.73336,355.462 L385.11936,355.462 L385.11936,354.24 C385.11936,350.366 382.59736,347.74 378.85336,347.74 C375.05736,347.74 372.37936,350.548 372.37936,354.448 C372.37936,358.452 375.16136,361.364 379.00936,361.364 Z M381.79136,353.278 L375.75936,353.278 C375.96736,351.64 376.98136,350.548 378.82736,350.548 C380.51736,350.548 381.60936,351.588 381.79136,353.278 Z" id="EarlyPrototype" fill="#18191A" fill-rule="nonzero"></path>
        <path d="M191.846787,490 L191.846787,483.344 L195.902787,483.344 C199.256787,483.344 201.726787,481.056 201.726787,477.572 C201.726787,474.088 199.334787,471.8 195.902787,471.8 L188.414787,471.8 L188.414787,490 L191.846787,490 Z M195.564787,480.224 L191.846787,480.224 L191.846787,474.92 L195.564787,474.92 C197.202787,474.92 198.294787,475.96 198.294787,477.572 C198.294787,479.184 197.202787,480.224 195.564787,480.224 Z M209.502689,490.364 C213.298689,490.364 216.262689,487.608 216.262689,483.552 C216.262689,479.496 213.298689,476.74 209.502689,476.74 C205.706689,476.74 202.742689,479.496 202.742689,483.552 C202.742689,487.608 205.706689,490.364 209.502689,490.364 Z M209.502689,487.452 C207.422689,487.452 206.018689,485.892 206.018689,483.552 C206.018689,481.212 207.422689,479.652 209.502689,479.652 C211.582689,479.652 212.986689,481.212 212.986689,483.552 C212.986689,485.892 211.582689,487.452 209.502689,487.452 Z M221.958591,490 L221.958591,471.8 L218.682591,471.8 L218.682591,490 L221.958591,490 Z M226.796492,475.596 C228.096492,475.596 229.110492,474.686 229.110492,473.36 C229.110492,472.034 228.096492,471.124 226.796492,471.124 C225.496492,471.124 224.482492,472.034 224.482492,473.36 C224.482492,474.686 225.496492,475.596 226.796492,475.596 Z M228.434492,490 L228.434492,477.104 L225.158492,477.104 L225.158492,490 L228.434492,490 Z M237.458394,490.364 C240.630394,490.364 242.918394,488.674 242.918394,486.126 C242.918394,483.578 240.708394,482.616 237.900394,482.148 L236.340394,481.888 C235.118394,481.68 234.468394,481.316 234.468394,480.614 C234.468394,479.912 235.066394,479.392 236.366394,479.392 C237.666394,479.392 239.148394,479.912 240.630394,481.628 L242.840394,479.678 C241.358394,478.118 239.226394,476.74 236.210394,476.74 C233.246394,476.74 231.296394,478.326 231.296394,480.718 C231.296394,483.11 233.194394,484.228 236.210394,484.722 L237.770394,484.982 C239.070394,485.19 239.746394,485.554 239.746394,486.334 C239.746394,487.114 238.914394,487.712 237.406394,487.712 C235.846394,487.712 234.130394,487.114 232.960394,485.034 L230.386394,486.62 C231.686394,488.674 234.130394,490.364 237.458394,490.364 Z M248.666295,490 L248.666295,483.344 C248.666295,481.056 249.784295,479.756 251.890295,479.756 C253.762295,479.756 254.802295,480.822 254.802295,482.616 L254.802295,490 L258.078295,490 L258.078295,482.304 C258.078295,478.95 255.920295,476.896 253.060295,476.896 C250.694295,476.896 249.498295,477.988 248.978295,479.184 L248.666295,479.184 L248.666295,471.8 L245.390295,471.8 L245.390295,490 L248.666295,490 Z M266.972197,490.364 C270.430197,490.364 271.938197,488.544 272.822197,487.192 L270.144197,485.632 C269.702197,486.542 268.740197,487.556 266.920197,487.556 C265.048197,487.556 263.826197,486.23 263.696197,484.462 L273.082197,484.462 L273.082197,483.24 C273.082197,479.366 270.560197,476.74 266.816197,476.74 C263.020197,476.74 260.342197,479.548 260.342197,483.448 C260.342197,487.452 263.124197,490.364 266.972197,490.364 Z M269.754197,482.278 L263.722197,482.278 C263.930197,480.64 264.944197,479.548 266.790197,479.548 C268.480197,479.548 269.572197,480.588 269.754197,482.278 Z M280.546098,490.364 C282.834098,490.364 283.978098,489.272 284.654098,488.18 L285.018098,488.18 L285.018098,490 L288.242098,490 L288.242098,471.8 L284.966098,471.8 L284.966098,478.924 L284.654098,478.924 C283.978098,477.832 282.834098,476.74 280.546098,476.74 C277.322098,476.74 274.618098,479.6 274.618098,483.552 C274.618098,487.504 277.322098,490.364 280.546098,490.364 Z M281.430098,487.452 C279.454098,487.452 277.894098,486.048 277.894098,483.552 C277.894098,481.056 279.454098,479.652 281.430098,479.652 C283.458098,479.652 284.966098,481.108 284.966098,483.552 C284.966098,485.996 283.458098,487.452 281.430098,487.452 Z M302.233902,490 L302.233902,483.344 L306.289902,483.344 C309.643902,483.344 312.113902,481.056 312.113902,477.572 C312.113902,474.088 309.721902,471.8 306.289902,471.8 L298.801902,471.8 L298.801902,490 L302.233902,490 Z M305.951902,480.224 L302.233902,480.224 L302.233902,474.92 L305.951902,474.92 C307.589902,474.92 308.681902,475.96 308.681902,477.572 C308.681902,479.184 307.589902,480.224 305.951902,480.224 Z M317.445803,490 L317.445803,482.616 C317.445803,480.796 318.641803,479.912 320.305803,479.912 L322.229803,479.912 L322.229803,477.052 L320.981803,477.052 C319.343803,477.052 318.251803,477.546 317.757803,478.976 L317.393803,478.976 L317.393803,477.104 L314.169803,477.104 L314.169803,490 L317.445803,490 Z M329.771705,490.364 C333.567705,490.364 336.531705,487.608 336.531705,483.552 C336.531705,479.496 333.567705,476.74 329.771705,476.74 C325.975705,476.74 323.011705,479.496 323.011705,483.552 C323.011705,487.608 325.975705,490.364 329.771705,490.364 Z M329.771705,487.452 C327.691705,487.452 326.287705,485.892 326.287705,483.552 C326.287705,481.212 327.691705,479.652 329.771705,479.652 C331.851705,479.652 333.255705,481.212 333.255705,483.552 C333.255705,485.892 331.851705,487.452 329.771705,487.452 Z M344.099606,490.364 C346.387606,490.364 347.531606,489.272 348.207606,488.18 L348.571606,488.18 L348.571606,490 L351.795606,490 L351.795606,471.8 L348.519606,471.8 L348.519606,478.924 L348.207606,478.924 C347.531606,477.832 346.387606,476.74 344.099606,476.74 C340.875606,476.74 338.171606,479.6 338.171606,483.552 C338.171606,487.504 340.875606,490.364 344.099606,490.364 Z M344.983606,487.452 C343.007606,487.452 341.447606,486.048 341.447606,483.552 C341.447606,481.056 343.007606,479.652 344.983606,479.652 C347.011606,479.652 348.519606,481.108 348.519606,483.552 C348.519606,485.996 347.011606,487.452 344.983606,487.452 Z M359.857508,490.208 C362.223508,490.208 363.419508,489.116 363.939508,487.92 L364.303508,487.92 L364.303508,490 L367.527508,490 L367.527508,477.104 L364.251508,477.104 L364.251508,483.76 C364.251508,486.048 363.133508,487.348 361.027508,487.348 C359.155508,487.348 358.115508,486.282 358.115508,484.488 L358.115508,477.104 L354.839508,477.104 L354.839508,484.8 C354.839508,488.154 356.997508,490.208 359.857508,490.208 Z M376.655409,490.364 C380.269409,490.364 382.531409,488.362 383.155409,485.424 L379.931409,484.618 C379.593409,486.308 378.683409,487.452 376.707409,487.452 C374.601409,487.452 373.223409,485.892 373.223409,483.552 C373.223409,481.212 374.731409,479.652 376.707409,479.652 C378.683409,479.652 379.697409,480.952 379.931409,482.512 L383.155409,481.68 C382.479409,478.742 380.243409,476.74 376.655409,476.74 C372.911409,476.74 369.947409,479.548 369.947409,483.552 C369.947409,487.556 372.911409,490.364 376.655409,490.364 Z M393.349311,490 L393.349311,487.244 L391.269311,487.244 C390.801311,487.244 390.541311,486.984 390.541311,486.464 L390.541311,479.86 L394.077311,479.86 L394.077311,477.104 L390.541311,477.104 L390.541311,473.1 L387.265311,473.1 L387.265311,477.104 L383.989311,477.104 L383.989311,479.86 L387.265311,479.86 L387.265311,487.504 C387.265311,488.96 388.357311,490 389.813311,490 L393.349311,490 Z" id="PolishedProduct" fill="#18191A" fill-rule="nonzero"></path>
        <path id="Path" d="M292.25,132.5 L292.25,174.166 L297.25,174.166667 L291.5,186.166667 L285.75,174.166667 L290.75,174.166 L290.75,132.5 L292.25,132.5 Z" fill="#18191A" fill-rule="nonzero" opacity="0.600000024"></path>
        <path id="Path-Copy-3" d="M292.25,0.5 L292.25,54.166 L297.25,54.1666667 L291.5,66.1666667 L285.75,54.1666667 L290.75,54.166 L290.75,0.5 L292.25,0.5 Z" fill="#18191A" fill-rule="nonzero" opacity="0.200000003"></path>
        <path id="Path-Copy-4" d="M292.25,508.5 L292.25,574.166 L297.25,574.166667 L291.5,586.166667 L285.75,574.166667 L290.75,574.166 L290.75,508.5 L292.25,508.5 Z" fill="#18191A" fill-rule="nonzero" opacity="0.200000003"></path>
        <path id="Path-Copy" d="M292.25,261.5 L292.25,303.166 L297.25,303.166667 L291.5,315.166667 L285.75,303.166667 L290.75,303.166 L290.75,261.5 L292.25,261.5 Z" fill="#18191A" fill-rule="nonzero" opacity="0.600000024"></path>
        <path id="Path-Copy-2" d="M292.25,390.5 L292.25,432.166 L297.25,432.166667 L291.5,444.166667 L285.75,432.166667 L290.75,432.166 L290.75,390.5 L292.25,390.5 Z" fill="#18191A" fill-rule="nonzero" opacity="0.699999988"></path>
        <path id="Path-2" d="M428.070451,93.0236742 L427.312067,98.0050576 C450.246285,102.701236 467.430922,113.59123 477.057861,128.620939 C486.228836,142.938792 487.864502,160.135992 481.69152,176.274315 C475.266178,193.072396 460.926759,207.502176 440.464593,216.812163 C417.91682,227.071072 388.925339,230.796945 354.973257,226.869871 L353.910641,226.744658 L354.089359,225.255342 C388.239451,229.353353 417.325728,225.692049 439.843391,215.44684 C459.959322,206.294384 474.011683,192.153471 480.290513,175.738423 C486.294801,160.041124 484.706637,143.343342 475.794756,129.429992 C466.407953,114.775185 449.602449,104.116036 427.084331,99.489572 L426.337332,104.392328 L415.340948,96.8995293 L428.070451,93.0236742 Z" fill="#18191A" fill-rule="nonzero" opacity="0.600000024"></path>
        <path id="Path-2-Copy-2" d="M407.512099,347.858382 L408.151354,352.856502 C433.483808,350.913017 455.347836,357.662158 471.495174,371.278954 C486.371643,383.824047 495.378093,401.526973 496.548311,419.756849 C497.74401,438.383657 490.684544,455.791784 476.271302,467.847464 C460.327591,481.183274 436.403027,487.376908 405.861131,484.827002 L404.933595,484.747054 L405.066405,483.252946 C435.680294,485.97418 459.534347,479.891228 475.308923,466.696886 C489.346754,454.955213 496.21715,438.013319 495.051392,419.85294 C493.90747,402.032716 485.09371,384.708538 470.528179,372.425655 C454.703293,359.080777 433.256622,352.45172 408.342619,354.346261 L408.971345,359.265424 L396.338722,355.084594 L407.512099,347.858382 Z" fill="#18191A" fill-rule="nonzero" opacity="0.600000024"></path>
        <path id="Path-2-Copy" d="M154.059434,92.6491588 L166.661865,96.9201325 L155.437147,104.066335 L154.841,99.124 L154.395206,99.1906602 C111.784397,105.620213 79.3257068,123.70489 58.8438304,150.544394 C40.0039689,175.232196 32.261347,206.36535 36.3764941,237.811787 C40.4554214,268.981446 55.9104699,298.192263 80.0564451,319.273565 C106.029731,341.950251 140.558425,354.165102 180.626662,353.281106 L181.842543,353.250306 L181.885416,354.749694 C140.926544,355.920857 105.593289,343.560458 79.0699192,320.403506 C54.6466368,299.080094 39.0151847,269.535864 34.8891752,238.006421 C30.7237844,206.176041 38.5654372,174.644683 57.6513842,149.634409 C78.4571152,122.370526 111.437293,104.054796 154.66069,97.6341968 L154.059434,92.6491588 Z" fill="#18191A" fill-rule="nonzero" opacity="0.600000024"></path>
    </g>
</svg>