<svg width="1058" height="1058" viewBox="0 0 1058 1058" fill="none" xmlns="http://www.w3.org/2000/svg">
<g clip-path="url(#clip0)">
<g clip-path="url(#clip1)">
<path d="M251.664 243.982C254.951 245.023 258.517 244.715 261.577 243.127C264.637 241.538 266.941 238.799 267.982 235.512C269.023 232.225 268.715 228.66 267.127 225.599C265.538 222.539 262.799 220.235 259.512 219.195C256.225 218.154 252.659 218.462 249.599 220.05C246.539 221.638 244.235 224.377 243.195 227.664C242.154 230.951 242.462 234.517 244.05 237.577C245.638 240.637 248.377 242.941 251.664 243.982Z" fill="#21CEA1"/>
<path fill-rule="evenodd" clip-rule="evenodd" d="M196.458 212.867C212.312 190.226 241.573 179.425 269.322 188.21C297.071 196.996 314.783 222.67 314.718 250.31C298.863 272.951 269.603 283.752 241.854 274.966C214.105 266.18 196.393 240.507 196.458 212.867ZM280.375 239.436C278.294 246.01 273.686 251.488 267.566 254.665C261.445 257.842 254.314 258.457 247.74 256.376C241.166 254.294 235.688 249.686 232.511 243.566C229.335 237.446 228.719 230.314 230.801 223.74C232.882 217.166 237.49 211.688 243.61 208.512C249.73 205.335 256.862 204.72 263.436 206.801C270.01 208.882 275.488 213.49 278.665 219.61C281.841 225.731 282.457 232.862 280.375 239.436Z" fill="#21CEA1"/>
</g>
<g filter="url(#filter0_d)">
<rect x="84" y="258" width="882" height="525" rx="20" fill="white" stroke="#2B4FEB" stroke-width="16"/>
<rect x="348" y="421" width="353" height="17" rx="8.5" fill="#EAEDFD"/>
<rect x="348" y="451" width="353" height="17" rx="8.5" fill="#EAEDFD"/>
<rect x="348" y="481" width="338" height="17" rx="8.5" fill="#EAEDFD"/>
<rect x="348" y="511" width="338" height="17" rx="8.5" fill="#EAEDFD"/>
<rect x="348" y="541" width="353" height="17" rx="8.5" fill="#EAEDFD"/>
<rect x="348" y="571" width="314" height="17" rx="8.5" fill="#EAEDFD"/>
<rect x="348" y="601" width="338" height="17" rx="8.5" fill="#EAEDFD"/>
<rect x="348" y="631" width="190" height="17" rx="8.5" fill="#EAEDFD"/>
<path d="M525.793 785V822H479H571" stroke="#2B4FEB" stroke-width="16" stroke-linecap="round" stroke-linejoin="round"/>
<rect x="109.5" y="489.5" width="212" height="212" rx="11.5" stroke="#21CEA0"/>
<path d="M728 668C728 661.373 733.373 656 740 656H929C935.627 656 941 661.373 941 668V775H728V668Z" fill="#21CEA1"/>
<path d="M109 733C109 726.373 114.373 721 121 721H310C316.627 721 322 726.373 322 733V775H109V733Z" fill="#FF7D00"/>
<rect x="109" y="285" width="147" height="45" rx="12" fill="#2B4FEB"/>
<rect x="109" y="342" width="833" height="45" rx="12" fill="#21CEA0"/>
<path fill-rule="evenodd" clip-rule="evenodd" d="M216 621.8C222.577 621.8 228.885 619.187 233.536 614.536C238.187 609.885 240.8 603.577 240.8 597C240.8 590.423 238.187 584.115 233.536 579.464C228.885 574.813 222.577 572.2 216 572.2C209.423 572.2 203.115 574.813 198.464 579.464C193.813 584.115 191.2 590.423 191.2 597C191.2 603.577 193.813 609.885 198.464 614.536C203.115 619.187 209.423 621.8 216 621.8ZM214.62 588.221C214.154 587.909 213.611 587.73 213.05 587.703C212.49 587.676 211.932 587.801 211.437 588.066C210.943 588.331 210.529 588.725 210.241 589.207C209.952 589.688 209.8 590.239 209.8 590.8V603.2C209.8 603.761 209.952 604.312 210.241 604.793C210.529 605.275 210.943 605.669 211.437 605.934C211.932 606.199 212.49 606.324 213.05 606.297C213.611 606.27 214.154 606.091 214.62 605.779L223.92 599.579C224.345 599.296 224.693 598.913 224.934 598.463C225.175 598.013 225.301 597.51 225.301 597C225.301 596.49 225.175 595.987 224.934 595.537C224.693 595.087 224.345 594.704 223.92 594.421L214.62 588.221Z" fill="#21CEA0"/>
<path d="M777.265 414.155L826.877 447.09C828.211 447.976 829.888 448.169 831.388 447.61L915.046 416.436C919.996 414.591 924.052 420.685 920.44 424.54L887.404 459.799C885.172 462.182 885.785 466.029 888.646 467.601L935.179 493.156C938.801 495.145 938.584 500.419 934.811 502.104L899.552 517.851C896.241 519.329 895.556 523.73 898.26 526.145L928.202 552.89C932.137 556.404 928.651 562.828 923.56 561.443L897.175 554.271C894.57 553.563 891.872 555.051 891.082 557.633L876.611 604.928C875.184 609.594 868.603 609.662 867.08 605.026L862.719 591.754C861.639 588.465 857.624 587.243 854.894 589.372L814.075 621.203C810.791 623.764 806 621.424 806 617.26V593.846C806 589.956 801.754 587.556 798.421 589.562L723.437 634.698C718.798 637.491 713.649 631.947 716.776 627.527L763.92 560.888C766.263 557.576 763.895 553 759.838 553H736.512C730.967 553 729.544 545.316 734.723 543.331L763.418 532.331C766.487 531.155 767.606 527.388 765.676 524.727L727.755 472.435C725.357 469.13 727.719 464.5 731.802 464.5H764.5C767.261 464.5 769.5 462.261 769.5 459.5V418.321C769.5 414.332 773.942 411.949 777.265 414.155Z" fill="#FF7D00"/>
</g>
<g clip-path="url(#clip2)">
<path fill-rule="evenodd" clip-rule="evenodd" d="M150.174 893.286C151.219 894.056 152.012 895.12 152.453 896.345C152.895 897.57 152.965 898.901 152.656 900.169L133.89 977.113C133.58 978.381 132.905 979.53 131.948 980.413C130.992 981.297 129.798 981.876 128.517 982.078C127.236 982.28 125.926 982.094 124.752 981.546C123.578 980.998 122.593 980.111 121.922 978.997L104.129 949.475L87.6734 945.461C85.9857 945.05 84.5319 943.979 83.6318 942.486C82.7317 940.992 82.459 939.198 82.8738 937.497L89.1291 911.849C89.5439 910.148 90.6121 908.681 92.0987 907.77C93.5854 906.858 95.3687 906.577 97.0564 906.989L113.512 911.002L142.899 892.986C144.008 892.306 145.291 891.971 146.586 892.025C147.881 892.078 149.13 892.517 150.174 893.286Z" fill="#FF7D00"/>
<path fill-rule="evenodd" clip-rule="evenodd" d="M162.098 924.842C163.584 923.931 165.367 923.65 167.055 924.062C168.742 924.474 170.196 925.543 171.096 927.037L177.302 937.334L187.552 931.05C188.288 930.581 189.109 930.264 189.968 930.117C190.826 929.97 191.704 929.997 192.551 930.196C193.398 930.394 194.196 930.761 194.9 931.274C195.603 931.787 196.197 932.437 196.648 933.184C197.099 933.932 197.397 934.763 197.524 935.629C197.652 936.495 197.607 937.379 197.392 938.229C197.177 939.078 196.796 939.877 196.272 940.578C195.748 941.279 195.09 941.868 194.338 942.311L184.088 948.595L190.294 958.893C191.159 960.385 191.405 962.161 190.98 963.839C190.556 965.516 189.494 966.961 188.025 967.862C186.555 968.764 184.794 969.049 183.122 968.656C181.45 968.264 180 967.226 179.085 965.765L172.879 955.467L162.629 961.751C161.144 962.627 159.379 962.881 157.714 962.46C156.049 962.038 154.618 960.974 153.728 959.498C152.838 958.021 152.561 956.25 152.956 954.565C153.352 952.88 154.388 951.417 155.843 950.49L166.093 944.206L159.887 933.909C158.987 932.415 158.714 930.621 159.129 928.921C159.544 927.221 160.612 925.754 162.098 924.842Z" fill="#FF7D00"/>
</g>
<path fill-rule="evenodd" clip-rule="evenodd" d="M865.874 43.4633C865.391 41.7696 865.623 39.9468 866.52 38.3957C867.418 36.8447 868.906 35.6925 870.658 35.1926C872.41 34.6928 874.282 34.8862 875.863 35.7304C877.444 36.5746 878.603 38.0003 879.086 39.694L889.106 74.8171C889.348 75.6639 889.928 76.3768 890.718 76.7989C891.508 77.221 892.444 77.3177 893.32 77.0678C894.196 76.8179 894.941 76.2418 895.389 75.4662C895.838 74.6907 895.954 73.7793 895.713 72.9324L887.514 44.1954C887.031 42.5017 887.264 40.6788 888.161 39.1277C889.058 37.5767 890.547 36.4245 892.299 35.9247C894.051 35.4248 895.923 35.6183 897.504 36.4624C899.084 37.3066 900.244 38.7323 900.727 40.426L908.925 69.1631C909.167 70.01 909.746 70.7228 910.537 71.1449C911.327 71.567 912.263 71.6637 913.139 71.4138C914.015 71.1639 914.759 70.5878 915.208 69.8123C915.656 69.0367 915.773 68.1253 915.531 67.2785L910.977 51.3134C910.493 49.6197 910.726 47.7969 911.623 46.2458C912.521 44.6947 914.009 43.5426 915.761 43.0427C917.513 42.5429 919.385 42.7363 920.966 43.5805C922.546 44.4246 923.706 45.8504 924.189 47.5441L933.298 79.4742C934.973 85.3445 935.435 91.4987 934.659 97.5852C933.882 103.672 931.881 109.571 928.771 114.947C925.662 120.323 921.503 125.071 916.533 128.918C911.564 132.765 905.88 135.636 899.808 137.369C893.735 139.101 887.392 139.661 881.14 139.015C874.889 138.369 868.852 136.531 863.373 133.605C857.895 130.679 853.083 126.723 849.212 121.962C845.34 117.201 842.486 111.73 840.811 105.859L837.167 93.0874C836.684 91.3938 836.917 89.5709 837.814 88.0198C838.711 86.4688 840.2 85.3166 841.952 84.8167C843.704 84.3169 845.576 84.5103 847.157 85.3545C848.737 86.1987 849.897 87.6244 850.38 89.3181L854.934 105.283C855.176 106.13 855.756 106.843 856.546 107.265C857.336 107.687 858.272 107.784 859.149 107.534C860.025 107.284 860.769 106.708 861.217 105.932C861.666 105.157 861.782 104.245 861.541 103.398L847.877 55.5033C847.394 53.8097 847.626 51.9868 848.524 50.4357C849.421 48.8847 850.909 47.7325 852.661 47.2326C854.413 46.7328 856.286 46.9262 857.866 47.7704C859.447 48.6146 860.606 50.0403 861.089 51.734L869.288 80.4711C869.529 81.3179 870.109 82.0308 870.899 82.4529C871.689 82.875 872.626 82.9717 873.502 82.7218C874.378 82.4719 875.122 81.8958 875.571 81.1202C876.019 80.3447 876.135 79.4333 875.894 78.5864L865.874 43.4633Z" fill="#2B4FEB"/>
<path d="M603.293 639.511L609.36 632.742L615.963 644.325L615.963 644.326C616.619 645.475 617.705 646.316 618.981 646.665C620.258 647.014 621.62 646.841 622.77 646.185C623.919 645.529 624.76 644.443 625.109 643.167C625.457 641.89 625.285 640.528 624.629 639.379C624.629 639.379 624.629 639.379 624.629 639.379C624.629 639.379 624.629 639.378 624.629 639.378L618.023 627.795L626.942 626.021L626.944 626.02C627.886 625.831 628.753 625.374 629.442 624.704C630.13 624.035 630.611 623.18 630.826 622.243C631.04 621.307 630.98 620.328 630.652 619.425C630.324 618.522 629.742 617.733 628.976 617.153L628.975 617.152L598.218 593.892C598.218 593.892 598.218 593.892 598.218 593.892C597.439 593.303 596.505 592.955 595.53 592.892C594.556 592.829 593.584 593.053 592.736 593.537C591.888 594.021 591.2 594.743 590.759 595.614C590.317 596.484 590.141 597.466 590.252 598.436C590.252 598.436 590.252 598.436 590.252 598.436L594.62 636.75L594.62 636.751C594.729 637.706 595.112 638.61 595.723 639.353C596.334 640.095 597.147 640.646 598.063 640.937C598.98 641.229 599.961 641.25 600.889 640.997L600.518 639.638L600.889 640.997C601.816 640.743 602.651 640.228 603.293 639.511C603.293 639.511 603.293 639.511 603.293 639.511Z" fill="#101228" stroke="white" stroke-width="2.81621"/>
<path d="M624.955 654.198L657.972 698.992C658.719 700.006 659.785 700.74 660.998 701.077L756.231 727.545C760.306 728.677 761.726 733.729 758.837 736.818L694.214 805.938C690.887 809.497 693.341 815.315 698.212 815.416L793.497 817.385C795.092 817.418 796.626 816.773 797.718 815.61L873.031 735.451C875.688 732.623 880.343 733.266 882.133 736.71L933.673 835.826C935.009 838.394 934.18 841.556 931.757 843.14L848.488 897.546C844.391 900.223 845.422 906.491 850.16 907.715L974.996 939.965C975.639 940.131 976.307 940.182 976.968 940.116L1015.55 936.238C1018.65 935.926 1021.41 938.183 1021.72 941.278L1025.16 975.461C1025.39 977.777 1027.02 979.711 1029.27 980.329L1052.81 986.808C1056.74 987.888 1058.26 992.65 1055.68 995.803L1034.48 1021.74C1032.29 1024.42 1033.01 1028.41 1035.98 1030.16L1124 1081.95" stroke="black" stroke-width="2.81621" stroke-linecap="round" stroke-linejoin="round" stroke-dasharray="14.08 14.08"/>
</g>
<defs>
<filter id="filter0_d" x="29" y="222" width="992" height="674" filterUnits="userSpaceOnUse" color-interpolation-filters="sRGB">
<feFlood flood-opacity="0" result="BackgroundImageFix"/>
<feColorMatrix in="SourceAlpha" type="matrix" values="0 0 0 0 0 0 0 0 0 0 0 0 0 0 0 0 0 0 127 0"/>
<feOffset dy="19"/>
<feGaussianBlur stdDeviation="23.5"/>
<feColorMatrix type="matrix" values="0 0 0 0 0.0398533 0 0 0 0 0.247674 0 0 0 0 0.491638 0 0 0 0.25 0"/>
<feBlend mode="normal" in2="BackgroundImageFix" result="effect1_dropShadow"/>
<feBlend mode="normal" in="SourceGraphic" in2="effect1_dropShadow" result="shape"/>
</filter>
<clipPath id="clip0">
<rect width="1058" height="1058" fill="white"/>
</clipPath>
<clipPath id="clip1">
<rect width="130" height="130" fill="white" transform="translate(213.24 150) rotate(17.5685)"/>
</clipPath>
<clipPath id="clip2">
<rect width="131" height="132" fill="white" transform="translate(95.2766 859) rotate(13.7063)"/>
</clipPath>
</defs>
</svg>
