<?xml version="1.0" encoding="UTF-8"?>
<svg width="582px" height="563px" viewBox="0 0 582 563" version="1.1" xmlns="http://www.w3.org/2000/svg" xmlns:xlink="http://www.w3.org/1999/xlink">
    <title>acc_game_design_process</title>
    <g id="acc_game_design_process" stroke="none" stroke-width="1" fill="none" fill-rule="evenodd">
        <rect fill="#FFFFFF" x="0" y="0" width="582" height="563"></rect>
        <text id="Conceptualisation" font-family="SpaceGrotesk-Bold, Space Grotesk" font-size="26" font-weight="bold" letter-spacing="0.287901579" fill="#18191A">
            <tspan x="179.092837" y="103">Conceptualisation</tspan>
        </text>
        <text id="Mockup" font-family="SpaceGrotesk-Bold, Space Grotesk" font-size="26" font-weight="bold" letter-spacing="0.287901579" fill="#18191A">
            <tspan x="240.970295" y="232">Mockup</tspan>
        </text>
        <text id="Early-Prototype" font-family="SpaceGrotesk-Bold, Space Grotesk" font-size="26" font-weight="bold" letter-spacing="0.287901579" fill="#18191A">
            <tspan x="196.020738" y="361">Early Prototype</tspan>
        </text>
        <text id="Polished-Product-Copy" font-family="SpaceGrotesk-Bold, Space Grotesk" font-size="26" font-weight="bold" letter-spacing="0.287901579" fill="#18191A">
            <tspan x="186.906787" y="490">Polished Product</tspan>
        </text>
        <path id="Path" d="M292.25,132.5 L292.25,174.166 L297.25,174.166667 L291.5,186.166667 L285.75,174.166667 L290.75,174.166 L290.75,132.5 L292.25,132.5 Z" fill="#18191A" fill-rule="nonzero" opacity="0.600000024"></path>
        <path id="Path-Copy-3" d="M292.25,0.5 L292.25,54.166 L297.25,54.1666667 L291.5,66.1666667 L285.75,54.1666667 L290.75,54.166 L290.75,0.5 L292.25,0.5 Z" fill="#18191A" fill-rule="nonzero" opacity="0.200000003"></path>
        <path id="Path-Copy-4" d="M292.25,508.5 L292.25,574.166 L297.25,574.166667 L291.5,586.166667 L285.75,574.166667 L290.75,574.166 L290.75,508.5 L292.25,508.5 Z" fill="#18191A" fill-rule="nonzero" opacity="0.200000003"></path>
        <path id="Path-Copy" d="M292.25,261.5 L292.25,303.166 L297.25,303.166667 L291.5,315.166667 L285.75,303.166667 L290.75,303.166 L290.75,261.5 L292.25,261.5 Z" fill="#18191A" fill-rule="nonzero" opacity="0.600000024"></path>
        <path id="Path-Copy-2" d="M292.25,390.5 L292.25,432.166 L297.25,432.166667 L291.5,444.166667 L285.75,432.166667 L290.75,432.166 L290.75,390.5 L292.25,390.5 Z" fill="#18191A" fill-rule="nonzero" opacity="0.699999988"></path>
        <path id="Path-2" d="M428.070451,93.0236742 L427.312067,98.0050576 C450.246285,102.701236 467.430922,113.59123 477.057861,128.620939 C486.228836,142.938792 487.864502,160.135992 481.69152,176.274315 C475.266178,193.072396 460.926759,207.502176 440.464593,216.812163 C417.91682,227.071072 388.925339,230.796945 354.973257,226.869871 L353.910641,226.744658 L354.089359,225.255342 C388.239451,229.353353 417.325728,225.692049 439.843391,215.44684 C459.959322,206.294384 474.011683,192.153471 480.290513,175.738423 C486.294801,160.041124 484.706637,143.343342 475.794756,129.429992 C466.407953,114.775185 449.602449,104.116036 427.084331,99.489572 L426.337332,104.392328 L415.340948,96.8995293 L428.070451,93.0236742 Z" fill="#18191A" fill-rule="nonzero" opacity="0.600000024"></path>
        <path id="Path-2-Copy-2" d="M407.512099,347.858382 L408.151354,352.856502 C433.483808,350.913017 455.347836,357.662158 471.495174,371.278954 C486.371643,383.824047 495.378093,401.526973 496.548311,419.756849 C497.74401,438.383657 490.684544,455.791784 476.271302,467.847464 C460.327591,481.183274 436.403027,487.376908 405.861131,484.827002 L404.933595,484.747054 L405.066405,483.252946 C435.680294,485.97418 459.534347,479.891228 475.308923,466.696886 C489.346754,454.955213 496.21715,438.013319 495.051392,419.85294 C493.90747,402.032716 485.09371,384.708538 470.528179,372.425655 C454.703293,359.080777 433.256622,352.45172 408.342619,354.346261 L408.971345,359.265424 L396.338722,355.084594 L407.512099,347.858382 Z" fill="#18191A" fill-rule="nonzero" opacity="0.600000024"></path>
        <path id="Path-2-Copy" d="M154.059434,92.6491588 L166.661865,96.9201325 L155.437147,104.066335 L154.841,99.124 L154.395206,99.1906602 C111.784397,105.620213 79.3257068,123.70489 58.8438304,150.544394 C40.0039689,175.232196 32.261347,206.36535 36.3764941,237.811787 C40.4554214,268.981446 55.9104699,298.192263 80.0564451,319.273565 C106.029731,341.950251 140.558425,354.165102 180.626662,353.281106 L181.842543,353.250306 L181.885416,354.749694 C140.926544,355.920857 105.593289,343.560458 79.0699192,320.403506 C54.6466368,299.080094 39.0151847,269.535864 34.8891752,238.006421 C30.7237844,206.176041 38.5654372,174.644683 57.6513842,149.634409 C78.4571152,122.370526 111.437293,104.054796 154.66069,97.6341968 L154.059434,92.6491588 Z" fill="#18191A" fill-rule="nonzero" opacity="0.600000024"></path>
    </g>
</svg>