<?xml version="1.0" encoding="UTF-8"?>
<svg width="1158px" height="619px" viewBox="0 0 1158 619" version="1.1" xmlns="http://www.w3.org/2000/svg" xmlns:xlink="http://www.w3.org/1999/xlink">
    <title>accessibility_tools</title>
    <g id="accessibility_tools" stroke="none" stroke-width="1" fill="none" fill-rule="evenodd">
        <rect id="Rectangle" fill="#F2F2F2" opacity="0.5" x="1.27897692e-12" y="0" width="276.867414" height="619" rx="138"></rect>
        <rect id="Rectangle-Copy" fill="#F2F2F2" opacity="0.5" x="294" y="0" width="276.867414" height="619" rx="138"></rect>
        <g id="logos:eleventy" transform="translate(57.000000, 174.000000)">
            <rect id="ViewBox" x="0" y="0" width="162" height="136"></rect>
            <path d="M62.2234306,2.93794782 C63.579553,2.93794782 64.6572369,3.70582774 65.2375283,4.95292043 C65.6450611,5.82651836 65.8228821,6.93687399 65.8317415,8.33146547 L65.8317415,108.171681 C65.8235149,110.020164 65.6305064,111.464765 65.2071532,112.552331 C64.6205337,114.06277 63.501084,115.037654 61.9734686,115.062976 L61.9133512,115.062976 L50.4049781,115.048416 C48.8495189,115.048416 47.7300693,114.052008 47.1554733,112.515615 C46.7511045,111.435645 46.5669553,109.999906 46.5593616,108.157121 L46.5593616,24.7804282 L43.4604666,25.5654003 L42.2239462,25.8755908 L41.8626088,25.9642167 L41.6790925,26.0066305 L41.5930297,26.0243557 L41.5613889,26.02942 L41.5449357,26.0313192 L41.5278497,26.0313192 L41.5259513,26.0300531 L41.5253185,26.028154 L41.5253185,26.0262548 L41.5278497,26.0237227 L41.547467,26.0047314 C41.5550608,25.9971349 41.5582248,25.9901714 41.5462014,25.9857401 L41.5392404,25.983208 L41.5031699,25.9851071 C40.1976726,26.0338513 39.1111293,25.335606 38.5169161,24.1385237 C38.0922972,23.283917 37.9100465,22.1912865 37.9018199,20.8087228 L37.9018199,13.4736655 C37.9018199,12.1784616 38.1106489,11.0908954 38.5827288,10.2040036 C39.1206216,9.19240256 39.9831484,8.49795551 41.0677932,8.21625183 L41.1329732,8.19979274 L41.2082782,8.18206756 L61.1077778,3.05885884 C61.4144595,2.98629547 61.7279945,2.94661207 62.0430783,2.94047999 L62.1361021,2.93794782 L62.2234306,2.93794782 L62.2234306,2.93794782 Z M95.4544432,0 C96.8801753,0 98.0160782,0.799532018 98.6400338,2.11689237 C99.090598,3.06962055 99.2918332,4.29582286 99.3000598,5.83791312 L99.3000598,35.2572729 L99.3006926,35.3269076 L107.860148,35.3269076 C109.204247,35.3269076 110.309142,36.0207216 110.959043,37.203877 L110.989418,37.2608508 L111.01916,37.3178246 C111.489342,38.2376346 111.696272,39.4112944 111.705764,40.8774196 L111.705764,45.0510654 C111.705764,46.5425123 111.498201,47.7351634 111.010934,48.6670012 C110.37622,49.8805426 109.270692,50.5977792 107.922797,50.6193026 L99.2867707,50.6193026 L99.2867707,89.3589395 L99.2893019,89.6602675 L99.292466,89.9577972 L99.2975285,90.2508956 L99.3006926,90.3964953 L99.309552,90.7547971 L99.3203098,91.1061353 L99.333599,91.4517763 L99.3494193,91.7904537 L99.3557475,91.9246586 L99.3703022,92.1892702 L99.3867554,92.4488174 L99.4038414,92.7058324 L99.4228259,92.9577831 L99.4323181,93.0818594 L99.453201,93.3281127 L99.4639588,93.4490237 L99.4753495,93.5693017 L99.4987637,93.8073255 L99.5240763,94.0402849 L99.5367326,94.1554986 L99.5639436,94.3827606 C99.6215298,94.8550099 99.689241,95.3000385 99.7651788,95.7172131 L99.7904914,95.8552163 L99.8094758,95.9527047 L99.8461791,96.1350208 L99.8835152,96.3122726 L99.9024996,96.4002654 L99.9411013,96.5718198 L99.9809687,96.7389429 L100.001219,96.8212383 L100.042352,96.982031 C100.095508,97.1865035 100.151196,97.3802144 100.208149,97.5625305 L100.257509,97.7169927 C100.499244,98.4487892 100.770722,98.9932053 101.05802,99.3464428 C101.59085,100.002907 102.059766,100.399192 102.42047,100.556819 L102.529947,100.601765 C102.956465,100.772053 103.546881,100.868909 104.306259,100.875239 L109.733913,100.875239 C111.011566,100.875239 112.116461,101.384205 112.841035,102.383778 C113.443474,103.213696 113.707991,104.267711 113.719382,105.529997 L113.720015,105.618623 L113.720015,110.137909 C113.720015,111.535033 113.44917,112.687169 112.816988,113.583557 C112.082922,114.624911 110.959043,115.16996 109.652913,115.188318 L109.583303,115.188318 L101.916117,115.202878 C99.7904914,115.202878 97.9357107,115.05348 96.3220325,114.748987 C94.5957133,114.422971 92.8409173,113.706367 91.0380275,112.608672 C89.1604655,111.465398 87.6208266,109.897353 86.4235407,107.921629 C85.2591612,106.002246 84.3498061,103.412471 83.6644674,100.145342 C82.9962148,96.9643058 82.6551276,93.257845 82.6431041,89.0379872 L82.6431041,50.6193026 L79.1044028,50.6193026 C77.7710616,50.6193026 76.6680651,49.9432138 76.0143672,48.7790496 L75.9839921,48.7233419 L75.953617,48.6663681 C75.4777401,47.7566868 75.2682784,46.5975869 75.2581534,45.1548843 L75.2581534,40.9799724 C75.2581534,39.4663691 75.464451,38.258525 75.9453904,37.3178246 C76.5756741,36.0846588 77.6824675,35.3503301 79.0404884,35.3281737 L79.1044028,35.3275406 L82.6424713,35.3275406 L82.6424713,35.212327 L84.0017578,5.85563829 L84.0093516,5.72396556 C84.1055395,4.20656394 84.3510717,3.01201373 84.8003703,2.0947359 C85.4230602,0.822321529 86.4906191,0.0246886371 87.8524369,0 L95.4544432,0 L95.4544432,0 Z M158.754925,35.2996868 C160.020555,35.2996868 161.003316,36.0485754 161.511467,37.2051431 C161.855718,37.9894821 162,38.9713302 162,40.1962665 C162,40.2412124 162,40.2867915 161.998734,40.3336366 L161.997469,40.4039042 L161.992406,40.5495039 L161.989242,40.6235698 L161.980383,40.7761329 L161.97532,40.8546301 L161.962664,41.0154228 C161.952539,41.1464625 161.93925,41.2825665 161.924695,41.4243679 L161.912039,41.531985 L161.891156,41.7155672 L161.867109,41.9054798 L161.841163,42.1023559 L161.820281,42.2517538 L148.400173,112.148451 L148.368533,112.320005 L148.302087,112.684637 L148.234376,113.045471 L148.133126,113.579759 L148.064782,113.93173 L147.961633,114.453357 L147.892656,114.796465 L147.823046,115.136409 L147.753437,115.473187 L147.683827,115.806167 L147.613584,116.135349 L147.507272,116.623424 L147.436396,116.944377 L147.364888,117.262164 L147.292747,117.576153 L147.220606,117.886343 L147.148465,118.194002 L147.075692,118.497862 L147.002285,118.797924 L146.928879,119.094187 L146.854839,119.387919 L146.7808,119.677219 L146.706128,119.963987 L146.631456,120.246957 L146.556151,120.526128 L146.480846,120.802135 L146.404908,121.074343 L146.32897,121.344018 L146.253032,121.609896 L146.175829,121.871342 L146.098625,122.130257 L146.020789,122.385373 L145.942953,122.637323 L145.865117,122.885476 L145.786648,123.130463 L145.707546,123.371019 L145.628444,123.609676 L145.588577,123.726788 L145.508842,123.959748 L145.468974,124.074962 L145.429107,124.188909 L145.327857,124.470613 L145.227239,124.747252 L145.186739,124.856135 L145.105106,125.07137 L145.023473,125.283439 L144.913996,125.560711 L144.817808,125.796836 L144.718456,126.037392 C144.542533,126.455199 144.36408,126.856548 144.182462,127.242704 L144.103993,127.407295 L143.998945,127.622529 L143.893265,127.835231 C142.726987,130.154697 141.420224,131.842387 139.918554,132.902099 C138.04732,134.234019 135.65971,134.915172 132.773441,134.996835 L132.643713,135 L131.846367,135 C127.32174,135 124.015914,133.757972 122.111774,131.132114 L122.054821,131.05235 L122.005461,130.982083 L121.980148,130.95043 C121.437826,130.261681 121.169512,129.313384 121.063832,127.987794 L121.056871,127.898535 L121.045481,127.728247 L121.039785,127.64152 L121.035356,127.55416 L121.027129,127.376275 L121.023332,127.28575 L121.020168,127.193959 L121.01384,126.959734 L121.00941,126.719178 L121.008145,126.621689 L121.006879,126.422281 L121.006879,126.203249 L121.007512,126.082338 L121.010043,125.843048 L121.011941,125.725302 L121.014473,125.608822 L121.020168,125.378395 L121.023332,125.26508 L121.027762,125.153032 L121.036621,124.931467 L121.047379,124.714967 L121.060035,124.502265 L121.07459,124.293361 L121.082184,124.192074 L121.09927,123.989501 L121.118254,123.792625 C121.206848,122.91333 121.349865,122.164441 121.552998,121.53583 C122.080133,119.905114 123.128708,118.810584 124.712011,118.78463 L124.768964,118.78463 L124.83098,118.785263 L124.882238,118.787795 L124.935394,118.791593 L124.990449,118.797291 L125.065121,118.806786 L125.146122,118.82008 L125.254966,118.84097 L125.356216,118.862494 L125.446076,118.883384 L125.622631,118.927697 L125.859937,118.989735 L126.179509,119.078361 L126.517432,119.174584 L126.964832,119.30499 L128.03682,119.619612 L128.340572,119.712036 L128.613315,119.793066 L128.872769,119.868398 L129.118301,119.938032 L129.349912,120.001336 L129.514443,120.045649 L129.670116,120.086797 L129.865023,120.136174 L130.04411,120.179854 L130.168141,120.208974 L130.282681,120.234296 L130.387728,120.257085 L130.513658,120.282407 L130.595924,120.296967 L130.668698,120.308362 L130.711729,120.314692 L130.749698,120.31849 L130.783237,120.321656 L130.798425,120.322289 L130.825003,120.323555 C130.842639,120.323381 130.859985,120.319043 130.875628,120.310894 C130.931316,120.286205 131.005988,120.235562 131.099645,120.148202 C131.392005,119.874095 131.719804,119.375258 132.047602,118.649159 C132.464627,117.726817 132.769644,116.534799 132.954426,115.080068 L132.969613,114.954726 L132.994926,114.736959 L133.01834,114.515395 L133.029731,114.402713 L133.040488,114.289399 L133.060106,114.060237 C133.124976,113.246264 133.15833,112.430084 133.16009,111.61353 L133.160723,111.424884 L133.159458,111.364745 L133.156926,111.3179 L133.150598,111.238136 L133.139208,111.11406 L133.122122,110.969093 L133.100606,110.804503 L133.08795,110.713978 L133.059473,110.519001 L133.025934,110.303766 L132.97784,110.006237 L132.922152,109.678954 L132.858871,109.321285 L132.789261,108.93323 L132.694339,108.428063 L132.590557,107.881115 L132.455767,107.189833 L132.284907,106.330795 L132.120375,105.519868 L131.915343,104.525992 L131.698288,103.490969 L116.913199,42.0175282 L116.887886,41.833313 L116.863839,41.6579604 L116.842324,41.4889382 L116.822074,41.3262464 L116.799925,41.1306364 L116.780941,40.943889 L116.77398,40.8717222 L116.761323,40.7311869 L116.751198,40.5950829 L116.746769,40.5292465 L116.738542,40.400739 L116.732847,40.2772958 L116.730948,40.2171568 L116.727784,40.099411 L116.727151,40.0424373 L116.727151,39.8841768 C116.734745,38.7928124 116.863206,37.912884 117.161262,37.1988127 C117.625116,36.0859249 118.545229,35.3376693 119.760233,35.3142467 L119.81782,35.3136137 L128.936683,35.3136137 C130.158016,35.3136137 131.24013,35.7599083 132.076078,36.6214784 C132.845581,37.414047 133.304372,38.6104963 133.603061,40.2779289 L133.620147,40.3728852 L133.647991,40.5387422 L141.670186,83.0139597 L147.935054,40.8343728 L147.945179,40.7539764 C148.172993,39.0650204 148.557744,37.8096982 149.196887,36.9430637 L149.235489,36.8917873 L149.274091,36.841777 C150.048024,35.861828 151.132036,35.3193111 152.366025,35.2996868 L158.755558,35.2996868 L158.754925,35.2996868 Z M24.3348997,3.06392317 C25.6910222,3.06392317 26.7687061,3.83180309 27.3496303,5.07889579 C27.7565303,5.95249372 27.9349841,7.06284935 27.9432107,8.45744082 L27.9432107,108.179277 C27.9432107,110.084734 27.750835,111.567318 27.3192552,112.67894 C26.7326357,114.188745 25.6125532,115.16363 24.0868363,115.188318 L12.503791,115.188318 C10.947699,115.188318 9.82824933,114.19191 9.25365333,112.655517 C8.84928457,111.575548 8.66513541,110.139808 8.65754163,108.297023 L8.65754163,24.9203305 L6.43446263,25.4824718 L4.68093235,25.9211699 L4.26517291,26.0211905 L4.08165657,26.0636043 L3.94243728,26.0927242 L3.8633354,26.1053851 L3.79815546,26.1117155 L3.72095203,26.1180459 C2.36229829,26.2161674 1.22766105,25.5115917 0.615096153,24.2784259 C0.191110122,23.4238193 0.00885940961,22.3311888 0,20.9486251 L0,13.6135677 C0,12.3183638 0.208828941,11.2307977 0.68090891,10.3439059 C1.21880164,9.33230484 2.08132844,8.63785779 3.1659733,8.35615411 L3.23115325,8.33969501 L3.30709104,8.32196984 L23.2198798,3.18483419 C23.5265386,3.1120576 23.8400738,3.07216195 24.1551803,3.0658223 L24.2482041,3.06392317 L24.3355326,3.06392317 L24.3348997,3.06392317 Z" id="Shape" fill="#000000" fill-rule="nonzero"></path>
        </g>
        <g id="Group" transform="translate(354.000000, 179.000000)" stroke-width="14">
            <line x1="59.5833333" y1="1" x2="156.416667" y2="1" id="Line" stroke="#111111"></line>
            <line x1="0.581081081" y1="1" x2="42.4189189" y2="1" id="Line-Copy-4" stroke="#B7B7B7"></line>
            <line x1="21.5842697" y1="40" x2="124.41573" y2="40" id="Line-Copy" stroke="#111111"></line>
            <line x1="20.59" y1="79" x2="78.41" y2="79" id="Line-Copy-2" stroke="#111111"></line>
            <line x1="0.578125" y1="118" x2="36.421875" y2="118" id="Line-Copy-3" stroke="#B7B7B7"></line>
        </g>
        <text id="Eleventy" font-family="Manrope-Bold, Manrope" font-size="37.5" font-weight="bold" letter-spacing="0.225834783" fill="#2B2B2B">
            <tspan x="52.8310359" y="408">Eleventy</tspan>
        </text>
        <text id="Pug,-SCSS,-JS" font-family="Manrope-Bold, Manrope" font-size="37.5" font-weight="bold" line-spacing="48" letter-spacing="0.225834783" fill="#2B2B2B">
            <tspan x="386.657705" y="391.507812">Pug, </tspan>
            <tspan x="343.29588" y="439.507812">SCSS, JS</tspan>
        </text>
        <text id="Static-site-generato" font-family="Manrope-Regular, Manrope" font-size="28.5" font-weight="normal" letter-spacing="0.225834783" fill="#2B2B2B">
            <tspan x="65.1469712" y="457">Static site </tspan>
            <tspan x="66.3524935" y="496">generator</tspan>
        </text>
        <text id="Languages" font-family="Manrope-Regular, Manrope" font-size="28.5" font-weight="normal" letter-spacing="0.225834783" fill="#2B2B2B">
            <tspan x="354.578275" y="486">Languages</tspan>
        </text>
        <rect id="Rectangle-Copy-2" fill="#F2F2F2" opacity="0.5" x="588" y="0" width="276.867414" height="619" rx="138"></rect>
        <text id="Figma" font-family="Manrope-Bold, Manrope" font-size="37.5" font-weight="bold" letter-spacing="0.225834783" fill="#2B2B2B">
            <tspan x="667.888538" y="408">Figma</tspan>
        </text>
        <text id="Visual-Design-&amp;-Mock" font-family="Manrope-Regular, Manrope" font-size="28.5" font-weight="normal" letter-spacing="0.225834783" fill="#2B2B2B">
            <tspan x="632.926605" y="457">Visual Design </tspan>
            <tspan x="649.661868" y="496">&amp; Mockups</tspan>
        </text>
        <rect id="Rectangle-Copy-3" fill="#F2F2F2" opacity="0.5" x="882" y="0" width="276.867414" height="619" rx="138"></rect>
        <g id="simple-icons:abletonlive" transform="translate(926.000000, 144.000000)">
            <rect id="ViewBox" x="0" y="0" width="189" height="188"></rect>
            <path d="M0,50 L0,138 L12.6,138 L12.6,50 L0,50 Z M25.2,50 L25.2,138 L37.8,138 L37.8,50 L25.2,50 Z M50.4,50 L50.4,138 L63,138 L63,50 L50.4,50 Z M75.6,50 L75.6,138 L88.2,138 L88.2,50 L75.6,50 Z M100.8,50 L100.8,62.5714286 L189,62.5714286 L189,50 L100.8,50 Z M100.8,75.1428571 L100.8,87.7142857 L189,87.7142857 L189,75.1428571 L100.8,75.1428571 Z M100.8,100.285714 L100.8,112.857143 L189,112.857143 L189,100.285714 L100.8,100.285714 Z M100.8,125.428571 L100.8,138 L189,138 L189,125.428571 L100.8,125.428571 Z" id="Shape" fill="#000000" fill-rule="nonzero"></path>
        </g>
        <text id="Ableton-Live" font-family="Manrope-Bold, Manrope" font-size="37.5" font-weight="bold" line-spacing="44" letter-spacing="0.225834783" fill="#2B2B2B">
            <tspan x="941.877547" y="414.507812">Ableton </tspan>
            <tspan x="979.325674" y="458.507812">Live</tspan>
        </text>
        <text id="Audio-Design" font-family="Manrope-Regular, Manrope" font-size="28.5" font-weight="normal" letter-spacing="0.225834783" fill="#2B2B2B">
            <tspan x="928.49421" y="503">Audio Design</tspan>
        </text>
        <path d="M698,155 L723,155 L723,155 L723,205 L698,205 C684.192881,205 673,193.807119 673,180 C673,166.192881 684.192881,155 698,155 Z" id="Rectangle" stroke="#111111" stroke-width="10"></path>
        <path d="M747.107143,155 L772.107143,155 L772.107143,155 L772.107143,205 L747.107143,205 C733.300024,205 722.107143,193.807119 722.107143,180 C722.107143,166.192881 733.300024,155 747.107143,155 Z" id="Rectangle-Copy-6" stroke="#111111" stroke-width="10" transform="translate(747.107143, 180.000000) scale(-1, 1) translate(-747.107143, -180.000000) "></path>
        <rect id="Rectangle-Copy-7" stroke="#111111" stroke-width="10" transform="translate(748.000000, 230.000000) scale(-1, 1) translate(-748.000000, -230.000000) " x="723" y="205" width="50" height="50" rx="25"></rect>
        <path d="M698,205 L723,205 L723,205 L723,255 L698,255 C684.192881,255 673,243.807119 673,230 C673,216.192881 684.192881,205 698,205 Z" id="Rectangle-Copy-4" stroke="#111111" stroke-width="10"></path>
        <path d="M698,255 L723,255 L723,255 L723,280 C723,293.807119 711.807119,305 698,305 C684.192881,305 673,293.807119 673,280 C673,266.192881 684.192881,255 698,255 Z" id="Rectangle-Copy-5" stroke="#111111" stroke-width="10"></path>
    </g>
</svg>