<svg width="979" height="652" viewBox="0 0 979 652" fill="none" xmlns="http://www.w3.org/2000/svg">
<rect x="48" y="49" width="882" height="525" rx="20" fill="white" stroke="#2B4FEB" stroke-width="16"/>
<rect x="417" y="165" width="402" height="229" rx="8" fill="#EAEDFD"/>
<path fill-rule="evenodd" clip-rule="evenodd" d="M614 304.8C620.577 304.8 626.885 302.187 631.536 297.536C636.187 292.885 638.8 286.577 638.8 280C638.8 273.423 636.187 267.115 631.536 262.464C626.885 257.813 620.577 255.2 614 255.2C607.423 255.2 601.115 257.813 596.464 262.464C591.813 267.115 589.2 273.423 589.2 280C589.2 286.577 591.813 292.885 596.464 297.536C601.115 302.187 607.423 304.8 614 304.8V304.8ZM612.62 271.221C612.154 270.909 611.611 270.73 611.05 270.703C610.49 270.676 609.932 270.801 609.437 271.066C608.943 271.331 608.529 271.725 608.241 272.207C607.952 272.688 607.8 273.239 607.8 273.8V286.2C607.8 286.761 607.952 287.312 608.241 287.793C608.529 288.275 608.943 288.669 609.437 288.934C609.932 289.199 610.49 289.324 611.05 289.297C611.611 289.27 612.154 289.091 612.62 288.779L621.92 282.579C622.345 282.296 622.693 281.913 622.934 281.463C623.175 281.013 623.301 280.51 623.301 280C623.301 279.49 623.175 278.987 622.934 278.537C622.693 278.087 622.345 277.704 621.92 277.421L612.62 271.221V271.221Z" fill="#21CEA0"/>
<path fill-rule="evenodd" clip-rule="evenodd" d="M382.328 359.853C382.595 359.634 382.919 359.497 383.262 359.461C383.605 359.425 383.951 359.49 384.257 359.648C384.563 359.806 384.816 360.051 384.984 360.352C385.153 360.653 385.229 360.996 385.204 361.34L383.831 380.258C383.806 380.597 383.684 380.921 383.48 381.192C383.275 381.463 382.996 381.669 382.677 381.785C382.358 381.901 382.012 381.923 381.681 381.847C381.35 381.771 381.048 381.601 380.812 381.358L377.023 377.464L373.57 384.144C373.356 384.559 372.985 384.871 372.54 385.013C372.094 385.154 371.611 385.113 371.196 384.898C370.781 384.684 370.469 384.313 370.327 383.868C370.186 383.422 370.227 382.939 370.442 382.524L373.896 375.844L368.528 375.004C368.192 374.951 367.88 374.802 367.627 374.576C367.375 374.349 367.193 374.055 367.104 373.728C367.014 373.4 367.021 373.054 367.124 372.731C367.227 372.408 367.42 372.121 367.682 371.905L382.328 359.853Z" fill="#101228"/>
<path d="M628.909 319.781L631.924 316.417L635.285 322.312L635.285 322.313C635.668 322.984 636.303 323.476 637.048 323.68C637.794 323.883 638.59 323.782 639.262 323.399C639.933 323.016 640.425 322.382 640.628 321.636C640.832 320.89 640.731 320.094 640.348 319.423L636.986 313.527L641.418 312.645L641.419 312.645C641.97 312.535 642.477 312.268 642.879 311.877C643.281 311.485 643.562 310.986 643.687 310.439C643.813 309.892 643.777 309.32 643.586 308.792C643.394 308.265 643.054 307.804 642.607 307.465L642.606 307.464L626.161 295.028C626.161 295.028 626.161 295.027 626.161 295.027C625.706 294.683 625.16 294.48 624.591 294.443C624.022 294.407 623.454 294.538 622.958 294.82C622.463 295.103 622.061 295.525 621.803 296.034C621.545 296.542 621.442 297.116 621.507 297.682C621.507 297.682 621.507 297.682 621.507 297.682L623.842 318.168L623.842 318.168C623.906 318.727 624.13 319.254 624.487 319.688C624.844 320.122 625.319 320.444 625.854 320.614C626.39 320.785 626.963 320.797 627.505 320.649C628.047 320.501 628.535 320.2 628.909 319.781C628.909 319.781 628.909 319.781 628.909 319.781Z" fill="#101228" stroke="white" stroke-width="2"/>
<path d="M489.793 576V613H443H535" stroke="#2B4FEB" stroke-width="16" stroke-linecap="round" stroke-linejoin="round"/>
<rect x="162" y="164" width="238" height="53" rx="9" fill="#EAEDFD" stroke="#2B4FEB" stroke-width="2"/>
<rect x="163" y="230" width="236" height="51" rx="8" fill="#EAEDFD"/>
<path d="M163 318.64C163 307.241 172.241 298 183.64 298H268.482C279.881 298 289.122 307.241 289.122 318.64V318.64C289.122 330.04 279.881 339.281 268.482 339.281H183.64C172.241 339.281 163 330.04 163 318.64V318.64Z" fill="#2B4FEB"/>
<path d="M192.868 321.288C192.868 322.198 192.54 322.964 191.883 323.586C191.238 324.208 190.38 324.588 189.308 324.727V325.954C189.308 326.184 189.239 326.368 189.101 326.507C188.974 326.645 188.802 326.714 188.583 326.714C188.364 326.714 188.185 326.645 188.047 326.507C187.92 326.368 187.857 326.184 187.857 325.954V324.761C187.166 324.704 186.497 324.565 185.852 324.347C185.219 324.116 184.677 323.805 184.228 323.413C184.009 323.252 183.9 323.022 183.9 322.722C183.9 322.515 183.951 322.342 184.055 322.204C184.17 322.054 184.309 321.979 184.47 321.979C184.631 321.979 184.827 322.054 185.057 322.204C186.163 322.953 187.281 323.327 188.41 323.327C189.262 323.327 189.919 323.154 190.38 322.809C190.852 322.463 191.088 321.973 191.088 321.34C191.088 320.96 190.962 320.654 190.708 320.424C190.466 320.182 190.155 319.992 189.775 319.854C189.406 319.715 188.894 319.566 188.237 319.404C187.373 319.185 186.67 318.967 186.129 318.748C185.587 318.529 185.121 318.189 184.729 317.728C184.349 317.267 184.159 316.657 184.159 315.896C184.159 314.963 184.493 314.174 185.161 313.529C185.841 312.872 186.734 312.481 187.84 312.354V311.144C187.84 310.914 187.903 310.729 188.03 310.591C188.168 310.453 188.346 310.384 188.565 310.384C188.784 310.384 188.957 310.453 189.084 310.591C189.222 310.729 189.291 310.914 189.291 311.144V312.354C189.879 312.411 190.437 312.555 190.967 312.786C191.509 313.005 191.987 313.304 192.402 313.684C192.632 313.869 192.747 314.099 192.747 314.376C192.747 314.572 192.69 314.744 192.574 314.894C192.459 315.044 192.321 315.119 192.16 315.119C191.998 315.119 191.803 315.044 191.572 314.894C191.077 314.514 190.604 314.232 190.155 314.047C189.706 313.863 189.176 313.771 188.565 313.771C187.77 313.771 187.137 313.955 186.665 314.324C186.192 314.692 185.956 315.194 185.956 315.827C185.956 316.253 186.088 316.599 186.353 316.864C186.618 317.129 186.947 317.336 187.338 317.486C187.73 317.624 188.266 317.774 188.946 317.935C189.787 318.143 190.466 318.356 190.985 318.575C191.503 318.782 191.947 319.105 192.315 319.543C192.684 319.969 192.868 320.551 192.868 321.288ZM201.968 327.301C200.471 327.301 199.163 326.996 198.046 326.386C196.928 325.775 196.064 324.917 195.454 323.811C194.854 322.693 194.555 321.415 194.555 319.975C194.555 318.431 194.878 317.083 195.523 315.931C196.168 314.779 197.055 313.898 198.184 313.287C199.313 312.665 200.58 312.354 201.986 312.354C203.472 312.354 204.745 312.648 205.805 313.235C206.864 313.823 207.665 314.606 208.207 315.585C208.748 316.553 209.019 317.596 209.019 318.713C209.019 319.808 208.852 320.718 208.518 321.443C208.195 322.158 207.769 322.688 207.239 323.033C206.709 323.367 206.133 323.534 205.511 323.534C204.9 323.534 204.416 323.402 204.059 323.137C203.702 322.872 203.495 322.503 203.437 322.031H203.403C202.78 323.033 201.922 323.534 200.828 323.534C200.044 323.534 199.411 323.264 198.927 322.722C198.455 322.181 198.218 321.438 198.218 320.493C198.218 319.698 198.368 318.961 198.668 318.281C198.979 317.59 199.411 317.043 199.964 316.639C200.517 316.225 201.15 316.017 201.865 316.017C202.395 316.017 202.855 316.138 203.247 316.38C203.639 316.622 203.898 316.939 204.025 317.331H204.059L204.163 316.726C204.186 316.565 204.255 316.438 204.37 316.346C204.497 316.253 204.653 316.207 204.837 316.207C205.033 316.207 205.182 316.259 205.286 316.363C205.401 316.467 205.459 316.611 205.459 316.795C205.459 316.876 205.453 316.939 205.442 316.985L204.785 320.718C204.739 321.063 204.716 321.282 204.716 321.374C204.716 321.754 204.797 322.031 204.958 322.204C205.131 322.365 205.396 322.446 205.753 322.446C206.052 322.446 206.352 322.325 206.651 322.083C206.962 321.829 207.222 321.426 207.429 320.873C207.636 320.309 207.74 319.589 207.74 318.713C207.74 317.791 207.521 316.939 207.083 316.156C206.657 315.372 206.012 314.744 205.148 314.272C204.284 313.788 203.23 313.546 201.986 313.546C200.822 313.546 199.779 313.805 198.858 314.324C197.936 314.831 197.21 315.574 196.68 316.553C196.162 317.521 195.903 318.661 195.903 319.975C195.903 321.207 196.145 322.284 196.629 323.206C197.112 324.128 197.809 324.836 198.72 325.332C199.641 325.838 200.724 326.092 201.968 326.092C203.604 326.092 204.917 325.66 205.908 324.796C206.081 324.658 206.248 324.588 206.409 324.588C206.582 324.588 206.72 324.646 206.824 324.761C206.939 324.888 206.997 325.038 206.997 325.211C206.997 325.418 206.905 325.596 206.72 325.746C206.225 326.219 205.563 326.593 204.733 326.869C203.904 327.157 202.982 327.301 201.968 327.301ZM201.122 322.446C201.663 322.446 202.13 322.284 202.521 321.962C202.913 321.628 203.207 321.196 203.403 320.666C203.61 320.136 203.714 319.583 203.714 319.007C203.714 318.396 203.564 317.93 203.264 317.607C202.976 317.285 202.579 317.123 202.072 317.123C201.554 317.123 201.104 317.285 200.724 317.607C200.344 317.93 200.056 318.35 199.86 318.869C199.664 319.375 199.566 319.905 199.566 320.458C199.566 321.092 199.71 321.582 199.998 321.927C200.286 322.273 200.661 322.446 201.122 322.446ZM221.265 323.552C221.415 323.701 221.49 323.868 221.49 324.053C221.49 324.249 221.415 324.421 221.265 324.571C221.115 324.709 220.943 324.779 220.747 324.779C220.551 324.779 220.378 324.704 220.228 324.554L218.708 323.016C218.178 323.58 217.579 324.012 216.91 324.312C216.242 324.611 215.54 324.761 214.802 324.761C214.03 324.761 213.339 324.629 212.729 324.364C212.118 324.099 211.64 323.724 211.294 323.241C210.96 322.745 210.793 322.175 210.793 321.53C210.793 320.781 211.018 320.113 211.467 319.525C211.916 318.938 212.608 318.379 213.541 317.849C213.068 317.342 212.717 316.876 212.487 316.449C212.256 316.012 212.141 315.557 212.141 315.084C212.141 314.243 212.435 313.575 213.022 313.08C213.61 312.584 214.364 312.337 215.286 312.337C216.162 312.337 216.859 312.567 217.377 313.028C217.895 313.477 218.155 314.093 218.155 314.877C218.155 315.51 217.965 316.075 217.584 316.57C217.216 317.054 216.622 317.544 215.805 318.039L218.518 320.787C218.886 320.026 219.111 319.111 219.192 318.039C219.203 317.797 219.284 317.613 219.433 317.486C219.595 317.348 219.773 317.279 219.969 317.279C220.176 317.279 220.349 317.354 220.488 317.503C220.637 317.642 220.701 317.838 220.678 318.091C220.574 319.52 220.205 320.769 219.572 321.841L221.265 323.552ZM215.303 313.598C214.843 313.598 214.468 313.736 214.18 314.013C213.904 314.278 213.765 314.635 213.765 315.084C213.765 315.407 213.852 315.718 214.025 316.017C214.197 316.305 214.48 316.662 214.871 317.089C215.54 316.674 216.006 316.311 216.271 316C216.548 315.677 216.686 315.326 216.686 314.946C216.686 314.543 216.559 314.22 216.306 313.978C216.052 313.725 215.718 313.598 215.303 313.598ZM214.889 323.396C215.419 323.396 215.925 323.281 216.409 323.05C216.905 322.82 217.342 322.48 217.723 322.031L214.491 318.799C213.777 319.226 213.264 319.646 212.953 320.061C212.654 320.464 212.504 320.925 212.504 321.443C212.504 322.054 212.717 322.532 213.143 322.878C213.581 323.223 214.163 323.396 214.889 323.396ZM229.886 316.57L229.143 320.389H230.647C230.831 320.389 230.981 320.453 231.096 320.579C231.211 320.695 231.269 320.839 231.269 321.011C231.269 321.173 231.211 321.311 231.096 321.426C230.981 321.53 230.831 321.582 230.647 321.582H228.901L228.383 324.26C228.36 324.398 228.291 324.514 228.176 324.606C228.072 324.686 227.945 324.727 227.795 324.727C227.611 324.727 227.456 324.669 227.329 324.554C227.214 324.439 227.156 324.289 227.156 324.105C227.156 324.035 227.162 323.978 227.173 323.932L227.64 321.582H225.134L224.599 324.26C224.576 324.398 224.506 324.514 224.391 324.606C224.287 324.686 224.161 324.727 224.011 324.727C223.827 324.727 223.677 324.669 223.562 324.554C223.447 324.439 223.389 324.289 223.389 324.105C223.389 324.035 223.395 323.978 223.406 323.932L223.873 321.582H222.905C222.721 321.582 222.571 321.524 222.456 321.409C222.341 321.282 222.283 321.132 222.283 320.96C222.283 320.798 222.341 320.666 222.456 320.562C222.571 320.447 222.721 320.389 222.905 320.389H224.097L224.84 316.57H223.251C223.066 316.57 222.917 316.513 222.801 316.397C222.686 316.271 222.629 316.121 222.629 315.948C222.629 315.787 222.686 315.654 222.801 315.551C222.917 315.436 223.066 315.378 223.251 315.378H225.082L225.584 312.786C225.607 312.648 225.67 312.538 225.774 312.458C225.889 312.365 226.021 312.319 226.171 312.319C226.367 312.319 226.522 312.377 226.638 312.492C226.753 312.607 226.81 312.763 226.81 312.959C226.81 313.028 226.805 313.08 226.793 313.114L226.344 315.378H228.85L229.351 312.786C229.374 312.648 229.437 312.538 229.541 312.458C229.656 312.365 229.788 312.319 229.938 312.319C230.123 312.319 230.272 312.377 230.388 312.492C230.514 312.607 230.578 312.757 230.578 312.941C230.578 313.011 230.572 313.068 230.56 313.114L230.111 315.378H230.992C231.177 315.378 231.326 315.441 231.442 315.568C231.557 315.683 231.614 315.827 231.614 316C231.614 316.161 231.557 316.3 231.442 316.415C231.326 316.518 231.177 316.57 230.992 316.57H229.886ZM227.865 320.389L228.608 316.57H226.119L225.359 320.389H227.865ZM239.021 314.842C239.228 314.831 239.39 314.888 239.505 315.015C239.62 315.142 239.678 315.292 239.678 315.464C239.678 315.637 239.62 315.787 239.505 315.914C239.39 316.04 239.228 316.098 239.021 316.086L237.12 316L238.14 317.59C238.209 317.705 238.243 317.82 238.243 317.935C238.243 318.108 238.174 318.258 238.036 318.385C237.909 318.5 237.76 318.558 237.587 318.558C237.356 318.558 237.184 318.442 237.068 318.212L236.204 316.536L235.323 318.229C235.219 318.448 235.046 318.558 234.805 318.558C234.632 318.558 234.476 318.5 234.338 318.385C234.2 318.27 234.131 318.126 234.131 317.953C234.131 317.838 234.171 317.722 234.252 317.607L235.271 316L233.37 316.086C233.163 316.098 233.002 316.04 232.886 315.914C232.783 315.787 232.731 315.637 232.731 315.464C232.731 315.292 232.783 315.142 232.886 315.015C233.002 314.888 233.163 314.831 233.37 314.842L235.271 314.929L234.252 313.339C234.171 313.224 234.131 313.103 234.131 312.976C234.131 312.803 234.194 312.659 234.321 312.544C234.459 312.429 234.614 312.371 234.787 312.371C235.029 312.371 235.208 312.486 235.323 312.717L236.204 314.41L237.068 312.717C237.184 312.486 237.356 312.371 237.587 312.371C237.76 312.371 237.909 312.435 238.036 312.561C238.174 312.676 238.243 312.82 238.243 312.993C238.243 313.097 238.209 313.212 238.14 313.339L237.12 314.929L239.021 314.842Z" fill="white"/>
<path d="M254.561 318.64H268.961M268.961 318.64L262.841 312.4M268.961 318.64L262.841 324.88" stroke="white" stroke-width="1.44004" stroke-linecap="round" stroke-linejoin="round"/>
<path d="M366 394.094C342.095 435.67 194.069 412.111 137.984 471.241C110.645 500.065 94.6624 535.154 86 564.094" stroke="black" stroke-width="2" stroke-linecap="round" stroke-linejoin="round" stroke-dasharray="10 10"/>
<path d="M641.677 328.937L659.208 352.721C659.738 353.441 660.495 353.962 661.357 354.201L710.622 367.894C713.516 368.698 714.524 372.285 712.473 374.479L680.362 408.825C677.999 411.353 679.742 415.485 683.201 415.556L731.75 416.559C732.883 416.583 733.972 416.125 734.748 415.299L773.952 373.572C775.839 371.564 779.144 372.021 780.416 374.466L807.051 425.688C807.999 427.511 807.411 429.757 805.69 430.882L763.563 458.406C760.654 460.307 761.386 464.758 764.751 465.628L829.48 482.35C829.937 482.468 830.411 482.504 830.881 482.457L850.457 480.489C852.655 480.268 854.616 481.871 854.837 484.069L856.517 500.789C856.683 502.434 857.842 503.808 859.436 504.246L869.991 507.15C872.779 507.918 873.857 511.299 872.026 513.538L862.31 525.427C860.758 527.326 861.265 530.162 863.379 531.405L909.663 558.636" stroke="black" stroke-width="2" stroke-linecap="round" stroke-linejoin="round" stroke-dasharray="10 10"/>
</svg>
