<?xml version="1.0" encoding="UTF-8"?>
<svg width="280px" height="374px" viewBox="0 0 280 374" version="1.1" xmlns="http://www.w3.org/2000/svg" xmlns:xlink="http://www.w3.org/1999/xlink">
    <!-- Generator: Sketch 64 (93537) - https://sketch.com -->
    <title>Group 6 Copy</title>
    <desc>Created with Sketch.</desc>
    <g id="Page-3---About-GPPAC" stroke="none" stroke-width="1" fill="none" fill-rule="evenodd">
        <g id="Artboard" transform="translate(-556.000000, -599.000000)">
            <g id="Group-6-Copy" transform="translate(555.999900, 598.381561)">
                <path d="M129.7656,144.773139 L173.4306,31.0221385 C236.2536,55.1381385 267.6316,125.615139 243.5166,188.438139 C219.4006,251.261139 148.9236,282.639139 86.1006,258.524139 C23.2776,234.408139 -8.1004,163.931139 16.0146,101.108139 C34.3426,53.3631385 78.6236,22.9291385 129.7656,22.9291385 L129.7656,144.773139 Z" id="Fill-7" fill="#3180A4"></path>
                <path d="M129.7656,144.773139 L136.1426,23.0961385 C149.5826,23.8011385 160.8656,26.1991385 173.4306,31.0221385 L129.7656,144.773139 Z" id="Fill-9" fill="#76C3E2"></path>
                <path d="M129.7656,144.773139 L129.7656,22.9291385 C132.4576,22.9291385 133.4546,22.9551385 136.1426,23.0961385 L129.7656,144.773139 Z" id="Fill-11" fill="#BFB2B5"></path>
                <polygon id="Fill-19" fill="#3180A4" points="0 338.536439 10 338.536439 10 328.536439 0 328.536439"></polygon>
                <text id="--" font-family="SofiaProSemiBold, Sofia Pro" font-size="12" font-weight="500" letter-spacing="0.01"></text>
                <path d="M24.0641,335.536014 L24.0641,328.576014 L26.4281,328.576014 L26.4281,327.268014 L20.2361,327.268014 L20.2361,328.576014 L22.6001,328.576014 L22.6001,335.536014 L24.0641,335.536014 Z M28.1301,335.656014 C29.7261,335.656014 31.1181,334.492014 31.1181,332.716014 C31.1181,330.940014 29.7261,329.812014 28.1301,329.812014 C26.5341,329.812014 25.1541,330.940014 25.1541,332.716014 C25.1541,334.492014 26.5341,335.656014 28.1301,335.656014 Z M28.1301,334.360014 C27.2661,334.360014 26.5581,333.700014 26.5581,332.716014 C26.5581,331.756014 27.2661,331.108014 28.1301,331.108014 C28.9941,331.108014 29.7141,331.756014 29.7141,332.716014 C29.7141,333.700014 28.9941,334.360014 28.1301,334.360014 Z M34.1641,335.536014 L34.1641,331.048014 L35.3521,331.048014 L35.3521,329.932014 L34.1641,329.932014 L34.1641,327.868014 L32.7721,327.868014 L32.7721,329.932014 L31.7641,329.932014 L31.7641,331.048014 L32.7721,331.048014 L32.7721,335.536014 L34.1641,335.536014 Z M38.6741,335.656014 C39.3581,335.656014 40.1501,335.380014 40.5341,334.780014 L40.5341,335.536014 L41.9261,335.536014 L41.9261,329.932014 L40.5341,329.932014 L40.5341,330.676014 C40.1501,330.088014 39.3701,329.812014 38.6621,329.812014 C37.1861,329.812014 35.9141,330.928014 35.9141,332.728014 C35.9141,334.516014 37.1981,335.656014 38.6741,335.656014 Z M38.8901,334.348014 C38.0261,334.348014 37.3181,333.652014 37.3181,332.716014 C37.3181,331.780014 38.0261,331.108014 38.8901,331.108014 C39.6941,331.108014 40.5101,331.732014 40.5101,332.716014 C40.5101,333.700014 39.7421,334.348014 38.8901,334.348014 Z M44.9841,335.536014 L44.9841,326.932014 L43.5921,326.932014 L43.5921,335.536014 L44.9841,335.536014 Z M52.0121,335.656014 C52.6961,335.656014 53.4881,335.380014 53.8721,334.780014 L53.8721,335.536014 L55.2641,335.536014 L55.2641,329.932014 L53.8721,329.932014 L53.8721,330.676014 C53.4881,330.088014 52.7081,329.812014 52.0001,329.812014 C50.5241,329.812014 49.2521,330.928014 49.2521,332.728014 C49.2521,334.516014 50.5361,335.656014 52.0121,335.656014 Z M52.2281,334.348014 C51.3641,334.348014 50.6561,333.652014 50.6561,332.716014 C50.6561,331.780014 51.3641,331.108014 52.2281,331.108014 C53.0321,331.108014 53.8481,331.732014 53.8481,332.716014 C53.8481,333.700014 53.0801,334.348014 52.2281,334.348014 Z M58.3221,335.536014 L58.3221,332.584014 C58.3221,331.516014 58.9701,331.156014 59.6181,331.156014 C60.2181,331.156014 60.6861,331.600014 60.6861,332.500014 L60.6861,335.536014 L62.0781,335.536014 L62.0781,332.716014 L62.0901,332.764014 C62.0301,331.756014 62.5341,331.156014 63.3381,331.156014 C63.9861,331.156014 64.4541,331.600014 64.4541,332.500014 L64.4541,335.536014 L65.8341,335.536014 L65.8341,332.392014 C65.8341,330.760014 65.0901,329.812014 63.6861,329.812014 C63.1221,329.812014 62.2461,330.028014 61.8021,330.916014 C61.4781,330.196014 60.8061,329.812014 59.9901,329.812014 C59.2941,329.812014 58.5261,330.184014 58.3221,330.892014 L58.3221,329.932014 L56.9301,329.932014 L56.9301,335.536014 L58.3221,335.536014 Z M70.0681,335.656014 C71.6641,335.656014 73.0561,334.492014 73.0561,332.716014 C73.0561,330.940014 71.6641,329.812014 70.0681,329.812014 C68.4721,329.812014 67.0921,330.940014 67.0921,332.716014 C67.0921,334.492014 68.4721,335.656014 70.0681,335.656014 Z M70.0681,334.360014 C69.2041,334.360014 68.4961,333.700014 68.4961,332.716014 C68.4961,331.756014 69.2041,331.108014 70.0681,331.108014 C70.9321,331.108014 71.6521,331.756014 71.6521,332.716014 C71.6521,333.700014 70.9321,334.360014 70.0681,334.360014 Z M76.5461,335.668014 C77.1101,335.668014 77.9981,335.356014 78.2861,334.660014 L78.2861,335.536014 L79.6781,335.536014 L79.6781,329.932014 L78.2861,329.932014 L78.2861,332.860014 C78.2861,333.952014 77.4941,334.300014 76.8581,334.300014 C76.2341,334.300014 75.6941,333.844014 75.6941,332.944014 L75.6941,329.932014 L74.3021,329.932014 L74.3021,333.076014 C74.3021,334.708014 75.1061,335.668014 76.5461,335.668014 Z M82.7361,335.536014 L82.7361,332.608014 C82.7361,331.528014 83.5281,331.180014 84.1641,331.180014 C84.7881,331.180014 85.3281,331.636014 85.3281,332.524014 L85.3281,335.536014 L86.7201,335.536014 L86.7201,332.392014 C86.7201,330.760014 85.9161,329.812014 84.4761,329.812014 C83.9001,329.812014 83.0241,330.124014 82.7361,330.820014 L82.7361,329.932014 L81.3441,329.932014 L81.3441,335.536014 L82.7361,335.536014 Z M90.1381,335.536014 L90.1381,331.048014 L91.3261,331.048014 L91.3261,329.932014 L90.1381,329.932014 L90.1381,327.868014 L88.7461,327.868014 L88.7461,329.932014 L87.7381,329.932014 L87.7381,331.048014 L88.7461,331.048014 L88.7461,335.536014 L90.1381,335.536014 Z M96.9741,335.656014 C98.1141,335.656014 99.2541,335.056014 99.2541,333.916014 C99.2541,333.400014 99.0261,332.608014 97.7661,332.284014 L96.8661,332.044014 C96.5421,331.972014 96.2661,331.804014 96.2661,331.516014 C96.2661,331.168014 96.5661,330.928014 96.9981,330.928014 C97.3941,330.928014 97.7421,331.168014 97.7421,331.564014 L99.0741,331.564014 C99.0861,330.304014 97.9581,329.812014 96.9621,329.812014 C95.7381,329.812014 94.8741,330.580014 94.8741,331.456014 C94.8741,332.164014 95.1981,332.836014 96.4581,333.172014 L97.2021,333.364014 C97.6221,333.460014 97.8621,333.604014 97.8621,333.916014 C97.8621,334.276014 97.5021,334.528014 96.9501,334.528014 C96.3621,334.528014 96.0261,334.168014 96.0261,333.784014 L94.7181,333.784014 C94.7421,334.984014 95.8581,335.656014 96.9741,335.656014 Z M101.9521,338.272014 L101.9521,334.780014 C102.3361,335.380014 103.1161,335.644014 103.8241,335.644014 C105.3001,335.644014 106.5721,334.528014 106.5721,332.728014 C106.5721,330.940014 105.2881,329.812014 103.8121,329.812014 C103.1401,329.812014 102.3361,330.088014 101.9521,330.676014 L101.9521,329.932014 L100.5601,329.932014 L100.5601,338.272014 L101.9521,338.272014 Z M103.5961,334.348014 C102.7921,334.348014 101.9761,333.724014 101.9761,332.740014 C101.9761,331.756014 102.7441,331.108014 103.5961,331.108014 C104.4601,331.108014 105.1801,331.804014 105.1801,332.740014 C105.1801,333.676014 104.4601,334.348014 103.5961,334.348014 Z M110.5061,335.656014 C111.5261,335.656014 112.5101,335.224014 113.0261,334.408014 L112.1021,333.700014 C111.7661,334.156014 111.1901,334.396014 110.5781,334.396014 C109.7501,334.396014 109.1501,334.000014 108.9941,333.220014 L113.3261,333.220014 C113.3501,333.016014 113.3621,332.836014 113.3621,332.680014 C113.3621,330.928014 112.1021,329.812014 110.4941,329.812014 C108.8981,329.812014 107.5541,330.940014 107.5541,332.728014 C107.5541,334.480014 108.8261,335.656014 110.5061,335.656014 Z M111.9701,332.248014 L108.9941,332.248014 C109.1621,331.396014 109.7621,331.036014 110.5181,331.036014 C111.2981,331.036014 111.8861,331.480014 111.9701,332.248014 Z M116.0361,335.536014 L116.0361,332.608014 C116.0361,331.528014 116.8281,331.180014 117.4641,331.180014 C118.0881,331.180014 118.6281,331.636014 118.6281,332.524014 L118.6281,335.536014 L120.0201,335.536014 L120.0201,332.392014 C120.0201,330.760014 119.2161,329.812014 117.7761,329.812014 C117.2001,329.812014 116.3241,330.124014 116.0361,330.820014 L116.0361,329.932014 L114.6441,329.932014 L114.6441,335.536014 L116.0361,335.536014 Z M123.4381,335.536014 L123.4381,331.048014 L124.6261,331.048014 L124.6261,329.932014 L123.4381,329.932014 L123.4381,327.868014 L122.0461,327.868014 L122.0461,329.932014 L121.0381,329.932014 L121.0381,331.048014 L122.0461,331.048014 L122.0461,335.536014 L123.4381,335.536014 Z M131.0301,335.656014 C132.6261,335.656014 134.0181,334.492014 134.0181,332.716014 C134.0181,330.940014 132.6261,329.812014 131.0301,329.812014 C129.4341,329.812014 128.0541,330.940014 128.0541,332.716014 C128.0541,334.492014 129.4341,335.656014 131.0301,335.656014 Z M131.0301,334.360014 C130.1661,334.360014 129.4581,333.700014 129.4581,332.716014 C129.4581,331.756014 130.1661,331.108014 131.0301,331.108014 C131.8941,331.108014 132.6141,331.756014 132.6141,332.716014 C132.6141,333.700014 131.8941,334.360014 131.0301,334.360014 Z M136.7281,335.536014 L136.7281,332.608014 C136.7281,331.528014 137.5201,331.180014 138.1561,331.180014 C138.7801,331.180014 139.3201,331.636014 139.3201,332.524014 L139.3201,335.536014 L140.7121,335.536014 L140.7121,332.392014 C140.7121,330.760014 139.9081,329.812014 138.4681,329.812014 C137.8921,329.812014 137.0161,330.124014 136.7281,330.820014 L136.7281,329.932014 L135.3361,329.932014 L135.3361,335.536014 L136.7281,335.536014 Z M147.8721,335.656014 C149.4681,335.656014 150.8601,334.492014 150.8601,332.716014 C150.8601,330.940014 149.4681,329.812014 147.8721,329.812014 C146.2761,329.812014 144.8961,330.940014 144.8961,332.716014 C144.8961,334.492014 146.2761,335.656014 147.8721,335.656014 Z M147.8721,334.360014 C147.0081,334.360014 146.3001,333.700014 146.3001,332.716014 C146.3001,331.756014 147.0081,331.108014 147.8721,331.108014 C148.7361,331.108014 149.4561,331.756014 149.4561,332.716014 C149.4561,333.700014 148.7361,334.360014 147.8721,334.360014 Z M154.3501,335.668014 C154.9141,335.668014 155.8021,335.356014 156.0901,334.660014 L156.0901,335.536014 L157.4821,335.536014 L157.4821,329.932014 L156.0901,329.932014 L156.0901,332.860014 C156.0901,333.952014 155.2981,334.300014 154.6621,334.300014 C154.0381,334.300014 153.4981,333.844014 153.4981,332.944014 L153.4981,329.932014 L152.1061,329.932014 L152.1061,333.076014 C152.1061,334.708014 152.9101,335.668014 154.3501,335.668014 Z M160.5521,335.536014 L160.5521,333.580014 C160.5521,332.008014 161.0561,331.120014 161.9681,331.120014 C162.1721,331.120014 162.4601,331.156014 162.7841,331.324014 L163.0601,330.004014 C162.8441,329.884014 162.4841,329.812014 162.1481,329.812014 C161.4521,329.812014 160.8401,330.196014 160.5401,331.132014 L160.5401,329.932014 L159.1481,329.932014 L159.1481,335.536014 L160.5521,335.536014 Z M169.0441,335.644014 C170.0161,335.644014 170.8081,335.212014 171.3241,334.564014 L170.3281,333.784014 C170.0401,334.132014 169.5601,334.348014 169.0681,334.348014 C168.0961,334.348014 167.4001,333.664014 167.4001,332.728014 C167.4001,331.780014 168.0961,331.108014 169.0681,331.108014 C169.5601,331.108014 170.0401,331.324014 170.3281,331.672014 L171.3241,330.892014 C170.8081,330.232014 170.0161,329.812014 169.0441,329.812014 C167.4241,329.812014 165.9961,330.952014 165.9961,332.728014 C165.9961,334.504014 167.4241,335.644014 169.0441,335.644014 Z M174.9581,335.656014 C176.5541,335.656014 177.9461,334.492014 177.9461,332.716014 C177.9461,330.940014 176.5541,329.812014 174.9581,329.812014 C173.3621,329.812014 171.9821,330.940014 171.9821,332.716014 C171.9821,334.492014 173.3621,335.656014 174.9581,335.656014 Z M174.9581,334.360014 C174.0941,334.360014 173.3861,333.700014 173.3861,332.716014 C173.3861,331.756014 174.0941,331.108014 174.9581,331.108014 C175.8221,331.108014 176.5421,331.756014 176.5421,332.716014 C176.5421,333.700014 175.8221,334.360014 174.9581,334.360014 Z M180.6681,335.536014 L180.6681,333.580014 C180.6681,332.008014 181.1721,331.120014 182.0841,331.120014 C182.2881,331.120014 182.5761,331.156014 182.9001,331.324014 L183.1761,330.004014 C182.9601,329.884014 182.6001,329.812014 182.2641,329.812014 C181.5681,329.812014 180.9561,330.196014 180.6561,331.132014 L180.6561,329.932014 L179.2641,329.932014 L179.2641,335.536014 L180.6681,335.536014 Z M186.4381,335.656014 C187.4581,335.656014 188.4421,335.224014 188.9581,334.408014 L188.0341,333.700014 C187.6981,334.156014 187.1221,334.396014 186.5101,334.396014 C185.6821,334.396014 185.0821,334.000014 184.9261,333.220014 L189.2581,333.220014 C189.2821,333.016014 189.2941,332.836014 189.2941,332.680014 C189.2941,330.928014 188.0341,329.812014 186.4261,329.812014 C184.8301,329.812014 183.4861,330.940014 183.4861,332.728014 C183.4861,334.480014 184.7581,335.656014 186.4381,335.656014 Z M187.9021,332.248014 L184.9261,332.248014 C185.0941,331.396014 185.6941,331.036014 186.4501,331.036014 C187.2301,331.036014 187.8181,331.480014 187.9021,332.248014 Z M195.2901,335.536014 L195.2901,331.048014 L196.4781,331.048014 L196.4781,329.932014 L195.2901,329.932014 L195.2901,327.868014 L193.8981,327.868014 L193.8981,329.932014 L192.8901,329.932014 L192.8901,331.048014 L193.8981,331.048014 L193.8981,335.536014 L195.2901,335.536014 Z M198.9481,335.536014 L198.9481,332.608014 C198.9481,331.528014 199.7401,331.180014 200.3761,331.180014 C201.0001,331.180014 201.5401,331.636014 201.5401,332.524014 L201.5401,335.536014 L202.9321,335.536014 L202.9321,332.392014 C202.9321,330.760014 202.1281,329.812014 200.6881,329.812014 C200.1241,329.812014 199.2241,330.112014 198.9481,330.784014 L198.9481,326.932014 L197.5561,326.932014 L197.5561,335.536014 L198.9481,335.536014 Z M205.9301,335.536014 L205.9301,333.580014 C205.9301,332.008014 206.4341,331.120014 207.3461,331.120014 C207.5501,331.120014 207.8381,331.156014 208.1621,331.324014 L208.4381,330.004014 C208.2221,329.884014 207.8621,329.812014 207.5261,329.812014 C206.8301,329.812014 206.2181,330.196014 205.9181,331.132014 L205.9181,329.932014 L204.5261,329.932014 L204.5261,335.536014 L205.9301,335.536014 Z M211.7001,335.656014 C212.7201,335.656014 213.7041,335.224014 214.2201,334.408014 L213.2961,333.700014 C212.9601,334.156014 212.3841,334.396014 211.7721,334.396014 C210.9441,334.396014 210.3441,334.000014 210.1881,333.220014 L214.5201,333.220014 C214.5441,333.016014 214.5561,332.836014 214.5561,332.680014 C214.5561,330.928014 213.2961,329.812014 211.6881,329.812014 C210.0921,329.812014 208.7481,330.940014 208.7481,332.728014 C208.7481,334.480014 210.0201,335.656014 211.7001,335.656014 Z M213.1641,332.248014 L210.1881,332.248014 C210.3561,331.396014 210.9561,331.036014 211.7121,331.036014 C212.4921,331.036014 213.0801,331.480014 213.1641,332.248014 Z M218.4421,335.656014 C219.4621,335.656014 220.4461,335.224014 220.9621,334.408014 L220.0381,333.700014 C219.7021,334.156014 219.1261,334.396014 218.5141,334.396014 C217.6861,334.396014 217.0861,334.000014 216.9301,333.220014 L221.2621,333.220014 C221.2861,333.016014 221.2981,332.836014 221.2981,332.680014 C221.2981,330.928014 220.0381,329.812014 218.4301,329.812014 C216.8341,329.812014 215.4901,330.940014 215.4901,332.728014 C215.4901,334.480014 216.7621,335.656014 218.4421,335.656014 Z M219.9061,332.248014 L216.9301,332.248014 C217.0981,331.396014 217.6981,331.036014 218.4541,331.036014 C219.2341,331.036014 219.8221,331.480014 219.9061,332.248014 Z M227.3901,335.656014 C228.5301,335.656014 229.6701,335.056014 229.6701,333.916014 C229.6701,333.400014 229.4421,332.608014 228.1821,332.284014 L227.2821,332.044014 C226.9581,331.972014 226.6821,331.804014 226.6821,331.516014 C226.6821,331.168014 226.9821,330.928014 227.4141,330.928014 C227.8101,330.928014 228.1581,331.168014 228.1581,331.564014 L229.4901,331.564014 C229.5021,330.304014 228.3741,329.812014 227.3781,329.812014 C226.1541,329.812014 225.2901,330.580014 225.2901,331.456014 C225.2901,332.164014 225.6141,332.836014 226.8741,333.172014 L227.6181,333.364014 C228.0381,333.460014 228.2781,333.604014 228.2781,333.916014 C228.2781,334.276014 227.9181,334.528014 227.3661,334.528014 C226.7781,334.528014 226.4421,334.168014 226.4421,333.784014 L225.1341,333.784014 C225.1581,334.984014 226.2741,335.656014 227.3901,335.656014 Z M232.8481,335.536014 L232.8481,331.048014 L234.0361,331.048014 L234.0361,329.932014 L232.8481,329.932014 L232.8481,327.868014 L231.4561,327.868014 L231.4561,329.932014 L230.4481,329.932014 L230.4481,331.048014 L231.4561,331.048014 L231.4561,335.536014 L232.8481,335.536014 Z M236.5181,335.536014 L236.5181,333.580014 C236.5181,332.008014 237.0221,331.120014 237.9341,331.120014 C238.1381,331.120014 238.4261,331.156014 238.7501,331.324014 L239.0261,330.004014 C238.8101,329.884014 238.4501,329.812014 238.1141,329.812014 C237.4181,329.812014 236.8061,330.196014 236.5061,331.132014 L236.5061,329.932014 L235.1141,329.932014 L235.1141,335.536014 L236.5181,335.536014 Z M242.1081,335.656014 C242.7921,335.656014 243.5841,335.380014 243.9681,334.780014 L243.9681,335.536014 L245.3601,335.536014 L245.3601,329.932014 L243.9681,329.932014 L243.9681,330.676014 C243.5841,330.088014 242.8041,329.812014 242.0961,329.812014 C240.6201,329.812014 239.3481,330.928014 239.3481,332.728014 C239.3481,334.516014 240.6321,335.656014 242.1081,335.656014 Z M242.3241,334.348014 C241.4601,334.348014 240.7521,333.652014 240.7521,332.716014 C240.7521,331.780014 241.4601,331.108014 242.3241,331.108014 C243.1281,331.108014 243.9441,331.732014 243.9441,332.716014 C243.9441,333.700014 243.1761,334.348014 242.3241,334.348014 Z M248.9221,335.536014 L248.9221,331.048014 L250.1101,331.048014 L250.1101,329.932014 L248.9221,329.932014 L248.9221,327.868014 L247.5301,327.868014 L247.5301,329.932014 L246.5221,329.932014 L246.5221,331.048014 L247.5301,331.048014 L247.5301,335.536014 L248.9221,335.536014 Z M253.6121,335.656014 C254.6321,335.656014 255.6161,335.224014 256.1321,334.408014 L255.2081,333.700014 C254.8721,334.156014 254.2961,334.396014 253.6841,334.396014 C252.8561,334.396014 252.2561,334.000014 252.1001,333.220014 L256.4321,333.220014 C256.4561,333.016014 256.4681,332.836014 256.4681,332.680014 C256.4681,330.928014 255.2081,329.812014 253.6001,329.812014 C252.0041,329.812014 250.6601,330.940014 250.6601,332.728014 C250.6601,334.480014 251.9321,335.656014 253.6121,335.656014 Z M255.0761,332.248014 L252.1001,332.248014 C252.2681,331.396014 252.8681,331.036014 253.6241,331.036014 C254.4041,331.036014 254.9921,331.480014 255.0761,332.248014 Z M260.2821,338.356014 C262.2021,338.356014 263.4261,337.264014 263.4261,334.744014 L263.4261,329.932014 L262.0341,329.932014 L262.0341,330.664014 C261.6381,330.088014 260.8821,329.812014 260.1621,329.812014 C258.6861,329.812014 257.4141,330.928014 257.4141,332.728014 C257.4141,334.516014 258.6981,335.656014 260.1741,335.656014 C260.8581,335.656014 261.6381,335.368014 262.0341,334.792014 L262.0341,334.876014 C262.0341,336.472014 261.3621,337.096014 260.2821,337.096014 C259.6701,337.096014 259.0581,336.736014 258.7821,336.184014 L257.6301,336.712014 C258.1221,337.732014 259.1301,338.356014 260.2821,338.356014 Z M260.3901,334.348014 C259.5261,334.348014 258.8181,333.652014 258.8181,332.716014 C258.8181,331.780014 259.5261,331.108014 260.3901,331.108014 C261.1941,331.108014 262.0101,331.732014 262.0101,332.716014 C262.0101,333.700014 261.2421,334.348014 260.3901,334.348014 Z M265.7881,328.804014 C266.2921,328.804014 266.6881,328.432014 266.6881,327.952014 C266.6881,327.460014 266.2921,327.100014 265.7881,327.100014 C265.2961,327.100014 264.8761,327.460014 264.8761,327.952014 C264.8761,328.432014 265.2961,328.804014 265.7881,328.804014 Z M266.4841,335.536014 L266.4841,329.932014 L265.0921,329.932014 L265.0921,335.536014 L266.4841,335.536014 Z M270.7541,335.656014 C271.7741,335.656014 272.7581,335.224014 273.2741,334.408014 L272.3501,333.700014 C272.0141,334.156014 271.4381,334.396014 270.8261,334.396014 C269.9981,334.396014 269.3981,334.000014 269.2421,333.220014 L273.5741,333.220014 C273.5981,333.016014 273.6101,332.836014 273.6101,332.680014 C273.6101,330.928014 272.3501,329.812014 270.7421,329.812014 C269.1461,329.812014 267.8021,330.940014 267.8021,332.728014 C267.8021,334.480014 269.0741,335.656014 270.7541,335.656014 Z M272.2181,332.248014 L269.2421,332.248014 C269.4101,331.396014 270.0101,331.036014 270.7661,331.036014 C271.5461,331.036014 272.1341,331.480014 272.2181,332.248014 Z M276.7641,335.656014 C277.9041,335.656014 279.0441,335.056014 279.0441,333.916014 C279.0441,333.400014 278.8161,332.608014 277.5561,332.284014 L276.6561,332.044014 C276.3321,331.972014 276.0561,331.804014 276.0561,331.516014 C276.0561,331.168014 276.3561,330.928014 276.7881,330.928014 C277.1841,330.928014 277.5321,331.168014 277.5321,331.564014 L278.8641,331.564014 C278.8761,330.304014 277.7481,329.812014 276.7521,329.812014 C275.5281,329.812014 274.6641,330.580014 274.6641,331.456014 C274.6641,332.164014 274.9881,332.836014 276.2481,333.172014 L276.9921,333.364014 C277.4121,333.460014 277.6521,333.604014 277.6521,333.916014 C277.6521,334.276014 277.2921,334.528014 276.7401,334.528014 C276.1521,334.528014 275.8161,334.168014 275.8161,333.784014 L274.5081,333.784014 C274.5321,334.984014 275.6481,335.656014 276.7641,335.656014 Z" id="Totalamountspentonourcorethreestrategies" fill="#4A4A49" fill-rule="nonzero"></path>
                <polygon id="Fill-20" fill="#76C3E2" points="0 356.536439 10 356.536439 10 346.536439 0 346.536439"></polygon>
                <text id="--" font-family="SofiaProSemiBold, Sofia Pro" font-size="12" font-weight="500" letter-spacing="0.01"></text>
                <path d="M24.7241,353.644014 C26.0801,353.644014 27.2681,353.020014 28.0121,352.036014 L26.9081,351.208014 C26.4041,351.856014 25.6601,352.276014 24.7601,352.276014 C23.1641,352.276014 22.0001,350.992014 22.0001,349.408014 C22.0001,347.824014 23.1881,346.540014 24.7601,346.540014 C25.6601,346.540014 26.4041,346.960014 26.9081,347.620014 L28.0121,346.780014 C27.2681,345.808014 26.0801,345.172014 24.7241,345.172014 C22.3961,345.172014 20.5241,347.068014 20.5241,349.408014 C20.5241,351.748014 22.3961,353.644014 24.7241,353.644014 Z M31.7541,353.656014 C33.3501,353.656014 34.7421,352.492014 34.7421,350.716014 C34.7421,348.940014 33.3501,347.812014 31.7541,347.812014 C30.1581,347.812014 28.7781,348.940014 28.7781,350.716014 C28.7781,352.492014 30.1581,353.656014 31.7541,353.656014 Z M31.7541,352.360014 C30.8901,352.360014 30.1821,351.700014 30.1821,350.716014 C30.1821,349.756014 30.8901,349.108014 31.7541,349.108014 C32.6181,349.108014 33.3381,349.756014 33.3381,350.716014 C33.3381,351.700014 32.6181,352.360014 31.7541,352.360014 Z M37.9321,353.656014 C39.0721,353.656014 40.2121,353.056014 40.2121,351.916014 C40.2121,351.400014 39.9841,350.608014 38.7241,350.284014 L37.8241,350.044014 C37.5001,349.972014 37.2241,349.804014 37.2241,349.516014 C37.2241,349.168014 37.5241,348.928014 37.9561,348.928014 C38.3521,348.928014 38.7001,349.168014 38.7001,349.564014 L40.0321,349.564014 C40.0441,348.304014 38.9161,347.812014 37.9201,347.812014 C36.6961,347.812014 35.8321,348.580014 35.8321,349.456014 C35.8321,350.164014 36.1561,350.836014 37.4161,351.172014 L38.1601,351.364014 C38.5801,351.460014 38.8201,351.604014 38.8201,351.916014 C38.8201,352.276014 38.4601,352.528014 37.9081,352.528014 C37.3201,352.528014 36.9841,352.168014 36.9841,351.784014 L35.6761,351.784014 C35.7001,352.984014 36.8161,353.656014 37.9321,353.656014 Z M43.3901,353.536014 L43.3901,349.048014 L44.5781,349.048014 L44.5781,347.932014 L43.3901,347.932014 L43.3901,345.868014 L41.9981,345.868014 L41.9981,347.932014 L40.9901,347.932014 L40.9901,349.048014 L41.9981,349.048014 L41.9981,353.536014 L43.3901,353.536014 Z M47.4801,353.656014 C48.6201,353.656014 49.7601,353.056014 49.7601,351.916014 C49.7601,351.400014 49.5321,350.608014 48.2721,350.284014 L47.3721,350.044014 C47.0481,349.972014 46.7721,349.804014 46.7721,349.516014 C46.7721,349.168014 47.0721,348.928014 47.5041,348.928014 C47.9001,348.928014 48.2481,349.168014 48.2481,349.564014 L49.5801,349.564014 C49.5921,348.304014 48.4641,347.812014 47.4681,347.812014 C46.2441,347.812014 45.3801,348.580014 45.3801,349.456014 C45.3801,350.164014 45.7041,350.836014 46.9641,351.172014 L47.7081,351.364014 C48.1281,351.460014 48.3681,351.604014 48.3681,351.916014 C48.3681,352.276014 48.0081,352.528014 47.4561,352.528014 C46.8681,352.528014 46.5321,352.168014 46.5321,351.784014 L45.2241,351.784014 C45.2481,352.984014 46.3641,353.656014 47.4801,353.656014 Z M55.3961,353.536014 L55.3961,350.584014 C55.3961,349.516014 56.0441,349.156014 56.6921,349.156014 C57.2921,349.156014 57.7601,349.600014 57.7601,350.500014 L57.7601,353.536014 L59.1521,353.536014 L59.1521,350.716014 L59.1641,350.764014 C59.1041,349.756014 59.6081,349.156014 60.4121,349.156014 C61.0601,349.156014 61.5281,349.600014 61.5281,350.500014 L61.5281,353.536014 L62.9081,353.536014 L62.9081,350.392014 C62.9081,348.760014 62.1641,347.812014 60.7601,347.812014 C60.1961,347.812014 59.3201,348.028014 58.8761,348.916014 C58.5521,348.196014 57.8801,347.812014 57.0641,347.812014 C56.3681,347.812014 55.6001,348.184014 55.3961,348.892014 L55.3961,347.932014 L54.0041,347.932014 L54.0041,353.536014 L55.3961,353.536014 Z M66.9381,353.656014 C67.6221,353.656014 68.4141,353.380014 68.7981,352.780014 L68.7981,353.536014 L70.1901,353.536014 L70.1901,347.932014 L68.7981,347.932014 L68.7981,348.676014 C68.4141,348.088014 67.6341,347.812014 66.9261,347.812014 C65.4501,347.812014 64.1781,348.928014 64.1781,350.728014 C64.1781,352.516014 65.4621,353.656014 66.9381,353.656014 Z M67.1541,352.348014 C66.2901,352.348014 65.5821,351.652014 65.5821,350.716014 C65.5821,349.780014 66.2901,349.108014 67.1541,349.108014 C67.9581,349.108014 68.7741,349.732014 68.7741,350.716014 C68.7741,351.700014 68.0061,352.348014 67.1541,352.348014 Z M73.2481,353.536014 L73.2481,350.608014 C73.2481,349.528014 74.0401,349.180014 74.6761,349.180014 C75.3001,349.180014 75.8401,349.636014 75.8401,350.524014 L75.8401,353.536014 L77.2321,353.536014 L77.2321,350.392014 C77.2321,348.760014 76.4281,347.812014 74.9881,347.812014 C74.4121,347.812014 73.5361,348.124014 73.2481,348.820014 L73.2481,347.932014 L71.8561,347.932014 L71.8561,353.536014 L73.2481,353.536014 Z M81.2501,353.656014 C81.9341,353.656014 82.7261,353.380014 83.1101,352.780014 L83.1101,353.536014 L84.5021,353.536014 L84.5021,347.932014 L83.1101,347.932014 L83.1101,348.676014 C82.7261,348.088014 81.9461,347.812014 81.2381,347.812014 C79.7621,347.812014 78.4901,348.928014 78.4901,350.728014 C78.4901,352.516014 79.7741,353.656014 81.2501,353.656014 Z M81.4661,352.348014 C80.6021,352.348014 79.8941,351.652014 79.8941,350.716014 C79.8941,349.780014 80.6021,349.108014 81.4661,349.108014 C82.2701,349.108014 83.0861,349.732014 83.0861,350.716014 C83.0861,351.700014 82.3181,352.348014 81.4661,352.348014 Z M88.7001,356.356014 C90.6201,356.356014 91.8441,355.264014 91.8441,352.744014 L91.8441,347.932014 L90.4521,347.932014 L90.4521,348.664014 C90.0561,348.088014 89.3001,347.812014 88.5801,347.812014 C87.1041,347.812014 85.8321,348.928014 85.8321,350.728014 C85.8321,352.516014 87.1161,353.656014 88.5921,353.656014 C89.2761,353.656014 90.0561,353.368014 90.4521,352.792014 L90.4521,352.876014 C90.4521,354.472014 89.7801,355.096014 88.7001,355.096014 C88.0881,355.096014 87.4761,354.736014 87.2001,354.184014 L86.0481,354.712014 C86.5401,355.732014 87.5481,356.356014 88.7001,356.356014 Z M88.8081,352.348014 C87.9441,352.348014 87.2361,351.652014 87.2361,350.716014 C87.2361,349.780014 87.9441,349.108014 88.8081,349.108014 C89.6121,349.108014 90.4281,349.732014 90.4281,350.716014 C90.4281,351.700014 89.6601,352.348014 88.8081,352.348014 Z M96.1141,353.656014 C97.1341,353.656014 98.1181,353.224014 98.6341,352.408014 L97.7101,351.700014 C97.3741,352.156014 96.7981,352.396014 96.1861,352.396014 C95.3581,352.396014 94.7581,352.000014 94.6021,351.220014 L98.9341,351.220014 C98.9581,351.016014 98.9701,350.836014 98.9701,350.680014 C98.9701,348.928014 97.7101,347.812014 96.1021,347.812014 C94.5061,347.812014 93.1621,348.940014 93.1621,350.728014 C93.1621,352.480014 94.4341,353.656014 96.1141,353.656014 Z M97.5781,350.248014 L94.6021,350.248014 C94.7701,349.396014 95.3701,349.036014 96.1261,349.036014 C96.9061,349.036014 97.4941,349.480014 97.5781,350.248014 Z M101.6441,353.536014 L101.6441,350.584014 C101.6441,349.516014 102.2921,349.156014 102.9401,349.156014 C103.5401,349.156014 104.0081,349.600014 104.0081,350.500014 L104.0081,353.536014 L105.4001,353.536014 L105.4001,350.716014 L105.4121,350.764014 C105.3521,349.756014 105.8561,349.156014 106.6601,349.156014 C107.3081,349.156014 107.7761,349.600014 107.7761,350.500014 L107.7761,353.536014 L109.1561,353.536014 L109.1561,350.392014 C109.1561,348.760014 108.4121,347.812014 107.0081,347.812014 C106.4441,347.812014 105.5681,348.028014 105.1241,348.916014 C104.8001,348.196014 104.1281,347.812014 103.3121,347.812014 C102.6161,347.812014 101.8481,348.184014 101.6441,348.892014 L101.6441,347.932014 L100.2521,347.932014 L100.2521,353.536014 L101.6441,353.536014 Z M113.3661,353.656014 C114.3861,353.656014 115.3701,353.224014 115.8861,352.408014 L114.9621,351.700014 C114.6261,352.156014 114.0501,352.396014 113.4381,352.396014 C112.6101,352.396014 112.0101,352.000014 111.8541,351.220014 L116.1861,351.220014 C116.2101,351.016014 116.2221,350.836014 116.2221,350.680014 C116.2221,348.928014 114.9621,347.812014 113.3541,347.812014 C111.7581,347.812014 110.4141,348.940014 110.4141,350.728014 C110.4141,352.480014 111.6861,353.656014 113.3661,353.656014 Z M114.8301,350.248014 L111.8541,350.248014 C112.0221,349.396014 112.6221,349.036014 113.3781,349.036014 C114.1581,349.036014 114.7461,349.480014 114.8301,350.248014 Z M118.8961,353.536014 L118.8961,350.608014 C118.8961,349.528014 119.6881,349.180014 120.3241,349.180014 C120.9481,349.180014 121.4881,349.636014 121.4881,350.524014 L121.4881,353.536014 L122.8801,353.536014 L122.8801,350.392014 C122.8801,348.760014 122.0761,347.812014 120.6361,347.812014 C120.0601,347.812014 119.1841,348.124014 118.8961,348.820014 L118.8961,347.932014 L117.5041,347.932014 L117.5041,353.536014 L118.8961,353.536014 Z M126.2981,353.536014 L126.2981,349.048014 L127.4861,349.048014 L127.4861,347.932014 L126.2981,347.932014 L126.2981,345.868014 L124.9061,345.868014 L124.9061,347.932014 L123.8981,347.932014 L123.8981,349.048014 L124.9061,349.048014 L124.9061,353.536014 L126.2981,353.536014 Z M133.6861,353.656014 C134.3701,353.656014 135.1621,353.380014 135.5461,352.780014 L135.5461,353.536014 L136.9381,353.536014 L136.9381,347.932014 L135.5461,347.932014 L135.5461,348.676014 C135.1621,348.088014 134.3821,347.812014 133.6741,347.812014 C132.1981,347.812014 130.9261,348.928014 130.9261,350.728014 C130.9261,352.516014 132.2101,353.656014 133.6861,353.656014 Z M133.9021,352.348014 C133.0381,352.348014 132.3301,351.652014 132.3301,350.716014 C132.3301,349.780014 133.0381,349.108014 133.9021,349.108014 C134.7061,349.108014 135.5221,349.732014 135.5221,350.716014 C135.5221,351.700014 134.7541,352.348014 133.9021,352.348014 Z M139.9961,353.536014 L139.9961,350.608014 C139.9961,349.528014 140.7881,349.180014 141.4241,349.180014 C142.0481,349.180014 142.5881,349.636014 142.5881,350.524014 L142.5881,353.536014 L143.9801,353.536014 L143.9801,350.392014 C143.9801,348.760014 143.1761,347.812014 141.7361,347.812014 C141.1601,347.812014 140.2841,348.124014 139.9961,348.820014 L139.9961,347.932014 L138.6041,347.932014 L138.6041,353.536014 L139.9961,353.536014 Z M147.9981,353.656014 C148.6821,353.656014 149.4741,353.380014 149.8581,352.780014 L149.8581,353.536014 L151.2501,353.536014 L151.2501,344.932014 L149.8581,344.932014 L149.8581,348.676014 C149.4741,348.088014 148.6941,347.812014 147.9861,347.812014 C146.5101,347.812014 145.2381,348.928014 145.2381,350.728014 C145.2381,352.516014 146.5221,353.656014 147.9981,353.656014 Z M148.2141,352.348014 C147.3501,352.348014 146.6421,351.652014 146.6421,350.716014 C146.6421,349.780014 147.3501,349.108014 148.2141,349.108014 C149.0181,349.108014 149.8341,349.732014 149.8341,350.716014 C149.8341,351.700014 149.0661,352.348014 148.2141,352.348014 Z M158.2781,353.656014 C158.9621,353.656014 159.7541,353.380014 160.1381,352.780014 L160.1381,353.536014 L161.5301,353.536014 L161.5301,347.932014 L160.1381,347.932014 L160.1381,348.676014 C159.7541,348.088014 158.9741,347.812014 158.2661,347.812014 C156.7901,347.812014 155.5181,348.928014 155.5181,350.728014 C155.5181,352.516014 156.8021,353.656014 158.2781,353.656014 Z M158.4941,352.348014 C157.6301,352.348014 156.9221,351.652014 156.9221,350.716014 C156.9221,349.780014 157.6301,349.108014 158.4941,349.108014 C159.2981,349.108014 160.1141,349.732014 160.1141,350.716014 C160.1141,351.700014 159.3461,352.348014 158.4941,352.348014 Z M165.6201,353.656014 C166.3041,353.656014 167.0961,353.380014 167.4801,352.780014 L167.4801,353.536014 L168.8721,353.536014 L168.8721,344.932014 L167.4801,344.932014 L167.4801,348.676014 C167.0961,348.088014 166.3161,347.812014 165.6081,347.812014 C164.1321,347.812014 162.8601,348.928014 162.8601,350.728014 C162.8601,352.516014 164.1441,353.656014 165.6201,353.656014 Z M165.8361,352.348014 C164.9721,352.348014 164.2641,351.652014 164.2641,350.716014 C164.2641,349.780014 164.9721,349.108014 165.8361,349.108014 C166.6401,349.108014 167.4561,349.732014 167.4561,350.716014 C167.4561,351.700014 166.6881,352.348014 165.8361,352.348014 Z M171.9301,353.536014 L171.9301,350.584014 C171.9301,349.516014 172.5781,349.156014 173.2261,349.156014 C173.8261,349.156014 174.2941,349.600014 174.2941,350.500014 L174.2941,353.536014 L175.6861,353.536014 L175.6861,350.716014 L175.6981,350.764014 C175.6381,349.756014 176.1421,349.156014 176.9461,349.156014 C177.5941,349.156014 178.0621,349.600014 178.0621,350.500014 L178.0621,353.536014 L179.4421,353.536014 L179.4421,350.392014 C179.4421,348.760014 178.6981,347.812014 177.2941,347.812014 C176.7301,347.812014 175.8541,348.028014 175.4101,348.916014 C175.0861,348.196014 174.4141,347.812014 173.5981,347.812014 C172.9021,347.812014 172.1341,348.184014 171.9301,348.892014 L171.9301,347.932014 L170.5381,347.932014 L170.5381,353.536014 L171.9301,353.536014 Z M181.7441,346.804014 C182.2481,346.804014 182.6441,346.432014 182.6441,345.952014 C182.6441,345.460014 182.2481,345.100014 181.7441,345.100014 C181.2521,345.100014 180.8321,345.460014 180.8321,345.952014 C180.8321,346.432014 181.2521,346.804014 181.7441,346.804014 Z M182.4401,353.536014 L182.4401,347.932014 L181.0481,347.932014 L181.0481,353.536014 L182.4401,353.536014 Z M185.4981,353.536014 L185.4981,350.608014 C185.4981,349.528014 186.2901,349.180014 186.9261,349.180014 C187.5501,349.180014 188.0901,349.636014 188.0901,350.524014 L188.0901,353.536014 L189.4821,353.536014 L189.4821,350.392014 C189.4821,348.760014 188.6781,347.812014 187.2381,347.812014 C186.6621,347.812014 185.7861,348.124014 185.4981,348.820014 L185.4981,347.932014 L184.1061,347.932014 L184.1061,353.536014 L185.4981,353.536014 Z M191.7721,346.804014 C192.2761,346.804014 192.6721,346.432014 192.6721,345.952014 C192.6721,345.460014 192.2761,345.100014 191.7721,345.100014 C191.2801,345.100014 190.8601,345.460014 190.8601,345.952014 C190.8601,346.432014 191.2801,346.804014 191.7721,346.804014 Z M192.4681,353.536014 L192.4681,347.932014 L191.0761,347.932014 L191.0761,353.536014 L192.4681,353.536014 Z M196.0061,353.656014 C197.1461,353.656014 198.2861,353.056014 198.2861,351.916014 C198.2861,351.400014 198.0581,350.608014 196.7981,350.284014 L195.8981,350.044014 C195.5741,349.972014 195.2981,349.804014 195.2981,349.516014 C195.2981,349.168014 195.5981,348.928014 196.0301,348.928014 C196.4261,348.928014 196.7741,349.168014 196.7741,349.564014 L198.1061,349.564014 C198.1181,348.304014 196.9901,347.812014 195.9941,347.812014 C194.7701,347.812014 193.9061,348.580014 193.9061,349.456014 C193.9061,350.164014 194.2301,350.836014 195.4901,351.172014 L196.2341,351.364014 C196.6541,351.460014 196.8941,351.604014 196.8941,351.916014 C196.8941,352.276014 196.5341,352.528014 195.9821,352.528014 C195.3941,352.528014 195.0581,352.168014 195.0581,351.784014 L193.7501,351.784014 C193.7741,352.984014 194.8901,353.656014 196.0061,353.656014 Z M201.4641,353.536014 L201.4641,349.048014 L202.6521,349.048014 L202.6521,347.932014 L201.4641,347.932014 L201.4641,345.868014 L200.0721,345.868014 L200.0721,347.932014 L199.0641,347.932014 L199.0641,349.048014 L200.0721,349.048014 L200.0721,353.536014 L201.4641,353.536014 Z M205.1341,353.536014 L205.1341,351.580014 C205.1341,350.008014 205.6381,349.120014 206.5501,349.120014 C206.7541,349.120014 207.0421,349.156014 207.3661,349.324014 L207.6421,348.004014 C207.4261,347.884014 207.0661,347.812014 206.7301,347.812014 C206.0341,347.812014 205.4221,348.196014 205.1221,349.132014 L205.1221,347.932014 L203.7301,347.932014 L203.7301,353.536014 L205.1341,353.536014 Z M210.7241,353.656014 C211.4081,353.656014 212.2001,353.380014 212.5841,352.780014 L212.5841,353.536014 L213.9761,353.536014 L213.9761,347.932014 L212.5841,347.932014 L212.5841,348.676014 C212.2001,348.088014 211.4201,347.812014 210.7121,347.812014 C209.2361,347.812014 207.9641,348.928014 207.9641,350.728014 C207.9641,352.516014 209.2481,353.656014 210.7241,353.656014 Z M210.9401,352.348014 C210.0761,352.348014 209.3681,351.652014 209.3681,350.716014 C209.3681,349.780014 210.0761,349.108014 210.9401,349.108014 C211.7441,349.108014 212.5601,349.732014 212.5601,350.716014 C212.5601,351.700014 211.7921,352.348014 210.9401,352.348014 Z M217.5381,353.536014 L217.5381,349.048014 L218.7261,349.048014 L218.7261,347.932014 L217.5381,347.932014 L217.5381,345.868014 L216.1461,345.868014 L216.1461,347.932014 L215.1381,347.932014 L215.1381,349.048014 L216.1461,349.048014 L216.1461,353.536014 L217.5381,353.536014 Z M220.5001,346.804014 C221.0041,346.804014 221.4001,346.432014 221.4001,345.952014 C221.4001,345.460014 221.0041,345.100014 220.5001,345.100014 C220.0081,345.100014 219.5881,345.460014 219.5881,345.952014 C219.5881,346.432014 220.0081,346.804014 220.5001,346.804014 Z M221.1961,353.536014 L221.1961,347.932014 L219.8041,347.932014 L219.8041,353.536014 L221.1961,353.536014 Z M225.4901,353.656014 C227.0861,353.656014 228.4781,352.492014 228.4781,350.716014 C228.4781,348.940014 227.0861,347.812014 225.4901,347.812014 C223.8941,347.812014 222.5141,348.940014 222.5141,350.716014 C222.5141,352.492014 223.8941,353.656014 225.4901,353.656014 Z M225.4901,352.360014 C224.6261,352.360014 223.9181,351.700014 223.9181,350.716014 C223.9181,349.756014 224.6261,349.108014 225.4901,349.108014 C226.3541,349.108014 227.0741,349.756014 227.0741,350.716014 C227.0741,351.700014 226.3541,352.360014 225.4901,352.360014 Z M231.1881,353.536014 L231.1881,350.608014 C231.1881,349.528014 231.9801,349.180014 232.6161,349.180014 C233.2401,349.180014 233.7801,349.636014 233.7801,350.524014 L233.7801,353.536014 L235.1721,353.536014 L235.1721,350.392014 C235.1721,348.760014 234.3681,347.812014 232.9281,347.812014 C232.3521,347.812014 231.4761,348.124014 231.1881,348.820014 L231.1881,347.932014 L229.7961,347.932014 L229.7961,353.536014 L231.1881,353.536014 Z" id="Costsmanagementandadministration" fill="#4A4A49" fill-rule="nonzero"></path>
                <polygon id="Fill-21" fill="#BFB2B5" points="0 374.536439 10 374.536439 10 364.536439 0 364.536439"></polygon>
                <text id="--" font-family="SofiaProSemiBold, Sofia Pro" font-size="12" font-weight="500" letter-spacing="0.01"></text>
                <path d="M24.7241,371.644014 C26.0801,371.644014 27.2681,371.020014 28.0121,370.036014 L26.9081,369.208014 C26.4041,369.856014 25.6601,370.276014 24.7601,370.276014 C23.1641,370.276014 22.0001,368.992014 22.0001,367.408014 C22.0001,365.824014 23.1881,364.540014 24.7601,364.540014 C25.6601,364.540014 26.4041,364.960014 26.9081,365.620014 L28.0121,364.780014 C27.2681,363.808014 26.0801,363.172014 24.7241,363.172014 C22.3961,363.172014 20.5241,365.068014 20.5241,367.408014 C20.5241,369.748014 22.3961,371.644014 24.7241,371.644014 Z M31.7541,371.656014 C33.3501,371.656014 34.7421,370.492014 34.7421,368.716014 C34.7421,366.940014 33.3501,365.812014 31.7541,365.812014 C30.1581,365.812014 28.7781,366.940014 28.7781,368.716014 C28.7781,370.492014 30.1581,371.656014 31.7541,371.656014 Z M31.7541,370.360014 C30.8901,370.360014 30.1821,369.700014 30.1821,368.716014 C30.1821,367.756014 30.8901,367.108014 31.7541,367.108014 C32.6181,367.108014 33.3381,367.756014 33.3381,368.716014 C33.3381,369.700014 32.6181,370.360014 31.7541,370.360014 Z M37.9321,371.656014 C39.0721,371.656014 40.2121,371.056014 40.2121,369.916014 C40.2121,369.400014 39.9841,368.608014 38.7241,368.284014 L37.8241,368.044014 C37.5001,367.972014 37.2241,367.804014 37.2241,367.516014 C37.2241,367.168014 37.5241,366.928014 37.9561,366.928014 C38.3521,366.928014 38.7001,367.168014 38.7001,367.564014 L40.0321,367.564014 C40.0441,366.304014 38.9161,365.812014 37.9201,365.812014 C36.6961,365.812014 35.8321,366.580014 35.8321,367.456014 C35.8321,368.164014 36.1561,368.836014 37.4161,369.172014 L38.1601,369.364014 C38.5801,369.460014 38.8201,369.604014 38.8201,369.916014 C38.8201,370.276014 38.4601,370.528014 37.9081,370.528014 C37.3201,370.528014 36.9841,370.168014 36.9841,369.784014 L35.6761,369.784014 C35.7001,370.984014 36.8161,371.656014 37.9321,371.656014 Z M43.3901,371.536014 L43.3901,367.048014 L44.5781,367.048014 L44.5781,365.932014 L43.3901,365.932014 L43.3901,363.868014 L41.9981,363.868014 L41.9981,365.932014 L40.9901,365.932014 L40.9901,367.048014 L41.9981,367.048014 L41.9981,371.536014 L43.3901,371.536014 Z M47.4801,371.656014 C48.6201,371.656014 49.7601,371.056014 49.7601,369.916014 C49.7601,369.400014 49.5321,368.608014 48.2721,368.284014 L47.3721,368.044014 C47.0481,367.972014 46.7721,367.804014 46.7721,367.516014 C46.7721,367.168014 47.0721,366.928014 47.5041,366.928014 C47.9001,366.928014 48.2481,367.168014 48.2481,367.564014 L49.5801,367.564014 C49.5921,366.304014 48.4641,365.812014 47.4681,365.812014 C46.2441,365.812014 45.3801,366.580014 45.3801,367.456014 C45.3801,368.164014 45.7041,368.836014 46.9641,369.172014 L47.7081,369.364014 C48.1281,369.460014 48.3681,369.604014 48.3681,369.916014 C48.3681,370.276014 48.0081,370.528014 47.4561,370.528014 C46.8681,370.528014 46.5321,370.168014 46.5321,369.784014 L45.2241,369.784014 C45.2481,370.984014 46.3641,371.656014 47.4801,371.656014 Z M56.6321,371.656014 C58.2281,371.656014 59.6201,370.492014 59.6201,368.716014 C59.6201,366.940014 58.2281,365.812014 56.6321,365.812014 C55.0361,365.812014 53.6561,366.940014 53.6561,368.716014 C53.6561,370.492014 55.0361,371.656014 56.6321,371.656014 Z M56.6321,370.360014 C55.7681,370.360014 55.0601,369.700014 55.0601,368.716014 C55.0601,367.756014 55.7681,367.108014 56.6321,367.108014 C57.4961,367.108014 58.2161,367.756014 58.2161,368.716014 C58.2161,369.700014 57.4961,370.360014 56.6321,370.360014 Z M64.1901,371.656014 C65.6661,371.656014 66.9501,370.516014 66.9501,368.728014 C66.9501,366.928014 65.6781,365.812014 64.2021,365.812014 C63.4941,365.812014 62.7141,366.088014 62.3301,366.676014 L62.3301,362.932014 L60.9381,362.932014 L60.9381,371.536014 L62.3301,371.536014 L62.3301,370.780014 C62.7141,371.380014 63.5181,371.656014 64.1901,371.656014 Z M63.9741,370.348014 C63.1221,370.348014 62.3541,369.700014 62.3541,368.716014 C62.3541,367.732014 63.1701,367.108014 63.9741,367.108014 C64.8381,367.108014 65.5581,367.780014 65.5581,368.716014 C65.5581,369.652014 64.8381,370.348014 63.9741,370.348014 Z M70.0081,371.536014 L70.0081,367.048014 L71.1961,367.048014 L71.1961,365.932014 L70.0081,365.932014 L70.0081,363.868014 L68.6161,363.868014 L68.6161,365.932014 L67.6081,365.932014 L67.6081,367.048014 L68.6161,367.048014 L68.6161,371.536014 L70.0081,371.536014 Z M74.5181,371.656014 C75.2021,371.656014 75.9941,371.380014 76.3781,370.780014 L76.3781,371.536014 L77.7701,371.536014 L77.7701,365.932014 L76.3781,365.932014 L76.3781,366.676014 C75.9941,366.088014 75.2141,365.812014 74.5061,365.812014 C73.0301,365.812014 71.7581,366.928014 71.7581,368.728014 C71.7581,370.516014 73.0421,371.656014 74.5181,371.656014 Z M74.7341,370.348014 C73.8701,370.348014 73.1621,369.652014 73.1621,368.716014 C73.1621,367.780014 73.8701,367.108014 74.7341,367.108014 C75.5381,367.108014 76.3541,367.732014 76.3541,368.716014 C76.3541,369.700014 75.5861,370.348014 74.7341,370.348014 Z M80.1321,364.804014 C80.6361,364.804014 81.0321,364.432014 81.0321,363.952014 C81.0321,363.460014 80.6361,363.100014 80.1321,363.100014 C79.6401,363.100014 79.2201,363.460014 79.2201,363.952014 C79.2201,364.432014 79.6401,364.804014 80.1321,364.804014 Z M80.8281,371.536014 L80.8281,365.932014 L79.4361,365.932014 L79.4361,371.536014 L80.8281,371.536014 Z M83.8861,371.536014 L83.8861,368.608014 C83.8861,367.528014 84.6781,367.180014 85.3141,367.180014 C85.9381,367.180014 86.4781,367.636014 86.4781,368.524014 L86.4781,371.536014 L87.8701,371.536014 L87.8701,368.392014 C87.8701,366.760014 87.0661,365.812014 85.6261,365.812014 C85.0501,365.812014 84.1741,366.124014 83.8861,366.820014 L83.8861,365.932014 L82.4941,365.932014 L82.4941,371.536014 L83.8861,371.536014 Z M90.1601,364.804014 C90.6641,364.804014 91.0601,364.432014 91.0601,363.952014 C91.0601,363.460014 90.6641,363.100014 90.1601,363.100014 C89.6681,363.100014 89.2481,363.460014 89.2481,363.952014 C89.2481,364.432014 89.6681,364.804014 90.1601,364.804014 Z M90.8561,371.536014 L90.8561,365.932014 L89.4641,365.932014 L89.4641,371.536014 L90.8561,371.536014 Z M93.9141,371.536014 L93.9141,368.608014 C93.9141,367.528014 94.7061,367.180014 95.3421,367.180014 C95.9661,367.180014 96.5061,367.636014 96.5061,368.524014 L96.5061,371.536014 L97.8981,371.536014 L97.8981,368.392014 C97.8981,366.760014 97.0941,365.812014 95.6541,365.812014 C95.0781,365.812014 94.2021,366.124014 93.9141,366.820014 L93.9141,365.932014 L92.5221,365.932014 L92.5221,371.536014 L93.9141,371.536014 Z M102.0241,374.356014 C103.9441,374.356014 105.1681,373.264014 105.1681,370.744014 L105.1681,365.932014 L103.7761,365.932014 L103.7761,366.664014 C103.3801,366.088014 102.6241,365.812014 101.9041,365.812014 C100.4281,365.812014 99.1561,366.928014 99.1561,368.728014 C99.1561,370.516014 100.4401,371.656014 101.9161,371.656014 C102.6001,371.656014 103.3801,371.368014 103.7761,370.792014 L103.7761,370.876014 C103.7761,372.472014 103.1041,373.096014 102.0241,373.096014 C101.4121,373.096014 100.8001,372.736014 100.5241,372.184014 L99.3721,372.712014 C99.8641,373.732014 100.8721,374.356014 102.0241,374.356014 Z M102.1321,370.348014 C101.2681,370.348014 100.5601,369.652014 100.5601,368.716014 C100.5601,367.780014 101.2681,367.108014 102.1321,367.108014 C102.9361,367.108014 103.7521,367.732014 103.7521,368.716014 C103.7521,369.700014 102.9841,370.348014 102.1321,370.348014 Z M112.3041,374.356014 C114.2241,374.356014 115.4481,373.264014 115.4481,370.744014 L115.4481,365.932014 L114.0561,365.932014 L114.0561,366.664014 C113.6601,366.088014 112.9041,365.812014 112.1841,365.812014 C110.7081,365.812014 109.4361,366.928014 109.4361,368.728014 C109.4361,370.516014 110.7201,371.656014 112.1961,371.656014 C112.8801,371.656014 113.6601,371.368014 114.0561,370.792014 L114.0561,370.876014 C114.0561,372.472014 113.3841,373.096014 112.3041,373.096014 C111.6921,373.096014 111.0801,372.736014 110.8041,372.184014 L109.6521,372.712014 C110.1441,373.732014 111.1521,374.356014 112.3041,374.356014 Z M112.4121,370.348014 C111.5481,370.348014 110.8401,369.652014 110.8401,368.716014 C110.8401,367.780014 111.5481,367.108014 112.4121,367.108014 C113.2161,367.108014 114.0321,367.732014 114.0321,368.716014 C114.0321,369.700014 113.2641,370.348014 112.4121,370.348014 Z M119.7421,371.656014 C121.3381,371.656014 122.7301,370.492014 122.7301,368.716014 C122.7301,366.940014 121.3381,365.812014 119.7421,365.812014 C118.1461,365.812014 116.7661,366.940014 116.7661,368.716014 C116.7661,370.492014 118.1461,371.656014 119.7421,371.656014 Z M119.7421,370.360014 C118.8781,370.360014 118.1701,369.700014 118.1701,368.716014 C118.1701,367.756014 118.8781,367.108014 119.7421,367.108014 C120.6061,367.108014 121.3261,367.756014 121.3261,368.716014 C121.3261,369.700014 120.6061,370.360014 119.7421,370.360014 Z M126.6521,371.536014 L129.0161,365.932014 L127.5041,365.932014 L126.0281,369.772014 L124.5401,365.932014 L123.0401,365.932014 L125.3801,371.536014 L126.6521,371.536014 Z M132.2901,371.656014 C133.3101,371.656014 134.2941,371.224014 134.8101,370.408014 L133.8861,369.700014 C133.5501,370.156014 132.9741,370.396014 132.3621,370.396014 C131.5341,370.396014 130.9341,370.000014 130.7781,369.220014 L135.1101,369.220014 C135.1341,369.016014 135.1461,368.836014 135.1461,368.680014 C135.1461,366.928014 133.8861,365.812014 132.2781,365.812014 C130.6821,365.812014 129.3381,366.940014 129.3381,368.728014 C129.3381,370.480014 130.6101,371.656014 132.2901,371.656014 Z M133.7541,368.248014 L130.7781,368.248014 C130.9461,367.396014 131.5461,367.036014 132.3021,367.036014 C133.0821,367.036014 133.6701,367.480014 133.7541,368.248014 Z M137.8321,371.536014 L137.8321,369.580014 C137.8321,368.008014 138.3361,367.120014 139.2481,367.120014 C139.4521,367.120014 139.7401,367.156014 140.0641,367.324014 L140.3401,366.004014 C140.1241,365.884014 139.7641,365.812014 139.4281,365.812014 C138.7321,365.812014 138.1201,366.196014 137.8201,367.132014 L137.8201,365.932014 L136.4281,365.932014 L136.4281,371.536014 L137.8321,371.536014 Z M142.6661,371.536014 L142.6661,368.608014 C142.6661,367.528014 143.4581,367.180014 144.0941,367.180014 C144.7181,367.180014 145.2581,367.636014 145.2581,368.524014 L145.2581,371.536014 L146.6501,371.536014 L146.6501,368.392014 C146.6501,366.760014 145.8461,365.812014 144.4061,365.812014 C143.8301,365.812014 142.9541,366.124014 142.6661,366.820014 L142.6661,365.932014 L141.2741,365.932014 L141.2741,371.536014 L142.6661,371.536014 Z M149.6361,371.536014 L149.6361,368.584014 C149.6361,367.516014 150.2841,367.156014 150.9321,367.156014 C151.5321,367.156014 152.0001,367.600014 152.0001,368.500014 L152.0001,371.536014 L153.3921,371.536014 L153.3921,368.716014 L153.4041,368.764014 C153.3441,367.756014 153.8481,367.156014 154.6521,367.156014 C155.3001,367.156014 155.7681,367.600014 155.7681,368.500014 L155.7681,371.536014 L157.1481,371.536014 L157.1481,368.392014 C157.1481,366.760014 156.4041,365.812014 155.0001,365.812014 C154.4361,365.812014 153.5601,366.028014 153.1161,366.916014 C152.7921,366.196014 152.1201,365.812014 151.3041,365.812014 C150.6081,365.812014 149.8401,366.184014 149.6361,366.892014 L149.6361,365.932014 L148.2441,365.932014 L148.2441,371.536014 L149.6361,371.536014 Z M161.3581,371.656014 C162.3781,371.656014 163.3621,371.224014 163.8781,370.408014 L162.9541,369.700014 C162.6181,370.156014 162.0421,370.396014 161.4301,370.396014 C160.6021,370.396014 160.0021,370.000014 159.8461,369.220014 L164.1781,369.220014 C164.2021,369.016014 164.2141,368.836014 164.2141,368.680014 C164.2141,366.928014 162.9541,365.812014 161.3461,365.812014 C159.7501,365.812014 158.4061,366.940014 158.4061,368.728014 C158.4061,370.480014 159.6781,371.656014 161.3581,371.656014 Z M162.8221,368.248014 L159.8461,368.248014 C160.0141,367.396014 160.6141,367.036014 161.3701,367.036014 C162.1501,367.036014 162.7381,367.480014 162.8221,368.248014 Z M166.8881,371.536014 L166.8881,368.608014 C166.8881,367.528014 167.6801,367.180014 168.3161,367.180014 C168.9401,367.180014 169.4801,367.636014 169.4801,368.524014 L169.4801,371.536014 L170.8721,371.536014 L170.8721,368.392014 C170.8721,366.760014 170.0681,365.812014 168.6281,365.812014 C168.0521,365.812014 167.1761,366.124014 166.8881,366.820014 L166.8881,365.932014 L165.4961,365.932014 L165.4961,371.536014 L166.8881,371.536014 Z M174.2901,371.536014 L174.2901,367.048014 L175.4781,367.048014 L175.4781,365.932014 L174.2901,365.932014 L174.2901,363.868014 L172.8981,363.868014 L172.8981,365.932014 L171.8901,365.932014 L171.8901,367.048014 L172.8981,367.048014 L172.8981,371.536014 L174.2901,371.536014 Z M181.7861,374.356014 C183.7061,374.356014 184.9301,373.264014 184.9301,370.744014 L184.9301,365.932014 L183.5381,365.932014 L183.5381,366.664014 C183.1421,366.088014 182.3861,365.812014 181.6661,365.812014 C180.1901,365.812014 178.9181,366.928014 178.9181,368.728014 C178.9181,370.516014 180.2021,371.656014 181.6781,371.656014 C182.3621,371.656014 183.1421,371.368014 183.5381,370.792014 L183.5381,370.876014 C183.5381,372.472014 182.8661,373.096014 181.7861,373.096014 C181.1741,373.096014 180.5621,372.736014 180.2861,372.184014 L179.1341,372.712014 C179.6261,373.732014 180.6341,374.356014 181.7861,374.356014 Z M181.8941,370.348014 C181.0301,370.348014 180.3221,369.652014 180.3221,368.716014 C180.3221,367.780014 181.0301,367.108014 181.8941,367.108014 C182.6981,367.108014 183.5141,367.732014 183.5141,368.716014 C183.5141,369.700014 182.7461,370.348014 181.8941,370.348014 Z M188.0001,371.536014 L188.0001,369.580014 C188.0001,368.008014 188.5041,367.120014 189.4161,367.120014 C189.6201,367.120014 189.9081,367.156014 190.2321,367.324014 L190.5081,366.004014 C190.2921,365.884014 189.9321,365.812014 189.5961,365.812014 C188.9001,365.812014 188.2881,366.196014 187.9881,367.132014 L187.9881,365.932014 L186.5961,365.932014 L186.5961,371.536014 L188.0001,371.536014 Z M193.5901,371.656014 C194.2741,371.656014 195.0661,371.380014 195.4501,370.780014 L195.4501,371.536014 L196.8421,371.536014 L196.8421,365.932014 L195.4501,365.932014 L195.4501,366.676014 C195.0661,366.088014 194.2861,365.812014 193.5781,365.812014 C192.1021,365.812014 190.8301,366.928014 190.8301,368.728014 C190.8301,370.516014 192.1141,371.656014 193.5901,371.656014 Z M193.8061,370.348014 C192.9421,370.348014 192.2341,369.652014 192.2341,368.716014 C192.2341,367.780014 192.9421,367.108014 193.8061,367.108014 C194.6101,367.108014 195.4261,367.732014 195.4261,368.716014 C195.4261,369.700014 194.6581,370.348014 193.8061,370.348014 Z M199.9001,371.536014 L199.9001,368.608014 C199.9001,367.528014 200.6921,367.180014 201.3281,367.180014 C201.9521,367.180014 202.4921,367.636014 202.4921,368.524014 L202.4921,371.536014 L203.8841,371.536014 L203.8841,368.392014 C203.8841,366.760014 203.0801,365.812014 201.6401,365.812014 C201.0641,365.812014 200.1881,366.124014 199.9001,366.820014 L199.9001,365.932014 L198.5081,365.932014 L198.5081,371.536014 L199.9001,371.536014 Z M207.3021,371.536014 L207.3021,367.048014 L208.4901,367.048014 L208.4901,365.932014 L207.3021,365.932014 L207.3021,363.868014 L205.9101,363.868014 L205.9101,365.932014 L204.9021,365.932014 L204.9021,367.048014 L205.9101,367.048014 L205.9101,371.536014 L207.3021,371.536014 Z M211.3921,371.656014 C212.5321,371.656014 213.6721,371.056014 213.6721,369.916014 C213.6721,369.400014 213.4441,368.608014 212.1841,368.284014 L211.2841,368.044014 C210.9601,367.972014 210.6841,367.804014 210.6841,367.516014 C210.6841,367.168014 210.9841,366.928014 211.4161,366.928014 C211.8121,366.928014 212.1601,367.168014 212.1601,367.564014 L213.4921,367.564014 C213.5041,366.304014 212.3761,365.812014 211.3801,365.812014 C210.1561,365.812014 209.2921,366.580014 209.2921,367.456014 C209.2921,368.164014 209.6161,368.836014 210.8761,369.172014 L211.6201,369.364014 C212.0401,369.460014 212.2801,369.604014 212.2801,369.916014 C212.2801,370.276014 211.9201,370.528014 211.3681,370.528014 C210.7801,370.528014 210.4441,370.168014 210.4441,369.784014 L209.1361,369.784014 C209.1601,370.984014 210.2761,371.656014 211.3921,371.656014 Z M220.3401,371.656014 C221.0241,371.656014 221.8161,371.380014 222.2001,370.780014 L222.2001,371.536014 L223.5921,371.536014 L223.5921,365.932014 L222.2001,365.932014 L222.2001,366.676014 C221.8161,366.088014 221.0361,365.812014 220.3281,365.812014 C218.8521,365.812014 217.5801,366.928014 217.5801,368.728014 C217.5801,370.516014 218.8641,371.656014 220.3401,371.656014 Z M220.5561,370.348014 C219.6921,370.348014 218.9841,369.652014 218.9841,368.716014 C218.9841,367.780014 219.6921,367.108014 220.5561,367.108014 C221.3601,367.108014 222.1761,367.732014 222.1761,368.716014 C222.1761,369.700014 221.4081,370.348014 220.5561,370.348014 Z M226.6501,371.536014 L226.6501,368.608014 C226.6501,367.528014 227.4421,367.180014 228.0781,367.180014 C228.7021,367.180014 229.2421,367.636014 229.2421,368.524014 L229.2421,371.536014 L230.6341,371.536014 L230.6341,368.392014 C230.6341,366.760014 229.8301,365.812014 228.3901,365.812014 C227.8141,365.812014 226.9381,366.124014 226.6501,366.820014 L226.6501,365.932014 L225.2581,365.932014 L225.2581,371.536014 L226.6501,371.536014 Z M234.6521,371.656014 C235.3361,371.656014 236.1281,371.380014 236.5121,370.780014 L236.5121,371.536014 L237.9041,371.536014 L237.9041,362.932014 L236.5121,362.932014 L236.5121,366.676014 C236.1281,366.088014 235.3481,365.812014 234.6401,365.812014 C233.1641,365.812014 231.8921,366.928014 231.8921,368.728014 C231.8921,370.516014 233.1761,371.656014 234.6521,371.656014 Z M234.8681,370.348014 C234.0041,370.348014 233.2961,369.652014 233.2961,368.716014 C233.2961,367.780014 234.0041,367.108014 234.8681,367.108014 C235.6721,367.108014 236.4881,367.732014 236.4881,368.716014 C236.4881,369.700014 235.7201,370.348014 234.8681,370.348014 Z M245.1361,371.656014 C246.7321,371.656014 248.1241,370.492014 248.1241,368.716014 C248.1241,366.940014 246.7321,365.812014 245.1361,365.812014 C243.5401,365.812014 242.1601,366.940014 242.1601,368.716014 C242.1601,370.492014 243.5401,371.656014 245.1361,371.656014 Z M245.1361,370.360014 C244.2721,370.360014 243.5641,369.700014 243.5641,368.716014 C243.5641,367.756014 244.2721,367.108014 245.1361,367.108014 C246.0001,367.108014 246.7201,367.756014 246.7201,368.716014 C246.7201,369.700014 246.0001,370.360014 245.1361,370.360014 Z M251.1713,371.536014 L251.1713,367.048014 L252.3593,367.048014 L252.3593,365.932014 L251.1713,365.932014 L251.1713,363.868014 L249.7793,363.868014 L249.7793,365.932014 L248.7713,365.932014 L248.7713,367.048014 L249.7793,367.048014 L249.7793,371.536014 L251.1713,371.536014 Z M254.8293,371.536014 L254.8293,368.608014 C254.8293,367.528014 255.6213,367.180014 256.2573,367.180014 C256.8813,367.180014 257.4213,367.636014 257.4213,368.524014 L257.4213,371.536014 L258.8133,371.536014 L258.8133,368.392014 C258.8133,366.760014 258.0093,365.812014 256.5693,365.812014 C256.0053,365.812014 255.1053,366.112014 254.8293,366.784014 L254.8293,362.932014 L253.4373,362.932014 L253.4373,371.536014 L254.8293,371.536014 Z M263.0113,371.656014 C264.0313,371.656014 265.0153,371.224014 265.5313,370.408014 L264.6073,369.700014 C264.2713,370.156014 263.6953,370.396014 263.0833,370.396014 C262.2553,370.396014 261.6553,370.000014 261.4993,369.220014 L265.8313,369.220014 C265.8553,369.016014 265.8673,368.836014 265.8673,368.680014 C265.8673,366.928014 264.6073,365.812014 262.9993,365.812014 C261.4033,365.812014 260.0593,366.940014 260.0593,368.728014 C260.0593,370.480014 261.3313,371.656014 263.0113,371.656014 Z M264.4753,368.248014 L261.4993,368.248014 C261.6673,367.396014 262.2673,367.036014 263.0233,367.036014 C263.8033,367.036014 264.3913,367.480014 264.4753,368.248014 Z M268.5533,371.536014 L268.5533,369.580014 C268.5533,368.008014 269.0573,367.120014 269.9693,367.120014 C270.1733,367.120014 270.4613,367.156014 270.7853,367.324014 L271.0613,366.004014 C270.8453,365.884014 270.4853,365.812014 270.1493,365.812014 C269.4533,365.812014 268.8413,366.196014 268.5413,367.132014 L268.5413,365.932014 L267.1493,365.932014 L267.1493,371.536014 L268.5533,371.536014 Z M273.7353,371.656014 C274.8753,371.656014 276.0153,371.056014 276.0153,369.916014 C276.0153,369.400014 275.7873,368.608014 274.5273,368.284014 L273.6273,368.044014 C273.3033,367.972014 273.0273,367.804014 273.0273,367.516014 C273.0273,367.168014 273.3273,366.928014 273.7593,366.928014 C274.1553,366.928014 274.5033,367.168014 274.5033,367.564014 L275.8353,367.564014 C275.8473,366.304014 274.7193,365.812014 273.7233,365.812014 C272.4993,365.812014 271.6353,366.580014 271.6353,367.456014 C271.6353,368.164014 271.9593,368.836014 273.2193,369.172014 L273.9633,369.364014 C274.3833,369.460014 274.6233,369.604014 274.6233,369.916014 C274.6233,370.276014 274.2633,370.528014 273.7113,370.528014 C273.1233,370.528014 272.7873,370.168014 272.7873,369.784014 L271.4793,369.784014 C271.5033,370.984014 272.6193,371.656014 273.7353,371.656014 Z" id="Costsobtaininggovernmentgrantsandothers" fill="#4A4A49" fill-rule="nonzero"></path>
                <path d="M183.3443,150.439 C186.8403,150.439 188.6073,147.304 188.6073,143.618 C188.6073,140.084 186.6883,137.652 183.7813,137.652 C181.0073,137.652 179.1833,139.457 179.1833,141.832 C179.1833,143.998 180.8553,145.841 183.3823,145.841 C184.5793,145.841 185.4723,145.404 186.0803,144.796 C185.9853,146.734 184.8833,148.121 183.3253,148.121 C182.5083,148.121 181.7483,147.703 181.3493,146.867 L179.3353,147.969 C180.0953,149.66 181.7103,150.439 183.3443,150.439 Z M183.7243,143.732 C182.5463,143.713 181.7103,142.934 181.7103,141.851 C181.7103,140.749 182.5653,139.97 183.8003,139.97 C185.0163,139.989 185.8713,140.787 185.8713,141.889 C185.8523,142.972 184.9593,143.732 183.7243,143.732 Z M198.2393,150.268 L198.2393,147.893 L200.1393,147.893 L200.1393,145.67 L198.2393,145.67 L198.2393,137.823 L196.7573,137.823 L189.7083,147.152 L189.7083,147.893 L195.7123,147.893 L195.7123,150.268 L198.2393,150.268 Z M195.7123,145.67 L193.2613,145.67 L195.7123,142.383 L195.7123,145.67 Z M203.9953,142.592 C205.4013,142.592 206.5413,141.49 206.5413,140.065 C206.5413,138.659 205.4013,137.519 203.9953,137.519 C202.5703,137.519 201.4683,138.659 201.4683,140.065 C201.4683,141.49 202.5703,142.592 203.9953,142.592 Z M204.5083,150.268 L210.6833,137.823 L209.2773,137.823 L203.1213,150.268 L204.5083,150.268 Z M203.9953,141.205 C203.3303,141.205 202.8553,140.73 202.8553,140.065 C202.8553,139.438 203.3303,138.906 203.9953,138.906 C204.6223,138.906 205.1543,139.438 205.1543,140.065 C205.1543,140.73 204.6223,141.205 203.9953,141.205 Z M209.8283,150.439 C211.2343,150.439 212.3743,149.337 212.3743,147.912 C212.3743,146.506 211.2343,145.366 209.8283,145.366 C208.4033,145.366 207.3013,146.506 207.3013,147.912 C207.3013,149.337 208.4033,150.439 209.8283,150.439 Z M209.8283,149.052 C209.1823,149.052 208.6883,148.577 208.6883,147.912 C208.6883,147.285 209.1823,146.753 209.8283,146.753 C210.4743,146.753 210.9873,147.285 210.9873,147.912 C210.9873,148.577 210.4743,149.052 209.8283,149.052 Z" id="94%" fill="#FEFEFE" fill-rule="nonzero"></path>
                <path d="M160.7343,20.004 C163.3183,20.004 165.5603,18.332 165.5603,15.558 C165.5603,13.164 163.8883,11.397 161.4753,11.397 C160.6013,11.397 159.7843,11.663 159.2143,12.081 L159.6893,9.687 L164.7053,9.687 L164.7053,7.369 L157.6373,7.369 L156.5353,13.639 L158.0173,14.57 C158.7773,13.905 159.7843,13.449 160.7533,13.449 C162.0833,13.449 163.0333,14.323 163.0333,15.539 C163.0333,16.812 162.0453,17.686 160.6203,17.686 C159.6513,17.686 158.5683,17.04 158.1503,16.166 L156.2123,17.458 C157.0103,18.959 158.8913,20.004 160.7343,20.004 Z M169.4923,12.157 C170.8983,12.157 172.0383,11.055 172.0383,9.63 C172.0383,8.224 170.8983,7.084 169.4923,7.084 C168.0673,7.084 166.9653,8.224 166.9653,9.63 C166.9653,11.055 168.0673,12.157 169.4923,12.157 Z M170.0053,19.833 L176.1803,7.388 L174.7743,7.388 L168.6183,19.833 L170.0053,19.833 Z M169.4923,10.77 C168.8273,10.77 168.3523,10.295 168.3523,9.63 C168.3523,9.003 168.8273,8.471 169.4923,8.471 C170.1193,8.471 170.6513,9.003 170.6513,9.63 C170.6513,10.295 170.1193,10.77 169.4923,10.77 Z M175.3253,20.004 C176.7313,20.004 177.8713,18.902 177.8713,17.477 C177.8713,16.071 176.7313,14.931 175.3253,14.931 C173.9003,14.931 172.7983,16.071 172.7983,17.477 C172.7983,18.902 173.9003,20.004 175.3253,20.004 Z M175.3253,18.617 C174.6793,18.617 174.1853,18.142 174.1853,17.477 C174.1853,16.85 174.6793,16.318 175.3253,16.318 C175.9713,16.318 176.4843,16.85 176.4843,17.477 C176.4843,18.142 175.9713,18.617 175.3253,18.617 Z" id="5%" fill="#317FA3" fill-rule="nonzero"></path>
                <path d="M131.3223,14 L131.3223,1.384 L131.1133,1.384 L125.9453,3.531 L125.9453,5.868 L128.8143,4.766 L128.8143,14 L131.3223,14 Z M136.0333,6.324 C137.4393,6.324 138.5793,5.222 138.5793,3.797 C138.5793,2.391 137.4393,1.251 136.0333,1.251 C134.6083,1.251 133.5063,2.391 133.5063,3.797 C133.5063,5.222 134.6083,6.324 136.0333,6.324 Z M136.5463,14 L142.7213,1.555 L141.3153,1.555 L135.1593,14 L136.5463,14 Z M136.0333,4.937 C135.3683,4.937 134.8933,4.462 134.8933,3.797 C134.8933,3.17 135.3683,2.638 136.0333,2.638 C136.6603,2.638 137.1923,3.17 137.1923,3.797 C137.1923,4.462 136.6603,4.937 136.0333,4.937 Z M141.8663,14.171 C143.2723,14.171 144.4123,13.069 144.4123,11.644 C144.4123,10.238 143.2723,9.098 141.8663,9.098 C140.4413,9.098 139.3393,10.238 139.3393,11.644 C139.3393,13.069 140.4413,14.171 141.8663,14.171 Z M141.8663,12.784 C141.2203,12.784 140.7263,12.309 140.7263,11.644 C140.7263,11.017 141.2203,10.485 141.8663,10.485 C142.5123,10.485 143.0253,11.017 143.0253,11.644 C143.0253,12.309 142.5123,12.784 141.8663,12.784 Z" id="1%" fill="#317FA3" fill-rule="nonzero"></path>
            </g>
        </g>
    </g>
</svg>