<?xml version="1.0" encoding="UTF-8"?>
<svg width="254px" height="352px" viewBox="0 0 254 352" version="1.1" xmlns="http://www.w3.org/2000/svg" xmlns:xlink="http://www.w3.org/1999/xlink">
    <!-- Generator: Sketch 64 (93537) - https://sketch.com -->
    <title>Group 5 Copy</title>
    <desc>Created with Sketch.</desc>
    <g id="Page-3---About-GPPAC" stroke="none" stroke-width="1" fill="none" fill-rule="evenodd">
        <g id="Artboard" transform="translate(-150.000000, -621.000000)">
            <g id="Group-5-Copy" transform="translate(150.888900, 621.311400)">
                <path d="M130.6928,122.062 L10.4848,100.866 C20.7858,42.444 71.3688,8.5975671e-13 130.6928,8.5975671e-13 L130.6928,122.062 Z" id="Fill-1" fill="#BFB2B5"></path>
                <path d="M130.6928,122.062 L139.2078,243.827 C71.9588,248.53 13.6298,197.826 8.9278,130.577 C8.1748,119.817 8.6118,111.488 10.4848,100.866 L130.6928,122.062 Z" id="Fill-3" fill="#76C3E2"></path>
                <path d="M130.6928,122.062 L130.6928,5.68434189e-13 C198.1058,5.68434189e-13 252.7558,54.649 252.7558,122.062 C252.7558,186.779 203.7668,239.313 139.2078,243.827 L130.6928,122.062 Z" id="Fill-5" fill="#3180A4"></path>
                <polygon id="Fill-16" fill="#3180A4" points="0 315.6066 10 315.6066 10 305.6066 0 305.6066"></polygon>
                <text id="--" font-family="SofiaProSemiBold, Sofia Pro" font-size="12" font-weight="500" letter-spacing="0.01"></text>
                <path d="M26.248,312.606176 L26.248,311.298176 L22.504,311.298176 L22.504,309.210176 L25.672,309.210176 L25.672,307.878176 L22.504,307.878176 L22.504,305.646176 L26.128,305.646176 L26.128,304.338176 L21.052,304.338176 L21.052,312.606176 L26.248,312.606176 Z M28.91,312.606176 L28.91,309.678176 C28.91,308.598176 29.702,308.250176 30.338,308.250176 C30.962,308.250176 31.502,308.706176 31.502,309.594176 L31.502,312.606176 L32.894,312.606176 L32.894,309.462176 C32.894,307.830176 32.09,306.882176 30.65,306.882176 C30.074,306.882176 29.198,307.194176 28.91,307.890176 L28.91,307.002176 L27.518,307.002176 L27.518,312.606176 L28.91,312.606176 Z M36.912,312.726176 C37.596,312.726176 38.388,312.450176 38.772,311.850176 L38.772,312.606176 L40.164,312.606176 L40.164,307.002176 L38.772,307.002176 L38.772,307.746176 C38.388,307.158176 37.608,306.882176 36.9,306.882176 C35.424,306.882176 34.152,307.998176 34.152,309.798176 C34.152,311.586176 35.436,312.726176 36.912,312.726176 Z M37.128,311.418176 C36.264,311.418176 35.556,310.722176 35.556,309.786176 C35.556,308.850176 36.264,308.178176 37.128,308.178176 C37.932,308.178176 38.748,308.802176 38.748,309.786176 C38.748,310.770176 37.98,311.418176 37.128,311.418176 Z M45.082,312.726176 C46.558,312.726176 47.842,311.586176 47.842,309.798176 C47.842,307.998176 46.57,306.882176 45.094,306.882176 C44.386,306.882176 43.606,307.158176 43.222,307.746176 L43.222,304.002176 L41.83,304.002176 L41.83,312.606176 L43.222,312.606176 L43.222,311.850176 C43.606,312.450176 44.41,312.726176 45.082,312.726176 Z M44.866,311.418176 C44.014,311.418176 43.246,310.770176 43.246,309.786176 C43.246,308.802176 44.062,308.178176 44.866,308.178176 C45.73,308.178176 46.45,308.850176 46.45,309.786176 C46.45,310.722176 45.73,311.418176 44.866,311.418176 Z M50.564,312.606176 L50.564,304.002176 L49.172,304.002176 L49.172,312.606176 L50.564,312.606176 Z M52.926,305.874176 C53.43,305.874176 53.826,305.502176 53.826,305.022176 C53.826,304.530176 53.43,304.170176 52.926,304.170176 C52.434,304.170176 52.014,304.530176 52.014,305.022176 C52.014,305.502176 52.434,305.874176 52.926,305.874176 Z M53.622,312.606176 L53.622,307.002176 L52.23,307.002176 L52.23,312.606176 L53.622,312.606176 Z M56.68,312.606176 L56.68,309.678176 C56.68,308.598176 57.472,308.250176 58.108,308.250176 C58.732,308.250176 59.272,308.706176 59.272,309.594176 L59.272,312.606176 L60.664,312.606176 L60.664,309.462176 C60.664,307.830176 59.86,306.882176 58.42,306.882176 C57.844,306.882176 56.968,307.194176 56.68,307.890176 L56.68,307.002176 L55.288,307.002176 L55.288,312.606176 L56.68,312.606176 Z M64.79,315.426176 C66.71,315.426176 67.934,314.334176 67.934,311.814176 L67.934,307.002176 L66.542,307.002176 L66.542,307.734176 C66.146,307.158176 65.39,306.882176 64.67,306.882176 C63.194,306.882176 61.922,307.998176 61.922,309.798176 C61.922,311.586176 63.206,312.726176 64.682,312.726176 C65.366,312.726176 66.146,312.438176 66.542,311.862176 L66.542,311.946176 C66.542,313.542176 65.87,314.166176 64.79,314.166176 C64.178,314.166176 63.566,313.806176 63.29,313.254176 L62.138,313.782176 C62.63,314.802176 63.638,315.426176 64.79,315.426176 Z M64.898,311.418176 C64.034,311.418176 63.326,310.722176 63.326,309.786176 C63.326,308.850176 64.034,308.178176 64.898,308.178176 C65.702,308.178176 66.518,308.802176 66.518,309.786176 C66.518,310.770176 65.75,311.418176 64.898,311.418176 Z M75.238,312.714176 C76.21,312.714176 77.002,312.282176 77.518,311.634176 L76.522,310.854176 C76.234,311.202176 75.754,311.418176 75.262,311.418176 C74.29,311.418176 73.594,310.734176 73.594,309.798176 C73.594,308.850176 74.29,308.178176 75.262,308.178176 C75.754,308.178176 76.234,308.394176 76.522,308.742176 L77.518,307.962176 C77.002,307.302176 76.21,306.882176 75.238,306.882176 C73.618,306.882176 72.19,308.022176 72.19,309.798176 C72.19,311.574176 73.618,312.714176 75.238,312.714176 Z M81.152,312.726176 C82.748,312.726176 84.14,311.562176 84.14,309.786176 C84.14,308.010176 82.748,306.882176 81.152,306.882176 C79.556,306.882176 78.176,308.010176 78.176,309.786176 C78.176,311.562176 79.556,312.726176 81.152,312.726176 Z M81.152,311.430176 C80.288,311.430176 79.58,310.770176 79.58,309.786176 C79.58,308.826176 80.288,308.178176 81.152,308.178176 C82.016,308.178176 82.736,308.826176 82.736,309.786176 C82.736,310.770176 82.016,311.430176 81.152,311.430176 Z M86.85,312.606176 L86.85,304.002176 L85.458,304.002176 L85.458,312.606176 L86.85,312.606176 Z M89.908,312.606176 L89.908,304.002176 L88.516,304.002176 L88.516,312.606176 L89.908,312.606176 Z M93.998,312.726176 C94.682,312.726176 95.474,312.450176 95.858,311.850176 L95.858,312.606176 L97.25,312.606176 L97.25,307.002176 L95.858,307.002176 L95.858,307.746176 C95.474,307.158176 94.694,306.882176 93.986,306.882176 C92.51,306.882176 91.238,307.998176 91.238,309.798176 C91.238,311.586176 92.522,312.726176 93.998,312.726176 Z M94.214,311.418176 C93.35,311.418176 92.642,310.722176 92.642,309.786176 C92.642,308.850176 93.35,308.178176 94.214,308.178176 C95.018,308.178176 95.834,308.802176 95.834,309.786176 C95.834,310.770176 95.066,311.418176 94.214,311.418176 Z M102.168,312.726176 C103.644,312.726176 104.928,311.586176 104.928,309.798176 C104.928,307.998176 103.656,306.882176 102.18,306.882176 C101.472,306.882176 100.692,307.158176 100.308,307.746176 L100.308,304.002176 L98.916,304.002176 L98.916,312.606176 L100.308,312.606176 L100.308,311.850176 C100.692,312.450176 101.496,312.726176 102.168,312.726176 Z M101.952,311.418176 C101.1,311.418176 100.332,310.770176 100.332,309.786176 C100.332,308.802176 101.148,308.178176 101.952,308.178176 C102.816,308.178176 103.536,308.850176 103.536,309.786176 C103.536,310.722176 102.816,311.418176 101.952,311.418176 Z M108.886,312.726176 C110.482,312.726176 111.874,311.562176 111.874,309.786176 C111.874,308.010176 110.482,306.882176 108.886,306.882176 C107.29,306.882176 105.91,308.010176 105.91,309.786176 C105.91,311.562176 107.29,312.726176 108.886,312.726176 Z M108.886,311.430176 C108.022,311.430176 107.314,310.770176 107.314,309.786176 C107.314,308.826176 108.022,308.178176 108.886,308.178176 C109.75,308.178176 110.47,308.826176 110.47,309.786176 C110.47,310.770176 109.75,311.430176 108.886,311.430176 Z M114.596,312.606176 L114.596,310.650176 C114.596,309.078176 115.1,308.190176 116.012,308.190176 C116.216,308.190176 116.504,308.226176 116.828,308.394176 L117.104,307.074176 C116.888,306.954176 116.528,306.882176 116.192,306.882176 C115.496,306.882176 114.884,307.266176 114.584,308.202176 L114.584,307.002176 L113.192,307.002176 L113.192,312.606176 L114.596,312.606176 Z M120.186,312.726176 C120.87,312.726176 121.662,312.450176 122.046,311.850176 L122.046,312.606176 L123.438,312.606176 L123.438,307.002176 L122.046,307.002176 L122.046,307.746176 C121.662,307.158176 120.882,306.882176 120.174,306.882176 C118.698,306.882176 117.426,307.998176 117.426,309.798176 C117.426,311.586176 118.71,312.726176 120.186,312.726176 Z M120.402,311.418176 C119.538,311.418176 118.83,310.722176 118.83,309.786176 C118.83,308.850176 119.538,308.178176 120.402,308.178176 C121.206,308.178176 122.022,308.802176 122.022,309.786176 C122.022,310.770176 121.254,311.418176 120.402,311.418176 Z M127,312.606176 L127,308.118176 L128.188,308.118176 L128.188,307.002176 L127,307.002176 L127,304.938176 L125.608,304.938176 L125.608,307.002176 L124.6,307.002176 L124.6,308.118176 L125.608,308.118176 L125.608,312.606176 L127,312.606176 Z M129.962,305.874176 C130.466,305.874176 130.862,305.502176 130.862,305.022176 C130.862,304.530176 130.466,304.170176 129.962,304.170176 C129.47,304.170176 129.05,304.530176 129.05,305.022176 C129.05,305.502176 129.47,305.874176 129.962,305.874176 Z M130.658,312.606176 L130.658,307.002176 L129.266,307.002176 L129.266,312.606176 L130.658,312.606176 Z M134.952,312.726176 C136.548,312.726176 137.94,311.562176 137.94,309.786176 C137.94,308.010176 136.548,306.882176 134.952,306.882176 C133.356,306.882176 131.976,308.010176 131.976,309.786176 C131.976,311.562176 133.356,312.726176 134.952,312.726176 Z M134.952,311.430176 C134.088,311.430176 133.38,310.770176 133.38,309.786176 C133.38,308.826176 134.088,308.178176 134.952,308.178176 C135.816,308.178176 136.536,308.826176 136.536,309.786176 C136.536,310.770176 135.816,311.430176 134.952,311.430176 Z M140.65,312.606176 L140.65,309.678176 C140.65,308.598176 141.442,308.250176 142.078,308.250176 C142.702,308.250176 143.242,308.706176 143.242,309.594176 L143.242,312.606176 L144.634,312.606176 L144.634,309.462176 C144.634,307.830176 143.83,306.882176 142.39,306.882176 C141.814,306.882176 140.938,307.194176 140.65,307.890176 L140.65,307.002176 L139.258,307.002176 L139.258,312.606176 L140.65,312.606176 Z" id="Enablingcollaboration" fill="#4A4A49" fill-rule="nonzero"></path>
                <polygon id="Fill-17" fill="#76C3E2" points="0 333.6066 10 333.6066 10 323.6066 0 323.6066"></polygon>
                <text id="--" font-family="SofiaProSemiBold, Sofia Pro" font-size="12" font-weight="500" letter-spacing="0.01"></text>
                <path d="M22.516,330.606176 L22.516,322.338176 L21.052,322.338176 L21.052,330.606176 L22.516,330.606176 Z M25.778,330.606176 L25.778,327.654176 C25.778,326.586176 26.426,326.226176 27.074,326.226176 C27.674,326.226176 28.142,326.670176 28.142,327.570176 L28.142,330.606176 L29.534,330.606176 L29.534,327.786176 L29.546,327.834176 C29.486,326.826176 29.99,326.226176 30.794,326.226176 C31.442,326.226176 31.91,326.670176 31.91,327.570176 L31.91,330.606176 L33.29,330.606176 L33.29,327.462176 C33.29,325.830176 32.546,324.882176 31.142,324.882176 C30.578,324.882176 29.702,325.098176 29.258,325.986176 C28.934,325.266176 28.262,324.882176 27.446,324.882176 C26.75,324.882176 25.982,325.254176 25.778,325.962176 L25.778,325.002176 L24.386,325.002176 L24.386,330.606176 L25.778,330.606176 Z M36.288,333.342176 L36.288,329.850176 C36.672,330.450176 37.452,330.714176 38.16,330.714176 C39.636,330.714176 40.908,329.598176 40.908,327.798176 C40.908,326.010176 39.624,324.882176 38.148,324.882176 C37.476,324.882176 36.672,325.158176 36.288,325.746176 L36.288,325.002176 L34.896,325.002176 L34.896,333.342176 L36.288,333.342176 Z M37.932,329.418176 C37.128,329.418176 36.312,328.794176 36.312,327.810176 C36.312,326.826176 37.08,326.178176 37.932,326.178176 C38.796,326.178176 39.516,326.874176 39.516,327.810176 C39.516,328.746176 38.796,329.418176 37.932,329.418176 Z M43.642,330.606176 L43.642,328.650176 C43.642,327.078176 44.146,326.190176 45.058,326.190176 C45.262,326.190176 45.55,326.226176 45.874,326.394176 L46.15,325.074176 C45.934,324.954176 45.574,324.882176 45.238,324.882176 C44.542,324.882176 43.93,325.266176 43.63,326.202176 L43.63,325.002176 L42.238,325.002176 L42.238,330.606176 L43.642,330.606176 Z M49.436,330.726176 C51.032,330.726176 52.424,329.562176 52.424,327.786176 C52.424,326.010176 51.032,324.882176 49.436,324.882176 C47.84,324.882176 46.46,326.010176 46.46,327.786176 C46.46,329.562176 47.84,330.726176 49.436,330.726176 Z M49.436,329.430176 C48.572,329.430176 47.864,328.770176 47.864,327.786176 C47.864,326.826176 48.572,326.178176 49.436,326.178176 C50.3,326.178176 51.02,326.826176 51.02,327.786176 C51.02,328.770176 50.3,329.430176 49.436,329.430176 Z M56.346,330.606176 L58.71,325.002176 L57.198,325.002176 L55.722,328.842176 L54.234,325.002176 L52.734,325.002176 L55.074,330.606176 L56.346,330.606176 Z M60.34,323.874176 C60.844,323.874176 61.24,323.502176 61.24,323.022176 C61.24,322.530176 60.844,322.170176 60.34,322.170176 C59.848,322.170176 59.428,322.530176 59.428,323.022176 C59.428,323.502176 59.848,323.874176 60.34,323.874176 Z M61.036,330.606176 L61.036,325.002176 L59.644,325.002176 L59.644,330.606176 L61.036,330.606176 Z M64.094,330.606176 L64.094,327.678176 C64.094,326.598176 64.886,326.250176 65.522,326.250176 C66.146,326.250176 66.686,326.706176 66.686,327.594176 L66.686,330.606176 L68.078,330.606176 L68.078,327.462176 C68.078,325.830176 67.274,324.882176 65.834,324.882176 C65.258,324.882176 64.382,325.194176 64.094,325.890176 L64.094,325.002176 L62.702,325.002176 L62.702,330.606176 L64.094,330.606176 Z M72.204,333.426176 C74.124,333.426176 75.348,332.334176 75.348,329.814176 L75.348,325.002176 L73.956,325.002176 L73.956,325.734176 C73.56,325.158176 72.804,324.882176 72.084,324.882176 C70.608,324.882176 69.336,325.998176 69.336,327.798176 C69.336,329.586176 70.62,330.726176 72.096,330.726176 C72.78,330.726176 73.56,330.438176 73.956,329.862176 L73.956,329.946176 C73.956,331.542176 73.284,332.166176 72.204,332.166176 C71.592,332.166176 70.98,331.806176 70.704,331.254176 L69.552,331.782176 C70.044,332.802176 71.052,333.426176 72.204,333.426176 Z M72.312,329.418176 C71.448,329.418176 70.74,328.722176 70.74,327.786176 C70.74,326.850176 71.448,326.178176 72.312,326.178176 C73.116,326.178176 73.932,326.802176 73.932,327.786176 C73.932,328.770176 73.164,329.418176 72.312,329.418176 Z M81.344,333.342176 L81.344,329.850176 C81.728,330.450176 82.508,330.714176 83.216,330.714176 C84.692,330.714176 85.964,329.598176 85.964,327.798176 C85.964,326.010176 84.68,324.882176 83.204,324.882176 C82.532,324.882176 81.728,325.158176 81.344,325.746176 L81.344,325.002176 L79.952,325.002176 L79.952,333.342176 L81.344,333.342176 Z M82.988,329.418176 C82.184,329.418176 81.368,328.794176 81.368,327.810176 C81.368,326.826176 82.136,326.178176 82.988,326.178176 C83.852,326.178176 84.572,326.874176 84.572,327.810176 C84.572,328.746176 83.852,329.418176 82.988,329.418176 Z M88.698,330.606176 L88.698,328.650176 C88.698,327.078176 89.202,326.190176 90.114,326.190176 C90.318,326.190176 90.606,326.226176 90.93,326.394176 L91.206,325.074176 C90.99,324.954176 90.63,324.882176 90.294,324.882176 C89.598,324.882176 88.986,325.266176 88.686,326.202176 L88.686,325.002176 L87.294,325.002176 L87.294,330.606176 L88.698,330.606176 Z M94.288,330.726176 C94.972,330.726176 95.764,330.450176 96.148,329.850176 L96.148,330.606176 L97.54,330.606176 L97.54,325.002176 L96.148,325.002176 L96.148,325.746176 C95.764,325.158176 94.984,324.882176 94.276,324.882176 C92.8,324.882176 91.528,325.998176 91.528,327.798176 C91.528,329.586176 92.812,330.726176 94.288,330.726176 Z M94.504,329.418176 C93.64,329.418176 92.932,328.722176 92.932,327.786176 C92.932,326.850176 93.64,326.178176 94.504,326.178176 C95.308,326.178176 96.124,326.802176 96.124,327.786176 C96.124,328.770176 95.356,329.418176 94.504,329.418176 Z M101.906,330.714176 C102.878,330.714176 103.67,330.282176 104.186,329.634176 L103.19,328.854176 C102.902,329.202176 102.422,329.418176 101.93,329.418176 C100.958,329.418176 100.262,328.734176 100.262,327.798176 C100.262,326.850176 100.958,326.178176 101.93,326.178176 C102.422,326.178176 102.902,326.394176 103.19,326.742176 L104.186,325.962176 C103.67,325.302176 102.878,324.882176 101.906,324.882176 C100.286,324.882176 98.858,326.022176 98.858,327.798176 C98.858,329.574176 100.286,330.714176 101.906,330.714176 Z M107.28,330.606176 L107.28,326.118176 L108.468,326.118176 L108.468,325.002176 L107.28,325.002176 L107.28,322.938176 L105.888,322.938176 L105.888,325.002176 L104.88,325.002176 L104.88,326.118176 L105.888,326.118176 L105.888,330.606176 L107.28,330.606176 Z M110.242,323.874176 C110.746,323.874176 111.142,323.502176 111.142,323.022176 C111.142,322.530176 110.746,322.170176 110.242,322.170176 C109.75,322.170176 109.33,322.530176 109.33,323.022176 C109.33,323.502176 109.75,323.874176 110.242,323.874176 Z M110.938,330.606176 L110.938,325.002176 L109.546,325.002176 L109.546,330.606176 L110.938,330.606176 Z M115.304,330.714176 C116.276,330.714176 117.068,330.282176 117.584,329.634176 L116.588,328.854176 C116.3,329.202176 115.82,329.418176 115.328,329.418176 C114.356,329.418176 113.66,328.734176 113.66,327.798176 C113.66,326.850176 114.356,326.178176 115.328,326.178176 C115.82,326.178176 116.3,326.394176 116.588,326.742176 L117.584,325.962176 C117.068,325.302176 116.276,324.882176 115.304,324.882176 C113.684,324.882176 112.256,326.022176 112.256,327.798176 C112.256,329.574176 113.684,330.714176 115.304,330.714176 Z M121.194,330.726176 C122.214,330.726176 123.198,330.294176 123.714,329.478176 L122.79,328.770176 C122.454,329.226176 121.878,329.466176 121.266,329.466176 C120.438,329.466176 119.838,329.070176 119.682,328.290176 L124.014,328.290176 C124.038,328.086176 124.05,327.906176 124.05,327.750176 C124.05,325.998176 122.79,324.882176 121.182,324.882176 C119.586,324.882176 118.242,326.010176 118.242,327.798176 C118.242,329.550176 119.514,330.726176 121.194,330.726176 Z M122.658,327.318176 L119.682,327.318176 C119.85,326.466176 120.45,326.106176 121.206,326.106176 C121.986,326.106176 122.574,326.550176 122.658,327.318176 Z" id="Improvingpractice" fill="#4A4A49" fill-rule="nonzero"></path>
                <text id="-" font-family="SofiaProSemiBold, Sofia Pro" font-size="12" font-weight="500"></text>
                <polygon id="Fill-18" fill="#BFB2B5" points="0 351.6066 10 351.6066 10 341.6066 0 341.6066"></polygon>
                <text id="--" font-family="SofiaProSemiBold, Sofia Pro" font-size="12" font-weight="500" letter-spacing="0.01"></text>
                <path d="M22.516,348.606176 L22.516,340.338176 L21.052,340.338176 L21.052,348.606176 L22.516,348.606176 Z M25.778,348.606176 L25.778,345.678176 C25.778,344.598176 26.57,344.250176 27.206,344.250176 C27.83,344.250176 28.37,344.706176 28.37,345.594176 L28.37,348.606176 L29.762,348.606176 L29.762,345.462176 C29.762,343.830176 28.958,342.882176 27.518,342.882176 C26.942,342.882176 26.066,343.194176 25.778,343.890176 L25.778,343.002176 L24.386,343.002176 L24.386,348.606176 L25.778,348.606176 Z M32.748,348.606176 L32.748,340.002176 L31.356,340.002176 L31.356,348.606176 L32.748,348.606176 Z M36.586,348.738176 C37.15,348.738176 38.038,348.426176 38.326,347.730176 L38.326,348.606176 L39.718,348.606176 L39.718,343.002176 L38.326,343.002176 L38.326,345.930176 C38.326,347.022176 37.534,347.370176 36.898,347.370176 C36.274,347.370176 35.734,346.914176 35.734,346.014176 L35.734,343.002176 L34.342,343.002176 L34.342,346.146176 C34.342,347.778176 35.146,348.738176 36.586,348.738176 Z M43.988,348.726176 C45.008,348.726176 45.992,348.294176 46.508,347.478176 L45.584,346.770176 C45.248,347.226176 44.672,347.466176 44.06,347.466176 C43.232,347.466176 42.632,347.070176 42.476,346.290176 L46.808,346.290176 C46.832,346.086176 46.844,345.906176 46.844,345.750176 C46.844,343.998176 45.584,342.882176 43.976,342.882176 C42.38,342.882176 41.036,344.010176 41.036,345.798176 C41.036,347.550176 42.308,348.726176 43.988,348.726176 Z M45.452,345.318176 L42.476,345.318176 C42.644,344.466176 43.244,344.106176 44,344.106176 C44.78,344.106176 45.368,344.550176 45.452,345.318176 Z M49.518,348.606176 L49.518,345.678176 C49.518,344.598176 50.31,344.250176 50.946,344.250176 C51.57,344.250176 52.11,344.706176 52.11,345.594176 L52.11,348.606176 L53.502,348.606176 L53.502,345.462176 C53.502,343.830176 52.698,342.882176 51.258,342.882176 C50.682,342.882176 49.806,343.194176 49.518,343.890176 L49.518,343.002176 L48.126,343.002176 L48.126,348.606176 L49.518,348.606176 Z M57.796,348.714176 C58.768,348.714176 59.56,348.282176 60.076,347.634176 L59.08,346.854176 C58.792,347.202176 58.312,347.418176 57.82,347.418176 C56.848,347.418176 56.152,346.734176 56.152,345.798176 C56.152,344.850176 56.848,344.178176 57.82,344.178176 C58.312,344.178176 58.792,344.394176 59.08,344.742176 L60.076,343.962176 C59.56,343.302176 58.768,342.882176 57.796,342.882176 C56.176,342.882176 54.748,344.022176 54.748,345.798176 C54.748,347.574176 56.176,348.714176 57.796,348.714176 Z M61.97,341.874176 C62.474,341.874176 62.87,341.502176 62.87,341.022176 C62.87,340.530176 62.474,340.170176 61.97,340.170176 C61.478,340.170176 61.058,340.530176 61.058,341.022176 C61.058,341.502176 61.478,341.874176 61.97,341.874176 Z M62.666,348.606176 L62.666,343.002176 L61.274,343.002176 L61.274,348.606176 L62.666,348.606176 Z M65.724,348.606176 L65.724,345.678176 C65.724,344.598176 66.516,344.250176 67.152,344.250176 C67.776,344.250176 68.316,344.706176 68.316,345.594176 L68.316,348.606176 L69.708,348.606176 L69.708,345.462176 C69.708,343.830176 68.904,342.882176 67.464,342.882176 C66.888,342.882176 66.012,343.194176 65.724,343.890176 L65.724,343.002176 L64.332,343.002176 L64.332,348.606176 L65.724,348.606176 Z M73.834,351.426176 C75.754,351.426176 76.978,350.334176 76.978,347.814176 L76.978,343.002176 L75.586,343.002176 L75.586,343.734176 C75.19,343.158176 74.434,342.882176 73.714,342.882176 C72.238,342.882176 70.966,343.998176 70.966,345.798176 C70.966,347.586176 72.25,348.726176 73.726,348.726176 C74.41,348.726176 75.19,348.438176 75.586,347.862176 L75.586,347.946176 C75.586,349.542176 74.914,350.166176 73.834,350.166176 C73.222,350.166176 72.61,349.806176 72.334,349.254176 L71.182,349.782176 C71.674,350.802176 72.682,351.426176 73.834,351.426176 Z M73.942,347.418176 C73.078,347.418176 72.37,346.722176 72.37,345.786176 C72.37,344.850176 73.078,344.178176 73.942,344.178176 C74.746,344.178176 75.562,344.802176 75.562,345.786176 C75.562,346.770176 74.794,347.418176 73.942,347.418176 Z M82.974,351.342176 L82.974,347.850176 C83.358,348.450176 84.138,348.714176 84.846,348.714176 C86.322,348.714176 87.594,347.598176 87.594,345.798176 C87.594,344.010176 86.31,342.882176 84.834,342.882176 C84.162,342.882176 83.358,343.158176 82.974,343.746176 L82.974,343.002176 L81.582,343.002176 L81.582,351.342176 L82.974,351.342176 Z M84.618,347.418176 C83.814,347.418176 82.998,346.794176 82.998,345.810176 C82.998,344.826176 83.766,344.178176 84.618,344.178176 C85.482,344.178176 86.202,344.874176 86.202,345.810176 C86.202,346.746176 85.482,347.418176 84.618,347.418176 Z M91.552,348.726176 C93.148,348.726176 94.54,347.562176 94.54,345.786176 C94.54,344.010176 93.148,342.882176 91.552,342.882176 C89.956,342.882176 88.576,344.010176 88.576,345.786176 C88.576,347.562176 89.956,348.726176 91.552,348.726176 Z M91.552,347.430176 C90.688,347.430176 89.98,346.770176 89.98,345.786176 C89.98,344.826176 90.688,344.178176 91.552,344.178176 C92.416,344.178176 93.136,344.826176 93.136,345.786176 C93.136,346.770176 92.416,347.430176 91.552,347.430176 Z M97.25,348.606176 L97.25,340.002176 L95.858,340.002176 L95.858,348.606176 L97.25,348.606176 Z M99.612,341.874176 C100.116,341.874176 100.512,341.502176 100.512,341.022176 C100.512,340.530176 100.116,340.170176 99.612,340.170176 C99.12,340.170176 98.7,340.530176 98.7,341.022176 C98.7,341.502176 99.12,341.874176 99.612,341.874176 Z M100.308,348.606176 L100.308,343.002176 L98.916,343.002176 L98.916,348.606176 L100.308,348.606176 Z M104.674,348.714176 C105.646,348.714176 106.438,348.282176 106.954,347.634176 L105.958,346.854176 C105.67,347.202176 105.19,347.418176 104.698,347.418176 C103.726,347.418176 103.03,346.734176 103.03,345.798176 C103.03,344.850176 103.726,344.178176 104.698,344.178176 C105.19,344.178176 105.67,344.394176 105.958,344.742176 L106.954,343.962176 C106.438,343.302176 105.646,342.882176 104.674,342.882176 C103.054,342.882176 101.626,344.022176 101.626,345.798176 C101.626,347.574176 103.054,348.714176 104.674,348.714176 Z M109.796,351.342176 L113.276,343.002176 L111.776,343.002176 L110.336,346.554176 L108.884,343.002176 L107.36,343.002176 L109.592,348.222176 L108.332,351.342176 L109.796,351.342176 Z" id="Inluencingpolicy" fill="#4A4A49" fill-rule="nonzero"></path>
                <path d="M179.4613,127.338161 L179.4613,124.963161 L181.3613,124.963161 L181.3613,122.740161 L179.4613,122.740161 L179.4613,114.893161 L177.9793,114.893161 L170.9303,124.222161 L170.9303,124.963161 L176.9343,124.963161 L176.9343,127.338161 L179.4613,127.338161 Z M176.9343,122.740161 L174.4833,122.740161 L176.9343,119.453161 L176.9343,122.740161 Z M187.1553,127.509161 C190.6513,127.509161 192.4183,124.374161 192.4183,120.688161 C192.4183,117.154161 190.4993,114.722161 187.5923,114.722161 C184.8183,114.722161 182.9943,116.527161 182.9943,118.902161 C182.9943,121.068161 184.6663,122.911161 187.1933,122.911161 C188.3903,122.911161 189.2833,122.474161 189.8913,121.866161 C189.7963,123.804161 188.6943,125.191161 187.1363,125.191161 C186.3193,125.191161 185.5593,124.773161 185.1603,123.937161 L183.1463,125.039161 C183.9063,126.730161 185.5213,127.509161 187.1553,127.509161 Z M187.5353,120.802161 C186.3573,120.783161 185.5213,120.004161 185.5213,118.921161 C185.5213,117.819161 186.3763,117.040161 187.6113,117.040161 C188.8273,117.059161 189.6823,117.857161 189.6823,118.959161 C189.6633,120.042161 188.7703,120.802161 187.5353,120.802161 Z M196.4643,119.662161 C197.8703,119.662161 199.0103,118.560161 199.0103,117.135161 C199.0103,115.729161 197.8703,114.589161 196.4643,114.589161 C195.0393,114.589161 193.9373,115.729161 193.9373,117.135161 C193.9373,118.560161 195.0393,119.662161 196.4643,119.662161 Z M196.9773,127.338161 L203.1523,114.893161 L201.7463,114.893161 L195.5903,127.338161 L196.9773,127.338161 Z M196.4643,118.275161 C195.7993,118.275161 195.3243,117.800161 195.3243,117.135161 C195.3243,116.508161 195.7993,115.976161 196.4643,115.976161 C197.0913,115.976161 197.6233,116.508161 197.6233,117.135161 C197.6233,117.800161 197.0913,118.275161 196.4643,118.275161 Z M202.2973,127.509161 C203.7033,127.509161 204.8433,126.407161 204.8433,124.982161 C204.8433,123.576161 203.7033,122.436161 202.2973,122.436161 C200.8723,122.436161 199.7703,123.576161 199.7703,124.982161 C199.7703,126.407161 200.8723,127.509161 202.2973,127.509161 Z M202.2973,126.122161 C201.6513,126.122161 201.1573,125.647161 201.1573,124.982161 C201.1573,124.355161 201.6513,123.823161 202.2973,123.823161 C202.9433,123.823161 203.4563,124.355161 203.4563,124.982161 C203.4563,125.647161 202.9433,126.122161 202.2973,126.122161 Z" id="49%" fill="#FEFEFE" fill-rule="nonzero"></path>
                <path d="M74.3913,173.831161 L74.3913,171.494161 L69.9833,171.494161 L72.9093,168.131161 C73.7073,167.238161 74.2773,166.174161 74.2773,164.977161 C74.2773,162.716161 72.6623,161.215161 70.1733,161.215161 C67.6843,161.215161 66.2403,162.735161 65.9363,164.958161 L68.1973,165.338161 C68.3493,164.255161 68.9763,163.533161 70.0783,163.533161 C71.0473,163.533161 71.7313,164.122161 71.7313,164.958161 C71.7313,165.376161 71.3893,166.022161 70.8763,166.649161 L66.0123,172.482161 L66.0123,173.831161 L74.3913,173.831161 Z M80.4323,174.002161 C83.9283,174.002161 85.6953,170.867161 85.6953,167.181161 C85.6953,163.647161 83.7763,161.215161 80.8693,161.215161 C78.0953,161.215161 76.2713,163.020161 76.2713,165.395161 C76.2713,167.561161 77.9433,169.404161 80.4703,169.404161 C81.6673,169.404161 82.5603,168.967161 83.1683,168.359161 C83.0733,170.297161 81.9713,171.684161 80.4133,171.684161 C79.5963,171.684161 78.8363,171.266161 78.4373,170.430161 L76.4233,171.532161 C77.1833,173.223161 78.7983,174.002161 80.4323,174.002161 Z M80.8123,167.295161 C79.6343,167.276161 78.7983,166.497161 78.7983,165.414161 C78.7983,164.312161 79.6533,163.533161 80.8883,163.533161 C82.1043,163.552161 82.9593,164.350161 82.9593,165.452161 C82.9403,166.535161 82.0473,167.295161 80.8123,167.295161 Z M89.7413,166.155161 C91.1473,166.155161 92.2873,165.053161 92.2873,163.628161 C92.2873,162.222161 91.1473,161.082161 89.7413,161.082161 C88.3163,161.082161 87.2143,162.222161 87.2143,163.628161 C87.2143,165.053161 88.3163,166.155161 89.7413,166.155161 Z M90.2543,173.831161 L96.4293,161.386161 L95.0233,161.386161 L88.8673,173.831161 L90.2543,173.831161 Z M89.7413,164.768161 C89.0763,164.768161 88.6013,164.293161 88.6013,163.628161 C88.6013,163.001161 89.0763,162.469161 89.7413,162.469161 C90.3683,162.469161 90.9003,163.001161 90.9003,163.628161 C90.9003,164.293161 90.3683,164.768161 89.7413,164.768161 Z M95.5743,174.002161 C96.9803,174.002161 98.1203,172.900161 98.1203,171.475161 C98.1203,170.069161 96.9803,168.929161 95.5743,168.929161 C94.1493,168.929161 93.0473,170.069161 93.0473,171.475161 C93.0473,172.900161 94.1493,174.002161 95.5743,174.002161 Z M95.5743,172.615161 C94.9283,172.615161 94.4343,172.140161 94.4343,171.475161 C94.4343,170.848161 94.9283,170.316161 95.5743,170.316161 C96.2203,170.316161 96.7333,170.848161 96.7333,171.475161 C96.7333,172.140161 96.2203,172.615161 95.5743,172.615161 Z" id="29%" fill="#FEFEFE" fill-rule="nonzero"></path>
                <path d="M74.3913,75.7151615 L74.3913,73.3781615 L69.9833,73.3781615 L72.9093,70.0151615 C73.7073,69.1221615 74.2773,68.0581615 74.2773,66.8611615 C74.2773,64.6001615 72.6623,63.0991615 70.1733,63.0991615 C67.6843,63.0991615 66.2403,64.6191615 65.9363,66.8421615 L68.1973,67.2221615 C68.3493,66.1391615 68.9763,65.4171615 70.0783,65.4171615 C71.0473,65.4171615 71.7313,66.0061615 71.7313,66.8421615 C71.7313,67.2601615 71.3893,67.9061615 70.8763,68.5331615 L66.0123,74.3661615 L66.0123,75.7151615 L74.3913,75.7151615 Z M84.6123,75.7151615 L84.6123,73.3781615 L80.2043,73.3781615 L83.1303,70.0151615 C83.9283,69.1221615 84.4983,68.0581615 84.4983,66.8611615 C84.4983,64.6001615 82.8833,63.0991615 80.3943,63.0991615 C77.9053,63.0991615 76.4613,64.6191615 76.1573,66.8421615 L78.4183,67.2221615 C78.5703,66.1391615 79.1973,65.4171615 80.2993,65.4171615 C81.2683,65.4171615 81.9523,66.0061615 81.9523,66.8421615 C81.9523,67.2601615 81.6103,67.9061615 81.0973,68.5331615 L76.2333,74.3661615 L76.2333,75.7151615 L84.6123,75.7151615 Z M88.7153,68.0391615 C90.1213,68.0391615 91.2613,66.9371615 91.2613,65.5121615 C91.2613,64.1061615 90.1213,62.9661615 88.7153,62.9661615 C87.2903,62.9661615 86.1883,64.1061615 86.1883,65.5121615 C86.1883,66.9371615 87.2903,68.0391615 88.7153,68.0391615 Z M89.2283,75.7151615 L95.4033,63.2701615 L93.9973,63.2701615 L87.8413,75.7151615 L89.2283,75.7151615 Z M88.7153,66.6521615 C88.0503,66.6521615 87.5753,66.1771615 87.5753,65.5121615 C87.5753,64.8851615 88.0503,64.3531615 88.7153,64.3531615 C89.3423,64.3531615 89.8743,64.8851615 89.8743,65.5121615 C89.8743,66.1771615 89.3423,66.6521615 88.7153,66.6521615 Z M94.5483,75.8861615 C95.9543,75.8861615 97.0943,74.7841615 97.0943,73.3591615 C97.0943,71.9531615 95.9543,70.8131615 94.5483,70.8131615 C93.1233,70.8131615 92.0213,71.9531615 92.0213,73.3591615 C92.0213,74.7841615 93.1233,75.8861615 94.5483,75.8861615 Z M94.5483,74.4991615 C93.9023,74.4991615 93.4083,74.0241615 93.4083,73.3591615 C93.4083,72.7321615 93.9023,72.2001615 94.5483,72.2001615 C95.1943,72.2001615 95.7073,72.7321615 95.7073,73.3591615 C95.7073,74.0241615 95.1943,74.4991615 94.5483,74.4991615 Z" id="22%" fill="#FEFEFE" fill-rule="nonzero"></path>
            </g>
        </g>
    </g>
</svg>