<?xml version="1.0" encoding="UTF-8"?>
<svg width="16px" height="18px" viewBox="0 0 16 18" version="1.1" xmlns="http://www.w3.org/2000/svg" xmlns:xlink="http://www.w3.org/1999/xlink">
    <!-- Generator: Sketch 64 (93537) - https://sketch.com -->
    <title>icon-contact</title>
    <desc>Created with Sketch.</desc>
    <g id="Page-3" stroke="none" stroke-width="1" fill="none" fill-rule="evenodd">
        <path d="M8,0 C3.581722,0 0,3.581722 0,8 L0.00692873839,8.33540619 C0.0622539475,9.67254502 0.447645847,10.953178 1.11787491,12.0810112 L1.21,12.23 L0.0324178769,16.7474434 L1.45383629,17.8910851 L5.781,15.686 L6.00138602,15.7480804 C6.64875967,15.9146518 7.31894675,16 8,16 C12.418278,16 16,12.418278 16,8 C16,3.581722 12.418278,0 8,0 Z M8,2 C11.3137085,2 14,4.6862915 14,8 C14,11.3137085 11.3137085,14 8,14 C7.31717571,14 6.6512456,13.8863107 6.02134343,13.6663754 L5.2378651,13.7193964 L2.529,15.098 L3.259045,12.304769 L3.10640928,11.4726761 C2.39032545,10.4657161 2,9.26349674 2,8 C2,4.6862915 4.6862915,2 8,2 Z" id="Combined-Shape" fill="#FFFFFF" fill-rule="nonzero"></path>
    </g>
</svg>