<?xml version="1.0" encoding="UTF-8"?>
<svg width="156px" height="241px" viewBox="0 0 156 241" version="1.1" xmlns="http://www.w3.org/2000/svg" xmlns:xlink="http://www.w3.org/1999/xlink">
    <!-- Generator: Sketch 52.2 (67145) - http://www.bohemiancoding.com/sketch -->
    <title>Artboard 1</title>
    <desc>Created with Sketch.</desc>
    <defs>
        <polygon id="path-1" points="0.516 0.559 146.905 0.559 146.905 208.5226 0.516 208.5226"></polygon>
    </defs>
    <g id="Artboard-1" stroke="none" stroke-width="1" fill="none" fill-rule="evenodd">
        <polygon id="Fill-1" fill="#000000" points="0 240.945 155.905 240.945 155.905 0.001 0 0.001"></polygon>
        <g id="Group-256" transform="translate(11.000000, 9.945000)">
            <mask id="mask-2" fill="white">
                <use xlink:href="#path-1"></use>
            </mask>
            <g id="Clip-7"></g>
            <path d="M92.278,17.1129 C78.095,17.1129 66.893,28.6049 66.893,42.8619 C66.893,56.9719 78.095,68.5379 92.278,68.5379 C106.534,68.5379 117.736,56.9719 117.736,42.8619 C117.736,28.6049 106.534,17.1129 92.278,17.1129 Z" id="Stroke-170" stroke="#FFFFFF" stroke-width="0.837" stroke-linecap="round" stroke-linejoin="bevel" mask="url(#mask-2)"></path>
            <path d="M60.1808,34.037 L57.3178,36.391 L60.1808,34.037 Z M55.1238,19.938 L52.2428,22.308 L55.1238,19.938 Z M38.3458,15.878 L35.4638,18.247 L38.3458,15.878 Z M30.9048,58.892 L33.7808,56.529 L30.9048,58.892 Z M30.9268,41.744 L32.3688,40.561 L33.8118,39.379 L30.9268,41.744 Z M48.7508,56.158 L51.6308,53.781 L48.7508,56.158 Z M60.1808,65.993 L57.3028,68.363 L60.1808,65.993 Z M30.9048,68.36 L33.7808,65.997 L30.9048,68.36 Z M23.0888,15.878 L20.2268,18.227 L23.0888,15.878 Z M33.7828,25.258 L33.7828,32.314 L33.7828,39.369 L38.2918,39.369 L42.8018,39.369 C44.8748,39.369 46.4568,38.424 47.5208,37.069 C48.5838,35.714 49.1298,33.951 49.1298,32.314 C49.1298,30.751 48.6208,28.986 47.6108,27.614 C46.6028,26.24 45.0928,25.258 43.0928,25.258 L38.4378,25.258 L33.7828,25.258 Z M60.1858,65.991 L47.3838,65.991 L36.1828,48.679 L33.7828,48.679 L33.7828,65.991 L23.0908,65.991 L23.0908,15.876 L33.3468,15.876 L43.6018,15.876 C49.2758,15.876 53.4388,17.931 56.1848,21.013 C58.9308,24.094 60.2588,28.204 60.2588,32.314 C60.2588,35.878 59.2768,39.406 57.2218,42.27 C55.1668,45.134 52.0398,47.334 47.7478,48.243 L60.1858,65.991 Z" id="Stroke-171" stroke="#FFFFFF" stroke-width="0.837" stroke-linecap="round" stroke-linejoin="bevel" mask="url(#mask-2)"></path>
            <polygon id="Stroke-172" stroke="#FFFFFF" stroke-width="0.837" stroke-linejoin="round" mask="url(#mask-2)" points="109.1609 195.0357 100.1719 195.0357 87.5699 171.1777 87.5699 201.5097 76.9509 201.5097 76.9509 151.3117 86.6979 151.3117 97.9289 171.6507 97.9289 151.3117 109.0219 151.3117"></polygon>
            <path d="M84.5968,204.2054 L87.5668,201.5094" id="Stroke-173" stroke="#FFFFFF" stroke-width="0.837" stroke-linejoin="round" mask="url(#mask-2)"></path>
            <path d="M73.9782,154.088 L76.9542,151.309" id="Stroke-174" stroke="#FFFFFF" stroke-width="0.837" stroke-linejoin="round" mask="url(#mask-2)"></path>
            <path d="M83.6806,154.088 L86.6566,151.309" id="Stroke-175" stroke="#FFFFFF" stroke-width="0.837" stroke-linejoin="round" mask="url(#mask-2)"></path>
            <path d="M100.8929,154.088 L97.9169,151.309" id="Stroke-176" stroke="#FFFFFF" stroke-width="0.837" stroke-linejoin="round" mask="url(#mask-2)"></path>
            <path d="M63.0343,204.2062 L65.9383,201.6192 L63.0343,204.2062 Z M25.6473,204.2042 L28.5833,201.6192 L25.6473,204.2042 Z M44.4863,154.0882 L47.5683,151.3462 L44.4863,154.0882 Z M32.9223,154.0912 L36.0283,151.3132 L32.9223,154.0912 Z M36.5083,166.0062 L41.6003,183.4632 L46.9093,166.0062 L36.5083,166.0062 Z M33.0173,189.7692 L28.5803,201.6252 L17.2333,201.6252 L36.0283,151.3112 L47.5933,151.3112 L65.9663,201.6252 L54.7653,201.6252 L50.3283,189.7692 L33.0173,189.7692 Z" id="Stroke-177" stroke="#FFFFFF" stroke-width="0.837" stroke-linejoin="round" mask="url(#mask-2)"></path>
            <path d="M111.5698,154.082 L109.0208,151.313" id="Stroke-178" stroke="#FFFFFF" stroke-width="0.837" stroke-linejoin="bevel" mask="url(#mask-2)"></path>
            <path d="M30.9586,126.7459 L33.8446,124.0729 L30.9586,126.7459 Z M56.3626,115.4769 L59.2496,112.8049 L56.3626,115.4769 Z M30.9586,95.4049 L33.8456,92.7329 L30.9586,95.4049 Z M51.5086,90.1559 L54.3936,87.4829 L51.5086,90.1559 Z M20.2606,86.0269 L23.1466,83.3559 L20.2606,86.0269 Z M43.8766,111.9409 C47.6586,111.9409 49.4776,115.0689 49.4776,117.9049 C49.4776,120.8879 47.6586,124.0879 44.0956,124.0879 L33.8396,124.0879 L33.8396,111.9409 L43.8766,111.9409 Z M33.8396,103.1389 L33.8396,92.7379 L42.1316,92.7379 C45.2596,92.7379 46.8596,94.8479 46.8596,97.9749 C46.8596,100.9579 44.9676,103.1389 42.2036,103.1389 L33.8396,103.1389 Z M58.0606,97.3209 C58.0606,88.7369 52.2416,83.3559 43.2226,83.3559 L23.1466,83.3559 L23.1466,133.4709 L44.6766,133.4709 C54.6416,133.4709 60.6786,126.4149 60.6786,118.1229 C60.6786,114.0499 57.8426,108.3769 51.2236,106.7029 C56.3876,104.7399 58.0606,100.5939 58.0606,97.3209 Z M30.9536,105.8129 L33.8396,103.1409 L30.9536,105.8129 Z" id="Stroke-179" stroke="#FFFFFF" stroke-width="0.837" stroke-linecap="round" stroke-linejoin="bevel" mask="url(#mask-2)"></path>
            <path d="M73.8485,86.0272 L77.8235,83.5732 L73.8485,86.0272 Z M106.2145,126.7602 L101.5635,124.3002 L106.2145,126.7602 Z M94.3115,106.8302 L105.8255,104.3732 L94.3115,106.8302 Z M105.8215,113.6042 L94.3115,116.0682 L105.8215,113.6042 Z M106.2145,86.0282 L101.5635,83.5692 L106.2145,86.0282 Z M84.4645,106.8312 L87.3495,104.3732 L84.4645,106.8312 Z M77.8125,83.5692 L101.5635,83.5692 L101.5635,92.9512 L87.3525,92.9512 L87.3525,104.3712 L105.8285,104.3712 L105.8285,113.6082 L87.3525,113.6082 L87.3525,124.3002 L101.5635,124.3002 L101.5635,133.6842 L77.8125,133.6842 L77.8125,83.5692 Z" id="Stroke-180" stroke="#FFFFFF" stroke-width="0.837" stroke-linejoin="round" mask="url(#mask-2)"></path>
            <path d="M92.2794,52.6249 C87.7924,52.6249 84.2904,48.9649 84.2904,44.4389 C84.2904,39.9129 87.7924,36.2129 92.2794,36.2129 C96.7664,36.2129 100.3084,39.9129 100.3084,44.4389 C100.3084,48.9649 96.7664,52.6249 92.2794,52.6249 Z M90.8184,25.8199 C82.5264,25.8199 76.0524,32.6579 76.0524,41.0219 C76.0524,49.3869 82.5264,56.1509 90.8184,56.1509 C99.1104,56.1509 105.6564,49.3869 105.6564,41.0219 C105.6564,32.6579 99.1104,25.8199 90.8184,25.8199 Z" id="Stroke-181" stroke="#FFFFFF" stroke-width="0.837" stroke-linejoin="bevel" mask="url(#mask-2)"></path>
            <path d="M91.4706,25.8196 L92.4386,36.2126" id="Stroke-182" stroke="#FFFFFF" stroke-width="0.837" stroke-linejoin="bevel" mask="url(#mask-2)"></path>
            <path d="M91.4718,56.1509 L92.4398,52.6249" id="Stroke-183" stroke="#FFFFFF" stroke-width="0.837" stroke-linejoin="bevel" mask="url(#mask-2)"></path>
            <path d="M76.2139,41.7305 L84.5269,43.2855" id="Stroke-184" stroke="#FFFFFF" stroke-width="0.837" stroke-linejoin="bevel" mask="url(#mask-2)"></path>
            <path d="M105.8163,41.7297 L100.4683,43.2857" id="Stroke-185" stroke="#FFFFFF" stroke-width="0.837" stroke-linejoin="bevel" mask="url(#mask-2)"></path>
            <polygon id="Stroke-186" stroke="#FFFFFF" stroke-width="0.837" stroke-linejoin="round" mask="url(#mask-2)" points="111.5847 204.207 102.0557 204.207 84.5997 173.876 84.5997 204.207 73.9807 204.207 73.9807 154.092 83.7267 154.092 100.8927 184.059 100.8927 154.092 111.5847 154.092"></polygon>
            <path d="M30.9196,27.6105 L30.9196,41.7215 L39.9386,41.7215 C44.0846,41.7215 46.2666,37.9385 46.2666,34.6665 C46.2666,31.5385 44.2306,27.6105 40.2296,27.6105 L30.9196,27.6105 Z M20.2276,18.2285 L40.7386,18.2285 C52.0856,18.2285 57.3956,26.4475 57.3956,34.6665 C57.3956,41.7945 53.4686,48.7775 44.8856,50.5955 L57.3236,68.3435 L44.5216,68.3435 L33.3196,51.0325 L30.9196,51.0325 L30.9196,68.3435 L20.2276,68.3435 L20.2276,18.2285 Z" id="Stroke-187" stroke="#FFFFFF" stroke-width="0.837" stroke-linejoin="bevel" mask="url(#mask-2)"></path>
            <path d="M90.922,56.1509 C82.63,56.1509 76.157,49.3869 76.157,41.0219 C76.157,32.6579 82.63,25.8199 90.922,25.8199 C99.214,25.8199 105.761,32.6579 105.761,41.0219 C105.761,49.3869 99.214,56.1509 90.922,56.1509 Z M90.922,15.2729 C76.739,15.2729 65.537,26.7649 65.537,41.0219 C65.537,55.1319 76.739,66.6969 90.922,66.6969 C105.178,66.6969 116.38,55.1319 116.38,41.0219 C116.38,26.7649 105.178,15.2729 90.922,15.2729 Z" id="Stroke-188" stroke="#FFFFFF" stroke-width="0.837" stroke-linejoin="bevel" mask="url(#mask-2)"></path>
            <path d="M30.9579,114.613 L30.9579,126.76 L41.2139,126.76 C44.7769,126.76 46.5959,123.56 46.5959,120.577 C46.5959,117.741 44.7769,114.613 40.9959,114.613 L30.9579,114.613 Z M39.3219,105.812 C42.0869,105.812 43.9779,103.63 43.9779,100.647 C43.9779,97.52 42.3769,95.41 39.2499,95.41 L30.9579,95.41 L30.9579,105.812 L39.3219,105.812 Z M48.3419,109.376 C54.9609,111.049 57.7979,116.722 57.7979,120.796 C57.7979,129.088 51.7599,136.144 41.7959,136.144 L20.2659,136.144 L20.2659,86.028 L40.3409,86.028 C49.3599,86.028 55.1789,91.411 55.1789,99.993 C55.1789,103.267 53.5069,107.412 48.3419,109.376 Z" id="Fill-189" fill="#FFFFFF" mask="url(#mask-2)"></path>
            <path d="M30.9579,114.613 L30.9579,126.76 L41.2139,126.76 C44.7769,126.76 46.5959,123.56 46.5959,120.577 C46.5959,117.741 44.7769,114.613 40.9959,114.613 L30.9579,114.613 Z M39.3219,105.812 C42.0869,105.812 43.9779,103.63 43.9779,100.647 C43.9779,97.52 42.3769,95.41 39.2499,95.41 L30.9579,95.41 L30.9579,105.812 L39.3219,105.812 Z M48.3419,109.376 C54.9609,111.049 57.7979,116.722 57.7979,120.796 C57.7979,129.088 51.7599,136.144 41.7959,136.144 L20.2659,136.144 L20.2659,86.028 L40.3409,86.028 C49.3599,86.028 55.1789,91.411 55.1789,99.993 C55.1789,103.267 53.5069,107.412 48.3419,109.376 Z" id="Stroke-190" stroke="#FFFFFF" stroke-width="0.381" stroke-linejoin="round" mask="url(#mask-2)"></path>
            <polygon id="Fill-191" fill="#FFFFFF" mask="url(#mask-2)" points="73.8473 86.0279 106.2153 86.0279 106.2153 95.4099 84.4663 95.4099 84.4663 106.8299 94.3113 106.8299 94.3113 116.0679 84.4663 116.0679 84.4663 126.7599 106.2153 126.7599 106.2153 136.1439 73.8473 136.1439"></polygon>
            <polygon id="Stroke-192" stroke="#FFFFFF" stroke-width="0.381" stroke-linejoin="round" mask="url(#mask-2)" points="73.8473 86.0279 106.2153 86.0279 106.2153 95.4099 84.4663 95.4099 84.4663 106.8299 94.3113 106.8299 94.3113 116.0679 84.4663 116.0679 84.4663 126.7599 106.2153 126.7599 106.2153 136.1439 73.8473 136.1439"></polygon>
            <path d="M33.5754,169.4324 L38.6664,186.8894 L43.9774,169.4324 L33.5754,169.4324 Z M30.0844,192.3504 L25.6474,204.2074 L14.3004,204.2074 L32.9204,154.0924 L44.4864,154.0924 L63.0334,204.2074 L51.8324,204.2074 L47.3954,192.3504 L30.0844,192.3504 Z" id="Stroke-193" stroke="#FFFFFF" stroke-width="0.837" stroke-linejoin="round" mask="url(#mask-2)"></path>
            <polygon id="Stroke-195" stroke="#000000" stroke-width="0.381" stroke-linejoin="round" mask="url(#mask-2)" points="110.1106 -7.6905 101.1216 -7.6905 88.5196 -38.0225 88.5196 -7.6915 77.9006 -7.6915 77.9006 -57.8885 87.6476 -57.8885 98.8786 -34.8525 98.8786 -57.8885 109.9716 -57.8885"></polygon>
            <g id="Group-198" mask="url(#mask-2)">
                <g transform="translate(85.000000, -8.000000)">
                    <path d="M0.5465,3.0051 L3.5165,0.3091" id="Fill-196" stroke="none" fill="#FFFFFF" fill-rule="evenodd"></path>
                    <path d="M0.5465,3.0051 L3.5165,0.3091" id="Stroke-197" stroke="#000000" stroke-width="0.381" fill="none" stroke-linejoin="round"></path>
                </g>
            </g>
            <path d="M74.9929,-5.1562 L77.9279,-7.7432 L74.9929,-5.1562 Z M63.9839,-4.9952 L66.8879,-7.5832 L63.9839,-4.9952 Z M52.7979,-4.9952 L55.7329,-7.5832 L52.7979,-4.9952 Z M15.2479,-4.9952 L18.1829,-7.5832 L15.2479,-4.9952 Z M26.5969,-4.9952 L29.5319,-7.5832 L26.5969,-4.9952 Z M45.4359,-55.1112 L48.5179,-57.8542 L45.4359,-55.1112 Z M33.8719,-55.1092 L36.9779,-57.8882 L33.8719,-55.1092 Z M37.4579,-43.1932 L42.5499,-25.7372 L47.8589,-43.1932 L37.4579,-43.1932 Z M33.9669,-19.4312 L29.5299,-7.5742 L18.1829,-7.5742 L36.9779,-57.8882 L48.5429,-57.8882 L66.9159,-7.5742 L55.7149,-7.5742 L51.2779,-19.4312 L33.9669,-19.4312 Z" id="Stroke-208" stroke="#000000" stroke-width="0.381" stroke-linejoin="round" mask="url(#mask-2)"></path>
            <g id="Group-214" mask="url(#mask-2)">
                <g transform="translate(101.000000, -8.000000)">
                    <path d="M3.0533,3.0311 L0.0773,0.2521" id="Fill-212" stroke="none" fill="#FFFFFF" fill-rule="evenodd"></path>
                    <path d="M3.0533,3.0311 L0.0773,0.2521" id="Stroke-213" stroke="#000000" stroke-width="0.381" fill="none" stroke-linejoin="round"></path>
                </g>
            </g>
            <g id="Group-217" mask="url(#mask-2)">
                <g transform="translate(109.000000, -8.000000)">
                    <path d="M3.5195,3.04 L0.9705,0.271" id="Fill-215" stroke="none" fill="#FFFFFF" fill-rule="evenodd"></path>
                    <path d="M3.5195,3.04 L0.9705,0.271" id="Stroke-216" stroke="#000000" stroke-width="0.381" fill="none" stroke-linejoin="bevel"></path>
                </g>
            </g>
        </g>
    </g>
</svg>