<svg xmlns="http://www.w3.org/2000/svg" width="74" height="25" fill="currentColor" viewBox="0 0 74 25">
  <path fill-rule="evenodd" d="M13.696 0h7.36a2.5 2.5 0 012.5 2.5 2.5 2.5 0 002.5 2.5h25a2.5 2.5 0 002.5-2.5 2.5 2.5 0 012.5-2.5h6.75a2.5 2.5 0 012.5 2.5 2.5 2.5 0 002.5 2.5h2.75a3 3 0 013 3v14a3 3 0 01-3 3h-56.79a3 3 0 01-2.082-.839L.613 13.499a2 2 0 01.058-2.935L11.703.758A3 3 0 0113.696 0zM16.6 21V4.2h3.024v6.576h.288c.624-1.008 1.68-2.016 3.792-2.016 2.976 0 5.472 2.64 5.472 6.288s-2.496 6.288-5.472 6.288c-2.112 0-3.168-1.008-3.792-2.016h-.336V21H16.6zm9.552-5.952c0-2.304-1.44-3.6-3.264-3.6-1.872 0-3.264 1.344-3.264 3.6 0 2.256 1.392 3.6 3.264 3.6 1.824 0 3.264-1.296 3.264-3.6zm7.018-1.536l-2.448-1.488c.936-1.368 2.664-3.264 5.832-3.264 3.168 0 5.4 1.848 5.4 4.728V21h-2.976v-1.68h-.336c-.384.792-1.224 2.016-3.744 2.016-2.688 0-4.464-1.44-4.464-3.72 0-1.896 1.656-3.216 3.936-3.456l4.56-.504v-.384c0-1.104-.816-2.064-2.496-2.064-1.68 0-2.64.96-3.264 2.304zm2.112 2.592c-1.128.144-1.68.648-1.68 1.344 0 .816.696 1.392 2.04 1.392 2.112 0 3.288-1.248 3.288-2.88v-.288l-3.648.432zm8.488-1.056c0 3.696 2.736 6.288 6.192 6.288 3.336 0 5.424-1.848 6-4.56l-2.976-.744c-.312 1.56-1.152 2.616-2.976 2.616-1.944 0-3.216-1.44-3.216-3.6s1.392-3.6 3.216-3.6c1.824 0 2.76 1.2 2.976 2.64l2.976-.768c-.624-2.712-2.688-4.56-6-4.56-3.456 0-6.192 2.592-6.192 6.288zm22.216-5.952h4.224l-5.4 4.488L70.018 21h-3.504l-3.84-5.616-1.824 1.512V21h-3.024V4.2h3.024v8.976h.288l4.848-4.08z" clip-rule="evenodd"/>
</svg>
