<svg xmlns="http://www.w3.org/2000/svg" width="46" height="25" fill="none" viewBox="0 0 46 25">
  <path fill="#EEE" d="M8.5 0H3a3 3 0 00-3 3v19a3 3 0 003 3h40a3 3 0 003-3V8a3 3 0 00-3-3H13.5A2.5 2.5 0 0111 2.5 2.5 2.5 0 008.5 0z"/>
  <path fill="#18191A" d="M4.044 4.2V21H7.02v-1.68h.336c.624 1.008 1.68 2.016 3.792 2.016 2.976 0 5.472-2.64 5.472-6.288S14.124 8.76 11.148 8.76c-2.112 0-3.168 1.008-3.792 2.016h-.288V4.2H4.044zm6.288 7.248c1.824 0 3.264 1.296 3.264 3.6 0 2.304-1.44 3.6-3.264 3.6-1.872 0-3.264-1.344-3.264-3.6 0-2.256 1.392-3.6 3.264-3.6zM18.167 12.024l2.448 1.488c.624-1.344 1.584-2.304 3.264-2.304 1.68 0 2.496.96 2.496 2.064v.384l-4.56.504c-2.28.24-3.936 1.56-3.936 3.456 0 2.28 1.776 3.72 4.464 3.72 2.52 0 3.36-1.224 3.744-2.016h.336V21h2.976v-7.512c0-2.88-2.232-4.728-5.4-4.728s-4.896 1.896-5.832 3.264zm2.88 5.424c0-.696.552-1.2 1.68-1.344l3.648-.432v.288c0 1.632-1.176 2.88-3.288 2.88-1.344 0-2.04-.576-2.04-1.392zM31.623 12.432c0 2.208 1.752 3.24 4.536 3.696l1.44.24c1.2.192 1.824.528 1.824 1.248s-.768 1.272-2.16 1.272c-1.44 0-3.024-.552-4.104-2.472l-2.376 1.464c1.2 1.896 3.456 3.456 6.528 3.456 2.928 0 5.04-1.56 5.04-3.912s-2.04-3.24-4.632-3.672l-1.44-.24c-1.128-.192-1.728-.528-1.728-1.176 0-.648.552-1.128 1.752-1.128s2.568.48 3.936 2.064l2.04-1.8c-1.368-1.44-3.336-2.712-6.12-2.712-2.736 0-4.536 1.464-4.536 3.672z"/>
</svg>
