<?xml version="1.0" encoding="UTF-8"?>
<svg width="18px" height="18px" viewBox="0 0 18 18" version="1.1" xmlns="http://www.w3.org/2000/svg" xmlns:xlink="http://www.w3.org/1999/xlink">
    <title>close-icon</title>
    <g id="close-icon" stroke="none" stroke-width="1" fill="none" fill-rule="evenodd">
        <path d="M16.3636039,0.363603897 L17.6363961,1.6363961 C18.0269207,2.02692009 18.0269207,2.66008507 17.6363964,3.05060936 C17.6363963,3.05060946 17.6363962,3.05060956 17.6363958,3.05060936 L12.8312645,7.85573647 C12.7203068,7.96669406 12.5847945,8.04998242 12.4356853,8.09886659 L11.1747452,8.51225523 C10.9001901,8.60226583 10.7505872,8.89780474 10.8405977,9.17235988 C10.8918124,9.3285777 11.0134798,9.45163587 11.1691054,9.50462281 L12.4992294,9.95749943 C12.6441383,10.0068376 12.775786,10.088785 12.8840284,10.1970274 L17.6363958,14.9493906 C18.0269206,15.3399145 18.0269208,15.9730794 17.6363967,16.3636039 C17.6363966,16.363604 17.6363965,16.3636041 17.6363961,16.3636039 L16.3636039,17.6363961 C15.9730799,18.0269207 15.3399149,18.0269207 14.9493906,17.6363964 C14.9493905,17.6363963 14.9493904,17.6363962 14.9493906,17.6363958 L10.1574546,12.8444556 C10.0471887,12.7341896 9.96423838,12.5996641 9.91523022,12.4516256 L9.49276038,11.1754757 C9.40299362,10.9043183 9.11040674,10.7572721 8.8392493,10.8470389 C8.68362686,10.8985577 8.56164381,11.020805 8.51046184,11.1765386 L8.09532494,12.4396933 C8.04640893,12.5885321 7.96320567,12.7237952 7.85242267,12.8345783 L3.05060936,17.6363958 C2.66008554,18.0269206 2.02692056,18.0269208 1.6363961,17.6363967 C1.636396,17.6363966 1.6363959,17.6363965 1.6363961,17.6363961 L0.363603897,16.3636039 C-0.0269207012,15.9730799 -0.0269207012,15.3399149 0.363603591,14.9493906 C0.363603692,14.9493905 0.363603795,14.9493904 0.363604203,14.9493906 L5.12754677,10.1854522 C5.23637331,10.0766258 5.36885021,9.99438673 5.51466193,9.94513882 L6.81049679,9.50747053 C7.08962236,9.41319586 7.23947362,9.11049515 7.14519895,8.83136958 C7.09179833,8.67326267 6.96748486,8.54925626 6.80924638,8.49624681 L5.5285853,8.067229 C5.38186011,8.01807647 5.24854339,7.93554431 5.13912613,7.82612714 L0.363604203,3.05060936 C-0.026920564,2.66008554 -0.0269208384,2.02692056 0.363603284,1.6363961 C0.363603386,1.636396 0.363603489,1.6363959 0.363603897,1.6363961 L1.6363961,0.363603897 C2.02692009,-0.0269207012 2.66008507,-0.0269207012 3.05060936,0.363603591 C3.05060946,0.363603692 3.05060956,0.363603795 3.05060936,0.363604203 L7.87378584,5.18678487 C7.98570415,5.29870327 8.06945811,5.43558919 8.11816057,5.58618635 L8.52566838,6.84627727 C8.60981967,7.10648891 8.88898098,7.24921402 9.14919261,7.16506273 C9.30112209,7.11592942 9.42003562,6.99654834 9.46857236,6.84442723 L9.8633153,5.60724646 C9.91182967,5.45519548 9.99603379,5.31696534 10.1088902,5.20410887 L14.9493906,0.363604203 C15.3399145,-0.026920564 15.9730794,-0.0269208384 16.3636039,0.363603284 C16.363604,0.363603386 16.3636041,0.363603489 16.3636039,0.363603897 Z" id="Path-9-Copy" fill="#131415" fill-rule="nonzero"></path>
    </g>
</svg>