<svg xmlns="http://www.w3.org/2000/svg" width="95" height="24" fill="none" viewBox="0 0 95 24">
  <path fill="#EEE" d="M95 21V6a2 2 0 00-2-2 2 2 0 01-2-2 2 2 0 00-2-2h-6a2 2 0 00-2 2 2 2 0 01-2 2H56a2 2 0 01-2-2 2 2 0 00-2-2h-5a2 2 0 00-2 2 2 2 0 01-2 2H10C4.477 4 0 8.477 0 14s4.477 10 10 10h82a3 3 0 003-3z"/>
  <path fill="#18191A" d="M4.324 14.048c0 3.696 2.736 6.288 6.192 6.288 3.336 0 5.424-1.848 6-4.56l-2.976-.744c-.312 1.56-1.152 2.616-2.976 2.616-1.944 0-3.216-1.44-3.216-3.6s1.392-3.6 3.216-3.6c1.824 0 2.76 1.2 2.976 2.64l2.976-.768c-.624-2.712-2.688-4.56-6-4.56-3.456 0-6.192 2.592-6.192 6.288zM17.66 14.048c0 3.744 2.736 6.288 6.24 6.288s6.24-2.544 6.24-6.288S27.404 7.76 23.9 7.76s-6.24 2.544-6.24 6.288zm3.024 0c0-2.16 1.296-3.6 3.216-3.6 1.92 0 3.216 1.44 3.216 3.6s-1.296 3.6-3.216 3.6c-1.92 0-3.216-1.44-3.216-3.6zM32.114 8.096V20h3.024v-6.144c0-2.112 1.032-3.312 2.976-3.312 1.728 0 2.688.984 2.688 2.64V20h3.024v-7.104c0-3.096-1.992-4.992-4.632-4.992-2.184 0-3.288 1.008-3.768 2.112h-.336v-1.92h-2.976zM44.882 8.096v2.544h3.024v7.056c0 1.344 1.008 2.304 2.352 2.304h3.264v-2.544h-1.92c-.432 0-.672-.24-.672-.72V10.64h3.264V8.096H50.93V4.4h-3.024v3.696h-3.024zM55.776 11.024l2.448 1.488c.624-1.344 1.584-2.304 3.264-2.304 1.68 0 2.496.96 2.496 2.064v.384l-4.56.504c-2.28.24-3.936 1.56-3.936 3.456 0 2.28 1.776 3.72 4.464 3.72 2.52 0 3.36-1.224 3.744-2.016h.336V20h2.976v-7.512c0-2.88-2.232-4.728-5.4-4.728s-4.896 1.896-5.832 3.264zm2.88 5.424c0-.696.552-1.2 1.68-1.344l3.648-.432v.288c0 1.632-1.176 2.88-3.288 2.88-1.344 0-2.04-.576-2.04-1.392zM68.824 14.048c0 3.696 2.736 6.288 6.192 6.288 3.336 0 5.424-1.848 6-4.56l-2.976-.744c-.312 1.56-1.152 2.616-2.976 2.616-1.944 0-3.216-1.44-3.216-3.6s1.392-3.6 3.216-3.6c1.824 0 2.76 1.2 2.976 2.64l2.976-.768c-.624-2.712-2.688-4.56-6-4.56-3.456 0-6.192 2.592-6.192 6.288zM81.515 8.096v2.544h3.024v7.056c0 1.344 1.008 2.304 2.352 2.304h3.264v-2.544h-1.92c-.432 0-.672-.24-.672-.72V10.64h3.264V8.096h-3.264V4.4h-3.024v3.696h-3.024z"/>
</svg>
