<svg xmlns="http://www.w3.org/2000/svg" width="95" height="24" fill="currentColor" viewBox="0 0 95 24">
  <path fill-rule="evenodd" d="M95 6v15a3 3 0 01-3 3H10C4.477 24 0 19.523 0 14S4.477 4 10 4h33a2 2 0 002-2 2 2 0 012-2h5a2 2 0 012 2 2 2 0 002 2h23a2 2 0 002-2 2 2 0 012-2h6a2 2 0 012 2 2 2 0 002 2 2 2 0 012 2zM44.882 8.096v2.544h3.024v7.056c0 1.344 1.008 2.304 2.352 2.304h3.264v-2.544h-1.92c-.432 0-.672-.24-.672-.72V10.64h3.264V8.096H50.93V4.4h-3.024v3.696h-3.024zM4.324 14.048c0 3.696 2.736 6.288 6.192 6.288 3.336 0 5.424-1.848 6-4.56l-2.976-.744c-.312 1.56-1.152 2.616-2.976 2.616-1.944 0-3.216-1.44-3.216-3.6s1.392-3.6 3.216-3.6c1.824 0 2.76 1.2 2.976 2.64l2.976-.768c-.624-2.712-2.688-4.56-6-4.56-3.456 0-6.192 2.592-6.192 6.288zm13.336 0c0 3.744 2.736 6.288 6.24 6.288s6.24-2.544 6.24-6.288S27.404 7.76 23.9 7.76s-6.24 2.544-6.24 6.288zm3.024 0c0-2.16 1.296-3.6 3.216-3.6 1.92 0 3.216 1.44 3.216 3.6s-1.296 3.6-3.216 3.6c-1.92 0-3.216-1.44-3.216-3.6zM35.138 20h-3.024V8.096h2.976v1.92h.336c.48-1.104 1.584-2.112 3.768-2.112 2.64 0 4.632 1.896 4.632 4.992V20h-3.024v-6.816c0-1.656-.96-2.64-2.688-2.64-1.944 0-2.976 1.2-2.976 3.312V20zm23.086-7.488l-2.448-1.488c.936-1.368 2.664-3.264 5.832-3.264 3.168 0 5.4 1.848 5.4 4.728V20h-2.976v-1.68h-.336c-.384.792-1.224 2.016-3.744 2.016-2.688 0-4.464-1.44-4.464-3.72 0-1.896 1.656-3.216 3.936-3.456l4.56-.504v-.384c0-1.104-.816-2.064-2.496-2.064-1.68 0-2.64.96-3.264 2.304zm2.112 2.592c-1.128.144-1.68.648-1.68 1.344 0 .816.696 1.392 2.04 1.392 2.112 0 3.288-1.248 3.288-2.88v-.288l-3.648.432zm8.488-1.056c0 3.696 2.736 6.288 6.192 6.288 3.336 0 5.424-1.848 6-4.56l-2.976-.744c-.312 1.56-1.152 2.616-2.976 2.616-1.944 0-3.216-1.44-3.216-3.6s1.392-3.6 3.216-3.6c1.824 0 2.76 1.2 2.976 2.64l2.976-.768c-.624-2.712-2.688-4.56-6-4.56-3.456 0-6.192 2.592-6.192 6.288zm12.69-3.408V8.096h3.025V4.4h3.024v3.696h3.264v2.544h-3.264v6.096c0 .48.24.72.672.72h1.92V20H86.89c-1.344 0-2.352-.96-2.352-2.304V10.64h-3.024z" clip-rule="evenodd"/>
</svg>
