<svg xmlns="http://www.w3.org/2000/svg" width="607" height="361" fill="currentColor" viewBox="0 0 607 361">
  <path fill-rule="evenodd" d="M597 0c5.523 0 10 4.477 10 10v51c0 5.523-4.477 10-10 10H453c-5.523 0-10 4.477-10 10v39c0 5.523-4.477 10-10 10H262c-5.523 0-10 4.477-10 10v26c0 5.523 4.477 10 10 10h238c5.523 0 10 4.477 10 10v49c0 5.523-4.477 10-10 10h-18c-5.523 0-10 4.477-10 10v27c0 5.523 4.477 10 10 10h74c5.523 0 10 4.477 10 10v49c0 5.523-4.477 10-10 10H10c-5.523 0-10-4.477-10-10V10C0 4.477 4.477 0 10 0h587zM20.024 52V18.4h5.568V52h-5.568zm14.985-26.256c-2.304 0-4.08-1.584-4.08-3.888 0-2.496 1.776-4.176 4.176-4.176 2.352 0 4.128 1.68 4.128 4.08v5.712c0 2.352-1.728 4.032-4.08 4.032h-3.984v-2.928h3.36c.96 0 1.344-.432 1.344-1.296v-1.632c-.192.048-.48.096-.864.096zM44.492 52V28.336h5.136v3.456h.672c1.056-2.304 3.12-3.888 6.432-3.888 3.168 0 5.472 1.68 6.432 4.128h.672c1.152-2.4 3.264-4.128 6.96-4.128 4.464 0 7.872 3.264 7.872 8.16V52h-5.28V36.496c0-2.496-1.68-3.936-4.32-3.936-2.784 0-4.848 1.632-4.848 4.992V52h-5.28V36.496c0-2.496-1.728-3.936-4.368-3.936-2.736 0-4.848 1.632-4.848 4.992V52h-5.232zm56.797-15.168l-4.32-2.544c1.824-2.928 5.232-6.672 11.568-6.672 6.288 0 10.512 3.696 10.512 9.408V52h-5.184v-3.552h-.672c-1.008 1.872-2.928 4.224-7.92 4.224-5.328 0-8.88-2.832-8.88-7.296 0-4.08 3.264-6.48 7.872-6.912l9.504-1.008v-.816c0-2.592-1.872-4.704-5.472-4.704-3.6 0-5.712 2.112-7.008 4.896zm4.416 5.328c-2.496.288-3.84 1.344-3.84 3.024 0 1.824 1.68 3.072 4.608 3.072 4.512 0 7.296-2.64 7.296-6.528v-.432l-8.064.864zm18.99 9.84V28.336h5.136v3.936h.672c1.056-2.256 3.312-4.368 7.776-4.368 5.232 0 9.264 3.648 9.264 9.888V52h-5.232V38.272c0-3.696-2.16-5.712-5.808-5.712-4.128 0-6.576 2.544-6.576 7.296V52h-5.232zm39.358 0l9.84-33.6h8.832l9.839 33.6h-5.711l-2.257-7.824h-12.528L169.812 52h-5.759zm13.968-28.896l-4.608 16.032h9.84l-4.657-16.032h-.575zm17.83-4.704h5.232V52h-5.232V18.4zm11.203 0h5.232V52h-5.232V18.4zm26.371 23.76h-14.208v-4.8h14.208v4.8zm21.406-23.712c6.24 0 10.704 3.984 10.704 10.32 0 5.184-3.12 8.784-7.584 9.936L265.007 52h-6.144l-6.528-12.912h-6.384V52h-5.568V18.448h14.448zm-.576 4.992h-8.304v10.608h8.304c3.504 0 5.712-2.016 5.712-5.28 0-3.264-2.208-5.328-5.712-5.328zm26.507 29.232c-7.056 0-12.336-5.088-12.336-12.528 0-7.392 5.28-12.48 12.336-12.48 7.008 0 12.287 5.088 12.287 12.48 0 7.44-5.279 12.528-12.287 12.528zm0-20.304c-4.272 0-7.056 3.168-7.056 7.776 0 4.704 2.784 7.824 7.056 7.824 4.224 0 7.008-3.168 7.008-7.824s-2.784-7.776-7.008-7.776zm39.321-4.032V52h-5.136v-3.984h-.672c-1.056 2.304-3.312 4.368-7.776 4.368-5.232 0-9.264-3.6-9.264-9.84V28.336h5.232v13.68c0 3.744 2.16 5.76 5.808 5.76 4.128 0 6.576-2.592 6.576-7.296V28.336h5.232zM326.023 52V28.336h5.136v3.936h.672c1.056-2.256 3.312-4.368 7.776-4.368 5.232 0 9.264 3.648 9.264 9.888V52h-5.232V38.272c0-3.696-2.16-5.712-5.808-5.712-4.128 0-6.576 2.544-6.576 7.296V52h-5.232zm46.548-33.6h5.232V52h-5.136v-3.6h-.672c-1.296 2.112-3.504 4.272-7.968 4.272-6.048 0-10.992-5.184-10.992-12.528s4.944-12.528 10.992-12.528c4.464 0 6.672 2.16 7.968 4.272h.576V18.4zm0 21.744c0-4.848-3.024-7.824-7.152-7.824-4.032 0-7.104 2.88-7.104 7.824s3.072 7.824 7.104 7.824c4.128 0 7.152-2.976 7.152-7.824zM397.415 52V18.4h11.184c8.928 0 13.776 4.368 13.776 13.584v6.432c0 9.216-4.848 13.584-13.776 13.584h-11.184zm11.232-28.56h-5.664v23.52h5.664c5.904 0 8.16-2.784 8.16-8.352v-6.816c0-5.568-2.304-8.352-8.16-8.352zm29.189 29.232c-7.152 0-12.192-5.376-12.192-12.72 0-7.104 4.944-12.336 11.904-12.336 6.816 0 11.472 4.704 11.472 11.856v2.208h-17.904c.24 3.744 2.784 6.432 6.672 6.432 3.6 0 5.472-1.968 6.384-3.936l4.368 2.448c-1.584 2.688-4.368 6.048-10.704 6.048zm-.336-20.496c-3.744 0-5.952 2.256-6.384 5.664h12.48c-.288-3.504-2.592-5.664-6.096-5.664zm23.807 9.792c-5.424-.864-8.832-2.88-8.832-7.2s3.648-7.104 8.976-7.104c5.424 0 9.312 2.448 12 5.472l-3.6 3.12c-2.64-3.264-5.568-4.32-8.16-4.32-2.592 0-4.08 1.056-4.08 2.688 0 1.584 1.488 2.352 3.984 2.784l2.88.48c5.088.864 9.072 2.544 9.072 7.152 0 4.656-4.176 7.632-9.84 7.632-5.904 0-10.464-2.88-12.864-7.008l4.224-2.496c2.112 4.032 5.472 5.184 8.544 5.184 3.024 0 4.8-1.248 4.8-2.976s-1.536-2.448-4.224-2.928l-2.88-.48zm19.37-16.944c-2.208 0-3.888-1.536-3.888-3.744 0-2.256 1.68-3.792 3.888-3.792s3.888 1.536 3.888 3.792c0 2.208-1.68 3.744-3.888 3.744zm-2.592 3.312h5.232V52h-5.232V28.336zm29.347 3.552v-3.552h5.136v22.8c0 6.528-4.607 11.136-11.999 11.136-6.432 0-10.033-2.976-12.432-6.672l4.511-2.736c1.296 2.544 3.744 4.848 7.585 4.848 4.079 0 7.103-2.208 7.103-6.816v-3.168h-.576C505.465 49.84 503.257 52 498.793 52c-6.048 0-10.992-5.04-10.992-12.192s4.944-12.144 10.992-12.144c4.464 0 6.672 2.112 7.967 4.224h.672zm-14.351 7.92c0 4.8 3.071 7.488 7.104 7.488 4.127 0 7.151-2.784 7.151-7.488 0-4.656-3.024-7.44-7.151-7.44-4.033 0-7.104 2.688-7.104 7.44zM518.539 52V28.336h5.135v3.936h.672c1.057-2.256 3.313-4.368 7.776-4.368 5.232 0 9.264 3.648 9.264 9.888V52h-5.232V38.272c0-3.696-2.159-5.712-5.808-5.712-4.127 0-6.575 2.544-6.575 7.296V52h-5.232zm39.203.672c-7.151 0-12.192-5.376-12.192-12.72 0-7.104 4.945-12.336 11.905-12.336 6.816 0 11.472 4.704 11.472 11.856v2.208h-17.904c.24 3.744 2.784 6.432 6.672 6.432 3.599 0 5.472-1.968 6.383-3.936l4.368 2.448c-1.584 2.688-4.368 6.048-10.704 6.048zm-.336-20.496c-3.744 0-5.951 2.256-6.383 5.664h12.48c-.289-3.504-2.592-5.664-6.097-5.664zm15.789-3.84h5.136v3.312h.672c.96-2.496 2.88-3.408 5.952-3.408h2.544v4.608h-3.648c-3.168 0-5.424 1.728-5.424 5.28V52h-5.232V28.336zM22.904 110l-4.992-23.664h5.28l3.36 19.008h.576l4.32-19.008h7.344l4.32 19.008h.576l3.36-19.008h5.28L47.336 110h-7.584l-4.32-19.056h-.576L30.488 110h-7.584zm33.306 0V76.4h5.232v13.872h.576c1.056-2.256 3.312-4.368 7.776-4.368 5.232 0 9.264 3.648 9.264 9.888V110h-5.232V96.272c0-3.696-2.16-5.712-5.808-5.712-4.128 0-6.576 2.544-6.576 7.296V110H56.21zm39.348.672c-7.056 0-12.336-5.088-12.336-12.528 0-7.392 5.28-12.48 12.336-12.48 7.008 0 12.288 5.088 12.288 12.48 0 7.44-5.28 12.528-12.288 12.528zm0-20.304c-4.272 0-7.056 3.168-7.056 7.776 0 4.704 2.784 7.824 7.056 7.824 4.224 0 7.008-3.168 7.008-7.824s-2.784-7.776-7.008-7.776zM125.913 76.4h5.233V110h-5.233V76.4zm22.052 34.272c-7.056 0-12.336-5.088-12.336-12.528 0-7.392 5.28-12.48 12.336-12.48 7.008 0 12.288 5.088 12.288 12.48 0 7.44-5.28 12.528-12.288 12.528zm0-20.304c-4.272 0-7.056 3.168-7.056 7.776 0 4.704 2.784 7.824 7.056 7.824 4.224 0 7.008-3.168 7.008-7.824s-2.784-7.776-7.008-7.776zM170.161 110l-8.496-23.664h5.712l6.336 18.96h.576l6.336-18.96h5.712L177.889 110h-7.728zm29.785.672c-7.152 0-12.192-5.376-12.192-12.72 0-7.104 4.944-12.336 11.904-12.336 6.816 0 11.472 4.704 11.472 11.856v2.208h-17.904c.24 3.744 2.784 6.432 6.672 6.432 3.6 0 5.472-1.968 6.384-3.936l4.368 2.448c-1.584 2.688-4.368 6.048-10.704 6.048zm-.336-20.496c-3.744 0-5.952 2.256-6.384 5.664h12.48c-.288-3.504-2.592-5.664-6.096-5.664zm23.806 9.792c-5.424-.864-8.832-2.88-8.832-7.2s3.648-7.104 8.976-7.104c5.424 0 9.312 2.448 12 5.472l-3.6 3.12c-2.64-3.264-5.568-4.32-8.16-4.32-2.592 0-4.08 1.056-4.08 2.688 0 1.584 1.488 2.352 3.984 2.784l2.88.48c5.088.864 9.072 2.544 9.072 7.152 0 4.656-4.176 7.632-9.84 7.632-5.904 0-10.464-2.88-12.864-7.008l4.224-2.496c2.112 4.032 5.472 5.184 8.544 5.184 3.024 0 4.8-1.248 4.8-2.976s-1.536-2.448-4.224-2.928l-2.88-.48zm27.684-9.216v-4.416h6.481v-7.728h5.231v7.728h6.96v4.416h-6.96v13.344c0 .96.481 1.44 1.344 1.44h4.272V110h-6.527c-2.496 0-4.32-1.776-4.32-4.32V90.752H251.1zm33.693 19.92c-7.056 0-12.336-5.088-12.336-12.528 0-7.392 5.28-12.48 12.336-12.48 7.008 0 12.288 5.088 12.288 12.48 0 7.44-5.28 12.528-12.288 12.528zm0-20.304c-4.272 0-7.056 3.168-7.056 7.776 0 4.704 2.784 7.824 7.056 7.824 4.224 0 7.008-3.168 7.008-7.824s-2.784-7.776-7.008-7.776zm38.467 9.6c-5.424-.864-8.832-2.88-8.832-7.2s3.648-7.104 8.976-7.104c5.424 0 9.312 2.448 12 5.472l-3.6 3.12c-2.64-3.264-5.568-4.32-8.16-4.32-2.592 0-4.08 1.056-4.08 2.688 0 1.584 1.488 2.352 3.984 2.784l2.88.48c5.088.864 9.072 2.544 9.072 7.152 0 4.656-4.176 7.632-9.84 7.632-5.904 0-10.464-2.88-12.864-7.008l4.224-2.496c2.112 4.032 5.472 5.184 8.544 5.184 3.024 0 4.8-1.248 4.8-2.976s-1.536-2.448-4.224-2.928l-2.88-.48zm27.627 10.704c-7.056 0-12.336-5.088-12.336-12.528 0-7.392 5.28-12.48 12.336-12.48 7.008 0 12.287 5.088 12.287 12.48 0 7.44-5.279 12.528-12.287 12.528zm0-20.304c-4.272 0-7.056 3.168-7.056 7.776 0 4.704 2.784 7.824 7.056 7.824 4.224 0 7.008-3.168 7.008-7.824s-2.784-7.776-7.008-7.776zM367.648 76.4h5.232V110h-5.232V76.4zm17.107 33.6l-8.496-23.664h5.712l6.336 18.96h.576l6.336-18.96h5.712L392.483 110h-7.728zm29.784.672c-7.152 0-12.192-5.376-12.192-12.72 0-7.104 4.944-12.336 11.904-12.336 6.816 0 11.472 4.704 11.472 11.856v2.208h-17.904c.24 3.744 2.784 6.432 6.672 6.432 3.6 0 5.472-1.968 6.384-3.936l4.368 2.448c-1.584 2.688-4.368 6.048-10.704 6.048zm-.336-20.496c-3.744 0-5.952 2.256-6.384 5.664h12.48c-.288-3.504-2.592-5.664-6.096-5.664zM25.208 177.6h-5.232v-33.264h5.136v3.552h.672c1.296-2.112 3.504-4.224 7.968-4.224 6.048 0 10.992 5.184 10.992 12.48 0 7.344-4.944 12.528-10.992 12.528-4.464 0-6.672-2.112-7.968-4.272h-.576v13.2zm0-21.456c0 4.848 3.024 7.824 7.152 7.824 4.032 0 7.104-2.88 7.104-7.824s-3.072-7.776-7.104-7.776c-4.128 0-7.152 2.928-7.152 7.776zm24.018-11.808h5.136v3.312h.672c.96-2.496 2.88-3.408 5.952-3.408h2.544v4.608h-3.648c-3.168 0-5.424 1.728-5.424 5.28V168h-5.232v-23.664zm27.817 24.336c-7.056 0-12.336-5.088-12.336-12.528 0-7.392 5.28-12.48 12.336-12.48 7.008 0 12.288 5.088 12.288 12.48 0 7.44-5.28 12.528-12.288 12.528zm0-20.304c-4.272 0-7.056 3.168-7.056 7.776 0 4.704 2.784 7.824 7.056 7.824 4.224 0 7.008-3.168 7.008-7.824s-2.784-7.776-7.008-7.776zM93.804 168v-33.6h5.232v13.488h.576c1.296-2.112 3.504-4.224 7.968-4.224 6.048 0 10.992 5.184 10.992 12.48 0 7.344-4.944 12.528-10.992 12.528-4.464 0-6.672-2.112-7.968-4.272h-.672v3.6h-5.136zm19.488-11.856c0-4.944-3.072-7.776-7.104-7.776-4.128 0-7.152 2.928-7.152 7.776s3.024 7.824 7.152 7.824c4.032 0 7.104-2.88 7.104-7.824zm9.762-21.744h5.232V168h-5.232v-33.6zm21.907 34.272c-7.152 0-12.192-5.376-12.192-12.72 0-7.104 4.944-12.336 11.904-12.336 6.816 0 11.472 4.704 11.472 11.856v2.208h-17.904c.24 3.744 2.784 6.432 6.672 6.432 3.6 0 5.472-1.968 6.384-3.936l4.368 2.448c-1.584 2.688-4.368 6.048-10.704 6.048zm-.336-20.496c-3.744 0-5.952 2.256-6.384 5.664h12.48c-.288-3.504-2.592-5.664-6.096-5.664zM160.413 168v-23.664h5.136v3.456h.672c1.056-2.304 3.121-3.888 6.433-3.888 3.168 0 5.472 1.68 6.431 4.128h.673c1.152-2.4 3.263-4.128 6.959-4.128 4.465 0 7.873 3.264 7.873 8.16V168h-5.28v-15.504c0-2.496-1.68-3.936-4.32-3.936-2.784 0-4.849 1.632-4.849 4.992V168h-5.28v-15.504c0-2.496-1.728-3.936-4.368-3.936-2.735 0-4.847 1.632-4.847 4.992V168h-5.233zm47.956-10.032c-5.424-.864-8.832-2.88-8.832-7.2s3.648-7.104 8.976-7.104c5.424 0 9.312 2.448 12 5.472l-3.6 3.12c-2.64-3.264-5.568-4.32-8.16-4.32-2.592 0-4.08 1.056-4.08 2.688 0 1.584 1.488 2.352 3.984 2.784l2.88.48c5.088.864 9.072 2.544 9.072 7.152 0 4.656-4.176 7.632-9.84 7.632-5.904 0-10.464-2.88-12.864-7.008l4.224-2.496c2.112 4.032 5.472 5.184 8.544 5.184 3.024 0 4.8-1.248 4.8-2.976s-1.536-2.448-4.224-2.928l-2.88-.48zm20.283-6.144c-2.4 0-4.176-1.728-4.176-4.176 0-2.4 1.776-4.128 4.176-4.128 2.352 0 4.128 1.728 4.128 4.128 0 2.448-1.776 4.176-4.128 4.176zm-.096 16.656c-2.304 0-4.08-1.632-4.08-3.936 0-2.448 1.776-4.176 4.176-4.176 2.352 0 4.128 1.728 4.128 4.128v5.664c0 2.352-1.728 4.08-4.08 4.08h-3.984v-2.976h3.36c.96 0 1.344-.384 1.344-1.296v-1.584c-.192.048-.48.096-.864.096zM20.024 226v-33.6h5.568V226h-5.568zm36.019.672c-6.912 0-12.336-5.184-12.336-12.528s5.424-12.48 12.288-12.48c6.48 0 10.608 3.744 11.76 9.024l-5.184 1.296c-.48-3.168-2.64-5.616-6.48-5.616-4.032 0-7.104 3.168-7.104 7.776 0 4.656 2.88 7.824 7.104 7.824 3.936 0 5.856-2.304 6.48-5.616l5.232 1.248c-1.104 5.328-5.232 9.072-11.76 9.072zm26.86 0c-7.057 0-12.337-5.088-12.337-12.528 0-7.392 5.28-12.48 12.336-12.48 7.008 0 12.288 5.088 12.288 12.48 0 7.44-5.28 12.528-12.288 12.528zm0-20.304c-4.273 0-7.057 3.168-7.057 7.776 0 4.704 2.784 7.824 7.056 7.824 4.224 0 7.008-3.168 7.008-7.824s-2.784-7.776-7.008-7.776zM99.662 226v-23.664h5.136v3.456h.673c1.056-2.304 3.119-3.888 6.432-3.888 3.168 0 5.472 1.68 6.432 4.128h.671c1.153-2.4 3.264-4.128 6.96-4.128 4.465 0 7.873 3.264 7.873 8.16V226h-5.28v-15.504c0-2.496-1.68-3.936-4.32-3.936-2.784 0-4.848 1.632-4.848 4.992V226h-5.28v-15.504c0-2.496-1.729-3.936-4.369-3.936-2.736 0-4.847 1.632-4.847 4.992V226h-5.233zm39.844 0v-33.6h5.232v13.488h.576c1.296-2.112 3.504-4.224 7.968-4.224 6.048 0 10.992 5.184 10.992 12.48 0 7.344-4.944 12.528-10.992 12.528-4.464 0-6.672-2.112-7.968-4.272h-.672v3.6h-5.136zm19.488-11.856c0-4.944-3.072-7.776-7.104-7.776-4.128 0-7.152 2.928-7.152 7.776s3.024 7.824 7.152 7.824c4.032 0 7.104-2.88 7.104-7.824zm12.354-15.12c-2.208 0-3.888-1.536-3.888-3.744 0-2.256 1.68-3.792 3.888-3.792s3.888 1.536 3.888 3.792c0 2.208-1.68 3.744-3.888 3.744zm-2.592 3.312h5.232V226h-5.232v-23.664zM179.96 226v-23.664h5.136v3.936h.672c1.056-2.256 3.312-4.368 7.776-4.368 5.232 0 9.264 3.648 9.264 9.888V226h-5.232v-13.728c0-3.696-2.16-5.712-5.808-5.712-4.128 0-6.576 2.544-6.576 7.296V226h-5.232zm39.204.672c-7.152 0-12.192-5.376-12.192-12.72 0-7.104 4.944-12.336 11.904-12.336 6.816 0 11.472 4.704 11.472 11.856v2.208h-17.904c.24 3.744 2.784 6.432 6.672 6.432 3.6 0 5.472-1.968 6.384-3.936l4.368 2.448c-1.584 2.688-4.368 6.048-10.704 6.048zm-.336-20.496c-3.744 0-5.952 2.256-6.384 5.664h12.48c-.288-3.504-2.592-5.664-6.096-5.664zm47.43-13.776h5.232V226h-5.136v-3.6h-.672c-1.296 2.112-3.504 4.272-7.968 4.272-6.048 0-10.992-5.184-10.992-12.528s4.944-12.528 10.992-12.528c4.464 0 6.672 2.16 7.968 4.272h.576V192.4zm0 21.744c0-4.848-3.024-7.824-7.152-7.824-4.032 0-7.104 2.88-7.104 7.824s3.072 7.824 7.104 7.824c4.128 0 7.152-2.976 7.152-7.824zm21.906 12.528c-7.152 0-12.192-5.376-12.192-12.72 0-7.104 4.944-12.336 11.904-12.336 6.816 0 11.472 4.704 11.472 11.856v2.208h-17.904c.24 3.744 2.784 6.432 6.672 6.432 3.6 0 5.472-1.968 6.384-3.936l4.368 2.448c-1.584 2.688-4.368 6.048-10.704 6.048zm-.336-20.496c-3.744 0-5.952 2.256-6.384 5.664h12.48c-.288-3.504-2.592-5.664-6.096-5.664zm23.807 9.792c-5.424-.864-8.832-2.88-8.832-7.2s3.648-7.104 8.976-7.104c5.424 0 9.312 2.448 12 5.472l-3.6 3.12c-2.64-3.264-5.568-4.32-8.16-4.32-2.592 0-4.08 1.056-4.08 2.688 0 1.584 1.488 2.352 3.984 2.784l2.88.48c5.088.864 9.072 2.544 9.072 7.152 0 4.656-4.176 7.632-9.84 7.632-5.904 0-10.464-2.88-12.864-7.008l4.224-2.496c2.112 4.032 5.472 5.184 8.544 5.184 3.024 0 4.8-1.248 4.8-2.976s-1.536-2.448-4.224-2.928l-2.88-.48zm19.37-16.944c-2.208 0-3.888-1.536-3.888-3.744 0-2.256 1.68-3.792 3.888-3.792 2.209 0 3.888 1.536 3.888 3.792 0 2.208-1.679 3.744-3.888 3.744zm-2.591 3.312h5.232V226h-5.232v-23.664zm29.347 3.552v-3.552h5.136v22.8c0 6.528-4.608 11.136-12 11.136-6.432 0-10.032-2.976-12.432-6.672l4.512-2.736c1.296 2.544 3.744 4.848 7.584 4.848 4.08 0 7.104-2.208 7.104-6.816v-3.168h-.576c-1.296 2.112-3.504 4.272-7.968 4.272-6.048 0-10.992-5.04-10.992-12.192s4.944-12.144 10.992-12.144c4.464 0 6.672 2.112 7.968 4.224h.672zm-14.352 7.92c0 4.8 3.072 7.488 7.104 7.488 4.128 0 7.152-2.784 7.152-7.488 0-4.656-3.024-7.44-7.152-7.44-4.032 0-7.104 2.688-7.104 7.44zM368.867 226v-23.664h5.136v3.936h.672c1.056-2.256 3.312-4.368 7.776-4.368 5.232 0 9.264 3.648 9.264 9.888V226h-5.232v-13.728c0-3.696-2.16-5.712-5.808-5.712-4.128 0-6.576 2.544-6.576 7.296V226h-5.232zm45.453-15.168l-4.32-2.544c1.824-2.928 5.232-6.672 11.568-6.672 6.288 0 10.512 3.696 10.512 9.408V226h-5.184v-3.552h-.672c-1.008 1.872-2.928 4.224-7.92 4.224-5.328 0-8.88-2.832-8.88-7.296 0-4.08 3.264-6.48 7.872-6.912l9.504-1.008v-.816c0-2.592-1.872-4.704-5.472-4.704-3.6 0-5.712 2.112-7.008 4.896zm4.416 5.328c-2.496.288-3.84 1.344-3.84 3.024 0 1.824 1.68 3.072 4.608 3.072 4.512 0 7.296-2.64 7.296-6.528v-.432l-8.064.864zm18.99 9.84v-23.664h5.136v3.936h.672c1.056-2.256 3.312-4.368 7.776-4.368 5.232 0 9.264 3.648 9.264 9.888V226h-5.232v-13.728c0-3.696-2.16-5.712-5.808-5.712-4.128 0-6.576 2.544-6.576 7.296V226h-5.232zm46.548-33.6h5.232V226h-5.136v-3.6h-.672c-1.296 2.112-3.504 4.272-7.968 4.272-6.048 0-10.992-5.184-10.992-12.528s4.944-12.528 10.992-12.528c4.464 0 6.672 2.16 7.968 4.272h.576V192.4zm0 21.744c0-4.848-3.024-7.824-7.152-7.824-4.032 0-7.104 2.88-7.104 7.824s3.072 7.824 7.104 7.824c4.128 0 7.152-2.976 7.152-7.824zM17.288 264.752v-4.416h6.48v-7.728H29v7.728h6.96v4.416H29v13.344c0 .96.48 1.44 1.344 1.44h4.272V284h-6.528c-2.496 0-4.32-1.776-4.32-4.32v-14.928h-6.48zm33.548 19.92c-7.152 0-12.192-5.376-12.192-12.72 0-7.104 4.944-12.336 11.904-12.336 6.816 0 11.472 4.704 11.472 11.856v2.208H44.116c.24 3.744 2.784 6.432 6.672 6.432 3.6 0 5.472-1.968 6.384-3.936l4.368 2.448c-1.584 2.688-4.368 6.048-10.704 6.048zm-.336-20.496c-3.744 0-5.952 2.256-6.384 5.664h12.48c-.288-3.504-2.592-5.664-6.096-5.664zm26.636 20.496c-6.911 0-12.335-5.184-12.335-12.528s5.424-12.48 12.287-12.48c6.48 0 10.609 3.744 11.76 9.024l-5.183 1.296c-.48-3.168-2.64-5.616-6.48-5.616-4.032 0-7.105 3.168-7.105 7.776 0 4.656 2.88 7.824 7.105 7.824 3.936 0 5.855-2.304 6.48-5.616l5.231 1.248c-1.103 5.328-5.231 9.072-11.76 9.072zM93.148 284v-33.6h5.232v13.872h.576c1.056-2.256 3.312-4.368 7.776-4.368 5.232 0 9.264 3.648 9.264 9.888V284h-5.232v-13.728c0-3.696-2.16-5.712-5.808-5.712-4.128 0-6.576 2.544-6.576 7.296V284h-5.232zm28.5 0v-23.664h5.136v3.936h.672c1.056-2.256 3.312-4.368 7.776-4.368 5.232 0 9.264 3.648 9.264 9.888V284h-5.232v-13.728c0-3.696-2.16-5.712-5.808-5.712-4.128 0-6.576 2.544-6.576 7.296V284h-5.232zm39.348.672c-7.056 0-12.336-5.088-12.336-12.528 0-7.392 5.28-12.48 12.336-12.48 7.008 0 12.288 5.088 12.288 12.48 0 7.44-5.28 12.528-12.288 12.528zm0-20.304c-4.272 0-7.056 3.168-7.056 7.776 0 4.704 2.784 7.824 7.056 7.824 4.224 0 7.008-3.168 7.008-7.824s-2.784-7.776-7.008-7.776zm16.761-13.968h5.232V284h-5.232v-33.6zm22.051 34.272c-7.056 0-12.336-5.088-12.336-12.528 0-7.392 5.28-12.48 12.336-12.48 7.008 0 12.288 5.088 12.288 12.48 0 7.44-5.28 12.528-12.288 12.528zm0-20.304c-4.272 0-7.056 3.168-7.056 7.776 0 4.704 2.784 7.824 7.056 7.824 4.224 0 7.008-3.168 7.008-7.824s-2.784-7.776-7.008-7.776zm34.906-.48v-3.552h5.136v22.8c0 6.528-4.608 11.136-12 11.136-6.432 0-10.032-2.976-12.432-6.672l4.512-2.736c1.296 2.544 3.744 4.848 7.584 4.848 4.08 0 7.104-2.208 7.104-6.816v-3.168h-.576c-1.296 2.112-3.504 4.272-7.968 4.272-6.048 0-10.992-5.04-10.992-12.192s4.944-12.144 10.992-12.144c4.464 0 6.672 2.112 7.968 4.224h.672zm-14.352 7.92c0 4.8 3.072 7.488 7.104 7.488 4.128 0 7.152-2.784 7.152-7.488 0-4.656-3.024-7.44-7.152-7.44-4.032 0-7.104 2.688-7.104 7.44zm35.922 6.24l6.768-17.712h5.712L255.372 293.6h-5.712l3.552-8.352-9.984-24.912h5.712l6.768 17.712h.576zm26.738-13.296v-4.416h6.48v-7.728h5.232v7.728h6.96v4.416h-6.96v13.344c0 .96.48 1.44 1.344 1.44h4.272V284h-6.528c-2.496 0-4.32-1.776-4.32-4.32v-14.928h-6.48zm33.693 19.92c-7.056 0-12.336-5.088-12.336-12.528 0-7.392 5.28-12.48 12.336-12.48 7.008 0 12.288 5.088 12.288 12.48 0 7.44-5.28 12.528-12.288 12.528zm0-20.304c-4.272 0-7.056 3.168-7.056 7.776 0 4.704 2.784 7.824 7.056 7.824 4.224 0 7.008-3.168 7.008-7.824s-2.784-7.776-7.008-7.776zm41.203 20.304c-6.912 0-12.336-5.184-12.336-12.528s5.424-12.48 12.288-12.48c6.48 0 10.608 3.744 11.76 9.024l-5.184 1.296c-.48-3.168-2.64-5.616-6.48-5.616-4.032 0-7.104 3.168-7.104 7.776 0 4.656 2.88 7.824 7.104 7.824 3.936 0 5.856-2.304 6.48-5.616l5.232 1.248c-1.104 5.328-5.232 9.072-11.76 9.072zm16.011-24.336h5.136v3.312h.672c.96-2.496 2.88-3.408 5.952-3.408h2.544v4.608h-3.648c-3.168 0-5.424 1.728-5.424 5.28V284h-5.232v-23.664zm20.938 8.496l-4.32-2.544c1.824-2.928 5.232-6.672 11.568-6.672 6.288 0 10.512 3.696 10.512 9.408V284h-5.184v-3.552h-.672c-1.008 1.872-2.928 4.224-7.92 4.224-5.328 0-8.88-2.832-8.88-7.296 0-4.08 3.264-6.48 7.872-6.912l9.504-1.008v-.816c0-2.592-1.872-4.704-5.472-4.704-3.6 0-5.712 2.112-7.008 4.896zm4.416 5.328c-2.496.288-3.84 1.344-3.84 3.024 0 1.824 1.68 3.072 4.608 3.072 4.512 0 7.296-2.64 7.296-6.528v-.432l-8.064.864zm16.409-9.408v-4.416h6.432v-5.424c0-2.592 1.824-4.512 4.464-4.512h6.192v4.368h-4.032c-.864 0-1.344.48-1.344 1.44v4.128h6.624v4.416h-6.624V284h-5.28v-19.248h-6.432zm19.627 0v-4.416h6.48v-7.728h5.232v7.728h6.96v4.416h-6.96v13.344c0 .96.48 1.44 1.344 1.44h4.272V284h-6.528c-2.496 0-4.32-1.776-4.32-4.32v-14.928h-6.48zM22.568 315.024c-2.208 0-3.888-1.536-3.888-3.744 0-2.256 1.68-3.792 3.888-3.792s3.888 1.536 3.888 3.792c0 2.208-1.68 3.744-3.888 3.744zm-2.592 3.312h5.232V342h-5.232v-23.664zM31.179 342v-23.664h5.136v3.936h.672c1.056-2.256 3.312-4.368 7.776-4.368 5.232 0 9.264 3.648 9.264 9.888V342h-5.232v-13.728c0-3.696-2.16-5.712-5.808-5.712-4.128 0-6.576 2.544-6.576 7.296V342H31.18zm25.343-19.248v-4.416h6.48v-7.728h5.232v7.728h6.96v4.416h-6.96v13.344c0 .96.48 1.44 1.344 1.44h4.272V342h-6.528c-2.496 0-4.32-1.776-4.32-4.32v-14.928h-6.48zm33.549 19.92c-7.152 0-12.192-5.376-12.192-12.72 0-7.104 4.944-12.336 11.904-12.336 6.816 0 11.472 4.704 11.472 11.856v2.208H83.351c.24 3.744 2.784 6.432 6.672 6.432 3.6 0 5.472-1.968 6.384-3.936l4.368 2.448c-1.584 2.688-4.368 6.048-10.704 6.048zm-.336-20.496c-3.744 0-5.952 2.256-6.384 5.664h12.48c-.288-3.504-2.592-5.664-6.096-5.664zm15.788-3.84h5.136v3.312h.672c.96-2.496 2.88-3.408 5.952-3.408h2.544v4.608h-3.648c-3.168 0-5.424 1.728-5.424 5.28V342h-5.232v-23.664zm20.938 8.496l-4.32-2.544c1.824-2.928 5.232-6.672 11.568-6.672 6.288 0 10.512 3.696 10.512 9.408V342h-5.184v-3.552h-.672c-1.008 1.872-2.928 4.224-7.92 4.224-5.328 0-8.88-2.832-8.88-7.296 0-4.08 3.264-6.48 7.872-6.912l9.504-1.008v-.816c0-2.592-1.872-4.704-5.472-4.704-3.6 0-5.712 2.112-7.008 4.896zm4.416 5.328c-2.496.288-3.84 1.344-3.84 3.024 0 1.824 1.68 3.072 4.608 3.072 4.512 0 7.296-2.64 7.296-6.528v-.432l-8.064.864zm29.838 10.512c-6.912 0-12.336-5.184-12.336-12.528s5.424-12.48 12.288-12.48c6.48 0 10.608 3.744 11.76 9.024l-5.184 1.296c-.48-3.168-2.64-5.616-6.48-5.616-4.032 0-7.104 3.168-7.104 7.776 0 4.656 2.88 7.824 7.104 7.824 3.936 0 5.856-2.304 6.48-5.616l5.232 1.248c-1.104 5.328-5.232 9.072-11.76 9.072zm13.089-19.92v-4.416h6.48v-7.728h5.232v7.728h6.96v4.416h-6.96v13.344c0 .96.48 1.44 1.344 1.44h4.272V342h-6.528c-2.496 0-4.32-1.776-4.32-4.32v-14.928h-6.48zm25.67-7.728c-2.208 0-3.888-1.536-3.888-3.744 0-2.256 1.68-3.792 3.888-3.792s3.888 1.536 3.888 3.792c0 2.208-1.68 3.744-3.888 3.744zm-2.592 3.312h5.232V342h-5.232v-23.664zM213.989 342l-8.496-23.664h5.712l6.336 18.96h.576l6.336-18.96h5.712L221.717 342h-7.728zm29.785.672c-7.152 0-12.192-5.376-12.192-12.72 0-7.104 4.944-12.336 11.904-12.336 6.816 0 11.472 4.704 11.472 11.856v2.208h-17.904c.24 3.744 2.784 6.432 6.672 6.432 3.6 0 5.472-1.968 6.384-3.936l4.368 2.448c-1.584 2.688-4.368 6.048-10.704 6.048zm-.336-20.496c-3.744 0-5.952 2.256-6.384 5.664h12.48c-.288-3.504-2.592-5.664-6.096-5.664zm40.086 20.496c-7.152 0-12.192-5.376-12.192-12.72 0-7.104 4.944-12.336 11.904-12.336 6.816 0 11.472 4.704 11.472 11.856v2.208h-17.904c.24 3.744 2.784 6.432 6.672 6.432 3.6 0 5.472-1.968 6.384-3.936l4.368 2.448c-1.584 2.688-4.368 6.048-10.704 6.048zm-.336-20.496c-3.744 0-5.952 2.256-6.384 5.664h12.48c-.288-3.504-2.592-5.664-6.096-5.664zM304.759 330l-8.544-11.664h6.191l6.048 8.448h.576l6.048-8.448h6.193L312.727 330l8.687 12h-6.288l-6.096-8.688h-.576L302.358 342h-6.288l8.689-12zm25.887 21.6h-5.232v-33.264h5.135v3.552h.672c1.296-2.112 3.504-4.224 7.969-4.224 6.047 0 10.991 5.184 10.991 12.48 0 7.344-4.944 12.528-10.991 12.528-4.465 0-6.673-2.112-7.969-4.272h-.575v13.2zm0-21.456c0 4.848 3.023 7.824 7.152 7.824 4.031 0 7.103-2.88 7.103-7.824s-3.072-7.776-7.103-7.776c-4.129 0-7.152 2.928-7.152 7.776zm34.721 12.528c-7.151 0-12.191-5.376-12.191-12.72 0-7.104 4.944-12.336 11.903-12.336 6.817 0 11.473 4.704 11.473 11.856v2.208h-17.905c.241 3.744 2.784 6.432 6.672 6.432 3.6 0 5.473-1.968 6.384-3.936l4.369 2.448c-1.585 2.688-4.369 6.048-10.705 6.048zm-.336-20.496c-3.743 0-5.952 2.256-6.384 5.664h12.481c-.288-3.504-2.593-5.664-6.097-5.664zm15.789-3.84h5.136v3.312h.672c.96-2.496 2.88-3.408 5.952-3.408h2.544v4.608h-3.648c-3.168 0-5.424 1.728-5.424 5.28V342h-5.232v-23.664zm20.404-3.312c-2.208 0-3.888-1.536-3.888-3.744 0-2.256 1.68-3.792 3.888-3.792s3.888 1.536 3.888 3.792c0 2.208-1.68 3.744-3.888 3.744zm-2.592 3.312h5.232V342h-5.232v-23.664zm21.907 24.336c-7.152 0-12.192-5.376-12.192-12.72 0-7.104 4.944-12.336 11.904-12.336 6.816 0 11.472 4.704 11.472 11.856v2.208h-17.904c.24 3.744 2.784 6.432 6.672 6.432 3.6 0 5.472-1.968 6.384-3.936l4.368 2.448c-1.584 2.688-4.368 6.048-10.704 6.048zm-.336-20.496c-3.744 0-5.952 2.256-6.384 5.664h12.48c-.288-3.504-2.592-5.664-6.096-5.664zM435.992 342v-23.664h5.136v3.936h.672c1.056-2.256 3.312-4.368 7.776-4.368 5.232 0 9.264 3.648 9.264 9.888V342h-5.232v-13.728c0-3.696-2.16-5.712-5.808-5.712-4.128 0-6.576 2.544-6.576 7.296V342h-5.232zm39.348.672c-6.912 0-12.336-5.184-12.336-12.528s5.424-12.48 12.288-12.48c6.48 0 10.608 3.744 11.76 9.024l-5.184 1.296c-.48-3.168-2.64-5.616-6.48-5.616-4.032 0-7.104 3.168-7.104 7.776 0 4.656 2.88 7.824 7.104 7.824 3.936 0 5.856-2.304 6.48-5.616l5.232 1.248c-1.104 5.328-5.232 9.072-11.76 9.072zm26.715 0c-7.152 0-12.192-5.376-12.192-12.72 0-7.104 4.944-12.336 11.904-12.336 6.816 0 11.472 4.704 11.472 11.856v2.208h-17.904c.24 3.744 2.784 6.432 6.672 6.432 3.6 0 5.472-1.968 6.384-3.936l4.368 2.448c-1.584 2.688-4.368 6.048-10.704 6.048zm-.336-20.496c-3.744 0-5.952 2.256-6.384 5.664h12.48c-.288-3.504-2.592-5.664-6.096-5.664zm23.807 9.792c-5.424-.864-8.833-2.88-8.833-7.2s3.648-7.104 8.976-7.104c5.425 0 9.313 2.448 12 5.472l-3.599 3.12c-2.64-3.264-5.568-4.32-8.161-4.32-2.591 0-4.079 1.056-4.079 2.688 0 1.584 1.488 2.352 3.983 2.784l2.88.48c5.088.864 9.073 2.544 9.073 7.152 0 4.656-4.177 7.632-9.841 7.632-5.904 0-10.464-2.88-12.863-7.008l4.224-2.496c2.112 4.032 5.472 5.184 8.544 5.184 3.024 0 4.8-1.248 4.8-2.976s-1.536-2.448-4.224-2.928l-2.88-.48zm20.282 10.704c-2.4 0-4.176-1.728-4.176-4.176 0-2.4 1.776-4.128 4.176-4.128 2.352 0 4.128 1.728 4.128 4.128 0 2.448-1.776 4.176-4.128 4.176z" clip-rule="evenodd"/>
</svg>
