<svg xmlns="http://www.w3.org/2000/svg" width="960" height="245" fill="currentColor" viewBox="0 0 960 245">
  <path fill-rule="evenodd" d="M919 0c5.523 0 10 4.477 10 10v51c0 5.523-4.477 10-10 10H681c-5.523 0-10 4.477-10 10v25c0 5.523 4.477 10 10 10h269c5.523 0 10 4.477 10 10v51c0 5.523-4.477 10-10 10H774c-5.523 0-10 4.477-10 10v38c0 5.523-4.477 10-10 10H206c-5.523 0-10-4.477-10-10v-38c0-5.523-4.477-10-10-10H10c-5.523 0-10-4.477-10-10v-51c0-5.523 4.477-10 10-10h270c5.523 0 10-4.477 10-10V81c0-5.523-4.477-10-10-10H41c-5.523 0-10-4.477-10-10V10c0-5.523 4.477-10 10-10h878zM49.422 52V18.4h5.568V52h-5.568zm14.985-26.256c-2.304 0-4.08-1.584-4.08-3.888 0-2.496 1.776-4.176 4.176-4.176 2.352 0 4.128 1.68 4.128 4.08v5.712c0 2.352-1.728 4.032-4.08 4.032h-3.984v-2.928h3.36c.96 0 1.344-.432 1.344-1.296v-1.632c-.192.048-.48.096-.864.096zM73.89 52V28.336h5.136v3.456h.672c1.056-2.304 3.12-3.888 6.432-3.888 3.168 0 5.472 1.68 6.432 4.128h.672c1.152-2.4 3.264-4.128 6.96-4.128 4.464 0 7.872 3.264 7.872 8.16V52h-5.28V36.496c0-2.496-1.68-3.936-4.32-3.936-2.784 0-4.848 1.632-4.848 4.992V52h-5.28V36.496c0-2.496-1.728-3.936-4.368-3.936-2.736 0-4.848 1.632-4.848 4.992V52H73.89zm56.798-15.168l-4.32-2.544c1.824-2.928 5.232-6.672 11.568-6.672 6.288 0 10.512 3.696 10.512 9.408V52h-5.184v-3.552h-.672c-1.008 1.872-2.928 4.224-7.92 4.224-5.328 0-8.88-2.832-8.88-7.296 0-4.08 3.264-6.48 7.872-6.912l9.504-1.008v-.816c0-2.592-1.872-4.704-5.472-4.704-3.6 0-5.712 2.112-7.008 4.896zm4.416 5.328c-2.496.288-3.84 1.344-3.84 3.024 0 1.824 1.68 3.072 4.608 3.072 4.512 0 7.296-2.64 7.296-6.528v-.432l-8.064.864zM154.093 52V28.336h5.136v3.936h.672c1.056-2.256 3.312-4.368 7.776-4.368 5.232 0 9.264 3.648 9.264 9.888V52h-5.232V38.272c0-3.696-2.16-5.712-5.808-5.712-4.128 0-6.576 2.544-6.576 7.296V52h-5.232zm39.358 0l9.84-33.6h8.832l9.84 33.6h-5.712l-2.256-7.824h-12.528L199.211 52h-5.76zm13.968-28.896l-4.608 16.032h9.84l-4.656-16.032h-.576zm17.83-4.704h5.232V52h-5.232V18.4zm11.204 0h5.232V52h-5.232V18.4zm26.371 23.76h-14.208v-4.8h14.208v4.8zm21.406-23.712c6.24 0 10.704 3.984 10.704 10.32 0 5.184-3.12 8.784-7.584 9.936L294.406 52h-6.144l-6.528-12.912h-6.384V52h-5.568V18.448h14.448zm-.576 4.992h-8.304v10.608h8.304c3.504 0 5.712-2.016 5.712-5.28 0-3.264-2.208-5.328-5.712-5.328zm26.506 29.232c-7.056 0-12.336-5.088-12.336-12.528 0-7.392 5.28-12.48 12.336-12.48 7.008 0 12.288 5.088 12.288 12.48 0 7.44-5.28 12.528-12.288 12.528zm0-20.304c-4.272 0-7.056 3.168-7.056 7.776 0 4.704 2.784 7.824 7.056 7.824 4.224 0 7.008-3.168 7.008-7.824s-2.784-7.776-7.008-7.776zm39.321-4.032V52h-5.136v-3.984h-.672c-1.056 2.304-3.312 4.368-7.776 4.368-5.232 0-9.264-3.6-9.264-9.84V28.336h5.232v13.68c0 3.744 2.16 5.76 5.808 5.76 4.128 0 6.576-2.592 6.576-7.296V28.336h5.232zM355.421 52V28.336h5.136v3.936h.672c1.056-2.256 3.312-4.368 7.776-4.368 5.232 0 9.264 3.648 9.264 9.888V52h-5.232V38.272c0-3.696-2.16-5.712-5.808-5.712-4.128 0-6.576 2.544-6.576 7.296V52h-5.232zm46.548-33.6h5.232V52h-5.136v-3.6h-.672c-1.296 2.112-3.504 4.272-7.968 4.272-6.048 0-10.992-5.184-10.992-12.528s4.944-12.528 10.992-12.528c4.464 0 6.672 2.16 7.968 4.272h.576V18.4zm0 21.744c0-4.848-3.024-7.824-7.152-7.824-4.032 0-7.104 2.88-7.104 7.824s3.072 7.824 7.104 7.824c4.128 0 7.152-2.976 7.152-7.824zM426.813 52V18.4h11.184c8.928 0 13.776 4.368 13.776 13.584v6.432c0 9.216-4.848 13.584-13.776 13.584h-11.184zm11.232-28.56h-5.664v23.52h5.664c5.904 0 8.16-2.784 8.16-8.352v-6.816c0-5.568-2.304-8.352-8.16-8.352zm29.19 29.232c-7.152 0-12.192-5.376-12.192-12.72 0-7.104 4.944-12.336 11.904-12.336 6.816 0 11.472 4.704 11.472 11.856v2.208h-17.904c.24 3.744 2.784 6.432 6.672 6.432 3.6 0 5.472-1.968 6.384-3.936l4.368 2.448c-1.584 2.688-4.368 6.048-10.704 6.048zm-.336-20.496c-3.744 0-5.952 2.256-6.384 5.664h12.48c-.288-3.504-2.592-5.664-6.096-5.664zm23.806 9.792c-5.424-.864-8.832-2.88-8.832-7.2s3.648-7.104 8.976-7.104c5.424 0 9.312 2.448 12 5.472l-3.6 3.12c-2.64-3.264-5.568-4.32-8.16-4.32-2.592 0-4.08 1.056-4.08 2.688 0 1.584 1.488 2.352 3.984 2.784l2.88.48c5.088.864 9.072 2.544 9.072 7.152 0 4.656-4.176 7.632-9.84 7.632-5.904 0-10.464-2.88-12.864-7.008l4.224-2.496c2.112 4.032 5.472 5.184 8.544 5.184 3.024 0 4.8-1.248 4.8-2.976s-1.536-2.448-4.224-2.928l-2.88-.48zm19.371-16.944c-2.208 0-3.888-1.536-3.888-3.744 0-2.256 1.68-3.792 3.888-3.792s3.888 1.536 3.888 3.792c0 2.208-1.68 3.744-3.888 3.744zm-2.592 3.312h5.232V52h-5.232V28.336zm29.347 3.552v-3.552h5.136v22.8c0 6.528-4.608 11.136-12 11.136-6.432 0-10.032-2.976-12.432-6.672l4.512-2.736c1.296 2.544 3.744 4.848 7.584 4.848 4.08 0 7.104-2.208 7.104-6.816v-3.168h-.576C534.863 49.84 532.655 52 528.191 52c-6.048 0-10.992-5.04-10.992-12.192s4.944-12.144 10.992-12.144c4.464 0 6.672 2.112 7.968 4.224h.672zm-14.352 7.92c0 4.8 3.072 7.488 7.104 7.488 4.128 0 7.152-2.784 7.152-7.488 0-4.656-3.024-7.44-7.152-7.44-4.032 0-7.104 2.688-7.104 7.44zM547.937 52V28.336h5.136v3.936h.672c1.056-2.256 3.312-4.368 7.776-4.368 5.232 0 9.264 3.648 9.264 9.888V52h-5.232V38.272c0-3.696-2.16-5.712-5.808-5.712-4.128 0-6.576 2.544-6.576 7.296V52h-5.232zm39.204.672c-7.152 0-12.192-5.376-12.192-12.72 0-7.104 4.944-12.336 11.904-12.336 6.816 0 11.472 4.704 11.472 11.856v2.208h-17.904c.24 3.744 2.784 6.432 6.672 6.432 3.6 0 5.472-1.968 6.384-3.936l4.368 2.448c-1.584 2.688-4.368 6.048-10.704 6.048zm-.336-20.496c-3.744 0-5.952 2.256-6.384 5.664h12.48c-.288-3.504-2.592-5.664-6.096-5.664zm15.788-3.84h5.136v3.312h.672c.96-2.496 2.88-3.408 5.952-3.408h2.544v4.608h-3.648c-3.168 0-5.424 1.728-5.424 5.28V52h-5.232V28.336zM636.927 52l-4.992-23.664h5.28l3.36 19.008h.576l4.32-19.008h7.344l4.32 19.008h.576l3.36-19.008h5.28L661.359 52h-7.584l-4.32-19.056h-.576L644.511 52h-7.584zm33.307 0V18.4h5.232v13.872h.576c1.056-2.256 3.312-4.368 7.776-4.368 5.232 0 9.264 3.648 9.264 9.888V52h-5.232V38.272c0-3.696-2.16-5.712-5.808-5.712-4.128 0-6.576 2.544-6.576 7.296V52h-5.232zm39.348.672c-7.056 0-12.336-5.088-12.336-12.528 0-7.392 5.28-12.48 12.336-12.48 7.008 0 12.288 5.088 12.288 12.48 0 7.44-5.28 12.528-12.288 12.528zm0-20.304c-4.272 0-7.056 3.168-7.056 7.776 0 4.704 2.784 7.824 7.056 7.824 4.224 0 7.008-3.168 7.008-7.824s-2.784-7.776-7.008-7.776zM739.937 18.4h5.232V52h-5.232V18.4zm22.051 34.272c-7.056 0-12.336-5.088-12.336-12.528 0-7.392 5.28-12.48 12.336-12.48 7.008 0 12.288 5.088 12.288 12.48 0 7.44-5.28 12.528-12.288 12.528zm0-20.304c-4.272 0-7.056 3.168-7.056 7.776 0 4.704 2.784 7.824 7.056 7.824 4.224 0 7.008-3.168 7.008-7.824s-2.784-7.776-7.008-7.776zM784.185 52l-8.496-23.664h5.712l6.336 18.96h.576l6.336-18.96h5.712L791.913 52h-7.728zm29.784.672c-7.152 0-12.192-5.376-12.192-12.72 0-7.104 4.944-12.336 11.904-12.336 6.816 0 11.472 4.704 11.472 11.856v2.208h-17.904c.24 3.744 2.784 6.432 6.672 6.432 3.6 0 5.472-1.968 6.384-3.936l4.368 2.448c-1.584 2.688-4.368 6.048-10.704 6.048zm-.336-20.496c-3.744 0-5.952 2.256-6.384 5.664h12.48c-.288-3.504-2.592-5.664-6.096-5.664zm23.807 9.792c-5.424-.864-8.832-2.88-8.832-7.2s3.648-7.104 8.976-7.104c5.424 0 9.312 2.448 12 5.472l-3.6 3.12c-2.64-3.264-5.568-4.32-8.16-4.32-2.592 0-4.08 1.056-4.08 2.688 0 1.584 1.488 2.352 3.984 2.784l2.88.48c5.088.864 9.072 2.544 9.072 7.152 0 4.656-4.176 7.632-9.84 7.632-5.904 0-10.464-2.88-12.864-7.008l4.224-2.496c2.112 4.032 5.472 5.184 8.544 5.184 3.024 0 4.8-1.248 4.8-2.976s-1.536-2.448-4.224-2.928l-2.88-.48zm27.684-9.216v-4.416h6.48v-7.728h5.232v7.728h6.96v4.416h-6.96v13.344c0 .96.48 1.44 1.344 1.44h4.272V52h-6.528c-2.496 0-4.32-1.776-4.32-4.32V32.752h-6.48zm33.692 19.92c-7.056 0-12.336-5.088-12.336-12.528 0-7.392 5.28-12.48 12.336-12.48 7.008 0 12.288 5.088 12.288 12.48 0 7.44-5.28 12.528-12.288 12.528zm0-20.304c-4.272 0-7.056 3.168-7.056 7.776 0 4.704 2.784 7.824 7.056 7.824 4.224 0 7.008-3.168 7.008-7.824s-2.784-7.776-7.008-7.776zm-581.478 67.6c-5.424-.864-8.832-2.88-8.832-7.2s3.648-7.104 8.976-7.104c5.424 0 9.312 2.448 12 5.472l-3.6 3.12c-2.64-3.264-5.568-4.32-8.16-4.32-2.592 0-4.08 1.056-4.08 2.688 0 1.584 1.488 2.352 3.984 2.784l2.88.48c5.088.864 9.072 2.544 9.072 7.152 0 4.656-4.176 7.632-9.84 7.632-5.904 0-10.464-2.88-12.864-7.008l4.224-2.496c2.112 4.032 5.472 5.184 8.544 5.184 3.024 0 4.8-1.248 4.8-2.976s-1.536-2.448-4.224-2.928l-2.88-.48zm27.627 10.704c-7.056 0-12.336-5.088-12.336-12.528 0-7.392 5.28-12.48 12.336-12.48 7.008 0 12.288 5.088 12.288 12.48 0 7.44-5.28 12.528-12.288 12.528zm0-20.304c-4.272 0-7.056 3.168-7.056 7.776 0 4.704 2.784 7.824 7.056 7.824 4.224 0 7.008-3.168 7.008-7.824s-2.784-7.776-7.008-7.776zM361.726 76.4h5.232V110h-5.232V76.4zm17.107 33.6l-8.496-23.664h5.712l6.336 18.96h.576l6.336-18.96h5.712L386.561 110h-7.728zm29.784.672c-7.151 0-12.191-5.376-12.191-12.72 0-7.104 4.944-12.336 11.903-12.336 6.817 0 11.473 4.704 11.473 11.856v2.208h-17.905c.241 3.744 2.784 6.432 6.672 6.432 3.6 0 5.473-1.968 6.384-3.936l4.369 2.448c-1.585 2.688-4.369 6.048-10.705 6.048zm-.336-20.496c-3.743 0-5.952 2.256-6.384 5.664h12.481c-.288-3.504-2.593-5.664-6.097-5.664zm34.615 29.424h-5.232V86.336h5.135v3.552h.672c1.296-2.112 3.504-4.224 7.969-4.224 6.047 0 10.991 5.184 10.991 12.48 0 7.344-4.944 12.528-10.991 12.528-4.465 0-6.673-2.112-7.969-4.272h-.575v13.2zm0-21.456c0 4.848 3.023 7.824 7.152 7.824 4.031 0 7.103-2.88 7.103-7.824s-3.072-7.776-7.103-7.776c-4.129 0-7.152 2.928-7.152 7.776zm24.018-11.808h5.135v3.312h.672c.96-2.496 2.881-3.408 5.952-3.408h2.544v4.608h-3.648c-3.168 0-5.423 1.728-5.423 5.28V110h-5.232V86.336zm27.816 24.336c-7.056 0-12.336-5.088-12.336-12.528 0-7.392 5.28-12.48 12.336-12.48 7.008 0 12.288 5.088 12.288 12.48 0 7.44-5.28 12.528-12.288 12.528zm0-20.304c-4.272 0-7.056 3.168-7.056 7.776 0 4.704 2.784 7.824 7.056 7.824 4.224 0 7.008-3.168 7.008-7.824s-2.784-7.776-7.008-7.776zM511.492 110V76.4h5.232v13.488h.576c1.296-2.112 3.504-4.224 7.968-4.224 6.048 0 10.992 5.184 10.992 12.48 0 7.344-4.944 12.528-10.992 12.528-4.464 0-6.672-2.112-7.968-4.272h-.672v3.6h-5.136zm19.488-11.856c0-4.944-3.072-7.776-7.104-7.776-4.128 0-7.152 2.928-7.152 7.776s3.024 7.824 7.152 7.824c4.032 0 7.104-2.88 7.104-7.824zm9.762-21.744h5.232V110h-5.232V76.4zm21.907 34.272c-7.152 0-12.192-5.376-12.192-12.72 0-7.104 4.944-12.336 11.904-12.336 6.816 0 11.472 4.704 11.472 11.856v2.208h-17.904c.24 3.744 2.784 6.432 6.672 6.432 3.6 0 5.472-1.968 6.384-3.936l4.368 2.448c-1.584 2.688-4.368 6.048-10.704 6.048zm-.336-20.496c-3.744 0-5.952 2.256-6.384 5.664h12.48c-.288-3.504-2.592-5.664-6.096-5.664zM578.101 110V86.336h5.136v3.456h.672c1.056-2.304 3.12-3.888 6.432-3.888 3.168 0 5.472 1.68 6.432 4.128h.672c1.152-2.4 3.264-4.128 6.96-4.128 4.464 0 7.872 3.264 7.872 8.16V110h-5.28V94.496c0-2.496-1.68-3.936-4.32-3.936-2.784 0-4.848 1.632-4.848 4.992V110h-5.28V94.496c0-2.496-1.728-3.936-4.368-3.936-2.736 0-4.848 1.632-4.848 4.992V110h-5.232zm47.956-10.032c-5.424-.864-8.832-2.88-8.832-7.2s3.648-7.104 8.976-7.104c5.424 0 9.312 2.448 12 5.472l-3.6 3.12c-2.64-3.264-5.568-4.32-8.16-4.32-2.592 0-4.08 1.056-4.08 2.688 0 1.584 1.488 2.352 3.984 2.784l2.88.48c5.088.864 9.072 2.544 9.072 7.152 0 4.656-4.176 7.632-9.84 7.632-5.904 0-10.464-2.88-12.864-7.008l4.224-2.496c2.112 4.032 5.472 5.184 8.544 5.184 3.024 0 4.8-1.248 4.8-2.976s-1.536-2.448-4.224-2.928l-2.88-.48zm20.282-6.144c-2.4 0-4.176-1.728-4.176-4.176 0-2.4 1.776-4.128 4.176-4.128 2.352 0 4.128 1.728 4.128 4.128 0 2.448-1.776 4.176-4.128 4.176zm-.096 16.656c-2.304 0-4.08-1.632-4.08-3.936 0-2.448 1.776-4.176 4.176-4.176 2.352 0 4.128 1.728 4.128 4.128v5.664c0 2.352-1.728 4.08-4.08 4.08h-3.984v-2.976h3.36c.96 0 1.344-.384 1.344-1.296v-1.584c-.192.048-.48.096-.864.096zM18.766 168v-33.6h5.568V168h-5.568zm36.019.672c-6.912 0-12.336-5.184-12.336-12.528s5.424-12.48 12.288-12.48c6.48 0 10.608 3.744 11.76 9.024l-5.184 1.296c-.48-3.168-2.64-5.616-6.48-5.616-4.032 0-7.104 3.168-7.104 7.776 0 4.656 2.88 7.824 7.104 7.824 3.936 0 5.856-2.304 6.48-5.616l5.232 1.248c-1.104 5.328-5.232 9.072-11.76 9.072zm26.86 0c-7.057 0-12.337-5.088-12.337-12.528 0-7.392 5.28-12.48 12.336-12.48 7.008 0 12.288 5.088 12.288 12.48 0 7.44-5.28 12.528-12.288 12.528zm0-20.304c-4.273 0-7.057 3.168-7.057 7.776 0 4.704 2.784 7.824 7.056 7.824 4.224 0 7.008-3.168 7.008-7.824s-2.784-7.776-7.008-7.776zM98.404 168v-23.664h5.137v3.456h.672c1.056-2.304 3.12-3.888 6.432-3.888 3.168 0 5.472 1.68 6.432 4.128h.672c1.152-2.4 3.264-4.128 6.96-4.128 4.464 0 7.872 3.264 7.872 8.16V168h-5.28v-15.504c0-2.496-1.68-3.936-4.32-3.936-2.784 0-4.848 1.632-4.848 4.992V168h-5.28v-15.504c0-2.496-1.728-3.936-4.368-3.936-2.736 0-4.848 1.632-4.848 4.992V168h-5.232zm39.844 0v-33.6h5.232v13.488h.576c1.296-2.112 3.504-4.224 7.968-4.224 6.048 0 10.992 5.184 10.992 12.48 0 7.344-4.944 12.528-10.992 12.528-4.464 0-6.672-2.112-7.968-4.272h-.672v3.6h-5.136zm19.488-11.856c0-4.944-3.072-7.776-7.104-7.776-4.128 0-7.152 2.928-7.152 7.776s3.024 7.824 7.152 7.824c4.032 0 7.104-2.88 7.104-7.824zm12.354-15.12c-2.208 0-3.888-1.536-3.888-3.744 0-2.256 1.68-3.792 3.888-3.792s3.888 1.536 3.888 3.792c0 2.208-1.68 3.744-3.888 3.744zm-2.592 3.312h5.232V168h-5.232v-23.664zM178.703 168v-23.664h5.136v3.936h.672c1.056-2.256 3.312-4.368 7.776-4.368 5.232 0 9.264 3.648 9.264 9.888V168h-5.232v-13.728c0-3.696-2.16-5.712-5.808-5.712-4.128 0-6.576 2.544-6.576 7.296V168h-5.232zm39.204.672c-7.152 0-12.192-5.376-12.192-12.72 0-7.104 4.944-12.336 11.904-12.336 6.816 0 11.472 4.704 11.472 11.856v2.208h-17.904c.24 3.744 2.784 6.432 6.672 6.432 3.6 0 5.472-1.968 6.384-3.936l4.368 2.448c-1.584 2.688-4.368 6.048-10.704 6.048zm-.336-20.496c-3.744 0-5.952 2.256-6.384 5.664h12.48c-.288-3.504-2.592-5.664-6.096-5.664zm47.43-13.776h5.232V168h-5.136v-3.6h-.672c-1.296 2.112-3.504 4.272-7.968 4.272-6.048 0-10.992-5.184-10.992-12.528s4.944-12.528 10.992-12.528c4.464 0 6.672 2.16 7.968 4.272h.576V134.4zm0 21.744c0-4.848-3.024-7.824-7.152-7.824-4.032 0-7.104 2.88-7.104 7.824s3.072 7.824 7.104 7.824c4.128 0 7.152-2.976 7.152-7.824zm21.906 12.528c-7.152 0-12.192-5.376-12.192-12.72 0-7.104 4.944-12.336 11.904-12.336 6.816 0 11.472 4.704 11.472 11.856v2.208h-17.904c.24 3.744 2.784 6.432 6.672 6.432 3.6 0 5.472-1.968 6.384-3.936l4.368 2.448c-1.584 2.688-4.368 6.048-10.704 6.048zm-.336-20.496c-3.744 0-5.952 2.256-6.384 5.664h12.48c-.288-3.504-2.592-5.664-6.096-5.664zm23.806 9.792c-5.424-.864-8.832-2.88-8.832-7.2s3.648-7.104 8.976-7.104c5.424 0 9.312 2.448 12 5.472l-3.6 3.12c-2.64-3.264-5.568-4.32-8.16-4.32-2.592 0-4.08 1.056-4.08 2.688 0 1.584 1.488 2.352 3.984 2.784l2.88.48c5.088.864 9.072 2.544 9.072 7.152 0 4.656-4.176 7.632-9.84 7.632-5.904 0-10.464-2.88-12.864-7.008l4.224-2.496c2.112 4.032 5.472 5.184 8.544 5.184 3.024 0 4.8-1.248 4.8-2.976s-1.536-2.448-4.224-2.928l-2.88-.48zm19.371-16.944c-2.208 0-3.888-1.536-3.888-3.744 0-2.256 1.68-3.792 3.888-3.792s3.888 1.536 3.888 3.792c0 2.208-1.68 3.744-3.888 3.744zm-2.592 3.312h5.232V168h-5.232v-23.664zm29.347 3.552v-3.552h5.136v22.8c0 6.528-4.608 11.136-12 11.136-6.432 0-10.032-2.976-12.432-6.672l4.512-2.736c1.296 2.544 3.744 4.848 7.584 4.848 4.08 0 7.104-2.208 7.104-6.816v-3.168h-.576c-1.296 2.112-3.504 4.272-7.968 4.272-6.048 0-10.992-5.04-10.992-12.192s4.944-12.144 10.992-12.144c4.464 0 6.672 2.112 7.968 4.224h.672zm-14.352 7.92c0 4.8 3.072 7.488 7.104 7.488 4.128 0 7.152-2.784 7.152-7.488 0-4.656-3.024-7.44-7.152-7.44-4.032 0-7.104 2.688-7.104 7.44zM367.609 168v-23.664h5.136v3.936h.672c1.056-2.256 3.312-4.368 7.776-4.368 5.232 0 9.264 3.648 9.264 9.888V168h-5.232v-13.728c0-3.696-2.16-5.712-5.808-5.712-4.128 0-6.576 2.544-6.576 7.296V168h-5.232zm45.454-15.168l-4.32-2.544c1.824-2.928 5.232-6.672 11.568-6.672 6.288 0 10.512 3.696 10.512 9.408V168h-5.184v-3.552h-.672c-1.008 1.872-2.928 4.224-7.92 4.224-5.328 0-8.88-2.832-8.88-7.296 0-4.08 3.264-6.48 7.872-6.912l9.504-1.008v-.816c0-2.592-1.872-4.704-5.472-4.704-3.6 0-5.712 2.112-7.008 4.896zm4.416 5.328c-2.496.288-3.84 1.344-3.84 3.024 0 1.824 1.68 3.072 4.608 3.072 4.512 0 7.296-2.64 7.296-6.528v-.432l-8.064.864zm18.989 9.84v-23.664h5.136v3.936h.672c1.056-2.256 3.312-4.368 7.776-4.368 5.232 0 9.264 3.648 9.264 9.888V168h-5.232v-13.728c0-3.696-2.16-5.712-5.808-5.712-4.128 0-6.576 2.544-6.576 7.296V168h-5.232zm46.548-33.6h5.232V168h-5.136v-3.6h-.672c-1.296 2.112-3.504 4.272-7.968 4.272-6.048 0-10.992-5.184-10.992-12.528s4.944-12.528 10.992-12.528c4.464 0 6.672 2.16 7.968 4.272h.576V134.4zm0 21.744c0-4.848-3.024-7.824-7.152-7.824-4.032 0-7.104 2.88-7.104 7.824s3.072 7.824 7.104 7.824c4.128 0 7.152-2.976 7.152-7.824zm22.108-7.392v-4.416h6.48v-7.728h5.232v7.728h6.96v4.416h-6.96v13.344c0 .96.48 1.44 1.344 1.44h4.272V168h-6.528c-2.496 0-4.32-1.776-4.32-4.32v-14.928h-6.48zm33.548 19.92c-7.152 0-12.192-5.376-12.192-12.72 0-7.104 4.944-12.336 11.904-12.336 6.816 0 11.472 4.704 11.472 11.856v2.208h-17.904c.24 3.744 2.784 6.432 6.672 6.432 3.6 0 5.472-1.968 6.384-3.936l4.368 2.448c-1.584 2.688-4.368 6.048-10.704 6.048zm-.336-20.496c-3.744 0-5.952 2.256-6.384 5.664h12.48c-.288-3.504-2.592-5.664-6.096-5.664zm26.636 20.496c-6.912 0-12.336-5.184-12.336-12.528s5.424-12.48 12.288-12.48c6.48 0 10.608 3.744 11.76 9.024l-5.184 1.296c-.48-3.168-2.64-5.616-6.48-5.616-4.032 0-7.104 3.168-7.104 7.776 0 4.656 2.88 7.824 7.104 7.824 3.936 0 5.856-2.304 6.48-5.616l5.232 1.248c-1.104 5.328-5.232 9.072-11.76 9.072zm16.012-.672v-33.6h5.232v13.872h.576c1.056-2.256 3.312-4.368 7.776-4.368 5.232 0 9.264 3.648 9.264 9.888V168H598.6v-13.728c0-3.696-2.16-5.712-5.808-5.712-4.128 0-6.576 2.544-6.576 7.296V168h-5.232zm28.5 0v-23.664h5.136v3.936h.672c1.056-2.256 3.312-4.368 7.776-4.368 5.232 0 9.264 3.648 9.264 9.888V168H627.1v-13.728c0-3.696-2.16-5.712-5.808-5.712-4.128 0-6.576 2.544-6.576 7.296V168h-5.232zm39.348.672c-7.056 0-12.336-5.088-12.336-12.528 0-7.392 5.28-12.48 12.336-12.48 7.008 0 12.288 5.088 12.288 12.48 0 7.44-5.28 12.528-12.288 12.528zm0-20.304c-4.272 0-7.056 3.168-7.056 7.776 0 4.704 2.784 7.824 7.056 7.824 4.224 0 7.008-3.168 7.008-7.824s-2.784-7.776-7.008-7.776zm16.761-13.968h5.232V168h-5.232v-33.6zm22.051 34.272c-7.056 0-12.336-5.088-12.336-12.528 0-7.392 5.28-12.48 12.336-12.48 7.008 0 12.288 5.088 12.288 12.48 0 7.44-5.28 12.528-12.288 12.528zm0-20.304c-4.272 0-7.056 3.168-7.056 7.776 0 4.704 2.784 7.824 7.056 7.824 4.224 0 7.008-3.168 7.008-7.824s-2.784-7.776-7.008-7.776zm34.906-.48v-3.552h5.136v22.8c0 6.528-4.608 11.136-12 11.136-6.432 0-10.032-2.976-12.432-6.672l4.512-2.736c1.296 2.544 3.744 4.848 7.584 4.848 4.08 0 7.104-2.208 7.104-6.816v-3.168h-.576c-1.296 2.112-3.504 4.272-7.968 4.272-6.048 0-10.992-5.04-10.992-12.192s4.944-12.144 10.992-12.144c4.464 0 6.672 2.112 7.968 4.224h.672zm-14.352 7.92c0 4.8 3.072 7.488 7.104 7.488 4.128 0 7.152-2.784 7.152-7.488 0-4.656-3.024-7.44-7.152-7.44-4.032 0-7.104 2.688-7.104 7.44zm35.922 6.24l6.768-17.712h5.712L743.208 177.6h-5.712l3.552-8.352-9.984-24.912h5.712l6.768 17.712h.576zm26.738-13.296v-4.416h6.48v-7.728h5.232v7.728h6.96v4.416h-6.96v13.344c0 .96.48 1.44 1.344 1.44h4.272V168h-6.528c-2.496 0-4.32-1.776-4.32-4.32v-14.928h-6.48zm33.693 19.92c-7.056 0-12.336-5.088-12.336-12.528 0-7.392 5.28-12.48 12.336-12.48 7.008 0 12.288 5.088 12.288 12.48 0 7.44-5.28 12.528-12.288 12.528zm0-20.304c-4.272 0-7.056 3.168-7.056 7.776 0 4.704 2.784 7.824 7.056 7.824 4.224 0 7.008-3.168 7.008-7.824s-2.784-7.776-7.008-7.776zm41.203 20.304c-6.912 0-12.336-5.184-12.336-12.528s5.424-12.48 12.288-12.48c6.48 0 10.608 3.744 11.76 9.024l-5.184 1.296c-.48-3.168-2.64-5.616-6.48-5.616-4.032 0-7.104 3.168-7.104 7.776 0 4.656 2.88 7.824 7.104 7.824 3.936 0 5.856-2.304 6.48-5.616l5.232 1.248c-1.104 5.328-5.232 9.072-11.76 9.072zm16.011-24.336h5.136v3.312h.672c.96-2.496 2.88-3.408 5.952-3.408h2.544v4.608h-3.648c-3.168 0-5.424 1.728-5.424 5.28V168h-5.232v-23.664zm20.938 8.496l-4.32-2.544c1.824-2.928 5.232-6.672 11.568-6.672 6.288 0 10.512 3.696 10.512 9.408V168h-5.184v-3.552h-.672c-1.008 1.872-2.928 4.224-7.92 4.224-5.328 0-8.88-2.832-8.88-7.296 0-4.08 3.264-6.48 7.872-6.912l9.504-1.008v-.816c0-2.592-1.872-4.704-5.472-4.704-3.6 0-5.712 2.112-7.008 4.896zm4.416 5.328c-2.496.288-3.84 1.344-3.84 3.024 0 1.824 1.68 3.072 4.608 3.072 4.512 0 7.296-2.64 7.296-6.528v-.432l-8.064.864zm16.409-9.408v-4.416h6.432v-5.424c0-2.592 1.824-4.512 4.464-4.512h6.192v4.368h-4.032c-.864 0-1.344.48-1.344 1.44v4.128h6.624v4.416h-6.624V168h-5.28v-19.248h-6.432zm19.627 0v-4.416h6.48v-7.728h5.232v7.728h6.96v4.416h-6.96v13.344c0 .96.48 1.44 1.344 1.44h4.272V168h-6.528c-2.496 0-4.32-1.776-4.32-4.32v-14.928h-6.48zm-705.696 50.272c-2.208 0-3.888-1.536-3.888-3.744 0-2.256 1.68-3.792 3.888-3.792s3.888 1.536 3.888 3.792c0 2.208-1.68 3.744-3.888 3.744zm-2.592 3.312h5.232V226h-5.232v-23.664zM226.07 226v-23.664h5.136v3.936h.672c1.056-2.256 3.312-4.368 7.776-4.368 5.232 0 9.264 3.648 9.264 9.888V226h-5.232v-13.728c0-3.696-2.16-5.712-5.808-5.712-4.128 0-6.576 2.544-6.576 7.296V226h-5.232zm25.343-19.248v-4.416h6.48v-7.728h5.232v7.728h6.96v4.416h-6.96v13.344c0 .96.48 1.44 1.344 1.44h4.272V226h-6.528c-2.496 0-4.32-1.776-4.32-4.32v-14.928h-6.48zm33.548 19.92c-7.152 0-12.192-5.376-12.192-12.72 0-7.104 4.944-12.336 11.904-12.336 6.816 0 11.472 4.704 11.472 11.856v2.208h-17.904c.24 3.744 2.784 6.432 6.672 6.432 3.6 0 5.472-1.968 6.384-3.936l4.368 2.448c-1.584 2.688-4.368 6.048-10.704 6.048zm-.336-20.496c-3.744 0-5.952 2.256-6.384 5.664h12.48c-.288-3.504-2.592-5.664-6.096-5.664zm15.789-3.84h5.135v3.312h.672c.96-2.496 2.881-3.408 5.952-3.408h2.544v4.608h-3.648c-3.168 0-5.423 1.728-5.423 5.28V226h-5.232v-23.664zm20.938 8.496l-4.32-2.544c1.824-2.928 5.232-6.672 11.568-6.672 6.288 0 10.512 3.696 10.512 9.408V226h-5.184v-3.552h-.672c-1.008 1.872-2.928 4.224-7.92 4.224-5.328 0-8.88-2.832-8.88-7.296 0-4.08 3.264-6.48 7.872-6.912l9.504-1.008v-.816c0-2.592-1.872-4.704-5.472-4.704-3.6 0-5.712 2.112-7.008 4.896zm4.416 5.328c-2.496.288-3.84 1.344-3.84 3.024 0 1.824 1.68 3.072 4.608 3.072 4.512 0 7.296-2.64 7.296-6.528v-.432l-8.064.864zm29.837 10.512c-6.912 0-12.336-5.184-12.336-12.528s5.424-12.48 12.288-12.48c6.48 0 10.608 3.744 11.76 9.024l-5.184 1.296c-.48-3.168-2.64-5.616-6.48-5.616-4.032 0-7.104 3.168-7.104 7.776 0 4.656 2.88 7.824 7.104 7.824 3.936 0 5.856-2.304 6.48-5.616l5.232 1.248c-1.104 5.328-5.232 9.072-11.76 9.072zm13.089-19.92v-4.416h6.48v-7.728h5.232v7.728h6.96v4.416h-6.96v13.344c0 .96.48 1.44 1.344 1.44h4.272V226h-6.528c-2.496 0-4.32-1.776-4.32-4.32v-14.928h-6.48zm25.671-7.728c-2.208 0-3.888-1.536-3.888-3.744 0-2.256 1.68-3.792 3.888-3.792s3.888 1.536 3.888 3.792c0 2.208-1.68 3.744-3.888 3.744zm-2.592 3.312h5.232V226h-5.232v-23.664zM408.88 226l-8.496-23.664h5.712l6.336 18.96h.576l6.336-18.96h5.712L416.608 226h-7.728zm29.784.672c-7.152 0-12.192-5.376-12.192-12.72 0-7.104 4.944-12.336 11.904-12.336 6.816 0 11.472 4.704 11.472 11.856v2.208h-17.904c.24 3.744 2.784 6.432 6.672 6.432 3.6 0 5.472-1.968 6.384-3.936l4.368 2.448c-1.584 2.688-4.368 6.048-10.704 6.048zm-.336-20.496c-3.744 0-5.952 2.256-6.384 5.664h12.48c-.288-3.504-2.592-5.664-6.096-5.664zm40.086 20.496c-7.152 0-12.192-5.376-12.192-12.72 0-7.104 4.944-12.336 11.904-12.336 6.816 0 11.472 4.704 11.472 11.856v2.208h-17.904c.24 3.744 2.784 6.432 6.672 6.432 3.6 0 5.472-1.968 6.384-3.936l4.368 2.448c-1.584 2.688-4.368 6.048-10.704 6.048zm-.336-20.496c-3.744 0-5.952 2.256-6.384 5.664h12.48c-.288-3.504-2.592-5.664-6.096-5.664zM499.649 214l-8.544-11.664h6.192l6.048 8.448h.576l6.048-8.448h6.192L507.617 214l8.688 12h-6.288l-6.096-8.688h-.576L497.249 226h-6.288l8.688-12zm25.887 21.6h-5.232v-33.264h5.136v3.552h.672c1.296-2.112 3.504-4.224 7.968-4.224 6.048 0 10.992 5.184 10.992 12.48 0 7.344-4.944 12.528-10.992 12.528-4.464 0-6.672-2.112-7.968-4.272h-.576v13.2zm0-21.456c0 4.848 3.024 7.824 7.152 7.824 4.032 0 7.104-2.88 7.104-7.824s-3.072-7.776-7.104-7.776c-4.128 0-7.152 2.928-7.152 7.776zm34.722 12.528c-7.152 0-12.192-5.376-12.192-12.72 0-7.104 4.944-12.336 11.904-12.336 6.816 0 11.472 4.704 11.472 11.856v2.208h-17.904c.24 3.744 2.784 6.432 6.672 6.432 3.6 0 5.472-1.968 6.384-3.936l4.368 2.448c-1.584 2.688-4.368 6.048-10.704 6.048zm-.336-20.496c-3.744 0-5.952 2.256-6.384 5.664h12.48c-.288-3.504-2.592-5.664-6.096-5.664zm15.788-3.84h5.136v3.312h.672c.96-2.496 2.88-3.408 5.952-3.408h2.544v4.608h-3.648c-3.168 0-5.424 1.728-5.424 5.28V226h-5.232v-23.664zm20.405-3.312c-2.208 0-3.888-1.536-3.888-3.744 0-2.256 1.68-3.792 3.888-3.792s3.888 1.536 3.888 3.792c0 2.208-1.68 3.744-3.888 3.744zm-2.592 3.312h5.232V226h-5.232v-23.664zm21.907 24.336c-7.152 0-12.192-5.376-12.192-12.72 0-7.104 4.944-12.336 11.904-12.336 6.816 0 11.472 4.704 11.472 11.856v2.208H608.71c.24 3.744 2.784 6.432 6.672 6.432 3.6 0 5.472-1.968 6.384-3.936l4.368 2.448c-1.584 2.688-4.368 6.048-10.704 6.048zm-.336-20.496c-3.744 0-5.952 2.256-6.384 5.664h12.48c-.288-3.504-2.592-5.664-6.096-5.664zM630.882 226v-23.664h5.136v3.936h.672c1.056-2.256 3.312-4.368 7.776-4.368 5.232 0 9.264 3.648 9.264 9.888V226h-5.232v-13.728c0-3.696-2.16-5.712-5.808-5.712-4.128 0-6.576 2.544-6.576 7.296V226h-5.232zm39.348.672c-6.912 0-12.336-5.184-12.336-12.528s5.424-12.48 12.288-12.48c6.48 0 10.608 3.744 11.76 9.024l-5.184 1.296c-.48-3.168-2.64-5.616-6.48-5.616-4.032 0-7.104 3.168-7.104 7.776 0 4.656 2.88 7.824 7.104 7.824 3.936 0 5.856-2.304 6.48-5.616l5.232 1.248c-1.104 5.328-5.232 9.072-11.76 9.072zm26.716 0c-7.152 0-12.192-5.376-12.192-12.72 0-7.104 4.944-12.336 11.904-12.336 6.816 0 11.472 4.704 11.472 11.856v2.208h-17.904c.24 3.744 2.784 6.432 6.672 6.432 3.6 0 5.472-1.968 6.384-3.936l4.368 2.448c-1.584 2.688-4.368 6.048-10.704 6.048zm-.336-20.496c-3.744 0-5.952 2.256-6.384 5.664h12.48c-.288-3.504-2.592-5.664-6.096-5.664zm23.806 9.792c-5.424-.864-8.832-2.88-8.832-7.2s3.648-7.104 8.976-7.104c5.424 0 9.312 2.448 12 5.472l-3.6 3.12c-2.64-3.264-5.568-4.32-8.16-4.32-2.592 0-4.08 1.056-4.08 2.688 0 1.584 1.488 2.352 3.984 2.784l2.88.48c5.088.864 9.072 2.544 9.072 7.152 0 4.656-4.176 7.632-9.84 7.632-5.904 0-10.464-2.88-12.864-7.008l4.224-2.496c2.112 4.032 5.472 5.184 8.544 5.184 3.024 0 4.8-1.248 4.8-2.976s-1.536-2.448-4.224-2.928l-2.88-.48zm20.283 10.704c-2.4 0-4.176-1.728-4.176-4.176 0-2.4 1.776-4.128 4.176-4.128 2.352 0 4.128 1.728 4.128 4.128 0 2.448-1.776 4.176-4.128 4.176z" clip-rule="evenodd"/>
</svg>
