<svg xmlns="http://www.w3.org/2000/svg" width="97" height="31" fill="currentColor" viewBox="0 0 97 31">
  <path fill-rule="evenodd" d="M97 9v14a3 3 0 01-3 3H50.5a2.5 2.5 0 00-2.5 2.5 2.5 2.5 0 01-2.5 2.5h-9a2.5 2.5 0 01-2.5-2.5 2.5 2.5 0 00-2.5-2.5h-18a2.5 2.5 0 00-2.5 2.5A2.5 2.5 0 018.5 31H3a3 3 0 01-3-3V9a3 3 0 013-3h30a3 3 0 003-3 3 3 0 013-3h7a3 3 0 013 3 3 3 0 003 3h15.5A2.5 2.5 0 0070 3.5 2.5 2.5 0 0172.5 1h7A2.5 2.5 0 0182 3.5 2.5 2.5 0 0084.5 6H94a3 3 0 013 3zm-54.434-.296c-1.2 0-2.136-.84-2.136-2.064 0-1.224.936-2.064 2.136-2.064 1.2 0 2.136.84 2.136 2.064 0 1.224-.936 2.064-2.136 2.064zm-1.512 14.832v-13.44h3.024v14.4c0 1.344-1.008 2.304-2.352 2.304h-3.408v-2.544h2.064c.432 0 .672-.24.672-.72zM7.068 26.8H4.044V10.096H7.02v1.68h.336c.624-1.008 1.68-2.016 3.792-2.016 2.976 0 5.472 2.64 5.472 6.288s-2.496 6.288-5.472 6.288c-2.112 0-3.168-1.008-3.792-2.016h-.288v6.48zm0-10.752c0 2.256 1.392 3.6 3.264 3.6 1.824 0 3.264-1.296 3.264-3.6 0-2.304-1.44-3.6-3.264-3.6-1.872 0-3.264 1.344-3.264 3.6zm11.53-5.952h2.977v1.728h.336c.456-1.32 1.464-1.776 2.976-1.776h1.152v2.64h-1.776c-1.536 0-2.64.816-2.64 2.496V22h-3.024V10.096zm7.906 5.952c0 3.744 2.736 6.288 6.24 6.288s6.24-2.544 6.24-6.288-2.736-6.288-6.24-6.288-6.24 2.544-6.24 6.288zm3.024 0c0-2.16 1.296-3.6 3.216-3.6 1.92 0 3.216 1.44 3.216 3.6s-1.296 3.6-3.216 3.6c-1.92 0-3.216-1.44-3.216-3.6zm16.523-.096c0 3.696 2.568 6.384 6.12 6.384 3.192 0 4.584-1.68 5.4-2.928l-2.472-1.44c-.408.84-1.296 1.776-2.976 1.776-1.728 0-2.856-1.224-2.976-2.856h8.664V15.76c0-3.576-2.328-6-5.784-6-3.504 0-5.976 2.592-5.976 6.192zm3.12-1.08c.192-1.512 1.128-2.52 2.832-2.52 1.56 0 2.568.96 2.736 2.52H49.17zm15.986 7.464c-3.456 0-6.192-2.592-6.192-6.288S61.7 9.76 65.157 9.76c3.312 0 5.376 1.848 6 4.56l-2.976.768c-.216-1.44-1.152-2.64-2.976-2.64s-3.216 1.44-3.216 3.6 1.272 3.6 3.216 3.6c1.824 0 2.664-1.056 2.976-2.616l2.976.744c-.576 2.712-2.664 4.56-6 4.56zm6.498-12.24v2.544h3.024v7.056c0 1.344 1.008 2.304 2.352 2.304h3.264v-2.544h-1.92c-.432 0-.672-.24-.672-.72V12.64h3.264v-2.544h-3.264V6.4H74.68v3.696h-3.024zm15.55 7.032c-2.784-.456-4.535-1.488-4.535-3.696s1.8-3.672 4.535-3.672c2.785 0 4.752 1.272 6.12 2.712l-2.04 1.8c-1.367-1.584-2.736-2.064-3.935-2.064-1.2 0-1.752.48-1.752 1.128 0 .648.6.984 1.728 1.176l1.44.24c2.591.432 4.631 1.32 4.631 3.672 0 2.352-2.112 3.912-5.04 3.912-3.072 0-5.328-1.56-6.528-3.456l2.377-1.464c1.08 1.92 2.663 2.472 4.103 2.472 1.392 0 2.16-.552 2.16-1.272s-.623-1.056-1.823-1.248l-1.44-.24z" clip-rule="evenodd"/>
</svg>
