<svg xmlns="http://www.w3.org/2000/svg" width="97" height="31" fill="none" viewBox="0 0 97 31">
  <path fill="#EEE" d="M97 23V9a3 3 0 00-3-3h-9.5A2.5 2.5 0 0182 3.5 2.5 2.5 0 0079.5 1h-7A2.5 2.5 0 0070 3.5 2.5 2.5 0 0167.5 6H52a3 3 0 01-3-3 3 3 0 00-3-3h-7a3 3 0 00-3 3 3 3 0 01-3 3H3a3 3 0 00-3 3v19a3 3 0 003 3h5.5a2.5 2.5 0 002.5-2.5 2.5 2.5 0 012.5-2.5h18a2.5 2.5 0 012.5 2.5 2.5 2.5 0 002.5 2.5h9a2.5 2.5 0 002.5-2.5 2.5 2.5 0 012.5-2.5H94a3 3 0 003-3z"/>
  <path fill="#18191A" d="M4.044 26.8h3.024v-6.48h.288c.624 1.008 1.68 2.016 3.792 2.016 2.976 0 5.472-2.64 5.472-6.288S14.124 9.76 11.148 9.76c-2.112 0-3.168 1.008-3.792 2.016H7.02v-1.68H4.044V26.8zm6.288-7.152c-1.872 0-3.264-1.344-3.264-3.6 0-2.256 1.392-3.6 3.264-3.6 1.824 0 3.264 1.296 3.264 3.6 0 2.304-1.44 3.6-3.264 3.6zM21.575 10.096h-2.976V22h3.024v-6.816c0-1.68 1.104-2.496 2.64-2.496h1.776v-2.64h-1.152c-1.512 0-2.52.456-2.976 1.776h-.336v-1.728zM26.504 16.048c0 3.744 2.736 6.288 6.24 6.288s6.24-2.544 6.24-6.288-2.736-6.288-6.24-6.288-6.24 2.544-6.24 6.288zm3.024 0c0-2.16 1.296-3.6 3.216-3.6 1.92 0 3.216 1.44 3.216 3.6s-1.296 3.6-3.216 3.6c-1.92 0-3.216-1.44-3.216-3.6zM40.43 6.64c0 1.224.936 2.064 2.136 2.064 1.2 0 2.136-.84 2.136-2.064 0-1.224-.936-2.064-2.136-2.064-1.2 0-2.136.84-2.136 2.064zm3.648 3.456h-3.024v13.44c0 .48-.24.72-.672.72h-2.064V26.8h3.408c1.344 0 2.352-.96 2.352-2.304v-14.4zM46.05 15.952c0 3.696 2.569 6.384 6.12 6.384 3.193 0 4.585-1.68 5.4-2.928l-2.471-1.44c-.408.84-1.296 1.776-2.976 1.776-1.728 0-2.856-1.224-2.976-2.856h8.664V15.76c0-3.576-2.328-6-5.784-6-3.504 0-5.976 2.592-5.976 6.192zm3.12-1.08c.193-1.512 1.129-2.52 2.833-2.52 1.56 0 2.568.96 2.736 2.52H49.17zM58.965 16.048c0 3.696 2.736 6.288 6.192 6.288 3.336 0 5.424-1.848 6-4.56l-2.976-.744c-.312 1.56-1.152 2.616-2.976 2.616-1.944 0-3.216-1.44-3.216-3.6s1.392-3.6 3.216-3.6c1.824 0 2.76 1.2 2.976 2.64l2.976-.768c-.624-2.712-2.688-4.56-6-4.56-3.456 0-6.192 2.592-6.192 6.288zM71.655 10.096v2.544h3.024v7.056c0 1.344 1.008 2.304 2.352 2.304h3.264v-2.544h-1.92c-.432 0-.672-.24-.672-.72V12.64h3.264v-2.544h-3.264V6.4H74.68v3.696h-3.024zM82.67 13.432c0 2.208 1.751 3.24 4.535 3.696l1.44.24c1.2.192 1.825.528 1.825 1.248s-.769 1.272-2.16 1.272c-1.44 0-3.025-.552-4.105-2.472L81.83 18.88c1.2 1.896 3.457 3.456 6.529 3.456 2.927 0 5.04-1.56 5.04-3.912s-2.04-3.24-4.632-3.672l-1.44-.24c-1.128-.192-1.728-.528-1.728-1.176 0-.648.552-1.128 1.752-1.128s2.568.48 3.936 2.064l2.04-1.8c-1.368-1.44-3.336-2.712-6.12-2.712-2.737 0-4.537 1.464-4.537 3.672z"/>
</svg>
