<svg id="Layer_1" data-name="Layer 1" xmlns="http://www.w3.org/2000/svg" width="1125" height="780" viewBox="0 0 1125 780">
  <path d="M818.5,632.89h302.62v73.46H818.5Zm-304.9,0H818.5v73.46H513.6Zm-511,0H513.6v73.46H2.55Zm816-293.8h302.62v73.45H818.5Zm-304.9,0H818.5v73.45H513.6Zm-511,0H513.6v73.45H2.55ZM818.5,1.21h302.62V118.74H818.5Zm-304.9,0H818.5V118.74H513.6Zm-511,0H513.6V118.74H2.55Z" style="fill: #76c3e2"/>
  <path d="M818.5,118.74h302.62v73.45H818.5Zm-304.9,0H818.5v73.45H513.6Zm-511,0H513.6v73.45H2.55Z" style="fill: #3180a4"/>
  <path d="M818.5,412.54h302.62V486H818.5Zm-304.9,0H818.5V486H513.6Zm-511,0H513.6V486H2.55Z" style="fill: #3180a4"/>
  <path d="M818.5,706.35h302.62V779.8H818.5Zm-304.9,0H818.5V779.8H513.6Zm-511,0H513.6V779.8H2.55Z" style="fill: #3180a4"/>
  <line x1="1.08" y1="1.21" x2="513.6" y2="1.21" style="fill: none;stroke: #76c3e2;stroke-miterlimit: 10"/>
  <line x1="2.55" y1="117.27" x2="2.55" y2="2.68" style="fill: none;stroke: #76c3e2;stroke-miterlimit: 10"/>
  <line x1="513.6" y1="1.21" x2="818.51" y2="1.21" style="fill: none;stroke: #76c3e2;stroke-miterlimit: 10"/>
  <line x1="513.6" y1="117.27" x2="513.6" y2="2.68" style="fill: none;stroke: #76c3e2;stroke-miterlimit: 10"/>
  <line x1="818.51" y1="1.21" x2="1122.59" y2="1.21" style="fill: none;stroke: #76c3e2;stroke-miterlimit: 10"/>
  <line x1="818.51" y1="117.27" x2="818.51" y2="2.68" style="fill: none;stroke: #76c3e2;stroke-miterlimit: 10"/>
  <line x1="1121.12" y1="117.27" x2="1121.12" y2="2.68" style="fill: none;stroke: #76c3e2;stroke-miterlimit: 10"/>
  <line x1="1.08" y1="118.74" x2="513.6" y2="118.74" style="fill: none;stroke: #76c3e2;stroke-miterlimit: 10"/>
  <line x1="513.6" y1="118.74" x2="818.51" y2="118.74" style="fill: none;stroke: #76c3e2;stroke-miterlimit: 10"/>
  <line x1="818.51" y1="118.74" x2="1122.59" y2="118.74" style="fill: none;stroke: #76c3e2;stroke-miterlimit: 10"/>
  <line x1="2.55" y1="264.17" x2="2.55" y2="193.66" style="fill: none;stroke: #76c3e2;stroke-miterlimit: 10"/>
  <line x1="513.6" y1="264.17" x2="513.6" y2="193.66" style="fill: none;stroke: #76c3e2;stroke-miterlimit: 10"/>
  <line x1="818.51" y1="264.17" x2="818.51" y2="193.66" style="fill: none;stroke: #76c3e2;stroke-miterlimit: 10"/>
  <line x1="1121.12" y1="264.17" x2="1121.12" y2="193.66" style="fill: none;stroke: #76c3e2;stroke-miterlimit: 10"/>
  <line x1="1.08" y1="265.64" x2="513.6" y2="265.64" style="fill: none;stroke: #76c3e2;stroke-miterlimit: 10"/>
  <line x1="2.55" y1="339.09" x2="2.55" y2="267.11" style="fill: none;stroke: #76c3e2;stroke-miterlimit: 10"/>
  <line x1="513.6" y1="265.64" x2="818.51" y2="265.64" style="fill: none;stroke: #76c3e2;stroke-miterlimit: 10"/>
  <line x1="513.6" y1="336.15" x2="513.6" y2="267.11" style="fill: none;stroke: #76c3e2;stroke-miterlimit: 10"/>
  <line x1="818.51" y1="265.64" x2="1122.59" y2="265.64" style="fill: none;stroke: #76c3e2;stroke-miterlimit: 10"/>
  <line x1="818.51" y1="336.15" x2="818.51" y2="267.11" style="fill: none;stroke: #76c3e2;stroke-miterlimit: 10"/>
  <line x1="1121.12" y1="339.09" x2="1121.12" y2="267.11" style="fill: none;stroke: #76c3e2;stroke-miterlimit: 10"/>
  <line x1="2.55" y1="411.07" x2="2.55" y2="339.09" style="fill: none;stroke: #76c3e2;stroke-miterlimit: 10"/>
  <line x1="513.6" y1="411.07" x2="513.6" y2="342.03" style="fill: none;stroke: #76c3e2;stroke-miterlimit: 10"/>
  <line x1="818.51" y1="411.07" x2="818.51" y2="342.03" style="fill: none;stroke: #76c3e2;stroke-miterlimit: 10"/>
  <line x1="1121.12" y1="411.07" x2="1121.12" y2="339.09" style="fill: none;stroke: #76c3e2;stroke-miterlimit: 10"/>
  <line x1="2.55" y1="557.97" x2="2.55" y2="487.46" style="fill: none;stroke: #76c3e2;stroke-miterlimit: 10"/>
  <line x1="513.6" y1="557.97" x2="513.6" y2="487.46" style="fill: none;stroke: #76c3e2;stroke-miterlimit: 10"/>
  <line x1="818.51" y1="557.97" x2="818.51" y2="487.46" style="fill: none;stroke: #76c3e2;stroke-miterlimit: 10"/>
  <line x1="1121.12" y1="557.97" x2="1121.12" y2="487.46" style="fill: none;stroke: #76c3e2;stroke-miterlimit: 10"/>
  <line x1="1.08" y1="559.44" x2="513.6" y2="559.44" style="fill: none;stroke: #76c3e2;stroke-miterlimit: 10"/>
  <line x1="2.55" y1="630.69" x2="2.55" y2="560.91" style="fill: none;stroke: #76c3e2;stroke-miterlimit: 10"/>
  <line x1="513.6" y1="559.44" x2="818.51" y2="559.44" style="fill: none;stroke: #76c3e2;stroke-miterlimit: 10"/>
  <line x1="513.6" y1="630.69" x2="513.6" y2="560.91" style="fill: none;stroke: #76c3e2;stroke-miterlimit: 10"/>
  <line x1="818.51" y1="559.44" x2="1122.59" y2="559.44" style="fill: none;stroke: #76c3e2;stroke-miterlimit: 10"/>
  <line x1="818.51" y1="630.69" x2="818.51" y2="560.91" style="fill: none;stroke: #76c3e2;stroke-miterlimit: 10"/>
  <line x1="1121.12" y1="630.69" x2="1121.12" y2="560.91" style="fill: none;stroke: #76c3e2;stroke-miterlimit: 10"/>
  <line x1="4.01" y1="339.09" x2="513.6" y2="339.09" style="fill: none;stroke: #76c3e2;stroke-miterlimit: 10;stroke-width: 2px"/>
  <line x1="513.6" y1="339.09" x2="818.51" y2="339.09" style="fill: none;stroke: #76c3e2;stroke-miterlimit: 10;stroke-width: 2px"/>
  <line x1="818.51" y1="339.09" x2="1119.65" y2="339.09" style="fill: none;stroke: #76c3e2;stroke-miterlimit: 10;stroke-width: 2px"/>
  <line x1="1.08" y1="412.54" x2="513.6" y2="412.54" style="fill: none;stroke: #3180a4;stroke-miterlimit: 10"/>
  <line x1="2.55" y1="484.52" x2="2.55" y2="414.01" style="fill: none;stroke: #3180a4;stroke-miterlimit: 10"/>
  <line x1="513.6" y1="412.54" x2="818.51" y2="412.54" style="fill: none;stroke: #3180a4;stroke-miterlimit: 10"/>
  <line x1="513.6" y1="484.52" x2="513.6" y2="414.01" style="fill: none;stroke: #3180a4;stroke-miterlimit: 10"/>
  <line x1="818.51" y1="412.54" x2="1122.59" y2="412.54" style="fill: none;stroke: #3180a4;stroke-miterlimit: 10"/>
  <line x1="818.51" y1="484.52" x2="818.51" y2="414.01" style="fill: none;stroke: #3180a4;stroke-miterlimit: 10"/>
  <line x1="1121.12" y1="484.52" x2="1121.12" y2="414.01" style="fill: none;stroke: #3180a4;stroke-miterlimit: 10"/>
  <line x1="1.08" y1="485.99" x2="513.6" y2="485.99" style="fill: none;stroke: #3180a4;stroke-miterlimit: 10"/>
  <line x1="513.6" y1="485.99" x2="818.51" y2="485.99" style="fill: none;stroke: #3180a4;stroke-miterlimit: 10"/>
  <line x1="818.51" y1="485.99" x2="1122.59" y2="485.99" style="fill: none;stroke: #3180a4;stroke-miterlimit: 10"/>
  <line x1="2.55" y1="190.72" x2="2.55" y2="120.21" style="fill: none;stroke: #3180a4;stroke-miterlimit: 10"/>
  <line x1="513.6" y1="190.72" x2="513.6" y2="120.21" style="fill: none;stroke: #3180a4;stroke-miterlimit: 10"/>
  <line x1="818.51" y1="190.72" x2="818.51" y2="120.21" style="fill: none;stroke: #3180a4;stroke-miterlimit: 10"/>
  <line x1="1121.12" y1="190.72" x2="1121.12" y2="120.21" style="fill: none;stroke: #3180a4;stroke-miterlimit: 10"/>
  <line x1="1.08" y1="192.19" x2="513.6" y2="192.19" style="fill: none;stroke: #3180a4;stroke-miterlimit: 10"/>
  <line x1="513.6" y1="192.19" x2="818.51" y2="192.19" style="fill: none;stroke: #3180a4;stroke-miterlimit: 10"/>
  <line x1="818.51" y1="192.19" x2="1122.59" y2="192.19" style="fill: none;stroke: #3180a4;stroke-miterlimit: 10"/>
  <line x1="0.34" y1="632.89" x2="513.6" y2="632.89" style="fill: none;stroke: #76c3e2;stroke-miterlimit: 10;stroke-width: 1.5px"/>
  <line x1="2.55" y1="704.14" x2="2.55" y2="635.1" style="fill: none;stroke: #76c3e2;stroke-miterlimit: 10;stroke-width: 1.5px"/>
  <line x1="513.6" y1="632.89" x2="818.51" y2="632.89" style="fill: none;stroke: #76c3e2;stroke-miterlimit: 10;stroke-width: 1.5px"/>
  <line x1="513.6" y1="704.14" x2="513.6" y2="635.1" style="fill: none;stroke: #76c3e2;stroke-miterlimit: 10;stroke-width: 1.5px"/>
  <line x1="818.51" y1="632.89" x2="1123.33" y2="632.89" style="fill: none;stroke: #76c3e2;stroke-miterlimit: 10;stroke-width: 1.5px"/>
  <line x1="818.51" y1="704.14" x2="818.51" y2="635.1" style="fill: none;stroke: #76c3e2;stroke-miterlimit: 10;stroke-width: 1.5px"/>
  <line x1="1121.12" y1="704.14" x2="1121.12" y2="635.1" style="fill: none;stroke: #76c3e2;stroke-miterlimit: 10;stroke-width: 1.5px"/>
  <line x1="0.34" y1="706.35" x2="513.6" y2="706.35" style="fill: none;stroke: #3180a4;stroke-miterlimit: 10;stroke-width: 1.5px"/>
  <line x1="2.55" y1="777.59" x2="2.55" y2="708.55" style="fill: none;stroke: #3180a4;stroke-miterlimit: 10;stroke-width: 1.5px"/>
  <line x1="513.6" y1="706.35" x2="818.51" y2="706.35" style="fill: none;stroke: #3180a4;stroke-miterlimit: 10;stroke-width: 1.5px"/>
  <line x1="513.6" y1="777.59" x2="513.6" y2="708.55" style="fill: none;stroke: #3180a4;stroke-miterlimit: 10;stroke-width: 1.5px"/>
  <line x1="818.51" y1="706.35" x2="1123.33" y2="706.35" style="fill: none;stroke: #3180a4;stroke-miterlimit: 10;stroke-width: 1.5px"/>
  <line x1="818.51" y1="777.59" x2="818.51" y2="708.55" style="fill: none;stroke: #3180a4;stroke-miterlimit: 10;stroke-width: 1.5px"/>
  <line x1="1121.12" y1="777.59" x2="1121.12" y2="708.55" style="fill: none;stroke: #3180a4;stroke-miterlimit: 10;stroke-width: 1.5px"/>
  <line x1="0.34" y1="779.8" x2="513.6" y2="779.8" style="fill: none;stroke: #3180a4;stroke-miterlimit: 10;stroke-width: 1.5px"/>
  <line x1="513.6" y1="779.8" x2="818.51" y2="779.8" style="fill: none;stroke: #3180a4;stroke-miterlimit: 10;stroke-width: 1.5px"/>
  <line x1="818.51" y1="779.8" x2="1123.33" y2="779.8" style="fill: none;stroke: #3180a4;stroke-miterlimit: 10;stroke-width: 1.5px"/>
  <g>
    <path d="M529,19.93h11.11c8.11,0,12.84,6.17,12.84,14.24s-4.73,14.11-12.84,14.11H529Zm11.11,23.86c5.14,0,7.78-4.36,7.78-9.62s-2.64-9.75-7.78-9.75H534V43.79Z" style="fill: #fff"/>
    <path d="M576.65,40.34H561.8c.53,2.67,2.59,4,5.43,4A6.36,6.36,0,0,0,572.45,42l3.17,2.43A10.07,10.07,0,0,1,567,48.69c-5.76,0-10.12-4-10.12-10a9.73,9.73,0,0,1,10.08-10,9.44,9.44,0,0,1,9.83,9.84A16.57,16.57,0,0,1,576.65,40.34ZM572,37c-.29-2.64-2.3-4.16-5-4.16s-4.65,1.23-5.22,4.16Z" style="fill: #fff"/>
    <path d="M580.35,38.65c0-6.09,4.89-10,10.45-10a9.66,9.66,0,0,1,7.81,3.71L595.2,35a5.69,5.69,0,0,0-4.32-1.93,5.55,5.55,0,1,0,0,11.1,5.69,5.69,0,0,0,4.32-1.93L598.61,45a9.8,9.8,0,0,1-7.81,3.7C585.24,48.65,580.35,44.74,580.35,38.65Z" style="fill: #fff"/>
    <path d="M621.32,40.34H606.47c.53,2.67,2.59,4,5.43,4A6.36,6.36,0,0,0,617.12,42l3.17,2.43a10.07,10.07,0,0,1-8.64,4.28c-5.76,0-10.12-4-10.12-10a9.73,9.73,0,0,1,10.08-10,9.44,9.44,0,0,1,9.83,9.84A16.57,16.57,0,0,1,621.32,40.34ZM616.67,37c-.29-2.64-2.3-4.16-5-4.16S607,34.08,606.47,37Z" style="fill: #fff"/>
    <path d="M656.73,37.5V48.28H652V37.87c0-3.09-1.6-4.61-3.82-4.61-2.76,0-4.49,2.06-4.28,5.51l0-.16v9.67h-4.77V37.87c0-3.09-1.61-4.61-3.66-4.61-2.23,0-4.45,1.24-4.45,4.9V48.28h-4.77V29.07H631v3.29c.7-2.43,3.33-3.71,5.72-3.71a6.46,6.46,0,0,1,6.21,3.79,7.06,7.06,0,0,1,6.46-3.79C654.18,28.65,656.73,31.9,656.73,37.5Z" style="fill: #fff"/>
    <path d="M683.18,38.65c0,6.13-4.4,10-9.46,10-2.3,0-5.06-.95-6.38-3v2.59h-4.77V18.78h4.77V31.62c1.32-2,4-3,6.42-3C678.82,28.65,683.18,32.48,683.18,38.65Zm-4.77,0A5.39,5.39,0,0,0,673,33.1a5.55,5.55,0,1,0,5.43,5.51Z" style="fill: #fff"/>
    <path d="M706.67,40.34H691.82c.53,2.67,2.59,4,5.43,4A6.36,6.36,0,0,0,702.47,42l3.17,2.43A10.07,10.07,0,0,1,697,48.69c-5.76,0-10.12-4-10.12-10a9.73,9.73,0,0,1,10.08-10,9.44,9.44,0,0,1,9.83,9.84A16.57,16.57,0,0,1,706.67,40.34ZM702,37c-.29-2.64-2.3-4.16-5-4.16s-4.65,1.23-5.22,4.16Z" style="fill: #fff"/>
    <path d="M725,29.31l-1,4.53a5.93,5.93,0,0,0-2.79-.7c-3.13,0-4.86,3-4.86,8.43v6.71h-4.81V29.07h4.77v4.11c1-3.21,3.13-4.53,5.51-4.53A7,7,0,0,1,725,29.31Z" style="fill: #fff"/>
    <path d="M754.75,40.42c0,4.94-4,8.23-9.67,8.23a9.67,9.67,0,0,1-8.8-5.06l3.46-2.51a6.1,6.1,0,0,0,5.14,3.21c3,0,5.06-1.65,5.06-4,0-2.55-2.1-4.32-5.06-4.32h-2.63V32.19h1.89c2.88,0,4.65-1.6,4.56-3.7-.08-1.85-1.56-3.09-3.74-3.09a5.82,5.82,0,0,0-4.61,2.35l-2.84-2.92A9.71,9.71,0,0,1,745.37,21c4.73,0,8.19,2.84,8.15,7.33A6,6,0,0,1,750,33.8,6.83,6.83,0,0,1,754.75,40.42Z" style="fill: #fff"/>
    <path d="M769,21V48.28h-4.73V27.54l-6,2.39V25.49L768.69,21Z" style="fill: #fff"/>
    <path d="M772.68,53.83c2.39-3.33,3.58-6.17,3.25-10.86h4.53a14.59,14.59,0,0,1-4.9,12Z" style="fill: #fff"/>
  </g>
  <g>
    <path d="M545.06,96.69v4.49H527.33V98.75l10.32-12.46c1.36-1.65,2.23-3.29,2.23-4.36,0-2.14-1.61-3.58-4-3.58a4.17,4.17,0,0,0-4.4,4l-4.32-.83c.62-4.52,3.79-7.61,8.89-7.61,5.26,0,8.68,3.25,8.68,8.11a11.29,11.29,0,0,1-3,6.87L535,96.69Z" style="fill: #fff"/>
    <path d="M549.83,87.77c0-7.7,2.14-13.87,9.95-13.87s9.88,6.17,9.88,13.87-2.1,13.82-9.88,13.82S549.83,95.42,549.83,87.77Zm15,0c0-5.19-1.07-9.42-5.06-9.42s-5.14,4.23-5.14,9.42,1.11,9.38,5.14,9.38S564.84,92.91,564.84,87.77Z" style="fill: #fff"/>
    <path d="M584.22,73.9v27.28h-4.73V80.44l-6,2.39V78.39l10.45-4.49Z" style="fill: #fff"/>
    <path d="M610.42,86.9c0,7.37-3.42,14.69-11.31,14.69a8.9,8.9,0,0,1-8.52-5.39l4-2.06a4.8,4.8,0,0,0,4.53,3c3.62,0,6.29-3.5,6.37-8.15a7.61,7.61,0,0,1-6.05,2.63,8.75,8.75,0,0,1-9.13-8.72c0-5,3.83-9,9.79-9C606.51,73.9,610.42,79.29,610.42,86.9Zm-5.27-3.82a4.73,4.73,0,0,0-5-4.69c-2.92,0-5,1.93-5,4.56a4.6,4.6,0,0,0,4.77,4.53C602.85,87.48,605.07,85.63,605.15,83.08Z" style="fill: #fff"/>
  </g>
  <g>
    <path d="M833.89,19.93H845c8.1,0,12.83,6.17,12.83,14.24S853.1,48.28,845,48.28H833.89ZM845,43.79c5.14,0,7.77-4.36,7.77-9.62s-2.63-9.75-7.77-9.75h-6.09V43.79Z" style="fill: #fff"/>
    <path d="M881.56,40.34H866.71c.54,2.67,2.6,4,5.43,4A6.38,6.38,0,0,0,877.37,42l3.17,2.43a10.08,10.08,0,0,1-8.64,4.28c-5.76,0-10.12-4-10.12-10a9.72,9.72,0,0,1,10.08-10,9.44,9.44,0,0,1,9.83,9.84A14.66,14.66,0,0,1,881.56,40.34ZM876.92,37c-.29-2.64-2.31-4.16-5-4.16A4.86,4.86,0,0,0,866.71,37Z" style="fill: #fff"/>
    <path d="M885.26,38.65c0-6.09,4.9-10,10.45-10a9.68,9.68,0,0,1,7.82,3.71L900.11,35a5.68,5.68,0,0,0-4.32-1.93,5.55,5.55,0,1,0,0,11.1,5.68,5.68,0,0,0,4.32-1.93L903.53,45a9.82,9.82,0,0,1-7.82,3.7C890.16,48.65,885.26,44.74,885.26,38.65Z" style="fill: #fff"/>
    <path d="M926.23,40.34H911.38c.54,2.67,2.6,4,5.43,4A6.38,6.38,0,0,0,922,42l3.17,2.43a10.08,10.08,0,0,1-8.64,4.28c-5.76,0-10.12-4-10.12-10a9.72,9.72,0,0,1,10.08-10,9.44,9.44,0,0,1,9.83,9.84A14.66,14.66,0,0,1,926.23,40.34ZM921.59,37c-.29-2.64-2.31-4.16-5-4.16A4.86,4.86,0,0,0,911.38,37Z" style="fill: #fff"/>
    <path d="M961.65,37.5V48.28h-4.73V37.87c0-3.09-1.6-4.61-3.83-4.61-2.75,0-4.48,2.06-4.27,5.51l-.05-.16v9.67H944V37.87c0-3.09-1.6-4.61-3.66-4.61-2.22,0-4.44,1.24-4.44,4.9V48.28h-4.77V29.07h4.77v3.29c.7-2.43,3.33-3.71,5.72-3.71a6.47,6.47,0,0,1,6.21,3.79,7.05,7.05,0,0,1,6.46-3.79C959.1,28.65,961.65,31.9,961.65,37.5Z" style="fill: #fff"/>
    <path d="M988.1,38.65c0,6.13-4.4,10-9.46,10-2.31,0-5.06-.95-6.38-3v2.59h-4.77V18.78h4.77V31.62c1.32-2,4-3,6.42-3C983.74,28.65,988.1,32.48,988.1,38.65Zm-4.77,0a5.39,5.39,0,0,0-5.43-5.51,5.55,5.55,0,1,0,0,11.1A5.46,5.46,0,0,0,983.33,38.61Z" style="fill: #fff"/>
    <path d="M1011.62,40.34H996.77c.54,2.67,2.6,4,5.44,4a6.38,6.38,0,0,0,5.22-2.39l3.17,2.43a10.08,10.08,0,0,1-8.64,4.28c-5.76,0-10.12-4-10.12-10a9.73,9.73,0,0,1,10.08-10,9.44,9.44,0,0,1,9.83,9.84A14.66,14.66,0,0,1,1011.62,40.34ZM1007,37c-.29-2.64-2.31-4.16-5-4.16A4.86,4.86,0,0,0,996.77,37Z" style="fill: #fff"/>
    <path d="M1029.93,29.31l-1,4.53a6,6,0,0,0-2.8-.7c-3.12,0-4.85,3-4.85,8.43v6.71h-4.81V29.07h4.77v4.11c1-3.21,3.13-4.53,5.51-4.53A7.07,7.07,0,0,1,1029.93,29.31Z" style="fill: #fff"/>
    <path d="M1059.71,40.42c0,4.94-4,8.23-9.67,8.23a9.65,9.65,0,0,1-8.8-5.06l3.45-2.51a6.13,6.13,0,0,0,5.14,3.21c3,0,5.06-1.65,5.06-4,0-2.55-2.09-4.32-5.06-4.32h-2.63V32.19h1.89c2.88,0,4.65-1.6,4.57-3.7-.08-1.85-1.56-3.09-3.74-3.09a5.82,5.82,0,0,0-4.61,2.35l-2.84-2.92a9.71,9.71,0,0,1,7.86-3.83c4.73,0,8.18,2.84,8.14,7.33A6,6,0,0,1,1055,33.8,6.83,6.83,0,0,1,1059.71,40.42Z" style="fill: #fff"/>
    <path d="M1074,21V48.28h-4.73V27.54l-6,2.39V25.49L1073.65,21Z" style="fill: #fff"/>
    <path d="M1077.64,53.83c2.38-3.33,3.58-6.17,3.25-10.86h4.52a14.58,14.58,0,0,1-4.89,12Z" style="fill: #fff"/>
  </g>
  <g>
    <path d="M850,96.69v4.49H832.25V98.75l10.32-12.46c1.36-1.65,2.22-3.29,2.22-4.36,0-2.14-1.6-3.58-4-3.58a4.17,4.17,0,0,0-4.4,4L832,81.51c.62-4.52,3.78-7.61,8.88-7.61,5.27,0,8.69,3.25,8.69,8.11a11.25,11.25,0,0,1-3,6.87l-6.7,7.81Z" style="fill: #fff"/>
    <path d="M854.74,87.77c0-7.7,2.14-13.87,10-13.87s9.87,6.17,9.87,13.87-2.1,13.82-9.87,13.82S854.74,95.42,854.74,87.77Zm15,0c0-5.19-1.07-9.42-5.06-9.42s-5.14,4.23-5.14,9.42,1.11,9.38,5.14,9.38S869.76,92.91,869.76,87.77Z" style="fill: #fff"/>
    <path d="M889.13,73.9v27.28H884.4V80.44l-6,2.39V78.39L888.8,73.9Z" style="fill: #fff"/>
    <path d="M915.66,93.11c0,5.06-4.48,8.48-10.32,8.48S895,98.17,895,93.16a7.57,7.57,0,0,1,5.1-7.29,5.68,5.68,0,0,1-3-5.14c0-4,3.5-6.83,8.19-6.83s8.18,2.84,8.18,6.83a5.66,5.66,0,0,1-3,5.14A7.5,7.5,0,0,1,915.66,93.11Zm-5-.41c0-2.67-2.35-4.65-5.35-4.65S900,90,900,92.7s2.3,4.53,5.39,4.53S910.69,95.29,910.69,92.7Zm-8.81-11.47a3.48,3.48,0,0,0,6.91,0,3.47,3.47,0,0,0-6.91,0Z" style="fill: #fff"/>
  </g>
  <g>
    <path d="M23,146.38v7.69h9.63v4.49H23v11.68h-5V141.89h17.2v4.49Z" style="fill: #fff"/>
    <path d="M38.92,144.24a3,3,0,0,1,3.13-2.92,2.94,2.94,0,0,1,3.08,2.92,3,3,0,0,1-3.08,2.92A3,3,0,0,1,38.92,144.24Zm.74,6.79h4.77v19.21H39.66Z" style="fill: #fff"/>
    <path d="M62.78,170.24l-4.65-6.62-4.69,6.62H47.85l7.57-10.49L49.12,151h5.64l3.37,4.89L61.5,151h5.64l-6.29,8.72,7.56,10.49Z" style="fill: #fff"/>
    <path d="M89.6,162.3H74.75c.53,2.67,2.59,4,5.43,4a6.36,6.36,0,0,0,5.22-2.39l3.17,2.43a10.07,10.07,0,0,1-8.64,4.28c-5.76,0-10.12-4-10.12-10a9.72,9.72,0,0,1,10.08-10,9.43,9.43,0,0,1,9.83,9.83A16.57,16.57,0,0,1,89.6,162.3ZM85,159c-.29-2.64-2.3-4.16-5-4.16A4.85,4.85,0,0,0,74.75,159Z" style="fill: #fff"/>
    <path d="M114,140.74v29.5h-4.77v-2.59c-1.32,2-4,3-6.38,3-5.06,0-9.46-3.91-9.46-10s4.36-10,9.42-10c2.43,0,5.1.94,6.42,3V140.74Zm-4.86,19.83a5.51,5.51,0,0,0-5.55-5.51,5.36,5.36,0,0,0-5.39,5.51,5.44,5.44,0,0,0,5.39,5.6A5.49,5.49,0,0,0,109.09,160.57Z" style="fill: #fff"/>
    <path d="M149.9,151v19.21h-4.78v-2.59c-1.31,2-4,3-6.37,3-5.06,0-9.46-3.91-9.46-10s4.36-10,9.42-10c2.42,0,5.1.94,6.41,3V151ZM145,160.57a5.51,5.51,0,0,0-5.55-5.51,5.36,5.36,0,0,0-5.39,5.51,5.44,5.44,0,0,0,5.39,5.6A5.49,5.49,0,0,0,145,160.57Z" style="fill: #fff"/>
    <path d="M154.62,164.23h4.49c0,1.32,1.15,2.55,3.17,2.55s3.12-.86,3.12-2.1c0-1.06-.82-1.56-2.26-1.89l-2.55-.66c-4.32-1.15-5.43-3.45-5.43-5.88,0-3,3-5.63,7.16-5.63,3.41,0,7.28,1.68,7.24,6H165a2.31,2.31,0,0,0-2.55-2.18c-1.48,0-2.51.82-2.51,2,0,1,.95,1.56,2.06,1.81l3.08.82c4.32,1.11,5.1,3.83,5.1,5.59,0,3.91-3.9,6-7.81,6S154.71,168.35,154.62,164.23Z" style="fill: #fff"/>
    <path d="M173.67,164.23h4.48c0,1.32,1.15,2.55,3.17,2.55s3.13-.86,3.13-2.1c0-1.06-.83-1.56-2.27-1.89l-2.55-.66c-4.32-1.15-5.43-3.45-5.43-5.88,0-3,3-5.63,7.16-5.63,3.42,0,7.28,1.68,7.24,6H184a2.32,2.32,0,0,0-2.56-2.18c-1.48,0-2.5.82-2.5,2,0,1,.94,1.56,2.05,1.81l3.09.82c4.32,1.11,5.1,3.83,5.1,5.59,0,3.91-3.91,6-7.82,6S173.75,168.35,173.67,164.23Z" style="fill: #fff"/>
    <path d="M212.62,162.3H197.77c.54,2.67,2.59,4,5.43,4a6.38,6.38,0,0,0,5.23-2.39l3.16,2.43a10,10,0,0,1-8.63,4.28c-5.76,0-10.12-4-10.12-10a9.71,9.71,0,0,1,10.07-10,9.44,9.44,0,0,1,9.84,9.83A14.66,14.66,0,0,1,212.62,162.3ZM208,159c-.28-2.64-2.3-4.16-5-4.16a4.87,4.87,0,0,0-5.23,4.16Z" style="fill: #fff"/>
    <path d="M227.8,154.85h-4.07v15.39H219V154.85H215.5V151H219V144h4.77V151h4.07Z" style="fill: #fff"/>
    <path d="M230.35,164.23h4.48c0,1.32,1.15,2.55,3.17,2.55s3.13-.86,3.13-2.1c0-1.06-.83-1.56-2.27-1.89l-2.55-.66c-4.32-1.15-5.43-3.45-5.43-5.88,0-3,3-5.63,7.16-5.63,3.42,0,7.28,1.68,7.24,6h-4.57a2.31,2.31,0,0,0-2.55-2.18c-1.48,0-2.5.82-2.5,2,0,1,.94,1.56,2.05,1.81l3.09.82c4.32,1.11,5.1,3.83,5.1,5.59,0,3.91-3.91,6-7.82,6S230.43,168.35,230.35,164.23Z" style="fill: #fff"/>
  </g>
  <g>
    <path d="M32.85,219.67H25.09v22.11H22.76V219.67H15v-2.19H32.85Z" style="fill: #4a4a49"/>
    <path d="M49.59,225.31v16.47H47.34v-3.21a7.36,7.36,0,0,1-6.56,3.56,8.59,8.59,0,0,1,0-17.17,7.39,7.39,0,0,1,6.56,3.53v-3.18Zm-2.25,8.29A6.34,6.34,0,0,0,41,227.11a6.27,6.27,0,0,0-6.27,6.38A6.34,6.34,0,0,0,41,240,6.27,6.27,0,0,0,47.34,233.6Z" style="fill: #4a4a49"/>
    <path d="M70.25,232.19v9.59H68V232.3c0-3.18-2-5.12-4.66-5.12a5.17,5.17,0,0,0-5.5,5.47v9.13H55.58V225.31h2.26v3c1-2.37,3.67-3.32,5.71-3.32C67.54,225,70.25,227.64,70.25,232.19Z" style="fill: #4a4a49"/>
    <path d="M92,225.31v14c0,8-3.56,10.65-8.92,10.65A8.2,8.2,0,0,1,76,246l1.9-1.06a6.14,6.14,0,0,0,5.22,2.93c4,0,6.66-2,6.66-8.4v-.84a7.39,7.39,0,0,1-6.55,3.52,8.59,8.59,0,0,1,0-17.17,7.36,7.36,0,0,1,6.55,3.53v-3.18Zm-2.26,8.29A6.33,6.33,0,1,0,83.4,240,6.26,6.26,0,0,0,89.78,233.6Z" style="fill: #4a4a49"/>
    <path d="M97.43,219.25a1.75,1.75,0,0,1,3.49,0,1.75,1.75,0,0,1-3.49,0Zm.6,6.06h2.26v16.47H98Z" style="fill: #4a4a49"/>
    <path d="M123.42,233.53a8.32,8.32,0,0,1-8.36,8.6,7.36,7.36,0,0,1-6.56-3.59v3.24h-2.25V216h2.25v12.48a7.35,7.35,0,0,1,6.56-3.56A8.29,8.29,0,0,1,123.42,233.53Zm-2.22,0a6.28,6.28,0,0,0-6.31-6.38,6.34,6.34,0,0,0-6.39,6.49,6.27,6.27,0,0,0,6.39,6.38A6.34,6.34,0,0,0,121.2,233.49Z" style="fill: #4a4a49"/>
    <path d="M128.28,216h2.26v25.74h-2.26Z" style="fill: #4a4a49"/>
    <path d="M151.84,234.48H137.66a5.83,5.83,0,0,0,6.17,5.5,6.12,6.12,0,0,0,5.36-2.82l1.94.85a8.53,8.53,0,1,1-7.37-13c4.69,0,8.11,3.32,8.11,8.53C151.87,233.81,151.87,234.16,151.84,234.48Zm-2.19-1.94a5.62,5.62,0,0,0-5.89-5.43,5.76,5.76,0,0,0-6.07,5.43Z" style="fill: #4a4a49"/>
    <path d="M182.23,225.31v16.47H180v-3.21a7.36,7.36,0,0,1-6.56,3.56,8.59,8.59,0,0,1,0-17.17,7.38,7.38,0,0,1,6.56,3.53v-3.18ZM180,233.6a6.34,6.34,0,0,0-6.38-6.49,6.27,6.27,0,0,0-6.28,6.38,6.34,6.34,0,0,0,6.28,6.49A6.26,6.26,0,0,0,180,233.6Z" style="fill: #4a4a49"/>
    <path d="M186.88,237.34H189c.24,1.37,1.51,2.78,3.91,2.78s3.81-1.16,3.81-2.82c0-1.34-.92-2.22-2.61-2.64l-2.36-.57c-2.33-.56-4.2-1.76-4.2-4.51s2.29-4.62,5.43-4.62c2.75,0,5.29,1.52,5.4,4.48h-2.19A3,3,0,0,0,193,227c-1.91,0-3.21,1.09-3.21,2.65s1.34,2.22,2.54,2.5l2.43.6c3.21.77,4.2,2.71,4.2,4.62,0,2.93-2.65,4.79-6.07,4.79C190,242.13,187.16,240.48,186.88,237.34Z" style="fill: #4a4a49"/>
    <path d="M202.35,237.34h2.08c.25,1.37,1.52,2.78,3.92,2.78s3.81-1.16,3.81-2.82c0-1.34-.92-2.22-2.61-2.64l-2.37-.57c-2.32-.56-4.19-1.76-4.19-4.51s2.29-4.62,5.43-4.62c2.75,0,5.29,1.52,5.39,4.48h-2.18a3,3,0,0,0-3.18-2.47c-1.9,0-3.21,1.09-3.21,2.65s1.34,2.22,2.54,2.5l2.44.6c3.21.77,4.19,2.71,4.19,4.62,0,2.93-2.64,4.79-6.06,4.79C205.49,242.13,202.64,240.48,202.35,237.34Z" style="fill: #4a4a49"/>
    <path d="M234.51,234.48H220.33a5.83,5.83,0,0,0,6.17,5.5,6.12,6.12,0,0,0,5.36-2.82l1.94.85a8.53,8.53,0,1,1-7.37-13c4.69,0,8.11,3.32,8.11,8.53C234.54,233.81,234.54,234.16,234.51,234.48Zm-2.19-1.94a5.61,5.61,0,0,0-5.89-5.43,5.74,5.74,0,0,0-6.06,5.43Z" style="fill: #4a4a49"/>
    <path d="M246.18,227.25H242.4v14.53h-2.22V227.25h-3v-1.94h3v-6.56h2.22v6.56h3.78Z" style="fill: #4a4a49"/>
    <path d="M248.5,237.34h2.08c.25,1.37,1.52,2.78,3.92,2.78s3.81-1.16,3.81-2.82c0-1.34-.92-2.22-2.61-2.64l-2.37-.57c-2.32-.56-4.19-1.76-4.19-4.51s2.29-4.62,5.43-4.62c2.75,0,5.29,1.52,5.39,4.48h-2.18A3,3,0,0,0,254.6,227c-1.9,0-3.21,1.09-3.21,2.65s1.34,2.22,2.54,2.5l2.44.6c3.21.77,4.19,2.71,4.19,4.62,0,2.93-2.64,4.79-6.06,4.79C251.64,242.13,248.79,240.48,248.5,237.34Z" style="fill: #4a4a49"/>
  </g>
  <g>
    <path d="M715.55,218.3v23.48h-2.22V221.65l-5,2.15v-2.22l7.16-3.28Z" style="fill: #4a4a49"/>
    <path d="M737.13,234.48c0,4.62-3.42,7.65-8,7.65a8.89,8.89,0,0,1-8.08-4.86l1.87-1A6.73,6.73,0,0,0,729,240c3.35,0,5.85-2.18,5.85-5.46a5.19,5.19,0,0,0-5.53-5.26,12.65,12.65,0,0,0-6.14,2l-1.3-1.17,2-11.49h11.64v2.15h-9.81l-1.51,8.11a11,11,0,0,1,5.46-1.59C734,227.25,737.13,230.11,737.13,234.48Z" style="fill: #4a4a49"/>
    <path d="M739.24,247.25a14.27,14.27,0,0,0,2.72-9.81h2.25a13.55,13.55,0,0,1-3.42,10.34Z" style="fill: #4a4a49"/>
    <path d="M748.83,230.21c0-6.59,1.73-11.91,8.29-11.91s8.21,5.32,8.21,11.91-1.65,11.92-8.21,11.92S748.83,236.77,748.83,230.21Zm14.28,0c0-5.36-1.2-9.76-6-9.76s-6,4.4-6,9.76,1.2,9.77,6,9.77S763.11,235.54,763.11,230.21Z" style="fill: #4a4a49"/>
    <path d="M786.35,236.88h-3.46v4.9h-2.26v-4.9H768.5v-.53l13.9-17.77h.49v16.15h3.46Zm-5.72-2.15V224l-8.39,10.76Z" style="fill: #4a4a49"/>
    <path d="M804.82,235.19c0,4.16-3.39,6.91-8.07,6.91a7.94,7.94,0,0,1-7.34-4.62l1.87-1a6,6,0,0,0,5.39,3.49c3.35,0,5.89-1.87,5.89-4.69s-2.25-4.9-5.29-4.9h-2.36v-2h2.26a3.9,3.9,0,0,0,4.23-4c0-2.37-1.83-4-4.55-4a5.46,5.46,0,0,0-4.55,2.43l-1.62-1.27a7.3,7.3,0,0,1,6.21-3.31c4.05,0,6.77,2.43,6.77,6.06a5.34,5.34,0,0,1-3.11,4.94A6,6,0,0,1,804.82,235.19Z" style="fill: #4a4a49"/>
  </g>
  <g>
    <path d="M1016.29,218.3v23.48h-2.22V221.65l-5,2.15v-2.22l7.15-3.28Z" style="fill: #4a4a49"/>
    <path d="M1038.86,234.9c0,4.17-3.57,7.23-8.4,7.23s-8.39-3.06-8.39-7.19a6.92,6.92,0,0,1,4.76-6.63,4.93,4.93,0,0,1-2.68-4.48c0-3.14,2.57-5.53,6.31-5.53s6.35,2.39,6.35,5.53a4.9,4.9,0,0,1-2.72,4.48A7,7,0,0,1,1038.86,234.9Zm-2.37-.1c0-3-2.68-5.33-6-5.33s-6,2.33-6,5.29,2.61,5.22,6,5.22S1036.49,237.69,1036.49,234.8Zm-10-10.79a3.72,3.72,0,0,0,4,3.56c2.29,0,4-1.55,4-3.56a4,4,0,0,0-8,0Z" style="fill: #4a4a49"/>
    <path d="M1041.11,247.25a14.26,14.26,0,0,0,2.71-9.81h2.26a13.59,13.59,0,0,1-3.42,10.34Z" style="fill: #4a4a49"/>
    <path d="M1066.78,234.48c0,4.62-3.42,7.65-8,7.65a8.88,8.88,0,0,1-8.08-4.86l1.87-1a6.73,6.73,0,0,0,6.07,3.73c3.35,0,5.85-2.18,5.85-5.46a5.19,5.19,0,0,0-5.54-5.26,12.61,12.61,0,0,0-6.13,2l-1.31-1.17,2-11.49h11.64v2.15h-9.81l-1.51,8.11a11,11,0,0,1,5.46-1.59C1063.67,227.25,1066.78,230.11,1066.78,234.48Z" style="fill: #4a4a49"/>
    <path d="M1087.05,228.52c0,5-1.27,13.61-9.06,13.61a6.87,6.87,0,0,1-6.84-4.4l2-.85A4.92,4.92,0,0,0,1078,240c4.62,0,6.67-5.11,6.56-9.73a7,7,0,0,1-6,3.1,7.49,7.49,0,0,1-7.76-7.51c0-3.63,2.65-7.54,8-7.54S1087.05,222.35,1087.05,228.52Zm-2.5-2.15a5.72,5.72,0,0,0-11.43-.46,5.33,5.33,0,0,0,5.47,5.29C1081.27,231.2,1084.44,229.65,1084.55,226.37Z" style="fill: #4a4a49"/>
    <path d="M1108,236.88h-3.46v4.9h-2.26v-4.9h-12.13v-.53l13.9-17.77h.49v16.15H1108Zm-5.72-2.15V224l-8.39,10.76Z" style="fill: #4a4a49"/>
  </g>
  <g>
    <path d="M17.89,290.92h2.33v24.3H17.89Z" style="fill: #4a4a49"/>
    <path d="M41.59,305.63v9.59H39.33v-9.49c0-3.17-2-5.11-4.65-5.11a5.16,5.16,0,0,0-5.5,5.47v9.13H26.92V298.75h2.26v3c1-2.36,3.66-3.31,5.71-3.31C38.87,298.4,41.59,301.08,41.59,305.63Z" style="fill: #4a4a49"/>
    <path d="M54.21,300.69H50.44v14.53H48.21V300.69h-3v-1.94h3v-6.56h2.23v6.56h3.77Z" style="fill: #4a4a49"/>
    <path d="M73.74,298.75v16.47H71.49V312a7.36,7.36,0,0,1-6.56,3.56,8.59,8.59,0,0,1,0-17.17,7.39,7.39,0,0,1,6.56,3.53v-3.18ZM71.49,307a6.34,6.34,0,0,0-6.39-6.49,6.27,6.27,0,0,0-6.27,6.38,6.34,6.34,0,0,0,6.27,6.49A6.27,6.27,0,0,0,71.49,307Z" style="fill: #4a4a49"/>
    <path d="M94.4,305.63v9.59H92.15v-9.49c0-3.17-2-5.11-4.66-5.11a5.17,5.17,0,0,0-5.5,5.47v9.13H79.73V298.75H82v3c1-2.36,3.67-3.31,5.71-3.31C91.69,298.4,94.4,301.08,94.4,305.63Z" style="fill: #4a4a49"/>
    <path d="M116.19,298.75v14c0,8-3.56,10.65-8.92,10.65a8.2,8.2,0,0,1-7.12-4l1.9-1.06a6.14,6.14,0,0,0,5.22,2.93c4,0,6.66-2.05,6.66-8.4v-.84a7.39,7.39,0,0,1-6.55,3.52,8.59,8.59,0,0,1,0-17.17,7.36,7.36,0,0,1,6.55,3.53v-3.18ZM113.93,307a6.33,6.33,0,1,0-6.38,6.38A6.26,6.26,0,0,0,113.93,307Z" style="fill: #4a4a49"/>
    <path d="M121.58,292.69a1.75,1.75,0,0,1,3.49,0,1.75,1.75,0,0,1-3.49,0Zm.6,6.06h2.26v16.47h-2.26Z" style="fill: #4a4a49"/>
    <path d="M147.57,307a8.32,8.32,0,0,1-8.36,8.6,7.36,7.36,0,0,1-6.56-3.59v3.24H130.4V289.48h2.25V302a7.35,7.35,0,0,1,6.56-3.56A8.29,8.29,0,0,1,147.57,307Zm-2.22,0a6.28,6.28,0,0,0-6.31-6.38,6.34,6.34,0,0,0-6.39,6.49,6.27,6.27,0,0,0,6.39,6.38A6.34,6.34,0,0,0,145.35,306.93Z" style="fill: #4a4a49"/>
    <path d="M152.43,289.48h2.26v25.74h-2.26Z" style="fill: #4a4a49"/>
    <path d="M176,307.92H161.81a5.83,5.83,0,0,0,6.17,5.5,6.12,6.12,0,0,0,5.36-2.82l1.94.85a8.53,8.53,0,1,1-7.37-13.05c4.69,0,8.11,3.31,8.11,8.53C176,307.25,176,307.6,176,307.92ZM173.8,306a5.62,5.62,0,0,0-5.89-5.43,5.76,5.76,0,0,0-6.07,5.43Z" style="fill: #4a4a49"/>
    <path d="M206.41,298.75v16.47h-2.26V312a7.34,7.34,0,0,1-6.55,3.56,8.59,8.59,0,0,1,0-17.17,7.36,7.36,0,0,1,6.55,3.53v-3.18ZM204.15,307a6.34,6.34,0,0,0-6.38-6.49,6.27,6.27,0,0,0-6.27,6.38,6.34,6.34,0,0,0,6.27,6.49A6.26,6.26,0,0,0,204.15,307Z" style="fill: #4a4a49"/>
    <path d="M211.06,310.78h2.08c.25,1.37,1.52,2.78,3.92,2.78s3.8-1.16,3.8-2.82c0-1.34-.91-2.22-2.61-2.64l-2.36-.57c-2.33-.56-4.19-1.76-4.19-4.51s2.29-4.62,5.43-4.62c2.75,0,5.29,1.52,5.39,4.48h-2.18a3,3,0,0,0-3.18-2.47c-1.9,0-3.21,1.09-3.21,2.65s1.34,2.22,2.54,2.5l2.43.6c3.21.77,4.2,2.71,4.2,4.62,0,2.92-2.64,4.79-6.06,4.79C214.2,315.57,211.34,313.92,211.06,310.78Z" style="fill: #4a4a49"/>
    <path d="M226.54,310.78h2.08c.25,1.37,1.51,2.78,3.91,2.78s3.81-1.16,3.81-2.82c0-1.34-.92-2.22-2.61-2.64l-2.36-.57c-2.33-.56-4.2-1.76-4.2-4.51s2.29-4.62,5.43-4.62c2.75,0,5.29,1.52,5.4,4.48h-2.19a3,3,0,0,0-3.17-2.47c-1.91,0-3.21,1.09-3.21,2.65s1.34,2.22,2.54,2.5l2.43.6c3.21.77,4.2,2.71,4.2,4.62,0,2.92-2.65,4.79-6.07,4.79C229.68,315.57,226.82,313.92,226.54,310.78Z" style="fill: #4a4a49"/>
    <path d="M258.69,307.92H244.52a5.83,5.83,0,0,0,6.17,5.5,6.12,6.12,0,0,0,5.36-2.82l1.94.85a8.48,8.48,0,0,1-15.76-4.52,8.14,8.14,0,0,1,8.39-8.53c4.69,0,8.11,3.31,8.11,8.53A8.19,8.19,0,0,1,258.69,307.92ZM256.51,306a5.62,5.62,0,0,0-5.89-5.43,5.76,5.76,0,0,0-6.07,5.43Z" style="fill: #4a4a49"/>
    <path d="M270.36,300.69h-3.77v14.53h-2.22V300.69h-3v-1.94h3v-6.56h2.22v6.56h3.77Z" style="fill: #4a4a49"/>
    <path d="M272.69,310.78h2.08c.25,1.37,1.52,2.78,3.91,2.78s3.81-1.16,3.81-2.82c0-1.34-.92-2.22-2.61-2.64l-2.36-.57c-2.33-.56-4.2-1.76-4.2-4.51s2.29-4.62,5.43-4.62c2.75,0,5.29,1.52,5.4,4.48H282a3,3,0,0,0-3.17-2.47c-1.91,0-3.21,1.09-3.21,2.65s1.34,2.22,2.54,2.5l2.43.6c3.21.77,4.2,2.71,4.2,4.62,0,2.92-2.65,4.79-6.07,4.79C275.83,315.57,273,313.92,272.69,310.78Z" style="fill: #4a4a49"/>
  </g>
  <g>
    <path d="M724.75,308.63c0,4.16-3.38,6.91-8.07,6.91a8,8,0,0,1-7.34-4.62l1.87-1a6,6,0,0,0,5.4,3.49c3.35,0,5.89-1.87,5.89-4.69s-2.26-4.9-5.29-4.9h-2.36v-2h2.25a3.9,3.9,0,0,0,4.23-4c0-2.37-1.83-3.95-4.54-3.95a5.44,5.44,0,0,0-4.55,2.43l-1.63-1.27a7.33,7.33,0,0,1,6.21-3.31c4.06,0,6.77,2.43,6.77,6.06a5.35,5.35,0,0,1-3.1,4.94A5.94,5.94,0,0,1,724.75,308.63Z" style="fill: #4a4a49"/>
    <path d="M743.76,308.63c0,4.16-3.39,6.91-8.08,6.91a7.94,7.94,0,0,1-7.33-4.62l1.87-1a6,6,0,0,0,5.39,3.49c3.35,0,5.89-1.87,5.89-4.69s-2.26-4.9-5.29-4.9h-2.36v-2h2.26a3.9,3.9,0,0,0,4.23-4c0-2.37-1.84-3.95-4.55-3.95a5.44,5.44,0,0,0-4.55,2.43l-1.62-1.27a7.3,7.3,0,0,1,6.2-3.31c4.06,0,6.77,2.43,6.77,6.06a5.33,5.33,0,0,1-3.1,4.94A6,6,0,0,1,743.76,308.63Z" style="fill: #4a4a49"/>
    <path d="M746.12,320.69a14.26,14.26,0,0,0,2.71-9.81h2.26a13.59,13.59,0,0,1-3.42,10.34Z" style="fill: #4a4a49"/>
    <path d="M761.07,291.74v23.48h-2.22V295.09l-5.05,2.15V295l7.16-3.28Z" style="fill: #4a4a49"/>
    <path d="M767.24,303.65c0-6.59,1.72-11.91,8.28-11.91s8.22,5.32,8.22,11.91-1.66,11.92-8.22,11.92S767.24,310.21,767.24,303.65Zm14.28,0c0-5.36-1.2-9.76-6-9.76s-6,4.4-6,9.76,1.2,9.77,6,9.77S781.52,309,781.52,303.65Z" style="fill: #4a4a49"/>
    <path d="M804.75,308c0,3.67-2.64,7.58-8,7.58s-8.25-3.56-8.25-10.26c0-5,1.23-13.57,9-13.57a6.88,6.88,0,0,1,6.87,4.4l-2,.85a4.94,4.94,0,0,0-4.87-3.1c-4.65,0-6.66,5.18-6.52,9.8a7,7,0,0,1,6-3.17A7.47,7.47,0,0,1,804.75,308Zm-2.33,0a5.27,5.27,0,0,0-5.46-5.29c-2.68,0-5.82,1.55-6,4.83a5.51,5.51,0,0,0,5.64,5.89A5.46,5.46,0,0,0,802.42,308Z" style="fill: #4a4a49"/>
  </g>
  <g>
    <path d="M1030.11,310.32h-3.45v4.9h-2.26v-4.9h-12.13v-.53L1026.16,292h.5v16.15h3.45Zm-5.71-2.15V297.41L1016,308.17Z" style="fill: #4a4a49"/>
    <path d="M1039.7,291.74v23.48h-2.22V295.09l-5,2.15V295l7.15-3.28Z" style="fill: #4a4a49"/>
    <path d="M1043.72,320.69a14.26,14.26,0,0,0,2.71-9.81h2.26a13.59,13.59,0,0,1-3.42,10.34Z" style="fill: #4a4a49"/>
    <path d="M1068.47,308.63c0,4.16-3.38,6.91-8.07,6.91a8,8,0,0,1-7.34-4.62l1.87-1a6,6,0,0,0,5.4,3.49c3.35,0,5.88-1.87,5.88-4.69s-2.25-4.9-5.29-4.9h-2.36v-2h2.26a3.9,3.9,0,0,0,4.23-4c0-2.37-1.83-3.95-4.55-3.95a5.46,5.46,0,0,0-4.55,2.43l-1.62-1.27a7.32,7.32,0,0,1,6.21-3.31c4,0,6.77,2.43,6.77,6.06a5.35,5.35,0,0,1-3.1,4.94A6,6,0,0,1,1068.47,308.63Z" style="fill: #4a4a49"/>
    <path d="M1089.38,308.34c0,4.17-3.56,7.23-8.39,7.23s-8.4-3.06-8.4-7.19a6.93,6.93,0,0,1,4.76-6.63,4.93,4.93,0,0,1-2.68-4.48c0-3.14,2.58-5.53,6.32-5.53s6.34,2.39,6.34,5.53a4.89,4.89,0,0,1-2.71,4.48A7,7,0,0,1,1089.38,308.34Zm-2.36-.1c0-3-2.68-5.33-6-5.33s-6,2.33-6,5.29,2.61,5.22,6,5.22S1087,311.13,1087,308.24Zm-10-10.79c0,2,1.66,3.52,4,3.56s4-1.55,4-3.56a4,4,0,0,0-8,0Z" style="fill: #4a4a49"/>
    <path d="M1107.43,313v2.19h-14.07v-1l9.17-11c1.37-1.69,2.36-3.52,2.36-4.9,0-2.68-1.94-4.44-4.72-4.44-2.58,0-4.52,1.37-4.94,3.59l-2-.49c.56-3.24,3.28-5.25,7-5.25,4.12,0,7,2.6,7,6.59a10,10,0,0,1-2.61,5.92l-7.37,8.78Z" style="fill: #4a4a49"/>
  </g>
  <g>
    <path d="M720.49,383.9H717v4.55h-4.12V383.9H701.55v-1.09l13.61-17.46H717V380.2h3.46Zm-7.58-3.7v-6.63l-5.19,6.63Z" style="fill: #fff"/>
    <path d="M741.54,381.54c0,4.34-3.85,7.26-8.85,7.26s-8.86-2.92-8.86-7.23a6.48,6.48,0,0,1,4.38-6.24,4.86,4.86,0,0,1-2.54-4.41c0-3.42,3-5.85,7-5.85s7,2.43,7,5.85a4.86,4.86,0,0,1-2.54,4.41A6.44,6.44,0,0,1,741.54,381.54Zm-4.27-.35c0-2.3-2-4-4.58-4s-4.62,1.69-4.62,4,2,3.87,4.62,3.87S737.27,383.41,737.27,381.19Zm-7.55-9.84a3,3,0,0,0,5.93,0,3,3,0,0,0-5.93,0Z" style="fill: #fff"/>
    <path d="M743.15,393.21a12.74,12.74,0,0,0,2.79-9.31h3.88a12.48,12.48,0,0,1-4.2,10.26Z" style="fill: #fff"/>
    <path d="M761.46,365.07v23.38H757.4V370.68l-5.18,2v-3.81l8.95-3.84Z" style="fill: #fff"/>
    <path d="M784.16,383.9h-3.45v4.55h-4.13V383.9H765.22v-1.09l13.62-17.46h1.87V380.2h3.45Zm-7.58-3.7v-6.63l-5.18,6.63Z" style="fill: #fff"/>
    <path d="M805,376.21c0,6.31-2.92,12.59-9.7,12.59a7.64,7.64,0,0,1-7.3-4.62l3.43-1.76a4.08,4.08,0,0,0,3.87,2.57c3.11,0,5.4-3,5.47-7a6.54,6.54,0,0,1-5.18,2.26,7.5,7.5,0,0,1-7.83-7.48c0-4.26,3.28-7.72,8.39-7.72C801.61,365.07,805,369.69,805,376.21Zm-4.51-3.28a4.32,4.32,0,0,0-8.61-.1,4,4,0,0,0,4.09,3.88C798.47,376.71,800.38,375.12,800.45,372.93Z" style="fill: #fff"/>
  </g>
  <g>
    <path d="M1018,380.69c0,5-3.91,8.11-8.68,8.11a9.56,9.56,0,0,1-8.39-4.93l3.25-2.05a5.55,5.55,0,0,0,4.93,3.14c2.79,0,4.76-1.69,4.76-4.23a4.23,4.23,0,0,0-4.55-4.2,8.59,8.59,0,0,0-5.28,2.08l-2.44-1.69,2-11.57h12.84v3.81H1007l-1.1,5.36a8,8,0,0,1,4.55-1.45A7.28,7.28,0,0,1,1018,380.69Z" style="fill: #fff"/>
    <path d="M1039,376.21c0,6.31-2.92,12.59-9.7,12.59a7.64,7.64,0,0,1-7.3-4.62l3.43-1.76a4.08,4.08,0,0,0,3.87,2.57c3.11,0,5.4-3,5.47-7a6.54,6.54,0,0,1-5.18,2.26,7.5,7.5,0,0,1-7.83-7.48c0-4.26,3.28-7.72,8.39-7.72C1035.61,365.07,1039,369.69,1039,376.21Zm-4.51-3.28a4.32,4.32,0,0,0-8.61-.1,4,4,0,0,0,4.09,3.88C1032.47,376.71,1034.38,375.12,1034.45,372.93Z" style="fill: #fff"/>
    <path d="M1040.3,393.21a12.74,12.74,0,0,0,2.78-9.31H1047a12.48,12.48,0,0,1-4.19,10.26Z" style="fill: #fff"/>
    <path d="M1068.75,376.21c0,6.31-2.92,12.59-9.69,12.59a7.62,7.62,0,0,1-7.3-4.62l3.42-1.76a4.08,4.08,0,0,0,3.88,2.57c3.1,0,5.39-3,5.46-7a6.52,6.52,0,0,1-5.18,2.26,7.5,7.5,0,0,1-7.83-7.48c0-4.26,3.28-7.72,8.39-7.72C1065.4,365.07,1068.75,369.69,1068.75,376.21Zm-4.51-3.28a4.32,4.32,0,0,0-8.61-.1,4,4,0,0,0,4.1,3.88C1062.26,376.71,1064.17,375.12,1064.24,372.93Z" style="fill: #fff"/>
    <path d="M1088.5,365.35v.39l-11.15,22.71h-4.76l9.52-19.25h-10v-3.85Z" style="fill: #fff"/>
    <path d="M1107.61,381.08c0,4.27-3.32,7.72-8.4,7.72-5.5,0-8.85-4.09-8.85-11.14,0-6.31,2.89-12.59,9.66-12.59a7.64,7.64,0,0,1,7.34,4.62l-3.42,1.73a4.16,4.16,0,0,0-3.92-2.54c-3.13,0-5.39,3-5.43,7.05a6.56,6.56,0,0,1,5.19-2.36A7.53,7.53,0,0,1,1107.61,381.08Zm-4.17,0a4,4,0,0,0-4.09-3.91c-2.53,0-4.4,1.59-4.47,3.81a4,4,0,0,0,4.23,4C1101.65,385,1103.44,383.3,1103.44,381Z" style="fill: #fff"/>
  </g>
  <g>
    <path d="M16.11,449.86a14.44,14.44,0,0,1,14.4-14.52,14.14,14.14,0,0,1,11.27,5.51L38,443.73a9.09,9.09,0,0,0-7.36-3.7,9.84,9.84,0,0,0,0,19.66A9.17,9.17,0,0,0,38,456l3.79,2.84a14,14,0,0,1-11.27,5.51A14.44,14.44,0,0,1,16.11,449.86Z" style="fill: #fff"/>
    <path d="M64.24,444.8V464H59.46v-3c-1,2.38-4,3.45-6,3.45-4.94,0-7.69-3.29-7.69-8.88V444.8h4.77v10.33c0,3.08,1.85,4.64,4,4.64a4.59,4.59,0,0,0,4.89-4.93v-10Z" style="fill: #fff"/>
    <path d="M83.73,445.05l-.94,4.52a6.12,6.12,0,0,0-2.8-.7c-3.13,0-4.86,3.05-4.86,8.44V464H70.32V444.8h4.77v4.11c1-3.2,3.13-4.52,5.51-4.52A7,7,0,0,1,83.73,445.05Z" style="fill: #fff"/>
    <path d="M100.68,445.05l-1,4.52a6.09,6.09,0,0,0-2.8-.7c-3.12,0-4.85,3.05-4.85,8.44V464H87.27V444.8H92v4.11c1-3.2,3.13-4.52,5.51-4.52A7.07,7.07,0,0,1,100.68,445.05Z" style="fill: #fff"/>
    <path d="M122.35,456.07H107.5c.54,2.68,2.6,4,5.43,4a6.4,6.4,0,0,0,5.23-2.38l3.17,2.42a10.08,10.08,0,0,1-8.64,4.28c-5.76,0-10.12-4-10.12-10a9.73,9.73,0,0,1,10.08-10,9.43,9.43,0,0,1,9.83,9.83A14.54,14.54,0,0,1,122.35,456.07Zm-4.64-3.33c-.29-2.63-2.31-4.16-5-4.16a4.87,4.87,0,0,0-5.23,4.16Z" style="fill: #fff"/>
    <path d="M145.68,453.23V464H140.9V453.69c0-3.05-1.85-4.61-4-4.61A4.58,4.58,0,0,0,132,454v10h-4.77V444.8H132v3c1-2.38,4-3.45,6-3.45C142.92,444.39,145.68,447.64,145.68,453.23Z" style="fill: #fff"/>
    <path d="M161.84,448.63h-4.07V464H153V448.63h-3.46V444.8H153v-7.08h4.77v7.08h4.07Z" style="fill: #fff"/>
    <path d="M195.82,444.8V464H191v-2.59c-1.31,2.06-4,3-6.37,3-5.06,0-9.46-3.9-9.46-10s4.36-10,9.42-10c2.42,0,5.1.94,6.41,3V444.8ZM191,454.34a5.52,5.52,0,0,0-5.55-5.51,5.36,5.36,0,0,0-5.39,5.51,5.47,5.47,0,1,0,10.94,0Z" style="fill: #fff"/>
    <path d="M200.54,458H205c0,1.31,1.15,2.55,3.17,2.55s3.12-.87,3.12-2.1c0-1.07-.82-1.56-2.26-1.89l-2.55-.66c-4.32-1.15-5.43-3.46-5.43-5.89,0-3,3-5.63,7.16-5.63,3.41,0,7.28,1.69,7.24,6h-4.57a2.32,2.32,0,0,0-2.55-2.19c-1.48,0-2.51.83-2.51,2,0,1,1,1.56,2.06,1.81l3.08.82c4.32,1.11,5.1,3.83,5.1,5.6,0,3.91-3.9,6-7.81,6S200.63,462.12,200.54,458Z" style="fill: #fff"/>
    <path d="M219.59,458h4.48c0,1.31,1.15,2.55,3.17,2.55s3.13-.87,3.13-2.1c0-1.07-.83-1.56-2.27-1.89l-2.55-.66c-4.32-1.15-5.43-3.46-5.43-5.89,0-3,3-5.63,7.16-5.63,3.42,0,7.28,1.69,7.24,6H230a2.32,2.32,0,0,0-2.55-2.19c-1.48,0-2.51.83-2.51,2,0,1,1,1.56,2.06,1.81l3.09.82c4.32,1.11,5.1,3.83,5.1,5.6,0,3.91-3.91,6-7.82,6S219.67,462.12,219.59,458Z" style="fill: #fff"/>
    <path d="M258.58,456.07H243.73c.54,2.68,2.6,4,5.43,4a6.4,6.4,0,0,0,5.23-2.38l3.17,2.42a10.08,10.08,0,0,1-8.64,4.28c-5.76,0-10.12-4-10.12-10a9.72,9.72,0,0,1,10.08-10,9.43,9.43,0,0,1,9.83,9.83A14.54,14.54,0,0,1,258.58,456.07Zm-4.64-3.33c-.29-2.63-2.31-4.16-5-4.16a4.87,4.87,0,0,0-5.23,4.16Z" style="fill: #fff"/>
    <path d="M273.76,448.63h-4.07V464h-4.77V448.63h-3.46V444.8h3.46v-7.08h4.77v7.08h4.07Z" style="fill: #fff"/>
    <path d="M276.31,458h4.48c0,1.31,1.15,2.55,3.17,2.55s3.13-.87,3.13-2.1c0-1.07-.83-1.56-2.27-1.89l-2.55-.66c-4.32-1.15-5.43-3.46-5.43-5.89,0-3,3-5.63,7.16-5.63,3.42,0,7.28,1.69,7.24,6h-4.56a2.33,2.33,0,0,0-2.56-2.19c-1.48,0-2.5.83-2.5,2,0,1,.94,1.56,2.05,1.81l3.09.82c4.32,1.11,5.1,3.83,5.1,5.6,0,3.91-3.91,6-7.82,6S276.39,462.12,276.31,458Z" style="fill: #fff"/>
  </g>
  <g>
    <path d="M27,526.06l6.73,9.53H30.94l-6.66-9.53H20.22v9.53H17.89v-24.3h9c5.08,0,7,3.67,7,7.4S32,526,27,526.06Zm-6.81-2.15h6.14c3.81,0,5.25-2.32,5.25-5.22s-1.55-5.21-4.65-5.21H20.22Z" style="fill: #4a4a49"/>
    <path d="M53.89,528.29H39.72a5.83,5.83,0,0,0,6.17,5.5A6.14,6.14,0,0,0,51.25,531l1.94.84a8.48,8.48,0,0,1-15.76-4.51,8.14,8.14,0,0,1,8.39-8.53c4.69,0,8.11,3.31,8.11,8.53A8.19,8.19,0,0,1,53.89,528.29Zm-2.18-1.94a5.62,5.62,0,0,0-5.89-5.43,5.75,5.75,0,0,0-6.07,5.43Z" style="fill: #4a4a49"/>
    <path d="M57.56,527.33a8.41,8.41,0,0,1,8.71-8.56A8.68,8.68,0,0,1,72.19,521l-1.41,1.55a6.57,6.57,0,0,0-4.44-1.65,6.42,6.42,0,1,0,0,12.83,6.55,6.55,0,0,0,4.44-1.62l1.41,1.52a8.77,8.77,0,0,1-14.63-6.32Z" style="fill: #4a4a49"/>
    <path d="M91.58,528.29H77.41a5.83,5.83,0,0,0,6.17,5.5A6.16,6.16,0,0,0,88.94,531l1.94.84a8.53,8.53,0,1,1-7.37-13c4.69,0,8.11,3.31,8.11,8.53A8.19,8.19,0,0,1,91.58,528.29Zm-2.18-1.94a5.62,5.62,0,0,0-5.89-5.43,5.75,5.75,0,0,0-6.07,5.43Z" style="fill: #4a4a49"/>
    <path d="M95.77,513.05a1.76,1.76,0,0,1,3.5,0,1.76,1.76,0,0,1-3.5,0Zm.6,6.07h2.26v16.47H96.37Z" style="fill: #4a4a49"/>
    <path d="M118.69,519.12l-7,16.47h-2.33l-6.87-16.47h2.4l5.64,13.72,5.71-13.72Z" style="fill: #4a4a49"/>
    <path d="M138.19,519.12v16.47h-2.26v-3.21a7.36,7.36,0,0,1-6.55,3.56,8.59,8.59,0,0,1,0-17.17,7.35,7.35,0,0,1,6.55,3.52v-3.17Zm-2.26,8.28a6.33,6.33,0,1,0-6.38,6.39A6.33,6.33,0,0,0,135.93,527.4Z" style="fill: #4a4a49"/>
    <path d="M161.35,527.33a8.32,8.32,0,0,1-8.35,8.61,7.35,7.35,0,0,1-6.56-3.6v3.25h-2.26V509.84h2.26v12.49a7.31,7.31,0,0,1,6.56-3.56A8.28,8.28,0,0,1,161.35,527.33Zm-2.22,0a6.35,6.35,0,1,0-6.31,6.49A6.34,6.34,0,0,0,159.13,527.3Z" style="fill: #4a4a49"/>
    <path d="M166.22,509.84h2.25v25.75h-2.25Z" style="fill: #4a4a49"/>
    <path d="M189.77,528.29H175.6a5.83,5.83,0,0,0,6.17,5.5,6.16,6.16,0,0,0,5.36-2.82l1.94.84a8.53,8.53,0,1,1-7.37-13c4.69,0,8.11,3.31,8.11,8.53A8.19,8.19,0,0,1,189.77,528.29Zm-2.19-1.94a5.61,5.61,0,0,0-5.88-5.43,5.74,5.74,0,0,0-6.07,5.43Z" style="fill: #4a4a49"/>
    <path d="M193.22,531.14h2.08c.25,1.38,1.52,2.79,3.92,2.79s3.81-1.17,3.81-2.82c0-1.34-.92-2.22-2.61-2.65l-2.37-.56c-2.32-.57-4.19-1.76-4.19-4.52s2.29-4.61,5.43-4.61c2.75,0,5.29,1.51,5.39,4.47H202.5a3,3,0,0,0-3.18-2.46c-1.9,0-3.21,1.09-3.21,2.64s1.34,2.22,2.54,2.5l2.44.6c3.21.78,4.19,2.72,4.19,4.62,0,2.93-2.64,4.8-6.06,4.8C196.36,535.94,193.5,534.28,193.22,531.14Z" style="fill: #4a4a49"/>
  </g>
  <g>
    <path d="M725.67,512.38v.25l-12.62,23H710.4L722,514.53H710.44v-2.15Z" style="fill: #4a4a49"/>
    <path d="M743.37,512.38v.25l-12.62,23H728.1l11.57-21.06H728.14v-2.15Z" style="fill: #4a4a49"/>
    <path d="M741.18,541.05a14.24,14.24,0,0,0,2.72-9.8h2.25a13.53,13.53,0,0,1-3.42,10.33Z" style="fill: #4a4a49"/>
    <path d="M767.45,522.33c0,5-1.27,13.61-9.06,13.61a6.86,6.86,0,0,1-6.84-4.41l2-.85a4.93,4.93,0,0,0,4.83,3.11c4.62,0,6.67-5.12,6.56-9.74a7,7,0,0,1-6,3.11,7.48,7.48,0,0,1-7.75-7.51c0-3.63,2.64-7.55,8-7.55S767.45,516.16,767.45,522.33Zm-2.5-2.15a5.72,5.72,0,0,0-11.43-.46A5.33,5.33,0,0,0,759,525C761.67,525,764.84,523.46,765,520.18Z" style="fill: #4a4a49"/>
    <path d="M786.67,529c0,4.16-3.39,6.91-8.08,6.91a8,8,0,0,1-7.34-4.62l1.87-1a6,6,0,0,0,5.4,3.49c3.35,0,5.89-1.87,5.89-4.69s-2.26-4.9-5.29-4.9h-2.36v-2H779a3.9,3.9,0,0,0,4.23-4c0-2.36-1.83-4-4.54-4a5.45,5.45,0,0,0-4.55,2.44l-1.63-1.27a7.31,7.31,0,0,1,6.21-3.32c4.06,0,6.77,2.43,6.77,6.07a5.35,5.35,0,0,1-3.1,4.93A6,6,0,0,1,786.67,529Z" style="fill: #4a4a49"/>
    <path d="M804.82,533.4v2.19H790.75v-1l9.17-11c1.38-1.7,2.36-3.53,2.36-4.91,0-2.67-1.94-4.44-4.72-4.44-2.58,0-4.52,1.38-4.94,3.6l-2-.5c.57-3.24,3.28-5.25,6.95-5.25,4.12,0,7,2.61,7,6.59a10,10,0,0,1-2.61,5.93l-7.37,8.78Z" style="fill: #4a4a49"/>
  </g>
  <g>
    <path d="M1024.22,522.33c0,5-1.26,13.61-9.06,13.61a6.87,6.87,0,0,1-6.84-4.41l2-.85a4.91,4.91,0,0,0,4.83,3.11c4.62,0,6.66-5.12,6.56-9.74a7,7,0,0,1-6,3.11,7.49,7.49,0,0,1-7.76-7.51c0-3.63,2.64-7.55,8-7.55S1024.22,516.16,1024.22,522.33Zm-2.5-2.15a5.72,5.72,0,0,0-11.43-.46,5.33,5.33,0,0,0,5.47,5.29C1018.44,525,1021.61,523.46,1021.72,520.18Z" style="fill: #4a4a49"/>
    <path d="M1043.3,512.38v.25l-12.63,23H1028l11.56-21.06h-11.53v-2.15Z" style="fill: #4a4a49"/>
    <path d="M1041.11,541.05a14.24,14.24,0,0,0,2.71-9.8h2.26a13.57,13.57,0,0,1-3.42,10.33Z" style="fill: #4a4a49"/>
    <path d="M1067.55,530.68h-3.45v4.91h-2.26v-4.91h-12.13v-.52l13.89-17.78h.5v16.15h3.45Zm-5.71-2.15V517.78l-8.39,10.75Z" style="fill: #4a4a49"/>
    <path d="M1086.94,528.29c0,4.62-3.42,7.65-8,7.65a8.87,8.87,0,0,1-8.07-4.87l1.87-1a6.72,6.72,0,0,0,6.06,3.74c3.35,0,5.86-2.19,5.86-5.47s-2.4-5.25-5.54-5.25a12.77,12.77,0,0,0-6.14,2l-1.3-1.16,2-11.5h11.63v2.15h-9.8l-1.52,8.11a11.11,11.11,0,0,1,5.47-1.58C1083.84,521.06,1086.94,523.91,1086.94,528.29Z" style="fill: #4a4a49"/>
    <path d="M1107.6,528.71c0,4.16-3.56,7.23-8.39,7.23s-8.39-3.07-8.39-7.19a6.91,6.91,0,0,1,4.76-6.63,5,5,0,0,1-2.68-4.48c0-3.14,2.57-5.54,6.31-5.54s6.35,2.4,6.35,5.54a4.92,4.92,0,0,1-2.72,4.48A7,7,0,0,1,1107.6,528.71Zm-2.36-.11c0-3-2.68-5.32-6-5.32s-6,2.33-6,5.29,2.61,5.22,6,5.22S1105.24,531.5,1105.24,528.6Zm-10-10.79c0,2,1.65,3.53,4,3.57s4-1.56,4-3.57a4,4,0,0,0-8,0Z" style="fill: #4a4a49"/>
  </g>
  <g>
    <path d="M16.13,596.93a12.28,12.28,0,0,1,12.2-12.45,11.76,11.76,0,0,1,8.61,3.67l-1.66,1.48a9.57,9.57,0,0,0-7-3,10.27,10.27,0,0,0,0,20.52,9.62,9.62,0,0,0,7-3l1.66,1.48a11.76,11.76,0,0,1-8.61,3.67A12.28,12.28,0,0,1,16.13,596.93Z" style="fill: #4a4a49"/>
    <path d="M57.28,592.56V609H55v-3.21a7.37,7.37,0,0,1-6.56,3.56,8.59,8.59,0,0,1,0-17.17A7.36,7.36,0,0,1,55,595.73v-3.17ZM55,600.84a6.33,6.33,0,1,0-6.38,6.39A6.33,6.33,0,0,0,55,600.84Z" style="fill: #4a4a49"/>
    <path d="M61.93,604.58H64c.25,1.38,1.52,2.79,3.91,2.79s3.81-1.17,3.81-2.82c0-1.34-.91-2.22-2.61-2.65l-2.36-.56c-2.33-.57-4.2-1.77-4.2-4.52s2.3-4.61,5.43-4.61c2.76,0,5.29,1.51,5.4,4.47H71.2A3,3,0,0,0,68,594.21c-1.9,0-3.21,1.1-3.21,2.65s1.34,2.22,2.54,2.5l2.43.6c3.21.78,4.2,2.72,4.2,4.62,0,2.93-2.65,4.8-6.07,4.8C65.07,609.38,62.21,607.72,61.93,604.58Z" style="fill: #4a4a49"/>
    <path d="M93.42,599.43V609H91.16v-9.49c0-3.17-2-5.11-4.66-5.11a5.16,5.16,0,0,0-5.5,5.46V609H78.75V583.28H81v12.24c1-2.36,3.67-3.31,5.72-3.31C90.7,592.21,93.42,594.88,93.42,599.43Z" style="fill: #4a4a49"/>
    <path d="M124.76,592.56V609H122.5v-3.21a7.37,7.37,0,0,1-6.56,3.56,8.59,8.59,0,0,1,0-17.17,7.36,7.36,0,0,1,6.56,3.52v-3.17Zm-2.26,8.28a6.33,6.33,0,1,0-6.38,6.39A6.33,6.33,0,0,0,122.5,600.84Z" style="fill: #4a4a49"/>
    <path d="M145.42,599.43V609h-2.26v-9.49c0-3.17-2-5.11-4.65-5.11a5.17,5.17,0,0,0-5.51,5.46V609h-2.25V592.56H133v3c1-2.36,3.67-3.31,5.72-3.31C142.7,592.21,145.42,594.88,145.42,599.43Z" style="fill: #4a4a49"/>
    <path d="M167.21,583.28V609H165v-3.21a7.39,7.39,0,0,1-6.56,3.56,8.59,8.59,0,0,1,0-17.17,7.37,7.37,0,0,1,6.56,3.52V583.28ZM165,600.84a6.33,6.33,0,1,0-6.38,6.39A6.33,6.33,0,0,0,165,600.84Z" style="fill: #4a4a49"/>
    <path d="M181.66,600.77a8.4,8.4,0,0,1,8.71-8.56,8.68,8.68,0,0,1,5.92,2.25L194.88,596a6.57,6.57,0,0,0-4.44-1.65,6.42,6.42,0,1,0,0,12.83,6.55,6.55,0,0,0,4.44-1.62l1.41,1.52a8.77,8.77,0,0,1-14.63-6.32Z" style="fill: #4a4a49"/>
    <path d="M216.39,592.56V609h-2.26v-3.21a7.37,7.37,0,0,1-6.56,3.56,8.59,8.59,0,0,1,0-17.17,7.36,7.36,0,0,1,6.56,3.52v-3.17Zm-2.26,8.28a6.33,6.33,0,1,0-6.38,6.39A6.33,6.33,0,0,0,214.13,600.84Z" style="fill: #4a4a49"/>
    <path d="M221,604.58h2.08c.25,1.38,1.51,2.79,3.91,2.79s3.81-1.17,3.81-2.82c0-1.34-.92-2.22-2.61-2.65l-2.36-.56c-2.33-.57-4.2-1.77-4.2-4.52s2.29-4.61,5.43-4.61c2.75,0,5.29,1.51,5.4,4.47h-2.19a3,3,0,0,0-3.17-2.47c-1.91,0-3.21,1.1-3.21,2.65s1.34,2.22,2.54,2.5l2.43.6c3.21.78,4.2,2.72,4.2,4.62,0,2.93-2.65,4.8-6.07,4.8C224.18,609.38,221.32,607.72,221,604.58Z" style="fill: #4a4a49"/>
    <path d="M252.52,599.43V609h-2.25v-9.49c0-3.17-2-5.11-4.66-5.11a5.16,5.16,0,0,0-5.5,5.46V609h-2.25V583.28h2.25v12.24c1-2.36,3.67-3.31,5.71-3.31C249.81,592.21,252.52,594.88,252.52,599.43Z" style="fill: #4a4a49"/>
    <path d="M283.16,601.73H269a5.83,5.83,0,0,0,6.17,5.5,6.16,6.16,0,0,0,5.36-2.82l1.94.84a8.53,8.53,0,1,1-7.37-13c4.69,0,8.11,3.31,8.11,8.53A8.19,8.19,0,0,1,283.16,601.73ZM281,599.79a5.62,5.62,0,0,0-5.89-5.43,5.74,5.74,0,0,0-6.07,5.43Z" style="fill: #4a4a49"/>
    <path d="M304,592.56V617h-2.26V605.85a7.36,7.36,0,0,1-6.56,3.53,8.59,8.59,0,0,1,0-17.17,7.35,7.35,0,0,1,6.56,3.56v-3.21Zm-2.26,8.18a6.26,6.26,0,0,0-6.38-6.38,6.34,6.34,0,0,0-6.28,6.48,6.27,6.27,0,0,0,6.28,6.39A6.34,6.34,0,0,0,301.74,600.74Z" style="fill: #4a4a49"/>
    <path d="M324.41,592.56V609h-2.26v-2.9c-1,2.33-3.66,3.25-5.71,3.25-4,0-6.7-2.68-6.66-7.23v-9.59H312V602c0,3.18,2,5.12,4.66,5.12a5.13,5.13,0,0,0,5.46-5.47v-9.13Z" style="fill: #4a4a49"/>
    <path d="M329.8,586.49a1.75,1.75,0,0,1,3.49,0,1.75,1.75,0,0,1-3.49,0Zm.6,6.07h2.26V609H330.4Z" style="fill: #4a4a49"/>
    <path d="M352.72,592.56l-7,16.47h-2.33l-6.87-16.47h2.39l5.65,13.71,5.71-13.71Z" style="fill: #4a4a49"/>
    <path d="M372.22,592.56V609H370v-3.21a7.37,7.37,0,0,1-6.56,3.56,8.59,8.59,0,0,1,0-17.17,7.36,7.36,0,0,1,6.56,3.52v-3.17ZM370,600.84a6.33,6.33,0,1,0-6.38,6.39A6.33,6.33,0,0,0,370,600.84Z" style="fill: #4a4a49"/>
    <path d="M378.21,583.28h2.26V609h-2.26Z" style="fill: #4a4a49"/>
    <path d="M401.8,601.73H387.62a5.84,5.84,0,0,0,6.17,5.5,6.14,6.14,0,0,0,5.36-2.82l1.94.84a8.53,8.53,0,1,1-7.37-13c4.69,0,8.11,3.31,8.11,8.53C401.83,601.06,401.83,601.41,401.8,601.73Zm-2.19-1.94a5.62,5.62,0,0,0-5.89-5.43,5.74,5.74,0,0,0-6.06,5.43Z" style="fill: #4a4a49"/>
    <path d="M421.26,599.43V609H419v-9.49c0-3.17-2-5.11-4.65-5.11a5.16,5.16,0,0,0-5.5,5.46V609h-2.26V592.56h2.26v3c1-2.36,3.66-3.31,5.71-3.31C418.54,592.21,421.26,594.88,421.26,599.43Z" style="fill: #4a4a49"/>
    <path d="M433.88,594.5h-3.77V609h-2.23V594.5h-3v-1.94h3V586h2.23v6.56h3.77Z" style="fill: #4a4a49"/>
    <path d="M436.2,604.58h2.09c.24,1.38,1.51,2.79,3.91,2.79s3.81-1.17,3.81-2.82c0-1.34-.92-2.22-2.61-2.65l-2.36-.56c-2.33-.57-4.2-1.77-4.2-4.52s2.29-4.61,5.43-4.61c2.75,0,5.29,1.51,5.4,4.47h-2.19a3,3,0,0,0-3.17-2.47c-1.91,0-3.21,1.1-3.21,2.65s1.34,2.22,2.54,2.5l2.43.6c3.21.78,4.19,2.72,4.19,4.62,0,2.93-2.64,4.8-6.06,4.8C439.34,609.38,436.49,607.72,436.2,604.58Z" style="fill: #4a4a49"/>
  </g>
  <g>
    <path d="M681.71,585.54V609h-2.23V588.89l-5,2.15v-2.22l7.16-3.28Z" style="fill: #4a4a49"/>
    <path d="M685.72,614.49a14.19,14.19,0,0,0,2.72-9.8h2.26A13.57,13.57,0,0,1,687.27,615Z" style="fill: #4a4a49"/>
    <path d="M695.31,597.46c0-6.6,1.73-11.92,8.29-11.92s8.22,5.32,8.22,11.92-1.66,11.92-8.22,11.92S695.31,604,695.31,597.46Zm14.28,0c0-5.36-1.2-9.77-6-9.77s-6,4.41-6,9.77,1.2,9.77,6,9.77S709.59,602.78,709.59,597.46Z" style="fill: #4a4a49"/>
    <path d="M730.29,606.84V609H716.22v-1l9.17-11c1.37-1.7,2.36-3.53,2.36-4.91,0-2.68-1.94-4.44-4.72-4.44-2.58,0-4.52,1.38-4.94,3.6l-2-.5c.56-3.24,3.28-5.25,6.95-5.25,4.12,0,7,2.61,7,6.59a10,10,0,0,1-2.61,5.93L720,606.84Z" style="fill: #4a4a49"/>
    <path d="M749.5,585.82v.25l-12.62,23h-2.65L745.8,588H734.27v-2.15Z" style="fill: #4a4a49"/>
    <path d="M747.31,614.49a14.19,14.19,0,0,0,2.72-9.8h2.26A13.6,13.6,0,0,1,748.87,615Z" style="fill: #4a4a49"/>
    <path d="M762.26,585.54V609H760V588.89L755,591v-2.22l7.16-3.28Z" style="fill: #4a4a49"/>
    <path d="M768.43,597.46c0-6.6,1.73-11.92,8.29-11.92s8.22,5.32,8.22,11.92-1.66,11.92-8.22,11.92S768.43,604,768.43,597.46Zm14.28,0c0-5.36-1.2-9.77-6-9.77s-6,4.41-6,9.77,1.2,9.77,6,9.77S782.71,602.78,782.71,597.46Z" style="fill: #4a4a49"/>
    <path d="M805.17,601.73c0,4.62-3.42,7.65-8,7.65a8.86,8.86,0,0,1-8.07-4.87l1.87-1a6.71,6.71,0,0,0,6.06,3.74c3.35,0,5.86-2.19,5.86-5.47s-2.4-5.25-5.54-5.25a12.73,12.73,0,0,0-6.14,2l-1.3-1.16,2-11.5h11.64V588h-9.8l-1.52,8.11a11.08,11.08,0,0,1,5.47-1.58C802.07,594.5,805.17,597.35,805.17,601.73Z" style="fill: #4a4a49"/>
  </g>
  <g>
    <path d="M970.39,585.54V609h-2.22V588.89l-5,2.15v-2.22l7.16-3.28Z" style="fill: #4a4a49"/>
    <path d="M974.4,614.49a14.19,14.19,0,0,0,2.72-9.8h2.26A13.6,13.6,0,0,1,976,615Z" style="fill: #4a4a49"/>
    <path d="M1000.85,604.12h-3.46V609h-2.25v-4.91H983v-.53l13.89-17.77h.49V602h3.46ZM995.14,602V591.22L986.74,602Z" style="fill: #4a4a49"/>
    <path d="M1021,604.12h-3.45V609h-2.26v-4.91h-12.13v-.53L1017,585.82h.5V602H1021Zm-5.71-2.15V591.22L1006.88,602Z" style="fill: #4a4a49"/>
    <path d="M1041.15,604.12h-3.46V609h-2.26v-4.91H1023.3v-.53l13.9-17.77h.49V602h3.46Zm-5.72-2.15V591.22L1027,602Z" style="fill: #4a4a49"/>
    <path d="M1042.94,614.49a14.19,14.19,0,0,0,2.72-9.8h2.26a13.57,13.57,0,0,1-3.43,10.33Z" style="fill: #4a4a49"/>
    <path d="M1052.53,597.46c0-6.6,1.73-11.92,8.29-11.92s8.22,5.32,8.22,11.92-1.66,11.92-8.22,11.92S1052.53,604,1052.53,597.46Zm14.28,0c0-5.36-1.2-9.77-6-9.77s-6,4.41-6,9.77,1.2,9.77,6,9.77S1066.81,602.78,1066.81,597.46Z" style="fill: #4a4a49"/>
    <path d="M1089.87,595.77c0,5-1.27,13.61-9.06,13.61A6.86,6.86,0,0,1,1074,605l2-.85a4.93,4.93,0,0,0,4.83,3.11c4.62,0,6.67-5.12,6.56-9.74a7,7,0,0,1-6,3.11,7.48,7.48,0,0,1-7.75-7.51c0-3.64,2.64-7.55,8-7.55S1089.87,589.6,1089.87,595.77Zm-2.5-2.15a5.72,5.72,0,0,0-11.43-.46,5.33,5.33,0,0,0,5.47,5.29C1084.09,598.45,1087.26,596.9,1087.37,593.62Z" style="fill: #4a4a49"/>
    <path d="M1108.94,585.82v.25l-12.62,23h-2.65L1105.24,588h-11.53v-2.15Z" style="fill: #4a4a49"/>
  </g>
  <g>
    <path d="M673.32,658.87v23.38h-4.06V664.48l-5.18,2v-3.8l8.95-3.85Z" style="fill: #fff"/>
    <path d="M676.45,687a12.73,12.73,0,0,0,2.79-9.31h3.88a12.51,12.51,0,0,1-4.2,10.26Z" style="fill: #fff"/>
    <path d="M694.79,658.87v23.38h-4.06V664.48l-5.18,2v-3.8l9-3.85Z" style="fill: #fff"/>
    <path d="M700.11,670.76c0-6.6,1.83-11.89,8.53-11.89s8.47,5.29,8.47,11.89-1.8,11.84-8.47,11.84S700.11,677.31,700.11,670.76Zm12.87,0c0-4.45-.92-8.08-4.34-8.08s-4.41,3.63-4.41,8.08,1,8,4.41,8S713,675.16,713,670.76Z" style="fill: #fff"/>
    <path d="M737.83,674.49c0,5-3.91,8.11-8.67,8.11a9.56,9.56,0,0,1-8.39-4.93l3.24-2a5.56,5.56,0,0,0,4.94,3.14c2.78,0,4.76-1.69,4.76-4.23a4.24,4.24,0,0,0-4.55-4.2,8.62,8.62,0,0,0-5.29,2.08l-2.43-1.69,2-11.57h12.83V663h-9.45l-1.09,5.36a8,8,0,0,1,4.55-1.44A7.27,7.27,0,0,1,737.83,674.49Z" style="fill: #fff"/>
    <path d="M739.45,687a12.73,12.73,0,0,0,2.79-9.31h3.88a12.48,12.48,0,0,1-4.2,10.26Z" style="fill: #fff"/>
    <path d="M750.42,670.76c0-6.6,1.83-11.89,8.53-11.89s8.47,5.29,8.47,11.89-1.8,11.84-8.47,11.84S750.42,677.31,750.42,670.76Zm12.87,0c0-4.45-.92-8.08-4.34-8.08s-4.41,3.63-4.41,8.08,1,8,4.41,8S763.29,675.16,763.29,670.76Z" style="fill: #fff"/>
    <path d="M786.52,675.52c0,4.23-3.42,7.05-8.28,7.05a8.28,8.28,0,0,1-7.55-4.34l3-2.15a5.23,5.23,0,0,0,4.41,2.75c2.54,0,4.34-1.41,4.34-3.45s-1.8-3.71-4.34-3.71H775.8v-3.21h1.62c2.47,0,4-1.37,3.92-3.17-.07-1.59-1.34-2.64-3.21-2.64a5,5,0,0,0-4,2l-2.43-2.51a8.31,8.31,0,0,1,6.73-3.28c4.06,0,7,2.44,7,6.28a5.1,5.1,0,0,1-3,4.69A5.87,5.87,0,0,1,786.52,675.52Z" style="fill: #fff"/>
    <path d="M806.41,659.15v.39l-11.15,22.71H790.5L800,663h-10v-3.85Z" style="fill: #fff"/>
  </g>
  <g>
    <path d="M972.47,658.87v23.38h-4.06V664.48l-5.18,2v-3.8l9-3.85Z" style="fill: #fff"/>
    <path d="M975.6,687a12.73,12.73,0,0,0,2.79-9.31h3.88a12.48,12.48,0,0,1-4.2,10.26Z" style="fill: #fff"/>
    <path d="M1003.42,674.49c0,5-3.91,8.11-8.67,8.11a9.56,9.56,0,0,1-8.39-4.93l3.24-2a5.56,5.56,0,0,0,4.94,3.14c2.78,0,4.76-1.69,4.76-4.23a4.24,4.24,0,0,0-4.55-4.2,8.62,8.62,0,0,0-5.29,2.08L987,670.72l2-11.57h12.83V663h-9.45l-1.09,5.36a8,8,0,0,1,4.55-1.44A7.27,7.27,0,0,1,1003.42,674.49Z" style="fill: #fff"/>
    <path d="M1024.61,677.7h-3.45v4.55H1017V677.7h-11.35v-1.09l13.61-17.46h1.87V674h3.45ZM1017,674v-6.63l-5.18,6.63Z" style="fill: #fff"/>
    <path d="M1036.07,658.87v23.38H1032V664.48l-5.18,2v-3.8l9-3.85Z" style="fill: #fff"/>
    <path d="M1039.21,687a12.77,12.77,0,0,0,2.78-9.31h3.88a12.48,12.48,0,0,1-4.2,10.26Z" style="fill: #fff"/>
    <path d="M1067.06,674.49c0,5-3.91,8.11-8.67,8.11a9.56,9.56,0,0,1-8.4-4.93l3.25-2a5.55,5.55,0,0,0,4.93,3.14c2.79,0,4.76-1.69,4.76-4.23a4.23,4.23,0,0,0-4.54-4.2,8.6,8.6,0,0,0-5.29,2.08l-2.44-1.69,2-11.57h12.84V663h-9.45l-1.09,5.36a8,8,0,0,1,4.54-1.44A7.28,7.28,0,0,1,1067.06,674.49Z" style="fill: #fff"/>
    <path d="M1087.4,674.49c0,5-3.91,8.11-8.67,8.11a9.56,9.56,0,0,1-8.39-4.93l3.24-2a5.56,5.56,0,0,0,4.94,3.14c2.78,0,4.76-1.69,4.76-4.23a4.24,4.24,0,0,0-4.55-4.2,8.62,8.62,0,0,0-5.29,2.08l-2.43-1.69,2-11.57h12.83V663h-9.45l-1.09,5.36a8,8,0,0,1,4.55-1.44A7.28,7.28,0,0,1,1087.4,674.49Z" style="fill: #fff"/>
    <path d="M1107.75,674.49c0,5-3.92,8.11-8.68,8.11a9.56,9.56,0,0,1-8.39-4.93l3.24-2a5.56,5.56,0,0,0,4.94,3.14c2.78,0,4.76-1.69,4.76-4.23a4.24,4.24,0,0,0-4.55-4.2,8.62,8.62,0,0,0-5.29,2.08l-2.43-1.69,2-11.57h12.83V663h-9.45l-1.09,5.36a8,8,0,0,1,4.55-1.44A7.28,7.28,0,0,1,1107.75,674.49Z" style="fill: #fff"/>
  </g>
  <g>
    <path d="M679.17,732.31v23.38h-4.06V737.92L669.93,740v-3.81l9-3.85Z" style="fill: #fff"/>
    <path d="M682.3,760.45a12.73,12.73,0,0,0,2.79-9.31H689a12.52,12.52,0,0,1-4.2,10.27Z" style="fill: #fff"/>
    <path d="M700.64,732.31v23.38h-4.06V737.92L691.4,740v-3.81l9-3.85Z" style="fill: #fff"/>
    <path d="M722.5,747.94c0,5-3.91,8.11-8.67,8.11a9.55,9.55,0,0,1-8.4-4.94l3.25-2.05a5.55,5.55,0,0,0,4.93,3.14c2.79,0,4.76-1.69,4.76-4.23a4.23,4.23,0,0,0-4.54-4.2,8.66,8.66,0,0,0-5.29,2.08l-2.44-1.69,2-11.56H721v3.8H711.5l-1.09,5.36a8,8,0,0,1,4.54-1.44A7.28,7.28,0,0,1,722.5,747.94Z" style="fill: #fff"/>
    <path d="M741.22,749c0,4.23-3.42,7-8.29,7a8.27,8.27,0,0,1-7.54-4.34l3-2.15a5.22,5.22,0,0,0,4.41,2.75c2.54,0,4.33-1.41,4.33-3.45,0-2.19-1.79-3.71-4.33-3.71H730.5v-3.2h1.62c2.47,0,4-1.38,3.92-3.18-.07-1.58-1.34-2.64-3.21-2.64a5,5,0,0,0-4,2l-2.43-2.51a8.3,8.3,0,0,1,6.73-3.28c4.06,0,7,2.44,7,6.28a5.1,5.1,0,0,1-3,4.69A5.87,5.87,0,0,1,741.22,749Z" style="fill: #fff"/>
    <path d="M743,760.45a12.77,12.77,0,0,0,2.79-9.31h3.87a12.51,12.51,0,0,1-4.19,10.27Z" style="fill: #fff"/>
    <path d="M761.28,732.31v23.38h-4.06V737.92L752,740v-3.81l9-3.85Z" style="fill: #fff"/>
    <path d="M784,748.78c0,4.34-3.85,7.27-8.86,7.27s-8.85-2.93-8.85-7.23a6.47,6.47,0,0,1,4.38-6.24,4.89,4.89,0,0,1-2.54-4.41c0-3.42,3-5.86,7-5.86s7,2.44,7,5.86a4.89,4.89,0,0,1-2.54,4.41A6.42,6.42,0,0,1,784,748.78Zm-4.27-.35c0-2.29-2-4-4.59-4s-4.61,1.7-4.61,4,2,3.88,4.61,3.88S779.72,750.65,779.72,748.43Zm-7.55-9.84a3,3,0,1,0,3-2.71A2.84,2.84,0,0,0,772.17,738.59Z" style="fill: #fff"/>
    <path d="M804.93,748.32c0,4.27-3.32,7.73-8.39,7.73-5.5,0-8.85-4.09-8.85-11.15,0-6.31,2.89-12.59,9.66-12.59a7.64,7.64,0,0,1,7.33,4.62l-3.42,1.73a4.17,4.17,0,0,0-3.91-2.54c-3.14,0-5.4,3-5.43,7a6.52,6.52,0,0,1,5.18-2.36A7.53,7.53,0,0,1,804.93,748.32Zm-4.16,0a4,4,0,0,0-4.09-3.92c-2.54,0-4.41,1.59-4.48,3.81a4,4,0,0,0,4.23,4C799,752.2,800.77,750.54,800.77,748.29Z" style="fill: #fff"/>
  </g>
  <g>
    <path d="M979.52,732.31v23.38h-4.06V737.92L970.28,740v-3.81l9-3.85Z" style="fill: #fff"/>
    <path d="M982.65,760.45a12.73,12.73,0,0,0,2.79-9.31h3.88a12.52,12.52,0,0,1-4.2,10.27Z" style="fill: #fff"/>
    <path d="M1010.76,748.32c0,4.27-3.32,7.73-8.4,7.73-5.5,0-8.85-4.09-8.85-11.15,0-6.31,2.9-12.59,9.67-12.59a7.64,7.64,0,0,1,7.33,4.62l-3.42,1.73a4.17,4.17,0,0,0-3.91-2.54c-3.14,0-5.4,3-5.43,7a6.52,6.52,0,0,1,5.18-2.36A7.53,7.53,0,0,1,1010.76,748.32Zm-4.16,0a4,4,0,0,0-4.1-3.92c-2.53,0-4.4,1.59-4.47,3.81a4,4,0,0,0,4.23,4C1004.8,752.2,1006.6,750.54,1006.6,748.29Z" style="fill: #fff"/>
    <path d="M1014.74,744.2c0-6.6,1.83-11.89,8.53-11.89s8.46,5.29,8.46,11.89-1.79,11.85-8.46,11.85S1014.74,750.76,1014.74,744.2Zm12.87,0c0-4.45-.92-8.08-4.34-8.08s-4.41,3.63-4.41,8.08,1,8,4.41,8S1027.61,748.61,1027.61,744.2Z" style="fill: #fff"/>
    <path d="M1044.21,732.31v23.38h-4V737.92L1035,740v-3.81l9-3.85Z" style="fill: #fff"/>
    <path d="M1047.35,760.45a12.72,12.72,0,0,0,2.78-9.31H1054a12.51,12.51,0,0,1-4.19,10.27Z" style="fill: #fff"/>
    <path d="M1075.17,747.94c0,5-3.92,8.11-8.68,8.11a9.55,9.55,0,0,1-8.39-4.94l3.25-2.05a5.55,5.55,0,0,0,4.93,3.14c2.79,0,4.76-1.69,4.76-4.23a4.23,4.23,0,0,0-4.55-4.2,8.65,8.65,0,0,0-5.28,2.08l-2.44-1.69,2-11.56h12.84v3.8h-9.45l-1.1,5.36a8,8,0,0,1,4.55-1.44A7.28,7.28,0,0,1,1075.17,747.94Z" style="fill: #fff"/>
    <path d="M1093.89,749c0,4.23-3.42,7-8.29,7a8.27,8.27,0,0,1-7.54-4.34l3-2.15a5.22,5.22,0,0,0,4.41,2.75c2.54,0,4.33-1.41,4.33-3.45,0-2.19-1.79-3.71-4.33-3.71h-2.26v-3.2h1.62c2.47,0,4-1.38,3.92-3.18-.07-1.58-1.34-2.64-3.21-2.64a5,5,0,0,0-4,2l-2.44-2.51a8.33,8.33,0,0,1,6.74-3.28c4.06,0,7,2.44,7,6.28a5.1,5.1,0,0,1-3,4.69A5.86,5.86,0,0,1,1093.89,749Z" style="fill: #fff"/>
    <path d="M1106.09,732.31v23.38H1102V737.92l-5.18,2.05v-3.81l9-3.85Z" style="fill: #fff"/>
  </g>
</svg>
