<svg id="Layer_1" data-name="Layer 1" xmlns="http://www.w3.org/2000/svg" xmlns:xlink="http://www.w3.org/1999/xlink" width="580" height="712" viewBox="0 0 580 712">
  <defs>
    <clipPath id="clip-path">
      <rect x="10" y="0.38" width="882.88" height="720.62" style="fill: none"/>
    </clipPath>
  </defs>
  <rect x="26.9" y="600.01" width="18.78" height="18.78" style="fill: #3180a4"/>
  <g>
    <path d="M76.19,616.33v2.45H66.43V603.25H76v2.46h-6.8v4.19h6v2.51h-6v3.92Z" style="fill: #4a4a49"/>
    <path d="M85.81,618.78l-2.55-3.63-2.57,3.63H77.63L81.77,613l-3.44-4.78h3.08l1.85,2.68,1.85-2.68H88.2L84.75,613l4.15,5.74Z" style="fill: #4a4a49"/>
    <path d="M102.06,613.51A5.16,5.16,0,0,1,96.89,619a4.13,4.13,0,0,1-3.51-1.63v6.56H90.76V608.26h2.62v1.4A4.24,4.24,0,0,1,96.87,608,5.2,5.2,0,0,1,102.06,613.51Zm-2.62,0a3,3,0,1,0-6,0,3,3,0,0,0,3,3A3,3,0,0,0,99.44,613.53Z" style="fill: #4a4a49"/>
    <path d="M114.94,614.43h-8.13a2.73,2.73,0,0,0,3,2.21,3.52,3.52,0,0,0,2.87-1.31l1.73,1.34a5.52,5.52,0,0,1-4.73,2.34,5.49,5.49,0,1,1,0-11,5.17,5.17,0,0,1,5.39,5.39A7.8,7.8,0,0,1,114.94,614.43Zm-2.54-1.82a2.54,2.54,0,0,0-2.73-2.28,2.66,2.66,0,0,0-2.86,2.28Z" style="fill: #4a4a49"/>
    <path d="M127.72,612.88v5.9h-2.61v-5.65a2.24,2.24,0,0,0-2.19-2.53,2.52,2.52,0,0,0-2.68,2.68v5.5h-2.62V608.26h2.62v1.67a3.64,3.64,0,0,1,3.27-1.9C126.21,608,127.72,609.81,127.72,612.88Z" style="fill: #4a4a49"/>
    <path d="M141.58,602.62v16.16H139v-1.42a4.18,4.18,0,0,1-3.49,1.65,5.5,5.5,0,0,1,0-11,4.19,4.19,0,0,1,3.51,1.63v-7Zm-2.66,10.87a3,3,0,0,0-3-3,2.94,2.94,0,0,0-3,3,3,3,0,0,0,3,3.06A3,3,0,0,0,138.92,613.49Z" style="fill: #4a4a49"/>
    <path d="M144.5,604.54a1.65,1.65,0,0,1,1.72-1.6,1.6,1.6,0,1,1,0,3.2A1.67,1.67,0,0,1,144.5,604.54Zm.41,3.72h2.61v10.52h-2.61Z" style="fill: #4a4a49"/>
    <path d="M156.63,610.35H154.4v8.43h-2.62v-8.43h-1.89v-2.09h1.89v-3.88h2.62v3.88h2.23Z" style="fill: #4a4a49"/>
    <path d="M168.82,608.26v10.52h-2.61v-1.64a3.67,3.67,0,0,1-3.27,1.89c-2.71,0-4.22-1.8-4.22-4.87v-5.9h2.62v5.66a2.23,2.23,0,0,0,2.18,2.54,2.52,2.52,0,0,0,2.69-2.7v-5.5Z" style="fill: #4a4a49"/>
    <path d="M179.5,608.39l-.52,2.48a3.36,3.36,0,0,0-1.53-.38c-1.71,0-2.66,1.67-2.66,4.62v3.67h-2.64V608.26h2.62v2.25a3.09,3.09,0,0,1,3-2.48A3.93,3.93,0,0,1,179.5,608.39Z" style="fill: #4a4a49"/>
    <path d="M191.35,614.43h-8.13a2.73,2.73,0,0,0,3,2.21,3.49,3.49,0,0,0,2.86-1.31l1.74,1.34a5.52,5.52,0,0,1-4.73,2.34,5.49,5.49,0,1,1,0-11,5.18,5.18,0,0,1,5.39,5.39A7.8,7.8,0,0,1,191.35,614.43Zm-2.54-1.82a2.54,2.54,0,0,0-2.73-2.28,2.66,2.66,0,0,0-2.86,2.28Z" style="fill: #4a4a49"/>
    <path d="M199.1,613.49a5.6,5.6,0,0,1,11.2,0,5.6,5.6,0,0,1-11.2,0Zm8.57,0a3,3,0,1,0-3,3.08A3,3,0,0,0,207.67,613.49Z" style="fill: #4a4a49"/>
    <path d="M223.08,612.88v5.9h-2.62v-5.65a2.24,2.24,0,0,0-2.18-2.53,2.51,2.51,0,0,0-2.68,2.68v5.5H213V608.26h2.62v1.67a3.64,3.64,0,0,1,3.27-1.9C221.57,608,223.08,609.81,223.08,612.88Z" style="fill: #4a4a49"/>
    <path d="M243.29,613.51a5.21,5.21,0,0,1-5.18,5.5,4.23,4.23,0,0,1-3.5-1.65v1.42H232V602.62h2.61v7a4.22,4.22,0,0,1,3.52-1.63A5.16,5.16,0,0,1,243.29,613.51Zm-2.61,0a3,3,0,0,0-3-3,3,3,0,1,0,0,6.08A3,3,0,0,0,240.68,613.49Z" style="fill: #4a4a49"/>
    <path d="M256.18,614.43H248a2.74,2.74,0,0,0,3,2.21,3.49,3.49,0,0,0,2.86-1.31l1.74,1.34a5.53,5.53,0,0,1-4.74,2.34,5.49,5.49,0,1,1,0-11,5.18,5.18,0,0,1,5.39,5.39A7.8,7.8,0,0,1,256.18,614.43Zm-2.55-1.82a2.52,2.52,0,0,0-2.72-2.28,2.67,2.67,0,0,0-2.87,2.28Z" style="fill: #4a4a49"/>
    <path d="M269,612.88v5.9h-2.62v-5.65a2.24,2.24,0,0,0-2.18-2.53,2.52,2.52,0,0,0-2.69,2.68v5.5h-2.61V602.62h2.61v7.24a3.69,3.69,0,0,1,3.27-1.83C267.45,608,269,609.81,269,612.88Z" style="fill: #4a4a49"/>
    <path d="M282.81,608.26v10.52H280.2v-1.42a4.18,4.18,0,0,1-3.49,1.65,5.5,5.5,0,0,1,0-11,4.21,4.21,0,0,1,3.52,1.63v-1.4Zm-2.66,5.23a3,3,0,0,0-3-3,2.93,2.93,0,0,0-2.95,3,3,3,0,0,0,2.95,3.06A3,3,0,0,0,280.15,613.49Z" style="fill: #4a4a49"/>
    <path d="M286.12,602.62h2.62v16.16h-2.62Z" style="fill: #4a4a49"/>
    <path d="M295.66,607.33v.93H298v2.09h-2.34v8.43H293v-8.43h-2v-2.09h2v-.79c0-3,1.44-4.85,4.37-4.85h1.24v2.44h-.72C296.15,605.06,295.63,606.05,295.66,607.33Z" style="fill: #4a4a49"/>
    <path d="M305,613.49a5.6,5.6,0,0,1,11.2,0,5.6,5.6,0,0,1-11.2,0Zm8.56,0a3,3,0,1,0-3,3.08A3,3,0,0,0,313.59,613.49Z" style="fill: #4a4a49"/>
    <path d="M322.31,607.33v.93h2.35v2.09h-2.35v8.43H319.7v-8.43h-2v-2.09h2v-.79c0-3,1.44-4.85,4.37-4.85h1.24v2.44h-.72C322.81,605.06,322.29,606.05,322.31,607.33Z" style="fill: #4a4a49"/>
    <path d="M331.69,613.49a5.6,5.6,0,0,1,11.2,0,5.6,5.6,0,0,1-11.2,0Zm8.56,0a3,3,0,1,0-3,3.08A3,3,0,0,0,340.25,613.49Z" style="fill: #4a4a49"/>
    <path d="M356.86,613.51a5.21,5.21,0,0,1-5.19,5.5,4.2,4.2,0,0,1-3.49-1.65v1.42h-2.61V602.62h2.61v7A4.21,4.21,0,0,1,351.7,608,5.16,5.16,0,0,1,356.86,613.51Zm-2.62,0a3,3,0,0,0-3-3,3,3,0,1,0,0,6.08A3,3,0,0,0,354.24,613.49Z" style="fill: #4a4a49"/>
    <path d="M356.7,621.49H358c1.38,0,1.76-1.13,1.74-2.32V608.26h2.61v10.91c0,2.93-1.31,4.75-4.26,4.75H356.7Zm2.63-17a1.71,1.71,0,0,1,3.41,0,1.71,1.71,0,0,1-3.41,0Z" style="fill: #4a4a49"/>
    <path d="M375.85,614.43h-8.13a2.73,2.73,0,0,0,3,2.21,3.49,3.49,0,0,0,2.86-1.31l1.74,1.34a5.52,5.52,0,0,1-4.73,2.34,5.49,5.49,0,1,1,0-11,5.18,5.18,0,0,1,5.39,5.39A7.8,7.8,0,0,1,375.85,614.43Zm-2.54-1.82a2.54,2.54,0,0,0-2.73-2.28,2.66,2.66,0,0,0-2.86,2.28Z" style="fill: #4a4a49"/>
    <path d="M377.88,613.51A5.48,5.48,0,0,1,383.6,608a5.28,5.28,0,0,1,4.28,2L386,611.53a3.09,3.09,0,0,0-2.36-1.06,3,3,0,1,0,0,6.08,3.09,3.09,0,0,0,2.36-1.06l1.87,1.47a5.37,5.37,0,0,1-4.28,2A5.49,5.49,0,0,1,377.88,613.51Z" style="fill: #4a4a49"/>
    <path d="M396.13,610.35H393.9v8.43h-2.61v-8.43h-1.9v-2.09h1.9v-3.88h2.61v3.88h2.23Z" style="fill: #4a4a49"/>
    <path d="M397.93,604.54a1.65,1.65,0,0,1,1.72-1.6,1.6,1.6,0,1,1,0,3.2A1.67,1.67,0,0,1,397.93,604.54Zm.41,3.72H401v10.52h-2.61Z" style="fill: #4a4a49"/>
    <path d="M414.14,608.26l-4.44,10.52h-2.39l-4.4-10.52h2.82l2.79,7.21,2.78-7.21Z" style="fill: #4a4a49"/>
    <path d="M426,614.43H417.9a2.73,2.73,0,0,0,3,2.21,3.49,3.49,0,0,0,2.86-1.31l1.74,1.34a5.52,5.52,0,0,1-4.73,2.34,5.49,5.49,0,1,1,0-11,5.18,5.18,0,0,1,5.39,5.39A7.8,7.8,0,0,1,426,614.43Zm-2.54-1.82a2.54,2.54,0,0,0-2.73-2.28,2.66,2.66,0,0,0-2.86,2.28Z" style="fill: #4a4a49"/>
    <path d="M428,615.49h2.46a1.54,1.54,0,0,0,1.73,1.4c1,0,1.72-.47,1.72-1.15s-.45-.86-1.24-1l-1.4-.36c-2.37-.63-3-1.89-3-3.22,0-1.64,1.63-3.09,3.93-3.09,1.87,0,4,.93,4,3.29h-2.5a1.27,1.27,0,0,0-1.4-1.19c-.81,0-1.37.45-1.37,1.1s.52.86,1.13,1l1.69.46c2.36.6,2.79,2.09,2.79,3.06,0,2.14-2.14,3.27-4.28,3.27S428,617.75,428,615.49Z" style="fill: #4a4a49"/>
  </g>
  <rect x="26.9" y="633.81" width="18.78" height="18.78" style="fill: #76c3e2"/>
  <g>
    <path d="M65.44,644.83a7.91,7.91,0,0,1,7.89-8,7.73,7.73,0,0,1,6.17,3l-2.07,1.57a5,5,0,0,0-4-2,5.39,5.39,0,0,0,0,10.78,5,5,0,0,0,4-2l2.07,1.56a7.67,7.67,0,0,1-6.17,3A7.91,7.91,0,0,1,65.44,644.83Z" style="fill: #4a4a49"/>
    <path d="M81.12,647.29a5.6,5.6,0,0,1,11.2,0,5.6,5.6,0,0,1-11.2,0Zm8.56,0a3,3,0,1,0-3,3.09A3,3,0,0,0,89.68,647.29Z" style="fill: #4a4a49"/>
    <path d="M94.28,649.29h2.46a1.54,1.54,0,0,0,1.73,1.4c1,0,1.71-.47,1.71-1.15s-.45-.86-1.24-1l-1.39-.36c-2.37-.63-3-1.89-3-3.22,0-1.64,1.63-3.09,3.92-3.09,1.87,0,4,.93,4,3.29H100a1.27,1.27,0,0,0-1.4-1.19c-.81,0-1.37.45-1.37,1.1s.52.86,1.12,1l1.69.45c2.37.6,2.8,2.09,2.8,3.06,0,2.14-2.14,3.27-4.28,3.27S94.32,651.55,94.28,649.29Z" style="fill: #4a4a49"/>
    <path d="M111.2,644.16H109v8.42h-2.61v-8.42h-1.9v-2.1h1.9v-3.88H109v3.88h2.23Z" style="fill: #4a4a49"/>
    <path d="M112.6,649.29h2.45a1.55,1.55,0,0,0,1.74,1.4c1,0,1.71-.47,1.71-1.15s-.45-.86-1.24-1l-1.39-.36c-2.37-.63-3-1.89-3-3.22,0-1.64,1.62-3.09,3.92-3.09,1.87,0,4,.93,4,3.29h-2.5a1.27,1.27,0,0,0-1.4-1.19c-.81,0-1.37.45-1.37,1.1s.51.86,1.12,1l1.69.45c2.37.6,2.8,2.09,2.8,3.06,0,2.14-2.14,3.27-4.28,3.27S112.64,651.55,112.6,649.29Z" style="fill: #4a4a49"/>
    <path d="M146.22,646.68v5.9h-2.59v-5.7c0-1.69-.88-2.52-2.1-2.52-1.51,0-2.45,1.12-2.34,3l0-.09v5.29h-2.62v-5.7c0-1.69-.88-2.52-2-2.52a2.34,2.34,0,0,0-2.44,2.68v5.54H129.5V642.06h2.61v1.8a3.19,3.19,0,0,1,3.14-2,3.54,3.54,0,0,1,3.4,2.08,3.86,3.86,0,0,1,3.54-2.08C144.82,641.83,146.22,643.61,146.22,646.68Z" style="fill: #4a4a49"/>
    <path d="M160.08,642.06v10.52h-2.62v-1.42a4.18,4.18,0,0,1-3.49,1.65,5.5,5.5,0,0,1,0-11,4.19,4.19,0,0,1,3.51,1.63v-1.4Zm-2.66,5.23a3,3,0,0,0-3-3,2.94,2.94,0,0,0-3,3,3,3,0,1,0,6,0Z" style="fill: #4a4a49"/>
    <path d="M173.51,646.68v5.9h-2.62v-5.65a2.24,2.24,0,0,0-2.18-2.53,2.52,2.52,0,0,0-2.69,2.68v5.5h-2.61V642.06H166v1.67a3.67,3.67,0,0,1,3.27-1.9C172,641.83,173.51,643.61,173.51,646.68Z" style="fill: #4a4a49"/>
    <path d="M187.37,642.06v10.52h-2.62v-1.42a4.18,4.18,0,0,1-3.49,1.65,5.5,5.5,0,0,1,0-11,4.19,4.19,0,0,1,3.51,1.63v-1.4Zm-2.66,5.23a3,3,0,0,0-3.05-3,2.93,2.93,0,0,0-2.95,3,3,3,0,0,0,2.95,3.06A3,3,0,0,0,184.71,647.29Z" style="fill: #4a4a49"/>
    <path d="M201.36,642.06v9c0,4.73-2.3,6.78-5.91,6.78a5.45,5.45,0,0,1-5-3.09l2.17-1a3.18,3.18,0,0,0,2.81,1.71c2,0,3.29-1.17,3.29-4.17v-.15a4.3,4.3,0,0,1-3.49,1.62,5.5,5.5,0,0,1,0-11,4.24,4.24,0,0,1,3.51,1.6v-1.37Zm-2.66,5.23a3,3,0,0,0-3-3,2.94,2.94,0,0,0-3,3,3,3,0,1,0,6,0Z" style="fill: #4a4a49"/>
    <path d="M214.88,648.23h-8.14a2.74,2.74,0,0,0,3,2.21,3.51,3.51,0,0,0,2.86-1.3l1.73,1.33a5.51,5.51,0,0,1-4.73,2.34,5.49,5.49,0,1,1,0-11,5.18,5.18,0,0,1,5.39,5.39A10.1,10.1,0,0,1,214.88,648.23Zm-2.55-1.82a2.53,2.53,0,0,0-2.73-2.28,2.66,2.66,0,0,0-2.86,2.28Z" style="fill: #4a4a49"/>
    <path d="M234.28,646.68v5.9h-2.59v-5.7c0-1.69-.88-2.52-2.1-2.52-1.51,0-2.45,1.12-2.34,3l0-.09v5.29h-2.62v-5.7c0-1.69-.88-2.52-2-2.52a2.34,2.34,0,0,0-2.44,2.68v5.54h-2.61V642.06h2.61v1.8a3.17,3.17,0,0,1,3.13-2,3.54,3.54,0,0,1,3.41,2.08,3.86,3.86,0,0,1,3.54-2.08C232.88,641.83,234.28,643.61,234.28,646.68Z" style="fill: #4a4a49"/>
    <path d="M247.69,648.23h-8.14a2.73,2.73,0,0,0,3,2.21,3.52,3.52,0,0,0,2.86-1.3l1.73,1.33a5.51,5.51,0,0,1-4.73,2.34,5.49,5.49,0,1,1,0-11,5.17,5.17,0,0,1,5.38,5.39A9.82,9.82,0,0,1,247.69,648.23Zm-2.55-1.82a2.53,2.53,0,0,0-2.73-2.28,2.66,2.66,0,0,0-2.86,2.28Z" style="fill: #4a4a49"/>
    <path d="M260.46,646.68v5.9h-2.61v-5.65a2.24,2.24,0,0,0-2.19-2.53,2.52,2.52,0,0,0-2.68,2.68v5.5h-2.61V642.06H253v1.67a3.65,3.65,0,0,1,3.27-1.9C259,641.83,260.46,643.61,260.46,646.68Z" style="fill: #4a4a49"/>
    <path d="M269.32,644.16h-2.23v8.42h-2.62v-8.42h-1.89v-2.1h1.89v-3.88h2.62v3.88h2.23Z" style="fill: #4a4a49"/>
    <path d="M287.93,642.06v10.52h-2.61v-1.42a4.19,4.19,0,0,1-3.5,1.65,5.5,5.5,0,0,1,0-11,4.22,4.22,0,0,1,3.52,1.63v-1.4Zm-2.66,5.23a3,3,0,0,0-3-3,2.93,2.93,0,0,0-3,3,3,3,0,1,0,6,0Z" style="fill: #4a4a49"/>
    <path d="M301.34,646.68v5.9h-2.62v-5.65a2.24,2.24,0,0,0-2.18-2.53,2.52,2.52,0,0,0-2.69,2.68v5.5h-2.61V642.06h2.61v1.67a3.65,3.65,0,0,1,3.27-1.9C299.83,641.83,301.34,643.61,301.34,646.68Z" style="fill: #4a4a49"/>
    <path d="M315.19,636.42v16.16h-2.61v-1.42a4.18,4.18,0,0,1-3.49,1.65,5.21,5.21,0,0,1-5.19-5.5,5.16,5.16,0,0,1,5.16-5.48,4.21,4.21,0,0,1,3.52,1.63v-7Zm-2.65,10.87a3,3,0,0,0-3.05-3,2.93,2.93,0,0,0-2.95,3,3,3,0,0,0,2.95,3.06A3,3,0,0,0,312.54,647.29Z" style="fill: #4a4a49"/>
    <path d="M334.91,642.06v10.52H332.3v-1.42a4.18,4.18,0,0,1-3.5,1.65,5.5,5.5,0,0,1,0-11,4.21,4.21,0,0,1,3.52,1.63v-1.4Zm-2.66,5.23a3,3,0,0,0-3-3,2.93,2.93,0,0,0-2.95,3,3,3,0,1,0,6,0Z" style="fill: #4a4a49"/>
    <path d="M348.88,636.42v16.16h-2.61v-1.42a4.18,4.18,0,0,1-3.5,1.65,5.5,5.5,0,0,1,0-11,4.21,4.21,0,0,1,3.52,1.63v-7Zm-2.66,10.87a3,3,0,0,0-3-3,2.93,2.93,0,0,0-2.95,3,3,3,0,1,0,6,0Z" style="fill: #4a4a49"/>
    <path d="M368.91,646.68v5.9h-2.59v-5.7c0-1.69-.88-2.52-2.09-2.52-1.51,0-2.46,1.12-2.35,3l0-.09v5.29h-2.61v-5.7c0-1.69-.88-2.52-2-2.52s-2.43.67-2.43,2.68v5.54h-2.62V642.06h2.62v1.8a3.16,3.16,0,0,1,3.13-2,3.54,3.54,0,0,1,3.4,2.08,3.87,3.87,0,0,1,3.54-2.08C367.52,641.83,368.91,643.61,368.91,646.68Z" style="fill: #4a4a49"/>
    <path d="M371.73,638.34a1.65,1.65,0,0,1,1.71-1.6,1.6,1.6,0,1,1,0,3.2A1.66,1.66,0,0,1,371.73,638.34Zm.4,3.72h2.62v10.52h-2.62Z" style="fill: #4a4a49"/>
    <path d="M388.18,646.68v5.9h-2.62v-5.65a2.24,2.24,0,0,0-2.18-2.53,2.51,2.51,0,0,0-2.68,2.68v5.5h-2.62V642.06h2.62v1.67a3.64,3.64,0,0,1,3.26-1.9C386.67,641.83,388.18,643.61,388.18,646.68Z" style="fill: #4a4a49"/>
    <path d="M391,638.34a1.65,1.65,0,0,1,1.71-1.6,1.6,1.6,0,1,1,0,3.2A1.66,1.66,0,0,1,391,638.34Zm.41,3.72H394v10.52h-2.61Z" style="fill: #4a4a49"/>
    <path d="M396.58,649.29H399a1.54,1.54,0,0,0,1.73,1.4c1,0,1.72-.47,1.72-1.15s-.45-.86-1.24-1l-1.4-.36c-2.37-.63-3-1.89-3-3.22,0-1.64,1.63-3.09,3.92-3.09,1.88,0,4,.93,4,3.29h-2.5a1.27,1.27,0,0,0-1.4-1.19c-.81,0-1.37.45-1.37,1.1s.52.86,1.13,1l1.69.45c2.36.6,2.79,2.09,2.79,3.06,0,2.14-2.14,3.27-4.28,3.27S396.63,651.55,396.58,649.29Z" style="fill: #4a4a49"/>
    <path d="M413.5,644.16h-2.23v8.42h-2.61v-8.42h-1.89v-2.1h1.89v-3.88h2.61v3.88h2.23Z" style="fill: #4a4a49"/>
    <path d="M423.08,642.19l-.52,2.48a3.33,3.33,0,0,0-1.53-.38c-1.71,0-2.66,1.67-2.66,4.62v3.67h-2.64V642.06h2.62v2.25a3.09,3.09,0,0,1,3-2.48A3.9,3.9,0,0,1,423.08,642.19Z" style="fill: #4a4a49"/>
    <path d="M435.41,642.06v10.52h-2.62v-1.42a4.18,4.18,0,0,1-3.49,1.65,5.5,5.5,0,0,1,0-11,4.19,4.19,0,0,1,3.51,1.63v-1.4Zm-2.66,5.23a3,3,0,0,0-3-3,2.94,2.94,0,0,0-3,3,3,3,0,1,0,6,0Z" style="fill: #4a4a49"/>
    <path d="M444.51,644.16h-2.23v8.42h-2.61v-8.42h-1.9v-2.1h1.9v-3.88h2.61v3.88h2.23Z" style="fill: #4a4a49"/>
    <path d="M446.33,638.34a1.65,1.65,0,0,1,1.72-1.6,1.6,1.6,0,1,1,0,3.2A1.67,1.67,0,0,1,446.33,638.34Zm.41,3.72h2.61v10.52h-2.61Z" style="fill: #4a4a49"/>
    <path d="M452,647.29a5.6,5.6,0,0,1,11.2,0,5.6,5.6,0,0,1-11.2,0Zm8.57,0a3,3,0,1,0-3,3.09A3,3,0,0,0,460.58,647.29Z" style="fill: #4a4a49"/>
    <path d="M476,646.68v5.9h-2.62v-5.65a2.24,2.24,0,0,0-2.18-2.53,2.52,2.52,0,0,0-2.69,2.68v5.5h-2.61V642.06h2.61v1.67a3.67,3.67,0,0,1,3.27-1.9C474.46,641.83,476,643.61,476,646.68Z" style="fill: #4a4a49"/>
  </g>
  <rect x="26.9" y="667.61" width="18.78" height="18.78" style="fill: #bfb2b5"/>
  <g>
    <path d="M65.44,678.63a7.91,7.91,0,0,1,7.89-8,7.73,7.73,0,0,1,6.17,3l-2.07,1.57a5,5,0,0,0-4-2,5.39,5.39,0,0,0,0,10.77,5,5,0,0,0,4-2l2.07,1.56a7.67,7.67,0,0,1-6.17,3A7.91,7.91,0,0,1,65.44,678.63Z" style="fill: #4a4a49"/>
    <path d="M81.12,681.09a5.6,5.6,0,0,1,11.2,0,5.6,5.6,0,0,1-11.2,0Zm8.56,0a3,3,0,1,0-3,3.09A3,3,0,0,0,89.68,681.09Z" style="fill: #4a4a49"/>
    <path d="M94.28,683.09h2.46c0,.73.63,1.4,1.73,1.4s1.71-.47,1.71-1.15-.45-.85-1.24-1L97.55,682c-2.37-.64-3-1.9-3-3.23,0-1.64,1.63-3.09,3.92-3.09,1.87,0,4,.93,4,3.29H100a1.27,1.27,0,0,0-1.4-1.19c-.81,0-1.37.45-1.37,1.1s.52.86,1.12,1l1.69.45c2.37.61,2.8,2.09,2.8,3.06,0,2.14-2.14,3.27-4.28,3.27S94.32,685.35,94.28,683.09Z" style="fill: #4a4a49"/>
    <path d="M111.2,678H109v8.42h-2.61V678h-1.9v-2.1h1.9V672H109v3.88h2.23Z" style="fill: #4a4a49"/>
    <path d="M112.6,683.09h2.45c0,.73.64,1.4,1.74,1.4s1.71-.47,1.71-1.15-.45-.85-1.24-1l-1.39-.36c-2.37-.64-3-1.9-3-3.23,0-1.64,1.62-3.09,3.92-3.09,1.87,0,4,.93,4,3.29h-2.5a1.27,1.27,0,0,0-1.4-1.19c-.81,0-1.37.45-1.37,1.1s.51.86,1.12,1l1.69.45c2.37.61,2.8,2.09,2.8,3.06,0,2.14-2.14,3.27-4.28,3.27S112.64,685.35,112.6,683.09Z" style="fill: #4a4a49"/>
    <path d="M128.84,681.09a5.61,5.61,0,0,1,11.21,0,5.61,5.61,0,0,1-11.21,0Zm8.57,0a3,3,0,1,0-3,3.09A3,3,0,0,0,137.41,681.09Z" style="fill: #4a4a49"/>
    <path d="M154,681.11a5.21,5.21,0,0,1-5.18,5.5,4.2,4.2,0,0,1-3.49-1.65v1.42H142.7V670.23h2.62v7a4.19,4.19,0,0,1,3.51-1.63A5.16,5.16,0,0,1,154,681.11Zm-2.61,0a3,3,0,0,0-3-3,3,3,0,1,0,0,6.08A3,3,0,0,0,151.38,681.09Z" style="fill: #4a4a49"/>
    <path d="M162.28,678h-2.23v8.42h-2.61V678h-1.89v-2.1h1.89V672h2.61v3.88h2.23Z" style="fill: #4a4a49"/>
    <path d="M175,675.86v10.52h-2.62V685a4.16,4.16,0,0,1-3.49,1.65,5.5,5.5,0,0,1,0-11,4.19,4.19,0,0,1,3.51,1.63v-1.4Zm-2.66,5.23a3,3,0,0,0-3-3,2.94,2.94,0,0,0-3,3,3,3,0,1,0,6,0Z" style="fill: #4a4a49"/>
    <path d="M177.88,672.14a1.65,1.65,0,0,1,1.71-1.6,1.6,1.6,0,1,1,0,3.2A1.66,1.66,0,0,1,177.88,672.14Zm.4,3.72h2.62v10.52h-2.62Z" style="fill: #4a4a49"/>
    <path d="M194.3,680.48v5.9h-2.61v-5.65a2.24,2.24,0,0,0-2.19-2.53,2.52,2.52,0,0,0-2.68,2.69v5.49h-2.61V675.86h2.61v1.67a3.65,3.65,0,0,1,3.27-1.9C192.79,675.63,194.3,677.42,194.3,680.48Z" style="fill: #4a4a49"/>
    <path d="M197.1,672.14a1.65,1.65,0,0,1,1.71-1.6,1.6,1.6,0,1,1,0,3.2A1.66,1.66,0,0,1,197.1,672.14Zm.4,3.72h2.62v10.52H197.5Z" style="fill: #4a4a49"/>
    <path d="M213.53,680.48v5.9h-2.62v-5.65a2.24,2.24,0,0,0-2.18-2.53,2.52,2.52,0,0,0-2.69,2.69v5.49h-2.61V675.86H206v1.67a3.65,3.65,0,0,1,3.27-1.9C212,675.63,213.53,677.42,213.53,680.48Z" style="fill: #4a4a49"/>
    <path d="M227.38,675.86v9c0,4.73-2.3,6.78-5.9,6.78a5.43,5.43,0,0,1-5-3.09l2.16-1a3.21,3.21,0,0,0,2.82,1.71c2,0,3.29-1.17,3.29-4.16V685a4.31,4.31,0,0,1-3.49,1.62,5.5,5.5,0,0,1,0-11,4.25,4.25,0,0,1,3.52,1.6v-1.37Zm-2.66,5.23a3,3,0,0,0-3-3,2.93,2.93,0,0,0-3,3,3,3,0,1,0,6,0Z" style="fill: #4a4a49"/>
    <path d="M247.08,675.86v9c0,4.73-2.3,6.78-5.91,6.78a5.45,5.45,0,0,1-5-3.09l2.17-1a3.18,3.18,0,0,0,2.81,1.71c2,0,3.29-1.17,3.29-4.16V685a4.31,4.31,0,0,1-3.49,1.62,5.5,5.5,0,0,1,0-11,4.24,4.24,0,0,1,3.51,1.6v-1.37Zm-2.66,5.23a3,3,0,0,0-3-3,2.94,2.94,0,0,0-3,3,3,3,0,1,0,6,0Z" style="fill: #4a4a49"/>
    <path d="M249.73,681.09a5.6,5.6,0,0,1,11.2,0,5.6,5.6,0,0,1-11.2,0Zm8.57,0a3,3,0,1,0-3,3.09A3,3,0,0,0,258.3,681.09Z" style="fill: #4a4a49"/>
    <path d="M273.22,675.86l-4.44,10.52h-2.39L262,675.86h2.82l2.79,7.21,2.78-7.21Z" style="fill: #4a4a49"/>
    <path d="M285.11,682H277a2.73,2.73,0,0,0,3,2.2,3.51,3.51,0,0,0,2.86-1.3l1.74,1.33a5.52,5.52,0,0,1-4.73,2.34,5.49,5.49,0,1,1,0-11,5.18,5.18,0,0,1,5.39,5.39A8.06,8.06,0,0,1,285.11,682Zm-2.54-1.83a2.54,2.54,0,0,0-2.73-2.28,2.66,2.66,0,0,0-2.86,2.28Z" style="fill: #4a4a49"/>
    <path d="M295.14,676l-.52,2.47a3.36,3.36,0,0,0-1.53-.38c-1.71,0-2.66,1.67-2.66,4.62v3.67h-2.64V675.86h2.62v2.25a3.1,3.1,0,0,1,3-2.48A3.79,3.79,0,0,1,295.14,676Z" style="fill: #4a4a49"/>
    <path d="M307.19,680.48v5.9h-2.61v-5.65a2.24,2.24,0,0,0-2.19-2.53,2.52,2.52,0,0,0-2.68,2.69v5.49H297.1V675.86h2.61v1.67a3.65,3.65,0,0,1,3.27-1.9C305.68,675.63,307.19,677.42,307.19,680.48Z" style="fill: #4a4a49"/>
    <path d="M327.12,680.48v5.9h-2.6v-5.7c0-1.69-.88-2.52-2.09-2.52-1.51,0-2.46,1.13-2.35,3l0-.09v5.29h-2.61v-5.7c0-1.69-.88-2.52-2-2.52s-2.43.67-2.43,2.68v5.54h-2.62V675.86H313v1.8a3.16,3.16,0,0,1,3.13-2,3.55,3.55,0,0,1,3.4,2.08,3.87,3.87,0,0,1,3.54-2.08C325.72,675.63,327.12,677.42,327.12,680.48Z" style="fill: #4a4a49"/>
    <path d="M340.52,682h-8.14a2.74,2.74,0,0,0,3,2.2,3.51,3.51,0,0,0,2.86-1.3l1.74,1.33a5.53,5.53,0,0,1-4.74,2.34,5.49,5.49,0,1,1,0-11,5.18,5.18,0,0,1,5.39,5.39A8.06,8.06,0,0,1,340.52,682ZM338,680.21a2.52,2.52,0,0,0-2.72-2.28,2.67,2.67,0,0,0-2.87,2.28Z" style="fill: #4a4a49"/>
    <path d="M353.3,680.48v5.9h-2.62v-5.65a2.24,2.24,0,0,0-2.18-2.53,2.52,2.52,0,0,0-2.69,2.69v5.49H343.2V675.86h2.61v1.67a3.67,3.67,0,0,1,3.27-1.9C351.79,675.63,353.3,677.42,353.3,680.48Z" style="fill: #4a4a49"/>
    <path d="M362.15,678h-2.23v8.42h-2.61V678h-1.9v-2.1h1.9V672h2.61v3.88h2.23Z" style="fill: #4a4a49"/>
    <path d="M380.74,675.86v9c0,4.73-2.3,6.78-5.9,6.78a5.43,5.43,0,0,1-5-3.09l2.16-1a3.21,3.21,0,0,0,2.82,1.71c2,0,3.29-1.17,3.29-4.16V685a4.33,4.33,0,0,1-3.5,1.62,5.5,5.5,0,0,1,0-11,4.28,4.28,0,0,1,3.52,1.6v-1.37Zm-2.66,5.23a3,3,0,0,0-3-3,2.93,2.93,0,0,0-3,3,3,3,0,1,0,6,0Z" style="fill: #4a4a49"/>
    <path d="M391.4,676l-.52,2.47a3.36,3.36,0,0,0-1.53-.38c-1.71,0-2.66,1.67-2.66,4.62v3.67h-2.64V675.86h2.62v2.25a3.1,3.1,0,0,1,3-2.48A3.79,3.79,0,0,1,391.4,676Z" style="fill: #4a4a49"/>
    <path d="M403.75,675.86v10.52h-2.62V685a4.16,4.16,0,0,1-3.49,1.65,5.5,5.5,0,0,1,0-11,4.19,4.19,0,0,1,3.51,1.63v-1.4Zm-2.66,5.23a3,3,0,0,0-3-3,2.94,2.94,0,0,0-3,3,3,3,0,1,0,6,0Z" style="fill: #4a4a49"/>
    <path d="M417.16,680.48v5.9h-2.62v-5.65a2.24,2.24,0,0,0-2.18-2.53,2.52,2.52,0,0,0-2.69,2.69v5.49h-2.61V675.86h2.61v1.67a3.65,3.65,0,0,1,3.27-1.9C415.65,675.63,417.16,677.42,417.16,680.48Z" style="fill: #4a4a49"/>
    <path d="M426,678h-2.23v8.42h-2.61V678h-1.9v-2.1h1.9V672h2.61v3.88H426Z" style="fill: #4a4a49"/>
    <path d="M427.41,683.09h2.45c0,.73.63,1.4,1.74,1.4s1.71-.47,1.71-1.15-.45-.85-1.24-1l-1.4-.36c-2.36-.64-3-1.9-3-3.23,0-1.64,1.62-3.09,3.92-3.09,1.87,0,4,.93,4,3.29h-2.5a1.27,1.27,0,0,0-1.4-1.19c-.81,0-1.38.45-1.38,1.1s.52.86,1.13,1l1.69.45c2.37.61,2.79,2.09,2.79,3.06,0,2.14-2.14,3.27-4.28,3.27S427.45,685.35,427.41,683.09Z" style="fill: #4a4a49"/>
    <path d="M455,675.86v10.52h-2.62V685a4.18,4.18,0,0,1-3.49,1.65,5.5,5.5,0,0,1,0-11,4.19,4.19,0,0,1,3.51,1.63v-1.4Zm-2.66,5.23a3,3,0,0,0-3.05-3,2.93,2.93,0,0,0-2.95,3,3,3,0,0,0,2.95,3.06A3,3,0,0,0,452.31,681.09Z" style="fill: #4a4a49"/>
    <path d="M468.37,680.48v5.9h-2.61v-5.65a2.24,2.24,0,0,0-2.19-2.53,2.52,2.52,0,0,0-2.68,2.69v5.49h-2.61V675.86h2.61v1.67a3.65,3.65,0,0,1,3.27-1.9C466.86,675.63,468.37,677.42,468.37,680.48Z" style="fill: #4a4a49"/>
    <path d="M482.23,670.23v16.15h-2.61V685a4.18,4.18,0,0,1-3.5,1.65,5.5,5.5,0,0,1,0-11,4.21,4.21,0,0,1,3.52,1.63v-7Zm-2.66,10.86a3,3,0,0,0-3-3,2.93,2.93,0,0,0-2.95,3,3,3,0,1,0,6,0Z" style="fill: #4a4a49"/>
    <path d="M490.63,681.09a5.6,5.6,0,0,1,11.2,0,5.6,5.6,0,0,1-11.2,0Zm8.57,0a3,3,0,1,0-3,3.09A3,3,0,0,0,499.2,681.09Z" style="fill: #4a4a49"/>
    <path d="M510.08,678h-2.23v8.42h-2.61V678h-1.9v-2.1h1.9V672h2.61v3.88h2.23Z" style="fill: #4a4a49"/>
    <path d="M522.38,680.48v5.9h-2.61v-5.65a2.24,2.24,0,0,0-2.19-2.53,2.52,2.52,0,0,0-2.68,2.69v5.49h-2.61V670.23h2.61v7.23a3.69,3.69,0,0,1,3.27-1.83C520.87,675.63,522.38,677.42,522.38,680.48Z" style="fill: #4a4a49"/>
    <path d="M535.77,682h-8.14a2.74,2.74,0,0,0,3,2.2,3.51,3.51,0,0,0,2.86-1.3l1.74,1.33a5.53,5.53,0,0,1-4.74,2.34,5.49,5.49,0,1,1,0-11,5.18,5.18,0,0,1,5.39,5.39C535.84,681.31,535.81,681.65,535.77,682Zm-2.55-1.83a2.53,2.53,0,0,0-2.73-2.28,2.66,2.66,0,0,0-2.86,2.28Z" style="fill: #4a4a49"/>
    <path d="M545.79,676l-.51,2.47a3.36,3.36,0,0,0-1.54-.38c-1.71,0-2.66,1.67-2.66,4.62v3.67h-2.63V675.86h2.61v2.25a3.1,3.1,0,0,1,3-2.48A3.76,3.76,0,0,1,545.79,676Z" style="fill: #4a4a49"/>
    <path d="M546.88,683.09h2.45c0,.73.63,1.4,1.74,1.4s1.71-.47,1.71-1.15-.45-.85-1.24-1l-1.4-.36c-2.36-.64-3-1.9-3-3.23,0-1.64,1.62-3.09,3.92-3.09,1.87,0,4,.93,4,3.29h-2.51a1.26,1.26,0,0,0-1.39-1.19c-.81,0-1.38.45-1.38,1.1s.52.86,1.13,1l1.69.45c2.37.61,2.79,2.09,2.79,3.06,0,2.14-2.14,3.27-4.28,3.27S546.92,685.35,546.88,683.09Z" style="fill: #4a4a49"/>
  </g>
  <g style="clip-path: url(#clip-path)">
    <path d="M256.93,290,328,71.28c120.79,39.25,186.89,169,147.65,289.81S306.65,548,185.86,508.76-1,339.75,38.22,219C69.61,122.3,155.32,60,256.93,60Z" style="fill: #3180a4"/>
    <path d="M256.93,290,269,60.34a227.28,227.28,0,0,1,59,10.94Z" style="fill: #76c3e2"/>
    <path d="M256.93,290V60c5.08,0,7,0,12,.32Z" style="fill: #bfb2b5"/>
  </g>
  <g>
    <path d="M366.26,286.07c0,6.92-3.32,12.81-9.88,12.81a8,8,0,0,1-7.53-4.64l3.78-2.07a4,4,0,0,0,3.71,2.35c2.92,0,5-2.6,5.17-6.24a7,7,0,0,1-5.06,2,7.53,7.53,0,0,1-7.89-7.53c0-4.46,3.43-7.84,8.64-7.84C362.65,274.87,366.26,279.43,366.26,286.07Zm-5.14-3.25a3.64,3.64,0,0,0-3.89-3.6c-2.32,0-3.92,1.46-3.92,3.53a3.56,3.56,0,0,0,3.78,3.53C359.41,286.28,361.08,284.85,361.12,282.82Z" style="fill: #fff"/>
    <path d="M386.24,290.53c0,5.21-4.21,8.35-9.07,8.35a9.9,9.9,0,0,1-8.49-4.79l3.64-2.42a5.47,5.47,0,0,0,4.64,2.85c2.68,0,4.53-1.64,4.53-4a4,4,0,0,0-4.28-3.92,8.12,8.12,0,0,0-5.14,2.1l-2.78-1.75,2.07-11.77h13.27v4.35h-9.42l-.89,4.5a7.27,7.27,0,0,1,4.25-1.29A7.46,7.46,0,0,1,386.24,290.53Z" style="fill: #fff"/>
    <path d="M388.24,279.4a4.72,4.72,0,0,1,4.74-4.78,4.78,4.78,0,0,1,4.78,4.78,4.73,4.73,0,0,1-4.78,4.74A4.67,4.67,0,0,1,388.24,279.4Zm6.92,0a2.21,2.21,0,0,0-2.18-2.18,2.13,2.13,0,0,0-2.14,2.18,2.06,2.06,0,0,0,2.14,2.14A2.13,2.13,0,0,0,395.16,279.4Zm7.74-4.21h2.64l-11.6,23.36h-2.6Zm-3.71,18.94a4.73,4.73,0,0,1,4.74-4.78,4.78,4.78,0,0,1,4.78,4.78,4.73,4.73,0,0,1-4.78,4.75A4.68,4.68,0,0,1,399.19,294.13Zm6.92,0a2.19,2.19,0,0,0-2.18-2.18,2.16,2.16,0,0,0-2.14,2.18,2.08,2.08,0,0,0,2.14,2.14A2.11,2.11,0,0,0,406.11,294.13Z" style="fill: #fff"/>
  </g>
  <g>
    <path d="M324,49.17h-3.57v4.46H315.7V49.17H304.43V47.78l13.24-17.52h2.78V45H324ZM315.7,45V38.82L311.1,45Z" style="fill: #3180a4"/>
    <path d="M325.87,34.47a4.73,4.73,0,0,1,4.75-4.78,4.78,4.78,0,0,1,4.78,4.78,4.73,4.73,0,0,1-4.78,4.74A4.68,4.68,0,0,1,325.87,34.47Zm6.92,0a2.21,2.21,0,0,0-2.17-2.18,2.13,2.13,0,0,0-2.14,2.18,2.06,2.06,0,0,0,2.14,2.14A2.13,2.13,0,0,0,332.79,34.47Zm7.75-4.21h2.64l-11.6,23.37H329ZM336.83,49.2a4.72,4.72,0,0,1,4.74-4.78,4.78,4.78,0,0,1,4.78,4.78A4.73,4.73,0,0,1,341.57,54,4.67,4.67,0,0,1,336.83,49.2Zm6.92,0A2.18,2.18,0,0,0,341.57,47a2.15,2.15,0,0,0-2.14,2.17,2.08,2.08,0,0,0,2.14,2.14A2.11,2.11,0,0,0,343.75,49.2Z" style="fill: #3180a4"/>
  </g>
  <g>
    <path d="M258.69,19V42.67H254V25.33l-5.39,2.07V23l9.71-4Z" style="fill: #3180a4"/>
    <path d="M262.15,23.52a4.74,4.74,0,0,1,4.75-4.79,4.79,4.79,0,0,1,4.78,4.79,4.73,4.73,0,0,1-4.78,4.74A4.68,4.68,0,0,1,262.15,23.52Zm6.92,0a2.21,2.21,0,0,0-2.17-2.18,2.13,2.13,0,0,0-2.14,2.18,2.06,2.06,0,0,0,2.14,2.14A2.14,2.14,0,0,0,269.07,23.52Zm7.74-4.21h2.64L267.86,42.67h-2.61ZM273.1,38.25a4.73,4.73,0,0,1,4.75-4.78,4.78,4.78,0,0,1,4.78,4.78A4.73,4.73,0,0,1,277.85,43,4.68,4.68,0,0,1,273.1,38.25Zm6.92,0a2.18,2.18,0,0,0-2.17-2.18,2.16,2.16,0,0,0-2.14,2.18,2.08,2.08,0,0,0,2.14,2.14A2.11,2.11,0,0,0,280,38.25Z" style="fill: #3180a4"/>
  </g>
</svg>
