<svg id="Layer_1" data-name="Layer 1" xmlns="http://www.w3.org/2000/svg" xmlns:xlink="http://www.w3.org/1999/xlink" width="489" height="660" viewBox="0 0 489 660">
  <defs>
    <clipPath id="clip-path">
      <rect x="6.38" y="21.73" width="459.85" height="637.27" style="fill: none"/>
    </clipPath>
  </defs>
  <rect x="22.67" y="542.35" width="18.1" height="18.1" style="fill: #3180a4"/>
  <g>
    <path d="M70.19,558.08v2.37H60.78v-15H70v2.37H63.41v4h5.74v2.41H63.41v3.78Z" style="fill: #4a4a49"/>
    <path d="M82.6,554.76v5.69H80.08V555A2.16,2.16,0,0,0,78,552.56a2.43,2.43,0,0,0-2.59,2.59v5.3H72.86V550.3h2.52v1.61a3.54,3.54,0,0,1,3.16-1.83C81.14,550.08,82.6,551.8,82.6,554.76Z" style="fill: #4a4a49"/>
    <path d="M96,550.3v10.15H93.44v-1.37a4,4,0,0,1-3.37,1.59,5.3,5.3,0,0,1,0-10.59,4.06,4.06,0,0,1,3.39,1.57V550.3Zm-2.57,5a2.91,2.91,0,0,0-2.93-2.91,2.83,2.83,0,0,0-2.84,2.91,2.87,2.87,0,0,0,2.84,3A2.9,2.9,0,0,0,93.39,555.34Z" style="fill: #4a4a49"/>
    <path d="M110,555.36a5,5,0,0,1-5,5.31,4.06,4.06,0,0,1-3.37-1.59v1.37H99.15V544.87h2.52v6.78a4.06,4.06,0,0,1,3.39-1.57A5,5,0,0,1,110,555.36Zm-2.52,0a2.85,2.85,0,0,0-2.87-2.91,2.94,2.94,0,1,0,2.87,2.91Z" style="fill: #4a4a49"/>
    <path d="M112.62,544.87h2.52v15.58h-2.52Z" style="fill: #4a4a49"/>
    <path d="M118,546.72a1.6,1.6,0,0,1,1.66-1.55,1.55,1.55,0,1,1,0,3.09A1.6,1.6,0,0,1,118,546.72Zm.39,3.58h2.53v10.15h-2.53Z" style="fill: #4a4a49"/>
    <path d="M133.8,554.76v5.69h-2.52V555a2.16,2.16,0,0,0-2.11-2.44,2.42,2.42,0,0,0-2.58,2.59v5.3h-2.52V550.3h2.52v1.61a3.52,3.52,0,0,1,3.15-1.83C132.35,550.08,133.8,551.8,133.8,554.76Z" style="fill: #4a4a49"/>
    <path d="M147.16,550.3V559c0,4.56-2.21,6.54-5.69,6.54a5.24,5.24,0,0,1-4.8-3l2.08-1a3.1,3.1,0,0,0,2.72,1.65c2,0,3.17-1.13,3.17-4v-.15a4.13,4.13,0,0,1-3.36,1.57,5.3,5.3,0,0,1,0-10.59,4.07,4.07,0,0,1,3.39,1.55V550.3Zm-2.56,5a2.91,2.91,0,0,0-2.93-2.91,2.83,2.83,0,0,0-2.85,2.91,2.89,2.89,0,1,0,5.78,0Z" style="fill: #4a4a49"/>
    <path d="M155.26,555.36a5.29,5.29,0,0,1,5.52-5.28,5.13,5.13,0,0,1,4.13,2l-1.8,1.41a3,3,0,0,0-2.28-1,2.94,2.94,0,1,0,0,5.87,3,3,0,0,0,2.28-1l1.8,1.41a5.18,5.18,0,0,1-4.13,1.95A5.28,5.28,0,0,1,155.26,555.36Z" style="fill: #4a4a49"/>
    <path d="M166.45,555.34a5.4,5.4,0,0,1,10.8,0,5.4,5.4,0,0,1-10.8,0Zm8.26,0a2.86,2.86,0,1,0-2.87,3A2.85,2.85,0,0,0,174.71,555.34Z" style="fill: #4a4a49"/>
    <path d="M179.81,544.87h2.52v15.58h-2.52Z" style="fill: #4a4a49"/>
    <path d="M185.55,544.87h2.52v15.58h-2.52Z" style="fill: #4a4a49"/>
    <path d="M201.56,550.3v10.15H199v-1.37a4,4,0,0,1-3.37,1.59,5.3,5.3,0,0,1,0-10.59,4,4,0,0,1,3.39,1.57V550.3Zm-2.56,5a2.92,2.92,0,0,0-2.94-2.91,2.83,2.83,0,0,0-2.84,2.91,2.87,2.87,0,0,0,2.84,3A2.9,2.9,0,0,0,199,555.34Z" style="fill: #4a4a49"/>
    <path d="M215.66,555.36a5,5,0,0,1-5,5.31,4,4,0,0,1-3.36-1.59v1.37h-2.52V544.87h2.52v6.78a4,4,0,0,1,3.39-1.57A5,5,0,0,1,215.66,555.36Zm-2.52,0a2.85,2.85,0,0,0-2.87-2.91,2.94,2.94,0,1,0,2.87,2.91Z" style="fill: #4a4a49"/>
    <path d="M217.64,555.34a5.4,5.4,0,0,1,10.8,0,5.4,5.4,0,0,1-10.8,0Zm8.25,0a2.86,2.86,0,1,0-2.86,3A2.85,2.85,0,0,0,225.89,555.34Z" style="fill: #4a4a49"/>
    <path d="M238.1,550.43l-.5,2.39a3.22,3.22,0,0,0-1.48-.37c-1.65,0-2.56,1.61-2.56,4.46v3.54H231V550.3h2.52v2.17a3,3,0,0,1,2.91-2.39A3.66,3.66,0,0,1,238.1,550.43Z" style="fill: #4a4a49"/>
    <path d="M250,550.3v10.15h-2.52v-1.37a4,4,0,0,1-3.37,1.59,5.3,5.3,0,0,1,0-10.59,4.06,4.06,0,0,1,3.39,1.57V550.3Zm-2.57,5a2.91,2.91,0,0,0-2.93-2.91,2.84,2.84,0,0,0-2.85,2.91,2.89,2.89,0,1,0,5.78,0Z" style="fill: #4a4a49"/>
    <path d="M258.78,552.32h-2.15v8.13h-2.52v-8.13h-1.82v-2h1.82v-3.74h2.52v3.74h2.15Z" style="fill: #4a4a49"/>
    <path d="M260.52,546.72a1.59,1.59,0,0,1,1.65-1.55,1.55,1.55,0,1,1,0,3.09A1.6,1.6,0,0,1,260.52,546.72Zm.39,3.58h2.52v10.15h-2.52Z" style="fill: #4a4a49"/>
    <path d="M266,555.34a5.4,5.4,0,0,1,10.8,0,5.4,5.4,0,0,1-10.8,0Zm8.25,0a2.86,2.86,0,1,0-2.86,3A2.85,2.85,0,0,0,274.27,555.34Z" style="fill: #4a4a49"/>
    <path d="M289.13,554.76v5.69h-2.52V555a2.15,2.15,0,0,0-2.1-2.44,2.42,2.42,0,0,0-2.59,2.59v5.3H279.4V550.3h2.52v1.61a3.52,3.52,0,0,1,3.15-1.83C287.68,550.08,289.13,551.8,289.13,554.76Z" style="fill: #4a4a49"/>
  </g>
  <rect x="22.67" y="574.94" width="18.1" height="18.1" style="fill: #76c3e2"/>
  <g>
    <path d="M60.78,578.07h2.66v15H60.78Z" style="fill: #4a4a49"/>
    <path d="M83.14,587.34V593h-2.5v-5.5c0-1.63-.85-2.43-2-2.43-1.45,0-2.37,1.08-2.26,2.91l0-.09V593H73.82v-5.5c0-1.63-.85-2.43-1.93-2.43a2.25,2.25,0,0,0-2.35,2.58V593H67V582.89h2.52v1.74a3.06,3.06,0,0,1,3-2,3.42,3.42,0,0,1,3.28,2,3.71,3.71,0,0,1,3.41-2C81.79,582.67,83.14,584.39,83.14,587.34Z" style="fill: #4a4a49"/>
    <path d="M97.11,588a5,5,0,0,1-5,5.28,4,4,0,0,1-3.39-1.56V598H86.22v-15.1h2.52v1.35a4.11,4.11,0,0,1,3.37-1.57A5,5,0,0,1,97.11,588Zm-2.52,0a2.9,2.9,0,1,0-5.8,0,2.92,2.92,0,0,0,2.93,2.92A2.85,2.85,0,0,0,94.59,588Z" style="fill: #4a4a49"/>
    <path d="M106.78,583l-.5,2.39a3.25,3.25,0,0,0-1.48-.37c-1.65,0-2.56,1.61-2.56,4.46V593H99.69V582.89h2.52v2.17a3,3,0,0,1,2.92-2.39A3.7,3.7,0,0,1,106.78,583Z" style="fill: #4a4a49"/>
    <path d="M107.77,587.93a5.4,5.4,0,0,1,10.8,0,5.4,5.4,0,0,1-10.8,0Zm8.26,0a2.86,2.86,0,1,0-2.87,3A2.85,2.85,0,0,0,116,587.93Z" style="fill: #4a4a49"/>
    <path d="M130.39,582.89,126.11,593h-2.3l-4.24-10.15h2.72l2.69,7,2.67-7Z" style="fill: #4a4a49"/>
    <path d="M131.89,579.3a1.59,1.59,0,0,1,1.65-1.54,1.56,1.56,0,0,1,1.63,1.54,1.58,1.58,0,0,1-1.63,1.55A1.61,1.61,0,0,1,131.89,579.3Zm.39,3.59h2.52V593h-2.52Z" style="fill: #4a4a49"/>
    <path d="M147.75,587.34V593h-2.52v-5.46a2.16,2.16,0,0,0-2.11-2.43,2.42,2.42,0,0,0-2.58,2.59V593H138V582.89h2.52v1.61a3.51,3.51,0,0,1,3.15-1.83C146.29,582.67,147.75,584.39,147.75,587.34Z" style="fill: #4a4a49"/>
    <path d="M161.11,582.89v8.71c0,4.57-2.22,6.54-5.69,6.54a5.25,5.25,0,0,1-4.8-3l2.08-1a3.1,3.1,0,0,0,2.72,1.65c2,0,3.17-1.13,3.17-4v-.15a4.17,4.17,0,0,1-3.37,1.56,5.3,5.3,0,0,1,0-10.58,4.1,4.1,0,0,1,3.39,1.55v-1.33Zm-2.56,5a2.92,2.92,0,0,0-2.94-2.91,2.83,2.83,0,0,0-2.84,2.91,2.87,2.87,0,0,0,2.84,3A2.9,2.9,0,0,0,158.55,587.93Z" style="fill: #4a4a49"/>
    <path d="M180.71,588a5,5,0,0,1-5,5.28,4,4,0,0,1-3.39-1.56V598h-2.52v-15.1h2.52v1.35a4.1,4.1,0,0,1,3.37-1.57A5,5,0,0,1,180.71,588Zm-2.52,0a2.91,2.91,0,1,0-5.81,0,2.92,2.92,0,0,0,2.94,2.92A2.86,2.86,0,0,0,178.19,588Z" style="fill: #4a4a49"/>
    <path d="M190.4,583l-.5,2.39a3.25,3.25,0,0,0-1.48-.37c-1.65,0-2.57,1.61-2.57,4.46V593h-2.54V582.89h2.52v2.17a3,3,0,0,1,2.91-2.39A3.74,3.74,0,0,1,190.4,583Z" style="fill: #4a4a49"/>
    <path d="M202.28,582.89V593h-2.52v-1.37a4.05,4.05,0,0,1-3.37,1.58,5.3,5.3,0,0,1,0-10.58,4.06,4.06,0,0,1,3.39,1.57v-1.35Zm-2.57,5a2.91,2.91,0,0,0-2.93-2.91,2.83,2.83,0,0,0-2.84,2.91,2.87,2.87,0,0,0,2.84,3A2.9,2.9,0,0,0,199.71,587.93Z" style="fill: #4a4a49"/>
    <path d="M204.86,588a5.29,5.29,0,0,1,5.52-5.28,5.1,5.1,0,0,1,4.13,2l-1.8,1.41a3,3,0,0,0-2.29-1,2.94,2.94,0,1,0,0,5.87,3,3,0,0,0,2.29-1l1.8,1.42a5.18,5.18,0,0,1-4.13,2A5.28,5.28,0,0,1,204.86,588Z" style="fill: #4a4a49"/>
    <path d="M222.46,584.91h-2.15V593h-2.52v-8.13H216v-2h1.83v-3.74h2.52v3.74h2.15Z" style="fill: #4a4a49"/>
    <path d="M224.22,579.3a1.59,1.59,0,0,1,1.65-1.54,1.56,1.56,0,0,1,1.63,1.54,1.58,1.58,0,0,1-1.63,1.55A1.61,1.61,0,0,1,224.22,579.3Zm.39,3.59h2.52V593h-2.52Z" style="fill: #4a4a49"/>
    <path d="M229.71,588a5.29,5.29,0,0,1,5.52-5.28,5.1,5.1,0,0,1,4.13,2l-1.8,1.41a3,3,0,0,0-2.28-1,2.94,2.94,0,1,0,0,5.87,3,3,0,0,0,2.28-1l1.8,1.42a5.18,5.18,0,0,1-4.13,2A5.28,5.28,0,0,1,229.71,588Z" style="fill: #4a4a49"/>
    <path d="M251.35,588.84h-7.84a2.63,2.63,0,0,0,2.87,2.13,3.37,3.37,0,0,0,2.76-1.26l1.67,1.28a5.3,5.3,0,0,1-4.56,2.26,5.29,5.29,0,1,1,0-10.58,5,5,0,0,1,5.19,5.2A7.24,7.24,0,0,1,251.35,588.84Zm-2.45-1.76a2.43,2.43,0,0,0-2.63-2.19,2.56,2.56,0,0,0-2.76,2.19Z" style="fill: #4a4a49"/>
  </g>
  <rect x="22.67" y="607.52" width="18.1" height="18.1" style="fill: #bfb2b5"/>
  <g>
    <path d="M60.78,610.65h2.66v15H60.78Z" style="fill: #4a4a49"/>
    <path d="M76.75,619.93v5.7H74.23v-5.46a2.15,2.15,0,0,0-2.11-2.43,2.42,2.42,0,0,0-2.58,2.58v5.31H67V615.48h2.52v1.61a3.52,3.52,0,0,1,3.15-1.83C75.3,615.26,76.75,617,76.75,619.93Z" style="fill: #4a4a49"/>
    <path d="M90,625.63H87.49V612.39H85.38c-1.72,0-2.22,1-2.2,2.2v.89h2.26v2H83.18v8.13H80.66V617.5H78.73v-2h1.93v-.76c0-2.91,1.39-4.67,4.22-4.67H90Z" style="fill: #4a4a49"/>
    <path d="M102.8,615.48v10.15h-2.52V624a3.54,3.54,0,0,1-3.15,1.82c-2.61,0-4.06-1.73-4.06-4.69v-5.69h2.52v5.45a2.17,2.17,0,0,0,2.11,2.46,2.43,2.43,0,0,0,2.58-2.61v-5.3Z" style="fill: #4a4a49"/>
    <path d="M115.84,621.43H108a2.64,2.64,0,0,0,2.87,2.13,3.37,3.37,0,0,0,2.76-1.26l1.67,1.28a5.3,5.3,0,0,1-4.56,2.26,5.29,5.29,0,1,1,0-10.58,5,5,0,0,1,5.19,5.19A9.14,9.14,0,0,1,115.84,621.43Zm-2.46-1.76a2.43,2.43,0,0,0-2.63-2.19,2.57,2.57,0,0,0-2.76,2.19Z" style="fill: #4a4a49"/>
    <path d="M128.15,619.93v5.7h-2.52v-5.46a2.14,2.14,0,0,0-2.1-2.43,2.42,2.42,0,0,0-2.59,2.58v5.31h-2.52V615.48h2.52v1.61a3.52,3.52,0,0,1,3.15-1.83C126.7,615.26,128.15,617,128.15,619.93Z" style="fill: #4a4a49"/>
    <path d="M130.61,620.54a5.28,5.28,0,0,1,5.51-5.28,5.09,5.09,0,0,1,4.13,2l-1.8,1.41a3,3,0,0,0-2.28-1,2.93,2.93,0,1,0,0,5.86,3,3,0,0,0,2.28-1l1.8,1.42a5.17,5.17,0,0,1-4.13,2A5.28,5.28,0,0,1,130.61,620.54Z" style="fill: #4a4a49"/>
    <path d="M142.23,611.89a1.59,1.59,0,0,1,1.65-1.54,1.56,1.56,0,0,1,1.63,1.54,1.58,1.58,0,0,1-1.63,1.55A1.61,1.61,0,0,1,142.23,611.89Zm.39,3.59h2.52v10.15h-2.52Z" style="fill: #4a4a49"/>
    <path d="M158.07,619.93v5.7h-2.52v-5.46a2.15,2.15,0,0,0-2.11-2.43,2.42,2.42,0,0,0-2.59,2.58v5.31h-2.52V615.48h2.52v1.61a3.54,3.54,0,0,1,3.16-1.83C156.61,615.26,158.07,617,158.07,619.93Z" style="fill: #4a4a49"/>
    <path d="M171.43,615.48v8.71c0,4.56-2.22,6.54-5.69,6.54a5.26,5.26,0,0,1-4.81-3l2.09-1a3.1,3.1,0,0,0,2.72,1.65c1.95,0,3.17-1.13,3.17-4v-.15a4.17,4.17,0,0,1-3.37,1.56,5.3,5.3,0,0,1,0-10.58,4.12,4.12,0,0,1,3.39,1.54v-1.32Zm-2.56,5a2.92,2.92,0,0,0-2.94-2.91,2.82,2.82,0,0,0-2.84,2.91,2.86,2.86,0,0,0,2.84,3A2.9,2.9,0,0,0,168.87,620.52Z" style="fill: #4a4a49"/>
    <path d="M191.05,620.54a5,5,0,0,1-5,5.28,4,4,0,0,1-3.39-1.56v6.32h-2.52v-15.1h2.52v1.35a4.1,4.1,0,0,1,3.37-1.57A5,5,0,0,1,191.05,620.54Zm-2.52,0a2.91,2.91,0,1,0-2.87,2.91A2.85,2.85,0,0,0,188.53,620.56Z" style="fill: #4a4a49"/>
    <path d="M193,620.52a5.4,5.4,0,0,1,10.8,0,5.4,5.4,0,0,1-10.8,0Zm8.26,0a2.86,2.86,0,1,0-2.87,3A2.86,2.86,0,0,0,201.28,620.52Z" style="fill: #4a4a49"/>
    <path d="M206.38,610.05h2.52v15.58h-2.52Z" style="fill: #4a4a49"/>
    <path d="M211.73,611.89a1.59,1.59,0,0,1,1.65-1.54,1.56,1.56,0,0,1,1.63,1.54,1.58,1.58,0,0,1-1.63,1.55A1.61,1.61,0,0,1,211.73,611.89Zm.39,3.59h2.52v10.15h-2.52Z" style="fill: #4a4a49"/>
    <path d="M217.2,620.54a5.28,5.28,0,0,1,5.52-5.28,5.12,5.12,0,0,1,4.13,2L225,618.63a3,3,0,0,0-2.28-1,2.93,2.93,0,1,0,0,5.86,3,3,0,0,0,2.28-1l1.81,1.42a5.19,5.19,0,0,1-4.13,2A5.28,5.28,0,0,1,217.2,620.54Z" style="fill: #4a4a49"/>
    <path d="M238.58,615.48l-6.3,15.1h-2.65l2.28-5.65-4-9.45h2.76l2.63,6.43,2.6-6.43Z" style="fill: #4a4a49"/>
  </g>
  <g style="clip-path: url(#clip-path)">
    <path d="M244.51,243.49l-220.06-27C38.18,104.63,131.86,21.73,244.51,21.73Z" style="fill: #bfb2b5"/>
    <path d="M244.51,243.49l42.31,217.68C166.62,484.54,50.24,406,26.87,285.8a211.06,211.06,0,0,1-2.42-69.34Z" style="fill: #76c3e2"/>
    <path d="M244.51,243.49V21.73C367,21.73,466.22,121,466.22,243.49c0,107.77-73.63,197.11-179.4,217.68Z" style="fill: #3180a4"/>
  </g>
  <g>
    <path d="M371.75,247.41h-3.44v4.3h-4.57v-4.3H352.87v-1.34l12.76-16.89h2.68v14.2h3.44Zm-8-4v-5.95l-4.44,5.95Z" style="fill: #fff"/>
    <path d="M389.67,229.18v.45L379.6,251.71h-5.23l8.42-18.33h-9.42v-4.2Z" style="fill: #fff"/>
    <path d="M390.43,233.24a4.59,4.59,0,1,1,4.58,4.57A4.51,4.51,0,0,1,390.43,233.24Zm6.67,0a2.12,2.12,0,0,0-2.09-2.1,2.06,2.06,0,0,0-2.07,2.1A2,2,0,0,0,395,235.3,2.05,2.05,0,0,0,397.1,233.24Zm7.47-4.06h2.54l-11.18,22.53h-2.51ZM401,247.44a4.56,4.56,0,0,1,4.57-4.61,4.61,4.61,0,0,1,4.61,4.61,4.56,4.56,0,0,1-4.61,4.58A4.51,4.51,0,0,1,401,247.44Zm6.67,0a2.11,2.11,0,0,0-2.1-2.1,2.08,2.08,0,0,0-2.06,2.1,2,2,0,0,0,2.06,2.07A2,2,0,0,0,407.66,247.44Z" style="fill: #fff"/>
  </g>
  <g>
    <path d="M178,329.34c0,4.06-3.44,6.85-8.32,6.85a8.34,8.34,0,0,1-7.4-4l3.17-2.44a4.86,4.86,0,0,0,4,2.27c2.37,0,3.92-1.24,3.92-3.06s-1.58-3.2-3.88-3.2h-2.17v-3.47h1.27c2.44,0,3.85-1.31,3.75-2.89-.07-1.38-1.24-2.24-2.89-2.24a5.09,5.09,0,0,0-3.82,1.83l-2.47-2.82A8.81,8.81,0,0,1,170,313c4,0,7.05,2.41,7,6.23a5.06,5.06,0,0,1-3,4.47A5.81,5.81,0,0,1,178,329.34Z" style="fill: #fff"/>
    <path d="M180.71,324.67c0-6.5,1.82-11.63,8.39-11.63s8.32,5.13,8.32,11.63-1.78,11.52-8.32,11.52S180.71,331.06,180.71,324.67Zm12.14,0c0-4.17-.86-7.43-3.75-7.43s-3.82,3.26-3.82,7.43.9,7.32,3.82,7.32S192.85,328.76,192.85,324.67Z" style="fill: #fff"/>
    <path d="M199.63,317.41a4.55,4.55,0,0,1,4.57-4.61,4.6,4.6,0,0,1,4.61,4.61A4.55,4.55,0,0,1,204.2,322,4.5,4.5,0,0,1,199.63,317.41Zm6.67,0a2.13,2.13,0,0,0-2.1-2.1,2.05,2.05,0,0,0-2.06,2.1,2,2,0,0,0,2.06,2.06A2.05,2.05,0,0,0,206.3,317.41Zm7.46-4.06h2.55l-11.18,22.53h-2.51Zm-3.57,18.26a4.55,4.55,0,0,1,4.57-4.6,4.59,4.59,0,1,1,0,9.18A4.51,4.51,0,0,1,210.19,331.61Zm6.67,0a2.1,2.1,0,0,0-2.1-2.09,2.07,2.07,0,0,0-2.06,2.09,2,2,0,0,0,2.06,2.07A2,2,0,0,0,216.86,331.61Z" style="fill: #fff"/>
  </g>
  <g>
    <path d="M145.55,154v4.23H130.38v-2.44l8.81-10.56a6,6,0,0,0,1.55-3.06,2.69,2.69,0,0,0-3-2.58c-2,0-3.13,1.3-3.41,3.26l-4.09-.68c.55-4,3.16-6.78,7.67-6.78s7.43,2.72,7.43,6.81a8.68,8.68,0,0,1-2.48,5.71l-5.3,6.09Z" style="fill: #fff"/>
    <path d="M163.3,151.71c0,4.06-3.44,6.85-8.32,6.85a8.34,8.34,0,0,1-7.4-4l3.17-2.44a4.89,4.89,0,0,0,4,2.27c2.37,0,3.92-1.24,3.92-3.06s-1.58-3.2-3.88-3.2h-2.17V144.7h1.27c2.44,0,3.85-1.31,3.75-2.89-.07-1.38-1.24-2.24-2.89-2.24A5.06,5.06,0,0,0,151,141.4l-2.47-2.82a8.81,8.81,0,0,1,6.81-3.17c4,0,7.05,2.41,7,6.23a5.06,5.06,0,0,1-3,4.47A5.8,5.8,0,0,1,163.3,151.71Z" style="fill: #fff"/>
    <path d="M165.33,139.78a4.59,4.59,0,1,1,4.58,4.57A4.51,4.51,0,0,1,165.33,139.78Zm6.67,0a2.12,2.12,0,0,0-2.09-2.1,2.06,2.06,0,0,0-2.07,2.1,2,2,0,0,0,2.07,2.06A2.05,2.05,0,0,0,172,139.78Zm7.47-4.06H182l-11.18,22.53h-2.51ZM175.89,154a4.56,4.56,0,0,1,4.57-4.61,4.61,4.61,0,0,1,4.61,4.61,4.56,4.56,0,0,1-4.61,4.58A4.51,4.51,0,0,1,175.89,154Zm6.67,0a2.1,2.1,0,0,0-2.1-2.09A2.08,2.08,0,0,0,178.4,154a2,2,0,0,0,2.06,2.07A2,2,0,0,0,182.56,154Z" style="fill: #fff"/>
  </g>
</svg>
