<svg id="Layer_1" data-name="Layer 1" xmlns="http://www.w3.org/2000/svg" width="1125" height="861" viewBox="0 0 1125 861">
  <path d="M861.82,734.24h261.32v63.43H861.82Zm-261.32,0H861.82v63.43H600.5Zm-600.81,0H600.5v63.43H-.31ZM861.82,353.67h261.32V417.1H861.82Zm-261.32,0H861.82V417.1H600.5Zm-600.81,0H600.5V417.1H-.31ZM861.82-1.52h261.32V100H861.82Zm-261.32,0H861.82V100H600.5ZM-.31-1.52H600.5V100H-.31Z" style="fill: #76c3e2"/>
  <path d="M861.82,797.67h261.32V861.1H861.82Zm-261.32,0H861.82V861.1H600.5Zm-600.81,0H600.5V861.1H-.31ZM861.82,417.1h261.32v63.43H861.82Zm-261.32,0H861.82v63.43H600.5Zm-600.81,0H600.5v63.43H-.31ZM861.82,100h261.32v63.43H861.82ZM600.5,100H861.82v63.43H600.5ZM-.31,100H600.5v63.43H-.31Z" style="fill: #3180a4"/>
  <line x1="-0.31" y1="98.7" x2="-0.31" y2="-0.25" style="fill: none;stroke: #76c3e2;stroke-miterlimit: 10"/>
  <line x1="600.49" y1="98.7" x2="600.49" y2="-0.25" style="fill: none;stroke: #76c3e2;stroke-miterlimit: 10"/>
  <line x1="861.82" y1="98.7" x2="861.82" y2="-0.25" style="fill: none;stroke: #76c3e2;stroke-miterlimit: 10"/>
  <line x1="1123.14" y1="98.7" x2="1123.14" y2="-0.25" style="fill: none;stroke: #76c3e2;stroke-miterlimit: 10"/>
  <line x1="-1.58" y1="99.96" x2="600.5" y2="99.96" style="fill: none;stroke: #76c3e2;stroke-miterlimit: 10"/>
  <line x1="600.49" y1="99.96" x2="861.82" y2="99.96" style="fill: none;stroke: #76c3e2;stroke-miterlimit: 10"/>
  <line x1="861.82" y1="99.96" x2="1124.41" y2="99.96" style="fill: none;stroke: #76c3e2;stroke-miterlimit: 10"/>
  <line x1="-0.31" y1="225.55" x2="-0.31" y2="164.66" style="fill: none;stroke: #76c3e2;stroke-miterlimit: 10"/>
  <line x1="600.49" y1="225.55" x2="600.49" y2="164.66" style="fill: none;stroke: #76c3e2;stroke-miterlimit: 10"/>
  <line x1="861.82" y1="225.55" x2="861.82" y2="164.66" style="fill: none;stroke: #76c3e2;stroke-miterlimit: 10"/>
  <line x1="1123.14" y1="225.55" x2="1123.14" y2="164.66" style="fill: none;stroke: #76c3e2;stroke-miterlimit: 10"/>
  <line x1="-1.58" y1="226.82" x2="600.5" y2="226.82" style="fill: none;stroke: #76c3e2;stroke-miterlimit: 10"/>
  <line x1="-0.31" y1="288.98" x2="-0.31" y2="228.09" style="fill: none;stroke: #76c3e2;stroke-miterlimit: 10"/>
  <line x1="600.49" y1="226.82" x2="861.82" y2="226.82" style="fill: none;stroke: #76c3e2;stroke-miterlimit: 10"/>
  <line x1="600.49" y1="288.98" x2="600.49" y2="228.09" style="fill: none;stroke: #76c3e2;stroke-miterlimit: 10"/>
  <line x1="861.82" y1="226.82" x2="1124.41" y2="226.82" style="fill: none;stroke: #76c3e2;stroke-miterlimit: 10"/>
  <line x1="861.82" y1="288.98" x2="861.82" y2="228.09" style="fill: none;stroke: #76c3e2;stroke-miterlimit: 10"/>
  <line x1="1123.14" y1="288.98" x2="1123.14" y2="228.09" style="fill: none;stroke: #76c3e2;stroke-miterlimit: 10"/>
  <line x1="-1.58" y1="290.25" x2="600.5" y2="290.25" style="fill: none;stroke: #76c3e2;stroke-miterlimit: 10"/>
  <line x1="-0.31" y1="353.67" x2="-0.31" y2="291.52" style="fill: none;stroke: #76c3e2;stroke-miterlimit: 10"/>
  <line x1="600.49" y1="290.25" x2="861.82" y2="290.25" style="fill: none;stroke: #76c3e2;stroke-miterlimit: 10"/>
  <line x1="600.49" y1="353.67" x2="600.49" y2="291.52" style="fill: none;stroke: #76c3e2;stroke-miterlimit: 10"/>
  <line x1="861.82" y1="290.25" x2="1124.41" y2="290.25" style="fill: none;stroke: #76c3e2;stroke-miterlimit: 10"/>
  <line x1="861.82" y1="353.67" x2="861.82" y2="291.52" style="fill: none;stroke: #76c3e2;stroke-miterlimit: 10"/>
  <line x1="1123.14" y1="353.67" x2="1123.14" y2="291.52" style="fill: none;stroke: #76c3e2;stroke-miterlimit: 10"/>
  <line x1="600.49" y1="417.1" x2="600.49" y2="353.67" style="fill: none;stroke: #76c3e2;stroke-miterlimit: 10"/>
  <line x1="861.82" y1="417.1" x2="861.82" y2="353.67" style="fill: none;stroke: #76c3e2;stroke-miterlimit: 10"/>
  <line x1="1123.14" y1="417.1" x2="1123.14" y2="353.67" style="fill: none;stroke: #76c3e2;stroke-miterlimit: 10"/>
  <line x1="-0.31" y1="542.69" x2="-0.31" y2="481.8" style="fill: none;stroke: #76c3e2;stroke-miterlimit: 10"/>
  <line x1="600.49" y1="542.69" x2="600.49" y2="481.8" style="fill: none;stroke: #76c3e2;stroke-miterlimit: 10"/>
  <line x1="861.82" y1="542.69" x2="861.82" y2="481.8" style="fill: none;stroke: #76c3e2;stroke-miterlimit: 10"/>
  <line x1="1123.14" y1="542.69" x2="1123.14" y2="481.8" style="fill: none;stroke: #76c3e2;stroke-miterlimit: 10"/>
  <line x1="-1.58" y1="543.96" x2="600.5" y2="543.96" style="fill: none;stroke: #76c3e2;stroke-miterlimit: 10"/>
  <line x1="-0.31" y1="606.12" x2="-0.31" y2="545.23" style="fill: none;stroke: #76c3e2;stroke-miterlimit: 10"/>
  <line x1="600.49" y1="543.96" x2="861.82" y2="543.96" style="fill: none;stroke: #76c3e2;stroke-miterlimit: 10"/>
  <line x1="600.49" y1="606.12" x2="600.49" y2="545.23" style="fill: none;stroke: #76c3e2;stroke-miterlimit: 10"/>
  <line x1="861.82" y1="543.96" x2="1124.41" y2="543.96" style="fill: none;stroke: #76c3e2;stroke-miterlimit: 10"/>
  <line x1="861.82" y1="606.12" x2="861.82" y2="545.23" style="fill: none;stroke: #76c3e2;stroke-miterlimit: 10"/>
  <line x1="1123.14" y1="606.12" x2="1123.14" y2="545.23" style="fill: none;stroke: #76c3e2;stroke-miterlimit: 10"/>
  <line x1="-1.58" y1="607.39" x2="600.5" y2="607.39" style="fill: none;stroke: #76c3e2;stroke-miterlimit: 10"/>
  <line x1="-0.31" y1="669.55" x2="-0.31" y2="608.65" style="fill: none;stroke: #76c3e2;stroke-miterlimit: 10"/>
  <line x1="600.49" y1="607.39" x2="861.82" y2="607.39" style="fill: none;stroke: #76c3e2;stroke-miterlimit: 10"/>
  <line x1="600.49" y1="669.55" x2="600.49" y2="608.65" style="fill: none;stroke: #76c3e2;stroke-miterlimit: 10"/>
  <line x1="861.82" y1="607.39" x2="1124.41" y2="607.39" style="fill: none;stroke: #76c3e2;stroke-miterlimit: 10"/>
  <line x1="861.82" y1="669.55" x2="861.82" y2="608.65" style="fill: none;stroke: #76c3e2;stroke-miterlimit: 10"/>
  <line x1="1123.14" y1="669.55" x2="1123.14" y2="608.65" style="fill: none;stroke: #76c3e2;stroke-miterlimit: 10"/>
  <line x1="-1.58" y1="670.81" x2="600.5" y2="670.81" style="fill: none;stroke: #76c3e2;stroke-miterlimit: 10"/>
  <line x1="-0.31" y1="732.34" x2="-0.31" y2="672.08" style="fill: none;stroke: #76c3e2;stroke-miterlimit: 10"/>
  <line x1="600.49" y1="670.81" x2="861.82" y2="670.81" style="fill: none;stroke: #76c3e2;stroke-miterlimit: 10"/>
  <line x1="600.49" y1="732.34" x2="600.49" y2="672.08" style="fill: none;stroke: #76c3e2;stroke-miterlimit: 10"/>
  <line x1="861.82" y1="670.81" x2="1124.41" y2="670.81" style="fill: none;stroke: #76c3e2;stroke-miterlimit: 10"/>
  <line x1="861.82" y1="732.34" x2="861.82" y2="672.08" style="fill: none;stroke: #76c3e2;stroke-miterlimit: 10"/>
  <line x1="1123.14" y1="732.34" x2="1123.14" y2="672.08" style="fill: none;stroke: #76c3e2;stroke-miterlimit: 10"/>
  <line x1="-0.31" y1="479.26" x2="-0.31" y2="417.1" style="fill: none;stroke: #3180a4;stroke-miterlimit: 10"/>
  <line x1="600.49" y1="479.26" x2="600.49" y2="417.1" style="fill: none;stroke: #3180a4;stroke-miterlimit: 10"/>
  <line x1="861.82" y1="479.26" x2="861.82" y2="417.1" style="fill: none;stroke: #3180a4;stroke-miterlimit: 10"/>
  <line x1="1123.14" y1="479.26" x2="1123.14" y2="417.1" style="fill: none;stroke: #3180a4;stroke-miterlimit: 10"/>
  <line x1="-1.58" y1="480.53" x2="600.5" y2="480.53" style="fill: none;stroke: #3180a4;stroke-miterlimit: 10"/>
  <line x1="600.49" y1="480.53" x2="861.82" y2="480.53" style="fill: none;stroke: #3180a4;stroke-miterlimit: 10"/>
  <line x1="861.82" y1="480.53" x2="1124.41" y2="480.53" style="fill: none;stroke: #3180a4;stroke-miterlimit: 10"/>
  <line x1="-0.31" y1="162.12" x2="-0.31" y2="101.23" style="fill: none;stroke: #3180a4;stroke-miterlimit: 10"/>
  <line x1="600.49" y1="162.12" x2="600.49" y2="101.23" style="fill: none;stroke: #3180a4;stroke-miterlimit: 10"/>
  <line x1="861.82" y1="162.12" x2="861.82" y2="101.23" style="fill: none;stroke: #3180a4;stroke-miterlimit: 10"/>
  <line x1="1123.14" y1="162.12" x2="1123.14" y2="101.23" style="fill: none;stroke: #3180a4;stroke-miterlimit: 10"/>
  <line x1="-1.58" y1="163.39" x2="600.5" y2="163.39" style="fill: none;stroke: #3180a4;stroke-miterlimit: 10"/>
  <line x1="600.49" y1="163.39" x2="861.82" y2="163.39" style="fill: none;stroke: #3180a4;stroke-miterlimit: 10"/>
  <line x1="861.82" y1="163.39" x2="1124.41" y2="163.39" style="fill: none;stroke: #3180a4;stroke-miterlimit: 10"/>
  <line x1="-2.21" y1="734.24" x2="600.5" y2="734.24" style="fill: none;stroke: #76c3e2;stroke-miterlimit: 10;stroke-width: 1.5px"/>
  <line x1="-0.31" y1="795.77" x2="-0.31" y2="736.14" style="fill: none;stroke: #76c3e2;stroke-miterlimit: 10;stroke-width: 1.5px"/>
  <line x1="600.49" y1="734.24" x2="861.82" y2="734.24" style="fill: none;stroke: #76c3e2;stroke-miterlimit: 10;stroke-width: 1.5px"/>
  <line x1="600.49" y1="795.77" x2="600.49" y2="736.14" style="fill: none;stroke: #76c3e2;stroke-miterlimit: 10;stroke-width: 1.5px"/>
  <line x1="861.82" y1="734.24" x2="1125.04" y2="734.24" style="fill: none;stroke: #76c3e2;stroke-miterlimit: 10;stroke-width: 1.5px"/>
  <line x1="861.82" y1="795.77" x2="861.82" y2="736.14" style="fill: none;stroke: #76c3e2;stroke-miterlimit: 10;stroke-width: 1.5px"/>
  <line x1="1123.14" y1="795.77" x2="1123.14" y2="736.14" style="fill: none;stroke: #76c3e2;stroke-miterlimit: 10;stroke-width: 1.5px"/>
  <line x1="-2.21" y1="797.67" x2="600.5" y2="797.67" style="fill: none;stroke: #3180a4;stroke-miterlimit: 10;stroke-width: 1.5px"/>
  <line x1="-0.31" y1="859.19" x2="-0.31" y2="799.57" style="fill: none;stroke: #3180a4;stroke-miterlimit: 10;stroke-width: 1.5px"/>
  <line x1="600.49" y1="797.67" x2="861.82" y2="797.67" style="fill: none;stroke: #3180a4;stroke-miterlimit: 10;stroke-width: 1.5px"/>
  <line x1="600.49" y1="859.19" x2="600.49" y2="799.57" style="fill: none;stroke: #3180a4;stroke-miterlimit: 10;stroke-width: 1.5px"/>
  <line x1="861.82" y1="797.67" x2="1125.04" y2="797.67" style="fill: none;stroke: #3180a4;stroke-miterlimit: 10;stroke-width: 1.5px"/>
  <line x1="861.82" y1="859.19" x2="861.82" y2="799.57" style="fill: none;stroke: #3180a4;stroke-miterlimit: 10;stroke-width: 1.5px"/>
  <line x1="1123.14" y1="859.19" x2="1123.14" y2="799.57" style="fill: none;stroke: #3180a4;stroke-miterlimit: 10;stroke-width: 1.5px"/>
  <line x1="-2.21" y1="861.1" x2="600.5" y2="861.1" style="fill: none;stroke: #3180a4;stroke-miterlimit: 10;stroke-width: 1.5px"/>
  <line x1="600.49" y1="861.1" x2="861.82" y2="861.1" style="fill: none;stroke: #3180a4;stroke-miterlimit: 10;stroke-width: 1.5px"/>
  <line x1="861.82" y1="861.1" x2="1125.04" y2="861.1" style="fill: none;stroke: #3180a4;stroke-miterlimit: 10;stroke-width: 1.5px"/>
  <g>
    <path d="M613.77,14.64h9.59c7,0,11.08,5.33,11.08,12.3s-4.08,12.18-11.08,12.18h-9.59Zm9.59,20.61c4.44,0,6.71-3.77,6.71-8.31s-2.27-8.42-6.71-8.42H618.1V35.25Z" style="fill: #fff"/>
    <path d="M654.94,32.26H642.11c.47,2.31,2.24,3.48,4.69,3.48a5.5,5.5,0,0,0,4.51-2.06l2.74,2.1a8.69,8.69,0,0,1-7.46,3.69,8.38,8.38,0,0,1-8.74-8.66,8.4,8.4,0,0,1,8.7-8.64,8.16,8.16,0,0,1,8.49,8.5A13.8,13.8,0,0,1,654.94,32.26Zm-4-2.87a4,4,0,0,0-4.29-3.59,4.2,4.2,0,0,0-4.52,3.59Z" style="fill: #fff"/>
    <path d="M658.13,30.81c0-5.26,4.23-8.64,9-8.64a8.36,8.36,0,0,1,6.74,3.2L671,27.68A4.93,4.93,0,0,0,667.23,26a4.8,4.8,0,1,0,0,9.59A4.93,4.93,0,0,0,671,33.93l2.94,2.31a8.44,8.44,0,0,1-6.74,3.2C662.36,39.44,658.13,36.06,658.13,30.81Z" style="fill: #fff"/>
    <path d="M693.51,32.26H680.69c.46,2.31,2.24,3.48,4.69,3.48a5.53,5.53,0,0,0,4.51-2.06l2.73,2.1a8.67,8.67,0,0,1-7.46,3.69,8.38,8.38,0,0,1-8.74-8.66,8.4,8.4,0,0,1,8.71-8.64,8.16,8.16,0,0,1,8.49,8.5A14,14,0,0,1,693.51,32.26Zm-4-2.87a4,4,0,0,0-4.3-3.59,4.18,4.18,0,0,0-4.51,3.59Z" style="fill: #fff"/>
    <path d="M724.09,29.81v9.31H720v-9c0-2.66-1.39-4-3.3-4-2.38,0-3.88,1.78-3.7,4.76l0-.14v8.35h-4.13v-9c0-2.66-1.38-4-3.16-4s-3.83,1.07-3.83,4.23v8.74h-4.12V22.53h4.12v2.84c.6-2.09,2.87-3.2,4.93-3.2a5.59,5.59,0,0,1,5.37,3.27,6.08,6.08,0,0,1,5.58-3.27C721.89,22.17,724.09,25,724.09,29.81Z" style="fill: #fff"/>
    <path d="M746.93,30.81c0,5.29-3.8,8.66-8.17,8.66a6.6,6.6,0,0,1-5.5-2.59v2.24h-4.12V13.65h4.12V24.73a6.62,6.62,0,0,1,5.54-2.56C743.17,22.17,746.93,25.48,746.93,30.81Zm-4.12,0A4.66,4.66,0,0,0,738.12,26a4.8,4.8,0,1,0,4.69,4.76Z" style="fill: #fff"/>
    <path d="M767.25,32.26H754.43c.46,2.31,2.23,3.48,4.69,3.48a5.53,5.53,0,0,0,4.51-2.06l2.73,2.1a8.69,8.69,0,0,1-7.46,3.69,8.38,8.38,0,0,1-8.74-8.66,8.4,8.4,0,0,1,8.71-8.64,8.16,8.16,0,0,1,8.49,8.5A14,14,0,0,1,767.25,32.26Zm-4-2.87a4,4,0,0,0-4.3-3.59,4.18,4.18,0,0,0-4.51,3.59Z" style="fill: #fff"/>
    <path d="M783.05,22.74l-.81,3.91a5.15,5.15,0,0,0-2.42-.6c-2.7,0-4.19,2.63-4.19,7.28v5.79h-4.16V22.53h4.12v3.55c.89-2.77,2.7-3.91,4.77-3.91A6.09,6.09,0,0,1,783.05,22.74Z" style="fill: #fff"/>
    <path d="M808.77,32.33c0,4.27-3.45,7.11-8.35,7.11a8.33,8.33,0,0,1-7.6-4.37l3-2.17a5.28,5.28,0,0,0,4.45,2.77c2.55,0,4.36-1.42,4.36-3.48s-1.81-3.73-4.36-3.73H798V25.23h1.64c2.48,0,4-1.39,3.94-3.2-.07-1.6-1.35-2.66-3.23-2.66a5,5,0,0,0-4,2l-2.45-2.52a8.34,8.34,0,0,1,6.78-3.3c4.09,0,7.07,2.45,7,6.32a5.16,5.16,0,0,1-3,4.73A5.9,5.9,0,0,1,808.77,32.33Z" style="fill: #fff"/>
    <path d="M821.09,15.57V39.12H817V21.22l-5.22,2.06V19.44l9-3.87Z" style="fill: #fff"/>
    <path d="M824.25,43.91a12.74,12.74,0,0,0,2.81-9.37H831a12.59,12.59,0,0,1-4.23,10.33Z" style="fill: #fff"/>
  </g>
  <g>
    <path d="M627.66,80.93V84.8H612.35V82.71l8.91-10.77a7.16,7.16,0,0,0,1.92-3.76c0-1.85-1.38-3.09-3.48-3.09a3.6,3.6,0,0,0-3.8,3.44l-3.73-.71c.53-3.91,3.27-6.57,7.67-6.57s7.5,2.81,7.5,7a9.71,9.71,0,0,1-2.59,5.93L619,80.93Z" style="fill: #fff"/>
    <path d="M631.78,73.22c0-6.64,1.84-12,8.59-12s8.53,5.33,8.53,12-1.81,11.94-8.53,11.94S631.78,79.83,631.78,73.22Zm13,0c0-4.48-.92-8.13-4.37-8.13s-4.44,3.65-4.44,8.13,1,8.1,4.44,8.1S644.74,77.66,644.74,73.22Z" style="fill: #fff"/>
    <path d="M661.47,61.25V84.8h-4.08V66.9L652.17,69V65.12l9-3.87Z" style="fill: #fff"/>
    <path d="M684.13,72.47c0,6.36-2.94,12.69-9.76,12.69A7.69,7.69,0,0,1,667,80.5l3.45-1.77a4.12,4.12,0,0,0,3.91,2.59c3.12,0,5.43-3,5.5-7a6.58,6.58,0,0,1-5.22,2.27A7.56,7.56,0,0,1,666.76,69c0-4.3,3.31-7.78,8.46-7.78C680.76,61.25,684.13,65.9,684.13,72.47Zm-4.54-3.3a4.09,4.09,0,0,0-4.3-4c-2.52,0-4.37,1.67-4.37,3.94A4,4,0,0,0,675,73C677.6,73,679.52,71.37,679.59,69.17Z" style="fill: #fff"/>
  </g>
  <g>
    <path d="M875.09,14.64h9.59c7,0,11.08,5.33,11.08,12.3s-4.09,12.18-11.08,12.18h-9.59Zm9.59,20.61c4.44,0,6.71-3.77,6.71-8.31s-2.27-8.42-6.71-8.42h-5.26V35.25Z" style="fill: #fff"/>
    <path d="M916.25,32.26H903.43c.46,2.31,2.24,3.48,4.69,3.48a5.51,5.51,0,0,0,4.51-2.06l2.74,2.1a8.69,8.69,0,0,1-7.46,3.69,8.37,8.37,0,0,1-8.74-8.66,8.4,8.4,0,0,1,8.7-8.64,8.16,8.16,0,0,1,8.49,8.5A12,12,0,0,1,916.25,32.26Zm-4-2.87a4,4,0,0,0-4.3-3.59,4.19,4.19,0,0,0-4.51,3.59Z" style="fill: #fff"/>
    <path d="M919.45,30.81c0-5.26,4.23-8.64,9-8.64a8.38,8.38,0,0,1,6.75,3.2l-3,2.31A4.9,4.9,0,0,0,928.54,26a4.8,4.8,0,1,0,0,9.59,4.9,4.9,0,0,0,3.73-1.67l3,2.31a8.46,8.46,0,0,1-6.75,3.2C923.68,39.44,919.45,36.06,919.45,30.81Z" style="fill: #fff"/>
    <path d="M954.83,32.26H942c.47,2.31,2.24,3.48,4.69,3.48a5.51,5.51,0,0,0,4.51-2.06l2.74,2.1a8.69,8.69,0,0,1-7.46,3.69,8.38,8.38,0,0,1-8.74-8.66,8.4,8.4,0,0,1,8.7-8.64,8.16,8.16,0,0,1,8.49,8.5A13.8,13.8,0,0,1,954.83,32.26Zm-4-2.87a4,4,0,0,0-4.29-3.59A4.2,4.2,0,0,0,942,29.39Z" style="fill: #fff"/>
    <path d="M985.41,29.81v9.31h-4.08v-9c0-2.66-1.39-4-3.31-4-2.38,0-3.87,1.78-3.69,4.76l0-.14v8.35h-4.12v-9c0-2.66-1.38-4-3.16-4s-3.84,1.07-3.84,4.23v8.74h-4.12V22.53h4.12v2.84c.61-2.09,2.88-3.2,4.94-3.2a5.57,5.57,0,0,1,5.36,3.27,6.09,6.09,0,0,1,5.58-3.27C983.21,22.17,985.41,25,985.41,29.81Z" style="fill: #fff"/>
    <path d="M1008.25,30.81c0,5.29-3.8,8.66-8.17,8.66a6.63,6.63,0,0,1-5.51-2.59v2.24h-4.12V13.65h4.12V24.73a6.65,6.65,0,0,1,5.54-2.56C1004.48,22.17,1008.25,25.48,1008.25,30.81Zm-4.12,0A4.66,4.66,0,0,0,999.44,26a4.8,4.8,0,1,0,0,9.59A4.72,4.72,0,0,0,1004.13,30.77Z" style="fill: #fff"/>
    <path d="M1028.57,32.26h-12.83c.46,2.31,2.24,3.48,4.69,3.48a5.51,5.51,0,0,0,4.51-2.06l2.74,2.1a8.69,8.69,0,0,1-7.46,3.69,8.38,8.38,0,0,1-8.74-8.66,8.4,8.4,0,0,1,8.7-8.64,8.16,8.16,0,0,1,8.49,8.5A13.8,13.8,0,0,1,1028.57,32.26Zm-4-2.87a4,4,0,0,0-4.3-3.59,4.19,4.19,0,0,0-4.51,3.59Z" style="fill: #fff"/>
    <path d="M1044.37,22.74l-.82,3.91a5.14,5.14,0,0,0-2.41-.6c-2.7,0-4.19,2.63-4.19,7.28v5.79h-4.16V22.53h4.12v3.55c.89-2.77,2.7-3.91,4.76-3.91A6.13,6.13,0,0,1,1044.37,22.74Z" style="fill: #fff"/>
    <path d="M1070.09,32.33c0,4.27-3.45,7.11-8.35,7.11a8.33,8.33,0,0,1-7.6-4.37l3-2.17a5.27,5.27,0,0,0,4.44,2.77c2.56,0,4.37-1.42,4.37-3.48s-1.81-3.73-4.37-3.73h-2.27V25.23h1.63c2.49,0,4-1.39,3.95-3.2-.08-1.6-1.35-2.66-3.24-2.66a5,5,0,0,0-4,2l-2.45-2.52a8.38,8.38,0,0,1,6.79-3.3c4.08,0,7.07,2.45,7,6.32a5.16,5.16,0,0,1-3,4.73A5.91,5.91,0,0,1,1070.09,32.33Z" style="fill: #fff"/>
    <path d="M1082.41,15.57V39.12h-4.08V21.22l-5.23,2.06V19.44l9-3.87Z" style="fill: #fff"/>
    <path d="M1085.57,43.91a12.83,12.83,0,0,0,2.81-9.37h3.91a12.59,12.59,0,0,1-4.23,10.33Z" style="fill: #fff"/>
  </g>
  <g>
    <path d="M889,80.93V84.8H873.67V82.71l8.91-10.77a7.24,7.24,0,0,0,1.92-3.76c0-1.85-1.39-3.09-3.48-3.09a3.6,3.6,0,0,0-3.8,3.44l-3.73-.71c.53-3.91,3.27-6.57,7.67-6.57,4.55,0,7.5,2.81,7.5,7a9.72,9.72,0,0,1-2.6,5.93l-5.79,6.75Z" style="fill: #fff"/>
    <path d="M893.09,73.22c0-6.64,1.85-12,8.6-12s8.53,5.33,8.53,12-1.82,11.94-8.53,11.94S893.09,79.83,893.09,73.22Zm13,0c0-4.48-.92-8.13-4.37-8.13s-4.44,3.65-4.44,8.13,1,8.1,4.44,8.1S906.06,77.66,906.06,73.22Z" style="fill: #fff"/>
    <path d="M922.79,61.25V84.8H918.7V66.9L913.48,69V65.12l9-3.87Z" style="fill: #fff"/>
    <path d="M945.7,77.84c0,4.37-3.87,7.32-8.92,7.32s-8.91-3-8.91-7.29a6.51,6.51,0,0,1,4.4-6.28,4.93,4.93,0,0,1-2.56-4.44c0-3.45,3-5.9,7.07-5.9s7.07,2.45,7.07,5.9a4.91,4.91,0,0,1-2.56,4.44A6.47,6.47,0,0,1,945.7,77.84Zm-4.3-.36c0-2.31-2-4-4.62-4s-4.65,1.7-4.65,4,2,3.91,4.65,3.91S941.4,79.72,941.4,77.48Zm-7.6-9.91a3,3,0,0,0,6,0,3,3,0,0,0-6,0Z" style="fill: #fff"/>
  </g>
  <g>
    <path d="M19.49,135.52h-2.2v8.92H13V120h9.59c5.47,0,7.78,4,7.78,7.85,0,3.48-1.82,6.79-6.08,7.57l6.4,9.06H25.53Zm-2.2-3.66h4.37c3.05,0,4.33-1.74,4.33-4a3.73,3.73,0,0,0-3.76-4H17.29Z" style="fill: #fff"/>
    <path d="M50.32,137.58H37.5c.46,2.31,2.24,3.48,4.69,3.48A5.51,5.51,0,0,0,46.7,139l2.73,2.1A8.7,8.7,0,0,1,42,144.79a8.65,8.65,0,1,1,0-17.3A8.15,8.15,0,0,1,50.43,136,14.18,14.18,0,0,1,50.32,137.58Zm-4-2.88a4,4,0,0,0-4.3-3.58,4.19,4.19,0,0,0-4.51,3.58Z" style="fill: #fff"/>
    <path d="M53.41,139.25h3.87c0,1.14,1,2.2,2.74,2.2s2.7-.74,2.7-1.81c0-.92-.71-1.35-2-1.63l-2.2-.57c-3.73-1-4.69-3-4.69-5.08,0-2.59,2.56-4.87,6.18-4.87,3,0,6.29,1.46,6.26,5.19h-4a2,2,0,0,0-2.2-1.88c-1.28,0-2.17.71-2.17,1.74,0,.85.82,1.35,1.78,1.56l2.66.71c3.73,1,4.41,3.3,4.41,4.83,0,3.38-3.38,5.15-6.75,5.15S53.48,142.8,53.41,139.25Z" style="fill: #fff"/>
    <path d="M87.05,137.58H74.23c.46,2.31,2.23,3.48,4.69,3.48A5.53,5.53,0,0,0,83.43,139l2.73,2.1a8.71,8.71,0,0,1-7.46,3.69,8.65,8.65,0,1,1,0-17.3A8.15,8.15,0,0,1,87.16,136,14.18,14.18,0,0,1,87.05,137.58Zm-4-2.88a4,4,0,0,0-4.3-3.58,4.18,4.18,0,0,0-4.51,3.58Z" style="fill: #fff"/>
    <path d="M102.86,128.06,102,132a5.15,5.15,0,0,0-2.42-.6c-2.7,0-4.19,2.62-4.19,7.28v5.79H91.28V127.85H95.4v3.55c.88-2.77,2.7-3.91,4.76-3.91A6.17,6.17,0,0,1,102.86,128.06Z" style="fill: #fff"/>
    <path d="M121.47,127.85l-7,16.59H110.7l-6.92-16.59h4.44l4.4,11.37L117,127.85Z" style="fill: #fff"/>
    <path d="M140.22,137.58H127.4c.46,2.31,2.24,3.48,4.69,3.48A5.53,5.53,0,0,0,136.6,139l2.73,2.1a8.7,8.7,0,0,1-7.46,3.69,8.65,8.65,0,1,1,0-17.3,8.15,8.15,0,0,1,8.49,8.49A14.18,14.18,0,0,1,140.22,137.58Zm-4-2.88a4,4,0,0,0-4.3-3.58,4.19,4.19,0,0,0-4.51,3.58Z" style="fill: #fff"/>
    <path d="M143.31,139.25h3.87c0,1.14,1,2.2,2.74,2.2s2.7-.74,2.7-1.81c0-.92-.71-1.35-2-1.63l-2.2-.57c-3.73-1-4.69-3-4.69-5.08,0-2.59,2.56-4.87,6.18-4.87,3,0,6.29,1.46,6.26,5.19h-4a2,2,0,0,0-2.2-1.88c-1.28,0-2.17.71-2.17,1.74,0,.85.82,1.35,1.78,1.56l2.66.71c3.73,1,4.41,3.3,4.41,4.83,0,3.38-3.38,5.15-6.75,5.15S143.38,142.8,143.31,139.25Z" style="fill: #fff"/>
  </g>
  <g>
    <path d="M11.42,195.78A10.61,10.61,0,0,1,22,185a10.11,10.11,0,0,1,7.42,3.17L28,189.47a8.24,8.24,0,0,0-6-2.55,8.86,8.86,0,0,0,0,17.71,8.29,8.29,0,0,0,6-2.55l1.43,1.28A10.14,10.14,0,0,1,22,206.52,10.6,10.6,0,0,1,11.42,195.78Z" style="fill: #4a4a49"/>
    <path d="M32.13,199.06a7.16,7.16,0,0,1,7.42-7.36A7.19,7.19,0,0,1,47,199.06a7.44,7.44,0,1,1-14.88,0Zm12.93,0a5.5,5.5,0,1,0-5.51,5.6A5.41,5.41,0,0,0,45.06,199.06Z" style="fill: #4a4a49"/>
    <path d="M63.82,197.94v8.28h-2V198c0-2.74-1.74-4.42-4-4.42a4.46,4.46,0,0,0-4.75,4.72v7.89h-2V192h2v2.56c.86-2,3.17-2.86,4.93-2.86C61.47,191.7,63.82,194,63.82,197.94Z" style="fill: #4a4a49"/>
    <path d="M74.72,193.67H71.46v12.55H69.54V193.67H67V192h2.58v-5.66h1.92V192h3.26Z" style="fill: #4a4a49"/>
    <path d="M77.52,186.76a1.51,1.51,0,0,1,3,0,1.51,1.51,0,0,1-3,0ZM78,192H80v14.22H78Z" style="fill: #4a4a49"/>
    <path d="M97.79,197.94v8.28H95.85V198c0-2.74-1.74-4.42-4-4.42a4.46,4.46,0,0,0-4.75,4.72v7.89h-2V192h2v2.56c.85-2,3.17-2.86,4.93-2.86C95.45,191.7,97.79,194,97.79,197.94Z" style="fill: #4a4a49"/>
    <path d="M115.21,192v14.22h-1.95v-2.5c-.85,2-3.17,2.8-4.93,2.8-3.44,0-5.79-2.31-5.75-6.24V192h1.94v8.19c0,2.74,1.71,4.41,4,4.41a4.44,4.44,0,0,0,4.72-4.72V192Z" style="fill: #4a4a49"/>
    <path d="M119.87,186.76a1.51,1.51,0,0,1,3,0,1.51,1.51,0,0,1-3,0Zm.52,5.24h1.94v14.22h-1.94Z" style="fill: #4a4a49"/>
    <path d="M133.63,193.67h-3.26v12.55h-1.92V193.67h-2.58V192h2.58v-5.66h1.92V192h3.26Z" style="fill: #4a4a49"/>
    <path d="M149.09,192l-8.92,21.13H138.1L141,206l-5.88-14h2.1l4.84,11.63L147,192Z" style="fill: #4a4a49"/>
    <path d="M169.34,192.12,169,194a4.91,4.91,0,0,0-1.91-.4c-3.38,0-4.42,3.78-4.42,7.28v5.36h-2V192h2v3.47c.7-2.4,2.23-3.77,4.45-3.77A5.68,5.68,0,0,1,169.34,192.12Z" style="fill: #4a4a49"/>
    <path d="M184.93,199.92H172.69a5,5,0,0,0,5.33,4.74,5.29,5.29,0,0,0,4.62-2.43l1.68.73A7.36,7.36,0,1,1,178,191.7c4,0,7,2.86,7,7.36A8.24,8.24,0,0,1,184.93,199.92ZM183,198.24a4.85,4.85,0,0,0-5.08-4.69,5,5,0,0,0-5.24,4.69Z" style="fill: #4a4a49"/>
    <path d="M187.91,202.38h1.8a3.14,3.14,0,0,0,3.38,2.41c2,0,3.29-1,3.29-2.44,0-1.16-.8-1.92-2.26-2.28l-2-.49c-2-.49-3.62-1.52-3.62-3.9s2-4,4.69-4c2.37,0,4.56,1.31,4.66,3.86h-1.89a2.55,2.55,0,0,0-2.74-2.13c-1.64,0-2.77.95-2.77,2.28s1.16,1.92,2.19,2.17l2.1.51c2.77.67,3.62,2.35,3.62,4,0,2.53-2.28,4.14-5.23,4.14C190.62,206.52,188.16,205.09,187.91,202.38Z" style="fill: #4a4a49"/>
    <path d="M215.68,199.92H203.44a5,5,0,0,0,5.33,4.74,5.29,5.29,0,0,0,4.62-2.43l1.68.73a7.36,7.36,0,1,1-6.36-11.26c4,0,7,2.86,7,7.36A8.24,8.24,0,0,1,215.68,199.92Zm-1.89-1.68a4.86,4.86,0,0,0-5.08-4.69,5,5,0,0,0-5.24,4.69Z" style="fill: #4a4a49"/>
    <path d="M228.49,192.12l-.36,1.86a4.92,4.92,0,0,0-1.92-.4c-3.38,0-4.41,3.78-4.41,7.28v5.36h-2V192h2v3.47c.7-2.4,2.22-3.77,4.44-3.77A5.65,5.65,0,0,1,228.49,192.12Z" style="fill: #4a4a49"/>
    <path d="M243.69,192l-6,14.22h-2L229.71,192h2.07l4.87,11.84L241.58,192Z" style="fill: #4a4a49"/>
    <path d="M259.88,199.92H247.64a5,5,0,0,0,5.33,4.74,5.29,5.29,0,0,0,4.63-2.43l1.67.73a7.36,7.36,0,1,1-6.36-11.26c4,0,7,2.86,7,7.36A8.24,8.24,0,0,1,259.88,199.92ZM258,198.24a4.86,4.86,0,0,0-5.09-4.69,5,5,0,0,0-5.23,4.69Z" style="fill: #4a4a49"/>
  </g>
  <g>
    <path d="M783,186.19v.21l-10.9,19.82h-2.28l10-18.18h-9.95v-1.85Z" style="fill: #4a4a49"/>
    <path d="M799,200.28c0,3.59-3.07,6.24-7.24,6.24s-7.25-2.65-7.25-6.21a6,6,0,0,1,4.11-5.72,4.26,4.26,0,0,1-2.31-3.87c0-2.71,2.22-4.78,5.45-4.78s5.48,2.07,5.48,4.78a4.24,4.24,0,0,1-2.35,3.87A6,6,0,0,1,799,200.28Zm-2-.09c0-2.59-2.31-4.6-5.2-4.6s-5.21,2-5.21,4.57,2.25,4.5,5.21,4.5S797,202.69,797,200.19Zm-8.64-9.32a3.48,3.48,0,0,0,6.91,0,3.48,3.48,0,0,0-6.91,0Z" style="fill: #4a4a49"/>
    <path d="M801,210.94a12.31,12.31,0,0,0,2.35-8.47h1.94a11.69,11.69,0,0,1-2.95,8.92Z" style="fill: #4a4a49"/>
    <path d="M823.67,194.77c0,4.32-1.09,11.75-7.82,11.75a5.93,5.93,0,0,1-5.91-3.8l1.77-.73a4.25,4.25,0,0,0,4.17,2.67c4,0,5.75-4.41,5.66-8.4a6,6,0,0,1-5.21,2.68,6.51,6.51,0,1,1,.22-13C821.14,185.94,823.67,189.44,823.67,194.77Zm-2.16-1.86a4.93,4.93,0,0,0-9.86-.39,4.59,4.59,0,0,0,4.72,4.56C818.68,197.08,821.42,195.75,821.51,192.91Z" style="fill: #4a4a49"/>
    <path d="M832.93,185.94v20.28H831V188.83l-4.35,1.86v-1.92l6.18-2.83Z" style="fill: #4a4a49"/>
    <path d="M850,204.33v1.89H837.89v-.82l7.91-9.53a7.8,7.8,0,0,0,2-4.23,3.75,3.75,0,0,0-4.07-3.84c-2.23,0-3.9,1.19-4.27,3.1l-1.73-.42c.49-2.8,2.83-4.54,6-4.54,3.56,0,6,2.26,6,5.7a8.65,8.65,0,0,1-2.25,5.11l-6.36,7.58Z" style="fill: #4a4a49"/>
  </g>
  <g>
    <path d="M1015.3,185.94v20.28h-1.92V188.83l-4.35,1.86v-1.92l6.18-2.83Z" style="fill: #4a4a49"/>
    <path d="M1034.6,202h-3v4.23h-1.94V202h-10.48v-.46l12-15.34h.42v13.94h3Zm-4.93-1.86v-9.29l-7.25,9.29Z" style="fill: #4a4a49"/>
    <path d="M1052,200a6.49,6.49,0,0,1-6.88,6.54c-4.62,0-7.12-3.07-7.12-8.86,0-4.29,1.06-11.72,7.79-11.72a5.94,5.94,0,0,1,5.94,3.81l-1.77.73a4.26,4.26,0,0,0-4.2-2.68c-4,0-5.75,4.47-5.63,8.46a6.07,6.07,0,0,1,5.21-2.74A6.45,6.45,0,0,1,1052,200Zm-2,0a4.56,4.56,0,0,0-4.72-4.57c-2.31,0-5,1.34-5.14,4.17a4.93,4.93,0,0,0,9.86.4Z" style="fill: #4a4a49"/>
    <path d="M1054.05,210.94a12.31,12.31,0,0,0,2.35-8.47h1.95a11.73,11.73,0,0,1-3,8.92Z" style="fill: #4a4a49"/>
    <path d="M1075.42,200.52c0,3.6-2.92,6-7,6a6.85,6.85,0,0,1-6.33-4l1.61-.88a5.2,5.2,0,0,0,4.66,3c2.89,0,5.09-1.61,5.09-4a4.24,4.24,0,0,0-4.57-4.23h-2v-1.7h2a3.37,3.37,0,0,0,3.65-3.44c0-2-1.58-3.41-3.93-3.41a4.7,4.7,0,0,0-3.92,2.1l-1.4-1.1a6.3,6.3,0,0,1,5.36-2.86c3.5,0,5.84,2.1,5.84,5.24a4.62,4.62,0,0,1-2.68,4.26A5.14,5.14,0,0,1,1075.42,200.52Z" style="fill: #4a4a49"/>
    <path d="M1093.3,202h-3v4.23h-2V202h-10.47v-.46l12-15.34h.42v13.94h3Zm-4.94-1.86v-9.29l-7.24,9.29Z" style="fill: #4a4a49"/>
    <path d="M1096.71,196.23c0-5.69,1.49-10.29,7.15-10.29s7.09,4.6,7.09,10.29-1.43,10.29-7.09,10.29S1096.71,201.89,1096.71,196.23Zm12.33,0c0-4.63-1-8.43-5.18-8.43s-5.2,3.8-5.2,8.43,1,8.43,5.2,8.43S1109,200.83,1109,196.23Z" style="fill: #4a4a49"/>
  </g>
  <g>
    <path d="M25.24,267.75v1.88H13v-21h12v1.89h-10v7.85h8.71v1.89H14.92v7.46Z" style="fill: #4a4a49"/>
    <path d="M43.08,255.42v14.21H41.14v-2.77a6.37,6.37,0,0,1-5.67,3.08,7.42,7.42,0,0,1,0-14.83,6.37,6.37,0,0,1,5.67,3.05v-2.74Zm-1.94,7.15a5.47,5.47,0,0,0-5.51-5.6,5.56,5.56,0,1,0,5.51,5.6Z" style="fill: #4a4a49"/>
    <path d="M56.94,255.54l-.37,1.86a4.92,4.92,0,0,0-1.92-.4c-3.37,0-4.41,3.78-4.41,7.28v5.35h-2V255.42h2v3.47c.7-2.41,2.22-3.78,4.45-3.78A5.68,5.68,0,0,1,56.94,255.54Z" style="fill: #4a4a49"/>
    <path d="M82.6,261.35v8.28H80.65v-8.18c0-2.74-1.64-4.45-4-4.45-2.68,0-4.63,1.92-4.42,5.39l0-.12v7.36H70.3v-8.18c0-2.77-1.64-4.45-3.89-4.45s-4.48,1.34-4.54,4.75v7.88H59.92V255.42h1.95V258a5,5,0,0,1,4.87-2.87,5.07,5.07,0,0,1,5,3.41A5.2,5.2,0,0,1,77,255.11C80.41,255.11,82.6,257.43,82.6,261.35Z" style="fill: #4a4a49"/>
    <path d="M101.45,255.42v14.21h-2v-2.77a6.36,6.36,0,0,1-5.66,3.08,7.42,7.42,0,0,1,0-14.83,6.37,6.37,0,0,1,5.66,3.05v-2.74Zm-2,7.15A5.47,5.47,0,1,0,94,268.08,5.41,5.41,0,0,0,99.5,262.57Z" style="fill: #4a4a49"/>
    <path d="M115.3,255.54l-.36,1.86A4.92,4.92,0,0,0,113,257c-3.38,0-4.42,3.78-4.42,7.28v5.35h-2V255.42h2v3.47c.7-2.41,2.23-3.78,4.45-3.78A5.68,5.68,0,0,1,115.3,255.54Z" style="fill: #4a4a49"/>
    <path d="M127.42,269.63l-7.19-7.3v7.3h-1.94V247.41h1.94v13.46l5.33-5.45h2.71l-6.09,6.18,7.89,8Z" style="fill: #4a4a49"/>
    <path d="M145,263.33H132.78a5,5,0,0,0,5.32,4.75,5.29,5.29,0,0,0,4.63-2.43l1.68.73A7.37,7.37,0,1,1,138,255.11c4.05,0,7,2.87,7,7.37A8,8,0,0,1,145,263.33Zm-1.88-1.67A4.86,4.86,0,0,0,138,257a5,5,0,0,0-5.23,4.69Z" style="fill: #4a4a49"/>
    <path d="M163,247.41v22.22h-1.95v-2.77a6.36,6.36,0,0,1-5.66,3.08,7.42,7.42,0,0,1,0-14.83,6.37,6.37,0,0,1,5.66,3.05V247.41Zm-1.95,15.16a5.47,5.47,0,1,0-5.51,5.51A5.41,5.41,0,0,0,161.06,262.57Z" style="fill: #4a4a49"/>
    <path d="M185.14,255.54l-.36,1.86a5,5,0,0,0-1.92-.4c-3.38,0-4.42,3.78-4.42,7.28v5.35h-2V255.42h2v3.47c.7-2.41,2.23-3.78,4.45-3.78A5.68,5.68,0,0,1,185.14,255.54Z" style="fill: #4a4a49"/>
    <path d="M200.73,263.33H188.49a5,5,0,0,0,5.33,4.75,5.3,5.3,0,0,0,4.63-2.43l1.67.73a7.37,7.37,0,1,1-6.36-11.27c4.05,0,7,2.87,7,7.37A8,8,0,0,1,200.73,263.33Zm-1.89-1.67a4.85,4.85,0,0,0-5.08-4.69,5,5,0,0,0-5.24,4.69Z" style="fill: #4a4a49"/>
    <path d="M203.71,265.8h1.8a3.13,3.13,0,0,0,3.38,2.4c2,0,3.29-1,3.29-2.43,0-1.16-.8-1.92-2.26-2.28l-2-.49c-2-.49-3.62-1.52-3.62-3.9s2-4,4.69-4c2.37,0,4.57,1.31,4.66,3.87h-1.89a2.55,2.55,0,0,0-2.74-2.13c-1.64,0-2.77.94-2.77,2.28s1.16,1.92,2.19,2.16l2.1.52c2.77.67,3.62,2.35,3.62,4,0,2.53-2.28,4.14-5.23,4.14C206.42,269.94,204,268.51,203.71,265.8Z" style="fill: #4a4a49"/>
    <path d="M231.48,263.33H219.24a5,5,0,0,0,5.33,4.75,5.27,5.27,0,0,0,4.62-2.43l1.68.73a7.37,7.37,0,1,1-6.36-11.27c4,0,7,2.87,7,7.37A8,8,0,0,1,231.48,263.33Zm-1.89-1.67a4.85,4.85,0,0,0-5.08-4.69,5,5,0,0,0-5.24,4.69Z" style="fill: #4a4a49"/>
    <path d="M244.29,255.54l-.36,1.86A4.92,4.92,0,0,0,242,257c-3.38,0-4.41,3.78-4.41,7.28v5.35h-2V255.42h2v3.47c.7-2.41,2.22-3.78,4.44-3.78A5.64,5.64,0,0,1,244.29,255.54Z" style="fill: #4a4a49"/>
    <path d="M259.49,255.42l-6,14.21h-2l-5.94-14.21h2.07l4.88,11.84,4.93-11.84Z" style="fill: #4a4a49"/>
    <path d="M275.68,263.33H263.45a5,5,0,0,0,5.32,4.75,5.29,5.29,0,0,0,4.63-2.43l1.67.73a7.36,7.36,0,1,1-6.36-11.27c4.05,0,7,2.87,7,7.37A8,8,0,0,1,275.68,263.33Zm-1.88-1.67a4.86,4.86,0,0,0-5.09-4.69,5,5,0,0,0-5.23,4.69Z" style="fill: #4a4a49"/>
  </g>
  <g>
    <path d="M780.56,263.33c0,4-2.95,6.61-6.88,6.61a7.68,7.68,0,0,1-7-4.2l1.62-.88a5.81,5.81,0,0,0,5.23,3.22c2.89,0,5.06-1.88,5.06-4.72a4.48,4.48,0,0,0-4.78-4.53,11,11,0,0,0-5.3,1.7l-1.13-1,1.77-9.93h10v1.86h-8.46l-1.31,7a9.54,9.54,0,0,1,4.72-1.37A6,6,0,0,1,780.56,263.33Z" style="fill: #4a4a49"/>
    <path d="M789.3,249.36v20.27h-1.92V252.25L783,254.11v-1.92l6.18-2.83Z" style="fill: #4a4a49"/>
    <path d="M792.77,274.35a12.27,12.27,0,0,0,2.35-8.46h2a11.73,11.73,0,0,1-3,8.92Z" style="fill: #4a4a49"/>
    <path d="M814.14,263.94c0,3.59-2.92,6-7,6a6.85,6.85,0,0,1-6.33-4l1.61-.88a5.2,5.2,0,0,0,4.66,3c2.89,0,5.09-1.61,5.09-4.05a4.24,4.24,0,0,0-4.57-4.23h-2v-1.7h1.95a3.37,3.37,0,0,0,3.65-3.44c0-2-1.58-3.41-3.93-3.41a4.7,4.7,0,0,0-3.92,2.1l-1.4-1.1a6.3,6.3,0,0,1,5.35-2.86c3.51,0,5.85,2.1,5.85,5.24a4.63,4.63,0,0,1-2.68,4.26A5.14,5.14,0,0,1,814.14,263.94Z" style="fill: #4a4a49"/>
    <path d="M832,265.4h-3v4.23h-1.95V265.4H816.61V265l12-15.35H829v14h3Zm-4.94-1.85v-9.29l-7.24,9.29Z" style="fill: #4a4a49"/>
    <path d="M835.43,259.65c0-5.69,1.49-10.29,7.15-10.29s7.09,4.6,7.09,10.29-1.43,10.29-7.09,10.29S835.43,265.31,835.43,259.65Zm12.32,0c0-4.63-1-8.43-5.17-8.43s-5.2,3.8-5.2,8.43,1,8.43,5.2,8.43S847.75,264.25,847.75,259.65Z" style="fill: #4a4a49"/>
  </g>
  <path d="M1096.8,259.65c0-5.69,1.49-10.29,7.15-10.29s7.1,4.6,7.1,10.29-1.43,10.29-7.1,10.29S1096.8,265.31,1096.8,259.65Zm12.33,0c0-4.63-1-8.43-5.18-8.43s-5.2,3.8-5.2,8.43,1,8.43,5.2,8.43S1109.13,264.25,1109.13,259.65Z" style="fill: #4a4a49"/>
  <g>
    <path d="M11.52,327.42h2a4.8,4.8,0,0,0,5.06,4.05c3.35,0,5-2.13,5-4.11,0-2.28-2-3.38-4.11-3.9l-2.83-.67c-4.32-1-5-3.56-5-5.23,0-3.47,3.19-5.73,6.66-5.73s6.4,2.2,6.52,5.7h-2c-.12-2.32-2-3.81-4.57-3.81-2.37,0-4.59,1.49-4.59,3.84,0,1,.3,2.65,3.44,3.38l2.83.67c3.32.82,5.63,2.61,5.63,5.66s-2.44,6.09-7,6.09C14.44,333.36,11.67,330.46,11.52,327.42Z" style="fill: #4a4a49"/>
    <path d="M42.45,324.77v8.28h-2v-8.19c0-2.74-1.74-4.41-4-4.41a4.46,4.46,0,0,0-4.75,4.72v7.88H29.78V310.83h1.95v10.56c.85-2,3.17-2.86,4.93-2.86C40.1,318.53,42.45,320.85,42.45,324.77Z" style="fill: #4a4a49"/>
    <path d="M46.44,325.9a7.16,7.16,0,0,1,7.42-7.37,7.19,7.19,0,0,1,7.46,7.37,7.44,7.44,0,1,1-14.88,0Zm12.93,0a5.5,5.5,0,1,0-5.51,5.6A5.41,5.41,0,0,0,59.37,325.9Z" style="fill: #4a4a49"/>
    <path d="M74.17,319l-.37,1.86a4.91,4.91,0,0,0-1.91-.4c-3.38,0-4.42,3.77-4.42,7.28v5.35h-2V318.84h2v3.47c.7-2.41,2.23-3.78,4.45-3.78A5.51,5.51,0,0,1,74.17,319Z" style="fill: #4a4a49"/>
    <path d="M83.3,320.51H80.05v12.54H78.13V320.51H75.54v-1.67h2.59v-5.67h1.92v5.67H83.3Z" style="fill: #4a4a49"/>
    <path d="M85.65,325.11H95.88V327H85.65Z" style="fill: #4a4a49"/>
    <path d="M106.41,320.51h-3.26v12.54h-1.91V320.51H98.65v-1.67h2.59v-5.67h1.91v5.67h3.26Z" style="fill: #4a4a49"/>
    <path d="M122.67,326.75H110.43a5,5,0,0,0,5.33,4.75,5.26,5.26,0,0,0,4.62-2.44l1.68.74a7.37,7.37,0,1,1-6.36-11.27c4,0,7,2.86,7,7.37A8,8,0,0,1,122.67,326.75Zm-1.89-1.67a4.84,4.84,0,0,0-5.08-4.69,5,5,0,0,0-5.24,4.69Z" style="fill: #4a4a49"/>
    <path d="M135.49,319l-.37,1.86a4.92,4.92,0,0,0-1.92-.4c-3.38,0-4.41,3.77-4.41,7.28v5.35h-2V318.84h2v3.47c.7-2.41,2.22-3.78,4.44-3.78A5.56,5.56,0,0,1,135.49,319Z" style="fill: #4a4a49"/>
    <path d="M161.15,324.77v8.28h-2v-8.19c0-2.74-1.64-4.44-4-4.44-2.68,0-4.62,1.92-4.41,5.39l0-.12v7.36h-1.92v-8.19c0-2.77-1.64-4.44-3.9-4.44s-4.47,1.34-4.53,4.75v7.88h-1.95V318.84h1.95v2.55a5.46,5.46,0,0,1,9.86.55,5.2,5.2,0,0,1,5.24-3.41C159,318.53,161.15,320.85,161.15,324.77Z" style="fill: #4a4a49"/>
    <path d="M183.1,319l-.36,1.86a4.92,4.92,0,0,0-1.92-.4c-3.38,0-4.42,3.77-4.42,7.28v5.35h-2V318.84h2v3.47c.7-2.41,2.23-3.78,4.45-3.78A5.51,5.51,0,0,1,183.1,319Z" style="fill: #4a4a49"/>
    <path d="M198.69,326.75H186.45a5,5,0,0,0,5.33,4.75,5.29,5.29,0,0,0,4.63-2.44l1.67.74a7.37,7.37,0,1,1-6.36-11.27c4.05,0,7,2.86,7,7.37A8,8,0,0,1,198.69,326.75Zm-1.89-1.67a4.84,4.84,0,0,0-5.08-4.69,5,5,0,0,0-5.24,4.69Z" style="fill: #4a4a49"/>
    <path d="M201.67,329.22h1.8a3.14,3.14,0,0,0,3.38,2.4c2,0,3.29-1,3.29-2.43,0-1.16-.8-1.92-2.26-2.29l-2-.48c-2-.49-3.62-1.53-3.62-3.9s2-4,4.69-4c2.37,0,4.57,1.31,4.66,3.87h-1.89a2.55,2.55,0,0,0-2.74-2.13c-1.64,0-2.77.94-2.77,2.28s1.16,1.92,2.19,2.16l2.1.52c2.77.67,3.62,2.34,3.62,4,0,2.52-2.28,4.14-5.23,4.14C204.38,333.36,201.92,331.93,201.67,329.22Z" style="fill: #4a4a49"/>
    <path d="M229.44,326.75H217.2a5,5,0,0,0,5.33,4.75,5.26,5.26,0,0,0,4.62-2.44l1.68.74a7.37,7.37,0,1,1-6.36-11.27c4.05,0,7,2.86,7,7.37A8,8,0,0,1,229.44,326.75Zm-1.89-1.67a4.84,4.84,0,0,0-5.08-4.69,5,5,0,0,0-5.24,4.69Z" style="fill: #4a4a49"/>
    <path d="M242.25,319l-.36,1.86a4.92,4.92,0,0,0-1.92-.4c-3.38,0-4.41,3.77-4.41,7.28v5.35h-2V318.84h2v3.47c.7-2.41,2.22-3.78,4.44-3.78A5.47,5.47,0,0,1,242.25,319Z" style="fill: #4a4a49"/>
    <path d="M257.45,318.84l-6,14.21h-2l-5.94-14.21h2.07l4.88,11.84,4.93-11.84Z" style="fill: #4a4a49"/>
    <path d="M273.64,326.75H261.41a5,5,0,0,0,5.32,4.75,5.28,5.28,0,0,0,4.63-2.44l1.68.74a7.33,7.33,0,0,1-13.61-3.9,7,7,0,0,1,7.24-7.37c4.05,0,7,2.86,7,7.37A8,8,0,0,1,273.64,326.75Zm-1.88-1.67a4.86,4.86,0,0,0-5.09-4.69,5,5,0,0,0-5.23,4.69Z" style="fill: #4a4a49"/>
  </g>
  <g>
    <path d="M817.31,326.81a6.5,6.5,0,0,1-6.88,6.55c-4.63,0-7.12-3.08-7.12-8.86,0-4.29,1.06-11.72,7.79-11.72a6,6,0,0,1,5.94,3.8l-1.77.73a4.27,4.27,0,0,0-4.2-2.67c-4,0-5.75,4.47-5.63,8.46a6.07,6.07,0,0,1,5.2-2.74A6.45,6.45,0,0,1,817.31,326.81Zm-2,0a4.55,4.55,0,0,0-4.72-4.56c-2.31,0-5,1.33-5.14,4.17a4.93,4.93,0,0,0,9.86.39Z" style="fill: #4a4a49"/>
    <path d="M834.54,326.75c0,4-2.95,6.61-6.88,6.61a7.67,7.67,0,0,1-7-4.2l1.61-.89a5.81,5.81,0,0,0,5.24,3.23c2.89,0,5.05-1.89,5.05-4.72a4.47,4.47,0,0,0-4.78-4.53,11,11,0,0,0-5.29,1.7l-1.13-1,1.77-9.93h10v1.86h-8.46l-1.31,7a9.54,9.54,0,0,1,4.72-1.37A6,6,0,0,1,834.54,326.75Z" style="fill: #4a4a49"/>
    <path d="M850,331.17v1.88H837.86v-.82l7.92-9.53a7.84,7.84,0,0,0,2-4.23,3.76,3.76,0,0,0-4.08-3.83c-2.23,0-3.9,1.18-4.27,3.1l-1.73-.43c.49-2.8,2.83-4.53,6-4.53,3.56,0,6,2.25,6,5.69a8.67,8.67,0,0,1-2.25,5.12l-6.36,7.58Z" style="fill: #4a4a49"/>
  </g>
  <g>
    <path d="M1078.62,326.81a6.5,6.5,0,0,1-6.88,6.55c-4.62,0-7.12-3.08-7.12-8.86,0-4.29,1.06-11.72,7.79-11.72a6,6,0,0,1,5.94,3.8l-1.77.73a4.26,4.26,0,0,0-4.2-2.67c-4,0-5.75,4.47-5.63,8.46a6.07,6.07,0,0,1,5.21-2.74A6.45,6.45,0,0,1,1078.62,326.81Zm-2,0a4.55,4.55,0,0,0-4.72-4.56c-2.31,0-5,1.33-5.14,4.17a4.93,4.93,0,0,0,9.86.39Z" style="fill: #4a4a49"/>
    <path d="M1095.85,326.75c0,4-2.95,6.61-6.88,6.61a7.68,7.68,0,0,1-7-4.2l1.62-.89a5.8,5.8,0,0,0,5.23,3.23c2.89,0,5.06-1.89,5.06-4.72a4.48,4.48,0,0,0-4.78-4.53,11,11,0,0,0-5.3,1.7l-1.13-1,1.77-9.93h10v1.86h-8.46l-1.31,7a9.54,9.54,0,0,1,4.72-1.37A6,6,0,0,1,1095.85,326.75Z" style="fill: #4a4a49"/>
    <path d="M1111.32,331.17v1.88h-12.15v-.82l7.92-9.53a7.77,7.77,0,0,0,2-4.23,3.76,3.76,0,0,0-4.08-3.83c-2.22,0-3.9,1.18-4.26,3.1l-1.74-.43c.49-2.8,2.83-4.53,6-4.53,3.56,0,6,2.25,6,5.69a8.69,8.69,0,0,1-2.26,5.12l-6.36,7.58Z" style="fill: #4a4a49"/>
  </g>
  <g>
    <path d="M752.13,376.1v20.19h-3.5V380.94l-4.48,1.77v-3.29l7.73-3.32Z" style="fill: #fff"/>
    <path d="M769.6,390.47c0,3.66-3,6.09-7.15,6.09a7.17,7.17,0,0,1-6.52-3.74l2.56-1.86a4.51,4.51,0,0,0,3.81,2.37c2.19,0,3.74-1.21,3.74-3s-1.55-3.2-3.74-3.2h-1.95v-2.77h1.4c2.13,0,3.44-1.18,3.38-2.74a2.48,2.48,0,0,0-2.77-2.28A4.29,4.29,0,0,0,759,381.1l-2.1-2.16a7.15,7.15,0,0,1,5.81-2.84c3.5,0,6.06,2.11,6,5.42a4.41,4.41,0,0,1-2.59,4.05A5.07,5.07,0,0,1,769.6,390.47Z" style="fill: #fff"/>
    <path d="M773,386.36c0-5.69,1.59-10.26,7.37-10.26s7.31,4.57,7.31,10.26-1.56,10.23-7.31,10.23S773,392,773,386.36Zm11.11,0c0-3.83-.79-7-3.74-7s-3.81,3.14-3.81,7,.83,6.94,3.81,6.94S784.09,390.17,784.09,386.36Z" style="fill: #fff"/>
    <path d="M789.09,400.4a11,11,0,0,0,2.4-8h3.35a10.82,10.82,0,0,1-3.62,8.86Z" style="fill: #fff"/>
    <path d="M813.62,385.72c0,5.45-2.52,10.87-8.37,10.87a6.58,6.58,0,0,1-6.3-4l3-1.52a3.52,3.52,0,0,0,3.34,2.22c2.68,0,4.66-2.58,4.72-6a5.64,5.64,0,0,1-4.47,1.94,6.47,6.47,0,0,1-6.76-6.45c0-3.68,2.83-6.67,7.24-6.67C810.73,376.1,813.62,380.09,813.62,385.72Zm-3.89-2.83a3.5,3.5,0,0,0-3.69-3.47,3.46,3.46,0,0,0-3.74,3.38,3.4,3.4,0,0,0,3.53,3.35C808,386.15,809.67,384.78,809.73,382.89Z" style="fill: #fff"/>
    <path d="M817.07,386.36c0-5.69,1.58-10.26,7.36-10.26s7.31,4.57,7.31,10.26-1.55,10.23-7.31,10.23S817.07,392,817.07,386.36Zm11.11,0c0-3.83-.79-7-3.75-7s-3.8,3.14-3.8,7,.82,6.94,3.8,6.94S828.18,390.17,828.18,386.36Z" style="fill: #fff"/>
    <path d="M850.37,392.36h-3v3.93h-3.56v-3.93H834v-.94l11.75-15.07h1.62v12.81h3Zm-6.54-3.2v-5.72l-4.48,5.72Z" style="fill: #fff"/>
  </g>
  <g>
    <path d="M1013,376.1v20.19h-3.5V380.94l-4.47,1.77v-3.29l7.73-3.32Z" style="fill: #fff"/>
    <path d="M1032.59,392.36h-3v3.93H1026v-3.93h-9.8v-.94L1028,376.35h1.61v12.81h3Zm-6.55-3.2v-5.72l-4.47,5.72Z" style="fill: #fff"/>
    <path d="M1050.55,389.92c0,3.69-2.86,6.67-7.24,6.67-4.75,0-7.64-3.53-7.64-9.62,0-5.45,2.49-10.87,8.34-10.87a6.61,6.61,0,0,1,6.33,4l-3,1.49a3.58,3.58,0,0,0-3.37-2.19c-2.71,0-4.66,2.62-4.69,6.09a5.62,5.62,0,0,1,4.47-2A6.5,6.5,0,0,1,1050.55,389.92Zm-3.59,0a3.42,3.42,0,0,0-3.53-3.37c-2.19,0-3.81,1.37-3.87,3.28a3.71,3.71,0,0,0,7.4.09Z" style="fill: #fff"/>
    <path d="M1052.11,400.4a11.06,11.06,0,0,0,2.4-8h3.35a10.82,10.82,0,0,1-3.62,8.86Z" style="fill: #fff"/>
    <path d="M1076.67,385.72c0,5.45-2.52,10.87-8.37,10.87a6.57,6.57,0,0,1-6.3-4l3-1.52a3.54,3.54,0,0,0,3.35,2.22c2.68,0,4.66-2.58,4.72-6a5.67,5.67,0,0,1-4.48,1.94,6.47,6.47,0,0,1-6.75-6.45c0-3.68,2.83-6.67,7.24-6.67C1073.78,376.1,1076.67,380.09,1076.67,385.72Zm-3.89-2.83a3.51,3.51,0,0,0-3.69-3.47,3.46,3.46,0,0,0-3.74,3.38,3.4,3.4,0,0,0,3.53,3.35C1071.07,386.15,1072.71,384.78,1072.78,382.89Z" style="fill: #fff"/>
    <path d="M1094.91,385.72c0,5.45-2.53,10.87-8.37,10.87a6.56,6.56,0,0,1-6.3-4l3-1.52a3.54,3.54,0,0,0,3.35,2.22c2.68,0,4.66-2.58,4.72-6a5.67,5.67,0,0,1-4.48,1.94,6.47,6.47,0,0,1-6.76-6.45c0-3.68,2.83-6.67,7.25-6.67C1092,376.1,1094.91,380.09,1094.91,385.72Zm-3.9-2.83a3.73,3.73,0,0,0-7.43-.09,3.41,3.41,0,0,0,3.54,3.35C1089.31,386.15,1091,384.78,1091,382.89Z" style="fill: #fff"/>
    <path d="M1111.29,393v3.32h-13.12v-1.8l7.64-9.22a6.23,6.23,0,0,0,1.64-3.23,2.67,2.67,0,0,0-3-2.65,3.09,3.09,0,0,0-3.26,2.95l-3.19-.6a6.19,6.19,0,0,1,6.57-5.64c3.9,0,6.42,2.41,6.42,6a8.32,8.32,0,0,1-2.22,5.09l-5,5.78Z" style="fill: #fff"/>
  </g>
  <g>
    <path d="M11.55,454.41h4.29c0,1.88,1.85,3.62,4.55,3.62,2.49,0,4.09-1.42,4.09-3.34,0-1.7-1.46-2.7-3.52-3.27l-3.06-.85c-5.25-1.35-6.18-4.51-6.18-6.64,0-4.33,3.8-7.14,8.32-7.14s8,2.77,8,7.35h-4.3a3.49,3.49,0,0,0-3.8-3.48c-2.1,0-3.84,1.28-3.84,3.2,0,.67.22,2.13,3,2.84l2.92.78c3.83,1.07,6.78,3.13,6.78,7,0,4.47-3.73,7.38-8.53,7.38C15.06,461.9,11.55,458.53,11.55,454.41Z" style="fill: #fff"/>
    <path d="M49,452.24v9.31H44.9v-8.92c0-2.63-1.6-4-3.45-4a4,4,0,0,0-4.22,4.23v8.67H33.11V436.08h4.12v11.4c.81-2,3.48-2.88,5.15-2.88C46.64,444.6,49,447.41,49,452.24Z" style="fill: #fff"/>
    <path d="M53,453.2a8.48,8.48,0,0,1,8.81-8.6c4.73,0,8.85,3.34,8.85,8.6a8.83,8.83,0,0,1-17.66,0Zm13.5,0a4.67,4.67,0,1,0-4.69,4.87A4.67,4.67,0,0,0,66.53,453.2Z" style="fill: #fff"/>
    <path d="M86.46,445.17l-.82,3.91a5.15,5.15,0,0,0-2.42-.6c-2.7,0-4.19,2.63-4.19,7.28v5.79H74.88V445H79v3.55c.88-2.77,2.7-3.91,4.76-3.91A6.17,6.17,0,0,1,86.46,445.17Z" style="fill: #fff"/>
    <path d="M98.67,448.26H95.16v13.29H91V448.26h-3V445h3v-6.11h4.12V445h3.51Z" style="fill: #fff"/>
    <path d="M101.52,451.25H114V455H101.52Z" style="fill: #fff"/>
    <path d="M127.76,448.26h-3.51v13.29h-4.12V448.26h-3V445h3v-6.11h4.12V445h3.51Z" style="fill: #fff"/>
    <path d="M147,454.69H134.16c.46,2.31,2.24,3.48,4.69,3.48a5.53,5.53,0,0,0,4.51-2.06l2.73,2.1a8.7,8.7,0,0,1-7.46,3.69,8.65,8.65,0,1,1,0-17.3,8.15,8.15,0,0,1,8.49,8.49A14,14,0,0,1,147,454.69Zm-4-2.87a4,4,0,0,0-4.3-3.59,4.19,4.19,0,0,0-4.51,3.59Z" style="fill: #fff"/>
    <path d="M162.79,445.17l-.82,3.91a5.15,5.15,0,0,0-2.42-.6c-2.7,0-4.19,2.63-4.19,7.28v5.79h-4.15V445h4.12v3.55c.88-2.77,2.7-3.91,4.76-3.91A6.17,6.17,0,0,1,162.79,445.17Z" style="fill: #fff"/>
    <path d="M192.2,452.24v9.31h-4.09v-9c0-2.66-1.38-4-3.3-4-2.38,0-3.87,1.78-3.69,4.76l0-.14v8.35H177v-9c0-2.66-1.39-4-3.16-4-1.92,0-3.84,1.07-3.84,4.23v8.74h-4.12V445H170v2.84c.61-2.09,2.88-3.2,4.94-3.2a5.59,5.59,0,0,1,5.36,3.27,6.09,6.09,0,0,1,5.58-3.27C190,444.6,192.2,447.41,192.2,452.24Z" style="fill: #fff"/>
    <path d="M206.26,436.08h4.12v25.47h-4.12Z" style="fill: #fff"/>
    <path d="M215,439.1a2.6,2.6,0,0,1,2.7-2.52,2.52,2.52,0,1,1,0,5A2.62,2.62,0,0,1,215,439.1Zm.64,5.86h4.12v16.59H215.6Z" style="fill: #fff"/>
    <path d="M241.75,445v16.59h-4.12v-2.24a6.6,6.6,0,0,1-5.51,2.59c-4.37,0-8.17-3.37-8.17-8.66s3.76-8.64,8.13-8.64a6.65,6.65,0,0,1,5.55,2.56V445Zm-4.2,8.24a4.76,4.76,0,0,0-4.79-4.76,4.62,4.62,0,0,0-4.65,4.76,4.68,4.68,0,0,0,4.65,4.83A4.74,4.74,0,0,0,237.55,453.2Z" style="fill: #fff"/>
    <path d="M264.8,453.24c0,5.29-3.8,8.66-8.17,8.66a6.63,6.63,0,0,1-5.51-2.59v2.24H247V436.08h4.12v11.08a6.65,6.65,0,0,1,5.54-2.56C261,444.6,264.8,447.91,264.8,453.24Zm-4.12,0a4.66,4.66,0,0,0-4.69-4.76,4.8,4.8,0,1,0,0,9.59A4.72,4.72,0,0,0,260.68,453.2Z" style="fill: #fff"/>
    <path d="M268.42,439.1a2.59,2.59,0,0,1,2.7-2.52,2.52,2.52,0,1,1,0,5A2.62,2.62,0,0,1,268.42,439.1Zm.64,5.86h4.12v16.59h-4.12Z" style="fill: #fff"/>
    <path d="M278.4,436.08h4.12v25.47H278.4Z" style="fill: #fff"/>
    <path d="M287.1,439.1a2.6,2.6,0,0,1,2.7-2.52,2.52,2.52,0,1,1,0,5A2.62,2.62,0,0,1,287.1,439.1Zm.64,5.86h4.12v16.59h-4.12Z" style="fill: #fff"/>
    <path d="M306.25,448.26h-3.52v13.29h-4.12V448.26h-3V445h3v-6.11h4.12V445h3.52Z" style="fill: #fff"/>
    <path d="M309.12,439.1a2.6,2.6,0,0,1,2.7-2.52,2.52,2.52,0,1,1,0,5A2.62,2.62,0,0,1,309.12,439.1Zm.64,5.86h4.12v16.59h-4.12Z" style="fill: #fff"/>
    <path d="M335.16,454.69H322.34c.46,2.31,2.24,3.48,4.69,3.48a5.53,5.53,0,0,0,4.51-2.06l2.73,2.1a8.7,8.7,0,0,1-7.46,3.69,8.65,8.65,0,1,1,0-17.3,8.15,8.15,0,0,1,8.49,8.49A14,14,0,0,1,335.16,454.69Zm-4-2.87a4,4,0,0,0-4.3-3.59,4.19,4.19,0,0,0-4.51,3.59Z" style="fill: #fff"/>
    <path d="M338.25,456.36h3.87c0,1.14,1,2.2,2.74,2.2s2.7-.74,2.7-1.81-.71-1.35-2-1.63l-2.2-.57c-3.73-1-4.69-3-4.69-5.08,0-2.59,2.56-4.87,6.18-4.87,2.95,0,6.29,1.46,6.25,5.19H347.2a2,2,0,0,0-2.2-1.88c-1.28,0-2.17.71-2.17,1.74,0,.85.82,1.35,1.78,1.56l2.66.71c3.73,1,4.41,3.31,4.41,4.83,0,3.38-3.38,5.15-6.75,5.15S338.32,459.92,338.25,456.36Z" style="fill: #fff"/>
  </g>
  <g>
    <path d="M24,517.79H14.29l-2.11,5.57H10.05l8-21h2.13l8,21h-2.1Zm-.7-1.8-4.15-10.93L15,516Z" style="fill: #4a4a49"/>
    <path d="M30.12,516.23a7.27,7.27,0,0,1,7.52-7.4,7.51,7.51,0,0,1,5.11,1.95l-1.22,1.34a5.66,5.66,0,0,0-3.83-1.43,5.54,5.54,0,1,0,0,11.08,5.64,5.64,0,0,0,3.83-1.4l1.22,1.31a7.32,7.32,0,0,1-5.11,2A7.26,7.26,0,0,1,30.12,516.23Z" style="fill: #4a4a49"/>
    <path d="M45.28,516.23a7.27,7.27,0,0,1,7.52-7.4,7.51,7.51,0,0,1,5.11,1.95l-1.22,1.34a5.66,5.66,0,0,0-3.83-1.43,5.54,5.54,0,1,0,0,11.08,5.64,5.64,0,0,0,3.83-1.4l1.22,1.31a7.56,7.56,0,0,1-12.63-5.45Z" style="fill: #4a4a49"/>
    <path d="M60.44,516.2a7.45,7.45,0,0,1,14.89,0,7.45,7.45,0,1,1-14.89,0Zm12.94,0a5.5,5.5,0,1,0-5.51,5.6A5.42,5.42,0,0,0,73.38,516.2Z" style="fill: #4a4a49"/>
    <path d="M91.92,509.14v14.22H90v-2.5c-.85,2-3.17,2.8-4.93,2.8-3.44,0-5.79-2.31-5.75-6.24v-8.28h1.94v8.19c0,2.74,1.71,4.41,4,4.41A4.44,4.44,0,0,0,90,517v-7.88Z" style="fill: #4a4a49"/>
    <path d="M109.76,515.08v8.28h-2v-8.19c0-2.74-1.73-4.42-4-4.42A4.46,4.46,0,0,0,99,515.47v7.89H97.1V509.14H99v2.56a5.31,5.31,0,0,1,4.93-2.87C107.42,508.83,109.76,511.15,109.76,515.08Z" style="fill: #4a4a49"/>
    <path d="M120.66,510.81H117.4v12.55h-1.92V510.81H112.9v-1.67h2.58v-5.66h1.92v5.66h3.26Z" style="fill: #4a4a49"/>
    <path d="M122.67,519.52h1.79a3.14,3.14,0,0,0,3.38,2.4c2,0,3.29-1,3.29-2.43,0-1.16-.79-1.92-2.25-2.28l-2-.49c-2-.49-3.62-1.52-3.62-3.9s2-4,4.69-4c2.37,0,4.56,1.31,4.65,3.87h-1.88a2.55,2.55,0,0,0-2.74-2.13c-1.65,0-2.77.94-2.77,2.28s1.15,1.92,2.19,2.16l2.1.52c2.77.67,3.62,2.35,3.62,4,0,2.53-2.28,4.14-5.24,4.14C125.38,523.66,122.91,522.23,122.67,519.52Z" style="fill: #4a4a49"/>
    <path d="M160.3,516.26a7.17,7.17,0,0,1-7.22,7.4,6.33,6.33,0,0,1-5.66-3.08v9.69h-1.95V509.14h1.95v2.8a6.35,6.35,0,0,1,5.66-3.11A7.19,7.19,0,0,1,160.3,516.26Zm-1.92,0a5.48,5.48,0,0,0-5.45-5.6,5.41,5.41,0,0,0-5.51,5.51,5.48,5.48,0,1,0,11,.09Z" style="fill: #4a4a49"/>
    <path d="M178.35,509.14v14.22H176.4v-2.78a6.34,6.34,0,0,1-5.66,3.08,7.42,7.42,0,0,1,0-14.83,6.34,6.34,0,0,1,5.66,3.05v-2.74Zm-1.95,7.15a5.47,5.47,0,1,0-5.51,5.51A5.41,5.41,0,0,0,176.4,516.29Z" style="fill: #4a4a49"/>
    <path d="M195.71,509.14l-8.92,21.13h-2.08l2.93-7.1-5.88-14h2.1l4.84,11.63,4.9-11.63Z" style="fill: #4a4a49"/>
    <path d="M212.45,509.14v14.22H210.5v-2.78a6.35,6.35,0,0,1-5.66,3.08,7.42,7.42,0,0,1,0-14.83,6.36,6.36,0,0,1,5.66,3.05v-2.74Zm-1.95,7.15A5.47,5.47,0,1,0,205,521.8,5.41,5.41,0,0,0,210.5,516.29Z" style="fill: #4a4a49"/>
    <path d="M232.45,516.23a7.19,7.19,0,0,1-7.21,7.43,6.36,6.36,0,0,1-5.67-3.11v2.81h-1.94V501.13h1.94v10.78a6.33,6.33,0,0,1,5.67-3.08A7.16,7.16,0,0,1,232.45,516.23Zm-1.92,0a5.48,5.48,0,1,0-5.45,5.6A5.42,5.42,0,0,0,230.53,516.2Z" style="fill: #4a4a49"/>
    <path d="M236.65,501.13h1.95v22.23h-1.95Z" style="fill: #4a4a49"/>
    <path d="M257,517.05H244.78a5,5,0,0,0,5.33,4.75,5.3,5.3,0,0,0,4.63-2.43l1.67.73a7.37,7.37,0,1,1-6.36-11.27c4,0,7,2.87,7,7.37A8,8,0,0,1,257,517.05Zm-1.89-1.67a4.85,4.85,0,0,0-5.08-4.69,5,5,0,0,0-5.24,4.69Z" style="fill: #4a4a49"/>
  </g>
  <g>
    <path d="M778,519.12h-3v4.24h-2v-4.24H762.57v-.45l12-15.34H775v13.94h3ZM773,517.27V508l-7.24,9.29Z" style="fill: #4a4a49"/>
    <path d="M793.9,517.66c0,3.59-2.93,6-7,6a6.85,6.85,0,0,1-6.33-4l1.62-.88a5.18,5.18,0,0,0,4.65,3c2.9,0,5.09-1.61,5.09-4a4.24,4.24,0,0,0-4.57-4.23h-2v-1.7h1.95a3.37,3.37,0,0,0,3.65-3.44c0-2-1.58-3.41-3.92-3.41a4.71,4.71,0,0,0-3.93,2.1l-1.4-1.1a6.3,6.3,0,0,1,5.36-2.86c3.5,0,5.84,2.1,5.84,5.24a4.6,4.6,0,0,1-2.68,4.26A5.15,5.15,0,0,1,793.9,517.66Z" style="fill: #4a4a49"/>
    <path d="M795.94,528.07a12.27,12.27,0,0,0,2.34-8.46h2a11.73,11.73,0,0,1-3,8.92Z" style="fill: #4a4a49"/>
    <path d="M817.49,503.33v.21l-10.9,19.82h-2.28l10-18.18h-9.95v-1.85Z" style="fill: #4a4a49"/>
    <path d="M833.47,517.12a6.49,6.49,0,0,1-6.88,6.54c-4.62,0-7.12-3.08-7.12-8.86,0-4.29,1.07-11.72,7.79-11.72a5.94,5.94,0,0,1,5.94,3.81l-1.77.73a4.26,4.26,0,0,0-4.2-2.68c-4,0-5.75,4.47-5.63,8.46a6.1,6.1,0,0,1,5.21-2.74A6.45,6.45,0,0,1,833.47,517.12Zm-2,0a4.55,4.55,0,0,0-4.71-4.56c-2.32,0-5,1.34-5.15,4.17a4.93,4.93,0,0,0,9.86.39Z" style="fill: #4a4a49"/>
    <path d="M849.91,517.66c0,3.59-2.92,6-7,6a6.85,6.85,0,0,1-6.33-4l1.61-.88a5.2,5.2,0,0,0,4.66,3c2.89,0,5.09-1.61,5.09-4a4.24,4.24,0,0,0-4.57-4.23h-2v-1.7h1.95a3.37,3.37,0,0,0,3.65-3.44c0-2-1.58-3.41-3.92-3.41a4.71,4.71,0,0,0-3.93,2.1l-1.4-1.1a6.3,6.3,0,0,1,5.36-2.86c3.5,0,5.84,2.1,5.84,5.24a4.6,4.6,0,0,1-2.68,4.26A5.14,5.14,0,0,1,849.91,517.66Z" style="fill: #4a4a49"/>
  </g>
  <g>
    <path d="M1043.28,517.66c0,3.59-2.93,6-7,6a6.85,6.85,0,0,1-6.33-4l1.62-.88a5.18,5.18,0,0,0,4.65,3c2.9,0,5.09-1.61,5.09-4a4.24,4.24,0,0,0-4.57-4.23h-2v-1.7h2a3.37,3.37,0,0,0,3.65-3.44c0-2-1.58-3.41-3.92-3.41a4.71,4.71,0,0,0-3.93,2.1l-1.4-1.1a6.3,6.3,0,0,1,5.36-2.86c3.5,0,5.84,2.1,5.84,5.24a4.6,4.6,0,0,1-2.68,4.26A5.15,5.15,0,0,1,1043.28,517.66Z" style="fill: #4a4a49"/>
    <path d="M1052.35,503.08v20.28h-1.92V506l-4.35,1.86v-1.92l6.18-2.83Z" style="fill: #4a4a49"/>
    <path d="M1055.82,528.07a12.32,12.32,0,0,0,2.35-8.46h1.94a11.69,11.69,0,0,1-2.95,8.92Z" style="fill: #4a4a49"/>
    <path d="M1078.83,517.42c0,3.59-3.07,6.24-7.24,6.24s-7.25-2.65-7.25-6.21a6,6,0,0,1,4.11-5.72,4.26,4.26,0,0,1-2.31-3.87c0-2.71,2.22-4.78,5.45-4.78s5.48,2.07,5.48,4.78a4.23,4.23,0,0,1-2.34,3.87A6,6,0,0,1,1078.83,517.42Zm-2-.09c0-2.59-2.31-4.6-5.2-4.6s-5.21,2-5.21,4.57,2.26,4.5,5.21,4.5S1076.79,519.82,1076.79,517.33Zm-8.64-9.32a3.48,3.48,0,0,0,6.91,0,3.48,3.48,0,0,0-6.91,0Z" style="fill: #4a4a49"/>
    <path d="M1095.34,503.33v.21l-10.9,19.82h-2.28l10-18.18h-10v-1.85Z" style="fill: #4a4a49"/>
    <path d="M1111.38,517.42c0,3.59-3.07,6.24-7.24,6.24s-7.25-2.65-7.25-6.21a6,6,0,0,1,4.11-5.72,4.26,4.26,0,0,1-2.31-3.87c0-2.71,2.22-4.78,5.45-4.78s5.48,2.07,5.48,4.78a4.24,4.24,0,0,1-2.35,3.87A6,6,0,0,1,1111.38,517.42Zm-2-.09c0-2.59-2.31-4.6-5.2-4.6s-5.21,2-5.21,4.57,2.25,4.5,5.21,4.5S1109.34,519.82,1109.34,517.33ZM1100.7,508a3.22,3.22,0,0,0,3.44,3.08,3.11,3.11,0,1,0-3.44-3.08Z" style="fill: #4a4a49"/>
  </g>
  <g>
    <path d="M25.82,567.69h-6.7v19.08h-2V567.69H10.45V565.8H25.82Z" style="fill: #4a4a49"/>
    <path d="M40.28,572.56v14.21h-2V584a6.34,6.34,0,0,1-5.66,3.08,7.42,7.42,0,0,1,0-14.83,6.34,6.34,0,0,1,5.66,3v-2.74Zm-2,7.15a5.46,5.46,0,1,0-5.5,5.51A5.4,5.4,0,0,0,38.33,579.71Z" style="fill: #4a4a49"/>
    <path d="M54.65,586.77l-4.44-6.21-4.51,6.21H43.39L49.05,579l-4.62-6.39H46.8l3.41,4.78,3.38-4.78H56l-4.59,6.36L57,586.77Z" style="fill: #4a4a49"/>
    <path d="M72.8,580.47H60.56a5,5,0,0,0,5.33,4.75,5.3,5.3,0,0,0,4.63-2.43l1.67.73a7.37,7.37,0,1,1-6.36-11.27c4,0,7,2.86,7,7.37A8,8,0,0,1,72.8,580.47Zm-1.89-1.67a4.84,4.84,0,0,0-5.08-4.69,5,5,0,0,0-5.24,4.69Z" style="fill: #4a4a49"/>
    <path d="M75.78,582.94h1.8a3.14,3.14,0,0,0,3.38,2.4c2,0,3.29-1,3.29-2.43,0-1.16-.79-1.92-2.26-2.29l-2-.48c-2-.49-3.62-1.52-3.62-3.9s2-4,4.69-4c2.37,0,4.57,1.31,4.66,3.87H83.79A2.55,2.55,0,0,0,81.05,574c-1.64,0-2.77.94-2.77,2.28s1.16,1.92,2.19,2.16l2.1.52c2.77.67,3.62,2.34,3.62,4,0,2.52-2.28,4.14-5.23,4.14C78.49,587.08,76,585.65,75.78,582.94Z" style="fill: #4a4a49"/>
    <path d="M112.44,572.56v14.21h-2V584a6.36,6.36,0,0,1-5.66,3.08,7.42,7.42,0,0,1,0-14.83,6.37,6.37,0,0,1,5.66,3v-2.74Zm-2,7.15a5.47,5.47,0,0,0-5.51-5.6,5.41,5.41,0,0,0-5.42,5.51,5.47,5.47,0,0,0,5.42,5.6A5.41,5.41,0,0,0,110.49,579.71Z" style="fill: #4a4a49"/>
    <path d="M130.28,578.49v8.28h-1.95v-8.19c0-2.74-1.74-4.41-4-4.41a4.46,4.46,0,0,0-4.75,4.72v7.88h-2V572.56h2v2.55c.86-2,3.17-2.86,4.93-2.86C127.93,572.25,130.28,574.57,130.28,578.49Z" style="fill: #4a4a49"/>
    <path d="M149.09,564.55v22.22h-2V584a6.34,6.34,0,0,1-5.66,3.08,7.42,7.42,0,0,1,0-14.83,6.34,6.34,0,0,1,5.66,3V564.55Zm-2,15.16a5.46,5.46,0,0,0-5.51-5.6,5.4,5.4,0,0,0-5.41,5.51,5.46,5.46,0,0,0,5.41,5.6A5.41,5.41,0,0,0,147.14,579.71Z" style="fill: #4a4a49"/>
    <path d="M161.36,582.94h1.8a3.14,3.14,0,0,0,3.38,2.4c2,0,3.29-1,3.29-2.43,0-1.16-.79-1.92-2.26-2.29l-2-.48c-2-.49-3.62-1.52-3.62-3.9s2-4,4.69-4c2.37,0,4.57,1.31,4.66,3.87h-1.89a2.55,2.55,0,0,0-2.74-2.13c-1.64,0-2.77.94-2.77,2.28s1.16,1.92,2.19,2.16l2.1.52c2.77.67,3.62,2.34,3.62,4,0,2.52-2.28,4.14-5.23,4.14C164.07,587.08,161.61,585.65,161.36,582.94Z" style="fill: #4a4a49"/>
    <path d="M174.91,579.62a7.45,7.45,0,0,1,14.89,0,7.45,7.45,0,1,1-14.89,0Zm12.94,0a5.5,5.5,0,1,0-5.51,5.6A5.42,5.42,0,0,0,187.85,579.62Z" style="fill: #4a4a49"/>
    <path d="M193,579.65a7.27,7.27,0,0,1,7.52-7.4,7.49,7.49,0,0,1,5.12,2l-1.22,1.34a5.67,5.67,0,0,0-3.84-1.43,5.54,5.54,0,1,0,0,11.08,5.65,5.65,0,0,0,3.84-1.4l1.22,1.31a7.35,7.35,0,0,1-5.12,1.95A7.27,7.27,0,0,1,193,579.65Z" style="fill: #4a4a49"/>
    <path d="M209,567.32a1.51,1.51,0,1,1,1.49,1.37A1.44,1.44,0,0,1,209,567.32Zm.52,5.24h1.95v14.21H209.5Z" style="fill: #4a4a49"/>
    <path d="M230.44,572.56v14.21h-1.95V584a6.34,6.34,0,0,1-5.66,3.08,7.42,7.42,0,0,1,0-14.83,6.34,6.34,0,0,1,5.66,3v-2.74Zm-1.95,7.15a5.47,5.47,0,0,0-5.51-5.6,5.41,5.41,0,0,0-5.42,5.51,5.47,5.47,0,0,0,5.42,5.6A5.41,5.41,0,0,0,228.49,579.71Z" style="fill: #4a4a49"/>
    <path d="M235.62,564.55h1.95v22.22h-1.95Z" style="fill: #4a4a49"/>
    <path d="M249.84,582.94h1.79a3.15,3.15,0,0,0,3.38,2.4c2,0,3.29-1,3.29-2.43,0-1.16-.79-1.92-2.25-2.29l-2-.48c-2-.49-3.63-1.52-3.63-3.9s2-4,4.69-4c2.38,0,4.57,1.31,4.66,3.87h-1.89A2.55,2.55,0,0,0,255.1,574c-1.64,0-2.77.94-2.77,2.28s1.16,1.92,2.19,2.16l2.1.52c2.77.67,3.63,2.34,3.63,4,0,2.52-2.29,4.14-5.24,4.14C252.54,587.08,250.08,585.65,249.84,582.94Z" style="fill: #4a4a49"/>
    <path d="M277.6,580.47H265.36a5,5,0,0,0,5.33,4.75,5.3,5.3,0,0,0,4.63-2.43l1.67.73a7.37,7.37,0,1,1-6.36-11.27c4.05,0,7,2.86,7,7.37A8,8,0,0,1,277.6,580.47Zm-1.89-1.67a4.84,4.84,0,0,0-5.08-4.69,5,5,0,0,0-5.24,4.69Z" style="fill: #4a4a49"/>
    <path d="M280.77,579.65a7.26,7.26,0,0,1,7.52-7.4,7.46,7.46,0,0,1,5.11,2l-1.22,1.34a5.66,5.66,0,0,0-3.83-1.43,5.54,5.54,0,1,0,0,11.08,5.64,5.64,0,0,0,3.83-1.4l1.22,1.31a7.56,7.56,0,0,1-12.63-5.45Z" style="fill: #4a4a49"/>
    <path d="M309.75,572.56v14.21H307.8v-2.49c-.85,2-3.16,2.8-4.93,2.8-3.44,0-5.78-2.32-5.75-6.24v-8.28h1.94v8.19c0,2.74,1.71,4.41,4,4.41a4.43,4.43,0,0,0,4.72-4.72v-7.88Z" style="fill: #4a4a49"/>
    <path d="M323.6,572.68l-.36,1.86a4.92,4.92,0,0,0-1.92-.4c-3.38,0-4.41,3.78-4.41,7.28v5.35h-2V572.56h2V576c.7-2.41,2.22-3.78,4.44-3.78A5.68,5.68,0,0,1,323.6,572.68Z" style="fill: #4a4a49"/>
    <path d="M326.07,567.32a1.51,1.51,0,1,1,1.49,1.37A1.44,1.44,0,0,1,326.07,567.32Zm.52,5.24h2v14.21h-2Z" style="fill: #4a4a49"/>
    <path d="M339.86,574.23H336.6v12.54h-1.91V574.23H332.1v-1.67h2.59V566.9h1.91v5.66h3.26Z" style="fill: #4a4a49"/>
    <path d="M355.33,572.56l-8.92,21.12h-2.07l2.92-7.09-5.88-14h2.1l4.84,11.63,4.9-11.63Z" style="fill: #4a4a49"/>
    <path d="M381.69,579.68a7.16,7.16,0,0,1-7.21,7.4,6.33,6.33,0,0,1-5.67-3.08v9.68h-1.94V572.56h1.94v2.8a6.36,6.36,0,0,1,5.67-3.11A7.19,7.19,0,0,1,381.69,579.68Zm-1.92,0a5.47,5.47,0,0,0-5.45-5.6,5.41,5.41,0,0,0-5.51,5.51,5.47,5.47,0,0,0,5.51,5.6A5.41,5.41,0,0,0,379.77,579.71Z" style="fill: #4a4a49"/>
    <path d="M399.74,572.56v14.21H397.8V584a6.37,6.37,0,0,1-5.67,3.08,7.42,7.42,0,0,1,0-14.83,6.37,6.37,0,0,1,5.67,3v-2.74Zm-1.94,7.15a5.47,5.47,0,0,0-5.51-5.6,5.41,5.41,0,0,0-5.42,5.51,5.47,5.47,0,1,0,10.93.09Z" style="fill: #4a4a49"/>
    <path d="M417.1,572.56l-8.92,21.12h-2.07l2.92-7.09-5.87-14h2.1l4.84,11.63,4.9-11.63Z" style="fill: #4a4a49"/>
    <path d="M443.07,578.49v8.28h-1.95v-8.19c0-2.74-1.65-4.44-4-4.44-2.68,0-4.63,1.92-4.41,5.39l0-.12v7.36h-1.92v-8.19c0-2.77-1.65-4.44-3.9-4.44s-4.47,1.34-4.53,4.75v7.88h-1.95V572.56h1.95v2.55a5.46,5.46,0,0,1,9.86.55,5.19,5.19,0,0,1,5.23-3.41C440.88,572.25,443.07,574.57,443.07,578.49Z" style="fill: #4a4a49"/>
    <path d="M461.3,580.47H449.07a5,5,0,0,0,5.32,4.75,5.29,5.29,0,0,0,4.63-2.43l1.68.73a7.33,7.33,0,0,1-13.61-3.9,7,7,0,0,1,7.24-7.37c4.05,0,7,2.86,7,7.37A8,8,0,0,1,461.3,580.47Zm-1.88-1.67a4.86,4.86,0,0,0-5.09-4.69,5,5,0,0,0-5.23,4.69Z" style="fill: #4a4a49"/>
    <path d="M478.11,578.49v8.28h-1.95v-8.19c0-2.74-1.73-4.41-4-4.41a4.47,4.47,0,0,0-4.75,4.72v7.88h-1.94V572.56h1.94v2.55c.86-2,3.17-2.86,4.94-2.86C475.77,572.25,478.11,574.57,478.11,578.49Z" style="fill: #4a4a49"/>
    <path d="M489,574.23h-3.26v12.54h-1.92V574.23h-2.58v-1.67h2.58V566.9h1.92v5.66H489Z" style="fill: #4a4a49"/>
    <path d="M491,582.94h1.8a3.13,3.13,0,0,0,3.37,2.4c2,0,3.29-1,3.29-2.43,0-1.16-.79-1.92-2.25-2.29l-2-.48c-2-.49-3.62-1.52-3.62-3.9s2-4,4.69-4c2.37,0,4.56,1.31,4.65,3.87H499a2.55,2.55,0,0,0-2.74-2.13c-1.65,0-2.77.94-2.77,2.28s1.15,1.92,2.19,2.16l2.1.52c2.77.67,3.62,2.34,3.62,4,0,2.52-2.28,4.14-5.24,4.14C493.73,587.08,491.26,585.65,491,582.94Z" style="fill: #4a4a49"/>
  </g>
  <g>
    <path d="M774,581.08c0,3.59-2.93,6-7,6a6.87,6.87,0,0,1-6.34-4l1.62-.88a5.21,5.21,0,0,0,4.66,3c2.89,0,5.08-1.61,5.08-4.05a4.24,4.24,0,0,0-4.57-4.23h-2v-1.7h2a3.37,3.37,0,0,0,3.65-3.44c0-2-1.58-3.41-3.92-3.41a4.71,4.71,0,0,0-3.93,2.1l-1.4-1.1a6.31,6.31,0,0,1,5.36-2.86c3.5,0,5.84,2.1,5.84,5.24A4.61,4.61,0,0,1,770.3,576,5.14,5.14,0,0,1,774,581.08Z" style="fill: #4a4a49"/>
    <path d="M791.71,575.33c0,4.32-1.1,11.75-7.83,11.75a5.93,5.93,0,0,1-5.9-3.81l1.76-.73a4.26,4.26,0,0,0,4.17,2.68c4,0,5.76-4.41,5.67-8.4a6.09,6.09,0,0,1-5.21,2.68,6.51,6.51,0,1,1,.21-13C789.18,566.5,791.71,570,791.71,575.33Zm-2.17-1.86a4.93,4.93,0,0,0-9.86-.39,4.59,4.59,0,0,0,4.72,4.56C786.71,577.64,789.45,576.3,789.54,573.47Z" style="fill: #4a4a49"/>
    <path d="M793.23,591.49a12.27,12.27,0,0,0,2.34-8.46h1.95a11.69,11.69,0,0,1-2.95,8.92Z" style="fill: #4a4a49"/>
    <path d="M815.91,575.33c0,4.32-1.1,11.75-7.82,11.75a5.93,5.93,0,0,1-5.91-3.81l1.77-.73a4.24,4.24,0,0,0,4.17,2.68c4,0,5.75-4.41,5.66-8.4a6.09,6.09,0,0,1-5.21,2.68,6.51,6.51,0,1,1,.22-13C813.38,566.5,815.91,570,815.91,575.33Zm-2.16-1.86a4.94,4.94,0,0,0-9.87-.39,4.59,4.59,0,0,0,4.72,4.56C810.92,577.64,813.66,576.3,813.75,573.47Z" style="fill: #4a4a49"/>
    <path d="M832.5,581.08c0,3.59-2.92,6-7,6a6.85,6.85,0,0,1-6.33-4l1.61-.88a5.22,5.22,0,0,0,4.66,3c2.89,0,5.08-1.61,5.08-4.05a4.24,4.24,0,0,0-4.56-4.23h-2v-1.7h1.95a3.37,3.37,0,0,0,3.65-3.44c0-2-1.58-3.41-3.93-3.41a4.74,4.74,0,0,0-3.93,2.1l-1.4-1.1a6.33,6.33,0,0,1,5.36-2.86c3.5,0,5.85,2.1,5.85,5.24a4.63,4.63,0,0,1-2.68,4.26A5.13,5.13,0,0,1,832.5,581.08Z" style="fill: #4a4a49"/>
    <path d="M850.37,582.54h-3v4.23h-1.95v-4.23H835v-.45l12-15.35h.43v14h3Zm-4.93-1.85V571.4l-7.24,9.29Z" style="fill: #4a4a49"/>
  </g>
  <g>
    <path d="M1043.55,581.08c0,3.59-2.92,6-7,6a6.84,6.84,0,0,1-6.33-4l1.61-.88a5.21,5.21,0,0,0,4.66,3c2.89,0,5.08-1.61,5.08-4.05a4.24,4.24,0,0,0-4.56-4.23h-2v-1.7h1.94a3.37,3.37,0,0,0,3.66-3.44c0-2-1.59-3.41-3.93-3.41a4.72,4.72,0,0,0-3.93,2.1l-1.4-1.1a6.33,6.33,0,0,1,5.36-2.86c3.5,0,5.84,2.1,5.84,5.24a4.62,4.62,0,0,1-2.67,4.26A5.13,5.13,0,0,1,1043.55,581.08Z" style="fill: #4a4a49"/>
    <path d="M1061.6,580.84c0,3.59-3.07,6.24-7.24,6.24s-7.25-2.65-7.25-6.21a6,6,0,0,1,4.11-5.73,4.25,4.25,0,0,1-2.31-3.86c0-2.71,2.22-4.78,5.45-4.78s5.48,2.07,5.48,4.78a4.23,4.23,0,0,1-2.35,3.86A6.05,6.05,0,0,1,1061.6,580.84Zm-2-.09c0-2.59-2.31-4.6-5.2-4.6s-5.21,2-5.21,4.57,2.26,4.5,5.21,4.5S1059.56,583.24,1059.56,580.75Zm-8.64-9.32a3.48,3.48,0,0,0,6.91,0,3.48,3.48,0,0,0-6.91,0Z" style="fill: #4a4a49"/>
    <path d="M1063.55,591.49a12.27,12.27,0,0,0,2.35-8.46h1.95a11.73,11.73,0,0,1-3,8.92Z" style="fill: #4a4a49"/>
    <path d="M1076.46,566.5v20.27h-1.92V569.39l-4.35,1.86v-1.92l6.18-2.83Z" style="fill: #4a4a49"/>
    <path d="M1081.79,576.79c0-5.69,1.49-10.29,7.15-10.29s7.1,4.6,7.1,10.29-1.44,10.29-7.1,10.29S1081.79,582.45,1081.79,576.79Zm12.33,0c0-4.63-1-8.43-5.18-8.43s-5.2,3.8-5.2,8.43,1,8.43,5.2,8.43S1094.12,581.39,1094.12,576.79Z" style="fill: #4a4a49"/>
    <path d="M1112.6,566.74V567l-10.9,19.81h-2.28l10-18.17h-10v-1.86Z" style="fill: #4a4a49"/>
  </g>
  <g>
    <path d="M20.77,642l5.81,8.22H24.15L18.39,642h-3.5v8.22h-2v-21h7.8c4.38,0,6.06,3.16,6.06,6.39S25.09,641.88,20.77,642Zm-5.88-1.85h5.3c3.29,0,4.54-2,4.54-4.51s-1.34-4.51-4-4.51H14.89Z" style="fill: #4a4a49"/>
    <path d="M44,643.89H31.73a5,5,0,0,0,5.33,4.75,5.29,5.29,0,0,0,4.63-2.44l1.67.73A7.32,7.32,0,0,1,29.75,643,7,7,0,0,1,37,635.67c4,0,7,2.86,7,7.37A8,8,0,0,1,44,643.89Zm-1.89-1.67A4.84,4.84,0,0,0,37,637.53a5,5,0,0,0-5.24,4.69Z" style="fill: #4a4a49"/>
    <path d="M47.14,643.07a7.26,7.26,0,0,1,7.51-7.4,7.49,7.49,0,0,1,5.12,2L58.55,639a5.66,5.66,0,0,0-3.83-1.43,5.54,5.54,0,1,0,0,11.08,5.64,5.64,0,0,0,3.83-1.4l1.22,1.31a7.39,7.39,0,0,1-5.12,2A7.26,7.26,0,0,1,47.14,643.07Z" style="fill: #4a4a49"/>
    <path d="M76.51,643.89H64.28a5,5,0,0,0,5.32,4.75,5.28,5.28,0,0,0,4.63-2.44l1.67.73a7.36,7.36,0,1,1-6.36-11.26c4,0,7,2.86,7,7.37A8,8,0,0,1,76.51,643.89Zm-1.88-1.67a4.86,4.86,0,0,0-5.09-4.69,5,5,0,0,0-5.23,4.69Z" style="fill: #4a4a49"/>
    <path d="M80.14,630.74a1.51,1.51,0,1,1,1.49,1.37A1.44,1.44,0,0,1,80.14,630.74Zm.52,5.24H82.6v14.21H80.66Z" style="fill: #4a4a49"/>
    <path d="M99.93,636l-6,14.21h-2L86,636H88l4.87,11.84L97.83,636Z" style="fill: #4a4a49"/>
    <path d="M116.15,643.89H103.92a5,5,0,0,0,5.32,4.75,5.28,5.28,0,0,0,4.63-2.44l1.67.73a7.36,7.36,0,1,1-6.36-11.26c4,0,7,2.86,7,7.37A8,8,0,0,1,116.15,643.89Zm-1.88-1.67a4.86,4.86,0,0,0-5.09-4.69,5,5,0,0,0-5.23,4.69Z" style="fill: #4a4a49"/>
    <path d="M134.15,628v22.22h-2v-2.77a6.36,6.36,0,0,1-5.66,3.08,7.42,7.42,0,0,1,0-14.83,6.38,6.38,0,0,1,5.66,3V628Zm-2,15.16a5.47,5.47,0,0,0-5.51-5.6,5.41,5.41,0,0,0-5.42,5.51,5.48,5.48,0,0,0,5.42,5.6A5.41,5.41,0,0,0,132.2,643.13Z" style="fill: #4a4a49"/>
    <path d="M162.4,643.1a7.17,7.17,0,0,1-7.22,7.4,6.33,6.33,0,0,1-5.66-3.08v9.68h-2V636h2v2.8a6.35,6.35,0,0,1,5.66-3.11A7.19,7.19,0,0,1,162.4,643.1Zm-1.92,0a5.47,5.47,0,0,0-5.45-5.6,5.41,5.41,0,0,0-5.51,5.51,5.48,5.48,0,1,0,11,.09Z" style="fill: #4a4a49"/>
    <path d="M175.28,636.1l-.37,1.85a5.07,5.07,0,0,0-1.92-.39c-3.37,0-4.41,3.77-4.41,7.27v5.36h-2V636h2v3.47c.7-2.41,2.22-3.78,4.45-3.78A5.51,5.51,0,0,1,175.28,636.1Z" style="fill: #4a4a49"/>
    <path d="M190.83,643.89H178.6a5,5,0,0,0,5.32,4.75,5.28,5.28,0,0,0,4.63-2.44l1.68.73a7.36,7.36,0,1,1-6.37-11.26c4,0,7,2.86,7,7.37A6,6,0,0,1,190.83,643.89ZM189,642.22a4.86,4.86,0,0,0-5.09-4.69,5,5,0,0,0-5.23,4.69Z" style="fill: #4a4a49"/>
    <path d="M194.7,642.25h10.23v1.88H194.7Z" style="fill: #4a4a49"/>
    <path d="M224.66,643.1a7.17,7.17,0,0,1-7.22,7.4,6.33,6.33,0,0,1-5.66-3.08v9.68h-1.95V636h1.95v2.8a6.35,6.35,0,0,1,5.66-3.11A7.19,7.19,0,0,1,224.66,643.1Zm-1.92,0a5.47,5.47,0,0,0-5.45-5.6,5.41,5.41,0,0,0-5.51,5.51,5.48,5.48,0,1,0,11,.09Z" style="fill: #4a4a49"/>
    <path d="M242.71,636v14.21h-2v-2.77a6.34,6.34,0,0,1-5.66,3.08,7.42,7.42,0,0,1,0-14.83,6.36,6.36,0,0,1,5.66,3V636Zm-2,7.15a5.46,5.46,0,0,0-5.51-5.6,5.4,5.4,0,0,0-5.41,5.51,5.47,5.47,0,0,0,5.41,5.6A5.41,5.41,0,0,0,240.76,643.13Z" style="fill: #4a4a49"/>
    <path d="M260.07,636l-8.92,21.12h-2.07L252,650l-5.88-14h2.1l4.84,11.62L258,636Z" style="fill: #4a4a49"/>
    <path d="M286,641.91v8.28h-1.94V642c0-2.74-1.65-4.44-4-4.44-2.68,0-4.63,1.92-4.42,5.39l0-.13v7.37h-1.91V642c0-2.77-1.65-4.44-3.9-4.44s-4.48,1.34-4.54,4.75v7.88h-1.94V636h1.94v2.55a5.47,5.47,0,0,1,9.87.55,5.19,5.19,0,0,1,5.23-3.41C283.84,635.67,286,638,286,641.91Z" style="fill: #4a4a49"/>
    <path d="M304.27,643.89H292a5,5,0,0,0,5.32,4.75A5.29,5.29,0,0,0,302,646.2l1.67.73a7.36,7.36,0,1,1-6.36-11.26c4.05,0,7,2.86,7,7.37A8,8,0,0,1,304.27,643.89Zm-1.89-1.67a4.84,4.84,0,0,0-5.08-4.69,5,5,0,0,0-5.24,4.69Z" style="fill: #4a4a49"/>
    <path d="M321.08,641.91v8.28h-1.95V642c0-2.74-1.74-4.41-4-4.41a4.46,4.46,0,0,0-4.75,4.72v7.88h-1.95V636h1.95v2.55c.85-2,3.17-2.86,4.93-2.86C318.73,635.67,321.08,638,321.08,641.91Z" style="fill: #4a4a49"/>
    <path d="M332,637.65h-3.26v12.54H326.8V637.65h-2.59V636h2.59v-5.67h1.92V636H332Z" style="fill: #4a4a49"/>
    <path d="M334,646.36h1.79a3.15,3.15,0,0,0,3.38,2.4c2,0,3.29-1,3.29-2.43,0-1.16-.79-1.92-2.25-2.29l-2-.48c-2-.49-3.62-1.53-3.62-3.9s2-4,4.68-4c2.38,0,4.57,1.31,4.66,3.87H342a2.55,2.55,0,0,0-2.74-2.13c-1.64,0-2.77.94-2.77,2.28s1.16,1.92,2.2,2.16l2.1.52c2.77.67,3.62,2.34,3.62,4,0,2.52-2.28,4.14-5.24,4.14C336.7,650.5,334.23,649.07,334,646.36Z" style="fill: #4a4a49"/>
    <path d="M370.64,628v22.22h-1.95v-2.77A6.34,6.34,0,0,1,363,650.5a7.42,7.42,0,0,1,0-14.83,6.36,6.36,0,0,1,5.66,3V628Zm-1.95,15.16a5.47,5.47,0,0,0-5.51-5.6,5.41,5.41,0,0,0-5.42,5.51,5.48,5.48,0,0,0,5.42,5.6A5.41,5.41,0,0,0,368.69,643.13Z" style="fill: #4a4a49"/>
    <path d="M374.84,643a7.45,7.45,0,0,1,14.89,0,7.45,7.45,0,1,1-14.89,0Zm12.94,0a5.5,5.5,0,1,0-5.51,5.6A5.42,5.42,0,0,0,387.78,643Z" style="fill: #4a4a49"/>
    <path d="M406.54,641.91v8.28h-2V642c0-2.74-1.74-4.41-4-4.41a4.46,4.46,0,0,0-4.75,4.72v7.88h-1.95V636h1.95v2.55c.85-2,3.17-2.86,4.93-2.86C404.19,635.67,406.54,638,406.54,641.91Z" style="fill: #4a4a49"/>
    <path d="M410.53,643a7.44,7.44,0,0,1,14.88,0,7.44,7.44,0,1,1-14.88,0Zm12.93,0a5.5,5.5,0,1,0-5.51,5.6A5.41,5.41,0,0,0,423.46,643Z" style="fill: #4a4a49"/>
    <path d="M438.26,636.1l-.37,1.85a5.06,5.06,0,0,0-1.91-.39c-3.38,0-4.42,3.77-4.42,7.27v5.36h-2V636h2v3.47c.7-2.41,2.23-3.78,4.45-3.78A5.51,5.51,0,0,1,438.26,636.1Z" style="fill: #4a4a49"/>
    <path d="M439.88,646.36h1.79a3.14,3.14,0,0,0,3.38,2.4c2,0,3.29-1,3.29-2.43,0-1.16-.79-1.92-2.26-2.29l-2-.48c-2-.49-3.62-1.53-3.62-3.9s2-4,4.69-4c2.37,0,4.57,1.31,4.66,3.87h-1.89a2.55,2.55,0,0,0-2.74-2.13c-1.64,0-2.77.94-2.77,2.28s1.16,1.92,2.19,2.16l2.1.52c2.77.67,3.63,2.34,3.63,4,0,2.52-2.29,4.14-5.24,4.14C442.58,650.5,440.12,649.07,439.88,646.36Z" style="fill: #4a4a49"/>
  </g>
  <g>
    <path d="M759.86,630.16v.21L749,650.19h-2.28l10-18.17h-9.95v-1.86Z" style="fill: #4a4a49"/>
    <path d="M775.45,643.89c0,4-3,6.61-6.88,6.61a7.64,7.64,0,0,1-7-4.21l1.61-.88a5.8,5.8,0,0,0,5.23,3.23c2.9,0,5.06-1.89,5.06-4.72a4.48,4.48,0,0,0-4.78-4.54,10.92,10.92,0,0,0-5.3,1.71l-1.12-1,1.76-9.92h10.05V632h-8.47l-1.31,7a9.57,9.57,0,0,1,4.72-1.37A6,6,0,0,1,775.45,643.89Z" style="fill: #4a4a49"/>
    <path d="M793,638.75c0,4.32-1.09,11.75-7.82,11.75a6,6,0,0,1-5.91-3.81L781,646a4.24,4.24,0,0,0,4.17,2.68c4,0,5.75-4.42,5.66-8.4a6.06,6.06,0,0,1-5.2,2.68,6.51,6.51,0,1,1,.21-13C790.43,629.92,793,633.42,793,638.75Zm-2.16-1.86a4.93,4.93,0,0,0-9.86-.4,4.6,4.6,0,0,0,4.72,4.57C788,641.06,790.7,639.72,790.79,636.89Z" style="fill: #4a4a49"/>
    <path d="M794.48,654.91a12.32,12.32,0,0,0,2.34-8.46h1.95a11.73,11.73,0,0,1-2.95,8.92Z" style="fill: #4a4a49"/>
    <path d="M816.79,644a6.5,6.5,0,0,1-6.88,6.55c-4.63,0-7.12-3.08-7.12-8.86,0-4.3,1.06-11.72,7.79-11.72a6,6,0,0,1,5.94,3.8l-1.77.73a4.26,4.26,0,0,0-4.2-2.68c-4,0-5.75,4.48-5.63,8.47a6,6,0,0,1,5.2-2.74A6.45,6.45,0,0,1,816.79,644Zm-2,0a4.56,4.56,0,0,0-4.72-4.57c-2.31,0-5,1.34-5.14,4.17a4.93,4.93,0,0,0,9.86.4Z" style="fill: #4a4a49"/>
    <path d="M834.69,644a6.5,6.5,0,0,1-6.88,6.55c-4.63,0-7.12-3.08-7.12-8.86,0-4.3,1.06-11.72,7.79-11.72a6,6,0,0,1,5.94,3.8l-1.77.73a4.26,4.26,0,0,0-4.2-2.68c-4,0-5.75,4.48-5.63,8.47a6,6,0,0,1,5.2-2.74A6.45,6.45,0,0,1,834.69,644Zm-2,0a4.56,4.56,0,0,0-4.72-4.57c-2.31,0-5,1.34-5.14,4.17a4.93,4.93,0,0,0,9.86.4Z" style="fill: #4a4a49"/>
    <path d="M851.31,630.16v.21l-10.89,19.82h-2.29l10-18.17h-10v-1.86Z" style="fill: #4a4a49"/>
  </g>
  <g>
    <path d="M1006.44,629.92v20.27h-1.92V632.81l-4.35,1.86v-1.92l6.18-2.83Z" style="fill: #4a4a49"/>
    <path d="M1009.91,654.91a12.27,12.27,0,0,0,2.34-8.46h2a11.73,11.73,0,0,1-3,8.92Z" style="fill: #4a4a49"/>
    <path d="M1022.82,629.92v20.27h-1.92V632.81l-4.35,1.86v-1.92l6.18-2.83Z" style="fill: #4a4a49"/>
    <path d="M1040.66,644.5c0,3.59-2.93,6-7,6a6.87,6.87,0,0,1-6.33-4l1.62-.89a5.19,5.19,0,0,0,4.65,3c2.9,0,5.09-1.61,5.09-4.05s-2-4.23-4.57-4.23h-2v-1.71h2a3.37,3.37,0,0,0,3.65-3.44c0-2-1.58-3.41-3.92-3.41a4.72,4.72,0,0,0-3.93,2.11l-1.4-1.1a6.28,6.28,0,0,1,5.36-2.86c3.5,0,5.84,2.1,5.84,5.23a4.62,4.62,0,0,1-2.68,4.27A5.13,5.13,0,0,1,1040.66,644.5Z" style="fill: #4a4a49"/>
    <path d="M1057.25,630.16v.21l-10.9,19.82h-2.28l10-18.17h-10v-1.86Z" style="fill: #4a4a49"/>
    <path d="M1055.36,654.91a12.27,12.27,0,0,0,2.35-8.46h2a11.73,11.73,0,0,1-3,8.92Z" style="fill: #4a4a49"/>
    <path d="M1077.52,643.89c0,4-3,6.61-6.88,6.61a7.67,7.67,0,0,1-7-4.21l1.62-.88a5.8,5.8,0,0,0,5.23,3.23c2.9,0,5.06-1.89,5.06-4.72a4.48,4.48,0,0,0-4.78-4.54,10.88,10.88,0,0,0-5.3,1.71l-1.13-1,1.77-9.92h10V632h-8.46l-1.31,7a9.54,9.54,0,0,1,4.72-1.37A6,6,0,0,1,1077.52,643.89Z" style="fill: #4a4a49"/>
    <path d="M1094.51,643.89c0,4-3,6.61-6.88,6.61a7.67,7.67,0,0,1-7-4.21l1.62-.88a5.8,5.8,0,0,0,5.23,3.23c2.89,0,5-1.89,5-4.72a4.48,4.48,0,0,0-4.77-4.54,10.88,10.88,0,0,0-5.3,1.71l-1.13-1,1.77-9.92h10V632h-8.46l-1.31,7a9.54,9.54,0,0,1,4.72-1.37A6,6,0,0,1,1094.51,643.89Z" style="fill: #4a4a49"/>
    <path d="M1111.5,643.89c0,4-3,6.61-6.88,6.61a7.66,7.66,0,0,1-7-4.21l1.61-.88a5.81,5.81,0,0,0,5.24,3.23c2.89,0,5-1.89,5-4.72a4.48,4.48,0,0,0-4.78-4.54,10.88,10.88,0,0,0-5.29,1.71l-1.13-1,1.77-9.92h10V632h-8.46l-1.31,7a9.54,9.54,0,0,1,4.72-1.37A6,6,0,0,1,1111.5,643.89Z" style="fill: #4a4a49"/>
  </g>
  <g>
    <path d="M23.91,708H14.22l-2.1,5.57H10l8-21h2.13l8,21H26Zm-.7-1.8-4.15-10.93-4.14,10.93Z" style="fill: #4a4a49"/>
    <path d="M30.06,706.49a7.26,7.26,0,0,1,7.52-7.4A7.46,7.46,0,0,1,42.69,701l-1.22,1.34A5.61,5.61,0,0,0,37.64,701a5.54,5.54,0,1,0,0,11.08,5.64,5.64,0,0,0,3.83-1.4l1.22,1.31a7.36,7.36,0,0,1-5.11,1.94A7.26,7.26,0,0,1,30.06,706.49Z" style="fill: #4a4a49"/>
    <path d="M45.22,706.49a7.26,7.26,0,0,1,7.52-7.4A7.46,7.46,0,0,1,57.85,701l-1.22,1.34A5.61,5.61,0,0,0,52.8,701a5.54,5.54,0,1,0,0,11.08,5.64,5.64,0,0,0,3.83-1.4l1.22,1.31a7.36,7.36,0,0,1-5.11,1.94A7.26,7.26,0,0,1,45.22,706.49Z" style="fill: #4a4a49"/>
    <path d="M70.42,699.51l-.36,1.86a5.07,5.07,0,0,0-1.92-.39c-3.38,0-4.41,3.77-4.41,7.27v5.36h-2V699.39h2v3.47c.7-2.4,2.22-3.77,4.44-3.77A5.65,5.65,0,0,1,70.42,699.51Z" style="fill: #4a4a49"/>
    <path d="M85.86,699.39v14.22h-2v-2.5c-.85,2-3.16,2.8-4.93,2.8-3.44,0-5.78-2.31-5.75-6.24v-8.28h2v8.19c0,2.74,1.7,4.42,4,4.42a4.43,4.43,0,0,0,4.72-4.72v-7.89Z" style="fill: #4a4a49"/>
    <path d="M104.89,699.39v14.22h-2v-2.77a6.34,6.34,0,0,1-5.66,3.07,7.41,7.41,0,0,1,0-14.82,6.35,6.35,0,0,1,5.66,3v-2.74Zm-2,7.16a5.47,5.47,0,0,0-5.51-5.6A5.41,5.41,0,0,0,92,706.46a5.48,5.48,0,0,0,5.42,5.6A5.42,5.42,0,0,0,102.94,706.55Z" style="fill: #4a4a49"/>
    <path d="M110.07,691.39H112v22.22h-1.94Z" style="fill: #4a4a49"/>
    <path d="M116,709.77h1.8a3.14,3.14,0,0,0,3.38,2.41c2,0,3.28-1,3.28-2.44,0-1.15-.79-1.91-2.25-2.28l-2-.49c-2-.48-3.62-1.52-3.62-3.89s2-4,4.69-4c2.37,0,4.56,1.31,4.66,3.87H124a2.56,2.56,0,0,0-2.74-2.14c-1.65,0-2.77.95-2.77,2.29s1.16,1.92,2.19,2.16l2.1.52c2.77.67,3.62,2.34,3.62,4,0,2.53-2.28,4.14-5.23,4.14C118.71,713.91,116.25,712.48,116,709.77Z" style="fill: #4a4a49"/>
    <path d="M128.15,718.33a12.28,12.28,0,0,0,2.34-8.46h1.95a11.68,11.68,0,0,1-2.95,8.91Z" style="fill: #4a4a49"/>
    <path d="M160.63,706.52a7.16,7.16,0,0,1-7.21,7.39,6.33,6.33,0,0,1-5.67-3.07v9.68h-1.94V699.39h1.94v2.8a6.37,6.37,0,0,1,5.67-3.1A7.18,7.18,0,0,1,160.63,706.52Zm-1.92,0a5.47,5.47,0,0,0-5.44-5.6,5.42,5.42,0,0,0-5.52,5.51,5.48,5.48,0,1,0,11,.09Z" style="fill: #4a4a49"/>
    <path d="M173.51,699.51l-.37,1.86a5,5,0,0,0-1.91-.39c-3.38,0-4.42,3.77-4.42,7.27v5.36h-2V699.39h2v3.47c.7-2.4,2.23-3.77,4.45-3.77A5.68,5.68,0,0,1,173.51,699.51Z" style="fill: #4a4a49"/>
    <path d="M174.88,706.46a7.45,7.45,0,0,1,14.89,0,7.45,7.45,0,1,1-14.89,0Zm12.94,0a5.5,5.5,0,1,0-5.51,5.6A5.42,5.42,0,0,0,187.82,706.46Z" style="fill: #4a4a49"/>
    <path d="M205.72,699.39l-6,14.22h-2l-5.93-14.22h2.07l4.87,11.85,4.93-11.85Z" style="fill: #4a4a49"/>
    <path d="M208.55,694.16a1.51,1.51,0,0,1,3,0,1.52,1.52,0,0,1-3,0Zm.52,5.23h2v14.22h-2Z" style="fill: #4a4a49"/>
    <path d="M215,709.77h1.79a3.15,3.15,0,0,0,3.38,2.41c2,0,3.29-1,3.29-2.44,0-1.15-.79-1.91-2.25-2.28l-2-.49c-2-.48-3.62-1.52-3.62-3.89s2-4,4.68-4c2.38,0,4.57,1.31,4.66,3.87H223a2.55,2.55,0,0,0-2.73-2.14c-1.65,0-2.78.95-2.78,2.29s1.16,1.92,2.2,2.16l2.1.52c2.77.67,3.62,2.34,3.62,4,0,2.53-2.28,4.14-5.24,4.14C217.72,713.91,215.25,712.48,215,709.77Z" style="fill: #4a4a49"/>
    <path d="M229,694.16a1.52,1.52,0,1,1,1.49,1.37A1.44,1.44,0,0,1,229,694.16Zm.52,5.23h1.95v14.22h-1.95Z" style="fill: #4a4a49"/>
    <path d="M235.65,706.46a7.45,7.45,0,0,1,14.89,0,7.45,7.45,0,1,1-14.89,0Zm12.94,0a5.5,5.5,0,1,0-5.51,5.6A5.42,5.42,0,0,0,248.59,706.46Z" style="fill: #4a4a49"/>
    <path d="M267.37,705.33v8.28h-1.95v-8.19c0-2.74-1.73-4.41-4-4.41a4.45,4.45,0,0,0-4.75,4.71v7.89h-2V699.39h2V702c.85-2,3.16-2.86,4.93-2.86C265,699.09,267.37,701.4,267.37,705.33Z" style="fill: #4a4a49"/>
    <path d="M271.18,709.77H273a3.13,3.13,0,0,0,3.37,2.41c2,0,3.29-1,3.29-2.44,0-1.15-.79-1.91-2.25-2.28l-2-.49c-2-.48-3.62-1.52-3.62-3.89s2-4,4.69-4c2.37,0,4.56,1.31,4.65,3.87h-1.88a2.56,2.56,0,0,0-2.74-2.14c-1.65,0-2.77.95-2.77,2.29s1.15,1.92,2.19,2.16l2.1.52c2.77.67,3.62,2.34,3.62,4,0,2.53-2.28,4.14-5.24,4.14C273.89,713.91,271.42,712.48,271.18,709.77Z" style="fill: #4a4a49"/>
    <path d="M307.8,699.39v14.22h-1.95v-2.77a6.33,6.33,0,0,1-5.66,3.07,7.41,7.41,0,0,1,0-14.82,6.34,6.34,0,0,1,5.66,3v-2.74Zm-1.95,7.16a5.46,5.46,0,0,0-5.51-5.6,5.4,5.4,0,0,0-5.41,5.51,5.47,5.47,0,0,0,5.41,5.6A5.41,5.41,0,0,0,305.85,706.55Z" style="fill: #4a4a49"/>
    <path d="M325.64,705.33v8.28H323.7v-8.19c0-2.74-1.74-4.41-4-4.41a4.45,4.45,0,0,0-4.75,4.71v7.89H313V699.39h1.95V702c.85-2,3.16-2.86,4.93-2.86C323.3,699.09,325.64,701.4,325.64,705.33Z" style="fill: #4a4a49"/>
    <path d="M344.46,691.39v22.22h-1.95v-2.77a6.36,6.36,0,0,1-5.66,3.07,7.41,7.41,0,0,1,0-14.82,6.36,6.36,0,0,1,5.66,3V691.39Zm-1.95,15.16A5.47,5.47,0,0,0,337,701a5.41,5.41,0,0,0-5.42,5.51,5.48,5.48,0,0,0,5.42,5.6A5.42,5.42,0,0,0,342.51,706.55Z" style="fill: #4a4a49"/>
    <path d="M356.91,706.46a7.45,7.45,0,0,1,14.89,0,7.45,7.45,0,1,1-14.89,0Zm12.94,0a5.5,5.5,0,1,0-5.51,5.6A5.42,5.42,0,0,0,369.85,706.46Z" style="fill: #4a4a49"/>
    <path d="M381.85,701.07h-3.26v12.54h-1.92V701.07h-2.59v-1.68h2.59v-5.66h1.92v5.66h3.26Z" style="fill: #4a4a49"/>
    <path d="M397.8,705.33v8.28h-1.95v-8.19c0-2.74-1.74-4.41-4-4.41a4.46,4.46,0,0,0-4.75,4.71v7.89h-1.95V691.39h1.95V702c.85-2,3.17-2.86,4.93-2.86C395.45,699.09,397.8,701.4,397.8,705.33Z" style="fill: #4a4a49"/>
    <path d="M416,707.31H403.77a5,5,0,0,0,5.32,4.75,5.3,5.3,0,0,0,4.63-2.44l1.67.73A7.36,7.36,0,1,1,409,699.09c4.05,0,7,2.86,7,7.37A8.14,8.14,0,0,1,416,707.31Zm-1.88-1.68A4.85,4.85,0,0,0,409,701a5,5,0,0,0-5.23,4.68Z" style="fill: #4a4a49"/>
    <path d="M428.82,699.51l-.36,1.86a5.11,5.11,0,0,0-1.92-.39c-3.38,0-4.42,3.77-4.42,7.27v5.36h-2V699.39h2v3.47c.7-2.4,2.23-3.77,4.45-3.77A5.68,5.68,0,0,1,428.82,699.51Z" style="fill: #4a4a49"/>
    <path d="M439.26,691.39h1.95v22.22h-1.95Z" style="fill: #4a4a49"/>
    <path d="M445.87,694.16a1.51,1.51,0,1,1,1.49,1.37A1.44,1.44,0,0,1,445.87,694.16Zm.52,5.23h1.95v14.22h-1.95Z" style="fill: #4a4a49"/>
    <path d="M467.36,699.39v14.22h-1.94v-2.77a6.36,6.36,0,0,1-5.67,3.07,7.41,7.41,0,0,1,0-14.82,6.36,6.36,0,0,1,5.67,3v-2.74Zm-1.94,7.16a5.47,5.47,0,0,0-5.51-5.6,5.41,5.41,0,0,0-5.42,5.51,5.47,5.47,0,1,0,10.93.09Z" style="fill: #4a4a49"/>
    <path d="M487.37,706.49a7.18,7.18,0,0,1-7.22,7.42,6.33,6.33,0,0,1-5.66-3.1v2.8h-1.95V691.39h1.95v10.77a6.31,6.31,0,0,1,5.66-3.07A7.16,7.16,0,0,1,487.37,706.49Zm-1.92,0a5.48,5.48,0,1,0-5.45,5.6A5.48,5.48,0,0,0,485.45,706.46Z" style="fill: #4a4a49"/>
    <path d="M491.05,694.16a1.52,1.52,0,1,1,1.49,1.37A1.44,1.44,0,0,1,491.05,694.16Zm.52,5.23h1.95v14.22h-1.95Z" style="fill: #4a4a49"/>
    <path d="M498.69,691.39h1.95v22.22h-1.95Z" style="fill: #4a4a49"/>
    <path d="M505.3,694.16a1.51,1.51,0,1,1,1.49,1.37A1.44,1.44,0,0,1,505.3,694.16Zm.52,5.23h1.95v14.22h-1.95Z" style="fill: #4a4a49"/>
    <path d="M519.06,701.07H515.8v12.54h-1.92V701.07H511.3v-1.68h2.58v-5.66h1.92v5.66h3.26Z" style="fill: #4a4a49"/>
    <path d="M521.83,694.16a1.52,1.52,0,1,1,1.49,1.37A1.44,1.44,0,0,1,521.83,694.16Zm.52,5.23h1.95v14.22h-1.95Z" style="fill: #4a4a49"/>
    <path d="M542.71,707.31H530.48a5,5,0,0,0,5.32,4.75,5.3,5.3,0,0,0,4.63-2.44l1.68.73a7.33,7.33,0,0,1-13.61-3.89,7,7,0,0,1,7.24-7.37c4,0,7,2.86,7,7.37A6.12,6.12,0,0,1,542.71,707.31Zm-1.88-1.68a4.85,4.85,0,0,0-5.09-4.68,5,5,0,0,0-5.23,4.68Z" style="fill: #4a4a49"/>
    <path d="M545.7,709.77h1.8a3.14,3.14,0,0,0,3.38,2.41c2,0,3.28-1,3.28-2.44,0-1.15-.79-1.91-2.25-2.28l-2-.49c-2-.48-3.62-1.52-3.62-3.89s2-4,4.69-4c2.37,0,4.56,1.31,4.65,3.87h-1.88a2.56,2.56,0,0,0-2.74-2.14c-1.65,0-2.77.95-2.77,2.29s1.15,1.92,2.19,2.16l2.1.52c2.77.67,3.62,2.34,3.62,4,0,2.53-2.28,4.14-5.23,4.14C548.41,713.91,545.94,712.48,545.7,709.77Z" style="fill: #4a4a49"/>
  </g>
  <g>
    <path d="M762.63,693.34v20.27h-1.92V696.23l-4.35,1.85v-1.91l6.18-2.83Z" style="fill: #4a4a49"/>
    <path d="M780.65,693.58v.21l-10.9,19.82h-2.28l10-18.17h-10v-1.86Z" style="fill: #4a4a49"/>
    <path d="M796.7,707.67c0,3.6-3.08,6.24-7.25,6.24s-7.24-2.64-7.24-6.21a6,6,0,0,1,4.11-5.72,4.26,4.26,0,0,1-2.32-3.86c0-2.71,2.23-4.78,5.45-4.78s5.48,2.07,5.48,4.78a4.23,4.23,0,0,1-2.34,3.86A6.05,6.05,0,0,1,796.7,707.67Zm-2-.09c0-2.59-2.32-4.59-5.21-4.59s-5.2,2-5.2,4.56,2.25,4.51,5.2,4.51S794.66,710.08,794.66,707.58ZM786,698.27a3.48,3.48,0,0,0,6.91,0,3.47,3.47,0,0,0-6.91,0Z" style="fill: #4a4a49"/>
    <path d="M798.65,718.33a12.28,12.28,0,0,0,2.34-8.46h2a11.72,11.72,0,0,1-3,8.91Z" style="fill: #4a4a49"/>
    <path d="M821.33,702.16c0,4.33-1.1,11.75-7.83,11.75a5.93,5.93,0,0,1-5.9-3.8l1.76-.73a4.26,4.26,0,0,0,4.17,2.68c4,0,5.76-4.42,5.67-8.4a6.09,6.09,0,0,1-5.21,2.67,6.5,6.5,0,1,1,.21-13C818.8,693.34,821.33,696.84,821.33,702.16Zm-2.16-1.85a4.94,4.94,0,0,0-9.87-.4,4.6,4.6,0,0,0,4.72,4.57C816.33,704.48,819.07,703.14,819.17,700.31Z" style="fill: #4a4a49"/>
    <path d="M830.58,693.34v20.27h-1.91V696.23l-4.36,1.85v-1.91l6.18-2.83Z" style="fill: #4a4a49"/>
    <path d="M850.07,707.67c0,3.6-3.08,6.24-7.25,6.24s-7.24-2.64-7.24-6.21a6,6,0,0,1,4.11-5.72,4.26,4.26,0,0,1-2.32-3.86c0-2.71,2.22-4.78,5.45-4.78s5.48,2.07,5.48,4.78A4.23,4.23,0,0,1,846,702,6.05,6.05,0,0,1,850.07,707.67Zm-2-.09c0-2.59-2.32-4.59-5.21-4.59s-5.2,2-5.2,4.56,2.25,4.51,5.2,4.51S848,710.08,848,707.58Zm-8.65-9.31a3.48,3.48,0,0,0,6.91,0,3.47,3.47,0,0,0-6.91,0Z" style="fill: #4a4a49"/>
  </g>
  <g>
    <path d="M1015.42,711.72v1.89h-12.15v-.82l7.92-9.53a7.88,7.88,0,0,0,2-4.23,3.76,3.76,0,0,0-4.08-3.84c-2.23,0-3.9,1.19-4.26,3.11l-1.74-.43c.49-2.8,2.83-4.53,6-4.53,3.56,0,6,2.25,6,5.69a8.65,8.65,0,0,1-2.25,5.11l-6.36,7.58Z" style="fill: #4a4a49"/>
    <path d="M1033.11,709.38h-3v4.23h-1.95v-4.23H1017.7v-.46l12-15.34h.42v13.94h3Zm-4.94-1.86v-9.28l-7.24,9.28Z" style="fill: #4a4a49"/>
    <path d="M1050.49,707.37a6.49,6.49,0,0,1-6.88,6.54c-4.63,0-7.12-3.07-7.12-8.85,0-4.3,1.06-11.72,7.79-11.72a6,6,0,0,1,5.94,3.8l-1.77.73a4.26,4.26,0,0,0-4.2-2.68c-4,0-5.75,4.48-5.63,8.47a6,6,0,0,1,5.2-2.74A6.45,6.45,0,0,1,1050.49,707.37Zm-2,0a4.56,4.56,0,0,0-4.72-4.57c-2.31,0-5,1.34-5.14,4.17a4.93,4.93,0,0,0,9.86.4Z" style="fill: #4a4a49"/>
    <path d="M1052.56,718.33a12.29,12.29,0,0,0,2.35-8.46h1.95a11.72,11.72,0,0,1-3,8.91Z" style="fill: #4a4a49"/>
    <path d="M1075.24,702.16c0,4.33-1.09,11.75-7.82,11.75a5.94,5.94,0,0,1-5.91-3.8l1.77-.73a4.24,4.24,0,0,0,4.17,2.68c4,0,5.75-4.42,5.66-8.4a6.06,6.06,0,0,1-5.2,2.67,6.5,6.5,0,1,1,.21-13C1072.72,693.34,1075.24,696.84,1075.24,702.16Zm-2.16-1.85a4.93,4.93,0,0,0-9.86-.4,4.6,4.6,0,0,0,4.72,4.57C1070.25,704.48,1073,703.14,1073.08,700.31Z" style="fill: #4a4a49"/>
    <path d="M1093.14,702.16c0,4.33-1.09,11.75-7.82,11.75a5.94,5.94,0,0,1-5.91-3.8l1.77-.73a4.25,4.25,0,0,0,4.17,2.68c4,0,5.75-4.42,5.66-8.4a6.06,6.06,0,0,1-5.2,2.67,6.5,6.5,0,1,1,.21-13C1090.62,693.34,1093.14,696.84,1093.14,702.16Zm-2.16-1.85a4.93,4.93,0,0,0-9.86-.4,4.6,4.6,0,0,0,4.72,4.57C1088.15,704.48,1090.89,703.14,1091,700.31Z" style="fill: #4a4a49"/>
    <path d="M1111,702.16c0,4.33-1.09,11.75-7.82,11.75a5.92,5.92,0,0,1-5.9-3.8l1.76-.73a4.25,4.25,0,0,0,4.17,2.68c4,0,5.75-4.42,5.66-8.4a6.06,6.06,0,0,1-5.2,2.67,6.5,6.5,0,1,1,.21-13C1108.52,693.34,1111,696.84,1111,702.16Zm-2.16-1.85a4.93,4.93,0,0,0-9.86-.4,4.6,4.6,0,0,0,4.72,4.57C1106.05,704.48,1108.79,703.14,1108.88,700.31Z" style="fill: #4a4a49"/>
  </g>
  <g>
    <path d="M731,756.66v20.18h-3.5V761.5l-4.48,1.77V760l7.74-3.32Z" style="fill: #fff"/>
    <path d="M733.74,781a10.93,10.93,0,0,0,2.4-8h3.35a10.79,10.79,0,0,1-3.62,8.86Z" style="fill: #fff"/>
    <path d="M743.21,766.92c0-5.69,1.58-10.26,7.37-10.26s7.3,4.57,7.3,10.26-1.55,10.23-7.3,10.23S743.21,772.58,743.21,766.92Zm11.11,0c0-3.84-.79-7-3.74-7s-3.81,3.13-3.81,7,.82,6.94,3.81,6.94S754.32,770.72,754.32,766.92Z" style="fill: #fff"/>
    <path d="M774.44,773.53v3.31H761.32v-1.79l7.64-9.23a6.13,6.13,0,0,0,1.65-3.22c0-1.59-1.19-2.65-3-2.65a3.08,3.08,0,0,0-3.25,2.95l-3.2-.61a6.19,6.19,0,0,1,6.58-5.63c3.89,0,6.42,2.41,6.42,6a8.36,8.36,0,0,1-2.22,5.08l-5,5.79Z" style="fill: #fff"/>
    <path d="M790.91,773.53v3.31H777.79v-1.79l7.64-9.23a6.13,6.13,0,0,0,1.65-3.22c0-1.59-1.19-2.65-3-2.65a3.08,3.08,0,0,0-3.25,2.95l-3.2-.61a6.19,6.19,0,0,1,6.58-5.63c3.89,0,6.42,2.41,6.42,6a8.3,8.3,0,0,1-2.22,5.08l-5,5.79Z" style="fill: #fff"/>
    <path d="M792.56,781a10.93,10.93,0,0,0,2.4-8h3.35a10.79,10.79,0,0,1-3.62,8.86Z" style="fill: #fff"/>
    <path d="M815.27,773.53v3.31H802.15v-1.79l7.64-9.23a6.17,6.17,0,0,0,1.64-3.22,2.67,2.67,0,0,0-3-2.65,3.09,3.09,0,0,0-3.26,2.95l-3.19-.61a6.18,6.18,0,0,1,6.57-5.63c3.9,0,6.43,2.41,6.43,6a8.31,8.31,0,0,1-2.23,5.08l-5,5.79Z" style="fill: #fff"/>
    <path d="M833.81,770.88c0,3.74-3.32,6.27-7.64,6.27s-7.64-2.53-7.64-6.24a5.59,5.59,0,0,1,3.77-5.39,4.21,4.21,0,0,1-2.19-3.81c0-3,2.59-5.05,6.06-5.05s6.06,2.1,6.06,5.05a4.22,4.22,0,0,1-2.19,3.81A5.55,5.55,0,0,1,833.81,770.88Zm-3.68-.31c0-2-1.74-3.44-4-3.44s-4,1.46-4,3.44,1.71,3.35,4,3.35S830.13,772.49,830.13,770.57Zm-6.52-8.49a2.58,2.58,0,0,0,5.12,0,2.57,2.57,0,0,0-5.12,0Z" style="fill: #fff"/>
    <path d="M850,773.53v3.31H836.92v-1.79l7.64-9.23a6.17,6.17,0,0,0,1.64-3.22,2.67,2.67,0,0,0-3-2.65A3.09,3.09,0,0,0,840,762.9l-3.2-.61a6.2,6.2,0,0,1,6.58-5.63c3.9,0,6.42,2.41,6.42,6a8.3,8.3,0,0,1-2.22,5.08l-5,5.79Z" style="fill: #fff"/>
  </g>
  <g>
    <path d="M988.44,756.66v20.18h-3.5V761.5l-4.47,1.77V760l7.73-3.32Z" style="fill: #fff"/>
    <path d="M991.15,781a11,11,0,0,0,2.41-8h3.35a10.82,10.82,0,0,1-3.62,8.86Z" style="fill: #fff"/>
    <path d="M1015.9,772.92h-3v3.92h-3.56v-3.92h-9.8V772l11.75-15.07h1.61v12.82h3Zm-6.54-3.2V764l-4.48,5.72Z" style="fill: #fff"/>
    <path d="M1033.35,770.15c0,4.32-3.38,7-7.49,7a8.23,8.23,0,0,1-7.24-4.26l2.8-1.77a4.8,4.8,0,0,0,4.26,2.71c2.4,0,4.11-1.46,4.11-3.65a3.66,3.66,0,0,0-3.93-3.63,7.44,7.44,0,0,0-4.57,1.8l-2.1-1.46,1.74-10H1032v3.29h-8.16l-.94,4.63a6.83,6.83,0,0,1,3.92-1.25A6.29,6.29,0,0,1,1033.35,770.15Z" style="fill: #fff"/>
    <path d="M1051.65,772.92h-3v3.92h-3.56v-3.92h-9.8V772l11.75-15.07h1.61v12.82h3Zm-6.55-3.2V764l-4.47,5.72Z" style="fill: #fff"/>
    <path d="M1052.93,781a11,11,0,0,0,2.4-8h3.35a10.82,10.82,0,0,1-3.62,8.86Z" style="fill: #fff"/>
    <path d="M1077,770.15c0,4.32-3.38,7-7.49,7a8.26,8.26,0,0,1-7.25-4.26l2.8-1.77a4.81,4.81,0,0,0,4.26,2.71c2.41,0,4.11-1.46,4.11-3.65a3.65,3.65,0,0,0-3.92-3.63,7.42,7.42,0,0,0-4.57,1.8l-2.1-1.46,1.74-10h11.08v3.29h-8.16l-1,4.63a6.89,6.89,0,0,1,3.93-1.25A6.29,6.29,0,0,1,1077,770.15Z" style="fill: #fff"/>
    <path d="M1093.11,771c0,3.65-2.95,6.09-7.15,6.09a7.16,7.16,0,0,1-6.52-3.75l2.56-1.85a4.51,4.51,0,0,0,3.81,2.37c2.19,0,3.74-1.22,3.74-3s-1.55-3.2-3.74-3.2h-2v-2.77h1.4c2.13,0,3.44-1.19,3.38-2.74a2.48,2.48,0,0,0-2.77-2.28,4.31,4.31,0,0,0-3.41,1.73l-2.1-2.16a7.17,7.17,0,0,1,5.81-2.83c3.5,0,6.06,2.1,6,5.42a4.41,4.41,0,0,1-2.59,4A5.07,5.07,0,0,1,1093.11,771Z" style="fill: #fff"/>
    <path d="M1111.29,766.28c0,5.45-2.53,10.87-8.37,10.87a6.6,6.6,0,0,1-6.31-4l3-1.52a3.54,3.54,0,0,0,3.35,2.22c2.67,0,4.65-2.59,4.71-6a5.61,5.61,0,0,1-4.47,1.95,6.47,6.47,0,0,1-6.76-6.45c0-3.69,2.83-6.67,7.25-6.67C1108.39,756.66,1111.29,760.65,1111.29,766.28Zm-3.9-2.83a3.73,3.73,0,0,0-7.43-.09,3.4,3.4,0,0,0,3.53,3.35C1105.69,766.71,1107.33,765.34,1107.39,763.45Z" style="fill: #fff"/>
  </g>
  <g>
    <path d="M741.44,820.08v20.18h-3.5V824.92l-4.47,1.76V823.4l7.73-3.32Z" style="fill: #fff"/>
    <path d="M744.15,844.37a11,11,0,0,0,2.41-8h3.35a10.8,10.8,0,0,1-3.63,8.86Z" style="fill: #fff"/>
    <path d="M760,820.08v20.18h-3.5V824.92L752,826.68V823.4l7.73-3.32Z" style="fill: #fff"/>
    <path d="M778.83,833.56c0,4.33-3.38,7-7.49,7a8.25,8.25,0,0,1-7.25-4.27l2.8-1.76a4.81,4.81,0,0,0,4.27,2.71c2.4,0,4.11-1.46,4.11-3.66a3.66,3.66,0,0,0-3.93-3.62,7.44,7.44,0,0,0-4.57,1.8l-2.1-1.46,1.74-10h11.08v3.29h-8.16l-.94,4.63a6.83,6.83,0,0,1,3.92-1.25A6.28,6.28,0,0,1,778.83,833.56Z" style="fill: #fff"/>
    <path d="M795,834.45c0,3.65-3,6.09-7.15,6.09a7.13,7.13,0,0,1-6.51-3.75l2.55-1.86a4.51,4.51,0,0,0,3.81,2.38c2.19,0,3.74-1.22,3.74-3s-1.55-3.2-3.74-3.2h-2v-2.77h1.4c2.13,0,3.44-1.19,3.38-2.74a2.48,2.48,0,0,0-2.77-2.28,4.31,4.31,0,0,0-3.41,1.73l-2.1-2.16a7.18,7.18,0,0,1,5.81-2.83c3.5,0,6.06,2.1,6,5.42a4.4,4.4,0,0,1-2.59,4A5.06,5.06,0,0,1,795,834.45Z" style="fill: #fff"/>
    <path d="M796.49,844.37a11,11,0,0,0,2.4-8h3.35a10.79,10.79,0,0,1-3.62,8.86Z" style="fill: #fff"/>
    <path d="M812.29,820.08v20.18h-3.5V824.92l-4.48,1.76V823.4l7.73-3.32Z" style="fill: #fff"/>
    <path d="M831.89,834.29c0,3.75-3.32,6.28-7.64,6.28s-7.64-2.53-7.64-6.24a5.59,5.59,0,0,1,3.77-5.39,4.22,4.22,0,0,1-2.19-3.81c0-3,2.59-5,6.06-5s6.06,2.1,6.06,5a4.21,4.21,0,0,1-2.19,3.81A5.55,5.55,0,0,1,831.89,834.29Zm-3.68-.3c0-2-1.74-3.44-4-3.44s-4,1.46-4,3.44,1.71,3.35,4,3.35S828.21,835.91,828.21,834Zm-6.52-8.49a2.58,2.58,0,0,0,5.12,0,2.57,2.57,0,0,0-5.12,0Z" style="fill: #fff"/>
    <path d="M850,833.9c0,3.68-2.86,6.67-7.25,6.67-4.75,0-7.64-3.53-7.64-9.62,0-5.45,2.5-10.87,8.34-10.87a6.58,6.58,0,0,1,6.33,4l-3,1.49a3.6,3.6,0,0,0-3.38-2.19c-2.71,0-4.66,2.61-4.69,6.09a5.66,5.66,0,0,1,4.48-2A6.5,6.5,0,0,1,850,833.9Zm-3.6,0a3.42,3.42,0,0,0-3.53-3.38c-2.19,0-3.8,1.37-3.86,3.29a3.71,3.71,0,0,0,7.39.09Z" style="fill: #fff"/>
  </g>
  <g>
    <path d="M1000.8,820.08v20.18h-3.5V824.92l-4.47,1.76V823.4l7.73-3.32Z" style="fill: #fff"/>
    <path d="M1003.52,844.37a11,11,0,0,0,2.4-8h3.35a10.79,10.79,0,0,1-3.62,8.86Z" style="fill: #fff"/>
    <path d="M1027.78,833.9c0,3.68-2.86,6.67-7.25,6.67-4.75,0-7.64-3.53-7.64-9.62,0-5.45,2.5-10.87,8.34-10.87a6.59,6.59,0,0,1,6.34,4l-3,1.49a3.6,3.6,0,0,0-3.38-2.19c-2.71,0-4.65,2.61-4.69,6.09a5.66,5.66,0,0,1,4.48-2A6.5,6.5,0,0,1,1027.78,833.9Zm-3.59,0a3.43,3.43,0,0,0-3.53-3.38c-2.2,0-3.81,1.37-3.87,3.29a3.71,3.71,0,0,0,7.4.09Z" style="fill: #fff"/>
    <path d="M1031.22,830.34c0-5.69,1.58-10.26,7.37-10.26s7.3,4.57,7.3,10.26-1.55,10.23-7.3,10.23S1031.22,836,1031.22,830.34Zm11.11,0c0-3.84-.79-7-3.74-7s-3.81,3.13-3.81,7,.82,6.94,3.81,6.94S1042.33,834.14,1042.33,830.34Z" style="fill: #fff"/>
    <path d="M1056.67,820.08v20.18h-3.5V824.92l-4.47,1.76V823.4l7.73-3.32Z" style="fill: #fff"/>
    <path d="M1059.38,844.37a11,11,0,0,0,2.41-8h3.34a10.76,10.76,0,0,1-3.62,8.86Z" style="fill: #fff"/>
    <path d="M1083.4,833.56c0,4.33-3.38,7-7.49,7a8.25,8.25,0,0,1-7.24-4.27l2.8-1.76a4.8,4.8,0,0,0,4.26,2.71c2.4,0,4.11-1.46,4.11-3.66a3.66,3.66,0,0,0-3.93-3.62,7.39,7.39,0,0,0-4.56,1.8l-2.1-1.46,1.73-10h11.08v3.29h-8.16l-.94,4.63a6.84,6.84,0,0,1,3.93-1.25A6.28,6.28,0,0,1,1083.4,833.56Z" style="fill: #fff"/>
    <path d="M1099.57,834.45c0,3.65-3,6.09-7.16,6.09a7.14,7.14,0,0,1-6.51-3.75l2.56-1.86a4.49,4.49,0,0,0,3.8,2.38c2.19,0,3.75-1.22,3.75-3s-1.56-3.2-3.75-3.2h-2v-2.77h1.4c2.13,0,3.44-1.19,3.38-2.74a2.47,2.47,0,0,0-2.77-2.28,4.31,4.31,0,0,0-3.41,1.73l-2.1-2.16a7.19,7.19,0,0,1,5.82-2.83c3.5,0,6,2.1,6,5.42a4.41,4.41,0,0,1-2.58,4A5.06,5.06,0,0,1,1099.57,834.45Z" style="fill: #fff"/>
    <path d="M1110.1,820.08v20.18h-3.5V824.92l-4.47,1.76V823.4l7.73-3.32Z" style="fill: #fff"/>
  </g>
</svg>
